<?xml version="1.0" encoding="UTF-8"?>
<svg width="326px" height="206px" viewBox="0 0 326 206" version="1.1" xmlns="http://www.w3.org/2000/svg" xmlns:xlink="http://www.w3.org/1999/xlink">
    <!-- Generator: Sketch 46.2 (44496) - http://www.bohemiancoding.com/sketch -->
    <title>Bazar - Sale Revenues</title>
    <desc>Created with Sketch.</desc>
    <defs></defs>
    <g id="Page-1" stroke="none" stroke-width="1" fill="none" fill-rule="evenodd">
        <g id="Bazar---Sale-Revenues" fill-rule="nonzero">
            <path d="M35.3,144.4 C27.7,144.8 20,145.8 13.2,149.3 C6.4,152.8 0.8,159.2 0.1,166.8 C-0.8,176.8 7.2,186 16.5,189.8 C25.9,193.6 36.3,193.2 46.4,192.9 C72.1,192.2 97.7,192.1 123.4,192.8 C133.9,193.1 144.4,193.5 154.8,195.1 C165.8,196.8 176.5,199.7 187.4,201.6 C202.1,204.1 217.1,204.8 232,205.4 C247.4,206.1 263,206.7 278.2,204.2 C293.4,201.7 308.5,195.7 319.4,184.7 C321.9,182.1 324.3,179.2 325.3,175.8 C327.4,168.6 323.4,161.2 318.6,155.4 C307.3,142 290.9,133 273.5,130.7" id="Shape" fill="#B7D6E2"></path>
            <path d="M252.7,11.6 C253.3,11.2 253.7,10.9 254.1,10.6 C255.5,9.4 257.1,8.5 258.8,7.8 C259.9,7.3 261.1,6.8 262.1,6.2 C265.7,3.8 269.8,2.9 274.1,2.6 C275.2,2.5 276.3,2.7 277.3,2.9 C279.8,3.5 280.9,5.5 280.2,7.9 C279.5,10.4 278.4,12.7 276.8,14.8 C276.2,15.5 275.7,16.3 275.9,17.5 C276.3,17.6 276.7,17.6 277.2,17.7 C278.4,17.9 279.6,17.9 280.7,18.2 C282.4,18.6 283.6,20.2 283.7,22.1 C283.8,23.9 283.1,25.1 281.3,26 C280.3,26.5 279.2,27 278.1,27.4 C276.1,28.2 274.4,29.4 272.8,31 C273.7,32.5 275.6,33.5 275,35.8 C276.4,37.5 278,38.9 279.7,40.3 C281.4,41.7 282.8,43.4 284.2,45.1 C285,46.1 285.5,47.3 286.2,48.4 C287.1,49.8 287.9,51.3 289,52.5 C290.9,54.6 292.4,56.9 293.7,59.4 C294.8,61.6 296.1,63.8 297.3,66 C297.6,66.6 297.9,67.2 298.2,67.8 C299.4,70 300.6,72.1 301.7,74.3 C302.4,75.8 303,77.5 303.5,79.1 C304.1,81.2 304.6,83.4 306,85.3 C306.4,85.8 306.5,86.5 306.6,87.2 C307.3,90.4 308.1,93.6 308.7,96.8 C309.4,100.5 309.8,104.3 310.4,108.1 C311.3,114.6 310.7,121.1 310.8,127.5 C310.8,129.5 310.3,131.5 310.1,133.5 C309.9,135.5 309.7,137.5 309.4,139.5 C309.2,141.2 309,142.9 308.6,144.6 C307.7,148 306.8,151.4 305.3,154.7 C303.7,158.3 301.5,161.4 298.6,163.9 C297.5,164.9 296.4,166 295.3,167.1 C293.3,169.1 291,170.4 288.4,171.3 C286.2,172.1 284.1,173.1 281.8,173.4 C276.5,174.3 271.1,174.9 265.7,174.1 C261.7,173.6 257.7,172.9 253.6,172.3 C250.5,171.9 247.3,171.9 244.1,171.9 C239.7,171.8 235.5,172.4 231.2,173.1 C227.6,173.7 224,173.9 220.3,174.2 C218,174.3 215.7,174 213.5,173.3 C212.3,172.9 211,172.7 209.8,172.5 C207.5,172 205.1,171.7 202.8,171.1 C201,170.6 199.2,169.7 197.4,168.9 C196.1,168.3 194.9,167.5 193.7,166.9 C193.2,166.7 192.5,166.8 192,166.9 C187.9,167.9 183.7,168.5 179.5,168.4 C177.4,168.4 175.4,168 173.3,167.8 C167.9,167.5 162.7,165.6 157.4,164.9 C153.9,164.5 150.5,164 147,163.7 C142.7,163.4 138.4,163.2 134.1,163 C131.5,162.9 128.8,163.3 126.3,162.9 C122.5,162.4 118.9,161.3 115.8,158.8 C113.9,157.2 111.9,155.9 109.9,154.4 C109.4,154 108.9,153.6 108.3,153 C108.2,153.3 108.1,153.6 108,153.8 C107.6,155.7 107.3,157.5 106.8,159.4 C106.5,160.5 106,161.6 105.4,162.6 C103.6,165.5 101.6,168.3 98.8,170.4 C98.3,170.8 97.8,171 97.2,171.2 C94.1,172.3 91.1,173.4 88,174.4 C83.5,175.9 78.9,177.3 74.3,178.6 C72.7,179.1 71,179.3 69.4,179.4 C64.3,180 59.3,180.5 54.2,181 C51.5,181.3 48.9,181.5 46.2,181.8 C42.4,182.3 38.6,181.4 34.9,180.8 C32.7,180.4 30.4,179.6 28.3,178.4 C25.2,176.5 22.4,174.2 19.6,171.8 C17,169.6 14.9,167 12.6,164.6 C10.4,162.2 9.2,159.4 9,156.3 C8.8,152.8 8.6,149.3 9.3,145.8 C10.1,141.5 12,137.7 14.2,134 C15.6,131.6 16.9,129 18.4,126.6 C19.9,124.1 21.5,121.7 23.2,119.4 C27.7,113.2 33.4,108.4 39.4,103.8 C39.9,103.4 40.4,103.1 40.9,102.8 C41.4,102.5 41.9,102.2 42.5,101.9 C41.6,101.1 41.1,100.1 41.6,98.9 C42.1,97.9 42.7,97.1 43.4,96.1 C43.3,96 43.2,95.8 43,95.6 C39.4,92 37.2,87.5 35.3,82.9 C34.3,80.5 33.5,77.9 32.8,75.4 C31.9,72.4 32.3,69.4 33.9,66.7 C34.5,65.8 35.2,65.2 36.3,65.1 C38.5,64.8 40.3,65.6 42,66.9 C44.4,68.8 46.7,70.8 49.1,72.7 C50,73.4 51.1,74 52.2,74.5 C54.7,75.5 57,74.7 59.2,73.7 C60.8,73 62.3,72.1 63.9,71.4 C65.3,70.8 66.4,69.9 67.4,68.7 C68.2,67.8 69.1,66.9 70,66 C71.5,64.6 73.3,63.8 75.2,63.2 C77,62.6 80,63.7 81.2,65.3 C81.6,65.8 81.9,66.3 82.2,66.8 C83.1,68.3 83.1,68.3 84.8,69.4 C85,69.3 85.3,69.3 85.5,69.2 C87.4,68.2 89.3,67.3 90.9,65.8 C92.6,64.3 94.5,63.3 96.8,63.3 C97.3,63.3 97.9,63.4 98.4,63.7 C101.5,65.8 104,68.5 105.9,71.7 C107,73.6 106.7,75.4 104.9,76.9 C103.5,78 102.1,79.1 100.7,80.2 C99.5,81.2 98.8,82.4 98.6,83.9 C98.4,85.6 98.2,87.2 97.9,88.9 C97.3,91.9 96,94.4 93.3,96.1 C91.2,97.3 89.3,98.8 87.2,100.3 C88.1,101.4 88.7,102.7 88.4,104.1 C88.1,105.4 87.5,106.6 87,108.1 C87.4,108.6 87.9,109.3 88.4,110.1 C90.1,112.4 91.8,114.7 93.4,117.1 C93.5,117.2 93.6,117.4 93.7,117.4 C96,119.1 96.7,121.6 97.4,123.9 C99.8,126.2 102,128.3 104.4,130.5 C104.5,129.8 104.5,129.2 104.6,128.7 C104.7,124.7 105.5,120.8 106.8,117 C107.3,115.6 108,114.4 108.7,113.1 C109,112.5 109.4,111.9 109.6,111.3 C110.8,107.9 112.8,105 114.6,101.9 C115.5,100.3 116.4,98.5 117.4,97 C118.3,95.6 119.5,94.5 120.6,93.2 C121,92.8 121.4,92.3 121.6,91.8 C123.9,85.1 127.1,79.1 132.7,74.5 C134.8,72.8 136.8,70.9 139.6,69.5 C137.6,69.2 136.2,68.5 135.9,66.6 C135.7,64.9 136.6,63.7 138.1,62.9 C138,62.5 137.8,62.2 137.7,61.9 C137.6,61.8 137.5,61.8 137.5,61.8 C133.5,61.9 129.8,60.6 126.1,59.4 C124.9,59 123.8,58.3 122.8,57.5 C121.5,56.5 121.6,55.2 122.7,54 C123.9,52.7 125.3,52.1 127,52.4 C128.7,52.7 130.4,53.1 132,53.6 C136.3,54.9 140.6,54.5 144.7,53.2 C146.3,52.7 147.5,51.6 148.6,50.4 C150.6,48.2 152.6,46 154.6,43.7 C156.5,41.5 158.7,39.7 161.5,38.7 C162.6,38.3 163.5,37.8 164.6,37.4 C165.2,37.2 165.9,37 166.5,36.8 C171.5,35.5 174.4,40 174.1,43.6 C174,44.4 173.7,45.2 173.6,46 C173.5,46.6 173.3,47.3 173.4,47.9 C173.5,48.8 174.4,49.2 175.2,48.6 C175.7,48.2 176.1,47.7 176.5,47.3 C177.8,46 179.1,44.7 180.8,43.9 C183.1,42.8 185.3,41.5 187.6,40.5 C191.9,38.6 196,39.1 199.9,41.9 C200.8,42.5 201.6,43.2 202.4,44 C205.4,47.1 205.7,52.1 203,55.6 C201.6,57.4 200.1,58.9 198.2,60.2 C195.5,61.9 193,63.8 189.5,64.5 C190.8,65.9 191.5,67.3 190,69 C191,70.1 191.9,71.3 193,72.1 C194.5,73.2 195.7,74.5 196.5,76.2 C196.6,76.3 196.7,76.5 196.8,76.6 C197,76.5 197.1,76.4 197.2,76.2 C199.3,73.3 201.5,70.5 203.6,67.6 C205.4,65.1 207.2,62.6 209.1,60.1 C212.4,55.8 215.8,51.5 219.2,47.3 C220.1,46.2 221.3,45.3 222.2,44.2 C223.5,42.6 224.7,40.8 225.9,39.2 C225.4,37.1 225.4,35.4 227.3,34.2 C227.1,34.1 227,34 226.9,33.9 C223.9,32.9 220.8,32 217.8,30.9 C215.4,30 213.1,28.8 211.1,27.2 C208.8,25.3 208.4,22.3 210.1,19.9 C210.4,19.5 210.7,19.2 211,18.9 C212.8,17 214.1,16.7 216.6,17.6 C219,18.4 221.4,19.2 223.8,19.8 C225.4,20.2 226.8,19.9 228.1,18.7 C230.9,16.1 233,13 234.9,9.8 C237.1,6.1 240.4,3.5 243.9,1.2 C244.8,0.6 246.2,0.4 247.3,0.4 C249.8,0.4 251.6,2.4 251.7,4.8 C251.8,6.5 251.8,8.2 252.1,9.9 C251.6,10 252.2,10.7 252.7,11.6 Z M258.9,37.4 C259,37.9 259,38.1 259.1,38.2 C259.3,38.5 259.4,38.8 259.7,39 C261.9,41.8 264.1,44.5 265.8,47.6 C267.5,50.8 269.7,53.6 271.4,56.7 C272.7,59 273.7,61.6 274.7,64 C275.1,64.9 274.9,65.8 274.2,66.4 C273.3,67.1 272.4,67.9 271.4,68.4 C270.2,69.1 268.9,69.5 267.6,70.1 C266.5,70.6 265.5,70.3 264.9,69.3 C264.6,68.7 264.3,67.9 264.2,67.2 C264,64.8 263.8,62.4 264,59.9 C264.2,57.3 263.5,54.8 263.1,52.3 C262.9,51 262.4,49.6 261.8,48.4 C261.3,47.3 260.7,46.4 260.1,45.3 C260,45.3 259.9,45.4 259.8,45.4 C259.9,46.4 260,47.4 260.2,48.3 C260.6,51.1 260.8,53.9 259.7,56.7 C259.3,57.6 259.3,58.6 259.3,59.6 C259.2,60.8 259.2,61.9 259.2,63.1 C259.2,65 259,67 259.2,68.9 C259.3,70.6 259.7,72.4 260,74.1 C260.4,76.3 259.9,77.7 257.9,78.8 C257.1,79.3 256.1,79.6 255.2,79.9 C254.4,80.2 253.6,80.4 252.8,80.7 C251.4,81.2 250.6,81 249.6,79.9 C248.3,78.5 247.9,76.7 247.7,74.9 C247.2,68.6 248.2,62.4 250.6,56.6 C252.5,52.1 253.6,47.4 253.7,42.5 C253.7,40.9 253.7,39.3 253.7,37.5 C244.7,37.9 235.9,39.1 227,39.7 C226.9,39.8 226.7,39.9 226.6,40 C226.5,40.1 226.4,40.2 226.3,40.4 C225.3,42.7 223.6,44.4 221.9,46.1 C220,48.1 218.2,50.2 216.5,52.3 C215.6,53.4 214.8,54.7 213.9,55.9 C211.1,59.5 208.3,63.2 205.5,66.8 C203,70.2 200.3,73.4 198,76.9 C194.8,81.7 191.1,86.2 189.2,91.8 C188.4,94.2 187.3,96.5 186.8,99 C185.4,105.3 184.2,111.6 183,118 C182,123.1 181.4,128.3 181.7,133.5 C181.9,136.8 182.2,140.1 182.6,143.4 C182.9,145.9 183.4,148.5 184.1,151 C185.4,156.2 188.2,160.4 192.7,163.3 C194.6,164.6 196.5,166 198.6,166.8 C200.1,167.4 201.6,168.2 203.2,168.6 C205.8,169.3 208.4,169.7 211,170.2 C212.7,170.6 214.3,171.1 216,171.4 C218.9,171.9 221.9,171.9 224.8,171.4 C226,171.2 227.2,171.1 228.5,170.9 C230.3,170.7 232.1,170.6 233.9,170.2 C236.4,169.6 239,169.3 241.5,169.5 C242.3,169.6 243.1,169.5 243.8,169.4 C248.4,169.1 253,169.6 257.5,170.4 C263.3,171.4 269.1,172.3 275,171.6 C278.2,171.2 281.4,171.2 284.4,170 C285.5,169.6 286.6,169.1 287.7,168.7 C289.8,167.9 291.7,166.8 293.4,165.2 C294.7,163.9 295.9,162.7 297.2,161.4 C299.3,159.5 301.1,157.4 302.2,154.8 C302.9,153.2 303.7,151.6 304.2,150 C305.6,145.8 307,141.6 307,137.1 C307,135.8 307.3,134.6 307.5,133.3 C307.8,131.3 308.3,129.4 308.3,127.4 C308.2,121.4 308.7,115.5 308.1,109.5 C307.7,105.3 306.9,101.2 306.3,97 C306.3,96.8 306.2,96.6 306.1,96.4 C305.6,94.2 305,92.1 304.6,89.9 C304.2,88 303.9,86.2 302.9,84.4 C302,82.8 301.7,80.9 301,79.2 C300.5,77.8 300,76.4 299.4,75 C298.9,74 298.2,73.1 297.7,72.1 C296.8,70.3 296,68.5 295.1,66.8 C293.9,64.6 292.7,62.4 291.5,60.2 C290.4,58.1 289.4,56 287.7,54.3 C285.9,52.5 284.5,50.5 283.5,48.2 C283.2,47.5 282.8,46.7 282.2,46.1 C280.9,44.6 279.7,42.9 278.1,41.7 C276.5,40.5 275.1,39.2 273.8,37.7 C273.5,37.4 273.4,37 273.1,36.7 C273,36.8 272.9,37 272.8,37.1 C271.6,37.2 270.4,37.3 269.1,37.3 C266.6,37.3 264.2,37.2 261.7,37.2 C261.1,37.4 260.1,37.4 258.9,37.4 Z M190.6,164.8 C189.5,163.8 188.5,163.1 187.7,162.2 C184.8,159.1 182.9,155.4 181.8,151.3 C180.5,146.2 179.9,141.1 179.5,135.8 C179.4,135.1 179.4,134.3 179.4,133.6 C179.2,133.5 179,133.4 178.9,133.4 C178,132.8 176.8,132.6 176.3,131.4 C175.4,129.4 176.3,125.4 177.9,124 C178.5,123.5 179,122.8 179.6,122.2 C178.8,120.7 178.1,119.3 177.5,117.9 C176.7,116.3 177,115 178.1,113.7 C179.1,112.5 180.4,111.9 181.9,111.9 C182,111.3 182.2,110.8 182.3,110.2 C183.6,103.3 184.8,96.3 187.8,89.8 C188.8,87.6 189.9,85.4 191.2,83.4 C192.4,81.6 193.6,79.7 194.8,78 C194.4,77.2 194.2,76.5 193.8,75.8 C193.3,75 192.7,74.1 192,73.4 C191.1,72.5 190.1,71.7 189.1,70.8 C188.6,70.4 188.3,69.9 187.8,69.4 C186.8,70.5 185.6,71.1 184.2,71.1 C182.4,71.2 180.5,71.3 178.7,71.3 C177.6,71.3 176.5,70.8 175.3,70.6 C175,70.5 174.8,70.4 174.6,70.4 C172.2,70.1 169.7,69.8 167.3,69.6 C164.3,69.3 161.2,69.1 158.2,68.7 C154.7,68.2 151.3,68.4 147.8,68.5 C147.6,68.5 147.4,68.6 147,68.7 C147.1,69.2 147.1,69.7 147.3,70.2 C147.9,72.7 148.6,75.2 149.1,77.7 C149.8,81.1 150.1,84.6 150,88.1 C149.9,92.2 149.3,96.2 149.7,100.3 C149.9,102 148.7,103.3 147,103.8 C146.8,103.9 146.6,104 146.4,104.1 C145.2,104.6 144.1,105.1 142.9,105.4 C141.4,105.8 139.9,105.5 138.8,104.2 C137.8,103 136.8,101.6 136.8,99.9 C136.7,98.2 136.6,96.5 137,94.9 C138.2,90.4 139.7,86 141.1,81.5 C141.7,79.4 142.4,77.4 143,75.3 C143,75.2 143,75 143,74.7 C141.3,76.2 139.7,77.5 138.4,79 C137,80.7 135.8,82.6 134.7,84.5 C133.9,85.8 133.3,87.2 132.8,88.7 C131.8,91.9 131.8,95.3 131.9,98.6 C132,101.5 131.4,104.3 130.5,107 C129.7,109.5 127.8,110.1 125.9,108.4 C124.6,107.2 123.4,105.8 122.4,104.4 C120.8,102.3 120.5,99.8 120.5,97.2 C120.5,96.8 120.5,96.3 120.4,95.9 C120.3,95.9 120.2,95.9 120.1,95.9 C119.8,96.4 119.4,96.8 119.1,97.3 C118.1,99.1 117,100.9 116,102.7 C114.6,105.3 113.1,107.8 111.7,110.4 C110.7,112.2 109.8,114.1 109.1,116.1 C108.3,118 107.6,120 107.2,122 C106.7,124.9 106.5,127.9 106.2,130.9 C106.1,131.5 106.3,132.2 106.6,132.7 C107.5,134.3 107.8,136 108.1,137.7 C108.7,141 108.6,144.3 108.3,147.6 C108.2,149.1 108.6,150.3 109.7,151.3 C111,152.4 112.3,153.6 113.8,154.6 C116.2,156.2 118.3,158.3 121.2,159.3 C124.6,160.4 128,161.2 131.6,160.7 C132.6,160.6 133.6,160.5 134.6,160.6 C139.2,160.8 143.8,161.1 148.4,161.4 C151.4,161.6 154.4,162 157.4,162.5 C160.4,163 163.4,163.8 166.5,164.3 C169.4,164.8 172.4,165 175.2,165.5 C179.6,166.4 183.9,165.6 188.2,165.2 C189,165.3 189.7,165 190.6,164.8 Z M44,102.7 C43.5,103.3 43.2,103.7 42.8,104.1 C41.1,105.4 39.2,106.5 37.6,107.9 C34.9,110.2 32.1,112.4 29.7,115 C27.2,117.6 25.1,120.5 23,123.3 C21.9,124.8 20.9,126.4 19.9,128.1 C18.7,130.2 17.6,132.3 16.4,134.4 C15.4,136.3 14.2,138.1 13.3,140.1 C12.4,142.2 11.5,144.3 11.1,146.7 C10.6,149.9 10.8,153.2 11,156.4 C11.1,158.1 11.3,160 12.5,161.4 C14.7,164 16.9,166.6 19.3,169.1 C21.2,171 23.4,172.7 25.5,174.3 C27.3,175.6 29.2,176.8 31.1,177.7 C33.6,178.8 36.3,179.3 39,179.6 C40.7,179.7 42.3,180.2 44,180.1 C46.6,180 49.3,179.7 51.9,179.4 C56.5,178.9 61,178.2 65.5,177.8 C69.3,177.5 73,176.9 76.7,175.8 C83.2,173.9 89.5,171.8 95.8,169.5 C96.6,169.2 97.3,168.7 98,168.2 C99.5,167 100.6,165.5 101.8,164 C103.8,161.5 104.9,158.6 105.3,155.5 C105.7,152.5 105.9,149.5 106.2,146.4 C106.4,143.8 106.3,141.2 105.9,138.6 C105.5,136.1 104.8,133.8 102.7,132.2 C101.8,131.5 101.1,130.6 100.3,129.8 C99.4,128.9 98.5,128.1 97.5,127.2 C97.4,128.8 97.5,130.1 97.3,131.4 C96.9,133.6 96.3,135.7 94.2,137 C92.5,138.1 90.4,138 89.4,136.6 C87.9,134.5 86.9,132.2 86.9,129.6 C86.9,128 87.1,126.5 87.2,124.9 C87.3,123.4 87.5,121.9 87.3,120.5 C87,118.6 86.5,116.7 85.9,114.9 C85.6,113.8 84.7,112.9 83.9,112.1 C84.1,113.7 84.3,115.2 84.4,116.8 C84.6,120 84.1,123 83.2,126.1 C82.7,127.9 82.5,129.7 82.8,131.5 C83.3,134.6 84.5,137.4 85.8,140.1 C87.1,142.6 87.1,144.8 85.9,147.2 C85.3,148.3 83.5,149.3 82.2,149 C80.9,148.7 79.7,148.4 78.9,147.2 C78.8,147 78.5,146.9 78.3,146.7 C78.2,147 78.1,147.3 78,147.5 C77.2,149.4 76.5,151.4 75.7,153.3 C75.5,153.9 75,154.2 74.4,154.1 C73.7,153.9 73.5,153.4 73.7,152.8 C73.9,151.9 74.1,150.9 74.5,150 C75.2,148.3 76,146.6 76.7,145 C73.9,141.7 74.2,137.7 73.9,133.9 C73.3,133.9 72.8,133.9 72.4,133.9 C71.7,133.9 70.9,134 70.2,133.8 C69.8,133.7 69.4,133.2 69.3,132.9 C69.2,132.3 69.6,132 70.2,131.8 C70.5,131.7 70.8,131.8 71.1,131.7 C72.1,131.6 73,131.6 74,131.5 C74.1,131.3 74.1,131.2 74.1,131 C74.6,128.2 75.1,125.4 75.8,122.6 C76.4,119.9 77.2,117.3 77.9,114.7 C78.3,113 78.3,111.4 77.2,109.7 C74.1,108.9 70.8,107.8 67.5,107.2 C63.5,106.5 59.5,106.2 55.6,105.5 C52.9,105 50.2,104.6 47.6,104.1 C46.2,103.3 45,103 44,102.7 Z M45.9,96 C45.9,96 46.1,96 46.3,96 C47.7,95.7 48.9,96 50.3,96.4 C51.4,96.7 52.5,96.8 53.6,97 C54.4,97.1 55.2,97.1 55.9,97.3 C58.6,98 61.3,98.2 64.1,98.3 C64.9,98.3 65.7,98.4 66.5,98.5 C68.2,98.5 70,98.8 71.6,98.4 C73.7,98 75.7,98.4 77.8,98.5 C80.1,98.6 82.4,99.4 84.6,98.2 C84.8,98.1 85,98.2 85.1,98.1 C85.7,97.9 86.3,97.7 86.8,97.4 C88.5,96.3 90,95.1 91.7,94.1 C93,93.3 94,92.3 94.5,90.9 C94.9,89.8 95.2,88.6 95.5,87.4 C95.8,85.9 95.9,84.4 96.1,83 C96.4,81.3 97.3,79.8 98.6,78.7 C100,77.5 101.5,76.4 102.9,75.3 C104,74.4 104.1,73.7 103.3,72.5 C101.7,70.1 99.9,67.9 97.6,66.1 C96.8,65.5 96.1,65.4 95.2,65.6 C93.8,65.9 92.6,66.7 91.6,67.6 C89.9,69.2 87.9,70.1 85.9,71.2 C85,71.7 83.9,71.9 83,71.3 C81.8,70.5 80.6,69.6 79.9,68.1 C79.7,67.6 79.3,67.1 79,66.7 C78.2,65.7 76.3,65 75.2,65.4 C73.9,65.8 72.6,66.3 71.5,67.3 C70.4,68.3 69.4,69.4 68.3,70.5 C67.2,71.6 66.1,72.6 64.7,73.2 C63,74 61.3,75 59.5,75.8 C56.7,77.1 53.9,77.9 50.9,76.6 C49.6,76.1 48.4,75.4 47.3,74.6 C45,72.8 42.8,70.9 40.5,69.1 C39.8,68.5 39,68 38.1,67.7 C36.6,67 35.5,67.5 34.8,69 C33.9,71 33.9,73 34.4,75 C35.6,80.2 37.8,85.1 40.6,89.7 C41.6,91.3 42.8,92.7 44,94.1 C44.6,94.5 45.2,95.2 45.9,96 Z M228.8,32.8 C229.1,32.8 229.3,32.7 229.5,32.7 C232.5,32.4 235.4,32 238.4,32 C241.1,31.9 243.8,32.3 246.5,32.4 C248.5,32.4 250.6,32.3 252.6,32.2 C256.4,32 260.3,31.7 264.1,31.3 C266.2,31.1 268.2,30.6 270.2,30 C270.4,28.8 271,28.3 272.2,28.5 C273.6,27 275.3,26.1 277.1,25.4 C278.2,24.9 279.3,24.5 280.4,24 C281.5,23.5 281.7,22.6 281.2,21.5 C280.8,20.7 280.1,20.3 279.3,20.2 C278.1,20.1 276.9,20 275.7,19.8 C274.1,19.6 273.4,18.7 273.5,17.1 C273.6,16 273.9,14.9 274.6,14 C276,12.3 276.9,10.3 277.7,8.2 C278.5,6.2 277.9,5.2 275.8,4.9 C272.2,4.5 268.8,5.3 265.5,6.7 C263.8,7.5 262.2,8.6 260.5,9.4 C258.3,10.3 256.4,11.4 254.6,12.9 C253,14.2 251.7,13.9 250.5,12.3 C249.5,10.8 248.9,9.2 248.9,7.4 C248.9,6.3 248.9,5.2 248.9,4.2 C248.9,3 248,2 246.8,2 C246,2 245,2.1 244.4,2.6 C241.2,4.8 238.1,7.2 236.1,10.7 C234.2,13.9 232,16.9 229.3,19.5 C227.2,21.6 225,22 222.3,21.3 C219.8,20.7 217.3,19.9 214.8,19 C214.3,18.8 213.4,18.7 213,19 C212.2,19.7 211.4,20.5 210.9,21.5 C210.2,22.8 210.6,23.9 211.8,24.9 C212.5,25.5 213.3,26 214.1,26.5 C218.2,28.8 222.6,30.3 227.1,31.4 C227.9,31.4 228.8,31.6 228.8,32.8 Z M142,61.7 C142.7,61.6 143.7,61.5 144.8,61.4 C146.1,61.3 147.3,61.2 148.6,61.2 C150.2,61.2 151.9,61.2 153.5,61.3 C154.4,61.3 155.2,61.3 156.1,61.3 C158.3,61.4 160.5,61.4 162.7,61.5 C164.3,61.6 166,61.5 167.6,61.7 C173.9,62.4 180.1,63 186.4,62.2 C188.7,61.9 190.9,61.2 192.9,60.1 C194,59.5 195,58.6 196,58 C197.8,57 199.2,55.5 200.5,53.9 C202.7,51.2 202.4,47.1 199.9,44.8 C199.2,44.1 198.4,43.5 197.5,42.9 C194.7,40.9 191.6,40.5 188.5,41.8 C185.6,43 182.8,44.7 179.9,46.1 C179.5,46.3 179.2,46.6 178.9,46.9 C177.9,47.9 177,48.9 176,49.8 C175,50.8 173.8,50.9 172.5,50.4 C171.2,49.8 170.5,48.8 170.6,47.4 C170.6,46.4 170.8,45.4 171.1,44.5 C171.6,42.7 171.3,41 170,39.6 C168.7,38.2 167.1,38.3 165.6,38.9 C164.3,39.3 163.1,40 161.9,40.4 C159.4,41.3 157.5,42.8 155.8,44.8 C153.8,47.1 151.8,49.4 149.7,51.6 C148.3,53.1 146.7,54.5 144.6,55.1 C140.1,56.4 135.5,56.9 130.8,55.4 C129.3,54.9 127.9,54.6 126.4,54.3 C125.3,54.1 124.4,54.5 123.6,55.4 C124.3,56.2 125.1,56.8 126.1,57 C128.5,57.7 130.8,58.4 133.2,58.9 C134.4,59.2 135.7,59.2 137,59.1 C138.4,59 138.4,58.9 138.9,59.7 C140,60.4 140.8,60.9 142,61.7 Z M127.8,107.5 C128,107.3 128.1,107.1 128.2,107 C128.6,105.3 129.2,103.6 129.4,101.9 C129.6,99.9 129.6,97.9 129.6,95.9 C129.6,93.4 129.8,91 130.5,88.6 C131.6,84.7 133.8,81.4 136.3,78.3 C137.6,76.6 139.4,75.3 141,73.8 C142.6,72.3 142.8,71.6 142.3,69.2 C142.2,70.4 141.4,70.7 140.7,71 C139.7,71.4 138.7,71.9 137.9,72.5 C136.5,73.5 135.1,74.6 133.8,75.8 C132.2,77.4 130.4,78.9 129.1,80.7 C126.1,84.7 124,89.1 123,94 C121.9,99 123,103.4 127,106.8 C127.1,107.1 127.5,107.2 127.8,107.5 Z M256.1,40.1 C256,40.1 255.9,40.1 255.8,40.1 C255.8,40.6 255.8,41.1 255.8,41.6 C255.8,46.7 255.1,51.7 253,56.4 C251,61 249.8,65.9 249.7,70.9 C249.6,72.9 250,74.8 250.2,76.8 C250.3,77.6 250.8,78.3 251.5,78.8 C252.7,78.5 253.9,78.2 255,77.9 C257.6,77.2 258,76.4 257.5,73.8 C256.9,70.7 256.5,67.6 256.8,64.5 C256.9,62.9 256.9,61.4 257,59.8 C257.2,58.3 257.5,56.9 257.8,55.4 C258,54.5 258.3,53.5 258.3,52.6 C258,49.5 257.6,46.5 257.1,43.4 C256.9,42.2 256.4,41.2 256.1,40.1 Z M186.2,64.3 C186.1,64.3 185.8,64.3 185.6,64.3 C183.1,64.8 180.6,64.7 178,64.5 C176.4,64.4 174.8,64.4 173.2,64.3 C171.6,64.2 170.1,64.1 168.5,63.9 C166.7,63.8 164.9,63.6 163.2,63.5 C161.1,63.4 159,63.4 156.9,63.4 C155.5,63.4 154.2,63.3 152.8,63.3 C151.3,63.3 149.8,63.2 148.2,63.2 C147.3,63.2 146.5,63.2 145.6,63.3 C144,63.4 142.5,63.5 141,63.8 C140,64 139.1,64.3 138.2,64.7 C137.9,64.8 137.6,65.5 137.7,65.9 C137.7,66.2 138.2,66.6 138.6,66.7 C139.2,66.9 139.9,66.9 140.6,66.9 C142.8,66.8 145.1,66.7 147.3,66.6 C149.6,66.5 151.9,66.3 154.2,66.5 C160.6,67 167.1,67.7 173.5,68.3 C174.4,68.4 175.2,68.6 176.1,68.8 C176.9,69 177.7,69.3 178.5,69.3 C180.2,69.3 181.9,69.3 183.6,69.2 C185.6,69.1 186.6,67.5 188,66.4 C187.3,65.6 186.8,65 186.2,64.3 Z M84.2,100.6 C82.6,101.5 81,100.9 79.4,100.8 C78.1,100.7 76.9,100.6 75.6,100.5 C74.6,100.4 73.6,100.3 72.6,100.5 C70.5,100.8 68.5,100.9 66.4,100.7 C65.6,100.6 64.8,100.6 64,100.5 C62.1,100.3 60.2,100.2 58.2,100 C58,100 57.8,99.9 57.7,99.9 C56.1,99.6 54.6,99.4 53,99.1 C52.2,99 51.3,99 50.5,98.7 C48.5,97.8 46.4,98.2 44.3,98.3 C44,98.8 43.7,99.3 43.4,99.9 C44.1,100.2 44.6,100.5 45.1,100.6 C48.5,101.5 51.9,102.3 55.4,102.7 C57.2,102.9 59,103.5 60.8,103.6 C66.1,104 71.2,104.8 76.2,106.6 C78.4,107.4 80.7,107.5 83,107.1 C84.7,106.8 86.2,104.8 86,103 C85.9,102.5 85.7,102.1 85.4,101.7 C85,101.3 84.6,101 84.2,100.6 Z M145.7,73.3 C145.5,73.8 145.5,74.2 145.3,74.5 C144.5,77.1 143.8,79.7 143,82.3 C141.7,86.3 140.4,90.3 139.2,94.3 C138.5,96.4 138.1,98.6 139,100.7 C140.1,103.6 140.9,104.2 143.5,103.2 C144.5,102.8 145.3,102.2 146.3,101.8 C147.5,101.3 147.5,101.3 147.5,100 C147.5,97.8 147.6,95.5 147.6,93.3 C147.7,90.5 148.1,87.8 147.8,85 C147.5,81.3 146.7,77.7 146.1,74.1 C146,73.9 145.8,73.7 145.7,73.3 Z M82.8,146.3 C83.2,146 83.8,145.7 84.1,145.2 C84.7,143.9 84.9,142.5 84.1,141.2 C83.7,140.5 83.3,139.8 83,139 C82.5,137.8 82.1,136.6 81.7,135.4 C81.4,134.7 81.2,133.9 81,133.2 C80.2,130.2 80.3,127.3 81.2,124.4 C82.1,121.5 82.3,118.5 82.1,115.6 C82,114.4 81.6,113.1 81.3,111.9 C81.1,111.2 80.9,110.5 80.6,109.6 C80.5,109.6 80.1,109.6 79.7,109.6 C80.5,111.9 80,114.1 79.4,116.2 C79,117.7 78.6,119.1 78.2,120.6 C76.8,126.1 75.5,131.7 76.3,137.5 C76.6,139.8 77.2,141.9 78.9,143.5 C79.4,144 79.9,144.5 80.4,145 C80.9,145.8 81.6,146.2 82.8,146.3 Z M88.2,113.6 C88.1,113.7 88,113.7 87.9,113.8 C88.1,114.6 88.3,115.4 88.6,116.1 C89.5,118.9 89.7,121.7 89.3,124.6 C89.1,126.1 89.1,127.6 89,129.2 C88.9,131.2 89.8,133 90.9,134.6 C91.1,134.9 91.5,135 91.7,135.2 C92.8,134.9 93.7,134.5 94.2,133.4 C95,131.8 95.4,130 95.2,128.2 C95.1,126.9 95.1,125.7 94.9,124.4 C94.6,122.5 93.9,120.8 92.6,119.3 C92,118.6 91.3,117.9 90.8,117.2 C89.9,116.1 89,114.8 88.2,113.6 Z M227.4,37.5 C227.9,37.5 228.4,37.6 228.9,37.5 C232.3,37.1 235.6,36.6 239,36.6 C239.6,36.6 240.2,36.5 240.8,36.4 C244,35.8 247.2,35.5 250.5,35.5 C255.6,35.4 260.8,35.2 265.9,35.2 C267.6,35.2 269.3,35.3 271,35.3 C271.6,35.3 272.3,35.2 272.8,34.5 C272.1,33.7 271.4,32.9 270.9,32.3 C268.3,32.7 266,33.3 263.6,33.5 C260.6,33.8 257.6,33.7 254.6,34.1 C251,34.6 247.3,34.7 243.7,34.3 C239.6,33.9 235.6,34.2 231.6,34.6 C230.5,34.7 229.5,34.9 228.4,35.2 C227.2,35.5 227,36.1 227.4,37.5 Z M265.1,50.9 C265.3,52.7 265.6,54.3 265.8,55.9 C266,57.2 266.1,58.6 266.1,59.9 C266.2,62.2 266.2,64.4 266.3,66.7 C266.3,67.2 266.5,67.7 266.7,68.3 C268.8,67.3 271.1,67 272.7,65 C270.8,60 268.3,55.3 265.1,50.9 Z M181.4,114.3 C178.9,115 178.6,116.6 180.6,119.1 C180.9,117.5 181.1,116 181.4,114.3 Z M179.5,125.9 C178.3,126.9 177.8,129 178.4,130.6 C178.7,130.7 179,130.8 179.5,130.9 C179.5,129.1 179.5,127.6 179.5,125.9 Z" id="Shape" fill="#000000"></path>
            <path d="M258.9,37.4 C260.1,37.4 261.1,37.4 262.2,37.4 C264.7,37.4 267.1,37.5 269.6,37.5 C270.8,37.5 272,37.4 273.3,37.3 C273.4,37.2 273.5,37 273.6,36.9 C273.8,37.2 274,37.6 274.3,37.9 C275.6,39.4 277,40.7 278.6,41.9 C280.2,43.1 281.4,44.8 282.7,46.3 C283.2,46.9 283.6,47.7 284,48.4 C285.1,50.7 286.5,52.7 288.2,54.5 C289.9,56.2 290.9,58.3 292,60.4 C293.2,62.6 294.4,64.8 295.6,67 C296.5,68.8 297.3,70.6 298.2,72.3 C298.7,73.3 299.5,74.2 299.9,75.2 C300.5,76.5 301,78 301.5,79.4 C302.1,81.2 302.4,83.1 303.4,84.6 C304.4,86.3 304.7,88.2 305.1,90.1 C305.5,92.3 306.1,94.5 306.6,96.6 C306.7,96.8 306.7,97 306.8,97.2 C307.4,101.4 308.2,105.5 308.6,109.7 C309.1,115.7 308.7,121.6 308.8,127.6 C308.8,129.6 308.3,131.5 308,133.5 C307.8,134.8 307.5,136 307.5,137.3 C307.5,141.8 306.1,146 304.7,150.2 C304.2,151.9 303.4,153.4 302.7,155 C301.5,157.6 299.7,159.7 297.7,161.6 C296.4,162.8 295.1,164.1 293.9,165.4 C292.3,167 290.4,168.1 288.2,168.9 C287.1,169.3 286,169.8 284.9,170.2 C281.9,171.4 278.6,171.4 275.5,171.8 C269.6,172.5 263.8,171.6 258,170.6 C253.5,169.8 248.9,169.3 244.3,169.6 C243.5,169.6 242.7,169.7 242,169.7 C239.4,169.5 236.9,169.8 234.4,170.4 C232.6,170.8 230.8,170.9 229,171.1 C227.8,171.3 226.6,171.4 225.3,171.6 C222.4,172.1 219.4,172.1 216.5,171.6 C214.8,171.3 213.2,170.8 211.5,170.4 C208.9,169.8 206.3,169.5 203.7,168.8 C202.1,168.4 200.7,167.6 199.1,167 C196.9,166.1 195.1,164.7 193.2,163.5 C188.7,160.5 185.9,156.3 184.6,151.2 C184,148.7 183.5,146.2 183.1,143.6 C182.7,140.3 182.4,137 182.2,133.7 C181.9,128.5 182.5,123.3 183.5,118.2 C184.7,111.9 185.9,105.5 187.3,99.2 C187.8,96.7 188.9,94.4 189.7,92 C191.6,86.4 195.3,81.9 198.5,77.1 C200.8,73.6 203.5,70.3 206,67 C208.8,63.3 211.6,59.7 214.4,56.1 C215.3,54.9 216.1,53.6 217,52.5 C218.8,50.4 220.6,48.3 222.4,46.3 C224,44.5 225.8,42.9 226.8,40.6 C226.9,40.5 227,40.3 227.1,40.2 C227.2,40.1 227.4,40 227.5,39.9 C236.4,39.3 245.2,38.1 254.2,37.7 C254.2,39.5 254.2,41.1 254.2,42.7 C254.2,47.6 253.1,52.3 251.1,56.8 C248.6,62.6 247.7,68.7 248.2,75.1 C248.3,76.9 248.8,78.7 250.1,80.1 C251.1,81.2 251.9,81.4 253.3,80.9 C254.1,80.6 254.9,80.4 255.7,80.1 C256.6,79.8 257.6,79.5 258.4,79 C260.3,77.9 260.9,76.5 260.5,74.3 C260.2,72.6 259.8,70.9 259.7,69.1 C259.6,67.2 259.7,65.2 259.7,63.3 C259.7,62.1 259.7,61 259.8,59.8 C259.9,58.8 259.9,57.8 260.2,56.9 C261.4,54.1 261.1,51.4 260.7,48.5 C260.6,47.5 260.5,46.5 260.3,45.6 C260.4,45.6 260.5,45.5 260.6,45.5 C261.2,46.5 261.9,47.5 262.3,48.6 C262.8,49.9 263.4,51.2 263.6,52.5 C264,55 264.6,57.5 264.5,60.1 C264.4,62.5 264.6,64.9 264.7,67.4 C264.7,68.1 265,68.9 265.4,69.5 C266,70.6 267,70.8 268.1,70.3 C269.4,69.7 270.7,69.3 271.9,68.6 C272.9,68.1 273.8,67.3 274.7,66.6 C275.5,66 275.6,65.1 275.2,64.2 C274.1,61.7 273.2,59.2 271.9,56.9 C270.2,53.8 268,50.9 266.3,47.8 C264.6,44.6 262.4,41.9 260.2,39.2 C260,38.9 259.8,38.7 259.6,38.4 C259,38.1 259,37.9 258.9,37.4 Z M240.4,110.9 C240.4,110.4 240.4,109.9 240.4,109.4 C240.2,107 240.2,104.6 239.3,102.4 C238.3,100 236.3,98.8 233.8,99.4 C233.5,99.5 233.2,99.7 233,100 C232.7,100.4 232.4,100.8 232.1,101.2 C230.9,102.8 229.6,104.4 229,106.3 C227.6,110.5 227.2,114.7 228.5,118.9 C229,120.5 229.7,122 231,123 C233.6,125 236.1,124.5 237.6,121.9 C239.6,118.6 240.6,114.9 240.4,110.9 Z M267,110 C267.3,112.7 267.1,115.2 266.5,117.8 C266.1,119.2 265.1,119.8 263.9,120.4 C263,120.8 262.1,121.1 261.1,121.5 C260.5,121.8 260.1,122.2 260.2,122.9 C260.3,123.3 260.6,123.8 260.9,124 C261.5,124.4 262,123.9 262.5,123.6 C262.9,123.3 263.4,123 263.8,122.9 C265.8,122.6 267.9,120.9 268.5,118.9 C269.4,115.8 269.6,112.6 269.2,109.4 C269.1,108.4 269,107.4 269.4,106.3 C269.6,105.7 269.7,105 269.6,104.3 C269.5,102 268,100.3 265.7,100 C265.3,99.9 264.8,100 264.4,99.8 C262.7,99.1 261.5,99.9 260.5,101.2 C258.1,104.4 258.7,107.5 261.5,110.1 C262.3,110.8 263.2,111 264.2,110.7 C265.3,110.6 266.1,110.3 267,110 Z M217.8,102 C219.5,102.8 220,103.7 219.7,105.4 C219.4,107.1 218.7,108.6 218.1,110.1 C216.5,113.9 214.7,117.6 211.9,120.7 C211.6,121.1 211.3,121.5 211,121.9 C209.9,123.6 210.5,124.8 212.5,125 C212.7,125 212.9,125 213.1,125 C214.7,125 216.3,125.1 217.9,125.1 C218.2,125.1 218.5,125.1 218.8,125.1 C219.4,125 219.8,124.7 219.8,124.1 C219.8,123.5 219.5,123.1 218.9,123 C218.4,122.9 217.9,122.9 217.5,122.9 C216.1,122.8 214.7,122.8 213.2,122.7 C213.6,122.2 213.8,121.9 214,121.6 C215.8,119.5 217.3,117.3 218.4,114.8 C219.1,113.2 220,111.7 220.6,110 C221.2,108.5 221.7,107 221.9,105.4 C222.2,103.3 221.5,101.4 219.5,100.3 C218.3,99.6 217.1,99.6 216.2,100.7 C215.3,101.8 214.6,103 213.9,104.3 C213.6,104.9 213.6,105.8 213.7,106.5 C213.7,106.8 214.3,107.3 214.7,107.3 C215,107.3 215.4,106.8 215.6,106.5 C215.7,106.4 215.7,106.1 215.7,106 C215.9,104.3 216.9,103.2 217.8,102 Z M250.6,104.3 C250.7,104.4 250.8,104.4 250.9,104.5 C250.9,105 250.9,105.6 250.9,106.1 C250.7,110 250.5,113.8 250.3,117.7 C250.2,119.4 250.4,121.2 250.5,122.9 C250.5,123.7 251,124.1 251.7,124.1 C252.4,124.1 252.8,123.6 252.9,122.8 C252.9,122.5 252.9,122.2 252.9,121.9 C252.9,119.2 252.8,116.5 252.9,113.8 C253,111.2 253.3,108.6 253.3,106 C253.3,104.8 253.2,103.6 252.8,102.5 C252.3,101.1 251.1,100.9 250,101.9 C248.8,103 247.7,104.1 246.6,105.3 C246.3,105.6 246.1,106 246.1,106.4 C246.1,106.8 246.3,107.4 246.6,107.5 C246.9,107.7 247.5,107.5 247.9,107.4 C248.1,107.3 248.2,107 248.4,106.8 C249,106 249.8,105.2 250.6,104.3 Z" id="Shape" fill="#FFFFFF"></path>
            <path d="M190.6,164.8 C189.7,165 189,165.3 188.3,165.4 C184,165.8 179.7,166.6 175.3,165.7 C172.4,165.1 169.5,165 166.6,164.5 C163.6,164 160.6,163.2 157.5,162.7 C154.5,162.2 151.5,161.9 148.5,161.6 C143.9,161.2 139.3,161 134.7,160.8 C133.7,160.7 132.7,160.8 131.7,160.9 C128.1,161.3 124.7,160.6 121.3,159.5 C118.4,158.6 116.3,156.5 113.9,154.8 C112.5,153.8 111.2,152.6 109.8,151.5 C108.6,150.5 108.2,149.3 108.4,147.8 C108.7,144.5 108.8,141.2 108.2,137.9 C107.9,136.2 107.6,134.5 106.7,132.9 C106.4,132.4 106.3,131.7 106.3,131.1 C106.6,128.1 106.8,125.2 107.3,122.2 C107.7,120.2 108.4,118.2 109.2,116.3 C110,114.4 110.8,112.5 111.8,110.6 C113.2,108 114.6,105.4 116.1,102.9 C117.1,101.1 118.1,99.3 119.2,97.5 C119.5,97 119.9,96.5 120.2,96.1 C120.3,96.1 120.4,96.1 120.5,96.1 C120.5,96.5 120.6,97 120.6,97.4 C120.6,100 120.9,102.5 122.5,104.6 C123.6,106 124.7,107.4 126,108.6 C127.9,110.3 129.8,109.7 130.6,107.2 C131.5,104.5 132.1,101.7 132,98.8 C131.9,95.5 131.9,92.1 132.9,88.9 C133.3,87.5 134,86 134.8,84.7 C135.9,82.8 137.1,80.9 138.5,79.2 C139.8,77.7 141.5,76.4 143.1,74.9 C143.1,75.3 143.1,75.4 143.1,75.5 C142.5,77.6 141.8,79.6 141.2,81.7 C139.8,86.1 138.3,90.6 137.1,95.1 C136.7,96.7 136.9,98.4 136.9,100.1 C137,101.8 137.9,103.1 138.9,104.4 C140,105.7 141.4,106 143,105.6 C144.2,105.3 145.4,104.7 146.5,104.3 C146.7,104.2 146.9,104.1 147.1,104 C148.9,103.5 150,102.2 149.8,100.5 C149.4,96.4 150,92.4 150.1,88.3 C150.2,84.8 149.9,81.3 149.2,77.9 C148.7,75.4 148,72.9 147.4,70.4 C147.3,69.9 147.2,69.4 147.1,68.9 C147.4,68.8 147.6,68.7 147.9,68.7 C151.4,68.6 154.8,68.4 158.3,68.9 C161.3,69.3 164.4,69.5 167.4,69.8 C169.8,70 172.3,70.3 174.7,70.6 C175,70.6 175.2,70.8 175.4,70.8 C176.5,71.1 177.6,71.5 178.8,71.5 C180.6,71.6 182.4,71.4 184.3,71.3 C185.7,71.2 186.9,70.6 187.9,69.6 C188.4,70.1 188.8,70.6 189.2,71 C190.1,71.9 191.2,72.7 192.1,73.6 C192.8,74.3 193.4,75.1 193.9,76 C194.3,76.6 194.6,77.3 194.9,78.2 C193.7,79.9 192.5,81.8 191.3,83.6 C190,85.6 188.9,87.8 187.9,90 C184.9,96.5 183.7,103.4 182.4,110.4 C182.3,110.9 182.2,111.5 182,112.1 C180.4,112.1 179.2,112.8 178.2,113.9 C177.1,115.2 176.8,116.6 177.6,118.1 C178.3,119.5 179,120.8 179.7,122.4 C179.2,123 178.7,123.7 178,124.2 C176.3,125.6 175.5,129.6 176.4,131.6 C176.9,132.7 178.1,133 179,133.6 C179.1,133.7 179.3,133.7 179.5,133.8 C179.5,134.5 179.6,135.2 179.6,136 C180,141.2 180.6,146.4 181.9,151.5 C182.9,155.6 184.9,159.3 187.8,162.4 C188.5,163.1 189.5,163.8 190.6,164.8 Z M157.2,112.3 C155.8,111.7 155,111.9 154.3,113 C152.6,115.4 151.6,118.2 150.7,120.9 C150.4,121.8 150.5,122.7 150.5,123.7 C150.6,124.7 150.8,125.6 151,126.6 C151.4,128.8 152.8,130.2 154.7,131 C156.9,132 159.3,131.2 160.6,129.1 C161.9,127 162.9,124.7 163.2,122.3 C163.5,119.6 163.5,117 162.2,114.4 C161.5,112.9 158.9,111.5 157.2,112.3 Z M138.9,130.6 C139.1,130.2 139.2,130 139.3,129.8 C140.7,127 142.5,124.5 144.3,122 C145.8,120 146.8,117.8 147.1,115.4 C147.4,113.1 146.3,111.5 144,111.1 C142.6,110.8 140.1,112.6 139.7,114.1 C139.5,114.7 139.6,115.3 140.2,115.6 C140.8,115.9 141.2,115.6 141.6,115.1 C142.1,114.5 142.7,113.9 143.1,113.4 C144.6,113.6 145,114 144.8,115.2 C144.7,115.9 144.5,116.6 144.2,117.3 C143.2,120.5 140.6,122.7 139,125.6 C138.2,127.2 137.2,128.7 136.3,130.2 C135.9,131 136.1,131.8 137,132.2 C137.8,132.5 138.6,132.8 139.4,132.9 C140.6,133 141.9,133 143.1,133 C143.8,133 144.5,132.9 145.2,132.7 C145.9,132.5 146.2,132 146,131.3 C145.9,130.7 145.4,130.4 144.8,130.4 C144.5,130.4 144.3,130.6 144,130.6 C142.5,130.6 140.8,130.6 138.9,130.6 Z M171.6,115.8 C171.6,116.1 171.6,116.2 171.6,116.3 C171.2,120.6 170.8,124.8 170.4,129.1 C170.3,129.8 170.3,130.4 170.3,131.1 C170.3,131.7 170.6,132.1 171.2,132.2 C171.8,132.3 172.2,131.9 172.3,131.3 C172.4,130.9 172.4,130.5 172.5,130.1 C173,124.9 173.5,119.6 174,114.4 C174,114 174.1,113.6 174,113.2 C173.7,111.9 172.6,111.6 171.7,112.5 C170.7,113.4 169.8,114.3 168.9,115.2 C168.4,115.7 168.1,116.2 168.6,116.8 C169.1,117.4 169.7,117.3 170.2,116.9 C170.7,116.6 171.1,116.2 171.6,115.8 Z" id="Shape" fill="#FFFFFF"></path>
            <path d="M44,102.7 C45,103 46.2,103.3 47.4,103.5 C50.1,104 52.8,104.4 55.4,104.9 C59.4,105.7 63.4,106 67.3,106.6 C70.6,107.1 73.9,108.2 77,109.1 C78.1,110.8 78.1,112.5 77.7,114.1 C77,116.7 76.2,119.3 75.6,122 C75,124.8 74.5,127.6 73.9,130.4 C73.9,130.5 73.8,130.7 73.8,130.9 C72.8,131 71.9,131 70.9,131.1 C70.6,131.1 70.3,131.1 70,131.2 C69.4,131.3 69,131.7 69.1,132.3 C69.2,132.7 69.6,133.2 70,133.2 C70.7,133.4 71.5,133.3 72.2,133.3 C72.7,133.3 73.2,133.3 73.7,133.3 C74,137.1 73.7,141.1 76.5,144.4 C75.8,146 75,147.7 74.3,149.4 C73.9,150.3 73.7,151.2 73.5,152.2 C73.4,152.8 73.6,153.3 74.2,153.5 C74.9,153.7 75.3,153.3 75.5,152.7 C76.3,150.8 77,148.8 77.8,146.9 C77.9,146.7 78,146.4 78.1,146.1 C78.4,146.3 78.6,146.4 78.7,146.6 C79.5,147.8 80.8,148.2 82,148.4 C83.2,148.7 85.1,147.7 85.7,146.6 C86.9,144.2 86.9,142 85.6,139.5 C84.2,136.8 83,134 82.6,130.9 C82.3,129 82.5,127.2 83,125.5 C83.9,122.5 84.4,119.4 84.2,116.2 C84.1,114.7 83.9,113.1 83.7,111.5 C84.5,112.3 85.4,113.2 85.7,114.3 C86.2,116.2 86.8,118 87.1,119.9 C87.3,121.3 87.1,122.9 87,124.3 C86.9,125.9 86.7,127.4 86.7,129 C86.7,131.6 87.7,133.9 89.2,136 C90.2,137.4 92.3,137.5 94,136.4 C96.1,135.1 96.7,133 97.1,130.8 C97.4,129.5 97.3,128.2 97.3,126.6 C98.3,127.5 99.2,128.3 100.1,129.2 C100.9,130 101.6,131 102.5,131.6 C104.6,133.2 105.3,135.5 105.7,138 C106.1,140.6 106.2,143.2 106,145.8 C105.7,148.8 105.5,151.9 105.1,154.9 C104.6,158 103.6,160.9 101.6,163.4 C100.4,164.9 99.3,166.5 97.8,167.6 C97.1,168.1 96.4,168.7 95.6,168.9 C89.3,171.1 82.9,173.3 76.5,175.2 C72.8,176.3 69.1,176.9 65.3,177.2 C60.7,177.6 56.2,178.3 51.7,178.8 C49.1,179.1 46.4,179.4 43.8,179.5 C42.1,179.6 40.5,179.2 38.8,179 C36.1,178.8 33.4,178.3 30.9,177.1 C28.9,176.2 27,175 25.3,173.7 C23.1,172.1 21,170.4 19.1,168.5 C16.7,166.1 14.5,163.5 12.3,160.8 C11.1,159.4 10.9,157.6 10.8,155.8 C10.6,152.6 10.4,149.3 10.9,146.1 C11.3,143.8 12.1,141.6 13.1,139.5 C14,137.5 15.1,135.7 16.2,133.8 C17.3,131.7 18.5,129.6 19.7,127.5 C20.7,125.9 21.6,124.2 22.8,122.7 C25,119.9 27.1,116.9 29.5,114.4 C31.9,111.8 34.7,109.6 37.4,107.3 C39.1,105.9 40.9,104.8 42.6,103.5 C43.2,103.8 43.5,103.3 44,102.7 Z M41.8,145.5 C41.8,145.9 41.8,146.3 41.8,146.7 C41.8,149.4 43.3,151.3 45.3,152.9 C45.5,153 45.7,153.1 45.9,153.1 C46.3,153.2 46.7,153.4 47.2,153.5 C47.6,153.6 48,153.6 48.4,153.6 C49.6,153.4 50.5,152.8 51.2,151.9 C51.8,151 52.5,150.1 52.9,149.2 C54,146.8 54.4,144.2 54.7,141.6 C55,138.5 53.9,135.8 52.2,133.2 C51.7,132.5 51,132 50.3,131.5 C50,131.3 49.5,131.1 49.1,131.1 C47.7,131.3 46.4,131.8 45.6,133.1 C43.3,137.1 41.9,141.1 41.8,145.5 Z M37.9,133.7 C37.6,135.7 37.2,137.6 36.2,139.2 C34.5,142.2 32.6,145.1 30.9,148.1 C30.4,149 30,149.9 29.6,150.8 C29.3,151.5 29.3,152.3 30,152.7 C31,153.3 32,154.1 33.1,154.4 C34.6,154.8 36.1,154.7 37.6,154.8 C37.9,154.8 38.3,154.7 38.5,154.5 C38.8,154.2 39.1,153.7 39.1,153.3 C39.1,152.7 38.6,152.4 38,152.4 C37.4,152.4 36.8,152.4 36.2,152.5 C34.5,152.9 33.2,152.2 31.8,151.2 C32,150.7 32.2,150.1 32.4,149.7 C33.9,147.1 35.4,144.5 37,142 C38.5,139.8 39.3,137.3 39.8,134.8 C40.2,132.7 38.3,130.6 36.5,130.8 C34.5,131.1 32.7,133.6 33.1,135.6 C33.2,136.2 33.4,136.9 34.3,136.8 C35.1,136.7 35.3,136.1 35.3,135.4 C35.2,134.2 35.9,133.5 37,132.9 C37.3,133.2 37.6,133.5 37.9,133.7 Z M62.4,134.6 C62.5,134.6 62.6,134.7 62.7,134.7 C62.7,135 62.8,135.3 62.8,135.7 C62.7,140 62.7,144.3 62.6,148.7 C62.6,149.7 62.5,150.7 62.5,151.7 C62.5,152.6 62.9,153.1 63.5,153.1 C64.2,153.1 64.6,152.7 64.7,151.8 C64.8,151.1 64.7,150.5 64.7,149.8 C64.8,146 64.9,142.1 64.9,138.3 C64.9,136.6 65,134.9 64.8,133.2 C64.7,131.6 63.5,131.1 62.2,132.1 C61.4,132.7 60.6,133.3 60,133.9 C59.4,134.5 59,135.2 58.6,135.9 C58.3,136.4 58.4,136.9 59,137.3 C59.5,137.6 60,137.4 60.4,137 C60.6,136.8 60.7,136.6 60.9,136.4 C61.4,135.8 61.9,135.2 62.4,134.6 Z" id="Shape" fill="#FFFFFF"></path>
            <path d="M45.9,96 C45.2,95.2 44.6,94.5 44,93.8 C42.9,92.3 41.6,91 40.6,89.4 C37.8,84.8 35.6,80 34.4,74.7 C33.9,72.7 33.9,70.6 34.8,68.7 C35.5,67.2 36.6,66.7 38.1,67.4 C38.9,67.8 39.7,68.3 40.5,68.8 C42.8,70.6 45,72.5 47.3,74.3 C48.4,75.1 49.6,75.8 50.9,76.3 C53.9,77.6 56.8,76.8 59.5,75.5 C61.3,74.7 63,73.7 64.7,72.9 C66.1,72.2 67.3,71.3 68.3,70.2 C69.3,69.1 70.4,68.1 71.5,67 C72.5,66 73.9,65.6 75.2,65.1 C76.3,64.7 78.2,65.4 79,66.4 C79.3,66.8 79.7,67.3 79.9,67.8 C80.5,69.3 81.8,70.1 83,71 C83.9,71.6 84.9,71.4 85.9,70.9 C87.9,69.8 89.9,68.9 91.6,67.3 C92.6,66.4 93.8,65.6 95.2,65.3 C96.1,65.1 96.8,65.2 97.6,65.8 C99.9,67.6 101.7,69.8 103.3,72.2 C104.1,73.4 104,74.1 102.9,75 C101.5,76.2 100,77.3 98.6,78.4 C97.2,79.5 96.4,81 96.1,82.7 C95.8,84.2 95.8,85.7 95.5,87.1 C95.3,88.3 95,89.5 94.5,90.6 C94,92 93,93 91.7,93.8 C90,94.8 88.5,96.1 86.8,97.1 C86.3,97.4 85.7,97.6 85.1,97.8 C84.9,97.9 84.7,97.8 84.6,97.9 C82.4,99.1 80.1,98.3 77.8,98.2 C75.7,98.1 73.7,97.7 71.6,98.1 C70,98.4 68.2,98.2 66.5,98.2 C65.7,98.2 64.9,98.1 64.1,98 C61.4,97.9 58.6,97.7 55.9,97 C55.2,96.8 54.4,96.8 53.6,96.7 C52.5,96.5 51.4,96.4 50.3,96.1 C49,95.7 47.7,95.4 46.3,95.7 C46.1,96.1 45.9,96 45.9,96 Z" id="Shape" fill="#FFFFFF"></path>
            <path d="M228.8,32.8 C228.8,31.6 227.9,31.4 227.1,31.1 C222.6,30 218.2,28.5 214.1,26.2 C213.3,25.8 212.5,25.2 211.8,24.6 C210.6,23.7 210.3,22.5 210.9,21.2 C211.4,20.2 212.2,19.4 213,18.7 C213.4,18.4 214.2,18.5 214.8,18.7 C217.2,19.7 219.7,20.4 222.3,21 C225,21.7 227.3,21.3 229.3,19.2 C232,16.5 234.2,13.6 236.1,10.4 C238.1,6.9 241.2,4.5 244.4,2.3 C245,1.9 246,1.8 246.8,1.7 C248,1.7 248.9,2.7 248.9,3.9 C248.9,5 248.9,6.1 248.9,7.1 C249,8.9 249.5,10.5 250.5,12 C251.7,13.7 253,13.9 254.6,12.6 C256.4,11.1 258.4,10 260.5,9.1 C262.2,8.4 263.8,7.2 265.5,6.4 C268.8,5 272.2,4.2 275.8,4.6 C277.9,4.8 278.5,5.9 277.7,7.9 C276.9,9.9 276,11.9 274.6,13.7 C273.9,14.6 273.5,15.6 273.5,16.8 C273.4,18.4 274.1,19.2 275.7,19.5 C276.9,19.7 278.1,19.7 279.3,19.9 C280.2,20 280.9,20.4 281.2,21.2 C281.7,22.3 281.5,23.2 280.4,23.7 C279.3,24.2 278.2,24.7 277.1,25.1 C275.3,25.8 273.6,26.8 272.2,28.2 C271.1,28 270.4,28.5 270.2,29.7 C268.2,30.3 266.2,30.9 264.1,31 C260.3,31.3 256.5,31.6 252.6,31.9 C250.6,32 248.5,32.1 246.5,32.1 C243.8,32 241.1,31.7 238.4,31.7 C235.4,31.8 232.5,32.2 229.5,32.4 C229.3,32.8 229.1,32.8 228.8,32.8 Z" id="Shape" fill="#FFFFFF"></path>
            <path d="M142,61.7 C140.8,60.9 140.1,60.4 138.9,59.7 C138.4,58.9 138.4,59 137,59.1 C135.7,59.2 134.4,59.1 133.2,58.9 C130.8,58.4 128.4,57.6 126.1,57 C125.1,56.7 124.3,56.2 123.6,55.4 C124.3,54.4 125.3,54 126.4,54.3 C127.9,54.6 129.4,55 130.8,55.4 C135.4,56.9 140,56.4 144.6,55.1 C146.7,54.5 148.3,53.1 149.7,51.6 C151.8,49.4 153.8,47.1 155.8,44.8 C157.5,42.9 159.4,41.3 161.9,40.4 C163.2,40 164.4,39.3 165.6,38.9 C167.2,38.3 168.8,38.2 170,39.6 C171.3,41 171.6,42.6 171.1,44.5 C170.8,45.5 170.6,46.5 170.6,47.4 C170.5,48.8 171.2,49.8 172.5,50.4 C173.8,51 175,50.8 176,49.8 C177,48.9 177.9,47.9 178.9,46.9 C179.2,46.6 179.5,46.3 179.9,46.1 C182.7,44.6 185.5,43 188.5,41.8 C191.6,40.5 194.7,41 197.5,42.9 C198.3,43.5 199.1,44.1 199.9,44.8 C202.4,47.1 202.7,51.2 200.5,53.9 C199.2,55.5 197.8,57 196,58 C194.9,58.6 194,59.5 192.9,60.1 C190.9,61.2 188.7,61.9 186.4,62.2 C180.1,63 173.8,62.4 167.6,61.7 C166,61.5 164.3,61.5 162.7,61.5 C160.5,61.4 158.3,61.4 156.1,61.3 C155.2,61.3 154.4,61.3 153.5,61.3 C151.9,61.3 150.2,61.2 148.6,61.2 C147.3,61.2 146.1,61.3 144.8,61.4 C143.7,61.4 142.7,61.6 142,61.7 Z" id="Shape" fill="#FFFFFF"></path>
            <path d="M127.8,107.5 C127.5,107.3 127.1,107.1 126.9,106.9 C122.9,103.5 121.8,99 122.9,94.1 C123.9,89.2 126.1,84.8 129,80.8 C130.3,79 132.1,77.5 133.7,75.9 C135,74.7 136.3,73.6 137.8,72.6 C138.7,72 139.7,71.5 140.6,71.1 C141.4,70.8 142.1,70.5 142.2,69.3 C142.7,71.7 142.5,72.4 140.9,73.9 C139.3,75.4 137.5,76.7 136.2,78.4 C133.8,81.5 131.5,84.8 130.4,88.7 C129.7,91.1 129.6,93.5 129.5,96 C129.5,98 129.5,100 129.3,102 C129.1,103.7 128.5,105.4 128.1,107.1 C128.1,107.1 128,107.2 127.8,107.5 Z" id="Shape" fill="#FFFFFF"></path>
            <path d="M256.1,40.1 C256.4,41.2 256.9,42.2 257.1,43.3 C257.6,46.3 258,49.4 258.3,52.5 C258.4,53.4 258,54.4 257.8,55.3 C257.5,56.8 257.2,58.2 257,59.7 C256.8,61.2 256.9,62.8 256.8,64.4 C256.6,67.5 256.9,70.7 257.5,73.7 C258,76.3 257.5,77.1 255,77.8 C253.9,78.1 252.7,78.4 251.5,78.7 C250.8,78.2 250.3,77.6 250.2,76.7 C249.9,74.8 249.6,72.8 249.7,70.8 C249.8,65.8 251,60.9 253,56.3 C255.1,51.6 255.9,46.6 255.8,41.5 C255.8,41 255.8,40.5 255.8,40 C255.9,40.1 256,40.1 256.1,40.1 Z" id="Shape" fill="#FFFFFF"></path>
            <path d="M186.2,64.3 C186.8,65 187.4,65.6 188.1,66.3 C186.7,67.4 185.7,69 183.7,69.1 C182,69.2 180.3,69.3 178.6,69.2 C177.8,69.2 177,68.9 176.2,68.7 C175.3,68.5 174.5,68.3 173.6,68.2 C167.2,67.6 160.7,66.9 154.3,66.4 C152,66.2 149.7,66.5 147.4,66.5 C145.2,66.6 142.9,66.8 140.7,66.8 C140,66.8 139.3,66.8 138.7,66.6 C138.3,66.5 137.8,66.1 137.8,65.8 C137.8,65.4 138,64.7 138.3,64.6 C139.2,64.2 140.2,63.9 141.1,63.7 C142.6,63.4 144.2,63.3 145.7,63.2 C146.5,63.1 147.4,63.1 148.3,63.1 C149.8,63.1 151.3,63.2 152.9,63.2 C154.3,63.2 155.6,63.3 157,63.3 C159.1,63.3 161.2,63.3 163.3,63.4 C165.1,63.5 166.9,63.7 168.6,63.8 C170.2,63.9 171.7,64.1 173.3,64.2 C174.9,64.3 176.5,64.3 178.1,64.4 C180.6,64.6 183.2,64.7 185.7,64.2 C185.8,64.3 186,64.3 186.2,64.3 Z" id="Shape" fill="#FFFFFF"></path>
            <path d="M84.2,100.6 C84.6,101 85,101.4 85.2,101.8 C85.5,102.2 85.7,102.6 85.8,103.1 C86.1,104.9 84.6,106.9 82.8,107.2 C80.5,107.7 78.2,107.5 76,106.7 C71,105 65.8,104.2 60.6,103.7 C58.8,103.5 57,103 55.2,102.8 C51.7,102.5 48.3,101.7 44.9,100.7 C44.3,100.5 43.8,100.2 43.2,100 C43.6,99.4 43.9,98.9 44.1,98.4 C46.3,98.3 48.3,97.9 50.3,98.8 C51.1,99.1 52,99.1 52.8,99.2 C54.4,99.5 55.9,99.7 57.5,100 C57.7,100 57.9,100.1 58,100.1 C59.9,100.3 61.8,100.4 63.8,100.6 C64.6,100.7 65.4,100.7 66.2,100.8 C68.3,101 70.4,100.9 72.4,100.6 C73.4,100.5 74.4,100.6 75.4,100.6 C76.7,100.7 77.9,100.8 79.2,100.9 C81,100.9 82.6,101.4 84.2,100.6 Z" id="Shape" fill="#FFFFFF"></path>
            <path d="M145.7,73.3 C145.9,73.7 146,73.9 146.1,74.2 C146.7,77.8 147.5,81.5 147.8,85.1 C148,87.8 147.7,90.6 147.6,93.4 C147.5,95.6 147.5,97.9 147.5,100.1 C147.5,101.4 147.5,101.4 146.3,101.9 C145.4,102.3 144.5,102.9 143.5,103.3 C140.9,104.3 140.1,103.7 139,100.8 C138.2,98.7 138.6,96.5 139.2,94.4 C140.5,90.4 141.8,86.4 143,82.4 C143.8,79.8 144.6,77.2 145.3,74.6 C145.4,74.2 145.5,73.8 145.7,73.3 Z" id="Shape" fill="#FFFFFF"></path>
            <path d="M82.8,146.3 C81.6,146.2 80.9,145.8 80.3,145 C79.9,144.4 79.4,143.9 78.8,143.5 C77,141.9 76.5,139.8 76.2,137.5 C75.4,131.7 76.7,126.2 78.1,120.6 C78.5,119.1 78.9,117.7 79.3,116.2 C79.9,114 80.4,111.9 79.6,109.6 C80,109.6 80.4,109.6 80.5,109.6 C80.8,110.5 81,111.2 81.2,111.9 C81.5,113.1 81.9,114.3 82,115.6 C82.2,118.6 82,121.5 81.1,124.4 C80.2,127.3 80.1,130.3 80.9,133.2 C81.1,134 81.4,134.7 81.6,135.4 C82,136.6 82.4,137.8 82.9,139 C83.2,139.8 83.5,140.5 84,141.2 C84.9,142.6 84.7,143.9 84,145.2 C83.8,145.7 83.2,146 82.8,146.3 Z" id="Shape" fill="#FFFFFF"></path>
            <path d="M88.2,113.6 C89.1,114.8 89.9,116.1 90.8,117.3 C91.4,118 92,118.7 92.6,119.4 C93.9,120.9 94.6,122.6 94.9,124.5 C95.1,125.8 95.1,127 95.2,128.3 C95.4,130.1 94.9,131.9 94.2,133.5 C93.7,134.5 92.8,134.9 91.7,135.3 C91.4,135.1 91,134.9 90.9,134.7 C89.8,133.1 89,131.3 89,129.3 C89.1,127.8 89.1,126.2 89.3,124.7 C89.7,121.8 89.5,119 88.6,116.2 C88.4,115.4 88.1,114.6 87.9,113.9 C88,113.7 88.1,113.7 88.2,113.6 Z" id="Shape" fill="#FFFFFF"></path>
            <path d="M227.4,37.5 C226.9,36.1 227.2,35.5 228.4,35.2 C229.4,34.9 230.5,34.7 231.6,34.6 C235.6,34.2 239.7,33.9 243.7,34.3 C247.3,34.7 251,34.6 254.6,34.1 C257.6,33.7 260.6,33.8 263.6,33.5 C266,33.3 268.3,32.7 270.9,32.3 C271.4,32.9 272.1,33.7 272.8,34.5 C272.3,35.3 271.7,35.3 271,35.3 C269.3,35.3 267.6,35.1 265.9,35.2 C260.8,35.3 255.6,35.5 250.5,35.5 C247.3,35.6 244,35.8 240.8,36.4 C240.2,36.5 239.6,36.6 239,36.6 C235.6,36.5 232.3,37.1 228.9,37.5 C228.4,37.6 227.9,37.5 227.4,37.5 Z" id="Shape" fill="#FFFFFF"></path>
            <path d="M265.1,50.9 C268.3,55.3 270.7,60 272.6,65 C271,67 268.7,67.2 266.6,68.3 C266.5,67.7 266.3,67.2 266.2,66.7 C266.1,64.4 266.1,62.2 266,59.9 C265.9,58.6 265.8,57.2 265.7,55.9 C265.7,54.3 265.4,52.7 265.1,50.9 Z" id="Shape" fill="#FFFFFF"></path>
            <path d="M181.4,114.3 C181.1,115.9 180.9,117.4 180.6,119.1 C178.6,116.6 178.9,115 181.4,114.3 Z" id="Shape" fill="#FFFFFF"></path>
            <path d="M179.5,125.9 C179.5,127.6 179.5,129.2 179.5,130.9 C179,130.8 178.7,130.7 178.4,130.6 C177.8,129 178.3,126.9 179.5,125.9 Z" id="Shape" fill="#FFFFFF"></path>
            <path d="M240.4,110.9 C240.7,114.9 239.6,118.6 237.6,122 C236.1,124.6 233.5,125.1 231,123.1 C229.7,122.1 229,120.5 228.5,119 C227.2,114.7 227.6,110.5 229,106.4 C229.6,104.5 230.9,102.9 232.1,101.3 C232.4,100.9 232.7,100.5 233,100.1 C233.2,99.9 233.5,99.6 233.8,99.5 C236.3,98.9 238.3,100.1 239.3,102.5 C240.2,104.8 240.2,107.2 240.4,109.5 C240.4,109.9 240.4,110.4 240.4,110.9 Z M235.9,101.8 C235.5,101.9 235.1,101.9 234.4,102 C233.5,103.4 232.2,104.8 231.6,106.4 C229.9,110.9 229.2,115.5 231.6,120.1 C232.2,121.3 233,121.9 234.5,121.9 C234.8,121.5 235.5,121.1 235.7,120.5 C236.5,118.7 237.2,116.9 237.7,115 C238.5,111.8 238,108.5 237.7,105.2 C237.5,104 237.1,102.7 235.9,101.8 Z" id="Shape" fill="#000000"></path>
            <path d="M267,110 C266.1,110.3 265.2,110.5 264.4,110.7 C263.4,111 262.4,110.8 261.7,110.1 C258.9,107.5 258.3,104.5 260.7,101.2 C261.6,99.9 262.8,99.1 264.6,99.8 C265,100 265.5,99.9 265.9,100 C268.1,100.3 269.7,102 269.8,104.3 C269.8,105 269.8,105.7 269.6,106.3 C269.2,107.3 269.3,108.3 269.4,109.4 C269.8,112.6 269.6,115.8 268.7,118.9 C268.1,120.8 266,122.6 264,122.9 C263.5,123 263.1,123.3 262.7,123.6 C262.2,124 261.7,124.4 261.1,124 C260.7,123.8 260.5,123.3 260.4,122.9 C260.3,122.2 260.7,121.8 261.3,121.5 C262.2,121.1 263.2,120.8 264.1,120.4 C265.2,119.8 266.3,119.2 266.7,117.8 C267.1,115.2 267.3,112.7 267,110 Z M263.1,102.3 C261.4,103.9 261.2,105.7 262.5,107.5 C263.3,108.6 263.5,108.7 264.7,108.2 C265.5,107.9 266.1,107.3 266.8,106.9 C266.6,105.3 266.5,103.9 266.4,102.5 C265.2,102.4 264.2,102.4 263.1,102.3 Z" id="Shape" fill="#000000"></path>
            <path d="M217.8,102 C216.9,103.2 215.9,104.3 215.7,105.9 C215.7,106.1 215.7,106.3 215.6,106.4 C215.3,106.7 214.9,107.2 214.7,107.2 C214.3,107.2 213.7,106.7 213.7,106.4 C213.6,105.7 213.6,104.9 213.9,104.2 C214.5,102.9 215.3,101.7 216.2,100.6 C217.1,99.5 218.3,99.5 219.5,100.2 C221.5,101.4 222.2,103.2 221.9,105.3 C221.7,106.9 221.2,108.4 220.6,109.9 C220,111.5 219.1,113.1 218.4,114.7 C217.4,117.3 215.8,119.5 214,121.5 C213.7,121.8 213.5,122.1 213.2,122.6 C214.8,122.7 216.1,122.7 217.5,122.8 C218,122.8 218.5,122.8 218.9,122.9 C219.5,123 219.9,123.4 219.8,124 C219.8,124.6 219.4,124.9 218.8,125 C218.5,125 218.2,125 217.9,125 C216.3,125 214.7,124.9 213.1,124.9 C212.9,124.9 212.7,124.9 212.5,124.9 C210.5,124.7 209.9,123.4 211,121.8 C211.3,121.4 211.5,121 211.9,120.6 C214.7,117.5 216.5,113.8 218.1,110 C218.8,108.4 219.4,106.9 219.7,105.3 C220,103.7 219.5,102.8 217.8,102 Z" id="Shape" fill="#000000"></path>
            <path d="M250.6,104.3 C249.8,105.1 249,106 248.3,106.8 C248.1,107 248,107.3 247.8,107.4 C247.4,107.5 246.8,107.7 246.5,107.5 C246.2,107.4 246,106.8 246,106.4 C246,106 246.3,105.6 246.5,105.3 C247.6,104.1 248.7,103 249.9,101.9 C251,100.9 252.2,101.1 252.7,102.5 C253.1,103.6 253.2,104.8 253.2,106 C253.1,108.6 252.8,111.2 252.8,113.8 C252.7,116.5 252.8,119.2 252.8,121.9 C252.8,122.2 252.9,122.5 252.8,122.8 C252.8,123.7 252.3,124.2 251.6,124.1 C251,124.1 250.5,123.6 250.4,122.9 C250.3,121.2 250.2,119.4 250.2,117.7 C250.3,113.8 250.6,110 250.8,106.1 C250.8,105.6 250.8,105 250.8,104.5 C250.8,104.4 250.7,104.4 250.6,104.3 Z" id="Shape" fill="#000000"></path>
            <path d="M157.2,112.3 C158.9,111.6 161.4,113 162.2,114.4 C163.5,116.9 163.5,119.6 163.2,122.3 C162.9,124.8 161.9,127 160.6,129.1 C159.3,131.2 156.9,132 154.7,131 C152.8,130.1 151.4,128.8 151,126.6 C150.8,125.6 150.6,124.7 150.5,123.7 C150.4,122.8 150.4,121.8 150.7,120.9 C151.6,118.1 152.5,115.4 154.3,113 C155.1,111.9 155.8,111.7 157.2,112.3 Z M157.2,113.8 C156.4,113.9 155.8,114.3 155.5,115 C154.9,116.2 154.4,117.5 153.7,118.7 C152.4,121 152.5,123.5 153.1,126 C153.5,127.4 154.3,128.3 155.6,128.9 C156.7,129.3 157.8,129.1 158.5,128.1 C160.8,124.6 161.7,120.8 160.8,116.7 C160.5,115.4 159.8,114.4 158.3,114.2 C158,114.1 157.6,114 157.2,113.8 Z" id="Shape" fill="#000000"></path>
            <path d="M138.9,130.6 C140.8,130.6 142.5,130.6 144.2,130.6 C144.5,130.6 144.7,130.5 145,130.4 C145.6,130.4 146.1,130.6 146.2,131.3 C146.3,132 146,132.5 145.4,132.7 C144.7,132.9 144,133 143.3,133 C142.1,133 140.8,133.1 139.6,132.9 C138.8,132.8 137.9,132.6 137.2,132.2 C136.4,131.8 136.1,131 136.5,130.2 C137.3,128.6 138.3,127.1 139.2,125.6 C140.7,122.7 143.3,120.5 144.4,117.3 C144.6,116.6 144.9,115.9 145,115.2 C145.2,114 144.8,113.6 143.3,113.4 C142.8,113.9 142.3,114.5 141.8,115.1 C141.4,115.6 141,115.9 140.4,115.6 C139.8,115.3 139.7,114.7 139.9,114.1 C140.3,112.6 142.8,110.9 144.2,111.1 C146.4,111.5 147.6,113.1 147.3,115.4 C147,117.8 145.9,120 144.5,122 C142.7,124.5 140.9,127 139.5,129.8 C139.2,130 139.1,130.2 138.9,130.6 Z" id="Shape" fill="#000000"></path>
            <path d="M171.6,115.8 C171,116.2 170.6,116.6 170.2,116.9 C169.7,117.3 169.1,117.4 168.6,116.8 C168.1,116.2 168.4,115.7 168.9,115.2 C169.8,114.3 170.8,113.4 171.7,112.5 C172.6,111.6 173.7,112 174,113.2 C174.1,113.6 174.1,114 174,114.4 C173.5,119.6 173,124.9 172.5,130.1 C172.5,130.5 172.4,130.9 172.3,131.3 C172.2,131.9 171.8,132.2 171.2,132.2 C170.6,132.1 170.3,131.7 170.3,131.1 C170.3,130.4 170.3,129.8 170.4,129.1 C170.8,124.8 171.2,120.6 171.6,116.3 C171.7,116.2 171.7,116.1 171.6,115.8 Z" id="Shape" fill="#000000"></path>
            <path d="M41.8,145.5 C41.8,141.1 43.3,137 45.5,133.2 C46.3,131.8 47.6,131.3 49,131.2 C49.4,131.1 49.9,131.3 50.2,131.6 C50.9,132.1 51.6,132.6 52.1,133.3 C53.8,135.8 55,138.5 54.6,141.7 C54.3,144.3 54,146.9 52.8,149.3 C52.3,150.3 51.7,151.2 51.1,152 C50.4,152.9 49.5,153.6 48.3,153.7 C47.9,153.8 47.5,153.7 47.1,153.6 C46.7,153.5 46.3,153.4 45.8,153.2 C45.6,153.1 45.3,153.1 45.2,153 C43.2,151.4 41.7,149.5 41.7,146.8 C41.8,146.3 41.8,145.9 41.8,145.5 Z M48.2,151.6 C48.8,151.1 49.3,150.7 49.7,150.2 C51.2,148.5 51.5,146.3 52.1,144.2 C52.8,141.4 52.6,138.8 51.4,136.2 C50.8,135 50.1,134 48.7,133.2 C48.2,133.6 47.6,134 47.3,134.5 C45.4,137.9 44.1,141.4 44,145.4 C44,146.4 44.1,147.3 44.3,148.3 C44.4,148.9 44.8,149.5 45.2,149.9 C46.1,150.5 47.1,151 48.2,151.6 Z" id="Shape" fill="#000000"></path>
            <path d="M37.9,133.7 C37.6,133.4 37.3,133.1 37.1,132.8 C36,133.4 35.3,134.1 35.4,135.3 C35.5,136 35.3,136.6 34.4,136.7 C33.6,136.8 33.4,136.1 33.2,135.5 C32.8,133.5 34.6,131 36.6,130.7 C38.5,130.4 40.3,132.6 39.9,134.7 C39.4,137.3 38.6,139.7 37.1,141.9 C35.4,144.4 34,147 32.5,149.6 C32.2,150.1 32.1,150.6 31.9,151.1 C33.3,152.1 34.6,152.8 36.3,152.4 C36.9,152.3 37.5,152.3 38.1,152.3 C38.7,152.3 39.2,152.6 39.2,153.2 C39.2,153.6 38.9,154.1 38.6,154.4 C38.4,154.6 38,154.7 37.7,154.7 C36.2,154.6 34.6,154.7 33.2,154.3 C32.1,154 31.1,153.3 30.1,152.6 C29.4,152.1 29.4,151.4 29.7,150.7 C30.1,149.8 30.5,148.8 31,148 C32.8,145 34.6,142.1 36.3,139.1 C37.1,137.6 37.5,135.8 37.9,133.7 Z" id="Shape" fill="#000000"></path>
            <path d="M62.4,134.6 C61.9,135.2 61.3,135.7 60.8,136.3 C60.6,136.5 60.5,136.7 60.3,136.9 C59.9,137.3 59.5,137.5 58.9,137.2 C58.3,136.9 58.2,136.3 58.5,135.8 C58.9,135.1 59.3,134.4 59.9,133.8 C60.6,133.1 61.4,132.5 62.1,132 C63.4,131 64.6,131.5 64.7,133.1 C64.8,134.8 64.8,136.5 64.8,138.2 C64.7,142 64.7,145.9 64.6,149.7 C64.6,150.4 64.7,151 64.6,151.7 C64.5,152.6 64.1,153 63.4,153 C62.7,153 62.3,152.5 62.4,151.6 C62.4,150.6 62.5,149.6 62.5,148.6 C62.6,144.3 62.7,140 62.7,135.6 C62.7,135.3 62.7,135 62.6,134.6 C62.6,134.7 62.5,134.7 62.4,134.6 Z" id="Shape" fill="#000000"></path>
            <path d="M235.9,101.8 C237.2,102.7 237.5,104 237.7,105.2 C238.1,108.5 238.5,111.7 237.7,115 C237.3,116.9 236.5,118.7 235.7,120.5 C235.5,121.1 234.8,121.5 234.5,121.9 C233,121.9 232.2,121.2 231.6,120.1 C229.2,115.5 229.9,110.9 231.6,106.4 C232.2,104.8 233.5,103.4 234.4,102 C235,101.9 235.5,101.8 235.9,101.8 Z" id="Shape" fill="#FFFFFF"></path>
            <path d="M263.1,102.3 C264.2,102.4 265.2,102.4 266.4,102.5 C266.5,103.9 266.7,105.3 266.8,106.9 C266.1,107.3 265.5,107.9 264.7,108.2 C263.5,108.7 263.3,108.5 262.5,107.5 C261.2,105.7 261.4,103.9 263.1,102.3 Z" id="Shape" fill="#FFFFFF"></path>
            <path d="M157.2,113.8 C157.6,113.9 157.9,114.1 158.3,114.2 C159.8,114.4 160.5,115.4 160.8,116.7 C161.8,120.8 160.8,124.6 158.5,128.1 C157.9,129.1 156.7,129.3 155.6,128.9 C154.3,128.4 153.4,127.5 153.1,126 C152.5,123.5 152.4,121.1 153.7,118.7 C154.4,117.5 154.9,116.2 155.5,115 C155.9,114.3 156.4,113.9 157.2,113.8 Z" id="Shape" fill="#FFFFFF"></path>
            <path d="M48.2,151.6 C47.1,151 46.1,150.5 45.2,149.8 C44.7,149.4 44.4,148.8 44.3,148.2 C44.1,147.3 43.9,146.3 44,145.3 C44.1,141.4 45.4,137.8 47.3,134.4 C47.6,133.9 48.2,133.5 48.7,133.1 C50.1,133.8 50.8,134.9 51.4,136.1 C52.6,138.7 52.8,141.3 52.1,144.1 C51.6,146.2 51.2,148.4 49.7,150.1 C49.3,150.7 48.8,151.1 48.2,151.6 Z" id="Shape" fill="#FFFFFF"></path>
        </g>
    </g>
</svg>