<?xml version="1.0" encoding="UTF-8"?>
<svg width="245px" height="241px" viewBox="0 0 245 241" version="1.1" xmlns="http://www.w3.org/2000/svg" xmlns:xlink="http://www.w3.org/1999/xlink">
    <!-- Generator: Sketch 46.2 (44496) - http://www.bohemiancoding.com/sketch -->
    <title>Business - Craft your mission</title>
    <desc>Created with Sketch.</desc>
    <defs></defs>
    <g id="Page-1" stroke="none" stroke-width="1" fill="none" fill-rule="evenodd">
        <g id="Business---Craft-your-mission" fill-rule="nonzero">
            <g id="Calque_2" transform="translate(22.000000, 0.000000)" fill="#B7D6E2">
                <path d="M45.3,183.8 C18.1,174.7 4.5,143.8 1.5,115.3 C-2.3,79.7 7.5,40 36.3,18.7 C45.1,12.2 55.2,7.7 65.7,4.7 C97.9,-4.6 134.5,0.6 161.7,20.2 C188.9,39.8 205.6,73.9 202.3,107.3 C199,140.8 177.6,169.4 157.1,196 C155.5,198 153.7,200.2 151.2,200.6 C148.7,201 145.8,198.2 147.1,196" id="Shape"></path>
            </g>
            <g id="Calque_1" transform="translate(0.000000, 29.000000)">
                <g id="Group">
                    <path d="M122.2,131.1 C124.9,130.7 126.9,132.3 129.1,133.2 C129.8,132.3 130.2,131.1 131.1,130.5 C132.7,129.5 133.5,128.3 133.8,126.5 C134,125.4 135.1,124.7 136.3,124.7 C136.9,124.7 137.6,124.6 138.2,124.5 C139.7,124.3 140.3,124.7 140.9,126.1 C141,126.4 141.1,126.7 141.2,127 C141.3,128.1 141.8,128.5 142.9,128.3 C144.4,128.1 145.4,129.1 146,130.4 C147.4,133 147.8,135.8 147.4,138.7 C147.1,141.2 147.1,141.2 149.6,141.4 C149.9,141.4 150.2,141.4 150.5,141.4 C150,139.3 151.2,137.1 153.5,135.6 C155.2,134.5 156.8,133.5 158.9,133.6 C159.1,133.6 159.2,133.6 159.4,133.5 C161.1,132.6 162.8,132.9 164.6,133.4 C168.8,134.6 168.8,134.5 169.5,138.8 C169.6,139.4 170.1,139.9 170.3,140.4 C170.5,140.9 170.7,141.4 170.7,141.9 C170.8,143 170.7,144 170.7,145.1 C170.7,145.4 170.8,145.8 171,146.1 C171.8,147.2 171.8,147.9 171,148.8 C168.6,151.4 165.5,152.9 162,153.3 C159.4,153.6 156.8,154 154.1,152.8 C155.4,156.4 156.5,159.7 157.7,163.1 C159.5,161.1 161.3,159.3 162.9,157.2 C165.6,153.6 168.8,150.6 172.9,148.6 C176.5,146.8 180,144.9 183.6,143.3 C187.5,141.5 191.7,141.3 195.9,141.5 C196.8,141.5 197.6,141.8 198.4,142.1 C200.2,142.8 201,144 201,146 C201,148.9 200.1,151.2 197,152.3 C195.8,152.7 194.7,153.5 193.5,154.1 C194.5,156 195.4,157.9 196.4,159.8 C198.6,158.9 200.8,158 203,157.1 C203.4,156.9 203.9,156.8 204.4,156.7 C206.1,156.4 207,156.8 207.6,158.4 C209.2,162.6 210.7,166.9 212.2,171.1 C214.4,170.8 215.5,169.8 216,167.4 C216.3,166 216.4,164.6 216.6,163.1 C217.2,158.7 221.6,156.7 225,157.1 C227.5,157.4 230.2,160 230.4,162.7 C230.6,165.2 230.7,167.7 230.3,170.1 C229.5,175.2 228.3,180.1 225.3,184.5 C224.7,185.3 224.3,186.3 223.9,187.3 C222.9,189.5 221.8,191.5 219.2,192.7 C220.6,193.4 221.8,194 222.9,194.7 C227.5,197.5 228.7,205.6 222.7,209 C217.2,212.2 211.8,211.8 206.3,209.4 C203.5,208.2 200.9,206.5 198.3,204.9 C195.7,203.3 192.7,202.6 189.7,201.5 C189.5,202 189.4,202.2 189.3,202.5 C188.7,206.5 185.8,208.5 182.4,209.9 C181.6,210.3 180.7,210.5 179.8,210.9 C175.8,212.7 171.7,212.1 167.9,210.4 C163.8,208.6 159.8,206.5 155.9,204.4 C154,203.4 152.1,203.2 150.1,202.8 C147.7,202.4 145.4,202.9 143.1,202.9 C142.8,202.9 142.5,203 142.3,203 C137.4,204 132.5,203.3 127.7,202.3 C122.8,201.3 118.9,198.7 116.5,194.3 C115.6,194.7 114.7,195 113.9,195.4 C113.6,195.5 113.4,195.9 113.2,196.2 C112.7,196.9 112.2,197.6 111.6,198.2 C110.1,199.7 108.3,199.8 106.6,198.5 C106,198 105.6,197.9 105,198.4 C102.5,200.1 100.5,199.9 98.4,197.5 C97.5,196.5 96.8,195.3 96,194.2 C95.2,192.9 94.4,192.8 92.9,193.7 C93.4,194.4 94,195 94.4,195.7 C96.2,198.8 97.9,201.9 99.7,204.9 C100.4,206.1 101.2,207.3 102,208.5 C102.2,208.8 102.5,209.1 102.5,209.3 C102.4,209.9 102.4,210.6 102,210.9 C101.8,211.1 100.7,210.9 100.5,210.5 C99.3,208.7 98.1,206.9 97,205.1 C95.1,202 93.2,198.8 91.2,195.7 C90.9,195.2 90.6,194.8 90.3,194.4 C89.2,195 88.1,195.5 87,196 C85.7,196.6 84.6,196.3 83.8,195.2 C82.9,194.1 82.1,192.9 81.5,191.6 C80.9,190.6 80.7,189.5 81.9,188.5 C80.5,187.5 80.2,186.1 80.5,184.3 C78.5,184.7 76.6,185.1 74.5,185.5 C75,186.5 75.3,187.2 75.7,187.9 C76.6,189.9 76.3,191.2 74.4,192.5 C72.6,193.7 70.7,194.8 68.8,195.9 C68.3,196.2 67.9,196.6 67.5,196.9 C66.3,197.7 65.2,198.4 64,199.1 C63.5,199.4 63,199.6 62.5,199.9 C61,200.9 60,200.8 58.8,199.4 C57.6,197.9 56.5,196.3 55.4,194.7 C53,195.4 50.6,196 48.1,196.9 C44.1,198.3 39.9,198.4 35.8,198.4 C31.8,198.4 27.8,198 23.8,197.8 C22.6,197.8 21.3,198 20.1,198.1 C17.7,198.4 15.3,198.7 13,198.9 C10.9,199.1 8.8,199.3 6.7,199.4 C5.4,199.5 4.1,199.4 2.9,199.2 C1.5,199 0.6,197.9 0.7,196.7 C0.7,195.7 1.6,194.9 3,194.7 C3.3,194.7 3.6,194.7 4,194.6 C5.5,194.4 6.7,193.9 7.4,192.3 C8,190.9 9.1,189.7 10,188.4 C11.3,186.5 12.7,184.6 14,182.7 C14.2,182.4 14.3,181.9 14.1,181.7 C13.4,180.5 13.5,179.2 13.7,177.9 C14.9,171.4 18.9,167.2 24.8,164.5 C24.9,164.4 25.1,164.4 25.3,164.2 C24.3,162.3 24.5,160.4 25.9,158.7 C27.7,156.6 29.9,155.1 32.7,154.7 C33.7,154.6 34.7,154.7 35.7,154.7 C36.1,153.8 36.4,152.7 37,151.9 C38.2,150.5 39.6,149.2 40.8,147.8 C41.7,146.8 42.9,145.8 43.5,144.6 C44.9,141.7 47.5,140.2 49.8,138.4 C50.7,137.8 51.6,137.3 52.6,136.7 C51.7,135.8 50.8,134.9 50.1,134 C49.1,132.8 49.4,131.6 50.8,130.9 C52.4,130.1 54.1,129.8 55.8,130.2 C57.9,130.7 59,132.9 58.1,134.8 C57.8,135.5 57.5,136.1 57.1,136.9 C58.7,136.3 60.2,135.8 61.7,135.2 C62,135.1 62.2,134.6 62.3,134.2 C63.4,130.7 64.3,127.1 65.5,123.6 C66.8,119.6 68.2,115.7 69.7,111.7 C70.1,110.5 71,109.5 71.6,108.4 C71.8,108.1 71.9,107.8 72,107.4 C73.3,103.3 73.7,102.5 78.3,102.9 C79.4,103 80.4,103.3 81.4,103.6 C83,104.1 83.5,105 83.1,106.6 C82.9,107.4 83,107.9 83.7,108.4 C86,110 87.8,112.1 89.4,114.5 C90.1,115.5 90.7,116.6 91.4,117.6 C91.6,117.8 91.8,118.1 92.1,118.2 C94.2,118.6 96.3,119 98.7,119.4 C98.4,118 98.2,116.7 97.9,115.5 C96.1,107.7 94.2,99.9 92.3,92.1 C91.4,88.5 90.1,85.1 89.3,81.5 C88.4,77.9 87.8,74.2 87.2,70.5 C85,57.2 82.8,43.9 80.5,30.6 C79.8,26.7 78.6,22.9 77.7,19.1 C77.4,18 77.1,16.8 76.9,15.6 C76.6,14.1 77.6,13.1 78.7,12.3 C80,11.2 81.6,10.9 83.2,11.5 C84.9,12.1 85.7,13.5 85.9,15.3 C86,16.3 86.2,17.3 86.4,18.5 C87.3,17.9 88.2,17.4 89,16.8 C91.2,15.3 93.4,13.8 95.6,12.3 C96.3,11.8 97.1,11.5 97.8,11.2 C103.8,9 110.1,7.6 116.4,6.5 C121.8,5.5 127.1,6.3 132.4,7.1 C135.7,7.6 138.9,8.3 142.2,8.5 C145.9,8.8 149.6,8.2 153.2,7.1 C155.2,6.5 157.2,5.7 159.1,4.9 C162.7,3.5 166.3,1.8 170,0.9 C172.9,0.2 176.1,0.2 179.2,0.4 C181.5,0.5 183,2.1 183.5,4.4 C184.9,10.1 185.9,15.8 186.2,21.7 C186.7,33.4 187.2,45.2 187.7,56.9 C187.7,58.1 187.9,59.2 188,60.4 C188,60.9 188.1,61.4 188.2,61.8 C188.3,64.8 187.4,65.3 184.5,66.7 C181.2,68.3 177.9,69.7 174.6,71.2 C169.3,73.7 163.8,75.5 157.8,75.3 C154.7,75.2 151.5,74.8 148.3,74.5 C148.2,75.6 147.1,75.8 146,76.1 C141.2,77.3 136.4,78.6 131.5,79.7 C128.4,80.4 125.3,80.7 122.2,81 C119.4,81.3 116.5,81.1 113.7,81.4 C112,81.6 110.3,81.5 108.6,81.2 C107.2,80.9 105.7,81.1 104.3,81.1 C102,81.1 99.8,81.1 97.4,81.1 C97.5,81.8 97.6,82.5 97.7,83.2 C98.7,88.3 99.7,93.4 100.7,98.5 C101.2,100.8 101.9,103.1 102.4,105.5 C103.7,110.9 104.9,116.3 106.1,121.7 C106.3,122.4 106.5,122.8 107.3,122.9 C109.1,122.9 110.9,122.9 112.7,123.2 C114.7,123.4 116.7,123.7 118.6,124.3 C120.9,125 121.4,127.2 121.7,129.3 C122.2,130.1 122.2,130.5 122.2,131.1 Z M83.2,27.7 C84,27.3 84.4,27.2 84.7,27 C85.9,26.2 86.9,25.3 88.1,24.6 C93.9,21.3 99.7,18 106.5,17 C109.6,16.6 112.5,16.6 115.5,17.4 C117.1,17.8 118.4,18.7 119.5,19.9 C121.4,22 122.6,24.5 123.4,27.3 C124.4,30.7 125.6,34.1 126.6,37.6 C127.4,40.3 128,43 128.5,45.7 C128.7,46.6 128.2,47.8 127.7,48.6 C126.6,50.4 125.2,52 124.2,53.8 C122.1,57.6 118.2,58.7 114.6,60.4 C112.2,61.5 109.9,62.7 107.5,63.8 C106.7,64.2 106,64.6 105.2,64.8 C102.1,65.7 99,66.7 96.7,69.3 C96.3,69.7 95.7,70 95.2,70.3 C94.7,70.7 94.1,71.1 93.7,71.6 C92.8,72.5 92.2,73.9 90.4,73.7 C90.7,74.9 90.9,76 91.2,77.3 C91.6,77 91.9,76.7 92.2,76.5 C93.9,75.2 95.6,73.8 97.5,72.7 C102.4,70 107.8,69 113.4,68.9 C116.4,68.9 119.3,69.3 122.1,70.3 C127.2,72 132.3,73.6 137.5,74.7 C140.1,75.2 142.3,74.6 144.7,73.3 C144.4,73.1 144.2,73.1 144,73 C141.3,71.7 138.6,70.5 135.9,69.1 C135.1,68.7 134.4,68 134,67.2 C133.8,66.9 134,65.9 134.4,65.7 C134.7,65.5 135.5,65.7 136,65.9 C136.7,66.2 137.2,66.9 137.9,67.2 C139.5,68 141.1,68.6 142.7,69.4 C147.5,71.8 152.5,73.1 157.9,73.2 C164.1,73.2 169.7,71.3 175.1,68.7 C177.9,67.3 180.7,66.1 183.6,64.9 C185.8,64 186.2,63.5 185.8,61.1 C185.7,60.8 185.7,60.5 185.7,60.2 C185.5,58.9 185.3,57.6 185.2,56.3 C185.2,55.3 185.5,54.3 185.5,53.3 C185.2,45.2 185,37.1 184.5,29 C184.1,21.1 183.6,13.3 181.5,5.6 C181,3.9 180.3,3.2 178.6,3.1 C174.9,2.9 171.3,3.4 167.8,4.7 C162.5,6.7 157.5,9.5 151.9,10.6 C148.5,11.3 145,11.7 141.5,11.4 C138.3,11.1 135.1,10.4 131.9,9.9 C127,9.1 122.1,8.4 117.2,9.3 C113,10.1 108.9,11 104.8,12.1 C102.4,12.7 99.9,13.3 97.8,14.5 C93.6,17.1 89.5,20.1 85.5,23.1 C84.5,23.8 83.9,25.1 83.2,26.1 C83.2,26.4 83.3,27 83.2,27.7 Z M186.3,154.3 C189.1,153.1 191.8,152 194.5,150.8 C195.3,150.4 196.1,150 196.8,149.6 C198.1,148.9 198.9,147.2 198.5,145.5 C198.2,144.1 196.9,144.1 195.9,144 C192.6,143.8 189.3,144 186.2,145 C180.2,146.9 174.9,150.1 169.8,153.6 C169.2,154 168.6,154.5 168.1,155.1 C164.8,159.1 161.3,163.1 158.3,167.3 C155.9,170.6 153,172.3 149,172.3 C148,172.3 147,172.3 146,172.3 C144.9,172.3 143.8,172.2 142.6,172.4 C138.6,172.8 134.6,172.7 130.7,173.8 C128.2,174.5 125.8,175.3 124.1,177.4 C122.5,179.5 120.7,181.5 119.5,183.8 C117.9,186.8 117.4,190.1 118.9,193.3 C120.1,195.8 122.1,197.6 124.6,198.7 C129.3,200.7 134.4,201 139.4,201 C139.8,201 140.2,200.8 140.8,200.7 C139.2,199.6 138.9,198.3 139.3,196.7 C139.6,195.6 139.1,195 138.1,194.8 C137,194.6 136,194.6 134.9,194.5 C132.7,194.3 131.5,193.1 131.7,191 C132,188.9 132.5,186.8 133.3,184.9 C133.8,183.7 135.1,182.7 136.1,181.7 C136.7,181.2 137.5,181 138,181.8 C138.5,182.5 138.2,183.2 137.6,183.7 C135,185.4 134.7,188.1 134.2,190.8 C134.1,191.6 134.5,191.9 135.3,192 C136.3,192 137.3,192.1 138.3,192.3 C141.4,192.9 142.3,194.2 141.8,197.3 C141.7,198.1 141.9,198.5 142.6,198.7 C144.1,199.1 145.4,200.5 147.1,199.8 C147.4,199.7 147.9,200 148.3,200 C149,200.1 149.6,200.4 150.3,200.4 C152.9,200.2 155.2,201 157.5,202.3 C161.2,204.4 165,206.3 168.9,208.1 C171.4,209.2 174.2,210 177.1,209.2 C178.9,208.7 180.7,208 182.4,207.3 C185.1,206.1 186.9,204.2 187.2,201.1 C187.4,199.1 187.8,197 188.5,195.1 C189.1,193.6 188.9,192.5 188.3,191.2 C187.7,190.1 187.2,188.9 186.4,187.9 C185.7,187.1 184.8,186.5 183.8,186.1 C182.1,185.3 180.5,186.1 178.9,186.6 C176.7,187.2 174.6,187.8 172.4,188.2 C169.9,188.6 167.4,186.5 167.1,184 C167,183.2 167.1,182.4 168,182.2 C169,182 169.3,182.7 169.5,183.5 C170,185.3 170.9,186 172.8,185.6 C174.9,185.2 176.9,184.5 178.9,183.9 C183.8,182.5 186.9,183.6 189.4,188 C190.2,189.3 190.7,190.7 191.4,192.1 C192,191.9 192.6,191.6 193.2,191.3 C196.6,189.7 200.1,189.4 203.8,190.3 C208,191.4 212.3,191.2 216.6,190.6 C218.8,190.3 220.3,189.1 221.2,187.1 C221.8,185.7 222.4,184.3 223.3,183 C226.2,178.8 227.2,174 228,169.1 C228.3,167.1 228.2,165 228.1,163 C227.9,160.9 225.9,159.2 223.9,159.4 C221.2,159.7 219.3,161.5 219.4,163.8 C221.6,163 223,163.7 223.3,166.1 C223.5,167.4 223.6,168.7 223.4,170 C222.9,173.2 220.9,175.6 218.7,177.7 C215.9,180.4 213,183.1 210.1,185.7 C209.6,186.2 208.7,186.6 208,186.6 C205.2,186.4 202.8,185.4 201,183.2 C199.8,181.7 199.9,179.7 201.2,178.3 C201.7,177.7 202.4,177.3 203,176.8 C204.2,175.9 205.3,174.9 206.6,173.9 C205.9,173.8 205.4,173.7 204.9,173.6 C200.2,172.7 195.6,171.8 190.9,170.9 C188.3,170.4 185.8,169.6 183.1,169.7 C181.4,169.8 179.8,169.2 178.5,168 C178,167.6 177.4,167.2 176.9,166.8 C176.3,167.5 175.6,168.1 175.1,168.8 C173.5,170.7 171.4,171.8 169,172.4 C166.1,173 163.9,171.4 163.9,168.5 C163.9,167.6 164.1,166.7 164.4,165.8 C165.2,163.9 166.7,162.6 168.3,161.4 C170,160.1 171.7,158.8 173.2,157.2 C175,155.4 176.7,153.5 179.1,152.5 C180.3,152 181.6,151.6 182.9,151.4 C184.4,151.2 185.3,152 186.3,154.3 Z M94,68.1 C94.2,68 94.4,68 94.5,67.9 C94.8,67.7 95.1,67.6 95.3,67.4 C97.8,64.6 101.2,63.5 104.7,62.4 C105.2,62.3 105.6,62 106,61.8 C107.9,60.8 109.8,59.8 111.7,58.8 C114.1,57.6 116.6,56.6 119.1,55.4 C119.7,55.1 120.3,54.7 120.7,54.2 C122.3,52 123.9,49.8 125.4,47.5 C125.8,46.9 126,46 125.9,45.2 C125.7,43.4 125.3,41.6 124.8,39.8 C123.7,36.1 122.4,32.4 121.1,28.7 C121,28.4 120.9,28 120.7,27.9 C119.5,27.3 118.3,26.7 117,26.3 C113.5,25.2 109.9,25.3 106.4,26.1 C100.3,27.5 94.8,30.3 89.3,33.2 C87.7,34 87.7,34.3 88.1,36.2 C89.6,43.8 91.1,51.5 92.5,59.1 C93.2,62.2 93.6,65.1 94,68.1 Z M38.9,155.3 C40.1,155.5 41.1,155.7 42.1,155.8 C42.6,155.9 43.1,155.9 43.5,155.8 C46.4,154.7 47.6,154.9 49.3,157.5 C50.1,158.7 50.7,159.6 52.3,159.1 C52.9,158.9 53.7,159.4 54.4,159.5 C54.8,159.6 55.1,159.7 55.6,159.9 C55.5,158 56.4,156.7 57.6,155.4 C58.1,154.9 58.4,154.1 58.9,153.5 C59.2,153.1 59.9,152.5 60.2,152.7 C60.7,152.9 61.1,153.5 61.2,154.1 C61.3,154.5 61,155.1 60.7,155.5 C60.2,156.2 59.6,156.9 59,157.5 C57.8,158.8 57.8,161.4 58.9,162.7 C60.5,164.5 62.2,166.2 63.5,168.2 C64.4,169.5 65.5,169.5 66.7,169.3 C67.2,169.2 67.8,169 68.3,168.8 C71.1,167.2 74,165.7 76.7,164 C77.6,163.5 78.1,162.4 78.8,161.5 C78.9,161.4 78.8,161.2 78.7,161 C77.3,157.6 76.3,153.9 73,151.6 C72.6,151.3 72.3,150.4 72.5,150.1 C72.8,149.7 73.5,149.5 74.1,149.5 C74.5,149.5 74.9,149.8 75.2,150.1 C76.2,151.2 77.2,152.2 77.9,153.4 C79.3,155.9 80.4,158.6 81.7,161.2 C84.7,160.4 87.8,159.5 90.7,158.7 C90.8,157.7 90.7,157 90.9,156.3 C91.4,154.3 90.9,153.3 88.9,152.6 C87.4,152.1 86.3,151.2 85.6,149.8 C84.9,148.4 84.3,147.1 83.6,145.7 C83,144.6 82.3,143.9 81,143.5 C80,143.2 79,142.5 78.3,141.7 C76.8,140.3 75.4,138.9 73.2,138.9 C71.4,138.9 69.8,138.4 68.1,137.8 C66.8,137.4 65.3,137.4 63.9,137.7 C62.1,138.1 60.4,138.9 58.6,139.4 C57.5,139.7 56.3,140 55.5,138.4 C54.1,139.2 52.7,139.8 51.5,140.7 C49.8,142 47.9,143.2 46.8,144.9 C45.3,147.3 43.6,149.3 41.4,151 C40.2,152.1 39.2,153.4 38.9,155.3 Z M44.3,168.5 C44.4,169.1 44.4,169.7 44.5,170.3 C45.3,173.5 46.6,176.5 48.5,179.2 C50,181.3 51.6,183.4 53,185.5 C54.2,187.2 55.1,189.1 56.2,190.8 C57.5,192.9 58.8,194.9 60.2,196.9 C60.5,197.3 61.1,197.7 61.4,197.6 C62.9,197 64.3,196.2 65.6,195.4 C66.5,194.9 67.3,194.1 68.2,193.5 C69.7,192.6 71.2,191.7 72.7,190.8 C73.8,190.2 74,189.5 73.4,188.5 C71.9,185.9 70.4,183.3 68.9,180.7 C67.9,179.1 66.8,177.7 65.8,176.1 C63,171.7 60.4,167.2 56.5,163.7 C54.7,162 52.7,161 50.2,162.1 C49.8,162.3 49.4,162.4 48.9,162.5 C45.9,163.3 44.4,165.2 44.3,168.5 Z M133.7,165.9 C132.7,166 131.7,166.1 130.8,166 C125.4,165.8 120.3,164.5 115.2,163.2 C112,162.4 108.6,161.6 106.3,158.6 C105.7,160 105.2,161.2 104.7,162.4 C103.4,166.1 102.1,169.8 100.8,173.5 C100.3,175 100,176.6 99.8,178.1 C99.7,179.4 99.5,180.8 101,181.6 C103.8,183.2 106.6,184.7 109.4,186.2 C110.2,186.6 111.1,186.9 112.1,186.2 C112.5,186 113.2,186.2 113.7,186.4 C114.4,186.7 115,187.1 115.8,187.6 C116.1,183.6 118.2,180.8 120.3,178 C122.3,175.2 124.6,172.4 128.2,171.9 C131.9,171.4 133.1,169.3 133.7,166.2 C133.7,166.1 133.7,166 133.7,165.9 Z M66.3,172 C66.7,172.6 66.9,173.1 67.3,173.6 C69,176.2 70.8,178.7 72.5,181.2 C73.8,183.2 73.7,183.1 76.1,182.7 C80.2,182.1 84,180.7 87.7,179 C90,178 92.4,176.7 94.8,176.3 C97.2,175.9 98,174.8 98.5,172.6 C99.1,170.2 100.2,167.9 101,165.6 C101.3,164.8 101.5,164.1 100.8,163.4 C99.5,162.2 98.2,161 96.8,160 C96.3,159.7 95.4,159.7 94.8,159.8 C92.1,160.6 89.5,161.7 86.9,162.4 C83.6,163.2 80.7,164.7 77.8,166.4 C74.1,168.5 70.7,171 66.3,172 Z M40.3,158.1 C38.6,157.9 37.1,157.9 35.7,157.5 C32.7,156.7 29.1,159.1 27.9,160.9 C27.4,161.7 27.4,162.6 28.2,163.3 C29.7,164.7 29.5,165.8 27.5,166.5 C21.7,168.5 17.8,172.3 16.5,178.5 C16.1,180.4 16.5,181.1 18.4,181.2 C20.3,181.3 22.3,181.2 24.2,180.8 C26.4,180.4 28.6,179.6 30.8,179 C32.4,178.6 34,178.3 35.5,179 C37.1,179.8 38.8,180.3 40.6,180.5 C42.4,180.7 44.1,180.7 45.7,180 C44.9,178.3 44.1,176.6 43.3,175 C41.8,172.1 41.3,169.1 41.9,165.8 C42,165.5 41.9,165.1 41.7,164.8 C41.1,164 40.4,163.3 39.8,162.5 C38.4,160.6 38.4,159.9 40.3,158.1 Z M151.8,144.1 C151.7,144 151.6,144 151.5,143.9 C148.9,143.6 146.3,143.2 143.7,143.2 C142.5,143.2 141.2,144 140.1,144.6 C139.1,145.2 138.9,146.2 139.4,147.2 C140,148.5 140.7,149.7 141.4,151 C141.9,152 142.6,152.9 143,153.9 C143.7,155.7 142.7,156.9 140.8,156.8 C139.9,156.8 139,156.6 138.2,156.6 C138.1,161.4 136.2,165.7 135.1,170.2 C140.1,170 145,169.9 149.8,169.7 C150.3,169.7 150.8,169.5 151.3,169.5 C152.9,169.2 154.1,168.4 155.1,167.2 C155.8,166.4 155.9,165.7 155.6,164.7 C154.3,161.2 153,157.6 151.8,154.1 C151.5,153.3 151.4,152.4 151.6,151.6 C151.9,150.7 151.8,150 151.5,149.1 C151.1,147.4 149.6,145.8 151.8,144.1 Z M83.2,126.2 C81,129.1 79.8,132.2 79.6,135.7 C79.5,137.5 79.5,139.4 81.7,140.1 C81.8,140.1 81.9,140.2 82,140.3 C82.9,141.4 84,141.2 85,140.6 C88,138.8 91.4,138.9 94.7,139 C96.4,139 98,139.6 99.7,140 C100.4,140.1 101,140.4 101.7,140.4 C105.1,140.8 108.5,141.3 111.9,141.7 C113.1,141.8 114.4,141.9 115.6,142 C117.2,142.2 118.3,141.4 119,140.1 C119.3,139.5 119.8,138.9 119.8,138.3 C119.9,137.2 119.9,136.1 119.7,135 C119.6,134.3 119.1,133.7 118.7,133 C116.1,134.2 113.1,134.4 110.1,133.5 C109.3,133.3 108.5,133 107.7,132.7 C105.7,132 103.7,131.5 101.6,131.8 C99.8,132.1 97.9,132.1 96.2,132.6 C90.4,134.6 84.9,130.9 83.2,126.2 Z M85.5,143.4 C85.9,144.2 86.3,145.1 86.7,145.9 C87.1,146.7 87.4,147.7 87.9,148.4 C88.5,149.2 89.3,150 90.1,150.4 C92.8,151.5 94,153.3 93.6,156.2 C93.5,156.6 93.5,157 93.4,157.6 C97.7,155.8 99.4,159.6 102.2,161.3 C103,159.6 103.7,157.8 104.5,156.1 C104.8,155.4 105.2,154.6 105.8,154 C107,152.6 108.5,151.8 110.3,151.5 C111,151.4 111.3,151 111.3,150.3 C111.4,149.3 111,148.6 110.1,148.2 C109.5,147.9 108.8,147.7 108.2,147.4 C106.9,146.8 106.7,145.7 107.4,144.5 C107.5,144.3 107.7,144.1 107.9,143.7 C107,143.6 106.2,143.6 105.5,143.5 C103.3,143.2 101.1,142.9 98.9,142.5 C97.5,142.3 96,141.7 94.6,141.7 C91.6,141.5 88.4,141.3 85.5,143.4 Z M86.2,187.4 C87,185.3 87.8,185.1 89.1,186.7 C90.2,188.1 91.2,189.6 92.2,191.1 C95.2,190 97.3,190.2 98.8,193.4 C99.3,194.4 100.1,195.3 100.8,196 C101.9,197.1 102.7,197.1 103.9,196.1 C105.9,194.5 105.9,194.5 107.8,196 C109,197 109.6,196.9 110.6,195.7 C110.8,195.4 111.1,195 111.2,194.7 C111.7,193.7 112.4,193.1 113.5,192.8 C114.2,192.6 114.9,192.1 115.3,191.6 C115.6,191.3 115.5,190.2 115.3,190.1 C114.3,189.6 113.2,189.2 112.1,189.1 C110.5,189 108.9,188.9 107.5,188.1 C105.2,186.8 103,185.5 100.7,184.3 C98.4,183.1 97,181.5 97.1,178.8 C97.1,178.7 97,178.5 96.9,178.2 C96.1,178.4 95.3,178.4 94.6,178.7 C91.4,180 88.3,181.4 85.1,182.5 C83.6,183 83.8,184.4 83.2,185.4 C83.1,185.6 83.7,186.4 84.2,186.7 C84.8,187.1 85.5,187.2 86.2,187.4 Z M144.6,140.5 C144.7,139.7 144.8,139 144.9,138.3 C145.3,136.1 144.9,134.1 144,132.1 C143.8,131.6 143.2,130.9 142.7,130.9 C140.2,130.9 137.7,131.1 135.2,131.3 C133.6,131.4 132.3,132.3 131.7,133.9 C131.1,135.4 130.5,137 130.2,138.6 C129.4,142.8 128.7,147 128,151.2 C127.9,151.7 127.8,152.2 128.6,152.5 C132.3,154.1 136.1,154.4 140.2,154.2 C139.9,153.7 139.6,153.2 139.3,152.8 C138.5,151.5 137.7,150.1 137.1,148.7 C135.9,145.9 136.5,143.9 139,142.2 C140.8,140.9 142.6,140.5 144.6,140.5 Z M134.8,77 C134.8,76.9 134.8,76.8 134.8,76.8 C134.7,76.7 134.5,76.7 134.4,76.6 C130.5,75.4 126.6,74.3 122.7,73.1 C120.6,72.5 118.4,71.7 116.2,71.5 C111,71.1 105.8,71.7 101,73.8 C99.6,74.4 98.3,75.3 97,76.2 C96.7,76.4 96.7,77.2 96.8,77.6 C96.9,78 97.2,78.6 97.5,78.6 C99.6,78.8 101.6,78.8 103.7,78.9 C105.8,79 107.9,78.9 110,79 C111.1,79 112.2,79.1 113.3,79.1 C114.3,79.1 115.3,79 116.3,78.9 C118.8,78.8 121.4,78.7 123.9,78.6 C125.6,78.5 127.4,78.2 129.1,77.9 C131,77.7 132.9,77.3 134.8,77 Z M130.6,163.8 C133.2,163.6 134.8,162.5 135.2,160.1 C135.3,159.2 135.7,158.2 134.4,157.9 C134.2,157.9 134,157.6 134,157.5 C134,156.4 133.1,156.4 132.3,156.2 C131.7,156.1 131.2,155.9 130.6,155.7 C129,155.3 127.4,154.7 125.7,154.5 C123.4,154.2 121.1,154.1 118.8,154 C116.5,153.9 114.2,153.8 111.9,153.9 C111.1,153.9 110.2,154.2 109.5,154.5 C107.8,155.2 107.6,156.6 109,157.8 C109.7,158.4 110.4,159 111.3,159.3 C114.4,160.3 117.5,161.3 120.6,162 C123.8,162.6 127.2,163.1 130.6,163.8 Z M86.7,119.7 C87.6,119.4 88.3,119.1 89.2,118.7 C88.5,117.6 87.9,116.5 87.2,115.6 C86.3,114.4 85.3,113.4 84.3,112.3 C83,110.9 81.5,109.9 79.5,110 C79.1,110 78.7,109.9 78.3,109.8 C76.2,109.1 73,110 72.3,113 C72.1,113.7 72.2,114.1 72.8,114.6 C74.7,116.1 76,118 75.7,120.6 C75.4,123.1 75,125.6 74.6,128.1 C74.1,130.9 73.6,133.6 73,136.4 C74.4,136.7 75.7,136.9 77,137.2 C77,137 77.1,136.8 77.1,136.6 C77.2,133.6 77.7,130.7 79.1,128 C79.3,127.6 79.2,127.1 79.2,126.6 C79.2,124.1 79.1,121.7 79.3,119.2 C79.5,117 81,116.3 83.1,116.8 C84.7,117.2 85.8,118.3 86.7,119.7 Z M198.1,169.6 C196.2,165.4 194.5,161.5 192.7,157.6 C192.4,156.9 192,156.4 191.6,155.7 C191.3,155.1 190.9,154.9 190.3,155.3 C189,156.1 187.6,156.7 186.3,157.5 C184.6,158.5 182.9,159.5 181.1,160.5 C180.2,161 179.3,161.5 178.5,162.2 C177.8,162.8 177.5,163.6 178.2,164.4 C179.5,165.8 181,167.2 183.1,167.1 C186.5,167 189.7,168.1 193,168.8 C194.6,169.2 196.3,169.4 198.1,169.6 Z M125.2,151.7 C126.2,146.5 127.2,141.5 128.2,136.5 C128.3,136.2 128.1,135.6 127.8,135.4 C126.5,134.7 125.2,134.1 123.9,133.6 C122.8,133.2 122.4,133.6 122.5,134.8 C122.7,136.7 122.6,138.6 121.8,140.4 C120.3,143.5 118.6,144.7 115.1,144.5 C113.6,144.4 112.1,144.2 110.6,144.1 C110.2,144.9 110.5,145.4 111.3,145.7 C113,146.4 114,147.8 114,149.7 C114,150.1 114,150.5 114,150.9 C117.8,151.2 121.6,151.5 125.2,151.7 Z M26.8,182.8 C29.7,186.2 29.1,191.5 25.5,193.1 C23.6,194 21.3,194.4 19.2,194.8 C18.6,194.9 17.9,194.7 17.3,194.5 C15.6,194 14.6,192.8 14.5,191.3 C14.4,189.8 15.6,188.1 16.8,187.3 C18.2,186.4 19.4,185.2 20.8,184 C19.9,183.9 19.2,183.9 18.5,183.8 C17.3,183.5 16.6,184 16,184.9 C14.9,186.6 13.6,188.2 12.5,189.9 C11.6,191.1 10.7,192.3 10,193.6 C9.2,194.9 8.7,196.4 7,196.8 C9.4,196.7 11.7,196.6 14,196.4 C15.9,196.3 17.7,196 19.6,195.8 C21.6,195.6 23.6,195.4 25.7,195.5 C29.3,195.6 32.9,195.9 36.5,196.1 C31.9,195.2 29.9,191.5 32,187.2 C33,185.2 34.1,183.2 37,183 C35.7,181.7 34.5,181 33.1,181.3 C31,181.7 29,182.2 26.8,182.8 Z M211.7,193.8 C208.8,193.5 206,193.5 203.4,192.8 C199.9,191.9 196.7,192.6 193.5,193.9 C191,194.9 190.4,196.9 190,199 C193.7,200.4 197.2,201.7 200.8,203 C203.7,199.3 207.8,196.7 211.7,193.8 Z M87.5,31.6 C88,31.3 88.4,30.9 88.8,30.7 C92.5,29 96.3,27.2 100.1,25.7 C105.6,23.5 111.3,22.4 117.2,23.9 C118.1,24.1 118.9,24.5 119.9,24.8 C118.4,22.2 117,20.1 113.8,19.5 C108.8,18.6 104.1,19.9 99.5,21.6 C97.1,22.5 94.9,23.8 92.7,25 C90.9,26 89.2,27.1 87.6,28.3 C87.4,28.4 87.1,28.8 87.2,29.1 C87.1,29.8 87.3,30.6 87.5,31.6 Z M215.8,208.8 C218.1,208.5 220,207.5 221.9,206.3 C222.5,205.9 223.1,205.5 223.5,204.9 C225.1,202.4 224.2,198.3 221.6,196.7 C220.3,195.9 218.9,195.2 217.6,194.4 C216.9,194 216.4,194.2 216.2,194.9 C215.9,195.9 215.6,196.9 215.3,197.9 C214.2,201.4 214.1,205.1 215.8,208.8 Z M105.4,129.1 C103.7,120.5 101.8,112.1 99.6,103.7 C97.4,95.3 96.7,86.7 94.2,78.3 C92.8,78.9 92.4,79.9 92.5,81.1 C92.6,82.6 92.9,84.2 93.3,85.7 C95.8,95.9 98.4,106 100.9,116.1 C101.8,119.9 102.5,123.8 103.2,127.7 C103.4,129.1 104,129.4 105.4,129.1 Z M220.8,166.5 C219,166.8 218.5,168 218.2,169.5 C217.9,170.9 216.8,171.9 215.6,172.6 C215.1,172.9 214.5,173.2 214.2,173.7 C213.1,175.3 211.4,175.8 209.6,176.1 C208.9,176.2 208,176.3 207.4,176.7 C206,177.6 204.8,178.7 203.5,179.7 C202.5,180.6 202.4,181.5 203.5,182.3 C204.7,183.1 206.1,183.6 207.4,184.2 C207.7,184.3 208.2,184.2 208.5,183.9 C211.6,181.1 214.6,178.2 217.6,175.3 C218.5,174.4 219.2,173.4 219.9,172.4 C221,170.5 221.3,168.6 220.8,166.5 Z M97.9,129.6 C97.8,129.3 97.7,129.2 97.7,129.1 C96.4,126.8 96.8,125.5 99.1,124.2 C99.3,124.1 99.6,123.5 99.5,123.3 C99.4,123 99.1,122.5 98.8,122.4 C96.5,121.9 94.2,121.4 91.9,121.1 C90.2,120.9 88.6,121.5 87.2,122.6 C85.6,123.9 85.4,125.4 86.6,127.1 C88.7,130.1 91.9,131.2 95.3,130.3 C96.1,130.1 96.9,129.8 97.9,129.6 Z M209.2,171.6 C209.3,171.3 209.4,171.2 209.3,171.1 C208,167.2 206.7,163.3 205.4,159.5 C205.3,159.3 204.8,159.1 204.5,159.2 C202.1,160.1 199.8,161 197.4,162 C198.3,164.1 199.2,165.9 199.9,167.8 C200.6,169.9 201.9,170.8 204,170.9 C205.8,171.1 207.5,171.4 209.2,171.6 Z M38,193.2 C39.2,193.1 40.9,193 42.5,192.6 C43.2,192.5 44,192 44.5,191.4 C46.4,189.1 45.8,186 43.3,184.4 C41.5,183.3 40.4,183.4 38.8,184.8 C38.5,185 38.1,185.3 37.8,185.3 C35.9,185.2 35.1,186.5 34.3,187.9 C32.7,191.1 34.1,193.4 38,193.2 Z M65.2,134.7 C67.2,135.1 68.9,135.5 70.6,135.8 C71.1,133.1 71.7,130.4 72.1,127.6 C72.5,125.1 72.9,122.6 73.2,120.1 C73.4,118.6 72.5,117.5 71,116.4 C69,122.7 67.1,128.7 65.2,134.7 Z M168,169.9 C167.9,169.9 168.1,169.9 168.3,169.9 C171.5,169.4 173.3,167 175.2,164.8 C175.3,164.7 175.3,164.3 175.3,164.1 C175.2,162.5 175.8,161.1 177.1,160.3 C178.4,159.4 179.9,158.6 181.3,157.9 C182.6,157.3 183.2,156.4 183.4,155.1 C183.5,154.3 183.2,153.9 182.4,154.1 C181.6,154.3 180.7,154.5 179.9,154.9 C177.7,155.9 176.2,157.7 174.5,159.4 C173.1,160.9 171.5,162.1 169.9,163.4 C169.4,163.8 168.8,164.1 168.3,164.5 C167.2,165.6 166.1,166.8 166.1,168.5 C166.3,169.2 166.7,169.9 168,169.9 Z M90.2,71.5 C91.3,70.9 91.7,70.3 91.6,69.3 C90.8,64.4 90.2,59.5 89.3,54.6 C88.1,47.9 86.7,41.3 85.5,34.6 C85.2,33.1 85,31.6 84.7,30 C84.2,30.1 83.9,30.1 83.3,30.2 C85.5,44 87.8,57.7 90.2,71.5 Z M107.4,125.8 C107.6,127.1 107.8,128.3 108.1,129.4 C108.2,129.7 108.5,130.2 108.7,130.3 C110.4,130.8 112.1,131.4 113.9,131.5 C115.1,131.6 116.3,131.2 117.5,130.8 C118.6,130.4 119.3,129.7 119.2,128.4 C119.1,127.2 118.1,126.9 117.2,126.6 C116.9,126.5 116.6,126.4 116.3,126.4 C113.4,126.2 110.5,126 107.4,125.8 Z M45.6,183 C47.8,185.4 49.2,188 47.8,191.2 C46.4,194.4 43.8,195.6 40.5,195.6 C45.4,195.6 49.9,194.1 54.4,192.4 C53.7,191.3 53,190.4 52.4,189.5 C51.8,188.5 51.4,187.5 50.8,186.6 C50.2,185.6 49.5,184.6 48.7,183.7 C47.2,181.8 47.8,182.1 45.6,183 Z M168.1,145 C163.6,147.3 158.8,148 153.7,147.3 C154,148 154.4,148.6 154.5,149.2 C154.7,150.2 155.3,150.6 156.2,150.7 C159.7,151.3 163.1,150.9 166.3,149.3 C168.9,147.9 168.6,147.9 168.1,145 Z M19.4,192.5 C20.6,192.2 21.8,191.8 23,191.5 C25.1,190.8 26.1,189.6 26.2,187.4 C26.2,186.7 25.9,185.6 25.4,185.3 C24.8,185 23.7,185.2 23.1,185.6 C21.9,186.4 20.9,187.5 19.9,188.4 C19.2,189 18.5,189.6 17.8,190.1 C17,190.6 16.9,191.5 17.8,192 C18.1,192.2 18.7,192.3 19.4,192.5 Z M153.2,139.3 C153.7,139.4 153.9,139.5 154.2,139.5 C156.4,139.5 158.6,139.3 160.7,139.4 C162.7,139.5 164.3,138.4 166,137.6 C166.3,137.5 166.4,137 166.6,136.7 C166.3,136.5 166,136.3 165.7,136.2 C163,135.2 160.3,135.5 157.6,136.2 C155.9,136.6 154.5,137.6 153.2,139.3 Z M153.7,142.1 C153.9,142.8 154,143.4 154.2,144 C154.4,144.4 154.8,144.8 155.1,144.9 C159,145.4 162.7,144.8 166.1,143.1 C167.7,142.3 167.7,142 166.9,140 C162.9,142.4 158.3,142.2 153.7,142.1 Z M81.7,23.1 C82.6,22.3 83.4,21.6 84.1,20.9 C84.2,20.8 84.3,20.6 84.3,20.5 C84,18.7 83.9,16.9 83.4,15.1 C83.1,14.1 82.1,13.9 81.2,14.3 C80.6,14.6 79.7,15.5 79.8,15.9 C80.4,18.4 81.1,20.8 81.7,23.1 Z M211.4,208.2 C210.1,205.3 208,203.5 205.8,201.5 C204.7,202.5 203.7,203.5 202.5,204.6 C205.5,206 208.1,207.7 211.4,208.2 Z M212.9,196 C211.1,197.3 209.5,198.5 207.8,199.7 C209.2,201.1 210.6,202.4 211.7,203.4 C212.1,201.2 212.5,198.7 212.9,196 Z M41.5,160.6 C42.2,161.5 42.8,162.3 43.4,163 C44.9,161.9 46.3,160.9 47.9,159.8 C47.8,159.7 47.7,159.3 47.4,159 C46.4,157.5 45.9,157.3 44.4,158.3 C43.3,158.9 42.5,159.7 41.5,160.6 Z M88.3,192.6 C87.9,192 87.5,191.4 87.1,190.9 C86,189.4 85.7,189.4 84.2,190.5 C84.5,191 84.9,191.5 85.2,192 C86.2,193.9 86.3,193.9 88.3,192.6 Z M82.2,119 C82.1,119.1 81.9,119.2 81.8,119.3 C81.7,120.8 81.6,122.3 81.4,124 C82.7,122.9 83.7,122.1 84.9,121 C84,120.3 83.1,119.6 82.2,119 Z M75.4,106.9 C76.8,107.1 78.2,107.2 79.6,107.4 C80.4,107.5 81.1,107.5 80.9,106.1 C79.6,106 78.2,105.8 76.8,105.7 C76,105.6 75.4,106.1 75.4,106.9 Z M55.5,135.4 C55.6,135.4 55.8,135.4 55.9,135.3 C56,134.6 56.3,133.8 56.1,133.2 C55.9,132.6 54.1,132.7 53,133.4 C53.8,134.1 54.6,134.7 55.5,135.4 Z M138.9,128.4 C138.7,127.7 139,126.8 137.8,127 C137,127.2 135.7,126.7 136,128.4 C136.9,128.4 137.8,128.4 138.9,128.4 Z" id="Shape" fill="#000000"></path>
                    <path d="M234.9,184 C236.1,184 237.4,183.8 238.5,184.1 C240.1,184.5 241.6,185.3 243.1,186.1 C244.5,186.9 244.9,188.3 244.5,189.8 C243.4,193.7 242.3,197.6 241.2,201.5 C240.5,204.2 239.4,205.1 236.7,205 C234.4,204.9 232.2,204.5 230,204.1 C228.7,203.9 228,203 227.8,201.7 C227.7,201.2 227.7,200.7 227.7,200.3 C227.7,196.3 227.7,192.4 227.7,188.4 C227.7,187.5 227.9,186.8 228.8,186.4 C229.4,186.1 229.8,185.2 230.4,184.9 C231.8,184.4 233.3,184.1 234.8,183.7 C234.8,183.8 234.8,183.9 234.9,184 Z M230.1,189.9 C230.1,193.6 230.1,197.2 230.1,200.7 C230.1,201 230.6,201.6 231,201.7 C232.7,202 234.5,202.3 236.2,202.4 C238,202.5 238.3,202.2 238.7,200.4 C239.1,198.9 239.6,197.3 240.1,195.8 C240.5,194.4 240.9,193 241.3,191.5 C237.4,191.8 233.7,192.2 230.1,189.9 Z M241.8,188.7 C240,186.6 233.5,185.7 231.5,187.3 C232.5,189.1 238.8,190 241.8,188.7 Z" id="Shape" fill="#000000"></path>
                    <path d="M83.2,27.7 C83.2,26.9 83.1,26.4 83.3,26 C84,24.9 84.6,23.7 85.6,23 C89.6,20 93.6,17 97.9,14.4 C100,13.1 102.5,12.6 104.9,12 C109,11 113.1,10 117.3,9.2 C122.2,8.3 127.1,9 132,9.8 C135.2,10.3 138.4,10.9 141.6,11.3 C145.1,11.7 148.5,11.2 152,10.5 C157.7,9.4 162.6,6.6 167.9,4.6 C171.4,3.3 175,2.8 178.7,3 C180.4,3.1 181.2,3.8 181.6,5.5 C183.7,13.2 184.2,21 184.6,28.9 C185,37 185.3,45.1 185.6,53.2 C185.6,54.2 185.3,55.2 185.3,56.2 C185.4,57.5 185.6,58.8 185.8,60.1 C185.8,60.4 185.9,60.7 185.9,61 C186.3,63.4 186,63.8 183.7,64.8 C180.8,66 178,67.3 175.2,68.6 C169.8,71.3 164.2,73.2 158,73.1 C152.6,73.1 147.6,71.8 142.8,69.3 C141.2,68.5 139.6,67.9 138,67.1 C137.3,66.8 136.8,66.1 136.1,65.8 C135.6,65.6 134.9,65.4 134.5,65.6 C134.2,65.9 133.9,66.8 134.1,67.1 C134.6,67.8 135.3,68.6 136,69 C138.7,70.4 141.4,71.6 144.1,72.9 C144.3,73 144.4,73.1 144.8,73.2 C142.5,74.5 140.2,75.1 137.6,74.6 C132.3,73.6 127.3,72 122.2,70.2 C119.4,69.3 116.5,68.8 113.5,68.8 C107.9,68.9 102.5,69.8 97.6,72.6 C95.7,73.6 94.1,75.1 92.3,76.4 C92,76.6 91.7,76.8 91.3,77.2 C91,76 90.8,74.9 90.5,73.6 C92.3,73.9 92.9,72.4 93.8,71.5 C94.3,71 94.8,70.6 95.3,70.2 C95.8,69.8 96.4,69.6 96.8,69.2 C99.1,66.6 102.1,65.7 105.3,64.7 C106.1,64.5 106.8,64 107.6,63.7 C110,62.6 112.3,61.4 114.7,60.3 C118.3,58.7 122.1,57.5 124.3,53.7 C125.3,51.9 126.7,50.3 127.8,48.5 C128.3,47.6 128.7,46.5 128.6,45.6 C128.1,42.9 127.5,40.1 126.7,37.5 C125.7,34 124.5,30.7 123.5,27.2 C122.7,24.5 121.5,22 119.6,19.8 C118.5,18.6 117.2,17.7 115.6,17.3 C112.6,16.6 109.6,16.5 106.6,16.9 C99.8,17.9 94,21.2 88.2,24.5 C87,25.2 85.9,26.1 84.8,26.9 C84.4,27.2 84,27.4 83.2,27.7 Z" id="Shape" fill="#FFFFFF"></path>
                    <path d="M186.3,154.3 C185.3,151.9 184.5,151.1 182.8,151.4 C181.5,151.6 180.2,152 179,152.5 C176.6,153.5 174.9,155.3 173.1,157.2 C171.6,158.7 170,160.1 168.2,161.4 C166.5,162.6 165.1,163.9 164.3,165.8 C163.9,166.6 163.7,167.6 163.8,168.5 C163.9,171.4 166.1,173.1 168.9,172.4 C171.3,171.9 173.4,170.7 175,168.8 C175.6,168.1 176.2,167.5 176.8,166.8 C177.4,167.2 177.9,167.6 178.4,168 C179.8,169.1 181.4,169.8 183,169.7 C185.7,169.6 188.2,170.4 190.8,170.9 C195.5,171.8 200.1,172.7 204.8,173.6 C205.3,173.7 205.8,173.8 206.5,173.9 C205.2,174.9 204,175.9 202.9,176.8 C202.3,177.3 201.6,177.8 201.1,178.3 C199.8,179.7 199.7,181.7 200.9,183.2 C202.7,185.4 205.1,186.4 207.9,186.6 C208.6,186.7 209.5,186.2 210,185.7 C212.9,183.1 215.7,180.4 218.6,177.7 C220.9,175.5 222.9,173.2 223.3,170 C223.5,168.7 223.4,167.4 223.2,166.1 C222.8,163.7 221.5,163 219.3,163.8 C219.2,161.5 221.1,159.7 223.8,159.4 C225.8,159.2 227.9,160.8 228,163 C228.2,165 228.3,167.1 227.9,169.1 C227.1,174 226.1,178.8 223.2,183 C222.4,184.2 221.8,185.7 221.1,187.1 C220.2,189.1 218.7,190.3 216.5,190.6 C212.2,191.2 207.9,191.3 203.7,190.3 C200,189.4 196.5,189.7 193.1,191.3 C192.5,191.6 191.9,191.8 191.3,192.1 C190.6,190.7 190,189.3 189.3,188 C186.7,183.6 183.6,182.5 178.8,183.9 C176.8,184.5 174.8,185.1 172.7,185.6 C170.9,186 169.9,185.3 169.4,183.5 C169.2,182.7 168.8,182 167.9,182.2 C167,182.4 166.9,183.2 167,184 C167.3,186.5 169.8,188.6 172.3,188.2 C174.5,187.8 176.6,187.2 178.8,186.6 C180.4,186.2 182,185.4 183.7,186.1 C184.6,186.5 185.6,187.1 186.3,187.9 C187.1,188.9 187.7,190 188.2,191.2 C188.8,192.4 189,193.6 188.4,195.1 C187.7,197 187.3,199 187.1,201.1 C186.8,204.2 185,206.1 182.3,207.3 C180.6,208.1 178.8,208.7 177,209.2 C174.1,210 171.4,209.2 168.8,208.1 C164.9,206.4 161.1,204.4 157.4,202.3 C155.1,201 152.8,200.2 150.2,200.4 C149.5,200.4 148.9,200.2 148.2,200 C147.8,199.9 147.4,199.6 147,199.8 C145.2,200.5 144,199.1 142.5,198.7 C141.8,198.5 141.6,198.1 141.7,197.3 C142.2,194.2 141.3,192.9 138.2,192.3 C137.2,192.1 136.2,192.1 135.2,192 C134.4,192 134,191.6 134.1,190.8 C134.5,188.1 134.9,185.4 137.5,183.7 C138.2,183.3 138.4,182.5 137.9,181.8 C137.4,181.1 136.6,181.2 136,181.7 C135,182.7 133.7,183.6 133.2,184.9 C132.4,186.8 131.9,188.9 131.6,191 C131.3,193.1 132.6,194.3 134.8,194.5 C135.9,194.6 137,194.6 138,194.8 C139,195 139.5,195.5 139.2,196.7 C138.7,198.3 139,199.6 140.7,200.7 C140.1,200.8 139.7,201 139.3,201 C134.2,201 129.2,200.8 124.5,198.7 C122,197.6 119.9,195.8 118.8,193.3 C117.3,190.1 117.7,186.8 119.4,183.8 C120.6,181.5 122.4,179.5 124,177.4 C125.7,175.3 128,174.5 130.6,173.8 C134.5,172.7 138.6,172.8 142.5,172.4 C143.6,172.3 144.7,172.4 145.9,172.3 C146.9,172.3 147.9,172.3 148.9,172.3 C152.9,172.3 155.8,170.6 158.2,167.3 C161.3,163.1 164.7,159.1 168,155.1 C168.5,154.5 169.1,154 169.7,153.6 C174.9,150.1 180.1,146.9 186.1,145 C189.3,144 192.5,143.8 195.8,144 C196.8,144.1 198.1,144.1 198.4,145.5 C198.8,147.2 198,148.9 196.7,149.6 C195.9,150 195.2,150.5 194.4,150.8 C191.8,152 189,153.2 186.3,154.3 Z" id="Shape" fill="#FFFFFF"></path>
                    <path d="M38.9,155.3 C39.2,153.4 40.2,152.1 41.5,151.1 C43.8,149.4 45.4,147.4 46.9,145 C48,143.3 49.9,142.1 51.6,140.8 C52.8,139.9 54.2,139.3 55.6,138.5 C56.4,140.1 57.6,139.8 58.7,139.5 C60.5,139 62.2,138.2 64,137.8 C65.4,137.5 66.9,137.5 68.2,137.9 C69.9,138.4 71.5,139 73.3,139 C75.5,139 76.9,140.4 78.4,141.8 C79.2,142.6 80.1,143.3 81.1,143.6 C82.4,144 83.2,144.7 83.7,145.8 C84.4,147.2 85,148.5 85.7,149.9 C86.4,151.3 87.5,152.2 89,152.7 C90.9,153.4 91.4,154.4 91,156.4 C90.8,157.1 90.9,157.8 90.8,158.8 C88,159.6 84.8,160.4 81.8,161.3 C80.6,158.7 79.4,156 78,153.5 C77.3,152.3 76.3,151.3 75.3,150.2 C75,149.9 74.5,149.6 74.2,149.6 C73.6,149.6 72.9,149.8 72.6,150.2 C72.4,150.5 72.7,151.4 73.1,151.7 C76.4,154 77.3,157.7 78.8,161.1 C78.9,161.2 78.9,161.5 78.9,161.6 C78.2,162.5 77.7,163.5 76.8,164.1 C74.1,165.8 71.2,167.3 68.4,168.9 C67.9,169.2 67.4,169.4 66.8,169.4 C65.6,169.6 64.5,169.6 63.6,168.3 C62.2,166.4 60.6,164.6 59,162.8 C57.8,161.5 57.9,158.9 59.1,157.6 C59.7,157 60.3,156.3 60.8,155.6 C61.1,155.2 61.4,154.6 61.3,154.2 C61.2,153.7 60.7,153 60.3,152.8 C60,152.7 59.3,153.2 59,153.6 C58.5,154.2 58.2,155 57.7,155.5 C56.5,156.7 55.6,158 55.7,160 C55.2,159.9 54.9,159.7 54.5,159.6 C53.8,159.4 53,159 52.4,159.2 C50.8,159.6 50.2,158.8 49.4,157.6 C47.7,155 46.5,154.8 43.6,155.9 C43.2,156.1 42.6,156 42.2,155.9 C41.1,155.7 40.1,155.5 38.9,155.3 Z" id="Shape" fill="#FFFFFF"></path>
                    <path d="M44.3,168.5 C44.5,165.2 45.9,163.4 49.2,162.5 C49.6,162.4 50.1,162.3 50.5,162.1 C53,161 55,162 56.8,163.7 C60.7,167.3 63.3,171.7 66.1,176.1 C67.1,177.7 68.2,179.1 69.2,180.7 C70.8,183.3 72.2,185.9 73.7,188.5 C74.3,189.5 74.1,190.3 73,190.8 C71.5,191.6 70,192.5 68.5,193.5 C67.6,194.1 66.8,194.9 65.9,195.4 C64.5,196.2 63.1,196.9 61.7,197.6 C61.4,197.7 60.7,197.2 60.5,196.9 C59.1,194.9 57.8,192.9 56.5,190.8 C55.4,189 54.4,187.2 53.3,185.5 C51.8,183.4 50.2,181.3 48.8,179.2 C46.9,176.5 45.5,173.6 44.8,170.3 C44.3,169.7 44.3,169.1 44.3,168.5 Z" id="Shape" fill="#FFFFFF"></path>
                    <path d="M133.7,165.9 C133.7,166 133.7,166.1 133.6,166.3 C133.1,169.4 131.8,171.5 128.1,172 C124.6,172.5 122.3,175.3 120.2,178.1 C118.1,180.9 116,183.7 115.7,187.7 C114.9,187.2 114.3,186.8 113.6,186.5 C113.1,186.3 112.3,186.1 112,186.3 C111,186.9 110.1,186.7 109.3,186.3 C106.5,184.8 103.7,183.2 100.9,181.7 C99.4,180.9 99.6,179.5 99.7,178.2 C99.9,176.6 100.2,175.1 100.7,173.6 C101.9,169.9 103.2,166.2 104.6,162.5 C105,161.3 105.6,160.1 106.2,158.7 C108.5,161.7 111.9,162.5 115.1,163.3 C120.2,164.6 125.4,166 130.7,166.1 C131.7,166.1 132.7,166 133.7,165.9 Z" id="Shape" fill="#FFFFFF"></path>
                    <path d="M66.3,172 C70.7,171.1 74.1,168.6 77.7,166.4 C80.6,164.7 83.5,163.3 86.8,162.4 C89.5,161.7 92.1,160.6 94.7,159.8 C95.3,159.6 96.2,159.6 96.7,160 C98.1,161 99.4,162.3 100.7,163.4 C101.5,164.1 101.2,164.8 100.9,165.6 C100,167.9 98.9,170.2 98.4,172.6 C97.9,174.8 97.1,175.9 94.7,176.3 C92.2,176.7 89.9,178 87.6,179 C83.9,180.7 80.1,182.1 76,182.7 C73.7,183.1 73.7,183.2 72.4,181.2 C70.7,178.6 69,176.1 67.2,173.6 C66.9,173.1 66.7,172.6 66.3,172 Z" id="Shape" fill="#FFFFFF"></path>
                    <path d="M40.3,158.1 C38.4,160 38.4,160.7 39.9,162.7 C40.5,163.5 41.2,164.2 41.8,165 C42,165.2 42.1,165.7 42,166 C41.4,169.2 41.9,172.3 43.4,175.2 C44.2,176.8 45,178.5 45.8,180.2 C44.2,180.9 42.5,180.9 40.7,180.7 C38.9,180.5 37.2,180.1 35.6,179.2 C34.1,178.4 32.5,178.7 30.9,179.2 C28.7,179.8 26.5,180.6 24.3,181 C22.4,181.4 20.4,181.5 18.5,181.4 C16.6,181.3 16.2,180.6 16.6,178.7 C17.8,172.5 21.8,168.7 27.6,166.7 C29.6,166 29.8,164.9 28.3,163.5 C27.5,162.8 27.5,162 28,161.1 C29.1,159.2 32.7,156.8 35.8,157.7 C37.1,157.9 38.7,157.9 40.3,158.1 Z" id="Shape" fill="#FFFFFF"></path>
                    <path d="M151.8,144.1 C149.5,145.7 151.1,147.4 151.6,149 C151.9,149.9 151.9,150.6 151.7,151.5 C151.5,152.3 151.6,153.2 151.9,154 C153.1,157.6 154.4,161.1 155.7,164.6 C156.1,165.6 155.9,166.3 155.2,167.1 C154.2,168.3 153,169.2 151.4,169.4 C150.9,169.5 150.4,169.6 149.9,169.6 C145,169.8 140.2,169.9 135.2,170.1 C136.3,165.6 138.2,161.4 138.3,156.5 C139.1,156.6 140,156.7 140.9,156.7 C142.8,156.8 143.8,155.6 143.1,153.8 C142.7,152.8 142,151.8 141.5,150.9 C140.8,149.6 140.1,148.4 139.5,147.1 C139,146.1 139.3,145 140.2,144.5 C141.3,143.9 142.6,143.1 143.8,143.1 C146.4,143.1 149,143.6 151.6,143.8 C151.7,144 151.7,144 151.8,144.1 Z" id="Shape" fill="#FFFFFF"></path>
                    <path d="M83.2,126.2 C84.9,130.9 90.4,134.6 96.2,132.7 C97.9,132.1 99.8,132.2 101.6,131.9 C103.7,131.5 105.7,132 107.7,132.8 C108.5,133.1 109.3,133.4 110.1,133.6 C113.1,134.5 116.1,134.3 118.7,133.1 C119.1,133.8 119.6,134.4 119.7,135.1 C119.9,136.2 119.9,137.3 119.8,138.4 C119.7,139 119.3,139.6 119,140.2 C118.3,141.6 117.2,142.3 115.6,142.1 C114.4,142 113.1,141.9 111.9,141.8 C108.5,141.4 105.1,141 101.7,140.5 C101,140.4 100.4,140.2 99.7,140.1 C98,139.8 96.4,139.2 94.7,139.1 C91.4,139 88.1,138.9 85,140.7 C84,141.3 82.9,141.5 82,140.4 C81.9,140.3 81.8,140.2 81.7,140.2 C79.5,139.4 79.5,137.6 79.6,135.8 C79.8,132.2 81,129.1 83.2,126.2 Z" id="Shape" fill="#FFFFFF"></path>
                    <path d="M85.5,143.4 C88.4,141.3 91.6,141.5 94.8,141.6 C96.2,141.6 97.7,142.2 99.1,142.4 C101.3,142.8 103.5,143.1 105.7,143.4 C106.4,143.5 107.2,143.5 108.1,143.6 C107.9,144 107.7,144.2 107.6,144.4 C106.9,145.6 107.1,146.7 108.4,147.3 C109,147.6 109.7,147.8 110.3,148.1 C111.2,148.5 111.5,149.2 111.5,150.2 C111.5,150.9 111.2,151.3 110.5,151.4 C108.7,151.7 107.2,152.5 106,153.9 C105.5,154.5 105.1,155.2 104.7,156 C103.9,157.7 103.2,159.5 102.4,161.2 C99.6,159.5 97.9,155.7 93.6,157.5 C93.7,157 93.7,156.5 93.8,156.1 C94.2,153.2 93,151.4 90.3,150.3 C89.4,149.9 88.7,149.1 88.1,148.3 C87.5,147.6 87.3,146.7 86.9,145.8 C86.3,145.1 85.9,144.3 85.5,143.4 Z" id="Shape" fill="#FFFFFF"></path>
                    <path d="M86.2,187.4 C85.5,187.2 84.8,187.1 84.3,186.8 C83.9,186.5 83.2,185.7 83.3,185.5 C83.9,184.5 83.7,183.2 85.2,182.6 C88.4,181.5 91.6,180 94.7,178.8 C95.4,178.5 96.2,178.5 97,178.3 C97.1,178.6 97.2,178.7 97.2,178.9 C97,181.6 98.4,183.3 100.8,184.4 C103.1,185.6 105.4,186.9 107.6,188.2 C109,189 110.6,189.1 112.2,189.2 C113.3,189.2 114.4,189.7 115.4,190.2 C115.6,190.3 115.6,191.4 115.4,191.7 C114.9,192.2 114.2,192.7 113.6,192.9 C112.5,193.2 111.7,193.7 111.3,194.8 C111.1,195.2 110.9,195.5 110.7,195.8 C109.8,197 109.1,197.1 107.9,196.1 C106,194.6 106,194.6 104,196.2 C102.8,197.2 102,197.2 100.9,196.1 C100.1,195.3 99.3,194.4 98.9,193.5 C97.3,190.3 95.3,190 92.3,191.2 C91.3,189.8 90.3,188.3 89.2,186.8 C87.8,185.1 86.9,185.3 86.2,187.4 Z" id="Shape" fill="#FFFFFF"></path>
                    <path d="M144.6,140.5 C142.6,140.5 140.8,141 139.2,142.1 C136.7,143.9 136,145.8 137.3,148.6 C137.9,150 138.8,151.3 139.5,152.7 C139.8,153.2 140,153.6 140.4,154.1 C136.3,154.3 132.5,153.9 128.8,152.4 C128,152.1 128.1,151.6 128.2,151.1 C128.9,146.9 129.5,142.7 130.4,138.5 C130.7,136.9 131.3,135.4 131.9,133.8 C132.5,132.2 133.7,131.4 135.4,131.2 C137.9,131 140.4,130.9 142.9,130.8 C143.3,130.8 143.9,131.5 144.2,132 C145.1,134 145.4,136 145.1,138.2 C144.8,139 144.7,139.7 144.6,140.5 Z" id="Shape" fill="#FFFFFF"></path>
                    <path d="M134.8,77 C132.9,77.3 130.9,77.7 129,78 C127.3,78.3 125.5,78.6 123.8,78.7 C121.3,78.9 118.7,78.9 116.2,79 C115.2,79 114.2,79.2 113.2,79.2 C112.1,79.2 111,79.1 109.9,79.1 C107.8,79.1 105.7,79.1 103.6,79 C101.5,78.9 99.5,78.9 97.4,78.7 C97.1,78.7 96.7,78.1 96.7,77.7 C96.6,77.2 96.6,76.5 96.9,76.3 C98.2,75.4 99.5,74.5 100.9,73.9 C105.8,71.8 110.9,71.2 116.1,71.6 C118.3,71.8 120.4,72.6 122.6,73.2 C126.5,74.3 130.4,75.5 134.3,76.7 C134.4,76.7 134.6,76.8 134.7,76.9 C134.8,76.8 134.8,76.9 134.8,77 Z" id="Shape" fill="#FFFFFF"></path>
                    <path d="M130.6,163.8 C127.2,163.2 123.8,162.7 120.5,161.9 C117.4,161.2 114.3,160.2 111.2,159.2 C110.4,158.9 109.6,158.3 108.9,157.7 C107.6,156.5 107.8,155.1 109.4,154.4 C110.2,154.1 111,153.8 111.8,153.8 C114.1,153.8 116.4,153.8 118.7,153.9 C121,154 123.3,154.1 125.6,154.4 C127.2,154.6 128.8,155.2 130.5,155.6 C131.1,155.8 131.6,156 132.2,156.1 C133,156.3 133.8,156.2 133.9,157.4 C133.9,157.6 134.1,157.8 134.3,157.8 C135.6,158.2 135.3,159.2 135.1,160 C134.7,162.5 133.2,163.6 130.6,163.8 Z" id="Shape" fill="#FFFFFF"></path>
                    <path d="M86.7,119.7 C85.7,118.3 84.7,117.2 83.1,116.8 C81,116.3 79.5,117 79.3,119.2 C79.1,121.6 79.2,124.1 79.2,126.6 C79.2,127.1 79.3,127.6 79.1,128 C77.7,130.7 77.2,133.6 77.1,136.6 C77.1,136.8 77,137 77,137.2 C75.7,136.9 74.5,136.7 73,136.4 C73.5,133.6 74.1,130.9 74.6,128.1 C75,125.6 75.4,123.1 75.7,120.6 C76,118 74.7,116.1 72.8,114.6 C72.2,114.1 72.1,113.7 72.3,113 C73,110 76.2,109.1 78.3,109.8 C78.7,109.9 79.1,110 79.5,110 C81.5,109.9 83,110.8 84.3,112.3 C85.3,113.4 86.3,114.5 87.2,115.6 C87.9,116.5 88.5,117.6 89.2,118.7 C88.4,119 87.6,119.3 86.7,119.7 Z" id="Shape" fill="#FFFFFF"></path>
                    <path d="M198.1,169.6 C196.2,169.3 194.6,169.1 193,168.8 C189.7,168.1 186.5,167 183.1,167.1 C181,167.2 179.5,165.8 178.2,164.4 C177.5,163.6 177.8,162.8 178.5,162.2 C179.3,161.5 180.2,161 181.1,160.5 C182.8,159.5 184.5,158.5 186.3,157.5 C187.6,156.7 189,156.1 190.3,155.3 C191,154.9 191.3,155.2 191.6,155.7 C192,156.3 192.4,156.9 192.7,157.6 C194.5,161.6 196.2,165.5 198.1,169.6 Z" id="Shape" fill="#FFFFFF"></path>
                    <path d="M125.2,151.7 C121.7,151.5 117.9,151.2 114,151 C114,150.6 114,150.2 114,149.8 C114,147.9 113,146.5 111.3,145.8 C110.5,145.5 110.3,145 110.6,144.2 C112.1,144.3 113.6,144.5 115.1,144.6 C118.5,144.8 120.3,143.6 121.8,140.5 C122.7,138.7 122.7,136.8 122.5,134.9 C122.4,133.7 122.8,133.3 123.9,133.7 C125.2,134.2 126.5,134.8 127.8,135.5 C128.1,135.6 128.2,136.2 128.2,136.6 C127.2,141.5 126.2,146.5 125.2,151.7 Z" id="Shape" fill="#FFFFFF"></path>
                    <path d="M26.8,182.8 C29,182.3 31,181.7 33.1,181.3 C34.6,181 35.8,181.7 37,183 C34.1,183.2 33,185.2 32,187.2 C29.9,191.4 31.8,195.2 36.5,196.1 C32.9,195.9 29.3,195.6 25.7,195.5 C23.7,195.5 21.7,195.7 19.6,195.8 C17.7,196 15.9,196.3 14,196.4 C11.7,196.6 9.4,196.7 7,196.8 C8.7,196.4 9.2,194.9 10,193.6 C10.7,192.3 11.7,191.2 12.5,189.9 C13.7,188.2 14.9,186.6 16,184.9 C16.6,184 17.4,183.5 18.5,183.8 C19.2,184 19.8,183.9 20.8,184 C19.4,185.2 18.2,186.4 16.8,187.3 C15.5,188.2 14.4,189.8 14.5,191.3 C14.6,192.8 15.6,194 17.3,194.5 C17.9,194.7 18.6,194.9 19.2,194.8 C21.3,194.3 23.6,194 25.5,193.1 C29,191.4 29.7,186.1 26.8,182.8 Z" id="Shape" fill="#FFFFFF"></path>
                    <path d="M211.7,193.8 C207.8,196.8 203.7,199.4 200.9,202.9 C197.3,201.6 193.8,200.2 190.1,198.9 C190.5,196.8 191.1,194.8 193.6,193.8 C196.8,192.5 200,191.8 203.5,192.7 C206,193.4 208.8,193.4 211.7,193.8 Z" id="Shape" fill="#FFFFFF"></path>
                    <path d="M87.5,31.6 C87.3,30.7 87.2,29.9 87.1,29.1 C87.1,28.9 87.3,28.5 87.5,28.3 C89.2,27.2 90.9,26 92.6,25 C94.8,23.8 97.1,22.4 99.4,21.6 C104,19.9 108.7,18.7 113.7,19.5 C116.9,20 118.3,22.2 119.8,24.8 C118.8,24.5 117.9,24.1 117.1,23.9 C111.2,22.4 105.5,23.5 100,25.7 C96.2,27.2 92.5,29 88.7,30.7 C88.4,30.9 88,31.2 87.5,31.6 Z" id="Shape" fill="#FFFFFF"></path>
                    <path d="M215.8,208.8 C214,205.1 214.2,201.5 215.2,197.8 C215.5,196.8 215.7,195.8 216.1,194.8 C216.3,194.1 216.8,193.9 217.5,194.3 C218.8,195.1 220.2,195.8 221.5,196.6 C224.1,198.2 225.1,202.3 223.4,204.8 C223,205.4 222.4,205.8 221.8,206.2 C220.1,207.5 218.1,208.5 215.8,208.8 Z" id="Shape" fill="#FFFFFF"></path>
                    <path d="M105.4,129.1 C104,129.4 103.3,129 103.1,127.8 C102.4,123.9 101.8,120 100.8,116.2 C98.3,106 95.7,95.9 93.2,85.8 C92.8,84.3 92.6,82.8 92.4,81.2 C92.3,80 92.7,79 94.1,78.4 C96.6,86.7 97.4,95.4 99.5,103.8 C101.8,112.1 103.8,120.6 105.4,129.1 Z" id="Shape" fill="#FFFFFF"></path>
                    <path d="M220.8,166.5 C221.3,168.6 221.1,170.6 219.9,172.4 C219.2,173.4 218.5,174.5 217.6,175.3 C214.6,178.2 211.5,181.1 208.5,183.9 C208.3,184.1 207.7,184.3 207.4,184.2 C206.1,183.6 204.7,183.1 203.5,182.3 C202.4,181.5 202.5,180.6 203.5,179.7 C204.7,178.6 206,177.6 207.4,176.7 C208,176.3 208.8,176.2 209.6,176.1 C211.4,175.9 213.1,175.4 214.2,173.7 C214.5,173.2 215.1,172.9 215.6,172.6 C216.9,171.9 217.9,170.9 218.2,169.5 C218.5,168 219,166.8 220.8,166.5 Z" id="Shape" fill="#FFFFFF"></path>
                    <path d="M97.9,129.6 C96.9,129.9 96.1,130.1 95.2,130.3 C91.7,131.2 88.6,130.1 86.5,127.1 C85.3,125.4 85.5,123.9 87.1,122.6 C88.4,121.5 90,120.9 91.8,121.1 C94.1,121.4 96.4,121.9 98.7,122.4 C99,122.5 99.4,122.9 99.4,123.3 C99.5,123.6 99.2,124.1 99,124.2 C96.7,125.5 96.3,126.8 97.6,129.1 C97.7,129.2 97.8,129.3 97.9,129.6 Z" id="Shape" fill="#FFFFFF"></path>
                    <path d="M209.2,171.6 C207.5,171.4 205.8,171 204.1,170.9 C202,170.8 200.7,169.8 200,167.8 C199.4,165.9 198.4,164.1 197.5,162 C199.9,161.1 202.2,160.1 204.6,159.2 C204.8,159.1 205.4,159.3 205.5,159.5 C206.8,163.4 208.1,167.3 209.4,171.1 C209.4,171.2 209.3,171.3 209.2,171.6 Z" id="Shape" fill="#FFFFFF"></path>
                    <path d="M38,193.2 C34.1,193.3 32.7,191.1 34.3,188 C35,186.6 35.8,185.3 37.8,185.4 C38.1,185.4 38.6,185.1 38.8,184.9 C40.4,183.5 41.5,183.4 43.3,184.5 C45.8,186.1 46.4,189.2 44.5,191.5 C44,192.1 43.2,192.5 42.5,192.7 C40.9,193 39.2,193.1 38,193.2 Z" id="Shape" fill="#FFFFFF"></path>
                    <path d="M65.2,134.7 C67.1,128.7 69,122.7 71,116.4 C72.5,117.6 73.3,118.6 73.2,120.1 C72.9,122.6 72.5,125.1 72.1,127.6 C71.6,130.4 71.1,133.1 70.6,135.8 C68.9,135.4 67.2,135.1 65.2,134.7 Z" id="Shape" fill="#FFFFFF"></path>
                    <path d="M168,169.9 C166.6,170 166.3,169.2 166.3,168.3 C166.3,166.6 167.3,165.4 168.5,164.3 C169,163.9 169.6,163.6 170.1,163.2 C171.7,161.9 173.3,160.7 174.7,159.2 C176.3,157.5 177.8,155.6 180.1,154.7 C180.9,154.4 181.8,154.1 182.6,153.9 C183.4,153.7 183.7,154.1 183.6,154.9 C183.4,156.2 182.7,157.1 181.5,157.7 C180,158.4 178.6,159.2 177.3,160.1 C176,161 175.4,162.4 175.5,163.9 C175.5,164.1 175.5,164.4 175.4,164.6 C173.5,166.9 171.7,169.2 168.5,169.7 C168.1,169.9 168,169.9 168,169.9 Z" id="Shape" fill="#FFFFFF"></path>
                    <path d="M90.2,71.5 C87.9,57.6 85.6,43.9 83.3,30.2 C83.9,30.1 84.2,30 84.7,30 C85,31.6 85.2,33.1 85.5,34.6 C86.8,41.3 88.1,47.9 89.3,54.6 C90.2,59.5 90.8,64.4 91.6,69.3 C91.7,70.3 91.3,70.9 90.2,71.5 Z" id="Shape" fill="#FFFFFF"></path>
                    <path d="M107.4,125.8 C110.5,126 113.4,126.1 116.3,126.3 C116.6,126.3 116.9,126.4 117.2,126.5 C118.1,126.8 119.1,127.1 119.2,128.3 C119.3,129.6 118.5,130.4 117.5,130.7 C116.3,131.1 115.1,131.5 113.9,131.4 C112.1,131.2 110.4,130.7 108.7,130.2 C108.4,130.1 108.1,129.6 108.1,129.3 C107.8,128.3 107.6,127.2 107.4,125.8 Z" id="Shape" fill="#FFFFFF"></path>
                    <path d="M45.6,183 C47.9,182.1 47.3,181.8 48.8,183.6 C49.6,184.5 50.2,185.5 50.9,186.5 C51.5,187.4 51.9,188.5 52.5,189.4 C53.1,190.4 53.7,191.3 54.5,192.3 C49.9,194 45.5,195.6 40.6,195.5 C44,195.5 46.5,194.3 47.9,191.1 C49.1,188 47.7,185.4 45.6,183 Z" id="Shape" fill="#FFFFFF"></path>
                    <path d="M168.1,145 C168.7,148 168.9,147.9 166.2,149.3 C163,151 159.6,151.4 156.1,150.7 C155.2,150.5 154.6,150.1 154.4,149.2 C154.3,148.6 153.9,148 153.6,147.3 C158.8,148 163.6,147.3 168.1,145 Z" id="Shape" fill="#FFFFFF"></path>
                    <path d="M19.4,192.5 C18.7,192.3 18.2,192.3 17.7,192 C16.9,191.6 16.9,190.6 17.7,190.1 C18.5,189.6 19.1,189 19.8,188.4 C20.9,187.5 21.9,186.4 23,185.6 C23.6,185.2 24.7,185 25.3,185.3 C25.8,185.5 26.1,186.6 26.1,187.4 C26.1,189.6 25,190.8 22.9,191.5 C21.8,191.8 20.5,192.1 19.4,192.5 Z" id="Shape" fill="#FFFFFF"></path>
                    <path d="M153.2,139.3 C154.4,137.7 155.9,136.6 157.7,136.2 C160.4,135.6 163.1,135.2 165.8,136.2 C166.1,136.3 166.4,136.5 166.7,136.7 C166.5,137 166.4,137.5 166.1,137.6 C164.4,138.3 162.9,139.5 160.8,139.4 C158.6,139.3 156.4,139.5 154.3,139.5 C154,139.5 153.7,139.4 153.2,139.3 Z" id="Shape" fill="#FFFFFF"></path>
                    <path d="M153.7,142.1 C158.3,142.2 162.8,142.4 166.9,140 C167.7,141.9 167.8,142.2 166.1,143.1 C162.6,144.9 158.9,145.5 155.1,144.9 C154.8,144.9 154.4,144.4 154.2,144 C154,143.4 153.9,142.7 153.7,142.1 Z" id="Shape" fill="#FFFFFF"></path>
                    <path d="M81.7,23.1 C81.1,20.7 80.3,18.3 79.9,15.9 C79.8,15.5 80.7,14.6 81.3,14.3 C82.2,13.9 83.2,14.1 83.5,15.1 C83.9,16.9 84.1,18.7 84.4,20.5 C84.4,20.6 84.3,20.8 84.2,20.9 C83.4,21.6 82.6,22.4 81.7,23.1 Z" id="Shape" fill="#FFFFFF"></path>
                    <path d="M211.4,208.2 C208.1,207.7 205.5,206 202.5,204.7 C203.7,203.6 204.7,202.6 205.8,201.6 C207.9,203.5 210.1,205.4 211.4,208.2 Z" id="Shape" fill="#FFFFFF"></path>
                    <path d="M212.9,196 C212.5,198.7 212.1,201.2 211.7,203.5 C210.6,202.4 209.2,201.1 207.8,199.8 C209.5,198.6 211.2,197.3 212.9,196 Z" id="Shape" fill="#FFFFFF"></path>
                    <path d="M41.5,160.6 C42.5,159.7 43.3,158.9 44.3,158.3 C45.8,157.4 46.3,157.5 47.3,159 C47.5,159.3 47.7,159.7 47.8,159.8 C46.3,160.9 44.9,161.9 43.3,163 C42.8,162.3 42.2,161.5 41.5,160.6 Z" id="Shape" fill="#FFFFFF"></path>
                    <path d="M88.3,192.6 C86.4,193.9 86.2,193.9 85.1,192 C84.8,191.5 84.4,191 84.1,190.5 C85.6,189.3 86,189.4 87,190.9 C87.4,191.5 87.8,192 88.3,192.6 Z" id="Shape" fill="#FFFFFF"></path>
                    <path d="M82.2,119 C83.1,119.7 84,120.3 84.9,121 C83.7,122 82.6,122.9 81.4,124 C81.5,122.3 81.6,120.8 81.8,119.3 C81.9,119.2 82.1,119.1 82.2,119 Z" id="Shape" fill="#FFFFFF"></path>
                    <path d="M75.4,106.9 C75.5,106 76,105.6 76.8,105.7 C78.2,105.8 79.5,106 80.9,106.1 C81.1,107.5 80.4,107.5 79.6,107.4 C78.2,107.3 76.8,107.1 75.4,106.9 Z" id="Shape" fill="#FFFFFF"></path>
                    <path d="M55.5,135.4 C54.7,134.8 53.9,134.1 53,133.4 C54.1,132.7 55.9,132.6 56.1,133.2 C56.3,133.8 56,134.6 55.9,135.3 C55.8,135.3 55.6,135.4 55.5,135.4 Z" id="Shape" fill="#FFFFFF"></path>
                    <path d="M138.9,128.4 C137.8,128.4 136.9,128.4 136,128.4 C135.8,126.7 137,127.2 137.8,127 C139,126.8 138.7,127.7 138.9,128.4 Z" id="Shape" fill="#FFFFFF"></path>
                    <path d="M230.1,189.9 C233.7,192.1 237.5,191.7 241.4,191.6 C241,193.1 240.6,194.5 240.2,195.9 C239.7,197.4 239.2,198.9 238.8,200.5 C238.3,202.3 238.1,202.6 236.3,202.5 C234.6,202.4 232.8,202.1 231.1,201.8 C230.7,201.7 230.2,201.2 230.2,200.8 C230.1,197.2 230.1,193.7 230.1,189.9 Z" id="Shape" fill="#FFFFFF"></path>
                    <path d="M241.8,188.7 C238.7,190 232.5,189.2 231.5,187.3 C233.6,185.7 240.1,186.5 241.8,188.7 Z" id="Shape" fill="#FFFFFF"></path>
                </g>
            </g>
        </g>
    </g>
</svg>