<?xml version="1.0" encoding="UTF-8"?>
<svg width="287px" height="200px" viewBox="0 0 287 200" version="1.1" xmlns="http://www.w3.org/2000/svg" xmlns:xlink="http://www.w3.org/1999/xlink">
    <!-- Generator: Sketch 46.2 (44496) - http://www.bohemiancoding.com/sketch -->
    <title>Business - Calculate Investments</title>
    <desc>Created with Sketch.</desc>
    <defs></defs>
    <g id="Page-1" stroke="none" stroke-width="1" fill="none" fill-rule="evenodd">
        <g id="Business---Calculate-Investments" transform="translate(0.000000, -1.000000)" fill-rule="nonzero">
            <g id="Calque_2" transform="translate(0.000000, 64.000000)" fill="#B7D6E2">
                <path d="M232.5,52.4 C192.3,11.7 131.2,-1.4 74,0.8 C58.2,1.4 41.9,3.1 27.8,10.2 C13.7,17.3 1.7,30.8 0.5,46.6 C-1.2,67.5 15.1,85.2 31,98.9 C39.7,106.4 48.7,113.7 59,118.8 C74.1,126.2 91.6,128.4 108,125 C117.2,123.1 126,119.5 134.7,115.9 C169.5,101.7 204.3,87.4 237.4,69.5" id="Shape"></path>
            </g>
            <g id="Calque_1" transform="translate(2.000000, 0.000000)">
                <g id="Group">
                    <path d="M190.6,61.2 C190.6,59.2 190.6,57.5 190.6,55.7 C190.6,54.1 190.6,52.6 190.6,51 C190.6,46.8 190.6,42.6 190.5,38.4 C190.5,38.2 190.5,37.9 190.4,37.7 C189.8,35.4 190.6,33.6 192.4,32.2 C193,31.8 193.6,31.3 194.2,31 C197.2,29.6 200.2,28.4 203.5,27.9 C206.7,27.5 209.9,27.4 212.9,28.5 C214,28.9 215.1,29.5 216.2,30.2 C217.1,30.8 217.6,31.7 217.6,32.8 C217.7,38.9 217.9,45 217.9,51.1 C217.9,54.9 217.7,58.6 217.6,62.4 C217.5,64.7 217.7,67 217.5,69.4 C216.9,77 216.3,84.5 215.1,92.1 C214.3,97.4 213.5,102.8 213.6,108.2 C213.6,110.9 213.4,113.6 213.2,116.4 C213.2,116.9 213.2,117.3 213.2,117.9 C214.9,117.3 216.3,116.4 217.6,115.4 C222.9,111.5 228.2,107.6 233.5,103.8 C237.4,101 241.3,98.2 245.2,95.5 C246.4,94.7 247.9,94.1 249.3,93.6 C250.6,93.2 251.7,93.7 252.4,94.8 C252.9,95.6 253.4,96.3 253.8,97.1 C255,99.2 256.1,101.5 257.5,103.5 C260.2,107.4 262.2,111.6 263.9,116 C264.5,117.7 265.2,119.3 265.7,121.1 C266.3,123 265.9,123.7 264.1,124.5 C263.2,124.9 262.4,125.4 261.6,125.9 C261.5,126 261.4,126.1 261.2,126.2 C261.6,126.4 261.8,126.5 262.1,126.6 C263.8,127.2 264.6,128.4 264.9,130 C265.1,131.1 265.2,132.2 265.3,133.3 C265.5,135.2 265,136.1 263.4,137 C261.7,138 259.7,138.4 257.8,138.6 C256.4,138.8 254.9,138.9 253.4,139 C251.5,142.2 248.2,144.5 246.3,148.1 C246.8,148 247.1,148 247.5,147.8 C250.1,146.8 252.8,145.6 255.4,144.7 C259.6,143.2 263.8,141.7 268,140.3 C270,139.6 272.1,139.2 274.1,138.6 C275.2,138.3 276.1,138.6 276.6,139.5 C277.3,140.6 278,141.8 278.3,143 C279.4,146.7 280.7,150.3 282.5,153.8 C283.3,155.4 283.9,157.2 284.5,158.9 C284.7,159.4 284.8,160 284.8,160.5 C284.9,161.7 284.3,162.6 283.2,163 C279.7,164.5 276.2,165.9 272.5,166.9 C271.4,167.2 270.4,167.7 269.3,168 C267.6,168.4 266,168.9 264.3,169.1 C260.8,169.6 257.3,170 253.8,170.5 C253.3,170.6 252.7,170.7 252.2,170.9 C249.6,172 246.9,172.6 244,172.7 C241.6,172.8 239.4,173.5 237.2,174.2 C235.5,174.8 234,175.6 232.3,176.2 C231.1,176.6 229.8,176.9 228.5,177.1 C227.2,177.3 226.3,176.5 225.8,175.3 C225.2,173.7 224.6,172.2 224.2,170.5 C223.6,167.7 222.5,165.2 221.4,162.6 C220.9,161.4 220.5,160.1 220,158.7 C219.6,158.6 218.9,158.4 218.3,158.3 C216.4,157.8 214.6,157.1 212.6,157 C211.4,156.9 210.2,156 208.8,156.1 C208,156.1 207.1,156.2 206.3,156.1 C205.1,155.9 204,155.9 202.8,156 C201.3,156.2 199.7,155.8 198.2,155.5 C197,155.2 196.5,154 196.6,152.6 C196.7,152 196.8,151.4 197,150.7 C195.6,150 193.6,150.5 192.9,148.4 C190.7,150.8 188,152.3 186.1,154.7 C186.2,154.8 186.3,155 186.3,155 C189.5,156.6 192.8,158.2 196.1,159.6 C198.1,160.5 199.9,161.5 201.3,163.1 C202.5,164.4 203.5,165.8 204.2,167.6 C205.6,167.8 207,168 208.5,168.2 C209.7,168.4 210.9,168.5 212.1,168.7 C213.4,168.9 214.2,169.7 214.5,171.1 C214.7,172.2 215.1,173.3 215.3,174.5 C215.4,174.8 215.4,175.2 215.5,175.6 C215.7,178.2 215.1,178.9 212.6,179.7 C210.4,180.3 208.2,180.9 205.9,181 C205.8,181 205.7,181 205.5,181 C202.3,181 199,181.1 195.8,181.1 C194.6,181.1 193.4,181 192.2,181 C191.7,181 191.2,181.1 190.9,181.4 C189.3,182.6 187.7,183.8 186.1,185 C184.7,186 183.3,187.1 181.7,187.9 C176.1,191.1 170.4,193.8 165,197.4 C163.9,198.1 162.9,198.8 161.8,199.5 C160.2,200.7 159.3,200.7 157.8,199.4 C154.8,196.8 151.8,194.1 148.8,191.5 C148.1,190.9 147.5,190.4 146.5,190.3 C145.5,190.2 145.5,189.4 145.5,188.5 C141.1,189.7 136.6,190.6 132.5,192.4 C130.8,193.1 129,193.5 127.2,193.9 C125.6,194.2 124.8,193.7 124.2,192.2 C123.6,190.6 123.1,189 122.6,187.4 C121.4,184.1 120.1,180.8 118.9,177.5 C118.4,176.2 118.1,174.8 117.8,173.5 C117.4,171.2 118.2,169.4 120.1,168.1 C123.2,165.9 126.5,164 130.1,162.7 C133.5,161.5 136.8,160.2 140.2,159 C140.5,158.9 140.8,158.8 141.1,158.6 C140.8,156.2 140,154.2 138.2,152.6 C136.4,151 134.7,149.5 133.5,147.4 C132.6,145.7 132.9,144.5 134.8,143.9 C137,143.2 139.3,142.5 141.6,142 C145.3,141.1 148.9,139.9 152.4,138.3 C155.8,136.8 159.3,135.7 162.9,135.1 C163.6,135 164.4,134.8 165.1,134.6 C166.1,134.4 167.2,134.3 168.2,134.1 C168.1,133 168,131.7 168,130.5 C168,127.9 168,125.4 168,122.8 C167.9,119.1 168.7,115.5 169,111.8 C169.5,106 170.1,100.2 170.6,94.4 C170.9,91.6 171.3,88.8 171.4,85.9 C171.6,81.5 171.8,77.1 171.9,72.7 C171.9,71.2 171.6,69.7 171.3,68.2 C171,66.3 171.9,64.4 173.7,63.6 C174.5,63.2 175.4,62.9 176.3,62.8 C178.8,62.3 181.4,61.8 184,61.4 C185.5,61.2 187,61.4 188.5,61.4 C189.6,61.5 190.1,61.3 190.6,61.2 Z M263.4,122.1 C263.3,121.6 263.2,121.1 263.1,120.7 C262.6,119.5 262.1,118.3 261.7,117 C260.1,112.8 258.3,108.7 255.6,105.1 C254,103 252.7,100.7 251.6,98.3 C251.3,97.5 250.7,96.8 250.2,96 C248.7,96.3 247.5,96.9 246.3,97.8 C241.7,101.1 237,104.4 232.4,107.8 C228.3,110.7 224.3,113.8 220.2,116.7 C218.6,117.8 216.9,118.8 215.3,119.9 C214.6,120.3 214,120.7 213.2,121.2 C213.4,126.1 213.6,130.8 213.8,135.7 C221.7,133.8 229.3,132.2 237.2,132.4 C237.5,131.6 237.6,130.9 238,130.3 C238.2,129.8 238.7,129.4 239.1,129.2 C241.7,128 244.4,127.1 247.2,126.7 C248.8,126.5 250.5,126.3 252,125.9 C254,125.4 255.9,124.8 257.9,125.1 C259.7,124 261.5,123.1 263.4,122.1 Z M228.6,175 C229.7,174.8 230.7,174.6 231.6,174.3 C233.3,173.7 234.9,172.8 236.6,172.3 C238.8,171.6 241.1,171 243.5,170.7 C246.3,170.4 249,170 251.6,168.9 C252.1,168.7 252.7,168.5 253.2,168.4 C256.7,167.9 260.3,167.5 263.8,167 C265.5,166.7 267.2,166.3 268.9,165.8 C271,165.2 273.1,164.5 275.2,163.8 C277.6,162.9 280,162 282.5,161 C282.3,160.3 282.2,159.8 282,159.4 C281,157 279.9,154.7 278.9,152.3 C277.9,149.7 277,147.1 276.1,144.4 C275.7,143.4 275.4,142.3 274.6,141.4 C273.5,141.7 272.5,141.8 271.5,142.1 C264.3,144.4 257.2,146.8 250.2,149.8 C248.4,150.6 246.5,151.3 244.3,151.1 C242.9,152.7 241.5,154.3 240.2,156.1 C238.7,158.1 237,160.1 235.1,161.8 C234.4,162.4 233.6,162.8 232.7,162.7 C230.9,162.4 229,162.3 227.4,161.4 C226.2,160.7 224.7,160.7 223.3,160.4 C224.3,162.9 225.4,165.2 226.2,167.6 C227,169.9 227.3,172.5 228.6,175 Z M160.9,178.9 C158.8,178.6 156.9,178.4 155,178 C152,177.4 150.9,176.3 150.7,174.1 C150.5,172.3 150.3,170.5 150.1,168.6 C150,167.8 150.3,167.2 151,167.1 C151.9,167 152.5,166.5 153.1,166 C155.2,164.3 157.5,163 160.2,162.3 C161.9,161.9 163.5,161.4 165.2,161.1 C166.2,160.9 167.3,160.9 168.3,160.9 C169.6,161 170.8,160.6 172.2,160.4 C170.4,157.5 168.6,154.8 166.9,152.2 C166.7,152.2 166.6,152.2 166.5,152.3 C161.7,154.1 156.9,155.9 152.1,157.7 C145.1,160.2 138.1,162.7 131.1,165.2 C127.8,166.4 124.7,168.2 121.8,170.2 C120.6,171 120.1,172.1 120.4,173.5 C120.7,174.6 120.9,175.8 121.3,176.8 C122.9,181.4 124.6,185.9 126.2,190.4 C126.3,190.7 126.5,191 126.6,191.5 C128.2,191.2 129.8,190.8 131.4,190.2 C133,189.6 134.5,189 136.1,188.5 C138.5,187.8 140.9,187.2 143.3,186.5 C145.3,185.9 147.2,185.3 149.1,184.5 C151.6,183.4 154,182.2 156.4,181 C158,180.4 159.4,179.7 160.9,178.9 Z M199.4,153.4 C201,153.5 202.4,154.1 203.9,153.6 C204.5,153.4 205.2,153.6 205.9,153.7 C206.7,153.8 207.5,153.9 208.3,154 C209.4,154.1 210.6,153.9 211.6,154.2 C213.3,154.8 215,155 216.7,155.4 C220.2,156.3 223.6,157.8 227.1,158.5 C227.5,158.6 227.8,158.7 228.1,158.8 C229.4,159.6 230.8,159.7 232.2,160 C232.9,160.1 233.4,160 233.9,159.4 C235.4,157.7 236.9,156 238.3,154.3 C240,152.3 241.7,150.4 243.2,148.2 C245.1,145.3 247.1,142.5 249.5,140.1 C249.6,140 249.7,139.7 249.8,139.6 C247,139.1 244.3,138.6 241.5,138 C239.6,137.6 238,136.7 237.4,134.6 C237.4,134.5 237.3,134.5 237.3,134.5 C236.7,134.6 236.2,134.9 235.6,134.8 C233.5,134.6 231.5,135 229.5,135.1 C226.2,135.4 222.9,135.8 219.7,136.7 C218.8,137 217.9,137.2 217,137.3 C215.8,137.4 214.7,137.8 213.9,138.5 C213.6,141.2 213.3,143.7 213.1,146.3 C212.9,148.3 211.5,149.4 210,150 C208.6,150.6 207,150.5 205.4,150.6 C203.5,150.8 201.7,150.8 199.8,150.9 C199.8,151.9 199.6,152.6 199.4,153.4 Z M169.1,136.1 C168.7,136.3 168.4,136.6 168,136.7 C166.6,137 165.1,137.4 163.7,137.6 C160.4,138.1 157.2,139.1 154.2,140.4 C151.2,141.7 148.3,143 145.1,143.8 C142.7,144.4 140.2,145.1 137.8,145.8 C137.3,145.9 136.7,146.1 136,146.3 C136.4,146.9 136.6,147.3 137,147.7 C138,148.7 138.9,149.7 140,150.7 C141.8,152.4 143.3,154.3 143.6,156.8 C143.7,157.1 143.8,157.5 143.9,157.8 C144.1,157.8 144.3,157.7 144.4,157.7 C151.6,155.2 158.8,152.9 165.8,149.9 C166.8,149.5 167.1,149.6 167.8,150.5 C167.9,150.7 168.2,150.8 168.3,150.9 C168.8,151.3 169.3,151.6 169.6,152 C170.3,152.9 170.8,153.9 171.5,154.8 C172.3,156 173,157.1 173.8,158.4 C176.8,156 179.6,153.2 183.9,154.1 C185.8,150.9 189.3,149.3 191.7,146.4 C189.9,144.9 190,142.8 190,140.7 C189.1,140.9 188.3,140.9 187.6,141.1 C185.5,141.7 183.5,142.3 181.3,142.1 C180.4,142 179.6,142.3 178.7,142.3 C177.5,142.4 176.3,142.5 175.1,142.4 C173.1,142.2 171.9,140.5 170.7,139.1 C170.1,138.3 169.7,137.1 169.1,136.1 Z M175.5,160.5 C176,160.7 176.4,161 176.9,161.1 C178.4,161.7 180,162.2 181.5,162.9 C183.3,163.7 184.3,164.9 184.4,167 C184.5,169 183.8,170.7 183.3,172.5 C182.9,173.8 182,174.7 180.9,175.4 C180.2,175.8 179.4,176.1 178.6,176.3 C176.4,177 174.2,177.3 171.9,177.5 C170.2,177.6 168.5,178 167.2,178.2 C166,179 165.1,179.7 164.2,180.1 C159.6,182.4 155,184.6 150.4,186.9 C149.7,187.3 148.9,187.6 148.2,187.9 C152.4,191 156.3,194.4 160,197.9 C161.4,197 162.8,196.1 164.1,195.3 C169.4,191.8 175.1,188.9 180.7,186 C183.4,184.6 185.5,182.3 188.1,180.6 C187.7,180.2 187.3,179.9 187,179.6 C186.1,178.9 185.5,177.9 185.4,176.8 C185.3,175.8 185.3,174.7 185.3,173.7 C185.5,172 185.9,171.6 187.1,171.3 C191.6,168.2 196.3,167.3 201.2,167.2 C200.1,165.3 198.5,163.8 196.5,162.8 C194.1,161.7 191.7,160.5 189.2,159.4 C187.5,158.6 185.6,158.1 183.9,157.2 C182.5,156.4 181.3,156.5 180,157.1 C178.4,157.8 177,159.1 175.5,160.5 Z M153.3,169.2 C153.8,169.6 154.2,170 154.7,170.1 C156.2,170.7 157.8,171 159.4,171 C163.3,170.9 167.3,170.8 171.2,170.7 C174.5,170.6 177.7,169.7 180.5,167.9 C181.1,167.5 181.7,167.2 181.7,166.4 C181.4,165.7 180.8,165.4 180.2,165.1 C178.8,164.6 177.4,164.1 176.1,163.5 C174.5,162.7 172.8,163.2 171.2,163.3 C170.4,163.4 169.5,163.6 168.8,163.5 C167.4,163.3 166.1,163.5 164.8,163.8 C163.9,164.1 162.9,164.3 162,164.5 C158.7,165.2 156,166.8 153.3,169.2 Z M200.2,38.8 C200.2,38.8 200.2,38.7 200.2,38.8 C200.7,38.7 201.1,38.6 201.5,38.6 C204.1,38.4 206.6,37.8 209.1,37.1 C211.2,36.5 213,35.6 214.5,34 C215.3,33.1 215.2,32.7 214.2,32 C211.3,30.1 208.1,30.1 204.8,30.3 C202,30.5 199.3,31.5 196.7,32.6 C195.5,33.1 194.3,33.9 193.3,34.8 C192.3,35.7 192.7,37 193.9,37.6 C194.1,37.7 194.3,37.8 194.6,37.8 C196.5,38.2 198.3,38.5 200.2,38.8 Z M193.1,56.9 C194.4,57.4 195.7,57.9 196.9,58.5 C198.4,59.2 199.9,59.4 201.5,59.4 C202.5,59.4 203.6,59.3 204.6,59.5 C206.7,59.8 208.5,59.1 210.1,58.1 C211.7,57.2 213.2,56.1 214.6,55 C214.9,54.8 215.3,54.4 215.3,54 C215.4,52.7 215.3,51.5 215.3,50 C214.6,50.4 214.2,50.6 213.7,50.9 C209.9,53.1 205.9,54.2 201.4,53 C200.1,52.6 198.7,52.7 197.4,52.5 C196.2,52.3 195.1,52.1 193.9,51.9 C193.6,51.8 193.3,51.8 193,51.7 C193.1,53.4 193.1,55 193.1,56.9 Z M172.3,107.6 C172.1,109.4 172,110.9 171.9,112.3 C173.8,113.3 175.6,114.2 177.4,115.1 C177.6,115.2 177.9,115.2 178.1,115.3 C182.1,116.3 185.8,115.7 189.4,113.5 C189.6,111.3 189.8,109.1 190,106.6 C187.2,108.4 184.4,109.4 181.3,109.7 C178.2,110.1 175.3,109.2 172.3,107.6 Z M193.3,45.3 C193.3,45.9 193.3,46.5 193.3,47.1 C193.3,48.6 193.6,49 195,49.4 C195.4,49.5 195.8,49.6 196.2,49.6 C198.2,49.9 200.3,50 202.2,50.4 C203.9,50.8 205.6,50.9 207.3,50.6 C210.4,50.1 212.8,48.4 215.3,46.9 C215.3,45.3 215.3,43.8 215.3,42.2 C214.6,42.4 214,42.6 213.5,42.8 C212.9,43 212.3,43.4 211.6,43.6 C208.9,44.4 206.2,45.3 203.5,46 C202.1,46.4 200.7,46.5 199.2,46.2 C197.2,46 195.3,45.7 193.3,45.3 Z M193.6,91.5 C193.5,93.1 193.4,94.5 193.3,96 C195.1,97.1 197.1,97.6 199,97.7 C202.3,97.8 205.6,97.5 208.9,96.6 C209.2,96.5 209.5,96.4 209.7,96.2 C210.6,95.5 211.5,94.9 212.4,94.2 C212.6,92.8 212.8,91.4 213,89.7 C212.3,90 211.8,90.2 211.4,90.5 C209.5,92 207.4,92.7 205.1,93.1 C201.7,93.6 198.5,93.2 195.4,92 C194.8,91.7 194.2,91.7 193.6,91.5 Z M240.2,132.2 C241.2,133.1 242.5,133.2 243.9,133.2 C245.3,133.2 246.8,133.1 248.2,133.2 C252.4,133.4 256.4,132.7 260.4,131.5 C261.2,131.2 261.9,130.8 262.3,129.8 C262.1,129.6 261.8,129.2 261.5,129 C260.6,128.6 259.6,128.2 258.6,127.8 C257.3,127.3 256.1,127.1 254.8,127.6 C253.8,127.9 252.8,128.1 251.8,128.3 C250.1,128.6 248.3,128.7 246.6,129.1 C244.8,129.5 243.1,130.1 241.3,130.7 C240.7,131.1 240.2,131.4 240.2,132.2 Z M211.1,105.5 C210.7,105.8 210.3,106.1 209.9,106.2 C208.6,106.6 207.4,107.1 206,107.3 C204.4,107.5 202.7,107.4 201,107.5 C199.2,107.7 197.6,107.2 196.1,106.3 C195,105.7 193.9,105 192.6,104.2 C192.5,105.9 192.5,107.2 192.4,108.5 C193.5,109.1 194.6,109.5 195.5,110.1 C197.7,111.6 200.1,112 202.6,112.3 C204.6,112.5 206.3,111.7 208.1,111.2 C208.9,111 209.7,110.4 210.4,109.8 C210.7,109.6 210.9,109.1 210.9,108.7 C211.1,107.8 211.1,106.7 211.1,105.5 Z M211.7,97.9 C208.8,99.5 205.6,99.6 202.5,100 C199.3,100.4 196.3,100 193.1,98.8 C193,99.8 193,100.6 192.9,101.5 C194.3,102.3 195.7,103.1 197.1,104 C198.4,104.8 199.8,105.2 201.4,105 C202.7,104.8 203.9,104.7 205.2,104.8 C206,104.8 206.7,104.8 207.4,104.4 C208.7,103.8 210,103.2 211.2,102.6 C211.4,100.9 211.5,99.4 211.7,97.9 Z M173.3,97.2 C174,97.6 174.7,97.9 175.3,98.2 C179.5,100.1 183.9,100.2 188.2,98.7 C189.2,98.4 190.2,97.8 190.4,96.7 C190.7,95.5 190.7,94.2 190.8,92.8 C190,93.2 189.5,93.5 189,93.8 C188.3,94.1 187.5,94.5 186.8,94.6 C185.2,94.9 183.6,95 181.9,95.1 C179.5,95.2 177.4,94.3 175.3,93.1 C174.8,92.8 174.3,92.6 173.7,92.3 C173.6,94.1 173.5,95.6 173.3,97.2 Z M193.8,75.8 C194.8,76.3 195.8,76.7 196.7,77.1 C197.2,77.3 197.7,77.6 198.3,77.6 C200.2,77.7 202.2,77.8 204.1,77.8 C206.5,77.8 208.5,77.1 210.4,75.6 C211.7,74.6 213.2,73.8 214.8,72.7 C214.9,71.7 215,70.6 215.1,69.2 C214.7,69.5 214.5,69.6 214.2,69.8 C212.9,70.6 211.7,71.5 210.3,72.1 C206.3,73.7 202.2,74.1 198,73.9 C196.9,73.8 195.8,73.4 194.7,73 C194.4,72.9 194.1,72.8 193.8,72.6 C193.7,73.8 193.7,74.8 193.8,75.8 Z M190.2,103.4 C190.3,102.6 190.3,101.7 190.4,100.7 C187.5,102 184.7,102.5 181.7,102.4 C178.7,102.3 175.9,101.5 173.1,100.2 C172.8,102 172.6,103.6 172.4,105.1 C173.4,105.5 174.2,105.7 175,106.1 C177.9,107.6 180.8,107.4 183.9,106.7 C186.3,106.1 188.2,104.8 190.2,103.4 Z M193.3,59.9 C193.3,61.4 193.3,62.7 193.3,63.9 C193.7,64.1 194.1,64.2 194.4,64.5 C195.5,65.2 196.6,65.5 197.9,65.4 C198.7,65.4 199.6,65.6 200.4,65.6 C201.8,65.7 203.3,65.8 204.7,65.7 C205.7,65.6 206.7,65.2 207.7,64.9 C208,64.8 208.3,64.8 208.5,64.6 C210,63.7 211.9,63.4 213.2,62.1 C213.3,62 213.5,62 213.6,61.9 C214.4,61.6 214.8,61 215,60.2 C215.2,59.4 215.1,58.5 215.2,57.4 C213.9,58.3 212.9,59.1 211.8,59.7 C210.6,60.4 209.4,61.2 208.1,61.5 C205.5,62.2 202.9,61.7 200.3,61.7 C199.2,61.7 198.1,61.4 197,61 C195.9,60.9 194.7,60.4 193.3,59.9 Z M171.1,126.3 C172.7,126.8 174.2,127.4 175.7,127.8 C176.4,128 177.2,128.2 177.9,128.1 C181.9,127.8 185.7,126.6 189.1,124.6 C189.1,123.6 189.1,122.7 189.1,121.8 C187.5,122.3 186.1,122.8 184.6,123.1 C183.4,123.4 182.2,123.7 181,123.8 C179.7,123.9 178.5,123.6 177.2,123.5 C176.4,123.5 175.7,123.1 175,122.6 C173.9,121.6 172.6,121 171.1,120.7 C171.1,122.6 171.1,124.5 171.1,126.3 Z M210.7,113.2 C209.4,113.6 208.2,113.9 207,114.3 C203,115.6 199.3,114.9 195.6,113.2 C194.8,112.8 194,112.3 193.2,111.9 C192.9,111.7 192.6,111.7 192.1,111.5 C192,113 191.9,114.4 191.8,115.9 C193.8,116.8 195.8,117.7 197.8,118.5 C198.6,118.8 199.5,119 200.4,119 C201.8,119 203.2,118.9 204.6,118.7 C206.4,118.4 208.1,118.1 209.6,116.8 C210.7,115.7 211,114.6 210.7,113.2 Z M189.9,138 C189.8,136.3 189.7,134.8 189.6,133 C183.7,136 177.8,136.4 171.6,134.8 C171.7,135.1 171.7,135.3 171.7,135.4 C172.2,136.8 173,137.8 174.1,138.9 C175.3,140.1 176.6,140 178,139.9 C179,139.8 180,139.5 181,139.6 C183.1,139.7 185.1,139.2 187.1,138.7 C188,138.4 188.9,138.2 189.9,138 Z M187.8,174.7 C187.7,176.7 188.4,177.8 189.7,178.3 C190.6,178.6 191.3,178 192.1,178.1 C192.9,178.2 193.8,178.8 194.6,178.8 C196.8,178.8 199,178.6 201.2,178.6 C201.9,178.6 202.6,178.6 203.2,178.7 C206.7,179.1 209.9,178.3 213.3,177 C213.2,176.1 213,175.1 212.9,174.1 C210.9,174.9 209,175.4 207,175.5 C205.3,175.6 203.6,175.5 201.9,175.7 C199.1,176.1 196.4,176 193.6,175.8 C191.6,175.7 189.7,175.6 187.8,174.7 Z M213.5,86.3 C213.6,85.3 213.7,84.2 213.9,82.9 C213.4,83.3 213.1,83.5 212.8,83.7 C210.8,85.3 208.7,86.9 205.9,86.8 C204.4,87.6 202.9,87.2 201.3,86.8 C199.5,86.4 197.9,85.8 196.3,85 C195.6,84.6 194.9,84.3 194,83.9 C193.9,85.5 193.8,87 193.7,88.4 C194.1,88.7 194.3,88.9 194.6,89 C196,89.5 197.3,90 198.7,90.3 C200.9,90.8 203,90.8 205.2,90.4 C206.7,90.1 208,89.7 209.2,88.9 C210.5,88.1 211.9,87.2 213.5,86.3 Z M191.7,123.5 C192.6,123.8 193.3,124.1 194,124.4 C194.4,124.6 194.9,124.8 195.4,124.9 C197.8,125.4 200.1,125.5 202.6,125 C205.4,124.3 208,123.8 210,121.5 C210.2,121.3 210.4,121.2 210.6,121 C210.6,120.4 210.6,119.8 210.6,119.2 C204.2,122.1 197.9,122.3 191.7,118.3 C191.7,120.3 191.7,121.9 191.7,123.5 Z M193.8,80.9 C195,81.5 196,81.9 196.9,82.6 C198.9,84 201.2,84.2 203.4,84.8 C203.6,84.9 203.9,84.8 204.1,84.7 C204.9,84.5 205.7,84.3 206.5,84.2 C207.7,84.1 208.6,83.6 209.5,82.9 C210.9,81.8 212.1,80.5 213.9,80.1 C214,78.8 214.1,77.6 214.2,76 C213.2,76.7 212.3,77.2 211.6,77.8 C209.6,79.3 207.3,80.2 204.7,80.3 C203.7,80.3 202.8,80.4 201.8,80.4 C199.3,80.4 196.8,80.4 194.5,78.9 C194.4,78.8 194.2,78.8 193.9,78.8 C194,79.5 193.9,80.1 193.8,80.9 Z M191.1,88 C190.9,88 190.7,88 190.6,88 C189,88.5 187.4,88.7 185.8,88.4 C185.5,88.3 185.2,88.4 184.8,88.3 C182.9,88.2 180.9,88 179,87.9 C178.5,87.9 178.1,87.7 177.6,87.5 C176.6,87.2 175.6,86.8 174.4,86.5 C174.3,87.7 174.3,88.8 174.2,89.7 C175.4,90.4 176.5,91 177.6,91.5 C179.5,92.5 181.5,93 183.6,92.4 C183.9,92.3 184.3,92.2 184.7,92.3 C186.4,92.5 187.9,91.7 189.3,90.9 C189.9,90.5 190.5,90.1 191.2,89.7 C191.1,89.2 191.1,88.6 191.1,88 Z M193.2,143.6 C193.2,143.7 193.1,143.8 193.1,143.9 C193.8,145.1 194.4,146.2 195.2,147.3 C195.5,147.7 196,148 196.5,148.1 C198.8,148.6 201.1,148.8 203.4,148.6 C205.2,148.4 207,148.2 208.8,148 C209.6,147.9 210.7,147 210.8,146.2 C211,145.1 211.1,144 211.2,142.8 C210.7,143 210.2,143.3 209.7,143.4 C206.8,144.1 204,144.7 201.1,145.3 C200.8,145.4 200.5,145.4 200.1,145.3 C198.8,145 197.5,144.7 196.3,144.4 C195.2,144.2 194.2,143.8 193.2,143.6 Z M192.6,140.8 C194.5,141.3 196.2,141.9 197.9,142.4 C199.5,142.8 201,143 202.6,142.5 C203.4,142.3 204.2,142.2 204.9,142 C206.1,141.7 207.3,141.5 208.5,141.1 C208.9,141 209.2,140.7 209.5,140.5 C210,140.1 210.6,139.6 211.1,139 C211.1,137.9 211.1,136.8 211.1,135.4 C210.6,135.8 210.3,136 209.9,136.3 C208.8,137.2 207.7,138 206.2,138.2 C204.7,138.5 203.2,138.9 201.6,139.1 C199.5,139.4 197.3,139.5 195.2,138.8 C194.3,138.5 193.4,138.2 192.4,137.9 C192.6,139 192.6,139.9 192.6,140.8 Z M190.7,64 C190.4,64 190.2,64 190,64 C188.7,64 187.5,64.1 186.2,64.1 C185.3,64.1 184.3,63.9 183.5,64.1 C181,64.5 178.6,65.1 176.1,65.7 C175.5,65.8 175,66.2 174.6,66.5 C174.6,67.4 175,67.8 175.6,68 C176.4,68.3 177.3,68.6 178.1,68.6 C180.8,68.6 183.5,68.5 186.2,68.5 C187.8,68.5 189.3,68.1 190.7,67.5 C190.7,66.2 190.7,65.2 190.7,64 Z M192.3,135.1 C192.9,135.3 193.3,135.5 193.8,135.6 C195.7,136.3 197.6,137 199.7,136.7 C201.3,136.5 202.8,136.2 204.4,136 C206.4,135.7 208,134.8 209.4,133.4 C209.9,132.9 210.5,132.4 211.1,131.8 C211,131.2 211,130.7 210.9,130.3 C209.4,130.9 208.1,131.7 206.6,132.2 C205.6,132.6 204.5,132.6 203.5,132.9 C200.8,133.7 198.1,133.5 195.4,132.7 C194.4,132.4 193.3,132 192.1,132.2 C192.2,133.2 192.3,134.2 192.3,135.1 Z M153.3,172.5 C152.9,174.8 153.8,175.1 155.5,175.4 C155.8,175.5 156.1,175.4 156.4,175.5 C159.1,176.3 161.9,176.1 164.7,175.9 C166.1,175.8 167.5,175.5 169,175.3 C170.3,175.1 171.5,175 172.8,174.9 C173.2,174.9 173.5,174.9 173.9,174.8 C175.7,174.3 177.6,173.8 179.4,173.2 C180.6,172.8 181.1,172 181.1,170.6 C178.5,171.9 175.8,173 172.8,173.1 C169.3,173.3 165.7,173.4 162.2,173.5 C159.4,173.6 156.7,173.5 154,172.5 C153.7,172.5 153.5,172.5 153.3,172.5 Z M193.6,69.2 C194.7,70.5 196.2,71.2 197.9,71.3 C200.5,71.5 203.2,71.3 205.7,70.7 C207.1,70.4 208.6,70 209.9,69.3 C211.7,68.4 213.3,67.2 214.9,66.1 C214.9,65.5 214.9,64.9 214.9,64.1 C214.4,64.4 213.9,64.5 213.6,64.8 C212.9,65.5 212,65.9 211.1,66.1 C210.8,66.2 210.5,66.2 210.3,66.4 C209.4,67.1 208.3,67.3 207.2,67.5 C206.8,67.5 206.5,67.7 206.2,67.8 C205.2,68 204.1,68.3 203,68.3 C201.2,68.3 199.4,68 197.7,67.9 C196.6,67.9 195.5,67.8 194.4,67.3 C194.1,67.2 193.8,67.1 193.5,67 C193.6,67.9 193.6,68.5 193.6,69.2 Z M191.3,81.4 C190.7,81.6 190.3,81.7 189.8,81.8 C188.3,82.2 186.7,82.7 185.1,82.4 C184.1,82.2 183.1,82.3 182.1,82.2 C181,82.1 179.9,82 178.8,81.7 C177.5,81.3 176.2,80.7 174.8,80.2 C174.8,81.5 174.8,82.6 174.8,83.8 C175,83.9 175.2,84 175.3,84.1 C177.3,84.6 179.2,85.6 181.3,85.6 C183.2,85.6 185.2,86 187.1,86 C188.6,86.1 190,85.7 191.2,84.8 C191.3,83.6 191.3,82.6 191.3,81.4 Z M174.9,77.9 C176,78.2 176.9,78.4 177.8,78.7 C179.4,79.4 181.1,80 182.9,79.7 C183.6,79.6 184.3,79.7 185,79.8 C187.3,80.3 189.3,79.4 191.2,78.5 C191.2,77.2 191.2,76.1 191.2,74.9 C185.7,76.8 180.4,76.5 174.9,75 C174.9,76.1 174.9,77 174.9,77.9 Z M215.1,37.3 C208.1,40.8 200.9,42.3 193.2,40.2 C193.2,40.9 193.2,41.4 193.2,41.9 C194.7,43 196.2,43.6 198,43.8 C199.6,44 201.2,44.2 202.9,43.9 C207,43 210.8,41.5 214.7,40 C214.9,39.9 215.1,39.7 215.3,39.5 C215.2,38.6 215.1,37.9 215.1,37.3 Z M189.7,172.4 C189.7,172.5 189.7,172.6 189.7,172.7 C190.2,172.8 190.7,173.1 191.1,173.1 C193.4,173.2 195.6,173.4 197.9,173.4 C199.4,173.4 200.9,173.1 202.4,173.1 C205,173.2 207.5,172.9 210,172.3 C210.6,172.2 211.1,171.9 211.6,171.7 C211.3,171.4 211.1,171.3 210.8,171.2 C208.9,170.9 206.9,170.7 205,170.4 C203.6,170.2 202.1,170.1 200.8,169.7 C199.9,169.5 199.1,169.3 198.2,169.5 C196.7,169.8 195.1,170.1 193.7,170.6 C192.3,171.2 191,171.9 189.7,172.4 Z M210.7,124.7 C204.6,128 198.4,129.3 191.8,126.4 C191.8,127.2 191.8,127.9 191.8,128.8 C192.8,128.4 193.3,129.1 193.8,129.7 C194.7,130 195.6,130.2 196.4,130.5 C197.3,130.7 198.2,131 199.1,131 C201.6,131.1 204.1,130.5 206.5,129.8 C207,129.6 207.4,129.5 207.8,129.3 C208.3,129 208.7,128.6 209,128.2 C209.6,127.6 210,126.9 210.7,126 C210.7,125.6 210.7,125.1 210.7,124.7 Z M189.2,127.7 C188,128.1 187,128.3 186.1,128.7 C183.9,129.6 181.6,130.1 179.3,130.5 C177.3,130.8 175.4,130.5 173.6,129.7 C172.8,129.4 172,129.2 171.1,128.9 C171.1,130 171.1,130.9 171.1,131.7 C173.2,132.6 175.3,133 177.5,133 C179.5,133.1 181.4,133.2 183.3,132.6 C184.3,132.3 185.2,132 186.1,131.6 C187.3,131.1 188.6,130.9 189.3,129.6 C189.3,129.2 189.3,128.5 189.2,127.7 Z M189.2,116.7 C183.8,118.8 178.6,119.1 173.7,115.9 C173.1,115.5 172.4,115.3 171.7,115 C171.6,116.3 171.4,117.5 171.3,118.7 C172.8,118.1 173.9,118.7 175.1,119.5 C175.8,120 176.5,120.7 177.3,120.9 C179.4,121.4 181.6,121.6 183.7,120.8 C184.5,120.5 185.3,120.2 186.1,120.1 C187.4,119.9 188.3,119.1 189.3,118.3 C189.2,117.8 189.2,117.3 189.2,116.7 Z M190.8,70.4 C188,70.6 185.4,71 182.8,71 C180.2,71.1 177.5,71.3 174.8,70.5 C174.9,71.1 174.9,71.6 175,72.1 C177.2,73 179.4,73.6 181.8,73.6 C183.2,73.6 184.7,73.6 186.1,73.6 C187.9,73.6 189.4,72.7 191,72.2 C190.9,71.4 190.8,70.8 190.8,70.4 Z M243.5,135.6 C243.8,135.8 243.8,135.9 243.9,135.9 C244,135.9 244,136 244.1,136 C246.8,136.4 249.5,137.4 252.3,136.5 C252.4,136.5 252.6,136.5 252.8,136.5 C254.6,136.4 256.3,136.4 258,136.2 C259.7,136 261.3,135.7 262.7,134.6 C262.7,134.3 262.7,133.9 262.7,133.4 C259.6,134.6 256.5,135.4 253.3,135.6 C250.2,135.8 247,135.6 243.5,135.6 Z" id="Shape" fill="#000000"></path>
                    <path d="M93,98.5 C94.3,94.1 95.5,90 96.6,85.9 C96.8,85.1 96.9,84.2 97,83.4 C97.4,80.8 98.5,80.2 101,80.6 C104.4,81.2 107.7,82.4 110.9,83.8 C116.5,86.2 121.7,89.1 127,92.1 C128.1,92.7 129,93.5 130.2,94.3 C130.4,93.1 130.5,92.1 130.6,91 C131.3,83.4 132,75.7 132.7,68.1 C133,65.2 133.1,62.2 133.3,59.2 C133.6,56 133.9,52.7 134.3,49.5 C135.1,43.7 135.3,37.8 135.2,31.9 C135.2,29.8 135.4,27.7 135.6,25.7 C136.1,21.4 135.7,17.2 135.4,12.9 C135.3,11.9 135.3,10.9 135.2,9.9 C135.2,9.2 135.3,8.6 135.9,8.2 C136,8.1 136.2,8 136.2,7.9 C137.8,5 140.6,3.8 143.5,2.9 C148,1.6 152.6,0.8 157.3,1 C159.7,1.1 161.9,1.7 163.9,3 C165.6,4.1 165.9,5.2 165.3,7.1 C165.2,7.5 165.1,8 165.2,8.5 C165.4,10.4 165.7,12.3 165.8,14.2 C166.4,20.5 166,26.7 164.7,32.9 C164.1,35.6 164,38.4 163.7,41.1 C163.2,44.9 162.8,48.7 162.4,52.5 C162.3,53.5 162.4,54.5 162.4,55.5 C162.3,56.9 162.3,58.3 162,59.7 C161.5,62.7 160.9,65.8 160.4,68.8 C159.8,72.5 158.7,76.2 158.5,80 C158.2,86.6 157.9,93.3 157.7,99.9 C157.6,102 157.6,104 157.4,106.1 C157,110.6 156.6,115 156.2,119.5 C156.1,120.4 156.2,121.3 156.2,122.1 C156.2,122.9 156.3,123.7 156.1,124.5 C155.7,126.2 155.7,128 154.5,129.4 C154.3,129.7 154.2,130.1 154.1,130.4 C153.8,132 152.9,132.9 151.3,133.2 C149.9,133.4 148.6,133.9 147.3,134.2 C146.3,134.4 145.2,134.5 144.1,134.6 C142.3,134.9 140.5,135.2 138.7,135.5 C136.4,135.9 134.2,135.5 132.1,134.9 C130.5,134.4 129.4,133.4 129.2,131.7 C128.9,129.4 128.7,127 128.5,124.7 C128.5,124.2 128.5,123.7 128.5,123.3 C127.2,121.7 125.4,120.9 123.7,119.9 C121.1,118.4 118.2,117.5 115.3,117 C114.2,116.8 113.1,116.7 112,116.5 C110.4,116.3 108.9,116.1 107.2,115.8 C108.8,118.5 110,121.5 112,124 C112.6,124.7 113.1,125.5 113.5,126.3 C114.8,129.2 116.3,131.8 118,134.5 C118.8,135.8 119.3,137.1 120,138.5 C120.2,138.8 120.3,139.2 120.5,139.4 C122.2,141.5 123.4,143.9 124.4,146.4 C124.8,147.4 125.2,148.4 126,149.3 C126.3,149.7 126.4,150.4 126.4,150.9 C126.4,153.5 125.3,155.9 124.2,158.2 C124.1,158.4 124,158.5 123.8,158.7 C122.2,159.8 120.8,161.1 119,161.8 C117.5,162.4 116.2,163.4 114.8,164.1 C113.3,164.8 111.8,165.3 110.3,165.9 C109.8,166.1 109.2,166.2 108.8,166.5 C106,168.1 103.1,168.9 100,169.2 C98,169.4 96.1,170 94.1,170.4 C93.4,170.6 92.6,170.7 91.9,170.9 C89.8,171.3 87.7,171.7 85.7,172.1 C83.5,172.6 81.4,172.5 79.4,171.6 C78.2,171.1 77,170.5 75.8,170 C75,169.6 74.3,169.8 73.8,170.3 C72.9,171.4 71.5,171.8 70.3,172.4 C68.6,173.3 66.8,174 65,175 C62.6,176.3 60.2,177.8 57.9,179.2 C57.1,179.7 56.4,180.2 55.6,180.8 C50.9,184.6 46.4,188.6 42.3,193.1 C40.6,194.9 39.6,195.7 37.2,193.7 C36.2,192.8 35.2,192 34.1,191.2 C29.8,188 25.4,184.9 21,181.7 C18.8,180.1 18.8,178.8 21.1,177.3 C24.7,175 28.3,172.7 32,170.5 C34.9,168.8 38,167.5 41,166 C41.3,165.9 41.5,165.7 42,165.4 C40,165.4 38.3,165.4 36.6,165.4 C33.4,165.4 30.3,165.6 27.1,165.5 C24.1,165.3 21.2,165.8 18.3,165.9 C14.9,166.1 11.6,167 8.3,167.6 C5.3,168.2 3.2,167.8 2.9,163.8 C2.7,161.1 2,158.4 1.5,155.7 C1.2,154 1,152.2 0.8,150.5 C0.7,149.9 0.8,149.2 0.8,148.6 C1,146.9 2,145.9 3.7,145.6 C6.3,145.2 8.9,144.8 11.5,144.4 C14.9,143.9 18.4,143.3 21.8,142.9 C24.7,142.5 27.6,142.5 30.5,142.9 C32.7,143.2 34.8,143.3 37.1,143.1 C32.1,139.4 28.9,134.2 24.6,129.8 C23.3,129.9 22.8,129 22.5,127.9 C21.7,125 21.8,122.1 22,119.2 C22.1,116.9 22.4,114.7 22.6,112.4 C22.8,110.1 23.9,108.4 25.9,107.2 C28.2,105.8 30.6,104.7 33.2,103.8 C34.3,103.4 35.3,102.9 36.4,102.4 C40.6,100.6 45,99.2 49.5,98.2 C51.1,97.8 52.6,97.2 54.2,96.7 C56.6,96.1 59.1,95.5 61.5,94.9 C63.5,94.5 65.5,94.1 67.5,93.7 C68.9,93.4 70.2,92.9 71.6,92.4 C71.9,92.3 72.2,92.2 72.4,92.3 C74.2,92.4 76,91.9 77.7,91.7 C80.2,91.4 82.9,91.2 85.2,92.8 C85.4,92.9 85.6,93 85.7,93 C87.6,93 88.7,94.5 89.9,95.6 C91.2,96.6 92,97.4 93,98.5 Z M124.1,151.5 C124,151.2 124.1,150.6 123.8,150.4 C123.1,149.7 122.8,148.8 122.4,147.9 C121.3,145.6 120.3,143.1 118.6,141.1 C118.2,140.6 117.9,139.9 117.6,139.3 C117,138.2 116.6,137 115.9,136 C114.2,133.3 112.6,130.6 111.3,127.6 C111.1,127.1 110.7,126.6 110.4,126.1 C109.1,124 107.8,122 106.5,119.9 C105.7,118.6 105,117.3 104.1,116.2 C101.3,112.6 98.5,109 95.7,105.4 C94.5,103.9 93.2,102.5 91.9,101.1 C90.6,99.7 89.2,98.5 87.8,97.2 C87.1,96.5 86.3,95.9 85.3,95.7 C84.8,95.6 84.3,95.3 83.8,95.1 C83.3,94.9 82.8,94.7 82.2,94.5 C80.3,94.1 78.5,94.4 76.6,94.7 C75.6,94.9 74.5,94.9 73.5,95 C72.1,95.2 70.6,95.5 69.2,95.9 C67.9,96.2 66.6,96.7 65.3,96.9 C63.4,97.3 61.4,97.5 59.4,98 C57.4,98.5 55.5,99.2 53.6,99.8 C52.6,100.1 51.6,100.5 50.6,100.7 C45.4,101.9 40.3,103.4 35.5,105.8 C34.7,106.2 33.9,106.4 33.1,106.7 C30.8,107.5 28.5,108.6 26.7,109.9 C27.5,111.1 28.2,112.3 28.9,113.5 C29.1,113.8 29.2,114.1 29.5,114.3 C31.1,115.5 32.1,117.1 33.3,118.6 C34.4,120 35.6,121.3 36.9,122.6 C38.4,124.2 40.1,125.6 41.4,127.4 C42.5,128.8 43.8,130.1 45,131.4 C46.7,133.2 48.4,135 50,136.8 C50.9,137.7 51.8,138.6 52.7,139.5 C54.2,141 56.1,142.1 57.5,143.9 C58.8,145.5 60.3,146.9 61.8,148.4 C62,148.6 62.4,148.8 62.7,149 C63.9,149.8 65.1,150.6 66.2,151.5 C67.5,152.6 68.8,153.9 70.1,155.1 C70.8,155.8 71.7,156.4 72.3,157.1 C73,158 74,158.6 74.9,159.2 C76.1,160 77.4,160.7 78.4,161.7 C79.9,163.2 81.9,163.4 83.7,164.2 C83.8,164.2 83.9,164.2 83.9,164.2 C85.7,163.8 87.5,163.8 89.1,162.8 C89.8,162.3 90.6,162.2 91.5,162.1 C93.4,161.9 95.2,161.7 96.9,160.8 C98,160.2 99.3,159.8 100.6,159.5 C105,158.4 109.3,157 113.5,155.5 C114.1,155.3 114.6,154.8 115.2,154.6 C115.9,154.3 116.5,153.9 117.2,153.7 C118.6,153.2 120.1,152.9 121.6,152.5 C122.5,152.1 123.2,151.8 124.1,151.5 Z M95.3,100.3 C98.6,104.5 101.8,108.7 105.1,113 C106.2,112.5 107.1,112.9 108.1,113.2 C109.2,113.5 110.3,113.8 111.3,114 C112.4,114.2 113.5,114.2 114.5,114.4 C118,115 121.5,115.7 124.6,117.6 C125.9,118.3 127.2,119 128.7,119.8 C128.2,112.1 129.2,104.6 129.7,97 C128.3,96 127,95 125.6,94.1 C120.5,91.2 115.4,88.3 109.9,86.1 C107.5,85.1 104.9,84.3 102.4,83.5 C101.5,83.2 100.6,83.1 99.6,82.9 C99.5,83.4 99.4,83.8 99.4,84.2 C98.7,88.1 97.8,91.9 96.4,95.5 C96,96.6 95.8,97.7 95.5,98.9 C95.4,99.4 95.4,99.9 95.3,100.3 Z M41.3,146.6 C41.3,146.5 41.3,146.4 41.3,146.4 C40.8,146.4 40.3,146.4 39.9,146.4 C36.1,146.1 32.3,145.7 28.4,145.4 C23.7,145.1 19.1,146.1 14.5,146.7 C11.3,147.1 8.2,147.7 5,148.2 C3.8,148.4 3.6,148.6 3.6,149.7 C3.6,150.3 3.6,150.8 3.7,151.4 C4.4,155.9 5.2,160.3 5.9,164.8 C5.9,165 6,165.2 6.1,165.6 C6.8,165.5 7.5,165.5 8.1,165.4 C11.4,164.7 14.7,163.9 18.1,163.7 C20.1,163.6 22,163.1 23.9,163.2 C29.4,163.4 34.8,163.3 40.3,163.1 C41.9,163 43.6,163.1 45.2,163 C46.1,162.9 47.1,162.7 48,162.3 C50.3,161.3 52.6,160.2 55,159.1 C55.6,158.8 56.2,158.6 56.8,158.4 C55.8,157.3 54.9,156.3 53.9,155.3 C53.2,154.6 52.5,154 51.7,153.5 C48.2,151 44.7,148.8 41.3,146.6 Z M123.2,154.5 C122.1,154.8 121.1,155.1 120.1,155.4 C118.7,155.8 117.2,156 116,157 C115.5,157.4 114.8,157.6 114.2,157.8 C112.2,158.5 110.3,159.1 108.3,159.7 C106.2,160.4 104,160.9 101.9,161.6 C100.5,162 99.1,162.5 97.7,163.1 C96.5,163.7 95.2,164.1 93.8,164.2 C92.7,164.3 91.6,164.3 90.7,164.8 C89.1,165.7 87.3,166 85.6,166.4 C84.3,166.6 83.1,166.8 81.9,166.1 C81.7,166 81.5,166 81.3,166 C80.7,165.8 80,165.7 79.4,165.3 C78.4,164.7 77.5,163.9 76.5,163.2 C75.9,162.7 75.3,162.1 74.6,161.8 C72.4,160.9 70.9,159.2 69.3,157.6 C67.6,156.1 66,154.5 64.3,152.9 C64.1,152.7 63.8,152.6 63.6,152.5 C62.1,151.4 60.4,150.6 59.1,149.2 C57.7,147.6 56.3,146.1 54.8,144.5 C54.5,144.2 54.2,144 53.9,143.7 C52,142.1 50,140.5 48.4,138.6 C46.9,136.7 45.1,135 43.5,133.2 C42.5,132.1 41.5,131.1 40.5,130.1 C39.2,128.7 38,127.1 36.6,125.7 C34.5,123.6 32.3,121.6 30.8,119.1 C30.3,118.2 29.6,117.4 28.8,116.8 C27.9,116.1 27.2,115.2 26.7,114.2 C26.4,113.6 26,113.1 25.7,112.5 C25.6,112.5 25.5,112.6 25.4,112.6 C25.1,117.3 24.1,122 25,126.6 C25.5,127 25.9,127.3 26.3,127.7 C28,129.7 29.7,131.6 31.4,133.6 C33.2,135.7 35,137.9 37,139.6 C41.9,143.7 46.9,147.8 52.5,150.9 C53.9,151.7 55.1,152.8 56.1,154 C57.7,155.8 59.5,157.2 61.8,158.1 C63.5,158.8 65.1,159.8 66.3,161.1 C68,162.8 69.9,164.2 72,165.5 C74.5,167 77.2,168.1 79.8,169.3 C81.7,170.2 83.6,170.2 85.6,169.7 C87.4,169.2 89.3,169 91.1,168.6 C91.8,168.5 92.5,168.4 93.2,168.2 C95.3,167.7 97.4,167.1 99.5,166.9 C102.5,166.6 105.2,165.7 107.7,164.3 C108.1,164.1 108.6,163.8 109,163.7 C111.2,163.3 113.1,162.4 114.9,161.2 C115.8,160.6 116.9,160.2 117.8,159.6 C119.1,158.8 120.3,158.1 121.5,157.2 C122.7,156.6 122.9,155.6 123.2,154.5 Z M59.5,159.8 C58.7,160.2 58,160.6 57.3,160.8 C55.9,161.4 54.5,161.9 53.1,162.5 C51.9,163 50.5,163.4 49.7,164.7 C49.6,164.9 49.2,165 48.9,165.1 C48.3,165.4 47.6,165.6 47.1,165.9 C45.6,166.7 44.2,167.5 42.7,168.3 C38.6,170.4 34.4,172.1 30.6,174.6 C28.1,176.2 25.6,177.7 23.1,179.3 C23,179.4 22.9,179.5 22.7,179.8 C28.4,184 34.1,188.1 39.8,192.3 C40,192.2 40.2,192.1 40.4,191.9 C40.6,191.7 40.8,191.5 41,191.3 C45.4,186.5 50.2,182.2 55.3,178.2 C55.8,177.8 56.4,177.4 57,177.1 C59.2,175.8 61.5,174.5 63.7,173.2 C65.6,172.1 67.5,171 69.6,170.3 C70.7,170 71.6,169.3 72.9,168.7 C72.3,168.4 71.9,168.2 71.6,168 C69.3,166.9 67.3,165.4 65.5,163.6 C63.7,161.8 61.7,160.5 59.5,159.8 Z M135.5,65.9 C135.7,66.1 135.9,66.1 136,66.2 C137,67.1 137.9,68 139.4,67.9 C139.5,67.9 139.7,68 139.8,68.1 C140.9,68.8 142,69.1 143.3,69 C144.1,69 145,68.9 145.8,69 C149.4,69.3 152.8,68.3 156.2,67.2 C157.7,66.7 158.7,65.7 158.9,64 C159,63.3 159.2,62.6 159.3,61.9 C159.5,60.8 159.6,59.7 159.7,58.6 C159.5,58.6 159.4,58.6 159.3,58.6 C159.2,58.7 159,58.8 158.9,58.9 C157.3,60.1 155.6,61.2 153.6,61.5 C153.3,61.5 152.9,61.7 152.6,61.9 C149.9,62.9 147.1,63.7 144.2,63.7 C141.3,63.7 138.4,63.6 135.4,63.5 C135.6,64.3 135.6,65.1 135.5,65.9 Z M136.5,53.7 C136.3,55.7 136,57.6 135.9,59.5 C135.8,60.7 136.2,61 137.3,61.1 C139,61.1 140.7,61.1 142.3,61.2 C144.6,61.4 146.8,61 149.1,60.4 C151,60 152.7,59.3 154.6,58.7 C154.9,58.6 155.2,58.5 155.5,58.3 C157,57.3 158.5,56.3 160.1,55.2 C160.1,54.6 160.1,54 160.1,53.4 C160.1,52.8 160.2,52.2 160.2,51.6 C158.6,52.9 156.9,53.6 155,54.1 C152.6,54.7 150.2,55.4 147.7,55.8 C145.7,56.1 143.7,55.9 141.9,54.9 C140.3,54 138.5,53.5 136.5,53.7 Z M137.6,42.7 C138,43 138.4,43.2 138.7,43.4 C139.5,43.8 140.3,44.2 141.2,44.5 C142,44.8 142.8,45.3 143.6,45.5 C145.9,46 148.3,46.3 150.7,45.9 C152.7,45.6 154.7,45.3 156.6,44.5 C157.2,44.2 157.9,44 158.4,43.6 C160,42.5 161.7,41.4 161.6,39.1 C161.6,38.3 161.8,37.5 161.9,36.5 C154.2,41.7 146.1,41.4 137.7,39.6 C137.8,40.7 137.7,41.6 137.6,42.7 Z M155.3,102.3 C155.6,100.4 155.4,98.6 155.4,96.5 C155.1,96.6 154.9,96.7 154.7,96.8 C153,97.6 151.3,98.4 149.6,99.2 C149.3,99.3 149.1,99.4 148.8,99.5 C147.4,99.8 145.9,100.1 144.5,100.4 C141.7,101 139,100.6 136.3,99.3 C135,98.7 133.8,98.1 132.4,97.5 C132.3,98.6 132.1,99.5 132,100.2 C133.1,101.1 134,101.8 134.8,102.6 C135.7,103.5 136.8,104.2 138,104.6 C141,105.6 144.1,106 147.2,105.5 C147.9,105.4 148.7,105.4 149.3,105.1 C151.3,104.3 153.2,103.3 155.3,102.3 Z M163.1,9.9 C154.8,13.3 146.5,13.1 138.1,11.7 C137.8,12.9 138.5,13.8 139.5,14.5 C140.7,15.3 141.9,16 143.2,16.6 C145.3,17.6 147.3,18.1 149.6,17.8 C150,17.7 150.5,17.8 150.9,17.8 C155.6,18 159.6,16.1 163.6,13.6 C163.4,12.4 163.2,11.1 163.1,9.9 Z M163.7,16.5 C163.2,16.7 162.9,16.9 162.6,17 C160.3,18.4 157.9,19.6 155.2,19.8 C153.4,20 151.5,20.1 149.7,20.2 C147,20.5 144.6,19.9 142.2,18.7 C141.1,18.1 139.9,17.7 138.8,16.9 C138.7,16.8 138.6,16.9 138.5,16.9 C138.5,18.7 138.5,20.4 138.5,22.2 C140.6,23.2 142.5,24.3 144.7,24.4 C146.5,24.5 148.4,24.9 150.2,24.7 C153.6,24.4 157,23.5 160.3,22.6 C161.6,22.2 162.8,21.6 163.7,20.7 C163.7,19.3 163.7,18 163.7,16.5 Z M138.8,8.5 C139.6,9.4 140.5,9.5 141.4,9.6 C145.9,10.2 150.3,10.2 154.8,9.6 C157.2,9.3 159.5,8.8 161.6,7.6 C162.6,7 163.1,6.2 162.8,5.1 C161.2,4.1 159.1,3.4 157.3,3.5 C154.1,3.6 150.9,3.6 147.7,4.5 C145.3,5.1 142.8,5.6 140.7,7.1 C140.1,7.4 139.5,8 138.8,8.5 Z M132.8,94.9 C133.9,95.5 134.9,95.9 135.8,96.4 C137.8,97.4 139.8,98.4 142,98.2 C144.8,97.9 147.7,97.7 150.2,96.1 C150.4,96 150.6,95.9 150.9,95.8 C152.4,95.7 153.4,94.7 154.5,93.9 C155.6,93.1 155.7,92 155.5,90.7 C154.4,91.1 153.4,91.4 152.4,91.8 C151.3,92.3 150.3,92.4 149.2,92.2 C148.4,92 147.5,91.9 146.6,92 C145.3,92.1 143.9,92.3 142.6,92.5 C142.4,92.5 142.1,92.6 141.9,92.5 C139,91.8 135.8,91.8 133.5,89.2 C133.2,91.2 133,93.1 132.8,94.9 Z M162.9,30 C162.2,30.3 161.6,30.4 161.1,30.7 C159.6,31.3 158.2,32.1 156.6,32.4 C153.2,32.9 149.8,33.1 146.4,33.5 C143.6,33.8 140.8,33.7 138.2,32.4 C138.1,32.3 137.9,32.4 137.7,32.4 C137.7,33.1 137.7,33.7 137.7,34.4 C137.8,37 137.8,37 140.3,37.5 C140.4,37.5 140.5,37.6 140.6,37.6 C143.9,38.4 147.2,38.5 150.6,38.2 C152.5,38 154.4,37.7 156.2,36.8 C158,35.9 159.8,34.9 161.6,34 C162,33.8 162.4,33.4 162.5,33 C162.7,32 162.8,31.1 162.9,30 Z M134.3,80.6 C134.7,80.9 135.1,81.1 135.4,81.3 C137.3,82.2 139.5,82.3 141.3,83.4 C141.4,83.5 141.6,83.5 141.8,83.5 C143.6,83.5 145.4,83.6 147.2,83.6 C148.2,83.6 149.2,83.1 150.2,83.1 C151.5,83.1 152.7,82.6 153.8,82 C154.7,81.5 155.7,80.9 156.1,80.1 C156.6,78.9 156.6,77.5 156.7,76.1 C156.4,76.1 156.3,76.1 156.2,76.1 C156,76.1 155.9,76.2 155.8,76.3 C153.9,77.3 152,78.2 149.7,78.3 C147.8,78.4 145.9,79 144.1,78.8 C141,78.4 138.1,77.5 135.5,75.6 C135.3,75.4 135,75.3 134.6,75.1 C134.5,77 134.4,78.8 134.3,80.6 Z M137.4,45.5 C137.2,47.2 137.1,48.5 136.9,49.8 C137.3,50.3 137.7,50.7 138,51.1 C139.4,51.3 140.8,51.6 142,52.2 C144.1,53.2 146.2,53.6 148.5,53.1 C149.3,52.9 150.1,52.5 150.9,52.4 C154.5,51.9 157.7,50.4 160.4,47.9 C160.5,47.1 160.7,46.2 160.8,45.2 C158.4,46.4 156.3,47.5 153.7,47.9 C151.6,48.2 149.6,48.5 147.5,48.5 C145.8,48.5 144,48.1 142.3,47.8 C142,47.8 141.7,47.5 141.4,47.4 C140.3,46.8 138.9,46.2 137.4,45.5 Z M163.7,24.2 C163.5,24.2 163.4,24.2 163.3,24.2 C159.1,26 154.6,26.7 150.1,27.4 C149.7,27.5 149.2,27.4 148.8,27.4 C147,27.2 145.1,27.1 143.3,26.8 C142.1,26.6 140.9,26.1 139.7,25.7 C139.3,25.6 138.9,25.3 138.3,25.1 C138.2,26.7 138.1,28.1 138,29.5 C139.7,30.6 141.5,31.2 143.3,31.2 C145.3,31.3 147.4,31.2 149.3,30.7 C149.6,30.6 149.9,30.6 150.1,30.6 C153.1,30.5 156,30.3 158.7,29 C159.9,28.5 161.1,28.1 162.3,27.6 C162.6,27.5 162.9,27.3 163.4,27.1 C163.6,26.1 163.6,25.1 163.7,24.2 Z M158,69.4 C156.5,69.8 155.2,70.1 153.9,70.5 C151.9,71.1 149.8,71.6 147.7,71.5 C147,71.5 146.3,71.4 145.5,71.5 C143.3,71.6 141,71.7 139,70.5 C138.8,70.4 138.6,70.4 138.4,70.4 C137.7,70.1 136.9,69.9 136.2,69.6 C135.9,69.5 135.6,69.3 135.3,69.2 C134.7,72.1 134.7,72.1 136.9,73.5 C137,73.5 137,73.6 137.1,73.6 C140.5,75.6 144,77 148,76 C148.2,76 148.3,76 148.5,75.9 C149.8,75.6 151.2,75.6 152.5,75.1 C154.2,74.4 155.8,73.5 157.4,72.6 C157.6,71.6 157.8,70.6 158,69.4 Z M133.5,86 C133.6,86 133.7,86 133.8,86 C134.3,86.4 134.9,86.7 135.2,87.1 C135.8,87.9 136.4,88.6 137.4,88.8 C138.9,89.2 140.3,89.5 141.8,89.9 C142.1,90 142.4,89.9 142.6,89.9 C144.9,89.4 147.2,89.3 149.5,89.7 C150,89.8 150.5,89.8 150.9,89.7 C152,89.3 153.2,88.9 154.3,88.4 C155,88.1 155.7,87.8 155.8,86.9 C155.9,86 155.9,85 156,83.9 C154.1,84.9 152.2,85.7 150.2,85.7 C150.1,85.7 150,85.8 149.9,85.8 C149.4,85.9 148.8,86.1 148.3,86.1 C146.2,86.1 144,86.1 141.9,86.1 C141.4,86.1 140.9,86 140.4,85.8 C138.8,85.3 137.3,84.7 135.7,84.1 C135.2,83.9 134.7,83.7 134.1,83.5 C133.8,84.4 133.7,85.2 133.5,86 Z M154.7,109.7 C152.6,111.1 150.3,111.8 148.1,112.3 C146.1,112.7 144,112.5 141.9,112.5 C140.7,112.5 139.4,112.3 138.2,112 C135.9,111.5 133.7,110.8 131.3,110.2 C131.3,110.8 131.2,111.4 131.2,112.1 C132,112.7 132.7,113.4 133.6,113.7 C135.2,114.3 136.9,115.2 138.8,114.9 C139.2,114.8 139.6,115 140,115.1 C142.9,115.6 145.7,115.8 148.6,115.2 C149.3,115 150.1,114.9 150.8,114.8 C153.3,114.4 155,112.4 154.7,109.7 Z M131.3,117.9 C132.2,118.2 132.9,118.4 133.5,118.6 C134,118.8 134.4,119 134.8,119.1 C138.3,120.1 141.9,120.6 145.5,120.9 C148.2,121.1 150.8,120.4 152.8,118.2 C153.3,117.6 154.1,117.2 154.2,116.4 C152.2,116.8 150.3,117.3 148.3,117.6 C146.6,117.8 144.8,117.9 143.1,117.9 C141,117.8 138.8,117.6 136.7,117.3 C136.2,117.2 135.7,117.1 135.2,116.9 C133.9,116.4 132.6,115.9 131.3,115.4 C131.3,116.4 131.3,117.2 131.3,117.9 Z M155.3,105.2 C153.9,105.9 152.7,106.4 151.5,106.9 C150.8,107.2 150.1,107.7 149.3,107.8 C146.3,108.3 143.3,108.4 140.4,107.8 C137.5,107.2 134.7,106.3 132.6,103.9 C132.5,103.7 132.2,103.7 131.9,103.5 C131.9,104.4 131.9,105.2 131.9,105.9 C132.1,106.3 132.4,106.7 132.6,107.1 C132.9,107.8 133.4,108.3 134.2,108.4 C136.7,108.7 139,109.9 141.6,109.9 C145,110 148.3,110.1 151.4,108.6 C152.6,108 153.8,107.3 155.1,106.5 C155.2,106.3 155.2,105.9 155.3,105.2 Z M153.9,121.3 C153.8,121.2 153.7,121.2 153.6,121.1 C150.9,123.2 147.8,123.9 144.5,123.4 C140.1,122.8 135.5,122.6 131.3,120.4 C131.3,121.6 131.3,122.6 131.3,123.6 C135.9,125.2 140.4,125.9 145.1,124.7 C147.1,124.2 149.1,123.8 151,123.2 C151.8,123 152.6,122.4 153.3,121.9 C153.7,121.8 153.8,121.5 153.9,121.3 Z M153.5,125.2 C151.7,125.7 149.9,126.2 148.1,126.7 C145,127.5 142,128.1 138.8,127.8 C136.4,127.6 134.1,127.1 131.8,126.4 C131.7,126.4 131.6,126.4 131.4,126.5 C131.5,126.8 131.5,127 131.5,127.2 C132.2,127.4 132.7,127.5 133.2,127.7 C135.6,128.7 138,129.5 140.7,129.5 C143.2,129.5 145.6,129.6 147.9,128.3 C148.8,127.8 150,127.7 151.1,127.6 C152.7,127.5 153.4,126.9 153.5,125.2 Z M131.8,129.7 C131.9,132 132.2,132.3 134.1,132.9 C137.4,133.9 140.5,132.7 143.7,132.1 C139.5,132.2 135.6,131.8 131.8,129.7 Z M151.6,130.5 C151.6,130.4 151.6,130.3 151.5,130.2 C149.3,129.8 147.6,131.3 145.7,132.1 C147.7,131.6 149.7,131 151.6,130.5 Z" id="Shape" fill="#000000"></path>
                    <path d="M263.4,122.1 C261.5,123.1 259.7,124 257.9,125 C255.9,124.7 254,125.3 252,125.8 C250.4,126.2 248.8,126.4 247.2,126.6 C244.4,127 241.7,127.9 239.1,129.1 C238.6,129.3 238.2,129.8 238,130.2 C237.7,130.8 237.5,131.5 237.2,132.3 C229.4,132.1 221.7,133.7 213.8,135.6 C213.6,130.7 213.4,125.9 213.2,121.1 C213.9,120.6 214.6,120.2 215.3,119.8 C216.9,118.7 218.6,117.7 220.2,116.6 C224.3,113.7 228.3,110.7 232.4,107.7 C237,104.4 241.7,101 246.3,97.7 C247.4,96.9 248.7,96.3 250.2,95.9 C250.7,96.7 251.3,97.4 251.6,98.2 C252.6,100.7 254,102.9 255.6,105 C258.3,108.7 260.1,112.7 261.7,116.9 C262.2,118.1 262.7,119.3 263.1,120.6 C263.2,121.1 263.3,121.6 263.4,122.1 Z" id="Shape" fill="#FFFFFF"></path>
                    <path d="M228.6,175 C227.4,172.5 227,169.9 226.2,167.5 C225.4,165.1 224.4,162.8 223.3,160.3 C224.8,160.7 226.2,160.6 227.4,161.3 C229.1,162.2 230.9,162.3 232.7,162.6 C233.6,162.7 234.4,162.4 235.1,161.7 C237,160 238.6,158 240.2,156 C241.5,154.3 242.9,152.7 244.3,151 C246.5,151.2 248.4,150.5 250.2,149.7 C257.1,146.7 264.3,144.3 271.5,142 C272.5,141.7 273.5,141.5 274.6,141.3 C275.4,142.2 275.7,143.3 276.1,144.3 C277,146.9 277.9,149.6 278.9,152.2 C279.8,154.6 281,157 282,159.3 C282.2,159.8 282.3,160.3 282.5,160.9 C280,161.9 277.6,162.8 275.2,163.7 C273.1,164.4 271,165.1 268.9,165.7 C267.2,166.2 265.5,166.6 263.8,166.9 C260.3,167.4 256.8,167.8 253.2,168.3 C252.7,168.4 252.1,168.6 251.6,168.8 C249,169.9 246.3,170.3 243.5,170.6 C241.2,170.9 238.9,171.5 236.6,172.2 C234.9,172.7 233.3,173.6 231.6,174.2 C230.7,174.6 229.6,174.8 228.6,175 Z" id="Shape" fill="#FFFFFF"></path>
                    <path d="M160.9,178.9 C159.3,179.7 158,180.5 156.6,181.1 C154.2,182.3 151.8,183.6 149.3,184.6 C147.4,185.4 145.5,186 143.5,186.6 C141.1,187.3 138.7,187.8 136.3,188.6 C134.7,189.1 133.1,189.7 131.6,190.3 C130.1,190.9 128.5,191.2 126.8,191.6 C126.6,191.2 126.5,190.8 126.4,190.5 C124.8,186 123.1,181.4 121.5,176.9 C121.1,175.8 120.8,174.7 120.6,173.6 C120.3,172.2 120.8,171.1 122,170.3 C124.9,168.3 127.9,166.5 131.3,165.3 C138.3,162.8 145.3,160.3 152.3,157.8 C157.1,156.1 161.9,154.2 166.7,152.4 C166.8,152.4 166.9,152.4 167.1,152.3 C168.8,155 170.5,157.7 172.4,160.5 C171,160.6 169.8,161 168.5,161 C167.5,160.9 166.4,161 165.4,161.2 C163.7,161.5 162,162 160.4,162.4 C157.8,163.1 155.4,164.4 153.3,166.1 C152.7,166.6 152.1,167.1 151.2,167.2 C150.5,167.3 150.2,167.8 150.3,168.7 C150.5,170.5 150.7,172.4 150.9,174.2 C151.2,176.4 152.3,177.5 155.2,178.1 C156.9,178.3 158.8,178.5 160.9,178.9 Z" id="Shape" fill="#FFFFFF"></path>
                    <path d="M199.4,153.4 C199.6,152.6 199.7,151.9 199.9,151.2 C201.8,151.1 203.6,151 205.5,150.9 C207,150.8 208.7,150.8 210.1,150.3 C211.6,149.7 213.1,148.5 213.2,146.6 C213.4,144.1 213.7,141.5 214,138.8 C214.8,138.1 215.8,137.7 217.1,137.6 C218,137.5 218.9,137.3 219.8,137 C223,136.1 226.3,135.6 229.6,135.4 C231.6,135.2 233.6,134.8 235.7,135.1 C236.2,135.2 236.8,134.9 237.4,134.8 C237.4,134.8 237.5,134.8 237.5,134.9 C238.1,137 239.7,137.9 241.6,138.3 C244.3,138.9 247.1,139.4 249.9,139.9 C249.8,140 249.8,140.2 249.6,140.4 C247.1,142.8 245.2,145.7 243.3,148.5 C241.8,150.6 240.1,152.6 238.4,154.6 C237,156.3 235.5,158 234,159.7 C233.5,160.2 233,160.4 232.3,160.3 C230.9,160.1 229.5,159.9 228.2,159.1 C227.9,158.9 227.5,158.8 227.2,158.8 C223.6,158.1 220.3,156.7 216.8,155.7 C215.1,155.2 213.4,155.1 211.7,154.5 C210.7,154.1 209.5,154.3 208.4,154.3 C207.6,154.2 206.8,154.1 206,154 C205.3,153.9 204.6,153.7 204,153.9 C202.4,154.1 201,153.4 199.4,153.4 Z" id="Shape" fill="#FFFFFF"></path>
                    <path d="M169.1,136.1 C169.6,137.1 170,138.2 170.8,139.1 C172,140.5 173.2,142.1 175.2,142.4 C176.4,142.5 177.6,142.4 178.8,142.3 C179.7,142.3 180.6,142 181.4,142.1 C183.6,142.3 185.7,141.7 187.7,141.1 C188.4,140.9 189.2,140.8 190.1,140.7 C190.1,142.8 190,144.9 191.8,146.4 C189.4,149.3 186,150.9 184,154.1 C179.7,153.1 177,155.9 173.9,158.4 C173.1,157.1 172.3,156 171.6,154.8 C171,153.9 170.4,152.9 169.7,152 C169.4,151.5 168.8,151.2 168.4,150.9 C168.2,150.8 168,150.6 167.9,150.5 C167.2,149.6 166.8,149.5 165.9,149.9 C158.9,152.9 151.7,155.2 144.5,157.7 C144.4,157.7 144.2,157.8 144,157.8 C143.9,157.4 143.7,157.1 143.7,156.8 C143.3,154.3 141.9,152.4 140.1,150.7 C139.1,149.7 138.1,148.7 137.1,147.7 C136.8,147.3 136.5,146.9 136.1,146.3 C136.8,146.1 137.3,146 137.9,145.8 C140.3,145.1 142.7,144.4 145.2,143.8 C148.4,143 151.3,141.7 154.3,140.4 C157.4,139.1 160.5,138.1 163.8,137.6 C165.3,137.4 166.7,137 168.1,136.7 C168.4,136.6 168.8,136.3 169.1,136.1 Z" id="Shape" fill="#FFFFFF"></path>
                    <path d="M175.5,160.5 C177,159.1 178.4,157.8 180.1,157 C181.4,156.4 182.6,156.3 184,157.1 C185.7,158 187.5,158.6 189.3,159.3 C191.7,160.4 194.2,161.5 196.6,162.7 C198.7,163.7 200.2,165.2 201.3,167.1 C196.3,167.2 191.6,168.2 187.2,171.2 C186,171.5 185.5,171.9 185.4,173.6 C185.3,174.6 185.4,175.7 185.5,176.7 C185.6,177.9 186.2,178.8 187.1,179.5 C187.5,179.8 187.8,180.1 188.2,180.5 C185.6,182.2 183.6,184.4 180.8,185.9 C175.2,188.9 169.5,191.7 164.2,195.2 C162.9,196.1 161.5,196.9 160.1,197.8 C156.4,194.3 152.5,190.9 148.3,187.8 C149,187.5 149.8,187.2 150.5,186.8 C155.1,184.5 159.7,182.3 164.3,180 C165.2,179.5 166.1,178.9 167.3,178.1 C168.6,177.9 170.3,177.5 172,177.4 C174.3,177.2 176.5,176.9 178.7,176.2 C179.5,176 180.3,175.7 181,175.3 C182.1,174.6 183.1,173.8 183.4,172.4 C183.9,170.6 184.6,168.9 184.5,166.9 C184.4,164.8 183.4,163.5 181.6,162.8 C180.1,162.1 178.5,161.6 177,161 C176.5,160.9 176.1,160.7 175.5,160.5 Z" id="Shape" fill="#FFFFFF"></path>
                    <path d="M153.3,169.2 C155.9,166.8 158.7,165.2 161.8,164.5 C162.7,164.3 163.7,164.1 164.6,163.8 C165.9,163.4 167.2,163.3 168.6,163.5 C169.4,163.6 170.2,163.3 171,163.3 C172.6,163.1 174.3,162.7 175.9,163.5 C177.2,164.1 178.6,164.6 180,165.1 C180.6,165.4 181.3,165.6 181.5,166.4 C181.5,167.2 180.9,167.6 180.3,167.9 C177.5,169.7 174.4,170.6 171,170.7 C167.1,170.8 163.1,170.9 159.2,171 C157.6,171 156,170.7 154.5,170.1 C154.3,170 153.9,169.6 153.3,169.2 Z" id="Shape" fill="#FFFFFF"></path>
                    <path d="M200.2,38.8 C198.4,38.5 196.6,38.2 194.8,37.9 C194.6,37.9 194.3,37.8 194.1,37.7 C192.8,37.1 192.4,35.9 193.5,34.9 C194.5,34 195.6,33.2 196.9,32.7 C199.5,31.6 202.2,30.6 205,30.4 C208.2,30.2 211.5,30.1 214.4,32.1 C215.4,32.8 215.5,33.2 214.7,34.1 C213.2,35.7 211.4,36.6 209.3,37.2 C206.8,37.9 204.3,38.5 201.7,38.7 C201.1,38.6 200.6,38.7 200.2,38.8 C200.2,38.7 200.2,38.8 200.2,38.8 Z" id="Shape" fill="#FFFFFF"></path>
                    <path d="M193.1,56.9 C193.1,55 193.1,53.4 193.1,51.6 C193.5,51.7 193.7,51.8 194,51.8 C195.2,52 196.3,52.2 197.5,52.4 C198.8,52.6 200.2,52.5 201.5,52.9 C205.9,54.1 209.9,53 213.8,50.8 C214.3,50.5 214.8,50.3 215.4,49.9 C215.4,51.4 215.5,52.6 215.4,53.9 C215.4,54.2 215,54.7 214.7,54.9 C213.2,56 211.7,57 210.2,58 C208.5,59 206.7,59.8 204.7,59.4 C203.7,59.2 202.6,59.3 201.6,59.3 C200,59.3 198.4,59.1 197,58.4 C195.7,57.9 194.4,57.4 193.1,56.9 Z" id="Shape" fill="#FFFFFF"></path>
                    <path d="M172.3,107.6 C175.2,109.1 178.1,110.1 181.3,109.7 C184.4,109.4 187.2,108.4 190,106.6 C189.8,109 189.6,111.2 189.4,113.5 C185.8,115.8 182.1,116.3 178.1,115.3 C177.9,115.2 177.6,115.2 177.4,115.1 C175.6,114.2 173.8,113.3 171.9,112.3 C172,110.9 172.2,109.4 172.3,107.6 Z" id="Shape" fill="#FFFFFF"></path>
                    <path d="M193.3,45.3 C195.3,45.7 197.3,46 199.2,46.4 C200.7,46.7 202.1,46.5 203.5,46.2 C206.2,45.4 208.9,44.6 211.6,43.8 C212.2,43.6 212.8,43.2 213.5,43 C214,42.8 214.6,42.6 215.3,42.4 C215.3,44 215.3,45.5 215.3,47.1 C212.8,48.6 210.4,50.2 207.3,50.8 C205.6,51.1 203.9,50.9 202.2,50.6 C200.2,50.2 198.2,50.1 196.2,49.8 C195.8,49.8 195.4,49.7 195,49.6 C193.6,49.2 193.3,48.8 193.3,47.3 C193.3,46.5 193.3,45.9 193.3,45.3 Z" id="Shape" fill="#FFFFFF"></path>
                    <path d="M193.6,91.5 C194.3,91.7 194.8,91.7 195.3,91.9 C198.4,93.2 201.7,93.5 205,93 C207.4,92.7 209.5,91.9 211.3,90.4 C211.7,90.1 212.2,89.9 212.9,89.6 C212.7,91.2 212.5,92.7 212.3,94.1 C211.4,94.8 210.5,95.5 209.6,96.1 C209.3,96.3 209.1,96.4 208.8,96.5 C205.6,97.3 202.2,97.6 198.9,97.6 C197,97.6 195,97 193.2,95.9 C193.3,94.5 193.4,93.1 193.6,91.5 Z" id="Shape" fill="#FFFFFF"></path>
                    <path d="M240.2,132.2 C240.2,131.4 240.7,131 241.3,130.8 C243,130.2 244.8,129.6 246.6,129.2 C248.3,128.8 250.1,128.7 251.8,128.4 C252.8,128.2 253.8,128 254.8,127.7 C256.1,127.3 257.4,127.4 258.6,127.9 C259.6,128.3 260.5,128.7 261.5,129.1 C261.8,129.3 262,129.6 262.3,129.9 C261.9,130.9 261.2,131.3 260.4,131.6 C256.4,132.8 252.4,133.5 248.2,133.3 C246.8,133.2 245.3,133.3 243.9,133.3 C242.5,133.2 241.2,133.1 240.2,132.2 Z" id="Shape" fill="#FFFFFF"></path>
                    <path d="M211.1,105.5 C211.1,106.7 211.1,107.7 211.1,108.8 C211.1,109.2 210.9,109.7 210.6,109.9 C209.9,110.4 209.1,111 208.3,111.3 C206.5,111.8 204.8,112.6 202.8,112.4 C200.3,112.1 197.8,111.7 195.7,110.2 C194.8,109.6 193.7,109.2 192.6,108.6 C192.7,107.3 192.7,105.9 192.8,104.3 C194.1,105.1 195.2,105.7 196.3,106.4 C197.8,107.3 199.4,107.8 201.2,107.6 C202.9,107.5 204.6,107.6 206.2,107.4 C207.5,107.2 208.8,106.7 210.1,106.3 C210.3,106.1 210.6,105.8 211.1,105.5 Z" id="Shape" fill="#FFFFFF"></path>
                    <path d="M211.7,97.9 C211.6,99.4 211.4,100.8 211.2,102.5 C210,103.1 208.7,103.7 207.4,104.3 C206.7,104.7 206,104.7 205.2,104.7 C203.9,104.7 202.6,104.8 201.4,104.9 C199.8,105.1 198.4,104.7 197.1,103.9 C195.8,103.1 194.4,102.3 192.9,101.4 C193,100.5 193,99.7 193.1,98.7 C196.2,99.9 199.3,100.3 202.5,99.9 C205.6,99.7 208.8,99.6 211.7,97.9 Z" id="Shape" fill="#FFFFFF"></path>
                    <path d="M173.3,97.2 C173.5,95.6 173.7,94.1 173.9,92.4 C174.6,92.7 175,93 175.5,93.2 C177.5,94.3 179.6,95.3 182.1,95.2 C183.7,95.1 185.4,95 187,94.7 C187.8,94.6 188.5,94.2 189.2,93.9 C189.7,93.7 190.3,93.4 191,92.9 C190.9,94.3 190.8,95.6 190.6,96.8 C190.3,97.9 189.4,98.5 188.4,98.8 C184,100.3 179.7,100.2 175.5,98.3 C174.6,98 174,97.6 173.3,97.2 Z" id="Shape" fill="#FFFFFF"></path>
                    <path d="M193.8,75.8 C193.8,74.8 193.7,73.8 193.7,72.6 C194.1,72.8 194.4,72.9 194.6,73 C195.7,73.3 196.8,73.8 197.9,73.9 C202.1,74.1 206.3,73.7 210.2,72.1 C211.6,71.5 212.8,70.6 214.1,69.8 C214.3,69.7 214.6,69.5 215,69.2 C214.9,70.6 214.8,71.7 214.7,72.7 C213.1,73.7 211.7,74.6 210.3,75.6 C208.4,77 206.3,77.8 204,77.8 C202.1,77.8 200.1,77.7 198.2,77.6 C197.7,77.6 197.1,77.3 196.6,77.1 C195.7,76.7 194.8,76.3 193.8,75.8 Z" id="Shape" fill="#FFFFFF"></path>
                    <path d="M190.2,103.4 C188.2,104.8 186.2,106.2 183.9,106.8 C180.9,107.5 177.9,107.8 175,106.2 C174.2,105.8 173.4,105.5 172.4,105.2 C172.6,103.6 172.8,102 173.1,100.3 C175.9,101.6 178.7,102.4 181.7,102.5 C184.7,102.6 187.5,102 190.4,100.8 C190.4,101.7 190.3,102.6 190.2,103.4 Z" id="Shape" fill="#FFFFFF"></path>
                    <path d="M193.3,59.9 C194.6,60.4 195.8,60.9 197.1,61.3 C198.2,61.6 199.3,62 200.4,62 C203,62 205.7,62.5 208.2,61.8 C209.5,61.4 210.7,60.7 211.9,60 C213,59.4 214,58.6 215.3,57.7 C215.2,58.8 215.3,59.7 215.1,60.5 C215,61.3 214.5,61.9 213.7,62.2 C213.5,62.2 213.4,62.3 213.3,62.4 C211.9,63.6 210.1,64 208.6,64.9 C208.4,65 208.1,65.1 207.8,65.2 C206.8,65.5 205.8,65.9 204.8,66 C203.4,66.1 201.9,66 200.5,65.9 C199.7,65.9 198.8,65.7 198,65.7 C196.7,65.8 195.6,65.5 194.5,64.8 C194.2,64.6 193.8,64.4 193.4,64.2 C193.3,62.7 193.3,61.4 193.3,59.9 Z" id="Shape" fill="#FFFFFF"></path>
                    <path d="M171.1,126.3 C171.1,124.5 171.1,122.6 171.1,120.7 C172.5,121 173.8,121.6 175,122.6 C175.6,123.2 176.3,123.5 177.2,123.5 C178.5,123.6 179.8,123.8 181,123.8 C182.2,123.7 183.4,123.4 184.6,123.1 C186.1,122.7 187.6,122.2 189.1,121.8 C189.1,122.7 189.1,123.6 189.1,124.6 C185.7,126.6 181.9,127.8 177.9,128.1 C177.2,128.2 176.4,128 175.7,127.8 C174.2,127.4 172.7,126.8 171.1,126.3 Z" id="Shape" fill="#FFFFFF"></path>
                    <path d="M210.7,113.2 C211,114.6 210.7,115.7 209.5,116.7 C208,117.9 206.3,118.3 204.5,118.6 C203.1,118.8 201.7,118.9 200.3,118.9 C199.4,118.9 198.5,118.8 197.7,118.4 C195.7,117.6 193.8,116.7 191.7,115.8 C191.8,114.4 191.9,113 192,111.4 C192.5,111.6 192.8,111.7 193.1,111.8 C193.9,112.2 194.7,112.7 195.5,113.1 C199.1,114.8 202.9,115.5 206.9,114.2 C208.2,113.9 209.4,113.6 210.7,113.2 Z" id="Shape" fill="#FFFFFF"></path>
                    <path d="M189.9,138 C188.8,138.2 187.9,138.4 187.1,138.7 C185.1,139.3 183.1,139.7 181,139.6 C180,139.5 179,139.8 178,139.9 C176.6,140 175.3,140.1 174.1,138.9 C173,137.9 172.2,136.8 171.7,135.4 C171.7,135.3 171.6,135.1 171.6,134.8 C177.8,136.5 183.7,136 189.6,133 C189.7,134.8 189.8,136.3 189.9,138 Z" id="Shape" fill="#FFFFFF"></path>
                    <path d="M187.8,174.7 C189.7,175.6 191.7,175.7 193.6,175.8 C196.4,176 199.1,176 201.9,175.7 C203.6,175.5 205.3,175.5 207,175.5 C209,175.4 210.9,175 212.9,174.1 C213.1,175.1 213.2,176.1 213.3,177 C209.9,178.2 206.6,179 203.2,178.7 C202.5,178.6 201.8,178.6 201.2,178.6 C199,178.7 196.8,178.8 194.6,178.8 C193.8,178.8 193,178.2 192.1,178.1 C191.3,178 190.5,178.6 189.7,178.3 C188.3,177.8 187.6,176.7 187.8,174.7 Z" id="Shape" fill="#FFFFFF"></path>
                    <path d="M213.5,86.3 C211.9,87.3 210.6,88.1 209.2,89 C208,89.8 206.7,90.2 205.2,90.5 C203,90.9 200.8,90.9 198.7,90.4 C197.3,90.1 196,89.6 194.6,89.1 C194.3,89 194.1,88.7 193.7,88.5 C193.8,87.1 193.9,85.6 194,84 C194.8,84.4 195.6,84.7 196.3,85.1 C197.9,86 199.6,86.5 201.3,86.9 C202.9,87.3 204.4,87.7 205.9,86.9 C208.7,87 210.8,85.4 212.8,83.8 C213.1,83.6 213.4,83.4 213.9,83 C213.7,84.2 213.6,85.3 213.5,86.3 Z" id="Shape" fill="#FFFFFF"></path>
                    <path d="M191.7,123.5 C191.7,121.9 191.7,120.2 191.7,118.3 C197.9,122.3 204.2,122.1 210.6,119.2 C210.6,119.7 210.6,120.3 210.6,121 C210.4,121.1 210.1,121.3 210,121.5 C208,123.8 205.4,124.3 202.6,125 C200.1,125.6 197.8,125.5 195.4,124.9 C194.9,124.8 194.5,124.6 194,124.4 C193.3,124.2 192.6,123.9 191.7,123.5 Z" id="Shape" fill="#FFFFFF"></path>
                    <path d="M193.8,80.9 C193.9,80.2 194,79.5 194,78.8 C194.3,78.9 194.5,78.9 194.6,78.9 C196.8,80.4 199.3,80.4 201.9,80.4 C202.9,80.4 203.8,80.3 204.8,80.3 C207.4,80.2 209.6,79.3 211.7,77.8 C212.5,77.2 213.3,76.7 214.3,76 C214.2,77.5 214.1,78.8 214,80.1 C212.2,80.5 210.9,81.8 209.6,82.9 C208.7,83.6 207.7,84.1 206.6,84.2 C205.8,84.3 205,84.5 204.2,84.7 C204,84.7 203.7,84.8 203.5,84.8 C201.3,84.1 199,83.9 197,82.6 C196,81.9 195,81.5 193.8,80.9 Z" id="Shape" fill="#FFFFFF"></path>
                    <path d="M191.1,88 C191.1,88.6 191.1,89.2 191.1,89.8 C190.4,90.2 189.8,90.6 189.2,91 C187.8,91.9 186.3,92.6 184.6,92.4 C184.3,92.4 183.9,92.4 183.5,92.5 C181.4,93.1 179.4,92.5 177.5,91.6 C176.4,91 175.3,90.4 174.1,89.8 C174.2,88.8 174.2,87.8 174.3,86.6 C175.5,87 176.5,87.3 177.5,87.6 C178,87.7 178.4,88 178.9,88 C180.8,88.2 182.8,88.3 184.7,88.4 C185,88.4 185.3,88.4 185.7,88.5 C187.4,88.8 188.9,88.6 190.5,88.1 C190.7,88 190.9,88 191.1,88 Z" id="Shape" fill="#FFFFFF"></path>
                    <path d="M193.2,143.6 C194.2,143.9 195.2,144.2 196.3,144.5 C197.6,144.8 198.9,145.1 200.1,145.4 C200.4,145.5 200.7,145.5 201.1,145.4 C204,144.8 206.9,144.1 209.7,143.5 C210.2,143.4 210.6,143.1 211.2,142.9 C211.1,144.1 211,145.2 210.8,146.3 C210.7,147 209.6,148 208.8,148.1 C207,148.3 205.2,148.5 203.4,148.7 C201.1,148.9 198.8,148.7 196.5,148.2 C196,148.1 195.5,147.8 195.2,147.4 C194.4,146.3 193.8,145.1 193.1,144 C193.1,143.7 193.1,143.6 193.2,143.6 Z" id="Shape" fill="#FFFFFF"></path>
                    <path d="M192.6,140.8 C192.6,140 192.6,139 192.6,138 C193.6,138.3 194.5,138.6 195.4,138.9 C197.5,139.6 199.6,139.6 201.8,139.2 C203.3,139 204.8,138.5 206.4,138.3 C207.8,138.1 209,137.3 210.1,136.4 C210.4,136.1 210.8,135.9 211.3,135.5 C211.3,136.9 211.3,138 211.3,139.1 C210.7,139.6 210.2,140.1 209.7,140.6 C209.4,140.8 209.1,141.1 208.7,141.2 C207.5,141.5 206.3,141.8 205.1,142.1 C204.3,142.3 203.5,142.3 202.8,142.6 C201.2,143.1 199.6,142.9 198.1,142.5 C196.2,141.8 194.5,141.3 192.6,140.8 Z" id="Shape" fill="#FFFFFF"></path>
                    <path d="M190.7,64 C190.7,65.2 190.7,66.2 190.7,67.3 C189.2,67.9 187.7,68.3 186.2,68.3 C183.5,68.4 180.8,68.5 178.1,68.4 C177.2,68.4 176.4,68.1 175.6,67.8 C175.1,67.6 174.6,67.2 174.6,66.3 C175,66.1 175.6,65.7 176.1,65.5 C178.5,64.9 181,64.4 183.5,63.9 C184.4,63.7 185.3,63.9 186.2,63.9 C187.5,63.9 188.7,63.8 190,63.8 C190.2,64 190.4,64 190.7,64 Z" id="Shape" fill="#FFFFFF"></path>
                    <path d="M192.3,135.1 C192.2,134.1 192.1,133.2 192,132.2 C193.2,132 194.3,132.3 195.3,132.7 C198,133.6 200.7,133.7 203.4,132.9 C204.4,132.6 205.5,132.6 206.5,132.2 C207.9,131.7 209.3,131 210.8,130.3 C210.9,130.7 210.9,131.3 211,131.8 C210.4,132.3 209.9,132.9 209.3,133.4 C207.9,134.8 206.3,135.7 204.3,136 C202.7,136.2 201.2,136.5 199.6,136.7 C197.5,137 195.6,136.2 193.7,135.6 C193.4,135.5 192.9,135.3 192.3,135.1 Z" id="Shape" fill="#FFFFFF"></path>
                    <path d="M153.3,172.5 C153.5,172.5 153.7,172.5 153.9,172.6 C156.5,173.6 159.3,173.7 162.1,173.6 C165.6,173.5 169.2,173.3 172.7,173.2 C175.7,173.1 178.4,172 181,170.7 C181.1,172.1 180.6,172.9 179.3,173.3 C177.5,173.9 175.6,174.4 173.8,174.9 C173.5,175 173.1,175 172.7,175 C171.4,175.1 170.2,175.2 168.9,175.4 C167.5,175.6 166.1,175.9 164.6,176 C161.8,176.3 159,176.5 156.3,175.6 C156,175.5 155.7,175.5 155.4,175.5 C153.8,175.1 152.9,174.8 153.3,172.5 Z" id="Shape" fill="#FFFFFF"></path>
                    <path d="M193.6,69.2 C193.6,68.4 193.6,67.8 193.6,67.1 C193.9,67.2 194.2,67.2 194.5,67.4 C195.5,67.9 196.6,68 197.8,68 C199.6,68.1 201.4,68.3 203.1,68.4 C204.1,68.4 205.2,68.1 206.3,67.9 C206.7,67.8 207,67.7 207.3,67.6 C208.4,67.4 209.5,67.2 210.4,66.5 C210.6,66.3 210.9,66.3 211.2,66.2 C212.2,66 213,65.6 213.7,64.9 C214,64.6 214.5,64.4 215,64.2 C215,65 215,65.6 215,66.2 C213.3,67.3 211.7,68.5 210,69.4 C208.7,70.1 207.2,70.4 205.8,70.8 C203.2,71.4 200.6,71.6 198,71.4 C196.2,71.2 194.7,70.5 193.6,69.2 Z" id="Shape" fill="#FFFFFF"></path>
                    <path d="M191.3,81.4 C191.3,82.5 191.3,83.6 191.3,84.8 C190.1,85.8 188.7,86.1 187.2,86 C185.3,85.9 183.3,85.6 181.4,85.6 C179.3,85.6 177.4,84.6 175.4,84.1 C175.2,84.1 175,83.9 174.9,83.8 C174.9,82.6 174.9,81.5 174.9,80.2 C176.3,80.7 177.6,81.3 178.9,81.7 C180,82 181.1,82.1 182.2,82.2 C183.2,82.3 184.2,82.3 185.2,82.4 C186.8,82.7 188.4,82.2 189.9,81.8 C190.3,81.7 190.7,81.6 191.3,81.4 Z" id="Shape" fill="#FFFFFF"></path>
                    <path d="M174.9,77.9 C174.9,77.1 174.9,76.1 174.9,75 C180.4,76.5 185.7,76.8 191.2,74.9 C191.2,76.1 191.2,77.2 191.2,78.5 C189.3,79.4 187.3,80.3 185,79.8 C184.3,79.7 183.6,79.6 182.9,79.7 C181.1,80 179.4,79.4 177.8,78.7 C176.9,78.3 176,78.2 174.9,77.9 Z" id="Shape" fill="#FFFFFF"></path>
                    <path d="M215.1,37.3 C215.1,38 215.2,38.7 215.2,39.4 C215,39.6 214.8,39.8 214.6,39.9 C210.7,41.4 206.9,43 202.8,43.8 C201.1,44.2 199.6,43.9 197.9,43.7 C196.2,43.5 194.6,43 193.1,41.8 C193.1,41.3 193.1,40.8 193.1,40.1 C200.9,42.3 208.1,40.8 215.1,37.3 Z" id="Shape" fill="#FFFFFF"></path>
                    <path d="M189.7,172.4 C191,171.8 192.4,171.2 193.7,170.8 C195.2,170.3 196.7,170.1 198.2,169.7 C199.1,169.5 199.9,169.6 200.8,169.9 C202.2,170.3 203.6,170.4 205,170.6 C206.9,170.9 208.9,171.1 210.8,171.4 C211.1,171.4 211.3,171.6 211.6,171.9 C211.1,172.1 210.5,172.4 210,172.5 C207.5,173.1 205,173.3 202.4,173.3 C200.9,173.3 199.4,173.6 197.9,173.6 C195.6,173.6 193.4,173.4 191.1,173.3 C190.6,173.3 190.1,173 189.7,172.9 C189.7,172.6 189.7,172.5 189.7,172.4 Z" id="Shape" fill="#FFFFFF"></path>
                    <path d="M210.7,124.7 C210.7,125.1 210.7,125.7 210.7,126 C210.1,126.8 209.6,127.5 209,128.2 C208.6,128.6 208.2,129 207.8,129.3 C207.4,129.5 206.9,129.7 206.5,129.8 C204.1,130.6 201.7,131.1 199.1,131 C198.2,131 197.3,130.7 196.4,130.5 C195.5,130.3 194.7,130 193.8,129.7 C193.4,129.1 192.9,128.4 191.8,128.8 C191.8,127.9 191.8,127.2 191.8,126.4 C198.5,129.2 204.7,127.9 210.7,124.7 Z" id="Shape" fill="#FFFFFF"></path>
                    <path d="M189.2,127.7 C189.2,128.5 189.3,129.2 189.3,129.8 C188.5,131 187.2,131.3 186.1,131.8 C185.2,132.2 184.2,132.5 183.3,132.8 C181.4,133.4 179.4,133.2 177.5,133.2 C175.3,133.1 173.2,132.7 171.1,131.9 C171.1,131.1 171.1,130.2 171.1,129.1 C172,129.4 172.8,129.6 173.6,129.9 C175.5,130.6 177.3,131 179.3,130.7 C181.6,130.4 183.9,129.9 186.1,128.9 C187,128.4 188,128.1 189.2,127.7 Z" id="Shape" fill="#FFFFFF"></path>
                    <path d="M189.2,116.7 C189.2,117.3 189.2,117.8 189.2,118.3 C188.2,119.1 187.3,119.8 186,120.1 C185.2,120.2 184.4,120.5 183.6,120.8 C181.5,121.6 179.3,121.4 177.2,120.9 C176.4,120.7 175.7,120 175,119.5 C173.9,118.7 172.7,118.2 171.2,118.7 C171.3,117.4 171.5,116.3 171.6,115 C172.4,115.3 173,115.5 173.6,115.9 C178.6,119.1 183.7,118.8 189.2,116.7 Z" id="Shape" fill="#FFFFFF"></path>
                    <path d="M190.8,70.4 C190.8,70.9 190.9,71.4 191,72.1 C189.3,72.7 187.8,73.5 186.1,73.5 C184.7,73.5 183.2,73.5 181.8,73.5 C179.4,73.5 177.2,72.9 175,72 C175,71.5 174.9,71 174.8,70.4 C177.5,71.3 180.2,71 182.8,70.9 C185.3,70.9 188,70.6 190.8,70.4 Z" id="Shape" fill="#FFFFFF"></path>
                    <path d="M243.5,135.6 C246.9,135.6 250.1,135.8 253.3,135.5 C256.5,135.3 259.6,134.5 262.7,133.3 C262.7,133.7 262.7,134.1 262.7,134.5 C261.3,135.6 259.7,136 258,136.1 C256.3,136.3 254.5,136.3 252.8,136.4 C252.6,136.4 252.5,136.4 252.3,136.4 C249.5,137.3 246.8,136.4 244.1,135.9 C244,135.9 243.9,135.8 243.9,135.8 C243.9,136 243.8,135.9 243.5,135.6 Z" id="Shape" fill="#FFFFFF"></path>
                    <path d="M124.1,151.5 C123.2,151.8 122.5,152.1 121.8,152.3 C120.3,152.7 118.9,153.1 117.4,153.5 C116.7,153.7 116,154.1 115.4,154.4 C114.8,154.7 114.3,155.1 113.7,155.3 C109.5,156.8 105.2,158.3 100.8,159.3 C99.5,159.6 98.2,160 97.1,160.6 C95.4,161.5 93.5,161.8 91.7,161.9 C90.8,162 90,162.1 89.3,162.6 C87.7,163.6 85.9,163.6 84.1,164 C84,164 83.9,164 83.9,164 C82.1,163.3 80.1,163 78.6,161.5 C77.6,160.5 76.3,159.7 75.1,159 C74.2,158.4 73.2,157.8 72.5,156.9 C71.9,156.1 71,155.5 70.3,154.9 C69,153.7 67.8,152.4 66.4,151.3 C65.3,150.4 64.1,149.6 62.9,148.8 C62.6,148.6 62.2,148.5 62,148.2 C60.5,146.7 59,145.3 57.7,143.7 C56.3,142 54.5,140.9 52.9,139.3 C52,138.4 51.1,137.5 50.2,136.6 C48.5,134.8 46.8,133 45.2,131.2 C44,129.9 42.7,128.6 41.6,127.2 C40.3,125.4 38.6,124 37.1,122.4 C35.9,121.1 34.7,119.8 33.5,118.4 C32.3,116.9 31.3,115.2 29.7,114.1 C29.5,113.9 29.3,113.6 29.1,113.3 C28.4,112.1 27.6,111 26.9,109.7 C28.8,108.3 31,107.3 33.3,106.5 C34.1,106.2 34.9,106 35.7,105.6 C40.5,103.3 45.6,101.7 50.8,100.5 C51.8,100.3 52.8,99.9 53.8,99.6 C55.7,99 57.7,98.3 59.6,97.8 C61.5,97.3 63.5,97.1 65.5,96.7 C66.8,96.4 68.1,96 69.4,95.7 C70.8,95.4 72.3,95.1 73.7,94.8 C74.7,94.6 75.8,94.6 76.8,94.5 C78.7,94.2 80.5,93.9 82.4,94.3 C82.9,94.4 83.4,94.7 84,94.9 C84.5,95.1 85,95.5 85.5,95.5 C86.6,95.7 87.3,96.3 88,97 C89.4,98.3 90.8,99.5 92.1,100.9 C93.4,102.3 94.7,103.7 95.9,105.2 C98.7,108.8 101.5,112.4 104.3,116 C105.2,117.2 105.9,118.5 106.7,119.7 C108,121.8 109.3,123.8 110.6,125.9 C110.9,126.4 111.3,126.9 111.5,127.4 C112.7,130.4 114.4,133.1 116.1,135.8 C116.8,136.8 117.2,138 117.8,139.1 C118.1,139.7 118.4,140.4 118.8,140.9 C120.5,142.9 121.5,145.3 122.6,147.7 C123,148.6 123.2,149.5 124,150.2 C124.1,150.7 124.1,151.2 124.1,151.5 Z M47.9,120 C48.1,120 48.4,120 48.7,119.9 C50.6,119.3 52.4,118.7 54.2,118 C55.9,117.3 57.4,116.4 59.3,116.2 C59.9,116.1 60.4,115.8 61,115.6 C63.7,114.4 66.3,113.1 69,111.9 C71.6,110.8 74.2,109.7 76.8,108.6 C78.5,107.9 80.3,107.3 81.9,106.2 C83.3,105.3 83.5,104.2 82.7,102.8 C81.8,101.3 80.7,100 79.3,98.8 C78.2,97.9 77.1,97.5 75.7,97.9 C74.4,98.3 73.1,98.7 71.8,99.1 C70,99.7 68.1,100.2 66.3,100.7 C65,101.1 63.7,101.4 62.6,102 C60.5,103.3 58,103.8 55.8,104.8 C54,105.6 52.1,106.2 50.2,106.9 C49.5,107.2 48.7,107.5 48,107.8 C45.3,108.6 42.7,109.8 40.2,111.2 C39.9,111.4 39.5,111.7 39.3,111.9 C38.6,112.6 38.7,113.4 39.5,114 C40,114.4 40.5,114.9 41,115.3 C41.5,115.7 42,116.3 42.6,116.6 C43.5,117.1 44.2,117.7 44.9,118.4 C45.7,119.5 46.6,120 47.9,120 Z M88.9,114.7 C86.3,114.8 83.9,115.7 82,117.3 C80.3,118.6 80.6,119.5 81.8,120.7 C82.4,121.2 82.9,121.9 83.4,122.5 C84.2,123.4 85.1,124.4 85.9,125.3 C86.5,126 87.4,126.1 88.2,125.8 C89.8,125.2 91.3,124.6 92.9,124 C93.7,123.7 94.1,123 94,122.2 C94,121.7 93.8,121.2 93.6,120.7 C92.7,119 91.7,117.4 90.8,115.7 C90.4,115 89.7,114.7 88.9,114.7 Z M60.3,134.7 C60.8,134.6 61.4,134.6 61.8,134.4 C62.9,133.8 63.9,133.2 65.1,133.3 C65.3,133.3 65.5,133.2 65.6,133.1 C66.9,132.4 67.3,131.1 66.6,129.6 C65.9,128.2 65.2,126.9 64.5,125.6 C64.1,124.8 63.4,124.4 62.6,124.4 C60.2,124.4 58,124.8 56,126.2 C54.4,127.3 54,129 55.1,130.7 C55.6,131.6 56.3,132.4 57,133.2 C57.8,134 58.8,134.7 60.3,134.7 Z M74.2,130 C74.9,129.9 76.1,129.8 77.3,129.5 C78.2,129.3 79.1,129.1 79.7,128.2 C80.5,127 80.2,125.9 79.6,124.7 C79,123.6 78.5,122.5 78.1,121.4 C77.5,119.7 76.9,119.3 75.1,119.5 C72.8,119.7 70.9,120.8 69.2,122.3 C67.5,123.7 67.6,123.9 69.1,125.4 C70,126.3 70.8,127.4 71.5,128.5 C72,129.9 72.2,130.1 74.2,130 Z M75.1,139.2 C75,139 75,138.6 74.9,138.4 C73.9,137 72.9,135.5 71.8,134.1 C71.3,133.5 70.5,133.5 69.8,133.8 C68.9,134.2 67.9,134.5 67,134.9 C66,135.5 65.1,136.2 64.2,136.8 C64,137 63.8,137.2 63.6,137.3 C62.1,138.1 61.8,138.7 62.5,140.3 C63.1,141.7 64.2,142.7 65.4,143.6 C66,144.1 66.7,144.2 67.5,144 C69.9,143.5 71.9,142.2 74,141.1 C74.8,140.9 75,140.1 75.1,139.2 Z M72.2,146.6 C71.9,146.6 71.8,146.5 71.6,146.5 C70.5,146.5 69.8,147.4 70.4,148.3 C71.3,149.7 72.4,151.1 73.6,152.3 C74.2,153 75.1,153.1 75.9,152.8 C77.6,152.2 79.2,151.7 80.9,151.1 C82.4,150.6 82.8,149.6 82.2,148.2 C81.7,147 81.2,145.9 80.7,144.7 C80.2,143.5 79.4,143.1 78.1,143.5 C77.4,143.7 76.7,144 76,144.1 C74.3,144.4 73,145.1 72.2,146.6 Z M82.4,128.4 C81.8,128.6 81.2,128.9 80.7,129.1 C79.9,129.4 79.2,129.8 78.4,129.9 C77.4,130.1 76.5,130.3 75.8,131.3 C74.9,132.7 74.7,133 75.9,134.2 C76.9,135.2 78,136.2 79,137.2 C79.6,137.8 80.3,138 81.2,137.8 C82.6,137.4 84,137 85.3,136.6 C86.7,136.1 87,135.4 86.4,134 C85.7,132.6 84.9,131.3 84.6,129.7 C84.2,128.9 83.3,128.5 82.4,128.4 Z M84.1,160.1 C86.6,159.8 88.7,159.1 90.4,157.6 C91.6,156.5 91.7,155.7 90.9,154.3 C90.2,153.3 89.5,152.4 88.8,151.4 C88.3,150.7 87.5,150.3 86.7,150.7 C84.2,151.8 81.4,152.4 79.9,155 C79.4,155.8 79.3,156.4 80,157 C80.9,157.8 81.7,158.6 82.6,159.3 C83,159.7 83.7,159.9 84.1,160.1 Z M102.6,133.2 C102.3,133.3 101.7,133.4 101.2,133.6 C100.7,133.8 100.2,134.1 99.6,134.2 C98.1,134.5 96.9,135.4 95.9,136.5 C95.4,137 95.3,137.6 95.7,138.1 C96.7,139.4 97.7,140.7 98.8,141.9 C99.5,142.7 100.5,142.9 101.6,142.6 C102.7,142.2 103.8,141.8 104.9,141.4 C106.4,140.8 106.9,139.7 106.4,138.2 C106.1,137.3 105.9,136.4 105.7,135.5 C105.4,134 104.5,133.2 102.6,133.2 Z M96.9,133.7 C99.1,133.9 100,132.7 99.2,130.6 C98.8,129.5 98.5,128.5 98.2,127.4 C97.7,125.5 96.8,125.1 95,125.8 C94.4,126 93.9,126.3 93.3,126.3 C91.9,126.3 90.7,126.7 89.7,127.6 C88.7,128.4 88.6,128.9 89.3,129.9 C90,130.9 90.6,131.9 91.3,132.8 C92.3,134.2 93.8,134.6 95.4,134 C95.9,134 96.4,133.9 96.9,133.7 Z M84.7,140.3 C84.7,140.2 84.7,140.2 84.6,140.1 C84.4,140.1 84.2,140 84,140 C82.9,140 82.3,140.6 82.5,141.6 C82.6,142 82.7,142.4 82.9,142.7 C83.9,144 85,145.3 86.1,146.6 C86.7,147.3 87.7,147.5 88.5,147.2 C89.8,146.7 91.2,146.1 92.4,145.4 C93.5,144.8 93.6,143.8 93,142.7 C92.4,141.6 91.8,140.5 91.3,139.4 C90.9,138.4 90.2,138 89.2,138.3 C88.5,138.5 87.8,139 87.1,139.2 C86.5,139.7 85.6,140 84.7,140.3 Z M93.1,147.2 C93.1,147.3 93.2,147.3 93.2,147.4 C93,147.4 92.9,147.5 92.7,147.5 C92.1,147.6 91.7,147.9 91.6,148.5 C91.5,149.1 91.8,149.6 92.3,149.9 C93.3,150.6 94.4,151.3 95.4,152.1 C96.6,153.1 97.8,153.1 99.1,152.6 C99.8,152.3 100.5,152.1 101.2,152 C102.9,151.7 103.3,150.8 102.4,149.3 C101.8,148.3 101.2,147.2 100.8,146.1 C100.2,144.7 99.6,144.3 98.1,145 C97,145.5 95.9,145.9 94.8,146.4 C94.1,146.6 93.6,146.9 93.1,147.2 Z M105.5,144 C104.3,144.9 104.2,145.4 105.1,146.6 C105.4,147.1 105.8,147.6 106.2,148 C107.4,149.6 108.2,149.7 110,148.8 C110.9,148.4 111.8,147.9 112.7,147.6 C114.3,147.1 114.7,146.4 113.9,144.9 C113.5,144.1 113,143.4 112.7,142.6 C112.2,141.1 111.6,140.8 110.1,141.3 C109.2,141.6 108.2,142 107.3,142.2 C105.9,142.6 105.8,142.6 105.5,144 Z" id="Shape" fill="#FFFFFF"></path>
                    <path d="M95.3,100.3 C95.4,99.8 95.4,99.3 95.6,98.9 C95.9,97.8 96,96.6 96.5,95.5 C98,91.8 98.8,88 99.5,84.2 C99.6,83.8 99.6,83.4 99.7,82.9 C100.7,83.1 101.7,83.2 102.5,83.5 C105,84.3 107.5,85.1 110,86.1 C115.5,88.3 120.6,91.2 125.7,94.1 C127.1,94.9 128.5,96 129.8,97 C129.4,104.5 128.4,112 128.8,119.8 C127.3,119 125.9,118.4 124.7,117.6 C121.6,115.8 118.1,115 114.6,114.4 C113.5,114.2 112.4,114.2 111.4,114 C110.3,113.8 109.2,113.6 108.2,113.2 C107.2,112.9 106.2,112.5 105.2,113 C101.8,108.8 98.6,104.6 95.3,100.3 Z" id="Shape" fill="#FFFFFF"></path>
                    <path d="M41.3,146.6 C44.8,148.9 48.3,151.1 51.7,153.4 C52.5,153.9 53.2,154.6 53.9,155.2 C54.9,156.2 55.8,157.2 56.8,158.3 C56.3,158.5 55.6,158.8 55,159 C52.7,160.1 50.4,161.2 48,162.2 C47.1,162.6 46.2,162.8 45.2,162.9 C43.6,163 41.9,163 40.3,163 C34.8,163.2 29.4,163.3 23.9,163.1 C22,163 20,163.5 18.1,163.6 C14.7,163.8 11.4,164.7 8.1,165.3 C7.5,165.4 6.8,165.4 6.1,165.5 C6,165.1 5.9,164.9 5.9,164.7 C5.2,160.2 4.4,155.8 3.7,151.3 C3.6,150.7 3.6,150.2 3.6,149.6 C3.6,148.5 3.8,148.3 5,148.1 C8.2,147.6 11.3,147 14.5,146.6 C19.1,146 23.7,144.9 28.4,145.3 C32.2,145.6 36,146 39.9,146.3 C40.4,146.3 40.9,146.3 41.3,146.3 C41.2,146.4 41.2,146.5 41.3,146.6 Z" id="Shape" fill="#FFFFFF"></path>
                    <path d="M123.2,154.5 C122.9,155.6 122.7,156.5 121.8,157.2 C120.6,158.1 119.4,158.8 118.1,159.6 C117.1,160.2 116.1,160.6 115.2,161.2 C113.4,162.4 111.4,163.3 109.3,163.7 C108.8,163.8 108.4,164 108,164.3 C105.4,165.8 102.7,166.6 99.8,166.9 C97.7,167.1 95.6,167.8 93.5,168.2 C92.8,168.4 92.1,168.5 91.4,168.6 C89.6,168.9 87.7,169.2 85.9,169.7 C83.9,170.2 82,170.2 80.1,169.3 C77.4,168.1 74.8,166.9 72.3,165.5 C70.2,164.3 68.3,162.9 66.6,161.1 C65.3,159.8 63.8,158.7 62.1,158.1 C59.8,157.3 58,155.8 56.4,154 C55.3,152.8 54.2,151.7 52.8,150.9 C47.2,147.8 42.2,143.8 37.3,139.6 C35.2,137.8 33.5,135.6 31.7,133.6 C30,131.7 28.3,129.7 26.6,127.7 C26.3,127.3 25.8,127 25.3,126.6 C24.4,122 25.4,117.3 25.7,112.6 C25.8,112.6 25.9,112.5 26,112.5 C26.3,113.1 26.7,113.6 27,114.2 C27.5,115.2 28.1,116.1 29.1,116.8 C29.9,117.4 30.6,118.3 31.1,119.1 C32.7,121.7 34.8,123.7 36.9,125.7 C38.3,127.1 39.5,128.6 40.8,130.1 C41.8,131.2 42.8,132.2 43.8,133.2 C45.5,135 47.2,136.7 48.7,138.6 C50.3,140.6 52.3,142.1 54.2,143.7 C54.5,144 54.8,144.2 55.1,144.5 C56.5,146.1 58,147.6 59.4,149.2 C60.7,150.6 62.4,151.5 63.9,152.5 C64.1,152.7 64.4,152.8 64.6,152.9 C66.3,154.5 67.9,156 69.6,157.6 C71.3,159.1 72.8,160.8 74.9,161.8 C75.6,162.1 76.2,162.7 76.8,163.2 C77.8,163.9 78.7,164.7 79.7,165.3 C80.3,165.6 80.9,165.8 81.6,166 C81.8,166.1 82,166 82.2,166.1 C83.4,166.8 84.6,166.7 85.9,166.4 C87.7,166.1 89.4,165.7 91,164.8 C91.9,164.3 93.1,164.3 94.1,164.2 C95.5,164.1 96.7,163.7 98,163.1 C99.3,162.5 100.7,162 102.2,161.6 C104.3,160.9 106.5,160.4 108.6,159.7 C110.6,159.1 112.5,158.4 114.5,157.8 C115.1,157.6 115.9,157.4 116.3,157 C117.5,156 118.9,155.8 120.4,155.4 C121.1,155.1 122.1,154.8 123.2,154.5 Z" id="Shape" fill="#FFFFFF"></path>
                    <path d="M59.5,159.8 C61.7,160.6 63.7,161.8 65.3,163.5 C67,165.3 69.1,166.8 71.4,167.9 C71.8,168.1 72.2,168.3 72.7,168.6 C71.5,169.2 70.5,169.8 69.4,170.2 C67.3,170.9 65.4,172 63.5,173.1 C61.3,174.4 59,175.7 56.8,177 C56.2,177.3 55.6,177.7 55.1,178.1 C50,182.1 45.1,186.4 40.8,191.2 C40.6,191.4 40.4,191.6 40.2,191.8 C40,192 39.8,192.1 39.6,192.2 C33.9,188 28.3,183.9 22.5,179.7 C22.7,179.5 22.8,179.3 22.9,179.2 C25.4,177.6 27.9,176.1 30.4,174.5 C34.2,172 38.4,170.2 42.5,168.2 C44,167.4 45.4,166.6 46.9,165.8 C47.5,165.5 48.1,165.3 48.7,165 C49,164.9 49.4,164.8 49.5,164.6 C50.3,163.3 51.6,163 52.9,162.4 C54.3,161.8 55.7,161.3 57.1,160.7 C58,160.5 58.7,160.2 59.5,159.8 Z" id="Shape" fill="#FFFFFF"></path>
                    <path d="M135.5,65.9 C135.6,65.1 135.6,64.3 135.7,63.5 C138.7,63.6 141.6,63.7 144.5,63.7 C147.4,63.7 150.2,62.9 152.9,61.9 C153.2,61.8 153.6,61.6 153.9,61.5 C156,61.2 157.6,60.1 159.2,58.9 C159.3,58.8 159.5,58.7 159.6,58.6 C159.7,58.6 159.8,58.6 160,58.6 C159.8,59.7 159.7,60.8 159.6,61.9 C159.5,62.6 159.3,63.3 159.2,64 C158.9,65.6 158,66.7 156.5,67.2 C153.1,68.2 149.7,69.3 146.1,69 C145.3,68.9 144.4,69 143.6,69 C142.3,69 141.1,68.8 140.1,68.1 C140,68 139.8,67.9 139.7,67.9 C138.2,68 137.3,67.1 136.3,66.2 C135.9,66.1 135.8,66 135.5,65.9 Z" id="Shape" fill="#FFFFFF"></path>
                    <path d="M136.5,53.7 C138.5,53.5 140.2,54 141.8,54.9 C143.7,55.9 145.7,56.1 147.6,55.8 C150.1,55.4 152.5,54.7 154.9,54.1 C156.7,53.6 158.5,52.9 160.1,51.6 C160.1,52.2 160,52.8 160,53.4 C160,54 160,54.6 160,55.2 C158.4,56.3 156.9,57.3 155.4,58.3 C155.1,58.5 154.8,58.6 154.5,58.7 C152.7,59.3 150.9,60 149,60.4 C146.8,60.9 144.6,61.3 142.2,61.2 C140.5,61.1 138.8,61.1 137.2,61.1 C136.1,61.1 135.7,60.7 135.8,59.5 C136.1,57.6 136.3,55.7 136.5,53.7 Z" id="Shape" fill="#FFFFFF"></path>
                    <path d="M137.6,42.7 C137.7,41.6 137.7,40.6 137.8,39.5 C146.2,41.3 154.3,41.6 162,36.4 C161.9,37.4 161.7,38.2 161.7,39 C161.8,41.4 160.1,42.4 158.5,43.5 C157.9,43.9 157.3,44.1 156.7,44.4 C154.8,45.2 152.8,45.5 150.8,45.8 C148.4,46.2 146,45.8 143.7,45.4 C142.9,45.2 142.1,44.8 141.3,44.4 C140.5,44 139.6,43.7 138.8,43.3 C138.4,43.2 138.1,43 137.6,42.7 Z" id="Shape" fill="#FFFFFF"></path>
                    <path d="M155.3,102.3 C153.2,103.3 151.3,104.3 149.4,105.2 C148.8,105.5 148,105.5 147.3,105.6 C144.2,106 141.1,105.6 138.1,104.7 C136.9,104.3 135.8,103.6 134.9,102.7 C134.1,101.9 133.2,101.2 132.1,100.3 C132.2,99.6 132.3,98.7 132.5,97.6 C133.9,98.3 135.2,98.9 136.4,99.4 C139,100.6 141.7,101.1 144.6,100.5 C146,100.2 147.5,99.9 148.9,99.6 C149.2,99.5 149.4,99.5 149.7,99.3 C151.4,98.5 153.1,97.7 154.8,96.9 C155,96.8 155.1,96.8 155.5,96.6 C155.4,98.6 155.6,100.5 155.3,102.3 Z" id="Shape" fill="#FFFFFF"></path>
                    <path d="M163.1,9.9 C163.3,11.2 163.5,12.4 163.6,13.6 C159.6,16.1 155.6,18 150.9,17.8 C150.5,17.8 150,17.8 149.6,17.8 C147.3,18.1 145.3,17.5 143.2,16.6 C141.9,16 140.6,15.4 139.5,14.5 C138.5,13.8 137.8,12.9 138.1,11.7 C146.5,13.1 154.8,13.3 163.1,9.9 Z" id="Shape" fill="#FFFFFF"></path>
                    <path d="M163.7,16.5 C163.7,18 163.7,19.3 163.7,20.7 C162.8,21.6 161.6,22.2 160.3,22.6 C157,23.6 153.7,24.4 150.2,24.7 C148.4,24.9 146.5,24.5 144.7,24.4 C142.4,24.3 140.5,23.2 138.5,22.2 C138.5,20.4 138.5,18.7 138.5,16.9 C138.6,16.9 138.7,16.9 138.8,16.9 C139.8,17.7 141,18.1 142.2,18.7 C144.6,19.9 147.1,20.4 149.7,20.2 C151.5,20 153.4,19.9 155.2,19.8 C157.9,19.5 160.3,18.3 162.6,17 C162.9,16.8 163.3,16.7 163.7,16.5 Z" id="Shape" fill="#FFFFFF"></path>
                    <path d="M138.8,8.5 C139.5,7.9 140.1,7.4 140.7,6.9 C142.8,5.4 145.3,5 147.7,4.3 C150.9,3.5 154.1,3.4 157.3,3.3 C159,3.2 161.2,3.9 162.8,4.9 C163,6 162.6,6.8 161.6,7.4 C159.5,8.6 157.1,9.1 154.8,9.4 C150.4,10 145.9,10 141.4,9.4 C140.5,9.5 139.6,9.5 138.8,8.5 Z" id="Shape" fill="#FFFFFF"></path>
                    <path d="M132.8,94.9 C133,93.1 133.2,91.2 133.4,89.1 C135.8,91.7 138.9,91.7 141.8,92.4 C142,92.5 142.3,92.4 142.5,92.4 C143.8,92.2 145.2,92 146.5,91.9 C147.4,91.8 148.3,91.9 149.1,92.1 C150.3,92.3 151.3,92.2 152.3,91.7 C153.3,91.2 154.3,91 155.4,90.6 C155.6,91.9 155.5,93 154.4,93.8 C153.3,94.6 152.3,95.6 150.8,95.7 C150.6,95.7 150.3,95.8 150.1,96 C147.6,97.7 144.7,97.9 141.9,98.1 C139.7,98.3 137.6,97.3 135.7,96.3 C134.8,95.9 133.9,95.4 132.8,94.9 Z" id="Shape" fill="#FFFFFF"></path>
                    <path d="M162.9,30 C162.8,31.1 162.7,32 162.5,32.8 C162.4,33.2 162,33.6 161.6,33.8 C159.8,34.8 158,35.7 156.2,36.6 C154.5,37.5 152.5,37.8 150.6,38 C147.3,38.3 143.9,38.3 140.6,37.4 C140.5,37.4 140.4,37.3 140.3,37.3 C137.8,36.8 137.8,36.8 137.7,34.2 C137.7,33.6 137.7,32.9 137.7,32.2 C137.9,32.2 138.1,32.2 138.2,32.2 C140.8,33.4 143.6,33.6 146.4,33.3 C149.8,32.9 153.2,32.7 156.6,32.2 C158.1,32 159.6,31.1 161.1,30.5 C161.7,30.5 162.2,30.3 162.9,30 Z" id="Shape" fill="#FFFFFF"></path>
                    <path d="M134.3,80.6 C134.4,78.7 134.6,77 134.7,75.1 C135.1,75.3 135.4,75.4 135.6,75.6 C138.2,77.5 141.1,78.4 144.2,78.8 C146,79 147.9,78.4 149.8,78.3 C152,78.2 154,77.3 155.9,76.3 C156,76.2 156.2,76.2 156.3,76.1 C156.4,76.1 156.5,76.1 156.8,76.1 C156.6,77.5 156.7,78.9 156.2,80.1 C155.9,80.9 154.8,81.5 153.9,82 C152.8,82.6 151.6,83 150.3,83.1 C149.3,83.1 148.3,83.6 147.3,83.6 C145.5,83.7 143.7,83.6 141.9,83.5 C141.7,83.5 141.6,83.5 141.4,83.4 C139.6,82.3 137.4,82.2 135.5,81.3 C135,81.1 134.7,80.9 134.3,80.6 Z" id="Shape" fill="#FFFFFF"></path>
                    <path d="M137.4,45.5 C139,46.2 140.3,46.8 141.7,47.4 C142,47.5 142.3,47.7 142.6,47.8 C144.3,48.1 146.1,48.5 147.8,48.5 C149.9,48.5 151.9,48.3 154,47.9 C156.5,47.5 158.7,46.3 161.1,45.2 C160.9,46.2 160.8,47.1 160.7,47.9 C157.9,50.4 154.8,52 151.2,52.4 C150.4,52.5 149.6,52.9 148.8,53.1 C146.5,53.5 144.4,53.2 142.3,52.2 C141.1,51.6 139.7,51.4 138.3,51.1 C137.9,50.7 137.6,50.3 137.2,49.8 C137,48.5 137.2,47.2 137.4,45.5 Z" id="Shape" fill="#FFFFFF"></path>
                    <path d="M163.7,24.2 C163.6,25.2 163.6,26.1 163.5,27.1 C163.1,27.3 162.7,27.5 162.4,27.6 C161.2,28.1 160,28.5 158.8,29 C156,30.2 153.1,30.5 150.2,30.6 C149.9,30.6 149.6,30.6 149.4,30.7 C147.4,31.2 145.4,31.2 143.4,31.2 C141.5,31.1 139.8,30.6 138.1,29.5 C138.2,28.2 138.3,26.8 138.4,25.1 C139,25.4 139.4,25.6 139.8,25.7 C141,26.1 142.2,26.6 143.4,26.8 C145.2,27.1 147,27.2 148.9,27.4 C149.3,27.4 149.8,27.5 150.2,27.4 C154.7,26.7 159.2,25.9 163.4,24.2 C163.4,24.1 163.5,24.2 163.7,24.2 Z" id="Shape" fill="#FFFFFF"></path>
                    <path d="M158,69.4 C157.8,70.6 157.6,71.6 157.4,72.6 C155.7,73.4 154.2,74.4 152.5,75.1 C151.3,75.6 149.9,75.7 148.5,75.9 C148.3,75.9 148.2,75.9 148,76 C144,77 140.5,75.6 137.1,73.6 C137,73.6 137,73.5 136.9,73.5 C134.7,72 134.7,72 135.3,69.2 C135.6,69.4 135.9,69.5 136.2,69.6 C136.9,69.9 137.7,70.1 138.4,70.4 C138.6,70.5 138.8,70.4 139,70.5 C141,71.7 143.3,71.6 145.5,71.5 C146.2,71.5 146.9,71.5 147.7,71.5 C149.8,71.5 151.9,71 153.9,70.5 C155.2,70.2 156.5,69.9 158,69.4 Z" id="Shape" fill="#FFFFFF"></path>
                    <path d="M133.5,86 C133.6,85.2 133.7,84.4 133.9,83.5 C134.5,83.7 135,83.9 135.5,84.1 C137.1,84.7 138.6,85.2 140.2,85.8 C140.7,86 141.2,86.1 141.7,86.1 C143.8,86.1 146,86.2 148.1,86.1 C148.6,86.1 149.2,85.9 149.7,85.8 C149.8,85.8 149.9,85.7 150,85.7 C152,85.7 153.9,84.9 155.8,83.9 C155.7,85.1 155.7,86 155.6,86.9 C155.5,87.8 154.7,88.1 154.1,88.4 C153,88.9 151.9,89.3 150.7,89.7 C150.3,89.8 149.8,89.8 149.3,89.7 C147,89.3 144.7,89.4 142.4,89.9 C142.1,90 141.8,90 141.6,89.9 C140.1,89.6 138.6,89.2 137.2,88.8 C136.2,88.5 135.6,87.9 135,87.1 C134.7,86.6 134.1,86.3 133.6,86 C133.7,86 133.6,86 133.5,86 Z" id="Shape" fill="#FFFFFF"></path>
                    <path d="M154.7,109.7 C154.9,112.3 153.3,114.4 150.8,114.7 C150.1,114.8 149.3,115 148.6,115.1 C145.7,115.7 142.9,115.6 140,115 C139.6,114.9 139.2,114.8 138.8,114.8 C136.9,115.1 135.3,114.2 133.6,113.6 C132.7,113.3 132,112.5 131.2,112 C131.2,111.3 131.3,110.7 131.3,110.1 C133.7,110.7 135.9,111.4 138.2,111.9 C139.4,112.2 140.6,112.3 141.9,112.4 C144,112.4 146.1,112.6 148.1,112.2 C150.4,111.9 152.7,111.2 154.7,109.7 Z" id="Shape" fill="#FFFFFF"></path>
                    <path d="M131.3,117.9 C131.3,117.2 131.3,116.4 131.3,115.5 C132.6,116 133.9,116.5 135.2,117 C135.7,117.2 136.2,117.4 136.7,117.4 C138.8,117.6 141,117.9 143.1,118 C144.8,118.1 146.6,118 148.3,117.7 C150.3,117.4 152.2,116.9 154.2,116.5 C154.1,117.3 153.4,117.7 152.8,118.3 C150.8,120.5 148.2,121.2 145.5,121 C141.9,120.7 138.3,120.2 134.8,119.2 C134.3,119.1 133.9,118.8 133.5,118.7 C132.9,118.4 132.2,118.2 131.3,117.9 Z" id="Shape" fill="#FFFFFF"></path>
                    <path d="M155.3,105.2 C155.2,105.9 155.2,106.3 155.2,106.5 C153.9,107.2 152.7,108 151.5,108.6 C148.4,110.1 145,110 141.7,109.9 C139.1,109.8 136.8,108.7 134.3,108.4 C133.5,108.3 133,107.8 132.7,107.1 C132.5,106.7 132.2,106.3 132,105.9 C132,105.2 132,104.4 132,103.5 C132.3,103.7 132.5,103.8 132.7,103.9 C134.7,106.3 137.5,107.2 140.5,107.8 C143.5,108.4 146.5,108.3 149.4,107.8 C150.2,107.7 150.9,107.2 151.6,106.9 C152.7,106.4 153.8,105.9 155.3,105.2 Z" id="Shape" fill="#FFFFFF"></path>
                    <path d="M153.9,121.3 C153.8,121.5 153.7,121.9 153.5,122 C152.8,122.5 152,123 151.2,123.3 C149.2,123.9 147.2,124.3 145.3,124.8 C140.6,126 136,125.3 131.5,123.7 C131.5,122.7 131.5,121.6 131.5,120.5 C135.6,122.7 140.2,122.9 144.7,123.5 C147.9,123.9 151.1,123.3 153.8,121.2 C153.8,121.1 153.8,121.2 153.9,121.3 Z" id="Shape" fill="#FFFFFF"></path>
                    <path d="M153.5,125.2 C153.4,126.9 152.7,127.5 151.1,127.6 C150,127.7 148.8,127.7 147.9,128.3 C145.6,129.6 143.2,129.5 140.7,129.5 C138,129.5 135.6,128.7 133.2,127.7 C132.7,127.5 132.1,127.4 131.5,127.2 C131.5,127.1 131.4,126.8 131.4,126.5 C131.6,126.5 131.7,126.4 131.8,126.4 C134.1,127.1 136.4,127.6 138.8,127.8 C142,128.1 145.1,127.4 148.1,126.7 C150,126.2 151.7,125.7 153.5,125.2 Z" id="Shape" fill="#FFFFFF"></path>
                    <path d="M131.8,129.7 C135.6,131.8 139.6,132.2 143.7,132.1 C140.5,132.7 137.4,133.9 134.1,132.9 C132.1,132.3 131.8,132 131.8,129.7 Z" id="Shape" fill="#FFFFFF"></path>
                    <path d="M151.6,130.5 C149.7,131 147.7,131.6 145.8,132.1 C147.7,131.3 149.4,129.8 151.6,130.2 C151.6,130.3 151.6,130.4 151.6,130.5 Z" id="Shape" fill="#FFFFFF"></path>
                    <path d="M47.9,120 C46.7,120 45.7,119.5 45,118.7 C44.3,118 43.6,117.3 42.7,116.9 C42.1,116.6 41.6,116.1 41.1,115.6 C40.6,115.2 40.1,114.7 39.6,114.3 C38.8,113.7 38.7,112.9 39.4,112.2 C39.7,111.9 40,111.7 40.3,111.5 C42.7,110 45.3,108.9 48.1,108.1 C48.9,107.9 49.6,107.5 50.3,107.2 C52.2,106.5 54.1,105.9 55.9,105.1 C58.2,104.1 60.6,103.6 62.7,102.3 C63.8,101.6 65.1,101.3 66.4,101 C68.2,100.4 70.1,99.9 71.9,99.4 C73.2,99 74.5,98.6 75.8,98.2 C77.2,97.8 78.4,98.2 79.4,99.1 C80.8,100.2 81.9,101.5 82.8,103.1 C83.6,104.5 83.3,105.6 82,106.5 C80.4,107.6 78.6,108.1 76.9,108.9 C74.3,110 71.7,111.1 69.1,112.2 C66.4,113.4 63.7,114.7 61.1,115.9 C60.6,116.1 60,116.4 59.4,116.5 C57.6,116.7 56,117.6 54.3,118.3 C52.5,119 50.6,119.6 48.8,120.2 C48.4,120 48.1,120 47.9,120 Z M80.5,104.1 C80.2,103.6 80.1,103.4 79.9,103.1 C79.4,102.5 79,102 78.5,101.5 C77.2,100.2 76.5,100.2 74.7,100.9 C72.5,101.7 70.2,102.4 68,103.1 C66.9,103.4 65.7,103.6 64.7,104.1 C62.3,105.1 60,106.2 57.6,107.2 C55.1,108.2 52.5,109.2 49.9,110.2 C49.6,110.3 49.4,110.4 49.1,110.5 C47.7,111 46.2,111.4 44.8,112 C44,112.3 43.2,112.9 42.3,113.4 C42.9,113.9 43.3,114.5 43.8,114.8 C44.9,115.4 45.9,116.1 46.7,117 C47,117.4 47.7,117.7 48.2,117.5 C49.9,117 51.6,116.4 53.3,115.8 C54.8,115.2 56.2,114.2 57.9,114.1 C58.7,114 59.5,113.7 60.3,113.4 C62.9,112.2 65.4,111 68,109.9 C71.4,108.4 74.9,107 78.4,105.6 C79,105 79.7,104.6 80.5,104.1 Z" id="Shape" fill="#000000"></path>
                    <path d="M88.9,114.7 C89.7,114.7 90.4,115 90.8,115.7 C91.8,117.4 92.7,119 93.6,120.7 C93.8,121.1 94,121.7 94,122.2 C94.1,123 93.7,123.7 92.9,124 C91.3,124.6 89.8,125.2 88.2,125.8 C87.4,126.1 86.5,126 85.9,125.3 C85,124.4 84.2,123.4 83.4,122.5 C82.9,121.9 82.4,121.3 81.8,120.7 C80.6,119.5 80.3,118.7 82,117.3 C83.9,115.7 86.3,114.8 88.9,114.7 Z M91.4,121.8 C90.5,120.2 89.6,118.7 88.7,117.2 C86.9,117.4 85.4,118 83.9,119 C84.5,119.8 85.1,120.6 85.7,121.3 C86.3,122 86.9,122.7 87.5,123.4 C88.8,122.8 90,122.4 91.4,121.8 Z" id="Shape" fill="#000000"></path>
                    <path d="M60.3,134.7 C58.9,134.7 57.8,134 57,133 C56.3,132.2 55.7,131.4 55.1,130.5 C54,128.8 54.4,127.2 56,126 C58,124.6 60.2,124.2 62.6,124.2 C63.4,124.2 64.1,124.7 64.5,125.4 C65.2,126.7 66,128 66.6,129.4 C67.3,130.9 67,132.1 65.6,132.9 C65.4,133 65.2,133.1 65.1,133.1 C63.8,133 62.8,133.7 61.8,134.2 C61.3,134.6 60.8,134.6 60.3,134.7 Z M64.2,130.4 C63.5,129.2 62.9,128 62.2,126.8 C60.3,126.9 58.4,127.2 56.8,128.7 C57.6,129.7 58.4,130.7 59.2,131.6 C59.7,132.2 60.4,132.2 61.2,131.9 C62.1,131.4 63.1,130.9 64.2,130.4 Z" id="Shape" fill="#000000"></path>
                    <path d="M74.2,130 C72.2,130.1 72,129.9 71.2,128.6 C70.5,127.5 69.7,126.4 68.8,125.5 C67.3,123.9 67.3,123.8 68.9,122.4 C70.6,120.9 72.5,119.9 74.8,119.6 C76.6,119.4 77.2,119.8 77.8,121.5 C78.2,122.6 78.7,123.8 79.3,124.8 C80,126 80.2,127.1 79.4,128.3 C78.8,129.2 77.9,129.3 77,129.6 C76.1,129.8 74.9,129.9 74.2,130 Z M77.5,126.8 C76.7,125.1 76,123.6 75.3,122.1 C73.7,122.4 72.2,122.6 71.2,124.1 C72,125.2 72.8,126.3 73.7,127.5 C74.9,127.3 76.2,127 77.5,126.8 Z" id="Shape" fill="#000000"></path>
                    <path d="M75.1,139.2 C75,140.1 74.8,140.9 74.1,141.2 C72,142.3 70,143.6 67.6,144.1 C66.8,144.3 66.1,144.2 65.5,143.7 C64.3,142.8 63.2,141.8 62.6,140.4 C61.9,138.8 62.1,138.2 63.7,137.4 C63.9,137.3 64.1,137 64.3,136.9 C65.2,136.2 66.1,135.5 67.1,135 C68,134.5 68.9,134.2 69.9,133.9 C70.6,133.6 71.4,133.6 71.9,134.2 C73,135.6 74,137 75,138.5 C75,138.7 75,139 75.1,139.2 Z M70.5,136.6 C68.2,137 66.5,138.2 64.8,139.5 C65.2,140.5 66,141.1 66.9,141.8 C69,141.5 70.6,140.4 72.4,139.4 C71.7,138.3 71.1,137.4 70.5,136.6 Z" id="Shape" fill="#000000"></path>
                    <path d="M72.2,146.6 C73,145.1 74.3,144.5 75.9,144.2 C76.6,144.1 77.3,143.8 78,143.6 C79.3,143.2 80.1,143.6 80.6,144.8 C81.1,146 81.6,147.1 82.1,148.3 C82.7,149.7 82.3,150.7 80.8,151.2 C79.2,151.8 77.5,152.3 75.8,152.9 C74.9,153.2 74,153.1 73.5,152.4 C72.4,151.1 71.3,149.8 70.3,148.4 C69.7,147.5 70.4,146.6 71.5,146.6 C71.8,146.5 72,146.5 72.2,146.6 Z M79.5,148.8 C79.1,147.9 78.7,147 78.3,146.1 C76.6,146.8 74.4,146.5 73.9,149.2 C74.2,149.5 74.6,150 75,150.4 C76.6,149.8 78,149.3 79.5,148.8 Z" id="Shape" fill="#000000"></path>
                    <path d="M82.4,128.4 C83.4,128.5 84.2,128.9 84.4,129.8 C84.8,131.3 85.6,132.7 86.2,134.1 C86.9,135.4 86.6,136.2 85.1,136.7 C83.7,137.2 82.4,137.5 81,137.9 C80.2,138.1 79.5,137.9 78.8,137.3 C77.8,136.3 76.7,135.3 75.7,134.3 C74.5,133.1 74.7,132.8 75.6,131.4 C76.3,130.4 77.1,130.2 78.2,130 C79,129.8 79.8,129.5 80.5,129.2 C81.2,128.9 81.8,128.6 82.4,128.4 Z M82.1,131.4 C80.7,131.9 79.3,132.3 77.8,132.8 C78.7,133.7 79.6,134.5 80.6,135.4 C81.6,135.1 82.5,134.9 83.5,134.6 C83,133.4 82.5,132.3 82.1,131.4 Z" id="Shape" fill="#000000"></path>
                    <path d="M84.1,160.1 C83.7,159.9 83.1,159.7 82.5,159.3 C81.6,158.6 80.7,157.8 79.9,157 C79.2,156.4 79.3,155.8 79.8,155 C81.3,152.4 84.1,151.8 86.6,150.7 C87.4,150.3 88.2,150.7 88.7,151.4 C89.4,152.3 90.2,153.3 90.8,154.3 C91.7,155.6 91.5,156.5 90.3,157.6 C88.7,159.1 86.6,159.8 84.1,160.1 Z M82.2,155.9 C82.7,156.3 83.1,156.6 83.6,156.9 C83.9,157.1 84.3,157.4 84.6,157.4 C86.1,157.2 87.4,156.7 88.7,155.7 C88.1,154.9 87.5,154.1 86.9,153.3 C85.4,154.1 83.7,154.4 82.2,155.9 Z" id="Shape" fill="#000000"></path>
                    <path d="M102.6,133.2 C104.4,133.2 105.4,134 105.7,135.5 C105.9,136.4 106.1,137.3 106.4,138.2 C106.9,139.8 106.4,140.8 104.9,141.4 C103.8,141.8 102.7,142.3 101.6,142.6 C100.6,143 99.6,142.7 98.8,141.9 C97.7,140.7 96.7,139.4 95.7,138.1 C95.3,137.6 95.4,137 95.9,136.5 C97,135.5 98.1,134.5 99.6,134.2 C100.1,134.1 100.6,133.8 101.2,133.6 C101.8,133.5 102.3,133.3 102.6,133.2 Z M98.4,137.5 C99.3,138.6 99.9,139.4 100.5,140.1 C101.8,139.7 102.9,139.3 104.1,138.9 C103.8,137.8 103.6,136.8 103.3,135.7 C101.5,136.3 100.1,136.8 98.4,137.5 Z" id="Shape" fill="#000000"></path>
                    <path d="M96.9,133.7 C96.4,133.8 95.9,133.9 95.4,134.1 C93.8,134.7 92.3,134.3 91.3,132.9 C90.6,131.9 89.9,130.9 89.3,130 C88.6,129 88.8,128.4 89.7,127.7 C90.8,126.8 91.9,126.4 93.3,126.4 C93.9,126.4 94.4,126.1 95,125.9 C96.8,125.2 97.7,125.7 98.2,127.5 C98.5,128.6 98.8,129.6 99.2,130.7 C99.9,132.7 99.1,133.9 96.9,133.7 Z M95.8,128.4 C94.4,128.7 93.2,128.9 91.8,129.1 C92.3,129.9 92.7,130.6 93.1,131.2 C93.4,131.7 93.8,131.9 94.4,131.7 C95.1,131.5 95.7,131.3 96.5,131 C96.3,130.2 96.1,129.3 95.8,128.4 Z" id="Shape" fill="#000000"></path>
                    <path d="M84.7,140.3 C85.6,140 86.5,139.7 87.4,139.4 C88.1,139.1 88.7,138.7 89.5,138.5 C90.5,138.2 91.1,138.6 91.6,139.6 C92.1,140.7 92.7,141.8 93.3,142.9 C93.9,144 93.8,145 92.7,145.6 C91.4,146.3 90.1,146.8 88.8,147.4 C87.9,147.7 87,147.6 86.4,146.8 C85.3,145.6 84.2,144.3 83.2,142.9 C83,142.6 82.9,142.2 82.8,141.8 C82.6,140.8 83.2,140.1 84.3,140.2 C84.5,140.2 84.7,140.2 84.9,140.3 C84.7,140.2 84.7,140.2 84.7,140.3 Z M90.6,143.6 C90.2,142.8 89.8,142 89.4,141.3 C88.3,141.8 87.3,142.2 86.2,142.7 C86.8,143.4 87.4,144.1 88,144.8 C88.9,144.4 89.6,144 90.6,143.6 Z" id="Shape" fill="#000000"></path>
                    <path d="M93.1,147.2 C93.6,146.9 94.1,146.6 94.7,146.3 C95.8,145.8 96.9,145.4 98,144.9 C99.5,144.3 100.1,144.6 100.7,146 C101.2,147.1 101.7,148.2 102.3,149.2 C103.2,150.7 102.8,151.6 101.1,151.9 C100.4,152 99.7,152.2 99,152.5 C97.7,153 96.5,153 95.3,152 C94.3,151.2 93.2,150.5 92.2,149.8 C91.7,149.5 91.4,149 91.5,148.4 C91.6,147.8 92,147.5 92.6,147.4 C92.8,147.4 92.9,147.3 93.1,147.3 C93.1,147.3 93.1,147.2 93.1,147.2 Z M95.3,148.9 C96.2,149.5 96.8,149.9 97.5,150.4 C98.1,150.1 98.7,149.9 99.4,149.6 C99,148.8 98.7,148.2 98.4,147.5 C97.3,148 96.4,148.4 95.3,148.9 Z" id="Shape" fill="#000000"></path>
                    <path d="M105.5,144 C105.8,142.6 105.9,142.6 107.2,142.3 C108.2,142.1 109.1,141.7 110,141.4 C111.5,140.8 112.1,141.2 112.6,142.7 C112.9,143.5 113.4,144.3 113.8,145 C114.6,146.5 114.3,147.2 112.6,147.7 C111.7,148 110.8,148.5 109.9,148.9 C108.1,149.8 107.3,149.7 106.1,148.1 C105.7,147.6 105.4,147.2 105,146.7 C104.2,145.4 104.3,144.8 105.5,144 Z M108.4,146.7 C109.3,146.3 110.2,145.8 111.1,145.4 C110.8,144.9 110.6,144.5 110.3,144.1 C109.2,144.4 108.1,144.7 107,145 C107.5,145.6 107.9,146.1 108.4,146.7 Z" id="Shape" fill="#000000"></path>
                    <path d="M80.5,104.1 C79.7,104.5 79,105 78.3,105.3 C74.8,106.8 71.4,108.1 67.9,109.6 C65.3,110.7 62.8,112 60.2,113.1 C59.4,113.4 58.6,113.8 57.8,113.8 C56.1,114 54.8,115 53.2,115.5 C51.5,116.1 49.8,116.8 48.1,117.2 C47.7,117.3 47,117 46.6,116.7 C45.7,115.8 44.8,115 43.7,114.5 C43.2,114.2 42.8,113.7 42.2,113.1 C43.1,112.6 43.9,112 44.7,111.7 C46.1,111.1 47.6,110.7 49,110.2 C49.3,110.1 49.5,110 49.8,109.9 C52.4,108.9 55,108 57.5,106.9 C59.9,105.9 62.2,104.8 64.6,103.8 C65.7,103.4 66.8,103.2 67.9,102.8 C70.1,102.1 72.4,101.4 74.6,100.6 C76.3,99.9 77.1,100 78.4,101.2 C78.9,101.7 79.4,102.3 79.8,102.8 C80,103.4 80.2,103.7 80.5,104.1 Z" id="Shape" fill="#FFFFFF"></path>
                    <path d="M91.4,121.8 C90.1,122.3 88.9,122.8 87.5,123.4 C86.9,122.7 86.3,122 85.7,121.3 C85.1,120.6 84.6,119.9 83.9,119 C85.3,118 86.9,117.4 88.7,117.2 C89.6,118.7 90.4,120.2 91.4,121.8 Z" id="Shape" fill="#FFFFFF"></path>
                    <path d="M64.2,130.4 C63.1,130.9 62.1,131.3 61.1,131.8 C60.4,132.2 59.7,132.1 59.1,131.5 C58.3,130.6 57.5,129.6 56.7,128.6 C58.4,127.1 60.2,126.8 62.1,126.7 C62.9,128.1 63.6,129.3 64.2,130.4 Z" id="Shape" fill="#FFFFFF"></path>
                    <path d="M77.5,126.8 C76.2,127.1 74.9,127.3 73.7,127.6 C72.8,126.4 72,125.3 71.2,124.2 C72.1,122.7 73.7,122.4 75.3,122.2 C76,123.6 76.7,125.1 77.5,126.8 Z" id="Shape" fill="#FFFFFF"></path>
                    <path d="M70.5,136.6 C71.1,137.5 71.7,138.4 72.3,139.3 C70.5,140.3 68.9,141.4 66.8,141.7 C66,141 65.1,140.4 64.7,139.4 C66.5,138.1 68.2,136.9 70.5,136.6 Z" id="Shape" fill="#FFFFFF"></path>
                    <path d="M79.5,148.8 C78,149.3 76.6,149.8 75.1,150.4 C74.7,150 74.3,149.5 74,149.2 C74.4,146.5 76.6,146.8 78.4,146.1 C78.7,147 79.1,147.9 79.5,148.8 Z" id="Shape" fill="#FFFFFF"></path>
                    <path d="M82.1,131.4 C82.5,132.3 83,133.4 83.5,134.5 C82.5,134.8 81.5,135.1 80.6,135.3 C79.6,134.4 78.8,133.6 77.8,132.7 C79.3,132.3 80.7,131.9 82.1,131.4 Z" id="Shape" fill="#FFFFFF"></path>
                    <path d="M82.2,155.9 C83.7,154.4 85.4,154 86.9,153.3 C87.5,154.1 88.1,154.9 88.7,155.7 C87.4,156.7 86.1,157.2 84.6,157.4 C84.3,157.4 83.9,157.1 83.6,156.9 C83.1,156.7 82.7,156.3 82.2,155.9 Z" id="Shape" fill="#FFFFFF"></path>
                    <path d="M98.4,137.5 C100.1,136.9 101.6,136.3 103.2,135.7 C103.5,136.8 103.8,137.8 104,138.9 C102.8,139.3 101.7,139.7 100.4,140.1 C99.9,139.4 99.2,138.6 98.4,137.5 Z" id="Shape" fill="#FFFFFF"></path>
                    <path d="M95.8,128.4 C96.1,129.3 96.3,130.1 96.6,131 C95.9,131.2 95.2,131.4 94.5,131.7 C93.9,131.9 93.5,131.7 93.2,131.2 C92.8,130.6 92.4,129.9 91.9,129.1 C93.2,128.9 94.4,128.7 95.8,128.4 Z" id="Shape" fill="#FFFFFF"></path>
                    <path d="M90.6,143.6 C89.7,144 88.9,144.4 88,144.8 C87.4,144.1 86.8,143.4 86.2,142.7 C87.3,142.2 88.3,141.8 89.4,141.3 C89.7,142 90.1,142.8 90.6,143.6 Z" id="Shape" fill="#FFFFFF"></path>
                    <path d="M95.3,148.9 C96.5,148.4 97.4,148 98.4,147.5 C98.7,148.2 99,148.8 99.4,149.6 C98.7,149.9 98.1,150.1 97.5,150.4 C96.8,149.9 96.2,149.5 95.3,148.9 Z" id="Shape" fill="#FFFFFF"></path>
                    <path d="M108.4,146.7 C108,146.1 107.5,145.6 107,145 C108.2,144.7 109.2,144.4 110.3,144.1 C110.5,144.5 110.8,144.9 111.1,145.4 C110.2,145.8 109.3,146.3 108.4,146.7 Z" id="Shape" fill="#FFFFFF"></path>
                </g>
            </g>
        </g>
    </g>
</svg>