<?xml version="1.0" encoding="UTF-8"?>
<svg width="248px" height="244px" viewBox="0 0 248 244" version="1.1" xmlns="http://www.w3.org/2000/svg" xmlns:xlink="http://www.w3.org/1999/xlink">
    <!-- Generator: Sketch 46.2 (44496) - http://www.bohemiancoding.com/sketch -->
    <title>Global Community - Collaborating Everywhere</title>
    <desc>Created with Sketch.</desc>
    <defs></defs>
    <g id="Page-1" stroke="none" stroke-width="1" fill="none" fill-rule="evenodd">
        <g id="Global-Community---Collaborating-Everywhere" fill-rule="nonzero">
            <g id="Calque_2" fill="#B7D6E2">
                <path d="M151.1,227.5 C157,224.2 162.8,220.8 168.7,217.5 C187.4,206.8 206.4,195.9 220.9,179.9 C240.1,158.6 249.6,128.9 247.1,100.3 C244.6,71.7 230.3,44.3 208.6,25.5 C195.3,14 179.3,5.5 162,2.1 C149.3,-0.4 136.1,1.42663659e-14 123.3,1.9 C75.7,8.8 30.6,37.8 9.3,80.9 C5.4,88.8 2.2,97.2 1.2,106 C0.3,114.2 1.3,122.5 3.2,130.5 C10.1,159 29.5,183.8 54.2,199.6 C78.9,215.4 108.6,222.5 137.9,222" id="Shape"></path>
            </g>
            <g id="Calque_1" transform="translate(44.000000, 21.000000)">
                <g id="Group">
                    <path d="M44.2,71.3 C43.3,69.5 42.5,67.7 41.7,65.9 C41.4,65.1 41.1,64.3 40.8,63.6 C39.9,61.1 39.1,58.6 38.2,56.1 C37.6,54.3 36.8,52.6 36.2,50.8 C35.4,48.4 34.6,46 33.8,43.7 C33.4,42.5 33,41.3 32.4,40.1 C31.9,39.1 31.2,38.2 30.7,37.2 C30.3,36.3 30.3,35.2 30.1,34.2 C29.8,33.2 29.3,32.3 29,31.3 C28.7,30.5 28.3,29.8 28.1,29 C27.8,27.4 27.6,25.8 27.4,24.1 C27.2,22.8 27.8,21.8 28.9,21.2 C30.2,20.6 31.5,20 32.9,19.6 C34,19.2 35,19.8 35.6,20.7 C36.2,21.7 36.7,22.7 37.2,23.8 C37.3,24 37.4,24.3 37.6,24.7 C38.6,23.8 39.6,23 40.5,22.1 C43.8,18.9 47.7,16.5 51.9,14.7 C53.9,13.9 56.1,13.5 58.3,13.1 C61.5,12.5 64.8,12 68,11.5 C69.9,11.2 71.7,11.1 73.6,10.9 C76.4,10.6 79.2,10.3 82.1,10 C85.2,9.7 88.1,8.8 91,8 C95.5,6.6 100.1,5.2 104.6,3.6 C107.6,2.5 110.7,1.8 113.9,1.1 C115.2,0.8 116.5,0.7 117.8,0.7 C119.7,0.7 121.2,1.4 122.3,3 C122.5,3.4 122.9,3.6 123.1,4 C123.7,4.8 124.3,5.7 124.8,6.6 C125.6,8.2 126.2,9.9 126.9,11.6 C127.7,13.6 127.7,15.7 127.8,17.9 C127.9,20.6 127.1,23.3 126.8,26 C126.6,27.1 126.9,28 127.5,29 C128.1,30 128.7,31.1 129.3,32.1 C131.2,35.3 133.1,38.6 135,41.8 C136,43.6 136.9,45.4 137.9,47.2 C138.6,48.6 139.3,50.1 140,51.5 C141.2,53.9 142,56.5 142.4,59.1 C142.6,60.2 142.2,61.1 141.8,62 C141.7,62.3 141.2,62.6 140.8,62.7 C140.2,62.9 139.5,63.1 138.8,63.1 C137.6,63.2 136.6,63.7 135.6,64.3 C135.2,64.5 134.8,64.7 134.4,64.9 C131.4,66 128.2,66.8 125.1,67.5 C124.9,67.6 124.6,67.6 124.3,67.7 C124.5,67.9 124.7,68.1 124.9,68.2 C126.6,68.8 127.9,69.9 129.3,71.1 C130.2,71.9 131.2,72.4 132.2,73 C133.3,73.7 134.5,74.4 135.7,75.1 C136.6,75.7 137.5,76.2 138.4,76.8 C138.9,77.1 139.3,77.6 139.7,78 C140.4,78.6 141.1,79.2 141.8,79.7 C143.9,81.2 145.8,82.7 147.3,84.8 C148,85.8 148.9,86.7 149.9,87.4 C151.4,88.5 152.6,89.9 153.3,91.6 C153.7,92.6 154.4,93.4 155.1,94.2 C156,95.2 156.7,96.4 157.5,97.5 C158.4,98.9 159.2,100.4 160.1,101.8 C160.4,102.2 160.7,102.7 160.9,103.1 C162.1,106.2 163.9,109 164.6,112.3 C164.6,112.4 164.6,112.5 164.7,112.6 C166.4,115.7 166.3,119.2 167.1,122.6 C167.6,124.7 167.4,127 167.4,129.2 C167.5,133.4 167.4,137.5 167.5,141.7 C167.5,143.7 167.8,145.6 168,147.5 C168.6,151.8 168.5,156.2 168,160.5 C167.7,163.1 167.5,165.7 166.5,168.1 C165.5,170.7 164.4,173.2 163.2,175.7 C162,178.2 160.6,180.7 159.3,183.1 C158.8,184 158.2,184.8 157.7,185.6 C157.1,186.5 156.5,187.3 155.9,188.1 C155.5,188.6 155.1,189 154.7,189.4 C153.7,190.3 153,191.2 152.6,192.5 C152.2,193.8 151.5,195 150.7,196 C148.5,198.8 145.8,201.2 142.9,203.3 C142.1,203.9 141.3,204.7 140.5,205.3 C139.7,206 138.8,206.6 137.9,207.3 C137.4,207.7 136.9,208.1 136.4,208.5 C136.3,208.6 136.2,208.7 136,208.8 C134.2,209.8 132.4,210.7 130.5,211.7 C129.1,212.4 127.7,213 126.2,213.6 C125.6,213.9 124.9,214.1 124.3,214.4 C123.4,214.9 122.4,215.3 121.3,215.2 C120.8,215.2 120.2,215.5 119.7,215.7 C116.8,217.1 113.7,217.9 110.5,218.4 C109.5,218.6 108.6,218.8 107.6,219.1 C106.8,219.3 106,219.4 105.3,219.7 C104.1,220.1 102.9,220.5 101.5,220.4 C101,220.3 100.4,220.7 99.9,220.9 C95.3,222.4 90.5,222.7 85.7,222.6 C85,222.6 84.4,222.7 83.7,222.8 C83.2,222.9 82.8,223 82.3,223 C80.1,222.9 77.9,223 75.7,222.6 C72.5,222 69.2,222.1 66,220.9 C65.8,220.8 65.5,220.8 65.3,220.8 C63.2,220.6 61,220.5 58.9,220.3 C58.2,220.2 57.5,220.2 56.9,220 C55.8,219.7 54.7,219.5 53.5,219.6 C52.5,219.7 51.4,219.4 50.4,219.1 C48.9,218.7 47.5,218.2 46.1,217.7 C44.9,217.3 43.7,217 42.6,216.6 C42,216.4 41.5,215.8 40.9,215.5 C39.4,214.6 37.8,213.8 36.3,213 C35,212.3 33.7,211.5 32.5,210.8 C32.1,210.6 31.8,210.3 31.5,210 C29.3,207.9 27.2,205.9 25,203.8 C24.7,203.6 24.5,203.3 24.2,203 C22.5,200.9 20.5,199.2 18.6,197.3 C17.7,196.4 16.8,195.3 16.1,194.3 C14.5,192 12.8,189.7 11.5,187.2 C10.1,184.6 8.6,182.1 7.8,179.3 C7.6,178.6 7.2,178 6.9,177.4 C6.3,176.1 5.7,174.9 5.2,173.6 C4.7,172.5 4.3,171.5 3.9,170.4 C3.6,169.3 3.4,168.2 3.1,167.1 C2.9,166.3 2.7,165.5 2.6,164.6 C1.9,161.3 1.1,158 0.5,154.7 C0.2,153.2 0.1,151.6 0.2,150 C0.4,145.7 0.6,141.5 0.9,137.2 C1.1,134.6 1.7,132.2 2.4,129.7 C3.5,125.5 5.2,121.6 7,117.7 C7.1,117.4 7.2,117.2 7.4,116.9 C8.8,114.1 10.2,111.3 11.6,108.6 C11.7,108.5 11.7,108.4 11.8,108.3 C13.8,102.8 17.4,98.2 20.3,93.2 C20.6,92.6 21.1,92.1 21.5,91.6 C23.8,89.1 26.1,86.6 28.5,84.2 C29.2,83.5 30,82.8 30.8,82.1 C33,80.3 35.1,78.4 37.3,76.7 C38.7,75.5 40.2,74.5 41.7,73.3 C42.2,72.8 43.2,72.1 44.2,71.3 Z M5,129.3 C4.1,131.8 3.4,134.1 3.2,136.6 C2.9,140.4 2.7,144.3 2.4,148.1 C2,152.8 3.1,157.2 4,161.7 C4.3,163.3 4.7,165 5.2,166.6 C6.1,169.4 7,172.1 7.9,174.9 C8.1,175.5 8.5,175.9 8.8,176.5 C9.2,177.4 9.7,178.3 10.1,179.2 C10.6,180.4 11.1,181.6 11.7,182.8 C12,183.5 12.4,184.3 12.7,185 C13.4,186.4 14.1,187.8 15,189.1 C16,190.7 17.1,192.1 18.1,193.6 C18.6,194.2 19.1,194.9 19.6,195.4 C21.7,197.5 24,199.4 25.8,201.7 C26,201.9 26.2,202.1 26.4,202.3 C28.5,204.3 30.7,206.4 32.8,208.4 C33,208.6 33.2,208.8 33.5,208.9 C36.6,210.6 39.7,212.4 42.8,214.1 C42.9,214.2 43,214.1 43.3,214.2 C43.7,213.4 44.5,213.4 45.3,213.5 C45.8,213.6 46.3,213.5 46.7,213.4 C47.4,213.3 48.1,213 48.8,212.9 C49.7,212.7 50.7,212.6 51.6,212.4 C53.5,212 55.4,211.5 57.3,211.2 C58.7,210.9 60.1,210.7 61.6,211.1 C64.2,211.7 66.4,213.1 68.6,214.5 C69.6,215.1 70.7,215.8 71.8,216.1 C73.3,216.5 74.8,215.9 75.9,214.9 C77,214 78.2,213.7 79.5,213.5 C81,213.3 82.5,212.9 84.1,212.5 C85.1,212.3 86.1,211.9 87.1,211.7 C88.6,211.4 90.1,211.2 91.6,211 C92.9,210.8 94.2,211 95.5,211.5 C96.5,211.9 97.5,212.3 98.6,212.5 C100.4,212.8 102.1,213.2 103.9,212.8 C105.8,212.3 107.5,212.8 109,214.1 C109.7,214.7 110.5,215.2 111.3,215.6 C111.6,215.8 112.1,215.8 112.4,215.7 C114.5,215.1 116.7,214.6 118.6,213.6 C119.5,213.1 120.4,212.8 121.5,212.9 C121.8,212.9 122.2,212.7 122.5,212.6 C123.5,212.2 124.5,211.7 125.5,211.3 C128.5,210.2 131.2,208.5 133.9,206.9 C134,206.4 134,206 134.1,205.6 C134.8,202.9 135.4,200.2 136.2,197.6 C136.9,195 137.9,192.5 138.7,190 C139.5,187.4 140.6,184.9 141.9,182.5 C142.9,180.6 144.8,179.5 146.6,178.3 C147,178 147.8,177.9 148.3,178 C150.4,178.4 152.2,179.4 153.8,180.8 C154.6,181.5 155.5,182.1 156.6,182.4 C156.9,181.7 157.3,181 157.6,180.4 C159.3,177 161.2,173.7 162.8,170.3 C163.7,168.4 164.3,166.4 164.7,164.4 C165.7,158.4 165.9,152.4 165,146.4 C164.8,145.1 164.8,143.7 164.6,142.3 C164.6,142 164.5,141.8 164.5,141.6 C163.2,141.5 162,141.3 160.7,141.2 C160.6,141.3 160.3,141.4 160,141.6 C158.3,142.4 157.4,142.1 156.2,140.7 C155.2,139.5 154.6,138.1 153.9,136.6 C153.7,136.3 153.6,135.9 153.4,135.6 C153.3,135.6 153.2,135.7 153.1,135.7 C153.1,137.7 153,139.8 153,141.8 C152.9,144 152.8,146.1 152.7,148.3 C152.6,149.7 151.8,150.7 150.4,151 C148.9,151.3 147.5,152.1 146,151.7 C145.8,151.7 145.7,151.7 145.5,151.7 C144.2,152.2 143,151.8 141.7,151.6 C140.5,151.4 139.7,150.8 139.2,149.8 C138.7,148.8 138.2,147.7 137.8,146.6 C137.5,145.9 137.3,145.2 136.5,144.7 C136.5,145.3 136.5,145.7 136.5,146.1 C136.6,148.9 136.7,151.8 136.8,154.6 C137,157.9 136.3,160.8 134.4,163.6 C133.5,165 132.8,166.5 132.1,168.1 C131.2,170.2 130.4,172.3 129.4,174.4 C128.5,176.3 127.5,178.3 126.4,180.1 C125.5,181.5 124.7,182.9 124.1,184.4 C123.9,184.8 123.8,185.2 123.6,185.6 C122.4,187.7 121.7,189.9 121.3,192.2 C121,193.6 120.4,195 119.6,196.1 C118.5,197.6 117.2,198.7 115.2,198.5 C113.9,198.4 112.6,198.1 111.3,197.9 C109.2,197.6 108.1,196.2 107.5,194.4 C106.7,192.3 106.1,190.1 105.5,187.9 C105.1,186.3 104.5,184.9 103.5,183.6 C103.1,183.2 102.9,182.6 102.6,182 C101.8,180.2 100.9,178.5 99.3,177.2 C98.7,176.7 98.2,176 97.6,175.4 C96.8,174.6 96,173.8 95.2,173.1 C92.7,171.1 90.1,169.2 87.5,167.2 C86.3,166.3 85.2,165.4 84.3,164.1 C84.1,163.8 83.8,163.6 83.5,163.4 C81.3,161.8 79.7,159.7 78.2,157.5 C76.6,155 76.8,152.7 78.5,150.4 C78.8,150 79,149.7 79.3,149.3 C79.9,148.5 80.5,147.7 81,146.9 C82,145.2 83.9,144.5 85.1,143.1 C85.3,142.9 85.6,142.8 85.9,142.8 C86.7,142.7 87.3,142.2 87.8,141.7 C88.5,140.9 89.2,140.2 90,139.5 C91.1,138.7 92.3,138 93.5,137.2 C94,136.9 94.6,136.6 95,136.1 C97.1,133.8 99.7,132.1 102.6,131 C106.3,129.5 110,129.6 113.6,131.6 C113.7,131.7 113.9,131.7 114,131.8 C116.3,132.8 118.7,133.8 121,134.9 C123.2,135.9 125.6,136.3 128.2,136.2 C128.5,135.4 128.8,134.6 129,133.8 C129.6,131.2 129,130.3 126.3,129.9 C126.3,129.9 126.2,129.9 126.2,129.9 C124.3,129.7 122.9,128.6 121.6,127.4 C121.3,127.1 121,126.7 120.9,126.3 C120.3,124 118.9,122.1 117.7,120.1 C117.4,119.6 117,119.2 116.6,118.6 C115.7,119.4 114.8,119.9 114.1,120.7 C111.6,123.5 108.5,124.2 105.1,122.5 C104,122 103,121.3 101.9,120.8 C101,120.3 100.7,120.4 100,121.1 C99.5,121.7 99.1,122.3 98.6,122.9 C98,123.7 97.2,124.1 96.2,123.8 C94.5,123.2 93.1,122.4 91.9,121 C90.6,119.4 90.7,118 92.3,116.6 C93.5,115.6 94.7,114.6 95.8,113.6 C97.6,112 99.7,111.2 101.9,110.5 C103.6,110 103.8,109.6 103.8,107.9 C103.8,106.2 103.9,104.5 104,102.8 C104.1,101.5 104.7,100.5 105.7,99.7 C106.9,98.7 108.2,98.8 109.3,99.9 C109.7,100.3 110,100.7 110.4,101.2 C110.8,101.6 111.3,101.8 111.9,101.7 C114.1,101.4 116.2,100.7 117.9,99.3 C118.7,98.7 119.6,98.2 120.5,97.8 C123.1,96.6 125.5,95.1 127.8,93.5 C128.9,92.7 130.2,92 131.4,91.3 C132.7,90.6 133.9,91.1 134.3,92.5 C134.5,93 134.5,93.6 134.5,94.2 C134.4,95.3 134.2,96.4 134.1,97.5 C134,98.2 133.9,98.9 134,99.5 C134.2,101.3 135.6,102.1 137.3,101.3 C137.5,101.2 137.7,101.1 137.9,101 C139.7,100 140.9,98.4 141.4,96.4 C141.8,94.9 142.2,93.4 143.3,92.2 C144.3,91.1 145.5,90 146.7,88.8 C146.5,88.6 146.2,88.2 145.9,87.9 C145.6,87.5 145.2,87.2 145,86.8 C143.7,84.8 141.9,83.5 140.1,82.2 C139.3,81.6 138.5,80.9 137.7,80.2 C137.3,79.9 137,79.5 136.6,79.3 C135.8,78.8 135,78.3 134.2,77.7 C133.7,77.4 133.1,77 132.6,76.7 C130.5,75.5 128.3,74.4 126.6,72.6 C126,72 125.2,71.5 124.4,71.2 C123.5,70.9 122.8,70.4 122.2,69.7 C121.5,68.8 120.6,68.6 119.5,69 C115.1,70.4 110.7,71.3 106.2,71.9 C105.9,71.9 105.6,71.9 105.4,72.1 C104.4,72.7 103.4,73.2 102.5,73.9 C100.4,75.5 98.1,76.7 95.7,77.7 C93.7,78.5 91.7,79.3 89.7,80.2 C87.2,81.3 84.7,82 82,82.5 C80.4,82.8 78.8,83.2 77.4,83.5 C76.8,85 76.3,86.3 75.9,87.6 C74.5,92 72.1,96 69.8,99.9 C69,101.3 67.9,102.4 66,102.4 C67.6,106.3 69.4,110 70.7,113.9 C72,117.8 73.6,121.7 75.1,125.6 C75.6,125.6 76,125.5 76.3,125.5 C77.1,125.5 77.6,125.8 77.8,126.4 C77.9,127 77.6,127.6 76.8,127.9 C75.8,128.2 74.7,128.6 73.7,128.9 C70.9,129.8 68.5,131.1 67.7,134.2 C67.5,134.9 67,135.2 66.4,135.2 C65.8,135.1 65.4,134.6 65.3,133.9 C65.3,133.4 65.4,132.9 65.5,132.5 C65.9,131.2 66.6,130.2 67.6,129.4 C67,128 66.5,126.9 66.1,125.7 C65.2,123.2 64.4,120.6 63.3,118.2 C62.8,117.2 62.5,116 62.2,114.9 C61.9,114.1 61.6,113.3 61.4,112.5 C60.8,110.7 60.1,109 59.5,107.2 C59.2,106.4 58.9,105.6 58.5,104.9 C58.1,104.1 57.6,103.5 57.3,102.7 C56,99.7 54.8,96.7 53.6,93.7 C52.8,91.8 52.2,89.9 51.5,88 C51.2,87.1 51,86.2 50.2,85.5 C49.8,85.2 49.6,84.6 49.4,84.1 C48.9,82.7 48.4,81.3 48.1,79.9 C47.7,77.7 46.2,76.1 45.5,74 C41.8,77.1 37.8,79.7 34.5,83 C34.7,83.9 34.8,84.6 35,85.4 C35.2,86.3 35.7,87 36.6,87.4 C38.1,88 39.5,88.6 41,89.2 C41.4,89.4 41.9,89.6 42.4,89.7 C44.3,90.2 46.3,90.6 48.2,91.1 C49.7,91.4 50.7,92.4 51.5,93.7 C52,94.5 52.4,95.4 52.9,96.2 C54.3,98.8 54,101 51.9,103.1 C51.7,103.3 51.6,103.4 51.4,103.6 C49.3,105.4 47.3,107.2 45.2,108.9 C41.8,111.7 40.7,115.3 41.1,119.5 C41.2,121.1 41.7,122.6 42.2,124.2 C43.1,127.2 42.6,129.3 40.2,131.3 C38.3,132.9 36.2,134.2 33.9,135.2 C33.1,135.5 32.4,136 31.8,136.3 C31.7,137.1 32.2,137.3 32.7,137.6 C33.7,138.2 34.7,138.9 35.4,139.9 C36,140.7 36.9,141.3 37.7,141.9 C37.9,142 38.1,142.1 38.4,142.1 C39.5,142.3 40.6,142.6 41.7,142.7 C42.3,142.8 42.9,142.7 43.4,142.7 C44.5,142.7 45.7,142.7 46.8,142.8 C48.1,143 49.5,143.3 50.8,143.5 C51.8,143.7 52.8,143.7 53.7,144 C54.7,144.3 55.7,144.7 56.6,145.3 C57.5,145.9 58.6,146.4 58.9,147.6 C59.1,148.5 59.4,149.5 59.5,150.4 C60,154.3 59.9,158.2 59.1,162.1 C58.2,166.6 57.5,171.1 56.7,175.6 C56.5,177 56.1,178.4 56.2,179.7 C56.3,183.3 56.5,187 56.8,190.6 C57,192.5 56.8,194.3 56.5,196.1 C56,198.7 53.5,199.8 51.3,198.6 C50.8,198.3 50.3,198 49.7,197.8 C48,197 46.3,196.3 44.9,194.9 C44.6,194.6 44.2,194.4 43.8,194.2 C41.4,192.8 39,191.5 36.7,190 C34.6,188.7 32.5,187.4 30.7,185.8 C28.1,183.4 25.3,181.2 23,178.4 C22.4,177.6 21.8,176.8 21.1,176.1 C18.8,173.6 17.8,170.4 16.7,167.3 C16.7,167.2 16.6,167.1 16.6,166.9 C15.9,161.3 17.4,156.6 21.9,153.1 C22.9,152.3 23.7,151.3 24.5,150.3 C25.2,149.4 26,148.6 26.9,148 C28.1,147 28.6,145.5 27.9,144.1 C27.3,143 26.8,141.8 26.2,140.7 C25.9,140.1 25.5,139.8 25.1,139.4 C24,138.5 22.6,138.3 21.3,138 C20.3,137.8 19.7,137.3 19.2,136.4 C18.9,135.9 18.5,135.5 18,135.3 C17,134.9 16,134.5 14.9,134.4 C12.8,134.1 11,133.2 9.3,132 C7.6,130.5 6.1,130.3 5,129.3 Z M150,148.6 C150.1,148.1 150.2,147.8 150.2,147.4 C150.3,145.8 150.4,144.3 150.4,142.7 C150.4,140.8 150.4,138.9 150.5,137.1 C150.6,135.7 150.8,134.3 151,132.9 C151.1,132.1 151.5,131.5 152.4,131.3 C153.3,131.1 154,131.5 154.5,132.2 C154.9,132.8 155.2,133.4 155.5,134.1 C156,135.2 156.5,136.4 157,137.5 C157.4,138.3 157.8,139 158.5,139.4 C158.7,139.3 158.9,139.3 159,139.2 C160.1,138.4 161.1,138.4 162.4,138.9 C163,139.1 163.7,138.9 164.5,138.9 C164.5,136.9 164.5,135 164.5,133.2 C164.5,128.5 164.6,123.9 163.3,119.3 C162.8,117.4 162.4,115.4 161.8,113.5 C160.9,110.4 159.4,107.7 158.2,104.7 C158,104.2 157.6,103.7 157.3,103.2 C156.5,101.9 155.8,100.5 154.9,99.2 C154.2,98.1 153.5,97 152.7,96.1 C151.8,95.2 151.1,94.2 150.6,93.1 C150.3,92.3 149.8,91.6 149.5,91 C146.9,91.1 145.6,92.6 144.6,94.5 C144.2,95.3 144,96.2 143.7,97.1 C142.9,100.1 141,102.1 138.3,103.5 C135.3,105 132.1,103.5 131.5,100.2 C131.3,99.1 131.5,97.8 131.6,96.6 C131.7,95.7 131.8,94.9 131.9,94 C131.8,93.9 131.7,93.9 131.7,93.8 C130.8,94.3 129.9,94.8 129.1,95.4 C126.7,97.1 124.3,98.5 121.7,99.8 C121,100.1 120.3,100.5 119.6,101 C117.5,102.6 115.2,103.6 112.6,104 C110.7,104.3 109.3,103.9 108.1,102.5 C107.8,102.2 107.5,101.9 107.3,101.6 C106.6,102.1 106.4,102.7 106.4,103.3 C106.3,104.9 106.3,106.5 106.3,108.1 C106.3,110.6 105.3,112.2 103,112.7 C99.9,113.5 97.4,115.3 95,117.4 C94.5,117.9 93.9,118.3 93.4,118.8 C94.1,120.2 95.2,120.8 96.4,121.3 C96.9,120.7 97.4,120.1 97.9,119.5 C99.4,117.8 100.9,117.6 102.9,118.6 C104,119.2 105,119.8 106.2,120.4 C108.4,121.4 110.2,121.1 111.7,119.3 C112.6,118.2 113.8,117.5 114.9,116.7 C116.1,115.8 117,116 118.1,117 C118.4,117.2 118.7,117.5 118.8,117.8 C120,119.9 121.7,121.8 122.4,124.1 C123,126.2 124.6,127.1 126.6,127.5 C127.2,127.6 127.9,127.8 128.5,128 C130.5,128.7 131.4,130.2 131.5,132.2 C131.5,134 131.1,135.8 130.2,137.4 C129.6,138.4 128.8,139 127.6,138.9 C125.9,138.8 124,138.7 122.4,138.2 C120.1,137.5 118,136.4 115.8,135.4 C114.2,134.7 112.6,133.7 110.9,133.2 C108.5,132.5 106,132.2 103.6,133.3 C102.5,133.8 101.5,134.5 100.4,135 C98.9,135.7 97.8,136.8 96.7,138 C96.3,138.5 95.7,138.8 95.2,139.2 C93.1,140.7 90.7,141.9 88.9,144 C88.5,144.4 88,144.9 87.5,145.1 C86.4,145.4 85.6,145.9 84.9,146.7 C84.7,146.9 84.4,147.1 84.1,147.3 C83.7,147.6 83.3,148 83,148.4 C82.2,149.4 81.5,150.5 80.7,151.5 C78.9,153.9 78.9,154.5 80.4,157.1 C82.3,160.3 85.4,162.2 87.8,164.9 C88.8,166 90.2,166.8 91.5,167.8 C93.7,169.5 95.9,171.1 98,172.9 C99.3,174 100.4,175.4 101.6,176.6 C102.6,177.5 103.3,178.6 103.9,179.8 C104.6,181.2 105.5,182.6 106.3,184 C106.6,184.5 106.9,184.9 107,185.4 C107.9,188.1 108.7,190.9 109.5,193.6 C109.9,195 110.7,195.8 112.1,196 C112.8,196.1 113.6,196.3 114.3,196.4 C115.4,196.6 116.4,196.2 117.1,195.3 C117.7,194.5 118.2,193.5 118.4,192.5 C119.2,188.3 121.2,184.6 122.9,180.8 C123,180.6 123.1,180.5 123.2,180.3 C125,178 126.1,175.3 127.3,172.7 C129,169 130.1,165.1 132.4,161.8 C133.7,160 134.1,157.9 134,155.8 C134,153.4 133.9,151.1 133.8,148.7 C133.8,147.3 133.7,146 133.7,144.6 C133.7,144 133.8,143.4 134,142.9 C134.4,141.9 135.4,141.5 136.4,141.9 C136.9,142.1 137.3,142.4 137.7,142.7 C138.7,143.6 139.4,144.8 139.9,146.1 C140.2,147 140.6,147.8 141,148.6 C141.2,148.9 141.5,149.3 141.8,149.4 C142.7,149.7 143.5,150 144.5,149.6 C144.8,149.5 145.1,149.4 145.4,149.5 C147.2,149.6 148.5,148.7 150,148.6 Z M33.5,37.1 C34,36.7 34.5,36.3 35,35.9 C36.7,34.4 38.3,32.9 39.9,31.4 C40.2,31.1 40.5,30.7 40.8,30.3 C41.7,29 42.9,28 44.3,27.3 C45.9,26.5 47.4,25.6 48.9,24.8 C50.1,24.2 51.3,23.4 52.5,22.9 C57.2,21.1 61.9,20.3 66.6,22.7 C66.7,22.8 66.9,22.8 67,22.9 C69.3,23.7 71.4,24.8 73.1,26.5 C73.6,27 74.3,27.4 74.9,27.9 C76.7,29.5 78.5,31.1 79.5,33.3 C79.9,34.1 80.1,35.1 80.5,35.9 C82,39 82.4,42.4 82.3,45.7 C82.3,48.3 81.9,51 81.5,53.6 C81.2,55.7 80.6,57.8 79.7,59.8 C77.8,64.1 74.7,67.5 71.2,70.6 C70.6,71.1 69.9,71.4 69.3,71.8 C66,73.4 62.7,75 59.4,76.6 C59.2,76.7 58.9,76.8 58.6,76.9 C57.1,77.5 55.5,77.9 54,78.6 C52.6,79.2 51.6,80.4 51,81.9 C50.7,82.9 50.9,83.5 52,84.2 C53,83.5 54.1,82.8 55,82 C56.9,80.1 59.2,78.8 61.6,77.7 C67.8,74.9 74.1,72.5 80.6,70.8 C85.3,69.5 90,68.7 94.9,68.9 C97.3,69 99.7,69.2 102.1,69.3 C103.3,69.4 104.4,69.5 105.6,69.3 C108.2,68.9 110.7,68.5 113.3,67.9 C116.2,67.3 119,66.4 121.9,65.7 C125.1,64.9 128.3,64.2 131.5,63.3 C132.9,62.9 134.2,62.3 135.4,61.3 C135.7,61 136.4,60.8 136.8,60.9 C137.7,61 138.4,60.7 139.2,60.5 C139.2,60.2 139.2,60 139.2,59.7 C138.9,57.3 138.2,55.1 137.1,53 C136.3,51.5 135.6,49.9 134.9,48.4 C134,46.6 133,44.8 132,43 C130.5,40.4 128.9,37.8 127.4,35.3 C126.4,33.6 125.5,32 124.5,30.3 C123.6,28.8 123.4,27.3 123.7,25.6 C124.1,23.1 124.8,20.7 124.7,18.1 C124.6,16.2 124.7,14.2 123.9,12.4 C122.8,9.9 121.9,7.2 120,5.1 C118.9,3.9 117.9,3.4 116.4,3.5 C115.2,3.6 113.9,3.8 112.7,4 C109.9,4.6 107,5.4 104.3,6.3 C100.1,7.7 96,9.1 91.8,10.3 C89.2,11.1 86.5,11.8 83.8,12.4 C81.5,12.8 79.1,12.9 76.8,13.2 C73.7,13.5 70.6,13.8 67.5,14.2 C64.5,14.6 61.6,15.1 58.6,15.6 C56.7,16 54.7,16.3 52.9,17 C49,18.5 45.6,20.8 42.5,23.5 C40.9,24.9 39.4,26.2 37.9,27.7 C37,28.5 36.2,29.5 35.4,30.5 C34.7,31.4 34.2,32.4 33.5,33.2 C32.5,34.7 32.5,35.5 33.5,37.1 Z M52.8,196.5 C53.1,195.8 53.5,195.4 53.6,195 C53.8,194 53.9,193 53.9,192 C53.8,189.4 53.7,186.8 53.5,184.2 C53.2,180.8 53.2,177.4 53.9,174.1 C54.9,169.3 55.6,164.5 56.5,159.7 C57.1,156.2 57,152.6 56.3,149.1 C56.1,148.2 55.6,147.6 54.8,147.2 C54.1,146.8 53.4,146.4 52.6,146.2 C51.9,146 51,145.9 50.3,145.8 C48.8,145.6 47.2,145.4 45.7,145.1 C44.8,144.9 44,144.8 43.1,145 C42.4,145.2 41.7,145.1 41,145.1 C40.5,145.1 40,145.1 39.5,144.9 C38.3,144.6 37,144.4 35.9,143.8 C34.8,143.2 33.8,142.3 33,141.3 C32.3,140.5 31.5,139.9 30.7,139.3 C30,138.8 29.4,138.2 29,137.5 C28.2,136 28.8,134.4 30.3,133.6 C31.1,133.2 31.9,132.8 32.7,132.4 C34.7,131.5 36.5,130.4 38.2,129 C39.7,127.7 40,126.5 39.4,124.6 C38.9,123 38.4,121.3 38.2,119.6 C37.7,114.6 39,110.1 43.1,106.7 C45.2,104.9 47.3,103.1 49.4,101.3 C51.1,99.8 51.3,98.7 50.2,96.8 C49.9,96.2 49.5,95.7 49.3,95.1 C48.8,93.9 48,93.3 46.7,93 C44.9,92.6 43,92.3 41.2,91.7 C39.1,91 37.1,90.1 35.1,89.2 C33.5,88.5 32.7,87.3 32.3,85.7 C32.2,85.3 32.1,84.9 31.9,84.3 C31.3,84.9 30.7,85.3 30.2,85.8 C26.4,90 22.1,93.7 19.5,98.8 C19.5,98.8 19.5,98.9 19.4,98.9 C17.4,102.3 15.1,105.6 13.7,109.3 C12.9,111.3 11.9,113.2 11,115.2 C9.7,117.8 8.4,120.3 7.2,122.9 C6.7,124 6.3,125.2 5.8,126.3 C6.5,127.2 7.3,127.6 8.2,128 C8.8,128.2 9.3,128.4 9.8,128.8 C11.5,129.9 13.1,130.8 15.2,131.2 C17.5,131.6 19.9,132.2 21.1,134.6 C22.1,134.8 23,135 23.9,135.3 C24.2,135.4 24.5,135.6 24.8,135.8 C25.1,136 25.4,136.3 25.7,136.4 C26.8,136.7 27.4,137.5 27.8,138.5 C28,139 28.3,139.4 28.5,139.9 C29,140.9 29.5,141.9 29.9,142.9 C30.9,145.4 30,148 27.9,149.4 C27.3,149.8 26.7,150.4 26.3,151 C25.4,152.4 24.3,153.5 23,154.6 C21.7,155.7 20.3,156.9 19.7,158.5 C18.4,161.9 18,165.3 19.7,168.7 C19.9,169.1 20.1,169.6 20.3,170 C20.8,171.4 21.6,172.5 22.5,173.7 C24.5,176.1 26.5,178.5 28.9,180.5 C30.7,182.1 32.4,183.9 34.6,185.1 C35,185.3 35.4,185.7 35.8,185.9 C38.6,187.6 41.4,189.4 44.3,191.1 C45,191.5 45.8,191.9 46.4,192.5 C48,194.5 50.5,194.9 52.8,196.5 Z M51.4,67.5 C52.4,67.1 53.3,66.8 54.2,66.4 C56.5,65.2 59,64.7 61.5,64.2 C65,63.5 68.6,62.9 72.1,62.3 C73.4,62.1 74.7,61.9 76,61.7 C77.4,59.6 78.4,57.4 78.9,54.9 C79.3,52.6 79.6,50.2 79.9,47.9 C80.3,44.8 79.9,41.7 79.1,38.6 C78.7,37.1 78.1,35.7 77.5,34.2 C76.9,32.8 75.9,31.7 74.8,30.8 C74.6,30.8 74.5,30.8 74.4,30.8 C71.6,31.7 68.8,31.9 65.9,31.6 C64.2,31.4 62.5,31.4 60.8,31.4 C58.4,31.4 56,31.6 53.8,33 C52,34.2 49.9,34.9 48,35.8 C47.4,36.1 46.8,36.4 46.1,36.6 C44.3,37.2 43.1,38.5 41.8,39.8 C42.1,40.5 42.4,41.1 42.7,41.8 C43.2,42.9 43.8,43.9 44.2,45.1 C44.9,47 45.4,48.9 46,50.8 C46.9,53.6 47.8,56.3 48.6,59.2 C49.3,62 50.2,64.8 51.4,67.5 Z M57.9,82.7 C58.3,83.6 58.5,84.3 58.8,85.1 C59.2,85 59.5,85 59.8,84.9 C61.4,84.6 63,84.2 64.6,84.1 C66.9,83.9 69,83.5 71.1,82.5 C71.6,82.3 72.1,82.1 72.7,82 C75.9,81.2 79,80.4 82.2,79.7 C86,78.9 89.4,77.2 93,75.8 C94.8,75.1 96.5,74.2 98.2,73.3 C99.1,72.9 99.8,72.2 100.6,71.7 C100.6,71.6 100.5,71.5 100.5,71.4 C99,71.3 97.6,71.2 96.1,71.2 C93,71 89.9,71.1 86.9,71.7 C77.7,73.5 68.9,76.8 60.5,80.9 C59.6,81.4 58.8,82.1 57.9,82.7 Z M107.8,216.6 C106.7,215.2 105.4,215 103.9,215.3 C103.2,215.5 102.5,215.6 101.8,215.5 C99.3,215.3 96.8,214.8 94.5,213.8 C93.5,213.3 92.4,213.3 91.3,213.5 C90.3,213.6 89.3,213.8 88.3,214 C87.4,214.2 86.4,214.3 85.5,214.7 C83.5,215.5 81.5,215.9 79.5,216.1 C78.7,216.2 78.1,216.5 77.4,216.9 C76.4,217.6 75.3,218.3 74.1,218.6 C71.9,219.1 69.8,218.5 68,217.2 C66.4,216 64.8,215.2 63.1,214.3 C61.9,213.7 60.6,213.3 59.3,213.5 C57.8,213.7 56.2,214 54.7,214.3 C53.2,214.6 51.7,214.9 50.3,215.2 C49.5,215.4 48.6,215.6 47.8,215.8 C49.2,216.6 50.6,217.1 52,217.4 C52.4,217.5 52.9,217.6 53.3,217.5 C54.4,217.3 55.5,217.5 56.6,217.8 C57.1,217.9 57.7,218.1 58.2,218.1 C60.1,218.3 62.1,218.3 64.1,218.5 C65.2,218.6 66.3,218.8 67.4,219 C68.9,219.2 70.3,219.5 71.8,219.8 C72.7,219.9 73.6,220 74.5,220.2 C77.6,220.7 80.7,221 83.8,220.5 C84.3,220.4 84.8,220.4 85.2,220.4 C87.6,220.3 90,220.4 92.4,220.2 C94.5,220 96.5,219.4 98.5,219 C99.5,218.8 100.4,218.3 101.4,218.1 C102.8,217.8 104.2,217.7 105.6,217.4 C106.3,217.2 107,216.9 107.8,216.6 Z M136.8,205 C136.9,205 136.9,205.1 137,205.1 C137.4,204.7 137.9,204.3 138.3,204 C138.8,203.5 139.2,203 139.8,202.6 C142.7,200.5 145.5,198.2 147.8,195.4 C148.7,194.3 149.5,193.2 149.7,191.7 C149.8,191.2 150.1,190.6 150.5,190.2 C152,188.4 153.8,186.9 154.9,184.8 C154,184.2 153,183.7 152.3,183 C151.3,182 150,181.5 148.7,180.8 C148.1,180.5 147.5,180.6 146.9,181.1 C146.3,181.6 145.8,182.1 145.2,182.6 C144.4,183.2 143.9,183.9 143.5,184.8 C142.3,187.4 141,190.1 140.4,193 C140.3,193.5 140.1,193.9 139.9,194.4 C138.9,197.6 137.9,200.7 136.9,203.9 C136.9,204.1 136.9,204.6 136.8,205 Z M35.1,39.8 C35.6,41.2 36,42.6 36.5,43.9 C37.3,46.1 38,48.3 38.8,50.4 C39.3,51.7 39.7,52.9 40.2,54.2 C41.2,57 42.2,59.8 43.2,62.7 C43.5,63.4 43.7,64.1 44,64.8 C45,67.1 46.1,69.4 47.2,71.8 C48.2,74 49.1,76.3 50.2,78.6 C50.9,77.8 51.5,77.2 52.2,76.5 C51.9,75.6 51.5,74.7 51.2,73.7 C49.9,70.3 48.6,66.9 47.4,63.5 C46.6,61 45.9,58.4 45.2,55.9 C44.5,53.4 43.7,50.9 42.9,48.5 C42.4,46.9 41.8,45.3 41.1,43.8 C40.4,42.2 39.7,40.7 39,39.1 C38.7,38.4 38.4,37.6 38.1,36.9 C36.5,37.6 35.8,38.8 35.1,39.8 Z M53.3,86.4 C53.7,87.5 54,88.6 54.4,89.6 C55.5,92.4 56.6,95.1 57.7,97.8 C58.4,99.5 59.1,101.2 60,102.8 C60.8,104.2 61.4,105.6 61.8,107.1 C61.9,107.4 62,107.8 62.1,108.1 C63,110.4 63.8,112.7 64.7,115.1 C66.1,118.8 67.5,122.5 68.9,126.2 C69.1,126.7 69.3,127.1 69.6,127.5 C70.6,127 71.5,126.6 72.5,126.2 C72.3,125.7 72.2,125.2 72,124.8 C71,122.2 70,119.6 69,117 C67.7,113.7 66.8,110.3 65.2,107.1 C64.8,106.3 64.3,105.6 64.1,104.8 C63.6,102.7 62.7,100.8 61.7,99 C61.4,98.6 61.3,98 61.1,97.6 C60.3,95.7 59.6,93.7 58.8,91.8 C58.3,90.6 57.8,89.4 57.3,88.2 C56.9,87.1 56.5,86 56.1,84.8 C54.9,85.3 54.2,85.8 53.3,86.4 Z M72.3,28.8 C70.9,27.5 69.6,26.3 68,25.7 C66.6,25.2 65.2,24.5 63.8,24 C63.2,23.8 62.6,23.6 61.9,23.6 C59,23.6 56,23.8 53.4,25.2 C50.5,26.7 47.6,28.3 44.7,30 C44.1,30.4 43.6,31 43.1,31.6 C42.2,32.5 41.4,33.5 40.5,34.4 C40.3,34.6 40,34.9 39.8,35.1 C40.2,35.8 40.6,36.5 40.9,37 C42.2,36.2 43.3,35.3 44.6,34.7 C47.4,33.4 50.3,32.3 52.9,30.8 C55.1,29.6 57.3,28.9 59.7,29 C59.8,29 59.9,29 60.1,29 C61.9,29 63.8,28.8 65.6,29.1 C67.7,29.4 69.9,29.5 72.3,28.8 Z M59.6,87.7 C59.9,88.5 60.2,89.2 60.5,89.9 C60.8,90.5 61.2,91.1 61.4,91.7 C62.1,93.4 62.8,95.2 63.4,97 C63.9,98.5 65,99.1 66.3,99.6 C68.1,98.3 72.5,89.6 74.1,84.2 C73.3,84.4 72.6,84.6 72,84.9 C69.7,86 67.3,86.5 64.7,86.7 C63.1,86.7 61.4,87 59.6,87.7 Z M64.5,66.3 C60.1,66.7 56.2,68.2 52.3,70 C53,71.9 53.8,73.6 54.5,75.4 C58.5,74.3 62.1,72.4 65.6,70.5 C64.4,68.3 64.4,68.3 64.5,66.3 Z M30.1,23.5 C29.8,26.5 30.8,28.9 31.8,31.5 C33,29.8 34.1,28.2 35.3,26.6 C35,25 34.5,23.5 33.4,22.1 C32.2,22.6 31.1,23 30.1,23.5 Z M73.6,64.9 C73.6,64.8 73.5,64.7 73.5,64.6 C71.3,65 69.1,65.5 66.9,65.9 C67,67.3 66.9,68.7 68.4,69.4 C70.7,68.4 71.9,66.4 73.6,64.9 Z" id="Shape" fill="#000000"></path>
                    <path d="M5,129.3 C6.2,130.3 7.7,130.5 8.9,131.4 C10.5,132.6 12.4,133.5 14.5,133.8 C15.6,133.9 16.6,134.3 17.6,134.7 C18.1,134.9 18.5,135.4 18.8,135.8 C19.3,136.7 19.9,137.1 20.9,137.4 C22.2,137.7 23.5,138 24.7,138.8 C25.2,139.2 25.6,139.6 25.8,140.1 C26.3,141.3 26.9,142.4 27.5,143.5 C28.2,144.9 27.8,146.4 26.5,147.4 C25.6,148.1 24.8,148.9 24.1,149.7 C23.3,150.7 22.5,151.7 21.5,152.5 C17,156 15.5,160.8 16.2,166.3 C16.2,166.4 16.2,166.5 16.3,166.7 C17.4,169.8 18.4,173 20.7,175.5 C21.4,176.2 22,177 22.6,177.8 C24.9,180.6 27.6,182.8 30.3,185.2 C32.1,186.8 34.2,188.1 36.3,189.4 C38.6,190.9 41.1,192.2 43.4,193.6 C43.8,193.8 44.2,194 44.5,194.3 C45.9,195.7 47.6,196.4 49.3,197.2 C49.8,197.4 50.4,197.8 50.9,198 C53.2,199.2 55.7,198.1 56.1,195.5 C56.4,193.7 56.5,191.9 56.4,190 C56.1,186.4 55.9,182.7 55.8,179.1 C55.8,177.7 56.1,176.3 56.3,175 C57.1,170.5 57.7,166 58.7,161.5 C59.5,157.6 59.6,153.7 59.1,149.8 C59,148.9 58.7,147.9 58.5,147 C58.2,145.8 57.1,145.2 56.2,144.7 C55.3,144.1 54.3,143.7 53.3,143.4 C52.4,143.1 51.3,143.1 50.4,142.9 C49.1,142.7 47.7,142.4 46.4,142.2 C45.3,142.1 44.1,142.1 43,142.1 C42.4,142.1 41.8,142.2 41.3,142.1 C40.2,141.9 39.1,141.7 38,141.5 C37.8,141.5 37.5,141.4 37.3,141.3 C36.5,140.6 35.6,140.1 35,139.3 C34.3,138.3 33.3,137.6 32.3,137 C31.9,136.7 31.4,136.5 31.4,135.7 C32.1,135.4 32.8,134.9 33.5,134.6 C35.8,133.6 37.9,132.3 39.8,130.7 C42.1,128.7 42.7,126.6 41.8,123.6 C41.3,122.1 40.9,120.5 40.7,118.9 C40.3,114.7 41.4,111.1 44.8,108.3 C46.9,106.6 48.9,104.8 51,103 C51.2,102.8 51.4,102.7 51.5,102.5 C53.6,100.4 53.9,98.2 52.5,95.6 C52,94.8 51.6,93.9 51.1,93.1 C50.4,91.8 49.3,90.8 47.8,90.5 C45.9,90.1 43.9,89.6 42,89.1 C41.5,89 41.1,88.8 40.6,88.6 C39.1,88 37.7,87.4 36.2,86.8 C35.3,86.4 34.8,85.7 34.6,84.8 C34.4,84.1 34.3,83.3 34.1,82.4 C37.4,79.2 41.3,76.5 45.1,73.4 C45.8,75.5 47.3,77.2 47.7,79.3 C48,80.7 48.5,82.1 49,83.5 C49.2,84 49.4,84.6 49.8,84.9 C50.6,85.6 50.8,86.5 51.1,87.4 C51.8,89.3 52.5,91.2 53.2,93.1 C54.4,96.1 55.6,99.1 56.9,102.1 C57.2,102.9 57.7,103.5 58.1,104.3 C58.5,105 58.8,105.8 59.1,106.6 C59.8,108.4 60.4,110.1 61,111.9 C61.3,112.7 61.6,113.5 61.8,114.3 C62.2,115.4 62.4,116.5 62.9,117.6 C64,120 64.8,122.6 65.7,125.1 C66.1,126.3 66.7,127.5 67.2,128.8 C66.2,129.5 65.5,130.6 65.1,131.9 C65,132.4 64.9,132.8 64.9,133.3 C64.9,134 65.4,134.5 66,134.6 C66.6,134.7 67.1,134.4 67.3,133.6 C68.1,130.5 70.5,129.1 73.3,128.3 C74.3,128 75.4,127.7 76.4,127.3 C77.1,127 77.5,126.5 77.4,125.8 C77.3,125.2 76.8,124.8 75.9,124.9 C75.5,124.9 75.1,125 74.7,125 C73.2,121.1 71.6,117.2 70.3,113.3 C69,109.4 67.2,105.7 65.6,101.8 C67.6,101.7 68.6,100.6 69.4,99.3 C71.8,95.4 74.1,91.4 75.5,87 C75.9,85.7 76.5,84.4 77,82.9 C78.4,82.6 80,82.2 81.6,81.9 C84.2,81.4 86.8,80.7 89.3,79.6 C91.3,78.7 93.3,77.9 95.3,77.1 C97.7,76.1 100,74.9 102.1,73.3 C103,72.6 104,72 105,71.5 C105.2,71.4 105.5,71.4 105.8,71.3 C110.3,70.7 114.8,69.8 119.1,68.4 C120.2,68.1 121,68.2 121.8,69.1 C122.4,69.8 123.1,70.3 124,70.6 C124.8,70.9 125.6,71.4 126.2,72 C128,73.7 130.1,74.9 132.2,76.1 C132.8,76.4 133.3,76.8 133.8,77.1 C134.6,77.6 135.4,78.1 136.2,78.7 C136.6,79 136.9,79.3 137.3,79.6 C138.1,80.3 138.9,81 139.7,81.6 C141.6,82.9 143.4,84.3 144.6,86.2 C144.9,86.6 145.2,86.9 145.5,87.3 C145.8,87.6 146.1,88 146.3,88.2 C145.1,89.4 144,90.4 142.9,91.6 C141.8,92.8 141.4,94.3 141,95.8 C140.5,97.9 139.3,99.4 137.5,100.4 C137.3,100.5 137.1,100.6 136.9,100.7 C135.2,101.5 133.8,100.7 133.6,98.9 C133.5,98.2 133.7,97.5 133.7,96.9 C133.8,95.8 134,94.7 134.1,93.6 C134.1,93.1 134.1,92.5 133.9,91.9 C133.5,90.5 132.3,90 131,90.7 C129.8,91.4 128.6,92.1 127.4,92.9 C125.1,94.5 122.6,96 120.1,97.2 C119.2,97.6 118.3,98.1 117.5,98.7 C115.7,100.1 113.7,100.8 111.5,101.1 C110.9,101.2 110.4,101.1 110,100.6 C109.6,100.2 109.3,99.8 108.9,99.3 C107.8,98.1 106.5,98 105.3,99.1 C104.3,99.9 103.7,100.9 103.6,102.2 C103.5,103.9 103.4,105.6 103.4,107.3 C103.4,109 103.1,109.4 101.5,109.9 C99.3,110.6 97.1,111.4 95.4,113 C94.3,114.1 93,115 91.9,116 C90.4,117.4 90.2,118.8 91.5,120.4 C92.6,121.8 94.1,122.6 95.8,123.2 C96.8,123.5 97.6,123.2 98.2,122.3 C98.7,121.7 99.1,121.1 99.6,120.5 C100.3,119.8 100.6,119.7 101.5,120.2 C102.6,120.8 103.6,121.4 104.7,121.9 C108.1,123.6 111.2,122.9 113.7,120.1 C114.4,119.3 115.3,118.8 116.2,118 C116.6,118.5 117,119 117.3,119.5 C118.4,121.5 119.9,123.4 120.5,125.7 C120.6,126.1 120.9,126.5 121.2,126.8 C122.5,128 123.9,129.1 125.8,129.3 C125.8,129.3 125.9,129.3 125.9,129.3 C128.6,129.7 129.2,130.6 128.6,133.2 C128.4,134 128.1,134.8 127.8,135.6 C125.2,135.6 122.9,135.3 120.6,134.3 C118.3,133.2 115.9,132.2 113.6,131.2 C113.5,131.1 113.3,131.1 113.2,131 C109.6,129.1 106,128.9 102.2,130.4 C99.3,131.6 96.8,133.2 94.6,135.5 C94.2,136 93.6,136.3 93.1,136.6 C91.9,137.4 90.7,138 89.6,138.9 C88.8,139.5 88.1,140.3 87.4,141.1 C86.9,141.7 86.3,142.1 85.5,142.2 C85.2,142.2 84.9,142.3 84.7,142.5 C83.5,143.9 81.6,144.6 80.6,146.3 C80.1,147.2 79.4,147.9 78.9,148.7 C78.6,149.1 78.4,149.4 78.1,149.8 C76.4,152.1 76.2,154.4 77.8,156.9 C79.3,159.2 80.9,161.3 83.1,162.8 C83.4,163 83.7,163.2 83.9,163.5 C84.7,164.8 85.9,165.7 87.1,166.6 C89.7,168.5 92.3,170.5 94.8,172.5 C95.7,173.2 96.4,174 97.2,174.8 C97.8,175.4 98.3,176.1 98.9,176.6 C100.5,177.9 101.4,179.6 102.2,181.4 C102.4,181.9 102.7,182.5 103.1,183 C104.2,184.3 104.7,185.7 105.1,187.3 C105.7,189.5 106.3,191.7 107.1,193.8 C107.7,195.6 108.9,197 110.9,197.3 C112.2,197.5 113.5,197.7 114.8,197.9 C116.8,198.1 118.1,196.9 119.2,195.5 C120,194.3 120.6,193 120.9,191.6 C121.4,189.3 122,187 123.2,185 C123.4,184.6 123.6,184.2 123.7,183.8 C124.3,182.3 125.1,180.9 126,179.5 C127.1,177.7 128.1,175.7 129,173.8 C130,171.7 130.7,169.6 131.7,167.5 C132.4,166 133.1,164.4 134,163 C135.9,160.3 136.6,157.3 136.4,154 C136.3,151.2 136.2,148.3 136.1,145.5 C136.1,145.1 136.1,144.7 136.1,144.1 C136.9,144.6 137.1,145.4 137.4,146 C137.9,147.1 138.3,148.1 138.8,149.2 C139.3,150.3 140.1,150.8 141.3,151 C142.6,151.2 143.8,151.7 145.1,151.1 C145.2,151 145.4,151 145.6,151.1 C147.2,151.4 148.6,150.7 150,150.4 C151.4,150.1 152.2,149.1 152.3,147.7 C152.4,145.5 152.5,143.4 152.6,141.2 C152.7,139.2 152.7,137.1 152.7,135.1 C152.8,135.1 152.9,135 153,135 C153.2,135.3 153.3,135.7 153.5,136 C154.2,137.4 154.8,138.8 155.8,140.1 C157,141.5 157.9,141.8 159.6,141 C159.9,140.9 160.2,140.7 160.3,140.6 C161.6,140.7 162.8,140.9 164.1,141 C164.1,141.1 164.2,141.4 164.2,141.7 C164.3,143.1 164.4,144.4 164.6,145.8 C165.6,151.8 165.4,157.8 164.3,163.8 C164,165.8 163.3,167.9 162.4,169.7 C160.8,173.1 159,176.5 157.2,179.8 C156.9,180.5 156.5,181.1 156.2,181.8 C155.1,181.5 154.2,180.9 153.4,180.2 C151.8,178.8 150,177.8 147.9,177.4 C147.3,177.3 146.6,177.4 146.2,177.7 C144.5,178.9 142.6,180 141.5,181.9 C140.2,184.3 139,186.7 138.3,189.4 C137.5,192 136.6,194.5 135.8,197 C135,199.6 134.4,202.3 133.7,205 C133.6,205.4 133.6,205.8 133.5,206.3 C130.8,208 128.1,209.7 125.1,210.7 C124.1,211.1 123.1,211.5 122.1,212 C121.8,212.1 121.4,212.3 121.1,212.3 C120,212.2 119.1,212.5 118.2,213 C116.2,214.1 114.1,214.5 112,215.1 C111.7,215.2 111.2,215.1 110.9,215 C110.1,214.6 109.3,214.1 108.6,213.5 C107.1,212.2 105.3,211.7 103.5,212.2 C101.6,212.6 99.9,212.2 98.2,211.9 C97.1,211.7 96.1,211.3 95.1,210.9 C93.8,210.4 92.6,210.2 91.2,210.4 C89.7,210.6 88.2,210.8 86.7,211.1 C85.7,211.3 84.7,211.7 83.7,211.9 C82.2,212.3 80.7,212.7 79.1,212.9 C77.8,213.1 76.6,213.4 75.5,214.3 C74.4,215.3 72.9,215.9 71.4,215.5 C70.3,215.2 69.2,214.6 68.2,213.9 C66,212.5 63.8,211.1 61.2,210.5 C59.7,210.2 58.3,210.4 56.9,210.6 C55,211 53.1,211.5 51.2,211.8 C50.3,212 49.3,212.1 48.4,212.3 C47.7,212.4 47,212.7 46.3,212.8 C45.8,212.9 45.3,213 44.9,212.9 C44.1,212.8 43.4,212.8 42.9,213.6 C42.7,213.6 42.5,213.6 42.4,213.5 C39.3,211.8 36.2,210.1 33.1,208.3 C32.9,208.2 32.6,208 32.4,207.8 C30.3,205.8 28.1,203.7 26,201.7 C25.8,201.5 25.6,201.3 25.4,201.1 C23.6,198.8 21.3,196.9 19.2,194.8 C18.6,194.2 18.1,193.6 17.7,193 C16.6,191.5 15.5,190 14.6,188.5 C13.8,187.2 13.1,185.8 12.3,184.4 C11.9,183.7 11.6,183 11.3,182.2 C10.8,181 10.3,179.8 9.7,178.6 C9.3,177.7 8.9,176.8 8.4,175.9 C8.1,175.4 7.7,174.9 7.5,174.3 C6.6,171.5 5.6,168.8 4.8,166 C4.3,164.4 3.9,162.8 3.6,161.1 C2.7,156.6 1.7,152.1 2,147.5 C2.3,143.7 2.5,139.8 2.8,136 C3.3,134.1 4,131.8 5,129.3 Z" id="Shape" fill="#FFFFFF"></path>
                    <path d="M150,148.6 C148.5,148.7 147.2,149.6 145.7,149.2 C145.4,149.1 145,149.2 144.8,149.3 C143.9,149.7 143,149.4 142.1,149.1 C141.8,149 141.4,148.6 141.3,148.3 C140.9,147.5 140.5,146.6 140.2,145.8 C139.7,144.5 139,143.4 138,142.4 C137.6,142.1 137.2,141.8 136.7,141.6 C135.7,141.2 134.7,141.6 134.3,142.6 C134.1,143.1 134,143.8 134,144.3 C134,145.7 134.1,147 134.1,148.4 C134.2,150.8 134.3,153.1 134.3,155.5 C134.3,157.7 133.9,159.7 132.7,161.5 C130.4,164.9 129.2,168.8 127.6,172.4 C126.4,175 125.3,177.7 123.5,180 C123.4,180.2 123.3,180.3 123.2,180.5 C121.5,184.3 119.5,188 118.7,192.2 C118.5,193.2 117.9,194.1 117.4,195 C116.8,195.9 115.8,196.3 114.6,196.1 C113.9,196 113.1,195.8 112.4,195.7 C111,195.5 110.2,194.6 109.8,193.3 C109,190.5 108.2,187.8 107.3,185.1 C107.1,184.6 106.8,184.2 106.6,183.7 C105.8,182.3 105,181 104.2,179.5 C103.6,178.3 102.9,177.3 101.9,176.3 C100.7,175.1 99.6,173.7 98.3,172.6 C96.2,170.8 94,169.2 91.8,167.5 C90.6,166.5 89.2,165.8 88.1,164.6 C85.7,161.9 82.6,160 80.7,156.8 C79.2,154.2 79.2,153.6 81,151.2 C81.8,150.2 82.5,149.1 83.3,148.1 C83.6,147.7 84,147.4 84.4,147 C84.6,146.8 85,146.7 85.2,146.4 C85.9,145.6 86.7,145.1 87.8,144.8 C88.3,144.7 88.8,144.2 89.2,143.7 C91,141.7 93.3,140.5 95.5,138.9 C96,138.5 96.6,138.2 97,137.7 C98.1,136.5 99.3,135.5 100.7,134.7 C101.8,134.2 102.8,133.5 103.9,133 C106.3,131.9 108.8,132.2 111.2,132.9 C112.9,133.4 114.4,134.4 116.1,135.1 C118.3,136.1 120.5,137.1 122.7,137.9 C124.3,138.4 126.2,138.4 127.9,138.6 C129,138.7 129.9,138.1 130.5,137.1 C131.4,135.5 131.9,133.8 131.8,131.9 C131.7,129.9 130.8,128.4 128.8,127.7 C128.2,127.5 127.6,127.4 126.9,127.2 C124.9,126.8 123.4,125.9 122.7,123.8 C122,121.4 120.4,119.5 119.1,117.5 C118.9,117.2 118.6,117 118.4,116.7 C117.3,115.7 116.4,115.5 115.2,116.4 C114.1,117.2 112.9,118 112,119 C110.5,120.8 108.6,121.1 106.5,120.1 C105.4,119.6 104.3,118.9 103.2,118.3 C101.2,117.2 99.7,117.5 98.2,119.2 C97.7,119.8 97.2,120.4 96.7,121 C95.5,120.4 94.4,119.9 93.7,118.5 C94.2,118 94.8,117.6 95.3,117.1 C97.6,115 100.1,113.2 103.3,112.4 C105.6,111.8 106.6,110.2 106.6,107.8 C106.6,106.2 106.6,104.6 106.7,103 C106.7,102.4 106.9,101.7 107.6,101.3 C107.9,101.6 108.2,101.9 108.4,102.2 C109.6,103.6 111.1,104 112.9,103.7 C115.5,103.3 117.8,102.3 119.9,100.7 C120.5,100.2 121.2,99.8 122,99.5 C124.6,98.3 127.1,96.8 129.4,95.1 C130.2,94.5 131.1,94 132,93.5 C132.1,93.6 132.2,93.6 132.2,93.7 C132.1,94.6 131.9,95.4 131.9,96.3 C131.8,97.5 131.6,98.7 131.8,99.9 C132.4,103.2 135.6,104.7 138.6,103.2 C141.3,101.9 143.2,99.8 144,96.8 C144.2,95.9 144.4,95 144.9,94.2 C145.9,92.3 147.3,90.8 149.8,90.7 C150.1,91.3 150.6,92 150.9,92.8 C151.4,94 152.1,94.9 153,95.8 C153.9,96.7 154.5,97.8 155.2,98.9 C156,100.2 156.8,101.6 157.6,102.9 C157.9,103.4 158.3,103.9 158.5,104.4 C159.6,107.3 161.2,110.1 162.1,113.2 C162.7,115.1 163,117.1 163.6,119 C164.9,123.6 164.7,128.3 164.8,132.9 C164.8,134.8 164.8,136.6 164.8,138.6 C164,138.6 163.2,138.8 162.7,138.6 C161.5,138.1 160.4,138.1 159.3,138.9 C159.2,139 159,139 158.8,139.1 C158.1,138.6 157.6,137.9 157.3,137.2 C156.8,136.1 156.3,134.9 155.8,133.8 C155.5,133.2 155.2,132.5 154.8,131.9 C154.3,131.2 153.6,130.8 152.7,131 C151.9,131.2 151.4,131.8 151.3,132.6 C151.1,134 150.9,135.4 150.8,136.8 C150.7,138.7 150.8,140.6 150.7,142.4 C150.7,144 150.6,145.5 150.5,147.1 C150.2,147.8 150.1,148.1 150,148.6 Z" id="Shape" fill="#FFFFFF"></path>
                    <path d="M33.5,37.1 C32.4,35.6 32.5,34.7 33.7,33.1 C34.4,32.2 34.9,31.2 35.6,30.4 C36.4,29.4 37.2,28.5 38.1,27.6 C39.6,26.2 41.2,24.8 42.7,23.4 C45.8,20.7 49.3,18.4 53.1,16.9 C54.9,16.2 56.9,15.9 58.8,15.5 C61.7,15 64.7,14.5 67.7,14.1 C70.8,13.7 73.9,13.4 77,13.1 C79.3,12.9 81.7,12.8 84,12.3 C86.7,11.8 89.4,11 92,10.2 C96.2,8.9 100.4,7.6 104.5,6.2 C107.3,5.3 110.1,4.5 112.9,3.9 C114.1,3.6 115.3,3.5 116.6,3.4 C118.1,3.3 119.2,3.8 120.2,5 C122.2,7.1 123,9.8 124.1,12.3 C124.9,14.1 124.8,16.1 124.9,18 C125,20.5 124.3,23 123.9,25.5 C123.6,27.2 123.9,28.7 124.7,30.2 C125.7,31.9 126.6,33.5 127.6,35.2 C129.1,37.8 130.7,40.3 132.2,42.9 C133.2,44.7 134.2,46.5 135.1,48.3 C135.9,49.8 136.6,51.4 137.3,52.9 C138.4,55 139,57.3 139.4,59.6 C139.4,59.8 139.4,60.1 139.4,60.4 C138.6,60.6 137.8,60.9 137,60.8 C136.5,60.7 135.9,60.9 135.6,61.2 C134.4,62.2 133.1,62.8 131.7,63.2 C128.5,64 125.3,64.8 122.1,65.6 C119.2,66.3 116.4,67.1 113.5,67.8 C111,68.4 108.4,68.8 105.8,69.2 C104.7,69.4 103.5,69.2 102.3,69.2 C99.9,69.1 97.5,68.9 95.1,68.8 C90.2,68.6 85.5,69.4 80.8,70.7 C74.3,72.4 68,74.8 61.8,77.6 C59.4,78.7 57.1,80 55.2,81.9 C54.3,82.8 53.2,83.4 52.2,84.1 C51.1,83.5 50.9,82.8 51.2,81.8 C51.7,80.3 52.7,79.1 54.2,78.5 C55.7,77.8 57.3,77.4 58.8,76.8 C59.1,76.7 59.3,76.6 59.6,76.5 C62.9,74.9 66.2,73.3 69.5,71.7 C70.2,71.4 70.9,71 71.4,70.5 C74.8,67.4 77.9,64 79.9,59.7 C80.8,57.7 81.4,55.6 81.7,53.5 C82.1,50.9 82.4,48.3 82.5,45.6 C82.5,42.2 82.2,38.9 80.7,35.8 C80.3,35 80.1,34.1 79.7,33.2 C78.7,31 76.9,29.3 75.1,27.8 C74.5,27.3 73.8,26.9 73.3,26.4 C71.5,24.7 69.5,23.5 67.2,22.8 C67,22.7 66.9,22.7 66.8,22.6 C62.1,20.2 57.3,21 52.7,22.8 C51.4,23.3 50.3,24 49.1,24.7 C47.6,25.5 46,26.4 44.5,27.2 C43.1,27.9 41.9,28.9 41,30.2 C40.7,30.6 40.4,31 40.1,31.3 C38.5,32.8 36.8,34.3 35.2,35.8 C34.6,36.3 34,36.7 33.5,37.1 Z" id="Shape" fill="#FFFFFF"></path>
                    <path d="M52.8,196.5 C50.5,194.9 48,194.5 46.2,192.7 C45.6,192.1 44.8,191.8 44.1,191.3 C41.3,189.6 38.5,187.8 35.6,186.1 C35.2,185.8 34.8,185.5 34.4,185.3 C32.2,184.1 30.6,182.3 28.7,180.7 C26.3,178.6 24.3,176.3 22.3,173.9 C21.4,172.8 20.5,171.6 20.1,170.2 C20,169.7 19.7,169.3 19.5,168.9 C17.8,165.5 18.2,162.1 19.5,158.7 C20.1,157.1 21.5,155.9 22.8,154.8 C24.1,153.7 25.2,152.5 26.1,151.2 C26.5,150.6 27.1,150 27.7,149.6 C29.8,148.2 30.7,145.6 29.7,143.1 C29.3,142.1 28.8,141.1 28.3,140.1 C28.1,139.6 27.8,139.2 27.6,138.7 C27.1,137.7 26.6,136.9 25.5,136.6 C25.2,136.5 24.9,136.2 24.6,136 C24.3,135.8 24,135.6 23.7,135.5 C22.8,135.2 21.9,135 20.9,134.8 C19.7,132.3 17.3,131.8 15,131.4 C13,131 11.3,130.1 9.6,129 C9.1,128.7 8.6,128.4 8,128.2 C7.1,127.9 6.3,127.4 5.6,126.5 C6.1,125.4 6.5,124.2 7,123.1 C8.3,120.5 9.6,118 10.8,115.4 C11.7,113.5 12.8,111.5 13.5,109.5 C14.9,105.8 17.2,102.5 19.2,99.1 C19.2,99.1 19.3,99 19.3,99 C21.9,93.9 26.2,90.2 30,86 C30.5,85.5 31.1,85 31.7,84.5 C31.8,85.1 32,85.5 32.1,85.9 C32.5,87.5 33.3,88.8 34.9,89.4 C36.9,90.2 38.9,91.2 41,91.9 C42.8,92.5 44.6,92.8 46.5,93.2 C47.7,93.5 48.6,94.1 49.1,95.3 C49.3,95.9 49.7,96.4 50,97 C51.1,98.9 50.9,100.1 49.2,101.5 C47.1,103.3 45,105.1 42.9,106.9 C38.8,110.3 37.6,114.7 38,119.8 C38.2,121.5 38.7,123.2 39.2,124.8 C39.7,126.7 39.5,127.9 38,129.2 C36.4,130.6 34.5,131.7 32.5,132.6 C31.7,133 30.9,133.4 30.1,133.8 C28.6,134.6 28,136.2 28.8,137.7 C29.2,138.4 29.8,139 30.5,139.5 C31.3,140.1 32.2,140.7 32.8,141.5 C33.6,142.5 34.6,143.4 35.7,144 C36.8,144.6 38.1,144.8 39.3,145.1 C39.8,145.2 40.3,145.3 40.8,145.3 C41.5,145.3 42.2,145.3 42.9,145.2 C43.8,145 44.6,145.1 45.5,145.3 C47,145.6 48.6,145.8 50.1,146 C50.9,146.1 51.7,146.2 52.4,146.4 C53.2,146.6 53.9,147 54.6,147.4 C55.4,147.8 55.9,148.4 56.1,149.3 C56.8,152.8 56.9,156.4 56.3,159.9 C55.4,164.7 54.7,169.5 53.7,174.3 C53,177.7 53,181 53.3,184.4 C53.5,187 53.7,189.6 53.7,192.2 C53.7,193.2 53.6,194.2 53.4,195.2 C53.5,195.4 53.1,195.8 52.8,196.5 Z" id="Shape" fill="#FFFFFF"></path>
                    <path d="M57.9,82.7 C58.8,82.1 59.6,81.3 60.6,80.9 C69,76.8 77.8,73.5 87,71.7 C90,71.1 93.1,71 96.2,71.2 C97.7,71.3 99.1,71.4 100.6,71.4 C100.6,71.5 100.7,71.6 100.7,71.7 C99.9,72.2 99.1,72.9 98.3,73.3 C96.6,74.2 94.9,75.1 93.1,75.8 C89.5,77.2 86.1,78.9 82.3,79.7 C79.1,80.4 75.9,81.2 72.8,82 C72.3,82.1 71.7,82.3 71.2,82.5 C69.2,83.5 67,83.9 64.7,84.1 C63.1,84.2 61.5,84.6 59.9,84.9 C59.6,85 59.3,85 58.9,85.1 C58.5,84.4 58.2,83.7 57.9,82.7 Z" id="Shape" fill="#FFFFFF"></path>
                    <path d="M107.8,216.6 C106.9,216.9 106.2,217.2 105.5,217.3 C104.1,217.6 102.7,217.7 101.3,218 C100.3,218.2 99.4,218.6 98.4,218.9 C96.4,219.4 94.4,219.9 92.3,220.1 C89.9,220.3 87.5,220.3 85.1,220.3 C84.6,220.3 84.1,220.3 83.7,220.4 C80.6,220.9 77.5,220.6 74.4,220.1 C73.5,219.9 72.6,219.9 71.7,219.7 C70.2,219.5 68.8,219.2 67.3,218.9 C66.2,218.7 65.1,218.5 64,218.4 C62.1,218.2 60.1,218.1 58.1,218 C57.5,218 57,217.8 56.5,217.7 C55.4,217.4 54.3,217.1 53.2,217.4 C52.8,217.5 52.3,217.4 51.9,217.3 C50.4,217 49,216.4 47.7,215.7 C48.5,215.5 49.4,215.3 50.2,215.1 C51.7,214.8 53.1,214.5 54.6,214.2 C56.1,213.9 57.7,213.6 59.2,213.4 C60.5,213.2 61.8,213.6 63,214.2 C64.7,215.1 66.4,216 67.9,217.1 C69.7,218.4 71.8,219 74,218.5 C75.2,218.2 76.3,217.5 77.3,216.8 C78,216.4 78.6,216.1 79.4,216 C81.5,215.8 83.5,215.4 85.4,214.6 C86.3,214.2 87.2,214.1 88.2,213.9 C89.2,213.7 90.2,213.6 91.2,213.4 C92.3,213.2 93.4,213.3 94.4,213.7 C96.7,214.7 99.2,215.2 101.7,215.4 C102.4,215.5 103.1,215.3 103.8,215.2 C105.5,215 106.7,215.2 107.8,216.6 Z" id="Shape" fill="#FFFFFF"></path>
                    <path d="M136.8,205 C136.9,204.6 136.9,204.2 137,203.8 C138,200.6 139,197.5 140,194.3 C140.1,193.8 140.4,193.4 140.5,192.9 C141.1,190 142.4,187.4 143.6,184.7 C144,183.9 144.5,183.1 145.3,182.5 C145.9,182 146.5,181.5 147,181 C147.5,180.5 148.1,180.4 148.8,180.7 C150,181.3 151.3,181.9 152.4,182.9 C153.2,183.6 154.1,184.1 155,184.7 C154,186.8 152.1,188.3 150.6,190.1 C150.2,190.5 149.9,191.1 149.8,191.6 C149.6,193.1 148.8,194.2 147.9,195.3 C145.6,198.1 142.8,200.3 139.9,202.5 C139.4,202.9 138.9,203.4 138.4,203.9 C138,204.3 137.5,204.7 137.1,205 C137,205.1 136.9,205 136.8,205 Z" id="Shape" fill="#FFFFFF"></path>
                    <path d="M35.1,39.8 C35.9,38.8 36.6,37.6 38,36.9 C38.3,37.6 38.6,38.4 38.9,39.1 C39.6,40.7 40.4,42.2 41,43.8 C41.6,45.3 42.2,46.9 42.8,48.5 C43.6,51 44.4,53.4 45.1,55.9 C45.9,58.4 46.5,61 47.3,63.5 C48.5,66.9 49.8,70.3 51.1,73.7 C51.5,74.7 51.8,75.6 52.1,76.5 C51.4,77.2 50.8,77.9 50.1,78.6 C49.1,76.2 48.1,74 47.1,71.8 C46.1,69.5 45,67.2 43.9,64.8 C43.6,64.1 43.4,63.4 43.1,62.7 C42.1,59.9 41.1,57.1 40.1,54.2 C39.6,52.9 39.2,51.7 38.7,50.4 C37.9,48.2 37.2,46 36.4,43.9 C36,42.6 35.5,41.2 35.1,39.8 Z" id="Shape" fill="#FFFFFF"></path>
                    <path d="M53.3,86.4 C54.2,85.8 55,85.3 55.9,84.6 C56.3,85.8 56.7,86.9 57.1,88 C57.6,89.2 58.1,90.4 58.6,91.6 C59.4,93.5 60.1,95.5 60.9,97.4 C61.1,97.9 61.2,98.4 61.5,98.8 C62.6,100.6 63.4,102.6 63.9,104.6 C64.1,105.4 64.6,106.1 65,106.9 C66.6,110.1 67.6,113.5 68.8,116.8 C69.8,119.4 70.8,122 71.8,124.6 C72,125 72.1,125.5 72.3,126 C71.4,126.4 70.5,126.8 69.4,127.3 C69.2,126.9 68.9,126.4 68.7,126 C67.3,122.3 65.9,118.6 64.5,114.9 C63.6,112.6 62.8,110.3 61.9,107.9 C61.8,107.6 61.7,107.2 61.6,106.9 C61.2,105.4 60.7,104 59.8,102.6 C58.8,101 58.2,99.3 57.5,97.6 C56.4,94.9 55.3,92.1 54.2,89.4 C54,88.5 53.7,87.5 53.3,86.4 Z" id="Shape" fill="#FFFFFF"></path>
                    <path d="M72.3,28.8 C69.9,29.5 67.7,29.4 65.5,29.1 C63.7,28.8 61.8,29 60,29 C59.9,29 59.8,29 59.6,29 C57.1,28.9 55,29.5 52.8,30.8 C50.1,32.3 47.2,33.3 44.5,34.7 C43.2,35.3 42.1,36.2 40.8,37 C40.5,36.5 40.1,35.8 39.7,35.1 C39.9,34.9 40.2,34.7 40.4,34.4 C41.3,33.5 42.1,32.5 43,31.6 C43.5,31.1 44,30.4 44.6,30 C47.5,28.3 50.4,26.7 53.3,25.2 C56,23.8 58.9,23.6 61.8,23.6 C62.4,23.6 63.1,23.8 63.7,24 C65.1,24.5 66.5,25.1 67.9,25.7 C69.6,26.3 70.9,27.5 72.3,28.8 Z" id="Shape" fill="#FFFFFF"></path>
                    <path d="M59.6,87.7 C61.4,87 63.1,86.8 64.8,86.6 C67.3,86.4 69.8,85.9 72.1,84.8 C72.7,84.5 73.4,84.4 74.2,84.1 C72.6,89.5 68.2,98.2 66.4,99.5 C65.1,99 64,98.4 63.5,96.9 C62.9,95.1 62.2,93.4 61.5,91.6 C61.3,91 60.9,90.4 60.6,89.8 C60.2,89.2 59.9,88.4 59.6,87.7 Z" id="Shape" fill="#FFFFFF"></path>
                    <path d="M64.5,66.3 C64.5,68.2 64.5,68.2 65.6,70.5 C62,72.4 58.5,74.4 54.5,75.4 C53.8,73.6 53.1,71.8 52.3,70 C56.2,68.2 60.1,66.7 64.5,66.3 Z" id="Shape" fill="#FFFFFF"></path>
                    <path d="M30.1,23.5 C31.2,23.1 32.3,22.6 33.5,22.1 C34.6,23.5 35.1,25 35.4,26.6 C34.2,28.3 33.1,29.9 31.9,31.5 C30.7,28.9 29.8,26.4 30.1,23.5 Z" id="Shape" fill="#FFFFFF"></path>
                    <path d="M73.6,64.9 C71.9,66.5 70.7,68.5 68.4,69.4 C66.9,68.7 66.9,67.3 66.9,65.9 C69.1,65.5 71.3,65 73.5,64.6 C73.5,64.7 73.6,64.8 73.6,64.9 Z" id="Shape" fill="#FFFFFF"></path>
                </g>
            </g>
        </g>
    </g>
</svg>