<?xml version="1.0" encoding="utf-8"?>
<!-- Generator: Adobe Illustrator 24.0.1, SVG Export Plug-In . SVG Version: 6.00 Build 0)  -->
<svg version="1.1" xmlns="http://www.w3.org/2000/svg" xmlns:xlink="http://www.w3.org/1999/xlink" x="0px" y="0px"
	 viewBox="0 0 156.8 136.3" style="enable-background:new 0 0 156.8 136.3;" xml:space="preserve">
<style type="text/css">
	.st0{fill:#B7D6E2;}
	.st1{fill:#DDDDDD;}
	.st2{fill:#FFFFFF;}
</style>
<g id="Calque_2">
	<g>
		<path class="st0" d="M30.1,78.9c25.4-20.3,52-41.2,83.8-47.8c5.1-1.1,10.8-1.7,15.3,1.1c7.5,4.6,7.5,15.4,6.1,24.1
			c-2.2,13.9-5.4,27.7-9.6,41.2c-0.7,2.4-1.6,4.9-3.3,6.7c-1.7,1.8-4.2,2.7-6.6,3.4c-23.3,6.7-48.1-0.8-71.2-8.2
			c-4.4-1.4-8.9-2.9-12.1-6.1s-4.8-8.7-2.1-12.4"/>
	</g>
</g>
<g id="Calque_1">
	<g>
		<path d="M76.2,100.8c-3.5,3-6.7,1.9-10.2-0.1c0,0.9,0,1.6,0.1,2.3c0.1,1-0.4,1.6-1.1,2c-1.2,0.7-2.6,1.3-3.7,2.1
			c-2.6,1.9-7.9,1.6-10.5-1.7c-1.2-1.5-2.2-3.2-3.2-4.9c-2.9-5.3-5.9-10.5-8.7-15.9c-1.2-2.2-2-4.4-2-6.9c0-2.5,0.3-4.7,3-6.3
			c-0.6-0.5-1-1-1.5-1.2c-2.8-1-5.6-1.8-8.4-2.8c-4.9-1.8-7.4-5.7-8.3-10.6c-0.5-2.4,0.5-4.7,1.7-6.7c1.4-2.5,3.5-4.4,6.2-5.6
			c0.1-0.1,0.3-0.1,0.4-0.2c3.1-2.7,6.9-2.4,10.6-2.7c1.4-0.1,2.8-0.2,4.2-0.2c2.3,0,4.5-0.8,6.2-2.3c4-3.7,9.1-5.8,13.5-8.9
			c2.7-1.9,5.7-3,9-3.5c5-0.9,9.7-0.3,14.1,2.7c5.8,3.9,11.5,7.9,16.3,13.1c2.1,2.3,4.7,4.3,7,6.3c3,2.7,4,6.1,4.2,10
			c0.1,1,0.1,2,0,3c-0.1,0.8-0.3,1.6-0.6,2.3c-0.4,0.8-1,1.4-1.5,2.2c-1.6,2.2-3.5,3.8-6.3,4.3c-0.7,0.1-1.4,0.4-1.9,0.9
			c-0.8,0.8-1.3,1.5-0.4,2.8c0.6,0.8,0.6,2.3,0.5,3.4c-0.5,3.5-2.2,6.6-4.4,9.3c-3.6,4.4-7.2,8.8-10.9,13.1
			c-1.2,1.4-2.6,2.5-3.9,3.7c-0.5,0.4-1.1,0.8-1.7,0.8c-1.7-0.2-3.5-0.4-5.1-0.8C77.5,103.2,76.5,102.4,76.2,100.8z M41.4,70.5
			c1.5-1,2.7-1.8,3.9-2.6c1.9-1.2,3-1.1,4.7,0.2c2.4,1.8,4.2,4.2,5.6,6.8c2.3,4.3,4.6,8.6,6.7,13c1.2,2.6,2.2,5.3,2.9,8.1
			c0.4,1.4,0.7,2.4,2,3c1.2,0.5,2.3,1.2,3.5,1.5c2.4,0.5,5.4-1.6,6-4c0.2-0.8,0.5-1.7,0.9-2.5c1.2-2.3,2.5-4.6,3.7-7
			C85,80.4,90,74.8,95.6,69.8c1.6-1.4,2.8-1.5,4.6-0.3c0.7,0.4,1.4,0.9,2,1.4c0.7-1.4,0.6-3-0.6-4.4c-2.3-2.5-4.7-4.9-7.1-7.3
			c-1.4-1.4-3-2.5-4.3-4c-3.8-4.3-7.5-8.8-11.4-13.1c-0.5-0.5-1.4-1-2.1-1c-2.5,0.1-4.7,1.2-6.5,2.9c-4.9,4.6-10.4,8.4-16.7,11.1
			c-3.4,1.5-6.6,3.2-9.8,5.1c-1.5,0.9-2.6,2.4-3.8,3.8c-0.4,0.5-0.5,1.5-0.4,2.1C40.1,67.5,40.7,68.9,41.4,70.5z M32.7,45.1
			c-3,1.4-4.7,4-5.2,7.4c-0.5,3.6,0.1,7.1,3.3,9.3c1.9,1.3,4.3,2,6.4,3c1.1-2.7,2.6-4.8,4.8-6.2c2.6-1.6,5.2-3.1,8-4.3
			c6.4-2.8,12.4-6.1,17.6-10.8c2.4-2.2,4.8-4,8.1-4.5c1.9-0.3,3.5,0.1,4.7,1.5c3.9,4.5,7.7,9,11.6,13.6c0.7,0.8,1.3,1.5,2.1,2.2
			c2.6,2.4,5.2,4.9,7.9,7.1c0.9,0.7,2.3,1.4,3.3,1.2c1.9-0.3,3.6-1.3,5.5-2c-0.2-0.6-0.3-0.9-0.5-1.2c-1.7-2.6-3.3-5.3-5-7.9
			c-1.1-1.5-2.2-3-3.6-4.3c-4.2-4-8.5-7.9-12.9-11.8c-2.6-2.3-5.4-4.3-8.8-5.5c-3.7-1.2-7.2-1.1-10.4,1c-2.1,1.4-4.1,3-6,4.8
			c-3.1,2.8-6.4,5.3-10.2,7c-1.5,0.7-3.1,1.5-4.7,1.6c-4.7,0.3-9.4,0.3-14.1-0.5C34,45.7,33.5,45.4,32.7,45.1z M60.9,102.5
			c-0.1-3-0.9-5.9-2.2-8.5c-2.6-5.4-5.2-10.7-8-16c-1.6-3.1-3.4-6-7.6-5.4c-1.5,0.2-3.6,1.2-3.7,2.5c-0.2,1.6-0.3,3.2,0,4.7
			c0.6,3.1,2.4,5.7,3.9,8.4c2.6,4.5,5,9.1,7.5,13.7c1.1,1.9,2.5,3.7,4.8,4.1C59.3,106.6,61,105.9,60.9,102.5z M81.4,99.6
			c0,0.2-0.1,0.4,0,0.6c0.3,0.7,0.6,1.5,1.2,1.9c0.8,0.6,1.6,0.1,2.2-0.5c1.1-1.1,2.4-2.1,3.4-3.2c4-4.8,8-9.6,11.8-14.5
			c1.7-2.2,2.7-4.7,2.9-7.5c0.1-1-0.4-1.8-1.3-2.2c-0.9-0.5-1.7-0.6-2.6,0c-0.6,0.4-1.2,0.8-1.7,1.3c-4.4,4.2-8.5,8.6-11.9,13.7
			C83.2,92.3,82,95.8,81.4,99.6z M39,43.9c0,0.1,0,0.2,0,0.3c3.3,0,6.6,0,9.9,0c0.3,0,0.6-0.1,0.8-0.2c2.9-1.5,5.9-2.8,8.6-4.7
			c2.5-1.7,4.6-3.9,6.9-5.9c1.9-1.7,4-3.1,6.5-3.8c5.8-1.7,10.9,0.2,15.3,3.7c4.6,3.6,8.8,7.7,13.3,11.6c5.2,4.6,9.1,10.1,12.2,16.2
			c0,0,0.1,0.1,0.3,0.1c0-0.8,0-1.6,0-2.4c-0.2-3.4-1-6.5-3.7-8.8c-1.8-1.5-3.5-3.1-5.2-4.7c-2.3-2.1-4.3-4.6-6.8-6.4
			c-4.2-3.2-8.6-6.1-13-9c-1.2-0.8-2.7-1.4-4-1.4c-2.6-0.1-5.2,0.2-7.7,0.6c-3,0.5-5.6,2-8.1,3.7c-4,2.8-8.5,4.7-12.2,8.1
			c-1.7,1.6-3.9,2.5-6.3,2.6c-1.6,0.1-3.3,0.2-4.9,0.3C40.3,43.8,39.6,43.8,39,43.9z M45.5,70.5c0.7,0.1,1.4,0.1,1.9,0.4
			c1.9,1,3.3,2.7,4.3,4.6c2.5,4.7,5,9.5,7.3,14.3c1.3,2.8,2.4,5.7,3.3,8.6c0.5,1.7,0.6,3.5,0.9,5.6c0.3-0.6,0.7-1,0.7-1.3
			c-0.3-3.6-0.4-7.3-2.1-10.6c-2.7-5.4-5.3-10.8-8.1-16c-1.1-2-2.7-3.9-4.3-5.6C47.9,68.7,47.1,68.9,45.5,70.5z M25.8,50.4
			c-0.4,0.5-0.5,0.7-0.7,1c-2.6,4.4-0.8,9,2.2,11.9c2.8,2.7,6.7,3.5,10.4,4.3c-0.2-0.3-0.5-0.6-0.9-0.7c-1.1-0.4-2.1-0.9-3.2-1.2
			c-4-1.3-6.7-3.7-7.9-7.8C25,55.4,25.1,53.1,25.8,50.4z M99.2,71.5c-1.1-0.9-1.4-0.9-2.5,0.1c-4,3.6-7.6,7.6-10.8,12
			c-0.6,0.8-1,1.7-1.5,2.5C89.2,80.9,93.2,75.2,99.2,71.5z M104.8,68.6c3.8-0.9,5-1.7,6-3.6c-2,0.7-4.1,1.4-6.2,2.2
			C104.6,67.6,104.7,68.1,104.8,68.6z M78.9,101.4c0.1,0,0.3-0.1,0.4-0.1c-0.4-3.5,1-6.5,2-9.7c-0.9,1.5-1.6,3.1-2.2,4.7
			c-0.4,1.2-0.6,2.5-0.7,3.7C78.3,100.5,78.7,101,78.9,101.4z"/>
		<path class="st2" d="M41.4,70.5c-0.6-1.7-1.3-3-1.7-4.4c-0.2-0.6,0-1.6,0.4-2.1c1.1-1.4,2.3-2.9,3.8-3.8c3.1-1.9,6.4-3.6,9.8-5.1
			c6.2-2.7,11.7-6.5,16.7-11.1c1.8-1.7,4-2.8,6.5-2.9c0.7,0,1.6,0.4,2.1,1c3.8,4.3,7.5,8.8,11.4,13.1c1.3,1.5,2.9,2.6,4.3,4
			c2.4,2.4,4.9,4.7,7.1,7.3c1.2,1.4,1.3,3,0.6,4.4c-0.7-0.5-1.3-1-2-1.4c-1.8-1.1-3.1-1.1-4.6,0.3C90,74.8,85,80.4,81.4,87
			c-1.2,2.3-2.5,4.6-3.7,7c-0.4,0.8-0.7,1.6-0.9,2.5c-0.6,2.4-3.6,4.5-6,4c-1.2-0.3-2.3-1-3.5-1.5c-1.3-0.6-1.7-1.6-2-3
			c-0.7-2.8-1.7-5.5-2.9-8.1c-2.1-4.4-4.4-8.7-6.7-13c-1.4-2.6-3.2-5-5.6-6.8c-1.7-1.3-2.9-1.4-4.7-0.2
			C44.1,68.7,42.9,69.5,41.4,70.5z"/>
		<path class="st2" d="M60.9,102.5c0.2,3.4-1.6,4.1-5.3,3.5c-2.3-0.4-3.7-2.1-4.8-4.1c-2.5-4.5-4.9-9.1-7.5-13.7
			c-1.5-2.7-3.3-5.3-3.9-8.4c-0.3-1.5-0.2-3.2,0-4.7c0.2-1.3,2.2-2.3,3.7-2.5c4.3-0.6,6.1,2.3,7.6,5.4c2.7,5.3,5.4,10.6,8,16
			C59.9,96.6,60.7,99.5,60.9,102.5z"/>
		<path class="st2" d="M81.4,99.6c0.6-3.8,1.8-7.3,3.9-10.4c3.4-5.1,7.5-9.5,11.9-13.7c0.5-0.5,1.1-0.9,1.7-1.3
			c0.8-0.6,1.7-0.5,2.6,0c0.8,0.5,1.4,1.2,1.3,2.2c-0.2,2.8-1.2,5.3-2.9,7.5c-3.8,4.9-7.8,9.7-11.8,14.5c-1,1.2-2.3,2.1-3.4,3.2
			c-0.7,0.6-1.5,1.1-2.2,0.5c-0.6-0.4-0.8-1.3-1.2-1.9C81.3,100,81.4,99.8,81.4,99.6z"/>
		<path class="st2" d="M39,43.9c0.6,0,1.2-0.1,1.9-0.1c1.6-0.1,3.3-0.2,4.9-0.3c2.4-0.2,4.6-1.1,6.3-2.6c3.7-3.3,8.2-5.3,12.2-8.1
			c2.5-1.7,5.1-3.2,8.1-3.7c2.5-0.4,5.2-0.6,7.7-0.6c1.4,0,2.8,0.7,4,1.4c4.4,2.9,8.8,5.8,13,9c2.5,1.9,4.5,4.3,6.8,6.4
			c1.7,1.6,3.5,3.2,5.2,4.7c2.7,2.3,3.6,5.4,3.7,8.8c0,0.8,0,1.6,0,2.4c-0.1-0.1-0.2-0.1-0.3-0.1c-3.1-6.1-7-11.7-12.2-16.2
			c-4.4-3.9-8.7-8-13.3-11.6c-4.4-3.5-9.5-5.4-15.3-3.7c-2.5,0.7-4.5,2.1-6.5,3.8c-2.3,2-4.4,4.2-6.9,5.9c-2.7,1.8-5.7,3.1-8.6,4.7
			c-0.2,0.1-0.5,0.2-0.8,0.2c-3.3,0-6.6,0-9.9,0C39,44.1,39,44,39,43.9z"/>
		<path class="st2" d="M45.5,70.5c1.7-1.7,2.4-1.8,4-0.1c1.6,1.7,3.2,3.5,4.3,5.6c2.9,5.3,5.5,10.6,8.1,16c1.7,3.3,1.8,7,2.1,10.6
			c0,0.3-0.4,0.7-0.7,1.3c-0.3-2.1-0.4-3.9-0.9-5.6c-0.9-2.9-2-5.8-3.3-8.6c-2.3-4.8-4.8-9.5-7.3-14.3c-1-1.9-2.4-3.5-4.3-4.6
			C46.8,70.7,46.1,70.7,45.5,70.5z"/>
		<path class="st2" d="M25.8,50.4c-0.6,2.7-0.7,5-0.1,7.4c1.1,4.1,3.9,6.6,7.9,7.8c1.1,0.4,2.2,0.8,3.2,1.2c0.3,0.1,0.6,0.4,0.9,0.7
			c-3.8-0.8-7.6-1.6-10.4-4.3c-3-2.9-4.8-7.4-2.2-11.9C25.2,51.1,25.4,50.9,25.8,50.4z"/>
		<path class="st2" d="M99.2,71.5c-6,3.7-10,9.4-14.7,14.6c0.5-0.8,0.9-1.7,1.5-2.5c3.2-4.4,6.8-8.4,10.8-12
			C97.9,70.6,98.1,70.6,99.2,71.5z"/>
		<path class="st2" d="M104.8,68.6c-0.1-0.6-0.2-1.1-0.3-1.4c2.2-0.7,4.2-1.5,6.2-2.2C109.8,67,108.6,67.7,104.8,68.6z"/>
		<path class="st2" d="M78.9,101.4c-0.2-0.5-0.6-0.9-0.5-1.4c0.1-1.3,0.3-2.5,0.7-3.7c0.6-1.6,1.4-3.2,2.2-4.7c-1,3.2-2.4,6.2-2,9.7
			C79.2,101.4,79,101.4,78.9,101.4z"/>
	</g>
</g>
</svg>
