<?xml version="1.0" encoding="utf-8"?>
<!-- Generator: Adobe Illustrator 24.0.1, SVG Export Plug-In . SVG Version: 6.00 Build 0)  -->
<svg version="1.1" xmlns="http://www.w3.org/2000/svg" xmlns:xlink="http://www.w3.org/1999/xlink" x="0px" y="0px"
	 viewBox="0 0 156.8 136.3" style="enable-background:new 0 0 156.8 136.3;" xml:space="preserve">
<style type="text/css">
	.st0{fill:#B7D6E2;}
	.st1{fill:#DDDDDD;}
	.st2{fill:#FFFFFF;}
</style>
<g id="Calque_2">
	<g>
		<path class="st0" d="M18.2,56.6c-2.1,10.2-2.2,20.7-0.3,30.9c1,5.4,2.7,11.1,7.1,14.6c4.9,3.9,11.8,3.9,18.1,3.7
			c12.8-0.3,25.7-0.6,38.2,2.3c6,1.4,11.9,3.6,18,4c15.1,1,29.4-8.9,37.2-21.8c2.5-4.2,4.6-9.1,3.5-13.9c-0.8-3.6-3.3-6.6-5.9-9.2
			c-10-10.1-23.1-16.7-36.7-20.9s-27.8-6.2-41.9-8.2c-5-0.7-10.1-1.4-15.2-1.2c-5.6,0.3-11.4,1.7-15.7,5.2
			c-4.4,3.5-7.1,9.2-6.1,14.7"/>
	</g>
</g>
<g id="Calque_1">
	<g>
		<path d="M95.2,87.7c-6.6,0.1-13.1,0.2-19.6,1.3c-3.4,0.6-6.9,0.5-10.3,0.7c-4.3,0.3-8.5,0.8-12.8,1.1c-5,0.4-10.1,0.2-15-1.1
			c-1-0.2-2-0.4-2.9-0.5c-1.2-0.2-2.1-0.9-2.5-2c-0.4-1.3-0.9-2.6-1.1-3.9c-1.2-9.3-1.4-18.7-1.5-28.1c-0.1-7-0.6-14-1-21
			c0-1-0.2-1.9-0.3-2.9c-0.3-1.9,0.9-2.6,2.4-2.7c1.8-0.1,3.7-0.1,5.5-0.2c6.1-0.3,12.1-0.4,18.2-0.9c4.2-0.3,8.3-1.2,12.5-1.6
			c5.8-0.5,11.6-0.8,17.5-1c7.5-0.2,15-0.4,22.5-0.4c2.8,0,5.6,0.7,8.4,1.1c0.9,0.1,1.3,0.8,1.4,1.7c0.3,2.5,0.6,5.1,0.9,7.6
			c0.6,4.2,1.3,8.5,1.8,12.7c0.5,4.9,0.6,9.9,1,14.8c0.4,5.4,0.9,10.8,1.3,16.2c0.1,1.2,0.1,2.5,0.1,3.7c0,1.2-0.5,2.2-1.7,2.5
			c-2.3,0.7-4.6,1.5-6.9,1.8c-6,0.6-12,0.8-17.9,1.2C95.2,87.9,95.2,87.8,95.2,87.7z M94.7,85.7c4.5-0.2,9-0.2,13.5-0.5
			c3.1-0.2,6.2-0.8,9.2-1.4c2.1-0.4,2.1-0.7,2.1-2.8c0-0.6-0.1-1.3-0.2-1.9c-0.4-4.5-1.2-9-1.2-13.5c-0.1-7.2-0.6-14.3-1.5-21.4
			c-0.6-4.6-1.3-9.2-1.9-13.8c-0.3-2.8-0.7-3.2-3.4-3.3c-6.7-0.2-13.3-0.2-20-0.1c-6.6,0.1-13.1,0.5-19.7,0.8
			c-3.6,0.2-7.3,0.3-10.9,0.9c-8.2,1.3-16.5,2-24.8,1.9c-1.7,0-3.4,0.1-5,0.1c-0.9,0-1.1,0.4-0.8,1.2c0.2,0.7,0.4,1.4,0.4,2.1
			c0.4,7.6,0.9,15.2,1,22.8c0.1,8.9,0.5,17.8,1.6,26.7c0.1,0.6,0.3,1.2,0.5,1.9c0.3,1.1,0.9,1.8,2.2,1.8c0.7,0,1.4,0.2,2.1,0.4
			c4.8,1.2,9.6,1.4,14.5,1c4.4-0.3,8.8-0.8,13.1-1.2c3.3-0.3,6.7-0.1,9.9-0.7C81.9,85.7,88.3,85.7,94.7,85.7z"/>
		<path class="st2" d="M94.7,85.7c-6.4,0-12.9,0-19.3,1.1c-3.3,0.6-6.6,0.4-9.9,0.7c-4.4,0.3-8.8,0.8-13.1,1.2
			c-4.9,0.4-9.7,0.2-14.5-1c-0.7-0.2-1.4-0.3-2.1-0.4c-1.3,0-1.9-0.7-2.2-1.8c-0.1-0.6-0.4-1.2-0.5-1.9c-1-8.9-1.4-17.8-1.6-26.7
			c-0.1-7.6-0.6-15.2-1-22.8c0-0.7-0.2-1.4-0.4-2.1c-0.3-0.9-0.1-1.2,0.8-1.2c1.7,0,3.4-0.2,5-0.1c8.3,0.1,16.6-0.5,24.8-1.9
			c3.6-0.6,7.2-0.7,10.9-0.9c6.5-0.3,13.1-0.7,19.7-0.8c6.7-0.1,13.3-0.1,20,0.1c2.7,0.1,3.1,0.5,3.4,3.3c0.5,4.6,1.3,9.2,1.9,13.8
			c0.9,7.1,1.4,14.2,1.5,21.4c0.1,4.5,0.8,9,1.2,13.5c0.1,0.6,0.1,1.3,0.2,1.9c0,2.1,0,2.4-2.1,2.8c-3,0.6-6.1,1.2-9.2,1.4
			C103.8,85.5,99.3,85.5,94.7,85.7z M34.4,70.3c-0.1,0-0.2,0-0.3,0c0.3,4.5,0.5,8.9,0.8,13.4c0,0.4,0.5,1.1,0.9,1.3
			c1.4,0.6,2.8,1.1,4.2,1.4c5.8,1,11.6,1.1,17.4,0.5c2.5-0.2,4.9-0.7,7.4-0.9c2.6-0.3,5.3-0.4,7.9-0.7c5.9-0.6,11.8-1.3,17.7-1.7
			c5.6-0.4,11.2-0.4,16.8-0.8c3-0.2,6.1-0.8,9.1-1.4c1.9-0.4,2.1-0.8,1.8-2.7c-0.6-4.9-1.4-9.8-1.9-14.7c-0.6-6-1.2-11.9-1.6-17.9
			c-0.4-5.3-0.7-10.7-1-16c-0.1-1.2-0.8-1.8-2.2-1.9c-1.5-0.1-3-0.1-4.6,0c-5.2,0.4-10.4,0.9-15.5,1.2c-6,0.3-12,0.5-18,0.7
			c-1.9,0.1-3.8,0-5.6,0.1c-3.3,0.2-6.6,0.5-9.9,0.7c-2.7,0.2-5.4,0.2-8.1,0.3c-5.2,0.2-10.4,0.4-15.6,0.6c-1.7,0.1-2,0.4-1.9,2.1
			c0.4,6.1,0.8,12.3,1.2,18.4C33.7,58.4,34.1,64.4,34.4,70.3z"/>
		<path d="M34.4,70.3c-0.4-6-0.8-12-1.2-17.9c-0.4-6.1-0.8-12.3-1.2-18.4c-0.1-1.7,0.2-2,1.9-2.1c5.2-0.2,10.4-0.4,15.6-0.6
			c2.7-0.1,5.4-0.2,8.1-0.3c3.3-0.2,6.6-0.5,9.9-0.7c1.9-0.1,3.7-0.1,5.6-0.1c6-0.2,12-0.3,18-0.7c5.2-0.3,10.4-0.8,15.5-1.2
			c1.5-0.1,3,0,4.6,0c1.4,0,2.1,0.7,2.2,1.9c0.3,5.3,0.6,10.7,1,16c0.5,6,1,11.9,1.6,17.9c0.5,4.9,1.3,9.8,1.9,14.7
			c0.2,1.9,0,2.3-1.8,2.7c-3,0.6-6,1.1-9.1,1.4c-5.6,0.4-11.2,0.4-16.8,0.8c-5.9,0.4-11.8,1.2-17.7,1.7c-2.6,0.3-5.3,0.4-7.9,0.7
			c-2.5,0.3-4.9,0.7-7.4,0.9c-5.8,0.6-11.7,0.5-17.4-0.5c-1.4-0.3-2.8-0.8-4.2-1.4c-0.4-0.2-0.8-0.8-0.9-1.3
			c-0.3-4.5-0.6-8.9-0.8-13.4C34.2,70.4,34.3,70.3,34.4,70.3z M34.3,34c0,0.4,0,0.7,0,1c0.4,5.7,0.8,11.5,1.2,17.2
			c0.3,3.7,0.6,7.5,0.8,11.2c0.3,6.2,0.5,12.5,0.7,18.7c0,0.8,0.4,1.2,1.1,1.4c2.7,1.1,5.6,1.2,8.5,1.3c5.1,0.2,10.1,0.1,15.2-0.8
			c3.5-0.7,7.1-0.6,10.6-1c6-0.6,11.9-1.3,17.9-1.7c5.5-0.4,11-0.4,16.5-0.8c2.7-0.2,5.4-0.7,8.1-1c0.9-0.1,1.1-0.6,1-1.5
			c-0.7-4.7-1.5-9.3-1.8-14c-0.5-7.5-1.8-14.8-1.8-22.3c0-3.8-0.6-7.5-0.9-11.2c-2.6,0-5.2-0.1-7.8,0c-7.9,0.5-15.7,1.1-23.6,1.5
			c-3.5,0.2-7,0-10.5,0.1c-2.7,0.1-5.4,0.7-8.1,0.8c-7.9,0.3-15.7,0.5-23.6,0.7C36.5,33.8,35.4,33.9,34.3,34z"/>
		<path class="st2" d="M34.3,34c1.1-0.1,2.2-0.3,3.3-0.3c7.9-0.2,15.7-0.4,23.6-0.7c2.7-0.1,5.4-0.6,8.1-0.8c3.5-0.2,7,0.1,10.5-0.1
			c7.9-0.4,15.7-1.1,23.6-1.5c2.6-0.1,5.2,0,7.8,0c0.3,3.7,0.9,7.4,0.9,11.2c0.1,7.5,1.3,14.9,1.8,22.3c0.3,4.7,1.2,9.4,1.8,14
			c0.1,0.9-0.1,1.4-1,1.5c-2.7,0.4-5.4,0.9-8.1,1c-5.5,0.3-11,0.4-16.5,0.8c-6,0.4-11.9,1.2-17.9,1.7c-3.5,0.3-7.1,0.3-10.6,1
			c-5,1-10.1,1-15.2,0.8c-2.9-0.1-5.7-0.3-8.5-1.3C37.4,83.3,37,83,37,82.2c-0.2-6.2-0.4-12.5-0.7-18.7c-0.2-3.7-0.6-7.5-0.8-11.2
			C35,46.5,34.7,40.8,34.3,35C34.3,34.8,34.3,34.5,34.3,34z M66.6,49.6c-2,0-2.7,0.5-2.6,1.6c0.2,3.7,0.4,7.4,0.8,11.1
			c0.2,1.7,0.6,3.4,1.1,5c0.6,1.5,1.2,1.6,2.6,1c3.5-1.5,7-3,10.4-4.6c1.9-0.9,3.7-1.8,5.6-2.8c0.6-0.3,1.1-0.8,1.5-1.3
			c0.9-1.1,0.6-2.1-0.8-2.6c-1.5-0.6-2.9-1.3-4.4-1.9c-3.7-1.6-7.5-3.2-11.3-4.7C68.5,49.9,67.3,49.7,66.6,49.6z"/>
		<path d="M66.6,49.6c0.7,0.2,1.9,0.3,3,0.8c3.8,1.5,7.5,3.1,11.3,4.7c1.5,0.6,2.9,1.3,4.4,1.9c1.3,0.5,1.7,1.5,0.8,2.6
			c-0.4,0.5-0.9,1-1.5,1.3c-1.8,1-3.7,1.9-5.6,2.8c-3.5,1.6-6.9,3.1-10.4,4.6c-1.5,0.6-2.1,0.5-2.6-1c-0.6-1.6-1-3.3-1.1-5
			c-0.4-3.7-0.5-7.4-0.8-11.1C63.9,50.1,64.5,49.6,66.6,49.6z M66.2,51.7c0.5,5,0.3,9.8,1.3,14.7c5.6-2.5,10.9-4.9,16.3-7.3
			c0-0.1-0.1-0.3-0.1-0.4C77.9,56.3,72.6,53,66.2,51.7z"/>
		<path class="st2" d="M66.2,51.7c6.4,1.3,11.8,4.6,17.5,7c0,0.1,0.1,0.3,0.1,0.4c-5.3,2.4-10.6,4.8-16.3,7.3
			C66.5,61.4,66.7,56.7,66.2,51.7z"/>
	</g>
</g>
</svg>
