<?xml version="1.0" encoding="utf-8"?>
<!-- Generator: Adobe Illustrator 24.0.1, SVG Export Plug-In . SVG Version: 6.00 Build 0)  -->
<svg version="1.1" xmlns="http://www.w3.org/2000/svg" xmlns:xlink="http://www.w3.org/1999/xlink" x="0px" y="0px"
	 viewBox="0 0 156.8 136.3" style="enable-background:new 0 0 156.8 136.3;" xml:space="preserve">
<style type="text/css">
	.st0{fill:#B7D6E2;}
	.st1{fill:#DDDDDD;}
	.st2{fill:#FFFFFF;}
</style>
<g id="Calque_2">
	<g>
		<path class="st0" d="M56.2,32.7c-9.3,0.3-18.1,5.2-24.3,12.1S21.7,60.5,19.6,69.5c-2,8.4-2.3,17.8,2.6,24.9
			c6.9,9.9,21.3,11.1,32.8,7.8s22-10,33.6-12.9c5.9-1.5,12.1-1.9,17.8-4.1c7.6-3,13.9-9.3,16.6-17c2.7-7.7,1.5-16.7-3.3-23.3
			c-2.7-3.7-6.4-6.6-10.3-8.9c-17.7-10.6-41.1-10.9-59-0.8"/>
	</g>
</g>
<g id="Calque_1">
	<g>
		<path d="M87.1,88.5c3.6-2.4,7.2-4.6,10.7-7c0.3-0.2,0.6-0.8,0.6-1.3c0.1-6,0.1-12.1,0.3-18.1c0.1-2,0-3.6-2.2-4.6
			c-1.2-0.5-2.2-1.4-3.4-2.3c-0.3,0.7-0.5,1.2-0.7,1.8c-0.9,2.3-2.5,3.4-5.1,3.4c-8.1-0.2-16.1-0.3-24.2-0.5c-1.2,0-2.5-0.4-3.7-0.9
			c-1.9-0.9-2.5-2.7-2.7-4.6c-0.7-6.8-0.6-13.6-0.3-20.4c0.1-1.9,0-3.8-0.2-5.6c-0.4-3.8,1.7-6.2,5.5-6.2c7.1,0.1,14.1,0.2,21.2,0.4
			c1.9,0.1,3.9,0.6,5.7,1.2c2.2,0.7,3.3,2.6,3.5,4.7c0.5,3.5,0.8,7,1.1,10.5c0.3,3.6,0.4,7.3,0.6,10.9c0,0.2,0,0.5,0,0.7
			c-0.8,1.9,0.3,2.9,1.8,3.7c1.1,0.6,2.1,1.3,2.9,1.9c1-1.7,1.9-3.3,2.9-4.9c0.7-1.1,1.8-1.5,3-1.7c5.5-0.9,10.9-0.4,16.4-0.2
			c2.5,0.1,5.1,0,7.5,0.4c4.4,0.6,7.2,3.5,8.1,7.8c1.6,7.6,1.9,15.2,1.9,22.9c0,2.3-0.3,4.7-2.2,6.5c-1.3,1.2-2.8,1.7-4.5,1.8
			c-5.4,0.4-10.9,0.9-16.3,1.2c-3.3,0.2-6.7,0.2-10-0.2c-3.3-0.4-5.9-2.3-6.4-6c0-0.2-0.1-0.3-0.2-0.6c-0.9,0.6-1.8,1.1-2.7,1.7
			c-2.6,1.7-5.1,3.4-7.7,5.1c-0.7,0.5-0.8,1-0.6,1.8c1.3,5.2,1.6,10.4,0.6,15.7c-0.5,2.9-1.8,4-4.7,4.4c-1,0.1-2.1,0.2-3.1,0.3
			c-5,0.7-10,1.2-15,1.1c-2.6-0.1-5.3,0.5-7.9,0.5c-3.9,0-7.1-2.1-7.8-6.3c-1-6-1.5-12-1.4-18.1c0-2.3,0-4.6-0.2-6.9
			c-0.3-3.3,2.3-5.9,5.4-7.5c2.2-1.1,4.6-0.7,7-0.8c2.4-0.1,4.9-0.3,7.2-0.7c4.2-0.9,8.4-0.6,12.6,0.2c2.6,0.5,4.3,2.1,4.8,4.9
			C85.8,81.9,86.4,85.1,87.1,88.5z M117.6,51.6c0-0.1,0-0.2,0-0.3c-4.1,0.2-8.3,0.4-12.4,0.6c-1,0-1.7,0.5-2.3,1.3
			c-1.4,1.9-2.2,3.9-2,6.3c0.1,0.7,0,1.4,0,2c-0.2,5-0.5,9.9-0.5,14.9c0,2.7,0.5,5.5,1,8.2c0.1,0.8,0.9,1.6,1.5,2.1
			c1.5,1.3,3.3,1.5,5.2,1.5c8-0.1,16-0.4,23.9-1.3c2.3-0.3,3.6-1.4,4.1-3.7c0.1-0.7,0.3-1.3,0.3-2c0-7.7-0.3-15.4-1.9-23
			c-0.7-3.5-2.8-5.7-6.4-6C124.6,51.7,121.1,51.8,117.6,51.6z M50.5,90.3C50.4,96,51,101.5,51.8,107c0.5,3.2,2.6,4.9,5.8,4.8
			c2.6,0,5.3-0.6,7.9-0.5c5.1,0.2,10-0.5,15-1.1c1-0.1,2-0.2,3-0.3c1.5-0.1,2.3-1,2.7-2.5c0.8-3.4,0.9-7,0.3-10.4
			C85.6,91.1,84.2,85,83.1,79c-0.3-1.6-1.3-2.6-2.8-3c-3.6-0.8-7.2-1.2-10.8-0.5c-3.6,0.7-7.1,1.2-10.7,1c-2.9-0.2-5.3,0.6-7.2,2.8
			C51,80,50.6,81,50.5,82C50.4,84.7,50.5,87.5,50.5,90.3z M75.5,57.9c0,0.1,0,0.3,0,0.4c3.9,0,7.7,0,11.6,0c2.1,0,2.7-0.3,3.4-2.3
			c1.2-3.1,1.4-6.3,1.2-9.6c-0.2-3.6-0.6-7.2-0.9-10.8c-0.2-2.3-0.5-4.7-0.9-7c-0.2-1.4-0.9-2.5-2.4-2.9c-1.6-0.4-3.3-0.9-4.9-1
			c-7-0.2-14.1-0.3-21.1-0.4c-2.4,0-3.5,1.3-3.3,3.6c0.1,2.3,0.2,4.5,0.2,6.8c-0.2,6.4-0.3,12.9,0.4,19.3c0.3,2.4,1.2,3.4,3.6,3.7
			c0.6,0.1,1.3,0.1,1.9,0.1C68.1,57.9,71.8,57.9,75.5,57.9z"/>
		<path class="st2" d="M117.6,51.6c3.5,0.1,7,0.1,10.5,0.5c3.5,0.4,5.6,2.6,6.4,6c1.6,7.6,1.9,15.3,1.9,23c0,0.7-0.1,1.4-0.3,2
			c-0.5,2.3-1.8,3.4-4.1,3.7c-7.9,0.9-15.9,1.2-23.9,1.3c-1.9,0-3.7-0.2-5.2-1.5c-0.6-0.6-1.4-1.4-1.5-2.1c-0.5-2.7-1-5.4-1-8.2
			c0-5,0.3-9.9,0.5-14.9c0-0.7,0.1-1.4,0-2c-0.2-2.4,0.6-4.4,2-6.3c0.6-0.8,1.3-1.3,2.3-1.3c4.1-0.2,8.3-0.4,12.4-0.6
			C117.6,51.4,117.6,51.5,117.6,51.6z M114.9,76.4c0.1-0.3,0.1-0.5,0.2-0.7c1.3-2.9,2.7-5.8,3.9-8.7c0.6-1.5,1.1-3.2,1.2-4.8
			c0.1-1.5-1.5-3.2-2.9-3.4c-1.8-0.2-3.2,0.6-3.9,2.5c-0.3,0.7-0.3,1.4,0.4,1.8c0.8,0.4,1.2-0.2,1.5-0.9c0.1-0.2,0.2-0.4,0.3-0.6
			c0.5-0.8,1.2-0.9,1.8-0.2c0.4,0.5,0.6,1.3,0.5,1.9c-0.2,1-0.6,2-1,2.9c-1.4,3.3-3,6.5-4.3,9.7c-0.8,2-0.3,2.6,1.8,2.7
			c2.4,0.1,4.7,0.3,7,0.3c0.4,0,1.1-0.4,1.2-0.7c0-0.4-0.2-1.1-0.6-1.3c-0.5-0.3-1.1-0.3-1.7-0.3C118.6,76.6,116.9,76.5,114.9,76.4z
			"/>
		<path class="st2" d="M50.5,90.3c0-2.8-0.1-5.6,0.1-8.4c0-0.9,0.5-1.9,1.1-2.6c1.8-2.2,4.3-3,7.2-2.8c3.6,0.3,7.1-0.3,10.7-1
			c3.6-0.7,7.3-0.3,10.8,0.5c1.5,0.3,2.5,1.3,2.8,3c1.1,6.1,2.5,12.1,3.4,18.2c0.5,3.4,0.5,6.9-0.3,10.4c-0.3,1.5-1.2,2.3-2.7,2.5
			c-1,0.1-2,0.2-3,0.3c-5,0.6-10,1.3-15,1.1c-2.6-0.1-5.2,0.4-7.9,0.5c-3.2,0-5.3-1.6-5.8-4.8C51,101.5,50.4,96,50.5,90.3z
			 M66.5,85.4c-0.7,1.2-1.4,2.1-1.8,3.2c-0.2,0.5-0.3,1.3,0,1.6c0.2,0.3,1.1,0.5,1.6,0.4c1.2-0.2,2.3-0.1,2.9,0.9
			c0.9,1.5,1.6,3.1,2.2,4.8c0.4,1.1,0,2.2-0.8,3.2c-1,1.3-2,2.4-3.7,2.5c-0.7,0.1-1.2,0.6-1.1,1.3c0.1,0.4,0.7,0.9,1,0.9
			c2.8,0.2,6.6-3.5,6.8-6.3c0.1-2.2-0.5-4.1-1.4-6c-0.9-2-2.5-3.2-4.7-3.7c0.7-1,1.4-1.9,2-2.8c0.6-1,0.3-2-0.8-2
			c-2.1,0-4.1,0.2-6.2,0.4c-0.3,0-0.8,0.6-0.7,0.9c0,0.4,0.4,0.8,0.8,1c0.4,0.2,0.9,0.1,1.3,0.1C64.5,85.5,65.4,85.5,66.5,85.4z"/>
		<path class="st2" d="M75.5,57.9c-3.7,0-7.4,0-11.1,0c-0.6,0-1.3,0-1.9-0.1c-2.4-0.3-3.4-1.3-3.6-3.7c-0.7-6.4-0.6-12.8-0.4-19.3
			c0.1-2.3,0-4.5-0.2-6.8c-0.1-2.4,0.9-3.7,3.3-3.6c7,0.1,14.1,0.2,21.1,0.4c1.7,0.1,3.3,0.5,4.9,1c1.4,0.4,2.2,1.5,2.4,2.9
			c0.4,2.3,0.6,4.7,0.9,7c0.3,3.6,0.7,7.2,0.9,10.8c0.2,3.3-0.1,6.5-1.2,9.6c-0.7,2-1.3,2.3-3.4,2.3c-3.9,0-7.7,0-11.6,0
			C75.5,58.2,75.5,58,75.5,57.9z M73.6,34.8c0.1,0.6,0.1,0.9,0.1,1.2c0.3,4.2,0.5,8.5,0.8,12.7c0.1,0.8,0.2,1.6,1.3,1.5
			c1-0.1,0.9-0.9,0.8-1.7c-0.2-3.4-0.4-6.9-0.6-10.3c-0.1-2-0.2-4-0.5-6c-0.1-0.5-0.5-1.1-0.9-1.3c-0.3-0.1-1.1,0.3-1.4,0.6
			c-1.2,1.6-2.3,3.2-3.4,4.8c-0.3,0.4-0.2,1.4,0.1,1.7c0.6,0.6,1.2,0.1,1.7-0.5C72.2,36.7,72.8,35.9,73.6,34.8z"/>
		<path d="M114.9,76.4c2,0.1,3.7,0.2,5.5,0.3c0.6,0,1.3,0,1.7,0.3c0.4,0.2,0.7,0.9,0.6,1.3c0,0.3-0.8,0.7-1.2,0.7
			c-2.4-0.1-4.7-0.3-7-0.3c-2.1-0.1-2.6-0.7-1.8-2.7c1.4-3.3,2.9-6.5,4.3-9.7c0.4-0.9,0.9-1.9,1-2.9c0.1-0.6-0.2-1.4-0.5-1.9
			c-0.5-0.7-1.2-0.6-1.8,0.2c-0.1,0.2-0.2,0.4-0.3,0.6c-0.3,0.7-0.7,1.3-1.5,0.9c-0.8-0.4-0.7-1.1-0.4-1.8c0.7-1.9,2-2.7,3.9-2.5
			c1.3,0.2,3,1.9,2.9,3.4c-0.2,1.6-0.6,3.3-1.2,4.8c-1.2,3-2.6,5.8-3.9,8.7C115,75.9,115,76.1,114.9,76.4z"/>
		<path d="M66.5,85.4c-1.1,0.1-2,0.1-2.9,0.2c-0.4,0-0.9,0.1-1.3-0.1c-0.4-0.2-0.8-0.6-0.8-1c0-0.3,0.4-0.9,0.7-0.9
			c2.1-0.2,4.1-0.4,6.2-0.4c1.1,0,1.4,1,0.8,2c-0.6,0.9-1.3,1.8-2,2.8c2.2,0.6,3.8,1.7,4.7,3.7c0.9,1.9,1.6,3.8,1.4,6
			c-0.2,2.8-4,6.4-6.8,6.3c-0.4,0-0.9-0.5-1-0.9c-0.2-0.7,0.3-1.2,1.1-1.3c1.7-0.1,2.7-1.2,3.7-2.5c0.8-1,1.2-2.1,0.8-3.2
			c-0.6-1.7-1.3-3.3-2.2-4.8c-0.6-1-1.7-1.1-2.9-0.9c-0.5,0.1-1.3,0-1.6-0.4c-0.3-0.4-0.2-1.2,0-1.6C65.2,87.5,65.8,86.6,66.5,85.4z
			"/>
		<path d="M73.6,34.8c-0.8,1.1-1.4,1.9-2,2.7c-0.4,0.6-1,1.1-1.7,0.5c-0.3-0.3-0.3-1.2-0.1-1.7c1-1.7,2.2-3.3,3.4-4.8
			c0.3-0.4,1-0.8,1.4-0.6c0.4,0.2,0.9,0.8,0.9,1.3c0.2,2,0.4,4,0.5,6c0.2,3.4,0.4,6.9,0.6,10.3c0,0.7,0.1,1.6-0.8,1.7
			c-1.1,0.2-1.2-0.7-1.3-1.5c-0.3-4.2-0.5-8.5-0.8-12.7C73.7,35.7,73.6,35.4,73.6,34.8z"/>
	</g>
</g>
</svg>
