<?xml version="1.0" encoding="UTF-8" standalone="no"?>
<svg width="774px" height="49px" viewBox="0 0 774 49" version="1.1" xmlns="http://www.w3.org/2000/svg" xmlns:xlink="http://www.w3.org/1999/xlink" xmlns:sketch="http://www.bohemiancoding.com/sketch/ns">
    <defs></defs>
    <g id="Page-1" stroke="none" stroke-width="1" fill="none" fill-rule="evenodd" sketch:type="MSPage">
        <g id="a-project-by-davehakkens" sketch:type="MSLayerGroup" fill="#fff">
            <g id="Group" sketch:type="MSShapeGroup">
                <path d="M320.821,19.502 C323.062,21.193 324.367,23.686 325.232,26.433 C325.807,28.259 325.661,30.111 324.802,31.807 C323.152,35.068 320.635,37.302 316.844,37.535 C314.299,37.69 311.735,37.539 309.178,37.521 C309.02,37.52 308.861,37.468 308.702,37.47 C306.42,37.495 306.307,37.477 306.18,35.182 C306.087,33.519 306.302,31.839 306.305,30.167 C306.315,24.811 306.367,19.452 306.243,14.097 C306.183,11.51 305.758,8.931 305.515,6.347 C305.429,5.434 305.351,4.516 305.346,3.6 C305.336,2.07 306.031,1.099 307.527,1.179 C309.898,1.306 312.34,1.486 314.589,2.177 C317.644,3.116 319.961,5.154 321.511,8.091 C322.915,10.753 323.229,13.5 322.591,16.33 C322.346,17.422 321.474,18.373 320.821,19.502 L320.821,19.502 Z M308.672,35.27 C310.747,35.27 312.812,35.262 314.876,35.271 C317.596,35.284 319.963,34.585 321.684,32.264 C322.821,30.731 323.537,29.082 322.886,27.252 C322.32,25.66 321.477,24.145 320.596,22.693 C319.793,21.369 318.497,20.968 316.951,21.263 C314.406,21.75 311.851,22.238 309.255,21.561 C309.126,21.527 308.968,21.607 308.672,21.663 C308.672,26.078 308.672,30.456 308.672,35.27 L308.672,35.27 Z M308.979,18.944 C312.195,19.656 313.672,19.81 316.678,18.804 C318.705,18.125 320.522,16.534 320.522,14.068 C320.522,9.938 318.084,5.842 313.575,4.337 C311.775,3.736 309.8,3.66 307.802,3.327 C308.21,8.736 308.59,13.776 308.979,18.944 L308.979,18.944 Z" id="Shape"></path>
                <path d="M741.619,34.309 C741.619,32.888 741.656,31.666 741.612,30.448 C741.495,27.214 741.308,23.981 741.214,20.746 C741.088,16.431 741.02,12.114 740.937,7.797 C740.929,7.401 740.862,6.914 741.056,6.627 C741.31,6.251 741.8,5.803 742.183,5.808 C742.563,5.813 742.986,6.299 743.29,6.659 C743.436,6.83 743.357,7.198 743.366,7.476 C743.683,16.983 743.999,26.489 744.313,35.995 C744.334,36.595 744.489,37.235 744.329,37.782 C744.16,38.364 743.795,39.102 743.316,39.309 C742.962,39.461 742.12,39.006 741.785,38.588 C740.386,36.844 739.149,34.967 737.753,33.221 C735.234,30.071 732.562,27.039 730.101,23.845 C726.64,19.349 723.313,14.75 719.929,10.194 C719.767,9.975 719.611,9.752 719.45,9.527 C719.336,9.614 719.228,9.655 719.225,9.703 C718.893,15.488 718.499,21.271 718.277,27.061 C718.184,29.49 718.456,31.932 718.563,34.369 C718.577,34.688 718.613,35.008 718.618,35.326 C718.633,36.254 718.753,37.381 717.471,37.444 C716.149,37.509 716.28,36.373 716.191,35.447 C715.295,26.074 716.607,16.761 716.942,7.421 C716.975,6.5 716.983,5.501 718.131,5.182 C719.255,4.87 719.807,5.684 720.356,6.433 C724.675,12.333 728.946,18.27 733.329,24.123 C734.954,26.292 736.861,28.249 738.593,30.341 C739.608,31.571 740.532,32.877 741.619,34.309 L741.619,34.309 Z" id="Shape"></path>
                <path d="M396.293,30.258 C396.704,25.39 395.876,19.888 395.254,14.37 C394.932,11.513 394.719,8.643 394.477,5.777 C394.362,4.41 395.138,3.427 396.577,3.428 C399.047,3.428 401.538,3.439 403.978,3.763 C406.209,4.059 408.468,4.557 410.57,5.351 C415.477,7.206 419.304,10.23 420.731,15.632 C422.112,20.853 421.918,25.957 419.568,30.831 C417.956,34.177 415.43,36.702 412.014,38.38 C407.536,40.58 402.879,41.067 398.017,40.415 C396.604,40.226 396.295,39.935 396.294,38.526 C396.292,36.008 396.293,33.49 396.293,30.258 L396.293,30.258 Z M396.912,5.622 C397.189,8.836 397.327,11.671 397.698,14.476 C398.476,20.348 398.992,26.225 398.738,32.156 C398.675,33.632 398.715,35.112 398.734,36.591 C398.754,38.153 398.782,38.086 400.372,38.208 C404.128,38.498 407.641,37.77 411.047,36.151 C413.814,34.837 415.798,32.755 417.182,30.163 C418.829,27.076 419.465,23.689 419.091,20.18 C418.322,12.958 415.899,9.933 409.034,7.438 C406.959,6.684 404.727,6.294 402.534,5.956 C400.747,5.679 398.91,5.727 396.912,5.622 L396.912,5.622 Z" id="Shape"></path>
                <path d="M154.219,21.194 C154.494,24.312 153.484,27.358 152.132,30.268 C150.51,33.759 147.699,36.18 144.361,37.984 C141.451,39.556 138.353,40.234 135.007,39.996 C130.028,39.642 126.274,37.456 124.2,32.879 C121.982,27.984 121.217,22.814 122.506,17.545 C122.999,15.529 124.098,13.652 124.987,11.744 C126.539,8.412 129.45,6.632 132.642,5.207 C134.246,4.491 135.839,3.732 137.494,3.148 C138.367,2.84 139.358,2.773 140.296,2.781 C140.743,2.785 141.219,3.174 141.627,3.463 C142.351,3.976 142.955,4.738 143.746,5.063 C149.452,7.405 154.685,14.066 154.219,21.194 L154.219,21.194 Z M151.821,21.095 C152.173,14.975 147.687,9.33 142.732,7.265 C141.786,6.871 140.797,6.403 140.071,5.713 C139.483,5.154 139.036,5.078 138.399,5.353 C136.64,6.113 134.871,6.852 133.132,7.655 C130.591,8.829 128.279,10.309 127.071,12.986 C126.223,14.866 125.182,16.725 124.739,18.708 C123.744,23.172 124.529,27.543 126.314,31.706 C127.16,33.68 128.467,35.335 130.483,36.322 C137.616,39.814 145.646,36.218 149.491,30.056 C151.164,27.377 152.008,24.271 151.821,21.095 L151.821,21.095 Z" id="Shape"></path>
                <path d="M108.697,23.457 C110.621,27.178 112.494,30.782 114.346,34.397 C114.617,34.926 114.947,35.506 114.95,36.065 C114.953,36.526 114.615,37.226 114.243,37.384 C113.877,37.54 113.172,37.272 112.808,36.961 C112.448,36.654 112.344,36.055 112.102,35.598 C110.275,32.147 108.449,28.695 106.603,25.252 C106.087,24.289 105.315,24.099 104.282,24.482 C101.512,25.512 98.672,25.5 95.701,24.798 C95.847,26.338 96.056,27.753 96.102,29.175 C96.179,31.571 96.151,33.97 96.173,36.368 C96.181,37.253 95.997,38.028 94.918,38.026 C93.854,38.025 93.608,37.243 93.626,36.372 C93.831,26.048 92.659,15.789 92.196,5.497 C92.151,4.476 92.196,3.445 92.29,2.426 C92.383,1.402 93.321,0.584 94.743,0.559 C96.806,0.523 98.951,0.389 100.921,0.869 C104.749,1.799 108.278,3.392 110.978,6.528 C113.865,9.881 114.499,13.718 113.793,17.858 C113.368,20.352 111.212,21.596 109.389,23.016 C109.142,23.21 108.856,23.356 108.697,23.457 L108.697,23.457 Z M111.623,15.452 C111.692,12.05 110.559,9.598 108.482,7.429 C106.275,5.122 103.466,4.028 100.541,3.267 C98.886,2.837 97.076,2.982 95.334,2.913 C94.574,2.883 94.361,3.286 94.42,4.071 C94.83,9.564 95.227,15.058 95.528,20.558 C95.593,21.763 96.23,22.27 97.164,22.596 C97.68,22.775 98.281,22.889 98.811,22.81 C101.441,22.418 104.08,22.048 106.676,21.489 C109.688,20.84 111.629,18.196 111.623,15.452 L111.623,15.452 Z" id="Shape"></path>
                <path d="M7.033,24.088 C5.59,28.147 4.253,31.906 2.916,35.666 C2.849,35.854 2.785,36.043 2.711,36.228 C2.431,36.931 1.972,37.443 1.164,37.171 C0.313,36.886 0.184,36.187 0.454,35.406 C1.251,33.104 2.015,30.79 2.878,28.512 C4.604,23.957 6.426,19.439 8.135,14.877 C9.395,11.513 10.501,8.092 11.759,4.727 C12.071,3.891 12.611,3.092 13.208,2.419 C14.155,1.352 15.199,1.422 15.978,2.627 C16.556,3.521 16.952,4.544 17.348,5.542 C19.202,10.215 21.015,14.905 22.882,19.573 C23.107,20.135 23.582,20.596 23.93,21.111 C24.082,21.336 24.264,21.561 24.338,21.814 C24.725,23.136 25.013,24.491 25.463,25.791 C26.69,29.334 27.971,32.858 29.255,36.381 C29.486,37.016 29.828,37.611 30.125,38.221 C30.476,38.945 30.518,39.641 29.784,40.133 C29.019,40.647 28.34,40.279 27.933,39.633 C27.55,39.022 27.359,38.285 27.117,37.592 C26.117,34.73 25.157,31.854 24.124,29.004 C23.512,27.315 22.833,25.647 22.088,24.014 C21.924,23.657 21.33,23.239 20.968,23.269 C17.268,23.575 13.572,23.947 9.881,24.352 C8.944,24.458 8.03,25.354 7.033,24.088 L7.033,24.088 Z M7.984,22.083 C12.166,21.614 16.342,21.146 20.459,20.685 C18.443,15.462 16.417,10.213 14.313,4.766 C12.16,10.659 10.061,16.402 7.984,22.083 L7.984,22.083 Z" id="Shape"></path>
                <path d="M556.209,21.425 C556.268,22.755 556.352,23.824 556.354,24.893 C556.361,28.367 556.32,31.842 556.339,35.316 C556.342,35.978 556.517,36.645 556.651,37.302 C556.866,38.348 556.503,39.195 555.731,39.363 C554.921,39.54 554.048,38.838 554.01,37.789 C553.918,35.197 553.962,32.601 553.878,30.01 C553.744,25.901 553.607,21.791 553.368,17.687 C553.139,13.74 552.776,9.801 552.488,5.857 C552.456,5.422 552.468,4.968 552.56,4.545 C552.72,3.8 553.221,3.191 553.978,3.479 C554.416,3.646 554.879,4.368 554.914,4.869 C555.239,9.561 555.474,14.26 555.734,18.947 L576.042,18.947 C575.774,16.359 575.524,13.868 575.256,11.379 C575.072,9.671 574.86,7.966 574.667,6.258 C574.64,6.021 574.628,5.779 574.638,5.54 C574.667,4.781 574.951,4.174 575.799,4.144 C576.648,4.114 576.971,4.696 577.053,5.456 C577.277,7.521 577.482,9.589 577.727,11.652 C578.132,15.063 578.612,18.466 578.967,21.882 C579.288,24.98 579.505,28.09 579.729,31.197 C579.867,33.109 579.922,35.027 580.032,36.941 C580.077,37.718 579.999,38.466 579.083,38.609 C578.098,38.763 577.72,38.05 577.647,37.227 C577.513,35.716 577.475,34.196 577.365,32.681 C577.11,29.176 576.837,25.672 576.565,22.168 C576.546,21.938 576.471,21.711 576.407,21.407 C569.684,21.062 563.006,21.251 556.209,21.425 L556.209,21.425 Z" id="Shape"></path>
                <path d="M587.018,36.04 C587.112,35.57 587.125,35.324 587.209,35.105 C589.098,30.187 590.839,25.205 592.931,20.375 C595.341,14.812 598.044,9.375 600.679,3.913 C600.914,3.426 601.628,2.815 602.051,2.863 C602.574,2.922 603.276,3.516 603.473,4.04 C605.921,10.533 608.293,17.054 610.68,23.569 C612.135,27.54 613.564,31.521 615.045,35.482 C615.358,36.32 615.703,37.109 614.727,37.677 C613.976,38.115 613.025,37.538 612.643,36.428 C611.798,33.976 610.955,31.521 610.175,29.047 C609.812,27.894 609.374,27.124 607.926,27.117 C604.936,27.104 601.947,26.909 598.958,26.761 C597.322,26.679 595.681,26.607 594.06,26.396 C593.241,26.289 592.932,26.564 592.678,27.266 C591.633,30.154 590.552,33.031 589.469,35.905 C589.193,36.638 588.715,37.224 587.849,36.891 C587.478,36.749 587.235,36.274 587.018,36.04 L587.018,36.04 Z M608.415,24.65 C607.18,18.442 603.754,13.18 602.084,7.262 C601.971,7.258 601.858,7.254 601.745,7.25 C599.167,12.751 596.589,18.252 593.837,24.123 C598.89,24.306 603.573,24.475 608.415,24.65 L608.415,24.65 Z" id="Shape"></path>
                <path d="M68.47,26.521 C68.672,28.311 68.857,30.198 69.104,32.077 C69.37,34.095 69.712,36.102 69.983,38.119 C70.085,38.884 70.128,39.731 69.134,39.967 C68.121,40.206 67.686,39.478 67.419,38.682 C66.978,37.366 66.588,36.095 66.938,34.607 C67.158,33.669 66.676,32.576 66.566,31.546 C66.388,29.88 66.245,28.208 66.11,26.538 C65.557,19.66 64.713,12.81 64.416,5.905 C64.297,3.13 65.828,2.008 67.874,1.728 C71.247,1.268 74.484,1.577 77.488,3.349 C78.276,3.814 79.117,4.198 79.955,4.571 C84.859,6.751 87.211,13.166 86.187,17.681 C85.896,18.967 85.142,20.338 84.196,21.251 C80.09,25.217 75.062,26.783 69.397,26.379 C69.201,26.365 69.003,26.359 68.807,26.356 C68.772,26.355 68.737,26.388 68.47,26.521 L68.47,26.521 Z M70.66,3.649 C70.63,3.758 70.599,3.868 70.569,3.978 C70.169,3.978 69.767,3.951 69.37,3.982 C67.607,4.125 66.668,4.427 66.922,6.812 C67.489,12.133 67.864,17.475 68.281,22.812 C68.339,23.551 68.599,23.861 69.337,23.939 C72.521,24.277 75.584,23.731 78.447,22.411 C79.874,21.753 81.099,20.642 82.373,19.68 C83.466,18.855 83.898,17.649 84.008,16.33 C84.335,12.366 82.174,8.476 78.649,6.65 C77.656,6.136 76.693,5.529 75.649,5.154 C74.016,4.567 72.326,4.142 70.66,3.649 L70.66,3.649 Z" id="Shape"></path>
                <path d="M435.586,24.971 C434.097,28.412 432.606,31.85 431.123,35.293 C430.886,35.842 430.701,36.414 430.47,36.967 C430.177,37.663 429.561,38.037 428.944,37.678 C428.551,37.449 428.355,36.756 428.234,36.233 C428.165,35.934 428.387,35.544 428.536,35.219 C430.739,30.389 433.058,25.609 435.127,20.722 C436.678,17.056 437.923,13.26 439.273,9.511 C439.732,8.235 440.01,6.887 440.538,5.643 C440.784,5.062 441.399,4.3 441.897,4.262 C442.352,4.226 443.12,4.962 443.33,5.516 C445.309,10.745 447.102,16.044 449.14,21.249 C451.176,26.453 453.43,31.572 455.588,36.729 C455.665,36.914 455.771,37.091 455.814,37.283 C455.995,38.086 456.172,38.972 455.195,39.344 C454.209,39.719 453.742,38.989 453.418,38.198 C451.903,34.505 450.368,30.82 448.905,27.106 C448.521,26.131 448.07,25.735 446.928,25.723 C443.536,25.686 440.146,25.455 436.756,25.279 C436.414,25.261 436.081,25.105 435.586,24.971 L435.586,24.971 Z M437.188,22.888 C440.39,23.066 443.743,23.252 447.304,23.449 C445.501,18.451 443.824,13.803 442.143,9.145 C440.488,13.735 438.859,18.252 437.188,22.888 L437.188,22.888 Z" id="Shape"></path>
                <path d="M179.399,5.331 C179.689,10.391 179.964,15.206 180.247,20.126 C180.51,20.126 180.85,20.142 181.187,20.124 C183.897,19.978 186.605,19.82 189.315,19.679 C189.631,19.662 190.055,19.603 190.25,19.771 C190.68,20.143 190.995,20.647 191.356,21.097 C190.928,21.438 190.532,22.013 190.067,22.074 C189.048,22.208 187.991,22.011 186.957,22.076 C184.966,22.202 182.981,22.437 180.991,22.585 C180.3,22.636 180.123,22.934 180.189,23.586 C180.574,27.362 180.954,31.137 181.281,34.919 C181.35,35.728 181.744,35.817 182.385,35.741 C185.281,35.397 188.177,35.048 191.076,34.731 C192.543,34.571 194.014,34.452 195.487,34.364 C196.513,34.302 197.307,34.938 197.242,35.743 C197.165,36.708 196.48,36.922 195.639,36.99 C191.42,37.335 187.204,37.705 182.987,38.068 C182.789,38.085 182.591,38.128 182.393,38.147 C179.745,38.399 179.209,37.811 178.848,35.218 C177.746,27.317 177.727,19.36 177.403,11.417 C177.32,9.383 177.014,7.359 176.922,5.326 C176.848,3.714 177.264,3.268 178.879,3.053 C185.153,2.219 191.447,1.908 197.769,2.411 C198.537,2.472 199.114,2.772 199.105,3.629 C199.095,4.566 198.438,4.834 197.639,4.835 C193.567,4.842 189.494,4.785 185.424,4.857 C183.44,4.892 181.461,5.161 179.399,5.331 L179.399,5.331 Z" id="Shape"></path>
                <path d="M630.689,17.469 C633.759,21.661 636.9,25.933 640.022,30.219 C641.103,31.703 642.149,33.213 643.187,34.728 C643.666,35.426 644.018,36.236 643.129,36.832 C642.241,37.427 641.681,36.791 641.175,36.087 C639.755,34.109 638.283,32.169 636.873,30.185 C634.745,27.19 632.658,24.167 630.542,21.164 C630.017,20.419 629.447,19.706 628.598,18.579 C628.095,19.26 627.778,19.877 627.294,20.309 C624.885,22.463 624.753,25.285 624.865,28.201 C624.932,29.957 624.958,31.715 625.049,33.469 C625.098,34.419 625.263,35.364 625.339,36.313 C625.403,37.129 625.259,37.891 624.266,38.014 C623.287,38.137 622.929,37.473 622.796,36.645 C622.715,36.133 622.628,35.615 622.628,35.1 C622.637,25.551 622.656,16.003 622.682,6.454 C622.684,5.896 622.746,5.337 622.793,4.78 C622.861,3.968 623.189,3.346 624.117,3.435 C624.987,3.518 625.15,4.191 625.145,4.93 C625.124,7.688 625.095,10.446 625.081,13.203 C625.071,15.06 625.079,16.918 625.079,18.776 C625.176,18.83 625.272,18.883 625.368,18.937 C628.922,15.521 632.464,12.094 636.034,8.696 C637.388,7.407 638.763,6.13 640.233,4.982 C640.587,4.705 641.6,4.735 641.871,5.029 C642.163,5.346 641.967,6.14 641.92,6.721 C641.908,6.873 641.687,7.061 641.519,7.141 C639.451,8.122 638.236,10.01 636.712,11.579 C634.8,13.547 632.79,15.423 630.689,17.469 L630.689,17.469 Z" id="Shape"></path>
                <path d="M658.484,19.128 C659.212,18.135 659.851,17.061 660.683,16.166 C662.798,13.887 664.984,11.67 667.175,9.461 C668.441,8.185 669.778,6.98 671.071,5.73 C671.705,5.117 672.389,4.476 673.217,5.286 C673.975,6.027 673.504,6.761 672.874,7.352 C671.069,9.05 669.217,10.698 667.447,12.432 C665.937,13.912 664.517,15.485 663.055,17.014 C662.545,17.547 662.521,17.999 662.973,18.67 C666.856,24.438 670.689,30.239 674.534,36.032 C674.688,36.264 674.848,36.505 674.938,36.764 C675.195,37.5 675.231,38.244 674.403,38.619 C673.65,38.959 673.12,38.53 672.711,37.894 C669.379,32.721 666.047,27.549 662.698,22.388 C662.178,21.587 661.579,20.839 661.003,20.049 C660.152,20.945 659.34,21.755 658.592,22.621 C658.417,22.824 658.413,23.217 658.415,23.522 C658.444,27.918 658.494,32.314 658.525,36.71 C658.531,37.522 658.348,38.313 657.373,38.387 C656.4,38.459 656.025,37.716 656.004,36.905 C655.944,34.627 655.901,32.344 655.969,30.067 C656.185,22.772 655.535,15.525 654.88,8.275 C654.782,7.2 654.684,6.124 654.635,5.046 C654.598,4.213 654.688,3.32 655.741,3.229 C656.823,3.136 656.968,3.954 657.037,4.834 C657.408,9.567 657.813,14.297 658.207,19.029 C658.3,19.062 658.393,19.095 658.484,19.128 L658.484,19.128 Z" id="Shape"></path>
                <path d="M207.73,16.237 C207.501,12.481 208.734,9.132 210.457,5.915 C212.44,2.213 216.994,0.069 221.534,0.862 C227.142,1.842 231.853,4.404 235.178,9.174 C235.537,9.691 235.936,10.271 236.014,10.862 C236.071,11.293 235.738,12.035 235.384,12.187 C235.028,12.34 234.32,12.061 233.968,11.746 C233.51,11.335 233.29,10.671 232.9,10.17 C229.421,5.716 224.875,3.291 219.2,3.223 C215.949,3.184 213.714,4.976 212.258,7.744 C208.755,14.402 209.831,20.958 213.139,27.254 C215.666,32.066 221.166,33.582 226.044,32.51 C229.045,31.85 231.655,30.473 233.682,28.078 C234.322,27.322 235.259,27.318 235.767,27.976 C236.355,28.736 236.017,29.304 235.397,29.934 C232.915,32.455 230.003,34.214 226.527,34.88 C219.493,36.228 212.737,33.555 210.042,26.314 C209.375,24.522 208.669,22.725 208.228,20.872 C207.868,19.373 207.882,17.785 207.73,16.237 L207.73,16.237 Z" id="Shape"></path>
                <path d="M498.086,20.308 C498.616,23.975 499.112,27.486 499.638,30.994 C499.821,32.218 500.094,33.428 500.285,34.65 C500.413,35.468 500.712,35.853 501.666,35.851 C503.66,35.849 505.659,36.162 507.648,36.099 C509.202,36.052 510.739,35.594 512.294,35.406 C512.793,35.345 513.482,35.396 513.802,35.697 C514.166,36.041 514.44,36.771 514.331,37.236 C514.242,37.616 513.546,38.09 513.1,38.112 C510.359,38.242 507.612,38.271 504.866,38.3 C503.307,38.316 501.748,38.257 500.189,38.253 C499.07,38.251 498.474,37.796 498.221,36.624 C496.8,30.046 496.075,23.379 495.41,16.695 C495.039,12.961 494.412,9.251 493.884,5.533 C493.587,3.444 494.23,2.651 496.301,2.443 C497.518,2.32 498.719,2.042 499.932,1.86 C500.482,1.777 501.042,1.714 501.597,1.723 C505.312,1.778 509.027,1.842 512.741,1.934 C513.455,1.952 514.176,2.06 514.873,2.215 C515.64,2.385 516.168,2.965 515.83,3.693 C515.633,4.119 514.886,4.529 514.383,4.534 C512.274,4.554 510.162,4.411 508.051,4.341 C506.415,4.287 504.777,4.187 503.143,4.231 C501.845,4.265 500.552,4.475 499.258,4.625 C498.318,4.734 497.38,4.872 496.274,5.02 C496.854,9.227 497.435,13.437 498.049,17.89 C500.739,17.742 503.394,17.598 506.046,17.448 C506.245,17.437 506.441,17.375 506.639,17.36 C507.41,17.302 508.132,17.573 508.085,18.382 C508.057,18.851 507.49,19.516 507.023,19.678 C506.215,19.959 505.296,19.954 504.421,20.005 C502.431,20.122 500.439,20.199 498.086,20.308 L498.086,20.308 Z" id="Shape"></path>
                <path d="M763.11,39.996 C758.664,39.646 754.727,38.24 751.957,34.462 C751.463,33.789 751.195,33.049 751.95,32.444 C752.707,31.838 753.411,32.199 753.876,32.921 C755.561,35.533 758.184,36.662 761.02,37.35 C763.807,38.024 766.452,37.357 768.795,35.809 C770.969,34.374 771.685,30.827 770.682,27.965 C769.417,24.358 767.008,22.142 763.282,21.145 C760.212,20.324 757.417,18.918 755.211,16.459 C752.161,13.059 752.726,7.327 755.277,4.518 C756.177,3.527 757.665,2.767 758.997,2.53 C762.587,1.891 765.909,2.706 768.618,5.331 C769.566,6.249 770.076,7.394 769.735,8.693 C769.616,9.145 768.984,9.755 768.585,9.756 C768.195,9.757 767.477,9.078 767.472,8.691 C767.453,7.334 766.624,6.662 765.642,6.092 C763.167,4.656 760.589,4.088 757.924,5.542 C757.366,5.846 756.835,6.379 756.532,6.938 C754.585,10.542 755.477,14.336 758.982,16.546 C760.646,17.595 762.53,18.443 764.429,18.943 C770.684,20.589 773.832,26.385 773.548,31.752 C773.408,34.392 772.028,36.67 769.723,38.072 C767.741,39.275 765.567,40.15 763.11,39.996 L763.11,39.996 Z" id="Shape"></path>
                <path d="M689.661,6.804 C690.107,11.179 690.51,15.135 690.919,19.151 C691.745,19.151 692.608,19.188 693.467,19.144 C695.701,19.03 697.933,18.873 700.167,18.749 C701.043,18.701 701.72,19.065 701.746,19.994 C701.772,20.961 701.093,21.201 700.206,21.232 C697.135,21.34 694.065,21.508 690.887,21.659 C690.808,22.661 690.671,23.643 690.663,24.626 C690.633,28.343 690.617,32.062 690.654,35.781 C690.671,37.377 690.745,37.447 692.299,37.308 C693.684,37.183 695.061,36.917 696.43,36.658 C698.076,36.347 699.716,36 701.349,35.623 C701.952,35.483 702.51,35.142 703.114,35.027 C703.619,34.93 704.27,34.853 704.656,35.091 C705.045,35.332 705.432,36.011 705.366,36.426 C705.301,36.841 704.711,37.433 704.286,37.491 C699.63,38.149 695.161,39.941 690.375,39.81 C689.413,39.784 688.74,39.427 688.587,38.416 C688.444,37.471 688.259,36.519 688.248,35.566 C688.207,32.089 688.103,28.605 688.263,25.133 C688.481,20.402 688.339,15.711 687.632,11.025 C687.406,9.534 687.418,8 687.417,6.484 C687.417,5.204 687.966,4.698 689.258,4.626 C693.518,4.387 697.778,4.164 702.037,3.929 C702.435,3.908 702.84,3.887 703.226,3.797 C704.082,3.599 704.803,3.734 704.984,4.695 C705.176,5.718 704.496,6.199 703.601,6.25 C701.526,6.368 699.446,6.386 697.37,6.466 C694.909,6.564 692.45,6.682 689.661,6.804 L689.661,6.804 Z" id="Shape"></path>
                <path d="M472.213,32.945 C472.594,31.74 472.928,30.517 473.362,29.331 C474.97,24.943 476.668,20.588 478.219,16.181 C479.32,13.057 480.231,9.867 481.25,6.714 C481.457,6.071 481.639,5.335 482.079,4.881 C482.426,4.523 483.225,4.291 483.692,4.434 C484.42,4.657 484.547,5.371 484.252,6.129 C483.56,7.906 482.88,9.69 482.24,11.486 C480.033,17.692 477.828,23.899 475.66,30.119 C474.937,32.192 474.383,34.325 473.628,36.385 C473.432,36.922 472.733,37.676 472.331,37.639 C471.776,37.586 471.039,36.985 470.798,36.434 C466.917,27.588 463.094,18.718 459.28,9.843 C458.523,8.082 457.845,6.286 457.165,4.494 C457.014,4.094 456.839,3.579 456.97,3.227 C457.139,2.775 457.55,2.223 457.961,2.116 C458.283,2.032 458.984,2.466 459.143,2.831 C462.412,10.377 465.634,17.944 468.847,25.514 C469.899,27.994 470.897,30.496 471.919,32.988 C472.018,32.975 472.115,32.961 472.213,32.945 L472.213,32.945 Z" id="Shape"></path>
                <path d="M256.181,4.554 C252.338,4.8 248.679,5.033 245.02,5.269 C244.306,5.315 243.591,5.436 242.882,5.405 C242.151,5.372 241.577,4.898 241.79,4.163 C241.915,3.729 242.527,3.175 242.965,3.132 C246.697,2.77 250.435,2.411 254.179,2.249 C259.049,2.038 263.927,2.006 268.802,1.904 C269.199,1.896 269.611,1.893 269.995,1.977 C270.768,2.145 271.174,2.661 271.056,3.458 C270.94,4.238 270.381,4.433 269.651,4.432 C266.339,4.425 263.026,4.486 259.715,4.438 C258.62,4.423 258.565,4.947 258.66,5.778 C258.99,8.635 259.412,11.488 259.575,14.356 C259.827,18.782 259.881,23.219 260.046,27.65 C260.129,29.884 260.249,32.119 260.407,34.349 C260.454,35.015 260.666,35.673 260.84,36.324 C261.051,37.117 261.133,37.91 260.213,38.25 C259.208,38.619 258.729,37.922 258.48,37.09 C258.277,36.407 258.082,35.695 258.052,34.99 C257.792,28.722 257.654,22.448 257.307,16.186 C257.095,12.365 256.579,8.561 256.181,4.554 L256.181,4.554 Z" id="Shape"></path>
                <path d="M343.862,21.161 C346.039,18.243 348.045,15.625 349.969,12.949 C351.507,10.81 352.936,8.592 354.431,6.422 C354.904,5.737 355.574,5.478 356.285,6.004 C356.965,6.506 356.877,7.229 356.406,7.813 C352.822,12.255 350.573,17.674 346.304,21.616 C345.535,22.326 345.387,23.117 345.657,24.201 C346.049,25.778 346.178,27.429 346.324,29.056 C346.559,31.68 346.716,34.311 346.906,36.939 C346.912,37.018 346.926,37.098 346.932,37.177 C347.003,37.988 346.796,38.655 345.873,38.748 C344.915,38.844 344.507,38.277 344.453,37.375 C344.283,34.506 343.932,31.635 343.977,28.77 C344.029,25.611 342.384,23.248 340.8,20.834 C337.555,15.89 334.235,10.995 330.94,6.084 C330.484,5.404 330.127,4.664 330.905,4.066 C331.736,3.428 332.41,3.944 332.911,4.666 C333.983,6.208 335.057,7.75 336.093,9.317 C338.604,13.117 341.09,16.931 343.862,21.161 L343.862,21.161 Z" id="Shape"></path>
                <path d="M162.833,31.959 C162.833,26.445 162.87,20.933 162.816,15.42 C162.793,13.106 162.546,10.794 162.463,8.479 C162.416,7.165 162.479,5.845 162.524,4.529 C162.55,3.761 162.901,3.183 163.746,3.196 C164.607,3.209 164.892,3.835 164.907,4.586 C165.01,9.774 165.093,14.962 165.194,20.149 C165.27,24.023 165.488,27.899 165.415,31.77 C165.341,35.678 164.951,39.578 164.762,43.483 C164.542,47.999 159.957,49.708 156.543,48.447 C155.792,48.17 155.236,47.704 155.502,46.839 C155.78,45.937 156.469,45.859 157.339,46.03 C158.196,46.2 159.119,46.309 159.972,46.176 C161.596,45.923 162.229,44.742 162.35,43.192 C162.496,41.323 162.753,39.46 162.838,37.588 C162.924,35.715 162.858,33.834 162.858,31.957 C162.849,31.957 162.842,31.958 162.833,31.959 L162.833,31.959 Z" id="Shape"></path>
            </g>
        </g>
    </g>
</svg>