<?xml version="1.0" encoding="UTF-8" standalone="no"?>
<svg width="27px" height="25px" viewBox="0 0 27 25" version="1.1" xmlns="http://www.w3.org/2000/svg" xmlns:xlink="http://www.w3.org/1999/xlink">
    <!-- Generator: Sketch 3.6.1 (26313) - http://www.bohemiancoding.com/sketch -->
    <title>Shape</title>
    <desc>Created with Sketch.</desc>
    <defs></defs>
    <g id="CAMPAIGN" stroke="none" stroke-width="1" fill="none" fill-rule="evenodd">
        <g id="Mobile-Portrait" transform="translate(-50.000000, -2420.000000)" fill="#79BAD9">
            <g id="The-plan" transform="translate(-812.000000, 1394.000000)">
                <g id="Group-2-Copy-2" transform="translate(853.000000, 1021.000000)">
                    <path d="M35.0894734,7.82164882 L35.1340379,7.75423935 C35.2249676,7.54638408 35.2820237,7.31939758 35.2820237,7.07856907 C35.2820237,6.23296839 34.5962251,5.54716981 33.7506244,5.54716981 C33.255463,5.54716981 32.8163448,5.78327178 32.5363536,6.14789065 L19.1343593,23.1447569 L12.6665382,17.5648502 C12.5820232,17.4757212 12.4888428,17.3949198 12.3877848,17.3241343 C12.0834856,17.1138032 11.7261817,16.9938391 11.3404059,16.9938391 C10.3292637,16.9938391 9.50943396,17.8135563 9.50943396,18.8244734 C9.50943396,19.2835105 9.67958944,19.7020345 9.95868042,20.0233267 L18.0960958,29.0083685 C18.4301047,29.453226 18.9604901,29.7423328 19.5596355,29.7423328 C20.1585557,29.7423328 20.6888286,29.453226 21.0228375,29.008481 C21.0683023,28.9471485 21.1016132,28.8969572 21.1325608,28.8448527 L34.9637699,8.01104807 C35.0096849,7.95095348 35.0523363,7.88827054 35.0894734,7.82164882 Z" id="Shape"></path>
                </g>
            </g>
        </g>
    </g>
</svg>