<?xml version="1.0" encoding="UTF-8" standalone="no"?>
<svg width="63px" height="106px" viewBox="0 0 63 106" version="1.1" xmlns="http://www.w3.org/2000/svg" xmlns:xlink="http://www.w3.org/1999/xlink" xmlns:sketch="http://www.bohemiancoding.com/sketch/ns">
    <g id="Page-1" stroke="none" stroke-width="1" fill-rule="evenodd" fill="#fff" sketch:type="MSPage">
        <g id="social_icons" sketch:type="MSLayerGroup">
            <path d="M42.122,81.687 C42.379,87.045 41.772,93.347 41.685,99.662 C41.625,103.974 39.503,105.812 35.248,105.263 C32.162,104.866 29.112,104.235 26.002,103.931 C23.337,103.67 22.288,102.145 22.148,99.336 C21.519,86.722 21.987,74.082 21.233,61.467 C21.1,59.248 20.433,58.572 18.363,58.604 C14.531,58.661 10.698,58.64 6.903,59.272 C2.993,59.923 0.912,58.303 0.675,54.391 C0.482,51.203 0.222,48.018 0.112,44.828 C-0.016,41.1 1.158,39.653 4.82,38.768 C7.74,38.062 10.712,38.466 13.661,38.408 C15.578,38.37 17.5,38.366 19.416,38.453 C20.885,38.52 21.347,37.954 21.289,36.491 C21.115,32.013 21.166,27.521 21.901,23.096 C23.211,15.207 27.793,9.55 34.18,4.971 C38.101,2.161 42.398,1.189 46.998,0.978 C49.71,0.853 52.434,0.948 55.151,0.991 C58.566,1.045 60.169,2.195 60.467,5.536 C60.815,9.422 60.799,13.353 60.719,17.261 C60.676,19.422 58.592,20.901 56.439,20.262 C52.35,19.05 48.525,20.213 44.654,21.165 C42.872,21.603 41.947,22.761 42.052,24.653 C42.264,28.485 42.55,32.322 41.636,36.111 C41.368,37.222 41.957,37.28 42.816,37.238 C47.54,37.006 52.225,37.659 56.929,37.897 C59.288,38.016 60.661,39.258 60.955,41.547 C61.504,45.824 62.04,50.107 62.407,54.402 C62.68,57.591 61.301,59.087 58.114,59.062 C53.479,59.026 48.855,58.964 44.222,59.287 C42.552,59.403 42.064,59.893 42.085,61.54 C42.171,67.932 42.122,74.327 42.122,81.687 L42.122,81.687 Z" id="Shape" sketch:type="MSShapeGroup"></path>
        </g>
    </g>
</svg>
