<?xml version="1.0" encoding="UTF-8" standalone="no"?>
<svg width="217px" height="267px" viewBox="0 0 217 267" version="1.1" xmlns="http://www.w3.org/2000/svg" xmlns:xlink="http://www.w3.org/1999/xlink">
    <!-- Generator: Sketch 3.6.1 (26313) - http://www.bohemiancoding.com/sketch -->
    <title>Shape</title>
    <desc>Created with Sketch.</desc>
    <defs></defs>
    <g id="Page-1" stroke="none" stroke-width="1" fill="none" fill-rule="evenodd">
        <path d="M214.836,80.96 C214.929,81.67 215.021,82.38 215.115,83.09 C215.149,83.347 215.216,83.604 215.223,83.861 C215.279,85.753 215.281,87.648 215.387,89.537 C215.454,90.729 215.567,91.938 215.847,93.093 C216.468,95.652 216.545,98.188 215.94,100.754 C215.808,101.311 215.773,101.897 215.749,102.472 C215.655,104.661 215.582,106.852 215.509,109.042 C215.493,109.521 215.547,110.004 215.506,110.48 C215.432,111.332 215.312,112.18 215.208,113.029 C215.155,113.465 215.099,113.9 215.039,114.335 C214.918,115.222 214.786,116.108 214.671,116.996 C214.615,117.43 214.621,117.875 214.536,118.303 C214.338,119.296 214.126,120.287 213.872,121.266 C213.703,121.919 213.444,122.548 213.241,123.192 C212.724,124.825 212.333,126.51 211.675,128.084 C210.97,129.767 209.891,131.296 209.208,132.985 C208.531,134.657 207.649,136.204 206.819,137.787 C206.755,137.91 206.745,138.066 206.667,138.177 C205.258,140.17 204.557,142.626 202.654,144.3 C202.422,144.505 202.285,144.817 202.104,145.08 C201.797,145.523 201.568,146.056 201.172,146.395 C199.664,147.685 198.875,149.633 197.157,150.725 C196.966,150.847 196.866,151.105 196.697,151.273 C196.05,151.919 195.397,152.56 194.734,153.19 C194.301,153.601 193.828,153.969 193.404,154.388 C192.329,155.451 191.271,156.532 190.205,157.603 C190.092,157.716 189.968,157.82 189.838,157.912 C188.42,158.907 187.045,159.972 185.567,160.867 C184.328,161.617 182.965,162.162 181.666,162.813 C181.419,162.936 181.211,163.133 180.978,163.284 C180.094,163.855 179.208,164.423 178.321,164.988 C178.237,165.041 178.119,165.049 178.05,165.113 C176.535,166.53 174.469,166.93 172.763,167.992 C172.696,168.034 172.629,168.088 172.554,168.109 C170.209,168.781 168.062,170.094 165.549,170.241 C164.984,170.274 164.429,170.518 163.872,170.676 C162.744,170.998 161.629,171.376 160.487,171.642 C158.8,172.036 157.106,172.414 155.396,172.684 C153.726,172.947 152.034,173.061 150.352,173.249 C150.116,173.275 149.882,173.344 149.651,173.406 C149.25,173.514 149.13,173.768 149.207,174.178 C149.329,174.824 149.377,175.486 149.517,176.128 C149.576,176.398 149.733,176.696 149.938,176.877 C150.987,177.802 151.689,178.938 152.156,180.246 C152.307,180.673 152.565,181.061 152.775,181.468 C153.122,182.14 153.532,182.789 153.803,183.49 C154.254,184.659 154.616,185.862 155.016,187.051 C155.048,187.146 155.092,187.239 155.107,187.337 C155.399,189.285 155.691,191.233 155.974,193.183 C156.057,193.753 156.124,194.327 156.179,194.9 C156.258,195.732 156.317,196.566 156.39,197.398 C156.423,197.774 156.476,198.148 156.512,198.524 C156.59,199.337 156.658,200.151 156.74,200.963 C156.785,201.398 156.871,201.83 156.904,202.265 C156.982,203.295 157.041,204.327 157.104,205.357 C157.109,205.435 157.075,205.516 157.077,205.595 C157.127,207.265 157.186,208.935 157.227,210.606 C157.247,211.363 157.21,212.122 157.237,212.879 C157.288,214.353 157.358,215.826 157.436,217.298 C157.45,217.555 157.563,217.805 157.586,218.062 C157.741,219.769 157.88,221.476 158.034,223.183 C158.079,223.678 158.145,224.172 158.222,224.664 C158.289,225.098 158.412,225.524 158.463,225.959 C158.599,227.126 158.763,228.292 158.816,229.463 C158.912,231.552 158.928,233.644 158.99,235.735 C159.011,236.433 159.115,237.131 159.1,237.828 C159.059,239.76 158.949,241.69 158.918,243.621 C158.894,245.175 158.892,246.733 158.979,248.284 C159.076,250.013 158.805,251.624 157.894,253.117 C157.657,253.505 157.48,253.938 157.325,254.368 C156.522,256.595 155.014,258.107 152.803,258.947 C152.306,259.136 151.824,259.396 151.379,259.688 C150.093,260.53 148.713,261.024 147.161,261.06 C146.368,261.079 145.578,261.23 144.784,261.282 C143.99,261.334 143.17,261.467 142.4,261.334 C140.621,261.028 138.874,261.047 137.116,261.43 C136.01,261.671 134.898,261.903 133.78,262.076 C132.128,262.332 130.466,262.527 128.809,262.762 C128.278,262.837 127.75,262.952 127.224,263.059 C127.029,263.099 126.842,263.191 126.646,263.217 C124.811,263.464 122.975,263.702 121.139,263.941 C121.06,263.951 120.978,263.937 120.9,263.949 C119.13,264.217 117.361,264.486 115.591,264.759 C115.395,264.789 115.203,264.859 115.005,264.885 C113.466,265.09 111.926,265.29 110.386,265.49 C110.228,265.511 110.047,265.485 109.913,265.552 C108.043,266.489 105.964,266.331 103.984,266.584 C101.943,266.844 99.845,266.748 97.777,266.681 C96.571,266.642 95.365,266.402 94.175,266.166 C93.398,266.012 92.637,265.741 91.896,265.454 C91.006,265.111 90.144,264.699 89.273,264.308 C88.835,264.112 88.398,263.914 87.977,263.686 C86.981,263.146 85.98,262.611 85.009,262.027 C84.487,261.713 83.994,261.682 83.412,261.824 C80.014,262.654 76.539,260.983 75.069,257.835 C74.461,256.532 74.308,255.158 74.433,253.734 C74.473,253.282 74.405,252.822 74.401,252.365 C74.393,251.45 74.391,250.536 74.396,249.621 C74.398,249.184 74.428,248.748 74.433,248.311 C74.435,248.112 74.384,247.91 74.4,247.713 C74.562,245.649 74.733,243.585 74.898,241.521 C74.919,241.264 74.914,241.004 74.931,240.746 C74.997,239.754 75.068,238.762 75.138,237.77 C75.14,237.73 75.164,237.691 75.162,237.653 C75.05,235.677 75.661,233.784 75.819,231.841 C75.923,230.551 75.84,229.243 75.987,227.96 C76.198,226.122 76.546,224.3 76.832,222.471 C76.875,222.196 76.906,221.918 76.938,221.641 C77.039,220.77 77.113,219.896 77.248,219.032 C77.302,218.686 77.269,218.466 76.944,218.289 C76.489,218.041 76.076,217.703 75.604,217.5 C75.236,217.343 74.807,217.289 74.402,217.271 C73.488,217.229 72.571,217.207 71.657,217.235 C70.445,217.272 69.213,217.246 68.03,217.464 C66.794,217.691 65.582,217.789 64.338,217.688 C63.944,217.656 63.544,217.715 63.146,217.716 C62.291,217.719 61.436,217.713 60.581,217.707 C60.204,217.705 59.826,217.685 59.448,217.688 C58.729,217.695 57.962,217.883 57.3,217.695 C55.158,217.089 52.903,216.994 50.821,216.068 C49.624,215.535 48.249,215.401 46.954,215.087 C46.935,215.083 46.913,215.089 46.894,215.085 C44.595,214.466 42.184,214.494 39.903,213.589 C38.263,212.939 36.611,212.335 34.984,211.627 C33.485,210.976 32.228,210.122 30.964,209.113 C29.52,207.96 28.199,206.768 27.022,205.327 C26.168,204.282 25.176,203.365 24.52,202.149 C24.242,201.634 23.742,201.244 23.37,200.776 C22.403,199.56 21.456,198.329 20.49,197.112 C20.318,196.896 20.109,196.7 19.887,196.532 C18.826,195.731 18.039,194.72 17.483,193.514 C17.352,193.23 17.119,192.994 16.936,192.733 C15.838,191.168 14.719,189.616 13.657,188.027 C13.352,187.571 13.214,187.005 12.992,186.491 C12.874,186.217 12.741,185.949 12.613,185.679 C12.144,184.692 11.682,183.701 11.2,182.721 C10.743,181.79 10.381,180.776 9.746,179.985 C9.406,179.561 8.588,179.39 7.968,179.344 C6.342,179.224 4.874,178.77 3.591,177.748 C0.83,175.548 -0.002,171.657 1.629,168.539 C3.268,165.406 6.84,163.915 10.25,164.907 C10.99,165.122 11.761,165.248 12.526,165.348 C13.926,165.532 15.192,166.012 16.328,166.858 C16.691,167.128 17.099,167.361 17.52,167.526 C19.612,168.346 21.063,169.788 21.887,171.88 C22.039,172.264 22.294,172.607 22.491,172.975 C22.978,173.884 23.556,174.76 23.918,175.718 C24.339,176.834 24.944,177.744 25.808,178.573 C26.558,179.292 27.087,180.237 27.748,181.054 C28.559,182.055 29.335,183.101 30.261,183.987 C30.999,184.693 31.926,185.207 32.791,185.773 C33.797,186.43 34.614,187.256 35.242,188.281 C35.826,189.235 36.635,189.937 37.6,190.525 C38.458,191.046 39.196,191.763 39.991,192.389 C41.178,193.323 42.241,194.485 43.698,194.97 C44.762,195.325 45.923,195.404 47.045,195.571 C48.048,195.72 49.058,195.821 50.064,195.946 C50.242,195.968 50.417,196.035 50.594,196.041 C51.987,196.083 53.38,196.125 54.773,196.146 C55.948,196.164 57.126,196.195 58.299,196.138 C58.967,196.106 59.636,195.946 60.289,195.781 C61.756,195.41 63.212,194.997 64.675,194.61 C64.905,194.549 65.146,194.518 65.384,194.495 C66.892,194.352 68.411,194.288 69.903,194.049 C70.642,193.93 71.348,193.529 72.035,193.187 C72.905,192.754 73.741,192.252 74.591,191.779 C74.852,191.634 75.108,191.48 75.373,191.342 C76.29,190.867 77.177,190.31 78.137,189.945 C79.677,189.36 80.008,188.999 80.038,187.383 C80.041,187.203 80.028,187.018 80.064,186.845 C80.453,184.993 80.853,183.144 81.245,181.293 C81.369,180.71 81.456,180.117 81.6,179.539 C81.817,178.67 82.026,177.796 82.32,176.952 C82.615,176.103 82.537,175.919 81.655,175.705 C80.88,175.517 80.12,175.266 79.35,175.059 C79.024,174.972 78.689,174.901 78.353,174.868 C77.221,174.757 76.17,174.427 75.178,173.859 C74.577,173.516 73.921,173.269 73.287,172.985 C73.141,172.92 72.975,172.898 72.837,172.822 C71.112,171.87 69.392,170.911 67.67,169.953 C67.635,169.934 67.609,169.897 67.573,169.883 C65.978,169.23 64.563,168.264 63.097,167.376 C61.346,166.315 59.51,165.394 57.701,164.429 C57.245,164.186 56.743,164.032 56.28,163.801 C54.819,163.072 53.366,162.325 51.911,161.584 C51.858,161.557 51.808,161.522 51.759,161.488 C50.338,160.496 48.919,159.5 47.494,158.514 C47.266,158.356 47.012,158.235 46.763,158.108 C46.389,157.918 45.973,157.789 45.639,157.545 C43.985,156.335 42.354,155.094 40.712,153.867 C40.505,153.712 40.292,153.564 40.072,153.427 C39.851,153.29 39.596,153.201 39.397,153.04 C37.878,151.814 36.37,150.575 34.858,149.341 C34.488,149.039 34.118,148.737 33.746,148.439 C33.28,148.064 32.765,147.738 32.351,147.313 C31.062,145.984 29.812,144.617 28.543,143.269 C28.379,143.095 28.194,142.939 28.012,142.785 C27.768,142.578 27.451,142.425 27.278,142.172 C25.888,140.143 23.861,138.575 22.95,136.198 C22.845,135.924 22.635,135.691 22.492,135.429 C21.998,134.522 21.51,133.613 21.026,132.7 C20.812,132.297 20.62,131.882 20.407,131.478 C20.295,131.266 20.122,131.082 20.038,130.862 C19.309,128.968 18.594,127.068 17.876,125.17 C17.855,125.115 17.86,125.047 17.834,124.996 C16.976,123.335 16.602,121.511 16.053,119.746 C15.982,119.518 15.835,119.307 15.797,119.075 C15.44,116.915 15.094,114.753 14.758,112.59 C14.673,112.04 14.614,111.484 14.578,110.928 C14.443,108.843 14.311,106.757 14.201,104.67 C14.164,103.977 14.192,103.281 14.198,102.587 C14.203,101.948 14.223,101.31 14.229,100.671 C14.233,100.136 14.224,99.601 14.226,99.066 C14.232,97.055 14.24,95.045 14.248,93.034 C14.25,92.617 14.274,92.199 14.263,91.782 C14.246,91.164 14.178,90.546 14.183,89.928 C14.193,88.834 14.241,87.74 14.274,86.647 C14.282,86.387 14.274,86.125 14.308,85.869 C14.476,84.566 14.669,83.266 14.828,81.962 C14.951,80.955 14.959,79.928 15.155,78.938 C15.57,76.851 16.063,74.78 16.549,72.708 C16.698,72.071 16.917,71.449 17.127,70.828 C17.772,68.923 18.335,66.984 19.106,65.131 C19.77,63.539 20.681,62.049 21.473,60.51 C21.591,60.281 21.639,60.016 21.751,59.783 C22.16,58.943 22.579,58.107 23.002,57.274 C23.218,56.849 23.5,56.451 23.67,56.009 C24.163,54.735 24.868,53.626 25.917,52.73 C26.149,52.532 26.341,52.176 26.373,51.875 C26.447,51.166 26.41,50.446 26.422,49.73 C26.434,48.992 26.516,48.248 26.453,47.516 C26.262,45.306 26.656,43.153 26.996,40.992 C27.024,40.815 27.003,40.63 27.032,40.454 C27.306,38.804 27.587,37.154 27.865,35.504 C27.888,35.366 27.929,35.23 27.937,35.091 C28.022,33.538 28.084,31.983 28.189,30.431 C28.324,28.442 28.495,26.456 28.645,24.469 C28.67,24.131 28.655,23.789 28.687,23.452 C28.784,22.443 28.911,21.436 28.995,20.426 C29.112,19.015 29.295,17.601 29.275,16.191 C29.254,14.748 29.345,13.363 29.934,12.027 C30.134,11.574 30.248,11.079 30.366,10.595 C31.477,6.049 36.463,3.697 40.688,5.712 C41.24,5.976 41.848,6.123 42.433,6.316 C42.603,6.372 42.786,6.39 42.958,6.44 C44.623,6.916 46.262,7.553 47.959,7.832 C49.847,8.142 51.54,8.775 53.239,9.635 C54.484,10.265 55.729,10.83 56.893,11.633 C58.064,12.441 59.429,12.965 60.686,13.653 C61.574,14.138 62.431,14.679 63.289,15.215 C63.743,15.499 64.166,15.83 64.609,16.131 C64.774,16.243 64.975,16.308 65.126,16.434 C66.773,17.812 68.415,19.199 70.058,20.582 C70.287,20.774 70.53,20.949 70.752,21.147 C71.48,21.796 72.264,22.396 72.909,23.119 C73.938,24.27 74.534,24.378 75.867,23.576 C76.563,23.158 77.336,22.868 78.072,22.514 C78.448,22.333 78.845,22.179 79.187,21.947 C80.253,21.223 81.421,20.808 82.692,20.63 C83.141,20.567 83.57,20.381 84.016,20.283 C85.024,20.061 86.031,19.834 87.046,19.658 C87.75,19.536 88.469,19.499 89.181,19.42 C89.577,19.376 89.974,19.326 90.369,19.274 C91.138,19.174 91.906,19.071 92.675,18.967 C92.774,18.954 92.868,18.916 92.968,18.905 C94.729,18.705 96.49,18.51 98.25,18.305 C98.646,18.259 99.036,18.18 99.428,18.107 C100.074,17.986 100.719,17.856 101.366,17.731 C101.892,17.63 102.42,17.54 102.945,17.432 C103.609,17.295 104.271,17.149 104.931,16.997 C105.299,16.912 105.679,16.846 106.024,16.701 C107.091,16.254 108.188,16.027 109.35,16.03 C110.002,16.031 110.657,15.91 111.308,15.837 C111.665,15.796 112.02,15.71 112.377,15.695 C113.829,15.634 115.311,15.756 116.728,15.506 C118.638,15.168 120.549,14.995 122.475,14.876 C122.672,14.863 122.868,14.773 123.065,14.773 C125.057,14.779 127.05,14.797 129.043,14.81 C129.481,14.813 129.918,14.81 130.355,14.807 C132.327,14.798 134.298,14.788 136.27,14.782 C136.368,14.782 136.466,14.817 136.565,14.835 C137.778,15.054 139.006,15.21 140.2,15.505 C141.939,15.936 143.655,16.465 145.378,16.958 C146.122,17.171 146.861,17.401 147.604,17.619 C147.795,17.675 148.003,17.686 148.186,17.762 C149.935,18.481 151.67,19.234 153.431,19.926 C154.393,20.304 155.391,20.598 156.384,20.892 C156.53,20.935 156.771,20.81 156.913,20.695 C158.474,19.426 160.036,18.159 161.569,16.858 C162.037,16.46 162.362,15.884 162.848,15.518 C164.264,14.453 165.687,13.386 167.186,12.446 C168.718,11.485 170.369,10.715 171.919,9.782 C173.181,9.024 174.363,8.137 175.596,7.331 C176.295,6.873 177.052,6.501 177.737,6.025 C179.278,4.952 180.94,4.101 182.628,3.296 C183.595,2.835 184.587,2.426 185.578,2.018 C186.073,1.815 186.613,1.714 187.096,1.486 C189.746,0.236 192.291,0.399 194.723,2.028 C196.197,3.016 197.728,3.917 198.939,5.27 C199.964,6.416 200.742,7.654 201.083,9.16 C201.166,9.527 201.266,9.907 201.444,10.234 C202.019,11.283 202.2,12.459 202.586,13.561 C203.214,15.351 203.524,17.163 203.79,19.025 C203.975,20.321 204.17,21.583 204.026,22.888 C203.992,23.202 204.04,23.524 204.041,23.843 C204.043,24.759 204.041,25.674 204.041,26.589 C204.042,26.927 204.039,27.266 204.047,27.604 C204.064,28.341 204.094,29.077 204.105,29.814 C204.116,30.51 204.108,31.206 204.109,31.902 C204.109,32.44 204.15,32.982 204.101,33.515 C203.986,34.804 203.829,36.09 203.688,37.377 C203.681,37.437 203.675,37.497 203.66,37.554 C203.15,39.396 202.625,41.234 202.136,43.081 C201.933,43.85 201.921,44.688 201.619,45.409 C201.132,46.57 201.447,47.286 202.354,48.12 C203.532,49.203 204.567,50.474 205.51,51.774 C206.465,53.092 207.337,54.495 208.059,55.953 C208.939,57.732 209.62,59.608 210.394,61.439 C210.526,61.751 210.728,62.035 210.841,62.352 C211.194,63.343 211.528,64.341 211.851,65.341 C211.979,65.737 212.059,66.149 212.166,66.552 C212.397,67.416 212.571,68.302 212.878,69.14 C213.527,70.915 213.809,72.76 214.071,74.614 C214.176,75.363 214.313,76.107 214.423,76.855 C214.509,77.446 214.568,78.042 214.65,78.634 C214.757,79.403 214.878,80.17 214.992,80.937 C214.945,80.944 214.891,80.952 214.836,80.96 L214.836,80.96 Z" id="Shape" fill="#FFFFFF"></path>
    </g>
</svg>