<?xml version="1.0" encoding="UTF-8" standalone="no"?>
<svg width="159px" height="30px" viewBox="0 0 159 30" version="1.1" xmlns="http://www.w3.org/2000/svg" xmlns:xlink="http://www.w3.org/1999/xlink" xmlns:sketch="http://www.bohemiancoding.com/sketch/ns">
    <!-- Generator: Sketch 3.3.2 (12043) - http://www.bohemiancoding.com/sketch -->
    <title>Group</title>
    <desc>Created with Sketch.</desc>
    <defs></defs>
    <g id="Page-1" stroke="none" stroke-width="1" fill="none" fill-rule="evenodd" sketch:type="MSPage">
        <g id="Home" sketch:type="MSArtboardGroup" transform="translate(-41.000000, -25.000000)" fill="#1A1918">
            <g id="Menu" sketch:type="MSLayerGroup" transform="translate(-2.000000, -264.000000)">
                <g id="Logo_phonebloks" transform="translate(43.000000, 289.500000)" sketch:type="MSShapeGroup">
                    <g id="Group">
                        <path d="M4.63324915,4.56830357 L4.58251024,14.150625 L6.71218771,14.1613393 C8.14562969,14.1688393 8.92733447,13.5259821 8.93791638,11.5041964 L8.96043686,7.25892857 C8.97101877,5.23741071 8.1963686,4.58651786 6.76265529,4.57928571 L4.63324915,4.56830357 L4.63324915,4.56830357 Z M13.4639898,7.56508929 L13.4444539,11.244375 C13.4205768,15.7730357 11.1962048,18.2276786 6.69102389,18.2046429 L4.56107509,18.1936607 L4.50518089,28.8273214 L0,28.80375 L0.149503413,0.501964286 L6.78409044,0.535982143 C11.2892713,0.559285714 13.4878669,3.03723214 13.4639898,7.56508929 L13.4639898,7.56508929 Z" id="Fill-1"></path>
                        <path d="M20.0369846,28.8415179 L15.5315324,28.8460714 L15.499244,0.544017857 L20.0044249,0.539196429 L20.0182628,12.6685714 L25.1377372,12.6626786 L25.1238993,0.533303571 L29.7110222,0.528214286 L29.7435819,28.8305357 L25.156459,28.835625 L25.1426212,16.7059821 L20.0228754,16.711875 L20.0369846,28.8415179" id="Fill-4"></path>
                        <path d="M37.0288208,22.2945536 C36.9992457,24.3160714 37.8889403,25.0971429 39.3221109,25.1175 C40.7555529,25.1378571 41.6674966,24.3827679 41.6970717,22.3609821 L41.9206485,7.07946429 C41.9502235,5.05848214 41.0608003,4.27741071 39.6273584,4.25678571 C38.1941877,4.23642857 37.2819727,4.99178571 37.2523976,7.01303571 L37.0288208,22.2945536 L37.0288208,22.2945536 Z M32.7434181,7.231875 C32.8096229,2.70401786 35.263541,0.151071429 39.6865085,0.214285714 C44.1094761,0.277232143 46.4876928,2.89901786 46.4214881,7.426875 L46.2060512,22.1426786 C46.1398464,26.6705357 43.6859283,29.2232143 39.2629608,29.1602679 C34.8402645,29.0973214 32.4617765,26.4755357 32.5279812,21.9474107 L32.7434181,7.231875 L32.7434181,7.231875 Z" id="Fill-5"></path>
                        <path d="M53.1545683,8.37883929 L53.4188447,28.8763393 L49.3648874,28.9272321 L48.9996758,0.627053571 L54.650959,0.556071429 L59.4972031,17.4375 L59.2787816,0.497678571 L63.2923106,0.447589286 L63.6572509,28.7475 L59.0296997,28.805625 L53.1545683,8.37883929" id="Fill-6"></path>
                        <path d="M71.2241314,12.4577679 L77.4085802,12.4797321 L77.393657,16.5225 L71.2094795,16.5005357 L71.1793618,24.7891071 L78.9611365,24.8166964 L78.9462133,28.8602679 L66.659529,28.816875 L66.7623635,0.514553571 L79.0490478,0.557946429 L79.0343959,4.60098214 L71.2526212,4.57339286 L71.2241314,12.4577679" id="Fill-7"></path>
                        <path d="M87.9506058,16.1097321 L87.9774676,24.8025 L90.5575546,24.7947321 C92.0729386,24.7901786 92.8896451,24.1004464 92.8834044,21.9980357 L92.8758072,19.531875 C92.8676672,16.9033929 92.0051058,16.0974107 89.9576416,16.1038393 L87.9506058,16.1097321 L87.9506058,16.1097321 Z M87.9150614,4.58678571 L87.9381246,12.0666964 L89.6990631,12.0610714 C91.3788737,12.05625 92.3998925,11.3252679 92.3931092,9.06107143 L92.3882253,7.48419643 C92.3819846,5.46267857 91.6830358,4.57526786 90.0857099,4.57982143 L87.9150614,4.58678571 L87.9150614,4.58678571 Z M96.8917782,7.02589286 L96.8950341,8.03705357 C96.9039881,10.9478571 96.0088669,12.8108036 94.0048157,13.7464286 C96.4242747,14.6689286 97.3725768,16.809375 97.3820734,19.8013393 L97.3888567,22.1057143 C97.4021519,26.4723214 95.0752167,28.8246429 90.5700358,28.8380357 L83.4847679,28.8591964 L83.3973993,0.557142857 L90.1958703,0.536785714 C94.8646638,0.522589286 96.8784829,2.65955357 96.8917782,7.02589286 L96.8917782,7.02589286 Z" id="Fill-8"></path>
                        <path d="M98.902884,0.679285714 L103.40698,0.57375 L103.987628,24.8260714 L111.398493,24.6530357 L111.495087,28.6955357 L99.5806689,28.9735714 L98.902884,0.679285714" id="Fill-9"></path>
                        <path d="M116.506572,22.3505357 C116.526108,24.3720536 117.434795,25.1316964 118.868509,25.1180357 C120.301408,25.104375 121.194901,24.3278571 121.175365,22.3060714 L121.025862,7.02348214 C121.006326,5.0025 120.09791,4.24258929 118.66501,4.25598214 C117.231297,4.26964286 116.337804,5.04669643 116.357611,7.06794643 L116.506572,22.3505357 L116.506572,22.3505357 Z M111.855415,7.39392857 C111.811188,2.86607143 114.202428,0.255535714 118.625396,0.213482143 C123.048363,0.171160714 125.4898,2.73589286 125.534027,7.26375 L125.677561,21.9803571 C125.721788,26.50875 123.330819,29.1192857 118.907852,29.1610714 C114.484613,29.203125 112.043176,26.6389286 111.998949,22.1105357 L111.855415,7.39392857 L111.855415,7.39392857 Z" id="Fill-10"></path>
                        <path d="M135.215119,17.7249107 L133.867147,20.3351786 L134.015022,29.026875 L129.510384,29.1016071 L129.029314,0.803035714 L133.533681,0.728571429 L133.74342,13.0583036 L139.430247,0.630803571 L143.934886,0.556071429 L137.883932,13.273125 L144.415956,28.8546429 L139.788947,28.93125 L135.215119,17.7249107" id="Fill-11"></path>
                        <path d="M151.778253,0.0334821429 C156.159978,-0.046875 158.460865,2.49883929 158.545792,7.02642857 L158.562614,7.91598214 L154.304073,7.99419643 L154.281824,6.82178571 C154.244109,4.80053571 153.41058,4.04732143 151.977138,4.07357143 C150.543968,4.09955357 149.739742,4.88303571 149.777457,6.90401786 C149.887075,12.7253571 158.711575,13.6553571 158.863792,21.740625 C158.948718,26.2679464 156.704268,28.8975 152.281843,28.9783929 C147.859147,29.0592857 145.51756,26.514375 145.432633,21.9865179 L145.399531,20.248125 L149.658072,20.1701786 L149.696058,22.1914286 C149.734316,24.2129464 150.648973,24.9241071 152.081872,24.8978571 C153.515585,24.8716071 154.402567,24.1272321 154.364852,22.1057143 C154.255234,16.2849107 145.430734,15.3549107 145.278517,7.269375 C145.19359,2.74205357 147.396799,0.113839286 151.778253,0.0334821429" id="Fill-13"></path>
                    </g>
                </g>
            </g>
        </g>
    </g>
</svg>