<?xml version="1.0" encoding="utf-8"?>
<!-- Generator: Adobe Illustrator 16.0.0, SVG Export Plug-In . SVG Version: 6.00 Build 0)  -->
<!DOCTYPE svg PUBLIC "-//W3C//DTD SVG 1.1//EN" "http://www.w3.org/Graphics/SVG/1.1/DTD/svg11.dtd">
<svg version="1.1" id="Laag_1" xmlns="http://www.w3.org/2000/svg" xmlns:xlink="http://www.w3.org/1999/xlink" x="0px" y="0px"
	 width="18px" height="17px" viewBox="0 0 18 17" enable-background="new 0 0 18 17" xml:space="preserve">
<title>Group</title>
<desc>Created with Sketch.</desc>
<path fill="#FFFFFF" stroke="#FAFCFC" stroke-linecap="round" stroke-linejoin="round" d="M9.02,16.118c-0.02,0-0.04,0-0.059,0
	c-0.018-0.044-0.032-0.091-0.055-0.132c-1.371-2.375-2.74-4.753-4.115-7.125C4.494,8.348,4.233,7.824,4.103,7.243
	C4.051,7.006,4.015,6.764,3.971,6.524c0-0.295,0-0.59,0-0.885c0.052-0.283,0.088-0.571,0.16-0.85
	c0.682-2.624,3.373-4.235,6.014-3.607c1.069,0.254,1.963,0.82,2.622,1.569c1.341,1.521,1.713,3.797,0.625,5.742
	c-1.272,2.275-2.6,4.521-3.9,6.78C9.332,15.555,9.177,15.838,9.02,16.118z M8.995,3.572c-1.377,0-2.503,1.128-2.504,2.506
	c0,1.372,1.106,2.495,2.493,2.499c1.36,0.004,2.489-1.053,2.513-2.494C11.519,4.721,10.363,3.571,8.995,3.572z"/>
</svg>
