<?xml version="1.0" encoding="UTF-8" standalone="no"?>
<svg width="21px" height="19px" viewBox="0 0 21 19" version="1.1" xmlns="http://www.w3.org/2000/svg" xmlns:xlink="http://www.w3.org/1999/xlink">
    <!-- Generator: Sketch 3.6.1 (26313) - http://www.bohemiancoding.com/sketch -->
    <title>Icon download</title>
    <desc>Created with Sketch.</desc>
    <defs></defs>
    <g id="Start-Extra---3" stroke="none" stroke-width="1" fill="none" fill-rule="evenodd">
        <g id="Icon-download" transform="translate(1.000000, 1.000000)" stroke="#4D5052" stroke-width="0.5" fill="#4D5052">
            <path d="M11.5142568,13.4759254 L10.1526757,14.7968507 L10.1526757,9.24216418 C10.1526757,8.88338806 9.92031081,8.6578209 9.54698649,8.6578209 C9.17366216,8.6578209 8.9412973,8.88338806 8.9412973,9.24216418 L8.9412973,14.7968507 L7.57971622,13.4759254 C7.33528378,13.2386866 6.97633784,13.2386866 6.73190541,13.4759254 C6.48952703,13.7111343 6.48952703,14.0536716 6.73190541,14.2888806 L9.08071622,16.5678955 C9.11332432,16.609 9.15517568,16.6341194 9.19985135,16.6632985 C9.23810811,16.6924776 9.27687838,16.7282537 9.31462162,16.7447463 C9.38009459,16.7729104 9.45404054,16.7868657 9.54698649,16.7868657 C9.68897297,16.7868657 9.79013514,16.742209 9.89283784,16.663806 C9.93802703,16.6343731 9.98013514,16.6092537 10.0132568,16.5678955 L12.3620676,14.2888806 C12.6044459,14.0536716 12.6044459,13.7111343 12.3620676,13.4759254 C12.1176351,13.2386866 11.7586892,13.2386866 11.5142568,13.4759254 L11.5142568,13.4759254 Z" id="Shape"></path>
            <path d="M14.3293378,3.24420896 C14.1267568,3.24420896 13.9390676,3.26247761 13.6817973,3.30358209 C12.7813514,1.41226866 10.8618378,0.150462687 8.74975676,0.150462687 C5.93441892,0.150462687 3.68985135,2.19147761 3.41589189,4.84322388 C1.56185135,5.09720896 0.173054054,6.5919403 0.173054054,8.46853731 C0.173054054,10.5288358 1.84017568,12.1463731 3.96714865,12.1463731 L6.35832432,12.1463731 C6.73164865,12.1463731 6.96427027,11.920806 6.96427027,11.5620299 C6.96427027,11.2032537 6.73190541,10.9776866 6.35832432,10.9776866 L3.96714865,10.9776866 C2.50722973,10.9776866 1.38468919,9.88841791 1.38468919,8.46853731 C1.38468919,7.04865672 2.50722973,5.95938806 3.96714865,5.95938806 C4.34047297,5.95938806 4.57309459,5.7338209 4.57309459,5.37504478 C4.57309459,3.10440299 6.41301351,1.31914925 8.74975676,1.31914925 C10.5930135,1.31914925 12.179,2.46144776 12.6732568,4.14368657 C12.7918784,4.43192537 13.1397838,4.59431343 13.4591892,4.49916418 C13.4635541,4.49840299 13.4681757,4.5001791 13.4727973,4.49916418 C13.5996351,4.45831343 13.7462432,4.43446269 13.9175,4.42253731 C14.0384324,4.41416418 14.1357432,4.41238806 14.3293378,4.41238806 C16.1877432,4.41238806 17.709027,5.88834328 17.709027,7.69491045 C17.709027,9.50173134 16.1877432,10.9774328 14.3293378,10.9774328 L12.7351351,10.9774328 C12.3618108,10.9774328 12.1291892,11.203 12.1291892,11.5617761 C12.1291892,11.9205522 12.3615541,12.1461194 12.7351351,12.1461194 L14.3293378,12.1461194 C16.8547973,12.1461194 18.9206622,10.1418955 18.9206622,7.69491045 C18.9206622,5.24843284 16.8550541,3.24420896 14.3293378,3.24420896 L14.3293378,3.24420896 Z" id="Shape"></path>
        </g>
    </g>
</svg>