<?xml version="1.0" encoding="UTF-8" standalone="no"?>
<svg width="18px" height="17px" viewBox="0 0 18 17" version="1.1" xmlns="http://www.w3.org/2000/svg" xmlns:xlink="http://www.w3.org/1999/xlink">
    <!-- Generator: Sketch 3.6.1 (26313) - http://www.bohemiancoding.com/sketch -->
    <title>Group</title>
    <desc>Created with Sketch.</desc>
    <defs></defs>
    <g id="Start-Extra---3" stroke="none" stroke-width="1" fill="none" fill-rule="evenodd">
        <g id="Group" transform="translate(1.000000, 1.000000)" stroke="#FFFFFF" fill="#FFFFFF">
            <path d="M7.91309524,0.155555556 C3.63071429,0.155555556 0.162916667,3.46666667 0.162916667,7.55555556 C0.162916667,8.77777778 0.46547619,9.93333333 1.02404762,10.9555556 L0.162916667,14.9777778 L4.35220238,14.1555556 C5.42279762,14.6888889 6.63303571,14.9777778 7.91309524,14.9777778 C12.1954762,14.9777778 15.6632738,11.6666667 15.6632738,7.57777778 C15.6632738,3.44444444 12.1954762,0.155555556 7.91309524,0.155555556 L7.91309524,0.155555556 Z M7.91309524,14.4888889 C6.74940476,14.4888889 5.6322619,14.2222222 4.60821429,13.7111111 L4.44529762,13.6222222 L4.28238095,13.6444444 L0.837857143,14.3111111 L1.53607143,11.0444444 L1.55934524,10.8888889 L1.46625,10.7333333 C0.930952381,9.73333333 0.651666667,8.66666667 0.651666667,7.55555556 C0.651666667,3.73333333 3.88672619,0.644444444 7.88982143,0.644444444 C11.8929167,0.622222222 15.1279762,3.73333333 15.1279762,7.55555556 C15.15125,11.3777778 11.9161905,14.4888889 7.91309524,14.4888889 L7.91309524,14.4888889 Z" id="Shape" stroke-linecap="round" stroke-linejoin="round"></path>
            <path d="M7.55671247,11.1044456 C7.41505953,11.1044456 7.34423307,11.2089158 7.34423307,11.3133861 L7.34423307,11.8357373 C7.34423307,11.9750309 7.45047277,12.0446777 7.55671247,12.0446777 L8.08791096,12.0446777 C8.22956389,12.0446777 8.30039035,11.9402075 8.30039035,11.8357373 L8.30039035,11.3133861 C8.33580359,11.2089158 8.22956389,11.1044456 8.08791096,11.1044456 L7.55671247,11.1044456 Z" id="Shape"></path>
            <path d="M9.50444027,4.15717461 C9.07948148,3.77411707 8.51286975,3.6 7.84001833,3.6 C7.1671669,3.6 6.63596841,3.77411707 6.24642285,4.1223512 C5.89229052,4.43576192 5.67981113,4.85364288 5.57357143,5.41081749 C5.57357143,5.48046432 5.57357143,5.55011115 5.60898466,5.58493456 C5.64439789,5.61975797 5.71522436,5.65458139 5.75063759,5.6894048 L6.21100962,5.75905163 C6.31724932,5.75905163 6.42348902,5.6894048 6.45890225,5.58493456 C6.52972871,5.20187701 6.70679488,4.88846629 6.91927427,4.71434923 C7.1671669,4.47058533 7.485886,4.36611509 7.87543156,4.36611509 C8.26497712,4.36611509 8.58369622,4.50540875 8.86700208,4.74917264 C9.15030794,4.99293653 9.25654764,5.30634725 9.25654764,5.65458139 C9.25654764,5.82869845 9.22113441,6.00281552 9.11489471,6.17693259 C9.00865501,6.35104965 8.83158885,6.55999013 8.51286975,6.80375403 C8.19415066,7.08234133 7.98167126,7.2564584 7.87543156,7.39575205 C7.73377863,7.56986912 7.5921257,7.7788096 7.52129923,7.95292667 C7.41505953,8.19669056 7.3796463,8.51010128 7.3796463,8.89315883 C7.3796463,9.03245248 7.485886,9.10209931 7.5921257,9.10209931 L7.98167126,9.10209931 C8.08791096,9.10209931 8.19415066,8.99762907 8.19415066,8.89315883 C8.19415066,8.64939493 8.22956389,8.47527787 8.26497712,8.37080763 C8.30039035,8.23151397 8.37121682,8.09222032 8.47745652,7.95292667 C8.54828298,7.84845643 8.76076238,7.63951595 9.04406824,7.39575205 C9.46902704,7.01269451 9.7523329,6.69928379 9.89398583,6.45551989 C10.0356388,6.211756 10.1064652,5.89834528 10.1064652,5.58493456 C10.1418785,4.99293653 9.92939906,4.54023216 9.50444027,4.15717461 L9.50444027,4.15717461 Z" id="Shape"></path>
        </g>
    </g>
</svg>