<?xml version="1.0" encoding="UTF-8" standalone="no"?>
<svg width="110px" height="80px" viewBox="0 0 110 80" version="1.1" xmlns="http://www.w3.org/2000/svg" xmlns:xlink="http://www.w3.org/1999/xlink" xmlns:sketch="http://www.bohemiancoding.com/sketch/ns">
    <g id="Page-1" stroke="none" stroke-width="1" fill-rule="evenodd" fill="#fff" sketch:type="MSPage">
        <g id="social_icons" sketch:type="MSLayerGroup" transform="translate(-473.000000, -17.000000)">
            <path d="M580.352,33.449 C580.777,40.914 578.9,48.6 579.036,56.416 C579.218,66.837 580.5,77.137 582.192,87.398 C582.456,88.992 582.719,90.586 582.922,92.185 C583.253,94.784 582.009,96.336 579.401,96.242 C576.601,96.139 573.813,95.73 571.016,95.481 C562.849,94.752 554.758,96.169 546.627,96.354 C542.292,96.453 537.929,96.136 533.607,95.701 C525.582,94.893 517.596,95.729 509.629,96.26 C503.304,96.681 496.995,96.541 490.68,96.685 C486.678,96.775 482.671,96.773 478.667,96.77 C475.011,96.768 473.333,95.166 473.455,91.466 C473.725,83.465 474.101,75.469 474.506,67.475 C474.846,60.792 474.17,54.136 474.151,47.463 C474.13,39.171 474.204,30.884 474.491,22.597 C474.606,19.277 477.379,17.075 480.598,17.704 C483.363,18.246 486.18,18.31 488.991,18.346 C495.314,18.425 501.675,18.054 507.951,18.621 C520.138,19.722 532.394,19.232 544.543,20.416 C552.594,21.202 560.357,20.622 568.093,18.522 C571.118,17.701 574.219,17.679 577.305,17.938 C579.382,18.112 580.225,19.515 580.448,21.526 C580.875,25.389 580.861,29.236 580.352,33.449 L580.352,33.449 Z M573.033,88.93 C568.266,85.675 565.132,81.234 560.948,77.919 C556.274,74.216 551.396,70.77 546.991,66.733 C544.818,64.741 542.637,62.756 540.472,60.753 C539.789,60.121 539.259,59.731 538.42,60.688 C536.34,63.06 534.112,65.303 532.009,67.654 C529.231,70.76 527.895,70.942 524.894,68.085 C522.709,66.008 520.733,63.715 518.689,61.495 C517.823,60.556 517.168,60.394 515.877,61.146 C510.859,64.065 506.99,68.235 503.19,72.45 C497.971,78.243 492.651,83.907 486.532,88.773 C486.078,89.133 485.427,89.416 485.405,90.432 C492.57,90.252 499.699,90.583 506.829,90.121 C515.787,89.541 524.735,88.69 533.736,89.378 C538,89.703 542.277,90.025 546.548,90.031 C552.933,90.042 559.26,88.802 565.662,88.921 C567.959,88.964 570.255,88.93 573.033,88.93 L573.033,88.93 Z M487.465,24.846 C492.424,29.817 497.486,34.585 503.037,38.719 C509.317,43.395 515.067,48.585 520.377,54.308 C522.619,56.726 524.912,59.097 527.148,61.522 C527.804,62.235 528.272,62.379 528.996,61.562 C530.81,59.515 532.738,57.568 534.564,55.532 C542.92,46.212 551.85,37.498 561.661,29.705 C563.005,28.637 564.408,27.606 565.402,26.088 C564.627,25.763 564.024,26.03 563.417,26.121 C558.272,26.893 553.096,27.781 547.904,27.089 C539.864,26.017 531.79,26.241 523.724,25.967 C520.355,25.852 516.974,25.756 513.63,25.371 C504.951,24.375 496.25,24.967 487.465,24.846 L487.465,24.846 Z M479.736,85.966 C486.014,81.85 490.573,76.756 495.259,71.882 C500.556,66.372 505.186,60.2 511.95,56.279 C512.795,55.789 512.821,55.342 512.101,54.699 C508.801,51.755 505.753,48.465 502.182,45.904 C496.738,41.999 491.847,37.49 486.82,33.115 C484.912,31.454 483.095,29.66 480.701,28.173 C479.796,47.477 482.061,66.52 479.736,85.966 L479.736,85.966 Z M574.592,26.619 C573.333,27.648 572.576,28.164 571.941,28.801 C566.731,34.027 560.719,38.339 555.348,43.377 C551.716,46.784 548.189,50.304 544.627,53.787 C544.023,54.378 543.45,54.866 544.449,55.806 C548.489,59.604 552.577,63.326 556.924,66.788 C561.684,70.58 566.82,73.945 570.854,78.628 C571.886,79.825 572.999,81.114 575.219,82.186 C571.145,63.56 573.434,45.376 574.592,26.619 L574.592,26.619 Z" id="Shape" sketch:type="MSShapeGroup"></path>
        </g>
    </g>
</svg>
