<?xml version="1.0" encoding="UTF-8" standalone="no"?>
<svg width="104px" height="84px" viewBox="0 0 104 84" version="1.1" xmlns="http://www.w3.org/2000/svg" xmlns:xlink="http://www.w3.org/1999/xlink" xmlns:sketch="http://www.bohemiancoding.com/sketch/ns">
    <g id="Page-1" stroke="none" stroke-width="1" fill-rule="evenodd" fill="#fff" sketch:type="MSPage">
        <g id="social_icons" sketch:type="MSLayerGroup" transform="translate(-305.000000, -19.000000)">
            <path d="M315.269,49.684 C312.693,45.201 311.581,40.814 310.433,36.447 C309.41,32.558 308.796,28.616 309.742,24.598 C310.221,22.559 311.334,21.062 313.498,20.736 C315.563,20.426 316.713,21.764 317.668,23.357 C320.908,28.759 325.533,33.002 329.74,37.58 C331.371,39.354 333.728,40.331 336.012,40.983 C340.917,42.384 345.939,43.31 351,44.011 C352.254,44.185 352.292,43.426 352.372,42.61 C353.251,33.556 358.255,27.168 365.421,22.071 C369.964,18.841 374.983,18.588 380.12,19.517 C384.072,20.233 388.31,20.494 391.303,23.817 C392.064,24.664 392.575,23.967 393.101,23.527 C395.075,21.871 397.18,20.442 399.633,19.578 C401.556,18.9 403.343,18.996 404.508,20.861 C405.753,22.854 404.954,24.506 403.312,25.909 C401.826,27.178 400.374,28.485 398.908,29.776 C399.099,29.998 399.291,30.22 399.481,30.442 C400.894,29.961 402.31,29.484 403.722,28.997 C405.326,28.443 406.751,28.719 407.838,30.045 C409.005,31.468 408.882,33.032 407.95,34.507 C407.488,35.237 406.876,35.912 406.21,36.466 C404.982,37.487 403.702,38.455 402.376,39.342 C399.898,41 398.415,42.954 398.017,46.208 C397.451,50.852 396.22,55.437 394.203,59.771 C392.585,63.244 391.244,66.849 389.878,70.433 C388.225,74.767 385.692,78.523 382.457,81.79 C380.041,84.231 377.969,86.962 375.539,89.41 C367.616,97.393 357.785,100.328 346.973,101.712 C338.341,102.816 329.903,101.961 321.406,101.048 C318.032,100.685 314.949,99.23 311.844,97.977 C310.173,97.303 309.173,95.866 309.46,93.953 C309.749,92.032 311.1,91.13 312.94,90.848 C315.095,90.518 317.253,90.666 319.405,90.827 C324.669,91.221 328.992,88.77 333.28,86.258 C334.635,85.464 334.968,84.723 333.016,84.022 C328.541,82.414 324.646,79.706 320.704,77.117 C319.29,76.188 318.188,74.901 317.161,73.561 C316.611,72.842 315.901,71.792 316.292,71.176 C318.362,67.905 315.303,66.816 313.887,65.018 C312.007,62.631 310.093,60.27 308.27,57.839 C306.713,55.765 305.73,53.404 305.218,50.86 C304.843,48.999 305.518,47.529 307.093,46.547 C308.74,45.52 310.312,45.867 311.709,47.121 C312.632,47.948 313.432,48.94 315.269,49.684 L315.269,49.684 Z" id="Shape" sketch:type="MSShapeGroup"></path>
        </g>
    </g>
</svg>
