<?xml version="1.0" encoding="UTF-8" standalone="no"?>
<svg width="113px" height="81px" viewBox="0 0 113 81" version="1.1" xmlns="http://www.w3.org/2000/svg" xmlns:xlink="http://www.w3.org/1999/xlink" xmlns:sketch="http://www.bohemiancoding.com/sketch/ns">
    <g id="Page-1" stroke="none" stroke-width="1" fill-rule="evenodd" fill="#fff" sketch:type="MSPage">
        <g id="social_icons" sketch:type="MSLayerGroup" transform="translate(-131.000000, -20.000000)">
            <path d="M131.16,58.887 C131.561,52.058 130.292,45.127 131.94,38.368 C132.927,34.322 133.994,30.193 136.345,26.723 C139.521,22.037 144.552,20.931 149.827,21.034 C156.186,21.158 162.542,21.795 168.895,21.754 C175.028,21.715 181.194,21.859 187.294,21.375 C196.581,20.637 205.866,21.542 215.142,20.894 C219.428,20.595 223.72,21.217 228.039,21.086 C234.314,20.896 238.016,23.97 239.882,30.008 C241.713,35.926 242.802,41.979 242.803,48.175 C242.803,55.046 243.863,61.867 243.762,68.729 C243.648,76.615 242.521,84.302 239.58,91.763 C237.305,97.537 233.11,99.876 227.417,100.367 C225.596,100.525 223.709,100.517 221.91,100.225 C216.051,99.278 210.188,99.596 204.337,100.047 C196.836,100.626 189.337,100.289 181.844,100.144 C170.599,99.928 159.36,99.455 148.12,99.042 C142.41,98.833 138.162,96.187 135.476,91.114 C132.669,85.818 131.455,80.079 131.203,74.17 C130.987,69.084 131.16,63.983 131.16,58.887 L131.16,58.887 Z M176.724,67.741 C176.724,71.135 176.736,74.528 176.719,77.921 C176.713,79.155 177.106,79.657 178.327,78.96 C181.146,77.353 184.029,75.845 186.781,74.129 C192.84,70.348 198.06,65.432 203.873,61.316 C204.767,60.683 204.8,60.18 203.84,59.61 C202.686,58.925 201.487,58.293 200.419,57.488 C193.389,52.192 185.686,48.047 177.801,44.212 C177.196,43.918 176.511,43.22 175.884,43.695 C175.405,44.057 175.725,44.897 175.769,45.525 C176.284,52.922 176.969,60.312 176.724,67.741 L176.724,67.741 Z" id="Shape" sketch:type="MSShapeGroup"></path>
        </g>
    </g>
</svg>
