<svg width="25" height="22" viewBox="0 0 25 22" fill="none" xmlns="http://www.w3.org/2000/svg">
<path d="M21.3311 8.94447C18.947 11.058 16.5968 13.2054 14.2127 15.3189C13.8182 10.9227 13.6378 6.52095 13.6717 2.11353C13.6717 1.55299 13.449 1.0154 13.0526 0.619039C12.6563 0.222675 12.1187 0 11.5581 0C10.9976 0 10.46 0.222675 10.0636 0.619039C9.66726 1.0154 9.44459 1.55299 9.44459 2.11353C9.44459 6.40823 9.61367 10.6973 9.95184 14.9807C7.77067 13.1208 5.62332 11.1595 3.61124 9.07974C1.59915 7.00002 -1.27525 10.1111 0.618475 12.0556C3.82496 15.3782 7.24792 18.4848 10.8649 21.3551C11.129 21.56 11.435 21.7043 11.761 21.7778C12.1152 21.9096 12.4991 21.9399 12.8696 21.8652C13.24 21.7905 13.5822 21.6138 13.8576 21.3551C17.3577 18.2271 20.8239 15.0484 24.3239 11.9372C26.3529 10.1111 23.3601 7.13529 21.3311 8.94447Z" fill="#1D1D1B"/>
</svg>
