<svg width="140" height="194" viewBox="0 0 140 194" fill="none" xmlns="http://www.w3.org/2000/svg">
<path d="M138.905 1.88906C138.844 1.0629 138.124 0.442836 137.298 0.504108C136.472 0.56538 135.852 1.28478 135.913 2.11094L138.905 1.88906ZM0.85392 184.051C0.392299 184.739 0.575749 185.671 1.26366 186.132L12.4736 193.655C13.1615 194.116 14.0934 193.933 14.555 193.245C15.0166 192.557 14.8332 191.625 14.1453 191.163L4.18084 184.477L10.8674 174.512C11.329 173.825 11.1456 172.893 10.4577 172.431C9.7698 171.97 8.83793 172.153 8.37631 172.841L0.85392 184.051ZM136.042 4.0293C136.091 4.85624 136.802 5.48641 137.629 5.43683C138.456 5.38724 139.086 4.67668 139.036 3.84974L136.042 4.0293ZM139.248 17.8799C139.27 17.0517 138.616 16.3627 137.788 16.3408C136.96 16.319 136.271 16.9727 136.249 17.8008L139.248 17.8799ZM136.104 21.7016C136.064 22.5291 136.703 23.2321 137.53 23.2717C138.358 23.3114 139.061 22.6727 139.1 21.8452L136.104 21.7016ZM137.926 35.791C138.025 34.9685 137.438 34.2218 136.615 34.1233C135.793 34.0247 135.046 34.6117 134.948 35.4342L137.926 35.791ZM134.444 39.3164C134.329 40.1369 134.902 40.8949 135.722 41.0094C136.542 41.124 137.3 40.5518 137.415 39.7313L134.444 39.3164ZM135.012 53.4972C135.182 52.6865 134.663 51.8913 133.852 51.7211C133.041 51.551 132.246 52.0703 132.076 52.8811L135.012 53.4972ZM131.229 56.7292C131.043 57.5364 131.547 58.3416 132.354 58.5276C133.161 58.7136 133.966 58.2099 134.152 57.4026L131.229 56.7292ZM130.546 70.9043C130.788 70.1119 130.341 69.2737 129.549 69.032C128.756 68.7904 127.918 69.2369 127.676 70.0293L130.546 70.9043ZM126.493 73.7741C126.235 74.5614 126.664 75.4086 127.452 75.6663C128.239 75.924 129.086 75.4946 129.344 74.7073L126.493 73.7741ZM124.516 87.8236C124.83 87.0573 124.464 86.1809 123.698 85.8661C122.932 85.5513 122.055 85.9173 121.741 86.6836L124.516 87.8236ZM120.205 90.3104C119.873 91.0697 120.22 91.9539 120.979 92.2852C121.739 92.6166 122.623 92.2697 122.954 91.5104L120.205 90.3104ZM116.865 104.1C117.255 103.369 116.979 102.46 116.248 102.07C115.517 101.68 114.608 101.957 114.218 102.688L116.865 104.1ZM112.333 106.125C111.926 106.846 112.181 107.761 112.902 108.168C113.624 108.575 114.539 108.32 114.946 107.598L112.333 106.125ZM107.568 119.492C108.034 118.807 107.857 117.874 107.172 117.408C106.487 116.942 105.554 117.119 105.088 117.804L107.568 119.492ZM102.841 121.018C102.358 121.691 102.512 122.628 103.185 123.112C103.858 123.595 104.795 123.441 105.278 122.767L102.841 121.018ZM96.6219 133.766C97.1629 133.139 97.0928 132.192 96.4655 131.651C95.8381 131.11 94.8909 131.18 94.3499 131.807L96.6219 133.766ZM91.7444 134.75C91.1873 135.363 91.2326 136.312 91.8457 136.869C92.4588 137.426 93.4074 137.381 93.9646 136.768L91.7444 134.75ZM84.0888 146.68C84.7 146.121 84.7421 145.172 84.1828 144.561C83.6236 143.949 82.6748 143.907 82.0636 144.466L84.0888 146.68ZM79.121 147.088C78.4952 147.631 78.4278 148.578 78.9706 149.204C79.5133 149.83 80.4607 149.897 81.0866 149.354L79.121 147.088ZM70.1115 158.016C70.7848 157.533 70.9393 156.596 70.4566 155.923C69.9739 155.25 69.0368 155.095 68.3635 155.578L70.1115 158.016ZM65.1272 157.834C64.4414 158.299 64.2623 159.232 64.7271 159.918C65.1919 160.603 66.1246 160.783 66.8104 160.318L65.1272 157.834ZM54.9031 167.627C55.6278 167.225 55.8898 166.313 55.4883 165.588C55.0868 164.863 54.1739 164.601 53.4493 165.003L54.9031 167.627ZM49.9678 166.874C49.2333 167.257 48.9483 168.163 49.3314 168.898C49.7145 169.632 50.6205 169.917 51.355 169.534L49.9678 166.874ZM38.7138 175.455C39.4781 175.135 39.8385 174.257 39.5188 173.492C39.1991 172.728 38.3204 172.368 37.5562 172.687L38.7138 175.455ZM33.9026 174.166C33.1311 174.467 32.7503 175.338 33.052 176.109C33.3538 176.881 34.2238 177.261 34.9954 176.96L33.9026 174.166ZM21.7836 181.536C22.5763 181.295 23.0235 180.458 22.7826 179.665C22.5416 178.872 21.7038 178.425 20.9112 178.666L21.7836 181.536ZM17.1589 179.763C16.3614 179.988 15.8967 180.816 16.1209 181.613C16.3451 182.411 17.1734 182.876 17.9709 182.651L17.1589 179.763ZM4.37745 185.957C5.18871 185.789 5.71028 184.995 5.54243 184.184C5.3746 183.373 4.58087 182.851 3.76964 183.019L4.37745 185.957ZM135.913 2.11094C135.96 2.74158 136.003 3.38112 136.042 4.0293L139.036 3.84974C138.997 3.18764 138.953 2.53398 138.905 1.88906L135.913 2.11094ZM136.249 17.8008C136.215 19.0817 136.167 20.3825 136.104 21.7016L139.1 21.8452C139.165 20.5046 139.214 19.1824 139.248 17.8799L136.249 17.8008ZM134.948 35.4342C134.794 36.7174 134.626 38.0118 134.444 39.3164L137.415 39.7313C137.6 38.4073 137.77 37.0936 137.926 35.791L134.948 35.4342ZM132.076 52.8811C131.808 54.1581 131.526 55.4411 131.229 56.7292L134.152 57.4026C134.454 56.0953 134.74 54.7932 135.012 53.4972L132.076 52.8811ZM127.676 70.0293C127.296 71.2757 126.902 72.5242 126.493 73.7741L129.344 74.7073C129.759 73.4379 130.16 72.17 130.546 70.9043L127.676 70.0293ZM121.741 86.6836C121.243 87.8937 120.732 89.1029 120.205 90.3104L122.954 91.5104C123.49 90.2827 124.01 89.0535 124.516 87.8236L121.741 86.6836ZM114.218 102.688C113.605 103.837 112.976 104.983 112.333 106.125L114.946 107.598C115.601 106.436 116.241 105.27 116.865 104.1L114.218 102.688ZM105.088 117.804C104.354 118.881 103.606 119.953 102.841 121.018L105.278 122.767C106.057 121.682 106.82 120.59 107.568 119.492L105.088 117.804ZM94.3499 131.807C93.4972 132.796 92.6288 133.777 91.7444 134.75L93.9646 136.768C94.8666 135.775 95.7523 134.775 96.6219 133.766L94.3499 131.807ZM82.0636 144.466C81.0986 145.35 80.1178 146.223 79.121 147.088L81.0866 149.354C82.1035 148.472 83.1042 147.581 84.0888 146.68L82.0636 144.466ZM68.3635 155.578C67.3002 156.34 66.2215 157.093 65.1272 157.834L66.8104 160.318C67.9265 159.561 69.0269 158.794 70.1115 158.016L68.3635 155.578ZM53.4493 165.003C52.3037 165.637 51.1432 166.261 49.9678 166.874L51.355 169.534C52.5528 168.91 53.7354 168.274 54.9031 167.627L53.4493 165.003ZM37.5562 172.687C36.3522 173.191 35.1344 173.684 33.9026 174.166L34.9954 176.96C36.2488 176.469 37.4882 175.968 38.7138 175.455L37.5562 172.687ZM20.9112 178.666C19.673 179.042 18.4223 179.408 17.1589 179.763L17.9709 182.651C19.2544 182.291 20.5253 181.919 21.7836 181.536L20.9112 178.666ZM3.76964 183.019C3.11937 183.154 2.46608 183.286 1.80974 183.415L2.38919 186.358C3.05498 186.227 3.71772 186.094 4.37745 185.957L3.76964 183.019Z" fill="black"/>
</svg>
