<svg width="159" height="180" viewBox="0 0 159 180" fill="none" xmlns="http://www.w3.org/2000/svg">
<path d="M156.486 0.751058C157.303 0.610301 158.079 1.158 158.219 1.97439C158.36 2.79077 157.812 3.56668 156.996 3.70744L156.486 0.751058ZM13.208 178.831C12.6524 179.445 11.7039 179.493 11.0894 178.938L1.07466 169.885C0.460104 169.329 0.41226 168.38 0.967792 167.766C1.52333 167.151 2.47187 167.104 3.08643 167.659L11.9884 175.706L20.0354 166.804C20.591 166.19 21.5395 166.142 22.1541 166.697C22.7686 167.253 22.8165 168.201 22.2609 168.816L13.208 178.831ZM155.104 4.04762C154.289 4.19991 153.506 3.66323 153.354 2.84892C153.201 2.03461 153.738 1.25103 154.552 1.09874L155.104 4.04762ZM140.889 4.2935C141.687 4.07164 142.514 4.53883 142.736 5.33699C142.958 6.13516 142.491 6.96205 141.693 7.18392L140.889 4.2935ZM137.943 8.27001C137.15 8.50899 136.313 8.05971 136.074 7.26651C135.835 6.4733 136.284 5.63654 137.078 5.39755L137.943 8.27001ZM123.832 9.9162C124.606 9.62127 125.473 10.0098 125.768 10.7839C126.063 11.5581 125.674 12.4247 124.9 12.7196L123.832 9.9162ZM121.256 14.149C120.487 14.459 119.613 14.0876 119.303 13.3193C118.993 12.5511 119.365 11.677 120.133 11.367L121.256 14.149ZM107.36 17.0344C108.105 16.6728 109.003 16.984 109.364 17.7294C109.726 18.4747 109.415 19.3721 108.669 19.7336L107.36 17.0344ZM105.141 21.4878C104.403 21.8638 103.5 21.5703 103.124 20.8322C102.747 20.094 103.041 19.1908 103.779 18.8147L105.141 21.4878ZM91.5538 25.5854C92.2641 25.159 93.1855 25.389 93.612 26.0993C94.0384 26.8095 93.8084 27.731 93.0982 28.1574L91.5538 25.5854ZM89.7517 30.2132C89.0503 30.654 88.1244 30.4428 87.6836 29.7414C87.2428 29.0399 87.454 28.114 88.1555 27.6732L89.7517 30.2132ZM76.6002 35.5362C77.2674 35.0451 78.2064 35.1878 78.6975 35.855C79.1886 36.5222 79.0458 37.4612 78.3786 37.9522L76.6002 35.5362ZM75.2321 40.3214C74.5758 40.8268 73.634 40.7045 73.1285 40.0482C72.623 39.3919 72.7453 38.45 73.4016 37.9445L75.2321 40.3214ZM62.663 46.9029C63.2775 46.3474 64.2261 46.3953 64.7816 47.0099C65.3371 47.6245 65.2892 48.573 64.6746 49.1285L62.663 46.9029ZM61.7969 51.7909C61.1954 52.3605 60.246 52.3347 59.6764 51.7332C59.1068 51.1317 59.1326 50.1823 59.7341 49.6126L61.7969 51.7909ZM49.9824 59.6531C50.5338 59.0349 51.482 58.9807 52.1003 59.5321C52.7185 60.0835 52.7727 61.0317 52.2213 61.65L49.9824 59.6531ZM49.6473 64.6088C49.1114 65.2405 48.1648 65.3182 47.5331 64.7823C46.9013 64.2464 46.8237 63.2998 47.3596 62.6681L49.6473 64.6088ZM38.7864 73.7317C39.264 73.0548 40.1999 72.8932 40.8768 73.3708C41.5537 73.8484 41.7153 74.7843 41.2378 75.4612L38.7864 73.7317ZM39.0136 78.7023C38.5538 79.3914 37.6225 79.5773 36.9333 79.1175C36.2442 78.6577 36.0583 77.7263 36.5181 77.0372L39.0136 78.7023ZM29.2949 89.0205C29.6894 88.2921 30.5997 88.0213 31.3282 88.4158C32.0567 88.8102 32.3274 89.7206 31.933 90.449L29.2949 89.0205ZM30.1028 93.9392C29.7278 94.6779 28.825 94.9728 28.0863 94.5979C27.3476 94.223 27.0527 93.3202 27.4276 92.5814L30.1028 93.9392ZM21.6834 105.328C21.9886 104.558 22.8603 104.181 23.6305 104.486C24.4007 104.792 24.7776 105.663 24.4725 106.433L21.6834 105.328ZM23.0677 110.12C22.7829 110.898 21.9214 111.298 21.1435 111.013C20.3655 110.728 19.9657 109.867 20.2505 109.089L23.0677 110.12ZM16.0447 122.412C16.2586 121.612 17.0808 121.137 17.8811 121.351C18.6815 121.564 19.1569 122.387 18.943 123.187L16.0447 122.412ZM17.9708 127.018C17.7772 127.824 16.9672 128.32 16.1617 128.126C15.3563 127.932 14.8603 127.122 15.0539 126.317L17.9708 127.018ZM12.3729 140.016C12.4979 139.197 13.263 138.635 14.082 138.76C14.9009 138.885 15.4635 139.65 15.3386 140.469L12.3729 140.016ZM14.7898 144.372C14.684 145.193 13.9322 145.774 13.1105 145.668C12.2889 145.562 11.7086 144.81 11.8144 143.988L14.7898 144.372ZM10.5757 157.915C10.6174 157.088 11.3219 156.451 12.1492 156.493C12.9766 156.534 13.6136 157.239 13.5719 158.066L10.5757 157.915ZM13.4164 161.973C13.3921 162.801 12.7011 163.452 11.8731 163.428C11.045 163.404 10.3934 162.713 10.4177 161.885L13.4164 161.973ZM10.5047 175.874C10.471 175.046 11.1146 174.348 11.9424 174.314C12.7701 174.28 13.4685 174.924 13.5022 175.752L10.5047 175.874ZM156.996 3.70744C156.373 3.81488 155.742 3.92825 155.104 4.04762L154.552 1.09874C155.204 0.976813 155.849 0.860938 156.486 0.751058L156.996 3.70744ZM141.693 7.18392C140.458 7.52709 139.208 7.88901 137.943 8.27001L137.078 5.39755C138.363 5.01037 139.634 4.64246 140.889 4.2935L141.693 7.18392ZM124.9 12.7196C123.692 13.1798 122.477 13.6561 121.256 14.149L120.133 11.367C121.373 10.8668 122.606 10.3832 123.832 9.9162L124.9 12.7196ZM108.669 19.7336C107.495 20.3031 106.319 20.8877 105.141 21.4878L103.779 18.8147C104.975 18.2057 106.168 17.6123 107.36 17.0344L108.669 19.7336ZM93.0982 28.1574C91.981 28.8282 90.8653 29.5134 89.7517 30.2132L88.1555 27.6732C89.2864 26.9625 90.4194 26.2666 91.5538 25.5854L93.0982 28.1574ZM78.3786 37.9522C77.3251 38.7278 76.276 39.5174 75.2321 40.3214L73.4016 37.9445C74.4629 37.1272 75.5293 36.3245 76.6002 35.5362L78.3786 37.9522ZM64.6746 49.1285C63.7081 50.0021 62.7487 50.8895 61.7969 51.7909L59.7341 49.6126C60.7029 48.6951 61.6794 47.792 62.663 46.9029L64.6746 49.1285ZM52.2213 61.65C51.3538 62.6226 50.4956 63.6088 49.6473 64.6088L47.3596 62.6681C48.2241 61.649 49.0986 60.6441 49.9824 59.6531L52.2213 61.65ZM41.2378 75.4612C40.485 76.5281 39.7435 77.6084 39.0136 78.7023L36.5181 77.0372C37.2625 75.9215 38.0188 74.8197 38.7864 73.7317L41.2378 75.4612ZM31.933 90.449C31.3101 91.5993 30.6999 92.7626 30.1028 93.9392L27.4276 92.5814C28.0368 91.381 28.6594 90.1941 29.2949 89.0205L31.933 90.449ZM24.4725 106.433C23.9905 107.65 23.5221 108.879 23.0677 110.12L20.2505 109.089C20.714 107.823 21.1918 106.569 21.6834 105.328L24.4725 106.433ZM18.943 123.187C18.6048 124.452 18.2807 125.729 17.9708 127.018L15.0539 126.317C15.3696 125.004 15.7 123.702 16.0447 122.412L18.943 123.187ZM15.3386 140.469C15.1417 141.759 14.9587 143.06 14.7898 144.372L11.8144 143.988C11.9863 142.654 12.1725 141.329 12.3729 140.016L15.3386 140.469ZM13.5719 158.066C13.5068 159.359 13.4549 160.661 13.4164 161.973L10.4177 161.885C10.4568 160.552 10.5095 159.229 10.5757 157.915L13.5719 158.066ZM13.5022 175.752C13.5293 176.415 13.5596 177.081 13.5933 177.749L10.5971 177.9C10.563 177.223 10.5322 176.547 10.5047 175.874L13.5022 175.752Z" fill="black"/>
</svg>
