<svg width="22" height="25" viewBox="0 0 22 25" fill="none" xmlns="http://www.w3.org/2000/svg">
<path d="M8.94447 3.6689C11.058 6.05297 13.2054 8.40322 15.3189 10.7873C10.9227 11.1818 6.52095 11.3622 2.11353 11.3283C1.55299 11.3283 1.0154 11.551 0.619039 11.9474C0.222675 12.3437 -5.29724e-07 12.8813 -5.05222e-07 13.4419C-4.80719e-07 14.0024 0.222675 14.54 0.619039 14.9364C1.0154 15.3327 1.55299 15.5554 2.11353 15.5554C6.40823 15.5554 10.6973 15.3863 14.9807 15.0482C13.1208 17.2293 11.1595 19.3767 9.07974 21.3888C7.00002 23.4008 10.1111 26.2753 12.0556 24.3815C15.3782 21.175 18.4848 17.7521 21.3551 14.1351C21.56 13.871 21.7043 13.565 21.7778 13.239C21.9096 12.8848 21.9399 12.5009 21.8652 12.1304C21.7905 11.76 21.6138 11.4178 21.3551 11.1424C18.2271 7.64234 15.0484 4.17615 11.9372 0.676139C10.1111 -1.35285 7.13529 1.63991 8.94447 3.6689Z" fill="#1D1D1B"/>
</svg>
