<svg width="22" height="26" viewBox="0 0 22 26" fill="none" xmlns="http://www.w3.org/2000/svg">
<path d="M13.0555 4.35323C10.942 6.73729 8.79465 9.08754 6.68111 11.4716C11.0773 11.8661 15.479 12.0465 19.8865 12.0127C20.447 12.0127 20.9846 12.2353 21.381 12.6317C21.7773 13.0281 22 13.5657 22 14.1262C22 14.6867 21.7773 15.2243 21.381 15.6207C20.9846 16.0171 20.447 16.2397 19.8865 16.2397C15.5918 16.2397 11.3027 16.0707 7.01928 15.7325C8.87919 17.9137 10.8405 20.061 12.9203 22.0731C15 24.0852 11.8889 26.9596 9.94441 25.0659C6.62182 21.8594 3.51518 18.4364 0.644863 14.8194C0.440046 14.5553 0.295745 14.2494 0.222156 13.9233C0.0903827 13.5691 0.0601341 13.1852 0.134818 12.8148C0.209503 12.4443 0.386152 12.1021 0.644863 11.8267C3.77289 8.32667 6.95165 4.86048 10.0628 1.36047C11.8889 -0.668527 14.8647 2.32424 13.0555 4.35323Z" fill="#1D1D1B"/>
</svg>
