<?xml version="1.0" encoding="UTF-8"?>
<svg width="260px" height="251px" viewBox="0 0 260 251" version="1.1" xmlns="http://www.w3.org/2000/svg" xmlns:xlink="http://www.w3.org/1999/xlink">
    <!-- Generator: Sketch 46.2 (44496) - http://www.bohemiancoding.com/sketch -->
    <title>Bazar - Top Sellers</title>
    <desc>Created with Sketch.</desc>
    <defs></defs>
    <g id="Page-1" stroke="none" stroke-width="1" fill="none" fill-rule="evenodd">
        <g id="Bazar---Top-Sellers" fill-rule="nonzero">
            <path d="M129,50.5 C119.1,50.9 109.3,53.8 100.2,57.7 C83.4,65 68,76.1 58,91.4 C48,106.7 44.1,126.4 49.8,143.7 C51.4,148.6 53.9,153.3 57.6,156.9 C64.1,163.1 73.6,164.7 82.6,165.5 C98.4,166.8 114.6,166.1 129.7,171.1 C152.3,178.6 170.1,198.2 193.6,201.7 C211.5,204.4 230.1,196.6 242.2,183.1 C254.3,169.6 259.9,151.1 259.3,133 C258.7,114.9 252,97.4 242.1,82.3 C238.5,76.9 234.5,71.6 229.4,67.6 C217.7,58.2 201.7,56.1 186.7,56.4" id="Shape" fill="#B7D6E2"></path>
            <g id="Group">
                <path d="M118,115.5 C118.1,114.4 118.1,113.4 118.2,112.4 C118.4,110.2 119.3,108.6 121.9,108.1 C123.7,107.8 125.4,107.5 127.2,107.2 C127.5,107.2 127.8,107.1 128.2,107.1 C127.6,105.8 127.1,104.6 126.6,103.3 C126.1,102.1 125.4,100.9 125.1,99.7 C124.7,98 124,96.3 123.3,94.7 C122.8,93.5 122.4,92.3 121.8,91.1 C121.1,89.5 120.3,87.9 119.5,86.3 C118.9,85.1 118.4,83.9 117.9,82.7 C117.2,80.9 116.4,79.1 115.7,77.3 C115.2,75.9 114.8,74.5 114.5,73.1 C114,71.4 113.4,69.9 112.7,68.3 C111.7,66.2 110.8,64.1 110.1,61.9 C108.7,58 107.5,54 106.2,50.1 C105.6,48.4 105,46.7 104.4,45 C103.4,41.9 102.4,38.8 101.6,35.7 C100.8,32.6 99.9,29.5 98.8,26.5 C98.1,24.5 97.3,22.6 96.6,20.6 C96.3,19.9 96,19.1 95.2,18.9 C94.7,18.8 94.5,18.3 94.6,17.8 C94.7,17.3 94.9,16.9 95.4,16.8 C97.5,16.3 99.1,14.7 101,13.8 C101.6,13.5 102.1,13.1 102.7,12.9 C106.4,11.4 109.8,9.4 113.2,7.3 C114.7,6.4 116.3,5.7 117.8,4.9 C118,4.8 118.3,4.7 118.6,4.8 C120.6,5 122.5,4.6 124.4,4.3 C128.9,3.5 133.4,3.2 138,2.9 C139.7,2.8 141.4,2.7 143.1,2.6 C143.4,2.6 143.6,2.5 143.9,2.6 C148.2,2.8 152.4,2.3 156.6,2.1 C158.2,2 159.7,1.8 161.3,1.6 C161.3,1.6 161.4,1.6 161.4,1.6 C166.1,1.4 170.8,0.6 175.5,0.3 C176.5,0.2 177.5,0.7 178.4,0.9 C179.1,1.1 179.7,1.4 180.4,1.6 C182.9,2.3 185.4,2.9 187.9,3.5 C192.1,4.5 196.3,5.3 200.5,6.4 C203,7 205.5,7.9 208,8.6 C208.4,8.7 208.8,8.7 209.2,8.8 C210.1,9 210.5,9.8 210.3,10.7 C210.1,11.5 210,12.3 209.9,13.1 C209.6,16.1 209.5,19.1 209.2,22 C208.7,27 208.2,32 207.7,36.9 C207.3,40.8 206.7,44.7 206.2,48.5 C205.5,53.3 204.8,58 204.5,62.8 C204.3,65.9 204.1,69 203.8,72.1 C203.7,72.9 203.4,73.7 203.2,74.6 C203.1,75 203,75.4 203,75.8 C203,77.1 203.1,78.4 203.4,79.8 C203.7,79.4 204,79 204.2,78.5 C204.9,77 205.5,75.4 206.2,73.9 C206.3,73.7 206.4,73.5 206.5,73.3 C206.9,72.6 207.5,72.4 208.3,72.7 C208.7,72.8 209.1,73 209.4,73.2 C210.9,73.9 212.4,74.4 213.7,75.2 C214.7,75.8 215.7,76.6 216.6,77.4 C217.2,78 217.2,78.9 216.9,79.6 C216.5,80.8 216,81.9 215.6,83 C215.2,84.1 214.7,85.2 214.3,86.3 C214.5,86.4 214.6,86.5 214.7,86.6 C214.8,86.5 214.9,86.5 215,86.5 C216.4,84.3 218.3,82.6 220.3,80.9 C221.1,80.2 221.9,79.5 222.7,78.7 C223.7,77.7 224.5,77.6 225.6,78.6 C226.2,79.2 226.7,79.9 227.3,80.5 C227.5,80.7 227.8,81 228,81.2 C228.7,81.8 229.1,82.6 229.4,83.5 C229.7,84.4 229.4,85.2 228.8,85.9 C228.1,86.7 227.5,87.4 226.8,88.1 C226.5,88.4 226.2,88.6 225.9,88.8 C226,88.9 226,88.9 226.1,89 C227.1,88.6 228.1,88.2 229.1,87.8 C230.7,87.2 231.7,87.4 232.7,88.8 C233.7,90.1 234.6,91.5 235.6,92.8 C236.1,93.4 236.6,94 237.1,94.6 C238.3,95.9 238.1,96.8 236.7,97.8 C236.6,97.9 236.5,98 236.4,98.1 C237.1,98 237.8,97.9 238.5,97.8 C239.5,97.7 240.2,98 240.6,98.9 C241.6,100.9 242.8,102.8 243.2,105.1 C243.3,105.5 243.4,106 243.3,106.4 C243.3,107.1 242.8,107.6 242.2,107.9 C241,108.5 239.7,109.1 238.5,109.6 C239.2,109.9 240,110.1 240.7,110.4 C241.8,110.9 242.4,111.9 242.4,113.1 C242.4,114.6 242.4,116.1 242.4,117.6 C242.3,119 241.8,119.5 240.5,119.8 C240.1,119.9 239.8,120 239.3,120.1 C240.1,120.8 240.1,121.6 240,122.4 C239.8,124.1 239.5,125.7 239,127.3 C238.3,129.4 237.2,130.2 235,130.2 C234.4,130.2 233.8,130.3 233.2,130.3 C233.6,130.8 234,131.2 234.4,131.7 C235.1,132.6 235.1,133.5 234.3,134.2 C233,135.6 232.2,137.3 231.1,138.8 C230.7,139.3 230.3,139.9 229.8,140.3 C229.2,140.9 228.4,140.9 227.6,140.6 C226.8,140.3 225.9,140 224.8,139.6 C225.3,140.4 225.6,140.9 225.9,141.4 C226.1,141.8 226.3,142.2 226.5,142.6 C226.9,143.5 226.7,144.4 225.9,145 C225.3,145.5 224.6,146 223.9,146.4 C222.6,147.2 221.2,147.9 219.8,148.7 C219.9,149.2 219.9,149.7 220,150.3 C220.6,152.9 221.2,155.5 221.8,158.1 C222.7,161.8 223,165.6 223.1,169.3 C223.2,175.5 223.2,181.6 223.2,187.8 C223.2,189.7 223.1,191.6 223.1,193.5 C223.2,198.1 222.5,202.6 221.8,207.2 C221.2,210.7 220.7,214.3 220.1,217.8 C219.7,219.9 219,222 218.4,224.1 C218.2,224.9 218,225.8 217.8,226.6 C217.6,227.4 217.6,228.2 216.9,228.9 C216.6,229.2 216.6,229.7 216.5,230.1 C216.2,231.6 215.9,233.2 215.6,234.7 C215.6,234.9 215.5,235.1 215.5,235.4 C215,236.9 213.9,237.2 212.7,236.3 C210.8,234.7 209.2,232.7 207.7,230.7 C207.2,230 206.7,229.3 206.1,228.7 C205.2,227.7 205,226.6 205.4,225.2 C206.1,222.9 206.5,220.5 207,218.1 C208.9,209.2 210,200.2 210.8,191.2 C211.2,186.8 211.8,182.4 212,177.9 C212.3,172.2 212.4,166.6 211.7,160.9 C211.4,158.6 210.9,156.4 210.4,154.2 C210.2,153.3 210,152.5 209.8,151.5 C208.9,151.9 208,152.2 207.1,152.6 C205.5,153.2 204.7,153 203.9,151.6 C203.3,150.7 203,149.7 202.6,148.7 C202.5,148.4 202.3,148 202,147.7 C201.9,148.3 201.8,148.9 201.7,149.5 C201.6,150.1 201.5,150.7 201.4,151.3 C201.2,152.4 200.7,153.3 199.6,153.9 C201.6,158.3 202.5,162.9 202.7,167.7 C202.9,172.2 203.1,176.6 203.3,181.1 C203.7,188.3 204.1,195.5 204.4,202.8 C204.5,206.3 204.3,209.7 204.3,213.2 C204.2,218 204.4,222.8 205,227.6 C205.4,231.6 205.8,235.7 206.2,239.7 C206.4,241.5 206.7,243.3 207,245.1 C207.1,246.2 207.1,247.4 207.2,248.6 C207.2,248.9 207.1,249.3 207,249.6 C206.6,250.8 205.5,251.1 204.6,250.2 C204.4,250 204.2,249.7 204,249.4 C202,249.4 200.4,248.1 198.6,247.3 C197.6,246.8 196.7,246.3 195.7,245.9 C194.5,245.4 193.6,244.5 192.8,243.6 C191.4,242 191.1,240.2 191.3,238.1 C191.7,235.2 191.7,232.2 191.3,229.3 C191.1,227.8 190.9,227.3 190,226.4 C189.4,227.2 188.8,227.9 188.3,228.7 C187.8,229.5 187.3,230.3 186.4,230.6 C186.2,230.7 186.1,231 185.9,231.2 C185.3,231.9 184.7,231.9 184.1,231.3 C184,231.2 183.9,231.1 183.9,231.1 C182.2,228.7 180.2,226.4 179.7,223.3 C179.6,222.8 179.4,222.3 179.2,221.8 C177.6,218.4 177.3,214.8 177,211.1 C176.7,207 176.7,203 177,198.9 C177.3,194.7 177.8,190.6 179,186.5 C180.5,181.1 181.9,175.7 183.2,170.3 C184.2,165.9 184.8,161.5 185,157 C185,156.1 184.9,155.2 184.8,154.3 C184.7,153.4 184.5,152.5 184.4,151.5 C182.5,150.6 180.7,149.5 180.4,147 C180.1,147.2 179.9,147.4 179.8,147.5 C178.6,148.7 177.4,148.8 176.4,147.5 C175.4,146.3 174.7,144.9 174,143.6 C173.8,143.3 173.7,142.8 173.5,142.5 C172.8,141.1 172.7,139.7 173.4,138.2 C173.1,138.4 172.8,138.6 172.5,138.8 C172.2,139 171.9,139.2 171.6,139.5 C170.6,140.2 170.2,140.2 169.1,139.5 C168.8,139.3 168.3,139.2 167.8,139.2 C165.1,139.4 162.4,139.7 159.7,139.9 C156.7,140.1 153.7,140.3 150.7,140.5 C149.9,140.6 149.1,140.6 148.3,140.7 C148.2,141 148.2,141.3 148.1,141.6 C147.9,142.7 147.5,143.6 146.7,144.3 C145.7,145.1 145.3,146.2 145.5,147.5 C145.6,148.3 145.7,149.1 145.8,149.9 C145.9,150.5 145.9,151 146,151.6 C146.5,155.9 144.2,158.7 141,160.9 C138.6,162.5 136,163.3 133.2,163.7 C130.2,164.1 127.2,164.4 124.2,163.6 C119.3,162.4 115.4,159.8 112.3,155.8 C110.9,154 109.3,152.3 107.8,150.5 C106.9,149.4 105.5,149 104.2,148.8 C101.7,148.4 99.2,148.6 96.8,149.4 C95.6,149.8 94.5,150.7 93.3,151.3 C93.5,152.8 93.8,154.2 93.9,155.6 C94,157.2 94,158.8 94.1,160.4 C94.1,161 93.7,161.4 93.2,161.5 C92.7,161.6 92.1,161.8 91.6,161.8 C89.4,162 87.2,162.2 85,162.3 C83.1,162.4 81.1,162.3 79.2,162.3 C75.7,162.3 72.1,162.3 68.6,162.2 C62.8,162 56.9,162.3 51.1,162.3 C49.6,162.3 48.1,162.5 46.6,162.6 C45.9,162.6 45.1,162.6 44.4,162.6 C43.3,162.5 42.2,162.4 41.2,162.4 C39.3,162.3 38.4,161.4 38.4,159.5 C38.4,157.9 38.4,156.4 38.4,154.8 C38.4,154.5 38.4,154.2 38.3,153.8 C37.6,154.1 37.1,154.4 36.5,154.7 C35.4,155.3 34.3,155.2 33.3,154.6 C31.4,153.6 30.4,152 30,150 C29.6,147.6 29.7,145.2 29.7,142.7 C29.7,141.4 29.6,140.2 29.5,138.9 C29.4,137.3 27.3,135.6 25.5,135.7 C22.5,135.9 19.5,136 16.6,136 C13.1,135.9 9.6,135.8 6.1,135.9 C4.8,135.9 3.4,135.6 2.4,134.7 C1.9,134.2 1.6,133.7 1.6,133.1 C1.3,129.7 1,126.3 0.7,122.9 C0.6,122.2 0.9,121.7 1.4,121.2 C1.5,121.2 1.7,121.1 1.8,121.1 C9.7,120.6 17.5,120 25.4,119.5 C31.7,119.1 37.9,118.6 44.1,118.1 C48.2,117.8 52.2,117.4 56.3,117.2 C59.3,117 62.3,117.2 65.2,117.2 C66.8,117.2 68.3,117.2 69.9,117.2 C72.4,117.2 75,117.1 77.5,117.1 C82.3,117 87.1,116.8 91.9,116.7 C95.8,116.6 99.7,116.6 103.6,116.6 C105,116.6 106.4,116.5 107.8,116.5 C109,116.5 110.2,116.5 111.4,116.5 C113.4,116.5 114.8,116.4 118,115.5 Z M201.2,71.4 C201.2,70.5 201.2,69.6 201.3,68.6 C201.8,62.8 202.2,57 203.1,51.2 C203.7,47.3 204.3,43.3 204.8,39.3 C205.4,34.3 205.8,29.4 206.3,24.4 C206.6,21.1 207,17.8 207.2,14.5 C207.3,13.6 207.2,12.6 207.2,11.5 C205.1,11.6 203,11.7 200.8,11.7 C200,11.7 199.2,11.8 198.3,11.8 C196.1,11.8 193.8,12 191.7,12.7 C191.1,12.9 190.4,12.9 189.7,13 C188,13.1 186.2,13.2 184.5,13.4 C181.6,13.7 178.6,14 175.7,14.2 C169.5,14.7 163.3,15.2 157.1,15.7 C153.6,16 150.1,16.5 146.5,16.8 C143.9,17 141.3,17.1 138.7,17.1 C136.8,17.2 134.9,17.1 133,17.1 C130,17.1 127,17.2 123.9,17.2 C123.6,17.2 123.3,17.1 123,17.1 C122,17.2 121.1,17.3 120.1,17.4 C119.7,17.4 119.4,17.5 119,17.5 C118.3,17.5 117.6,17.4 116.9,17.4 C115.4,17.5 113.9,17.5 112.4,17.6 C111.8,17.6 111.3,17.7 110.7,17.8 C108.8,18.1 106.8,18.5 104.9,18.8 C102.8,19.2 100.8,19.6 98.6,20 C99.2,21.7 99.8,23.3 100.4,24.9 C101.6,28.1 102.6,31.4 103.5,34.7 C104.3,37.6 105.2,40.4 106.1,43.3 C107,46.2 108.1,49.1 109,52.1 C110.4,56.9 112.2,61.6 114.1,66.2 C114.6,67.5 115.4,68.8 115.9,70.2 C116.4,71.7 116.7,73.2 117.2,74.7 C118,77 118.9,79.2 119.8,81.5 C120.3,82.6 120.8,83.8 121.3,84.9 C122.2,86.7 123.3,88.4 123.8,90.4 C124.1,91.4 124.5,92.3 124.9,93.2 C125.7,95.1 126.6,96.9 127,99 C127.2,99.9 127.6,100.7 128,101.5 C128.8,103.3 129.7,105.1 130.6,107.2 C131.2,107.2 132.1,107.1 133,107.1 C134.1,107 135.2,106.8 136.3,106.8 C138.8,106.7 141.2,106.7 143.7,106.4 C147.5,106 151.4,105.9 155.2,106 C156.4,106 157.5,105.8 158.6,105.6 C159.7,103.5 161.6,103.2 163.8,103.3 C163.2,102.9 162.8,102.7 162.5,102.4 C161.1,101.3 160.9,100.1 162.1,98.7 C162.5,98.3 162.9,97.9 163.3,97.5 C164.6,96.2 165.8,94.9 167,93.5 C167.9,92.5 169,91.9 170.4,92.2 C171.4,92.4 172.4,92.7 173.4,92.9 C173.7,93 173.9,93 174.2,93.1 C174.2,93 174.3,93 174.3,92.9 C173.3,91.9 172.4,90.9 171.4,89.8 C171.1,89.5 170.8,89.3 170.5,88.9 C169.7,87.8 169.7,86.7 170.8,85.8 C172.4,84.5 174.1,83.2 175.9,82 C176.8,81.4 177.9,81.5 178.6,82.3 C178.9,82.6 179,82.9 179.3,83.2 C180.1,84.1 180.8,84.9 181.6,85.7 C181.7,85.7 181.8,85.6 181.8,85.6 C181.7,85.3 181.6,84.9 181.5,84.6 C181.1,83.5 180.7,82.4 180.4,81.3 C179.9,79.4 180.4,78.3 182.3,77.6 C184,77 185.7,76.7 187.5,76.3 C188.5,76.1 189.2,76.4 189.8,77.3 C190.2,77.9 190.6,78.6 191,79.2 C191.3,78.8 191.3,78.5 191.4,78.2 C191.6,77.2 191.7,76.3 191.9,75.3 C192.1,74.3 192.7,73.5 193.7,73.2 C195.2,72.6 196.7,71.7 198.4,71.8 C198.5,71.8 198.7,71.8 198.8,71.7 C199.6,71.8 200.3,71.6 201.2,71.4 Z M171.1,116.9 C171.1,119.6 171.3,121.3 171.8,123.1 C172.5,125.3 173.8,127.3 174.8,129.4 C176.2,132.5 178.4,134.8 181.4,136.4 C182,136.7 182.5,137 183,137.4 C185.8,139.1 188.9,140.1 191.9,141.3 C192,141.3 192,141.3 192.1,141.4 C195,141.8 197.8,142.2 200.8,142 C204.6,141.7 208.2,140.7 211.8,139.8 C212.3,139.7 212.8,139.5 213.3,139.2 C217.2,137 221,134.7 223.5,130.8 C225.1,128.4 226.9,126.2 228.1,123.5 C229.5,120.5 230.1,117.3 230.1,114.1 C230.1,110.2 229.2,106.4 227.5,102.9 C226.8,101.4 225.8,99.9 224.9,98.5 C223.2,95.8 221.4,93.2 218.5,91.5 C216.6,90.4 214.7,89.7 212.6,89.2 C211.6,88.9 210.5,88.8 209.6,88.4 C206.6,87.1 203.5,86.5 200.3,86.5 C198.2,86.5 196.1,86.8 194.1,87.7 C193.8,87.8 193.5,87.9 193.2,87.9 C192.4,87.7 191.8,88 191.2,88.3 C190.1,88.8 189.1,89.2 188,89.7 C186.9,90.3 185.7,90.8 184.7,91.5 C181.8,93.3 179.6,95.9 177.5,98.5 C176.1,100.2 175.2,102.1 174.5,104.2 C174.1,105.4 173.5,106.5 173.1,107.7 C172.7,108.9 172.1,110.1 171.9,111.3 C171.5,113.1 171.3,115.4 171.1,116.9 Z M118.7,132 C118.3,132 117.9,132 117.5,132 C115.5,132.2 113.4,132.5 111.4,132.5 C103,132.8 94.6,132.9 86.1,133.2 C78.2,133.4 70.3,133.7 62.4,134.1 C53.3,134.5 44.2,134.9 35.1,135.3 C33.3,135.4 31.5,135.6 29.7,135.7 C30.1,136.8 30.6,137.7 30.7,138.8 C30.9,140.1 30.9,141.5 31,142.9 C31,144.5 31,146.2 31,147.8 C31,148.7 31.3,149.6 31.5,150.5 C31.7,151.3 32.3,151.9 33,152.4 C33.5,152.8 34.1,152.9 34.7,152.5 C35.5,152 36.4,151.6 37.3,151.2 C37.3,150.9 37.3,150.7 37.3,150.4 C37.1,148.4 36.9,146.4 36.7,144.4 C36.5,142.8 37.5,141.6 39.1,141.5 C42.8,141.2 46.5,140.9 50.3,140.7 C54,140.5 57.7,140.3 61.5,140.2 C65.8,140 70.1,140 74.4,139.8 C78.8,139.6 83.1,139.4 87.5,139.2 C88.4,139.2 89.2,139.1 90.1,139.2 C91,139.3 91.3,139.7 91.2,140.5 C91.2,140.8 91.1,141.2 91.2,141.5 C91.5,143.7 91.8,145.9 92.2,148.1 C92.2,148.3 92.3,148.6 92.4,148.7 C93.8,148.1 95,147.4 96.3,147 C98.7,146.4 101.2,146.1 103.6,146.5 C105.6,146.8 107.6,147.3 109,149 C110.3,150.5 111.7,152 112.9,153.6 C114.4,155.6 116.2,157.3 118.3,158.8 C120.6,160.3 123,161.3 125.7,161.7 C128.3,162.1 130.8,161.7 133.4,161.3 C135.5,161 137.5,160.2 139.3,159 C141.8,157.2 143.6,155.1 143.1,151.7 C143,151.3 143,151 143,150.6 C142.9,149.3 142.7,148.1 142.6,146.8 C142.5,145.4 143.1,144.2 144.1,143.2 C144.4,142.9 144.6,142.7 144.9,142.4 C145.2,142 145.4,141.5 145.1,140.9 C143.4,140.9 141.6,140.9 139.9,140.9 C136.3,141 132.7,141.1 129.2,141.2 C128.3,141.2 127.4,141.1 126.5,141 C125.6,140.9 124.6,140.8 123.7,140.8 C121.6,140.8 120.3,139.9 119.9,137.8 C119.4,136 119.1,134.1 118.7,132 Z M158.6,108.3 C157.3,108.4 156.2,108.4 155,108.5 C152.7,108.5 150.5,108.5 148.2,108.6 C144.9,108.8 141.7,109.1 138.4,109.3 C137.1,109.4 135.8,109.3 134.5,109.5 C132.6,109.9 130.7,109.8 128.8,109.7 C126.5,109.5 124.4,109.9 122.2,110.4 C121.2,110.6 120.7,111.2 120.6,112.2 C120.5,113.3 120.4,114.5 120.5,115.7 C120.7,120.2 120.9,124.7 121.1,129.2 C121.2,131.9 121.4,134.6 122.1,137.3 C122.4,138.4 122.6,138.5 123.7,138.6 C124.8,138.6 125.9,138.8 127,138.8 C127.5,138.8 128,138.9 128.4,138.9 C130.9,138.8 133.5,138.8 136,138.7 C137.9,138.7 139.9,138.7 141.8,138.7 C142.2,138.7 142.5,138.7 142.9,138.7 C145.6,138.6 148.3,138.4 150.9,138.3 C153,138.2 155.1,138.1 157.2,137.9 C159.4,137.7 161.6,137.5 163.8,137.2 C164.8,137.1 165.8,137 166.9,136.9 C166.7,136.4 166.6,136 166.4,135.6 C165.8,134.1 165.3,132.6 164.7,131.1 C164.3,130.2 164.5,129.3 165.2,128.6 C165.3,128.5 165.4,128.3 165.6,128 C164.8,128.3 164.2,128.5 163.6,128.7 C162.4,129 161.2,128.7 160.8,127.7 C160.5,126.9 160.3,125.9 160.1,125 C160,124.6 160,124.1 159.9,123.7 C159.1,121 160.3,119.1 163.1,118.7 C163.1,118.7 163.2,118.7 163.2,118.7 C163.9,118.5 164.6,118.3 165.3,118.2 C165.3,118.1 165.3,118 165.3,117.9 C164.7,117.7 164.1,117.4 163.4,117.3 C162.3,117 161.1,116.7 160,116.3 C158.6,115.9 158,115 158.2,113.5 C158.3,112.7 158.4,111.9 158.5,111.2 C158.5,110.3 158.5,109.3 158.6,108.3 Z M193,152.9 C193.6,156.2 193.5,159.3 192.9,162.5 C192.3,165.4 191.6,168.3 191.1,171.3 C190.4,175.1 189.6,178.9 189.2,182.8 C188.5,190 188.6,197.2 189.8,204.3 C190.7,209.2 191.3,214.1 192.1,219 C192.2,219.4 192.3,219.8 192.5,220.1 C193.1,221 193.1,221.2 192.5,222.1 C192.1,222.7 191.7,223.3 191.4,223.8 C191.7,224.2 192,224.5 192.1,224.9 C192.9,226.9 193.5,228.9 193.4,231.1 C193.3,233.8 193.2,236.5 193.1,239.1 C193.1,239.6 193,240.2 193.2,240.5 C194,241.7 194.7,243 196.1,243.6 C197.8,244.4 199.4,245.3 201.1,246.1 C202.1,246.6 203.1,247.1 204.4,246.9 C204.3,246 204.2,245.1 204.1,244.2 C203,237.5 202.5,230.8 201.9,224.1 C201.5,219.3 201.4,214.4 201.7,209.6 C201.9,205.6 201.7,201.5 201.5,197.5 C201.3,193.7 201.2,189.9 201,186.1 C200.7,180 200.4,174 200,167.9 C199.8,164 199.3,160.1 197.8,156.4 C197.4,155.6 197.3,154.7 197.7,153.7 C196.2,153.4 194.8,153 193.4,152.7 C193.4,152.8 193.2,152.9 193,152.9 Z M90.9,159.6 C90.8,158.1 90.9,156.8 90.7,155.5 C90.1,151.2 89.4,146.9 88.8,142.7 C88.7,142.3 88.6,141.9 88.5,141.5 C88.1,141.5 87.7,141.4 87.4,141.5 C84.7,141.6 82,141.7 79.3,141.8 C73.6,142 68,142.2 62.3,142.5 C61.2,142.5 60.1,142.4 59.1,142.5 C52.8,142.9 46.6,143.3 40.3,143.8 C39.9,143.8 39.4,143.9 38.9,144 C39.9,149.4 39.6,154.7 39.7,160.1 C41.9,159.9 44,160.7 46.1,160.3 C46.7,160.2 47.3,160.2 47.9,160.2 C51.1,160.1 54.3,160.1 57.5,160 C60,159.9 62.6,159.8 65.1,159.8 C66.5,159.8 68,159.9 69.4,159.9 C73.2,160 76.9,160.2 80.7,160.2 C84.1,160.1 87.4,159.8 90.9,159.6 Z M213.1,233.8 C213.4,232.4 213.6,231.1 213.9,229.9 C214.1,228.8 214.2,227.6 214.7,226.7 C215.2,225.7 215.5,224.7 215.8,223.7 C216.4,221.7 217,219.7 217.4,217.7 C218,214.3 218.5,210.9 219,207.5 C219.6,203.6 220.3,199.8 220.3,195.8 C220.3,187.7 220.5,179.6 220.4,171.5 C220.4,167.2 220.1,162.9 219.1,158.7 C218.3,155.4 217.6,152.2 216.8,148.9 C216.3,148.5 215.8,148.2 215.3,147.7 C214.8,147.3 214.4,146.8 214,146.3 C213.6,145.8 213.3,145.3 212.9,144.8 C212.8,144.8 212.8,144.9 212.7,144.9 C213,145.5 213.4,146 213.7,146.6 C214.5,148.1 214.1,149.2 212.6,149.9 C212.1,150.1 211.7,150.3 211.2,150.5 C211.4,150.9 211.7,151.3 211.9,151.7 C212.8,154.9 213.5,158.2 213.8,161.6 C214.3,167.3 214.4,173 213.9,178.7 C213.4,185.4 212.6,192.1 212,198.7 C211.2,206.8 209.7,214.7 208,222.6 C207.7,223.9 207.4,225.1 207.1,226.5 C209.3,228.9 210.6,231.7 213.1,233.8 Z M174.8,11.9 C174.7,8.8 174.6,5.9 174.5,2.8 C172.6,2.9 170.9,3 169.2,3.2 C166.5,3.6 163.8,3.9 161.1,4 C159.5,4.1 157.9,4.4 156.3,4.5 C154.6,4.7 152.8,4.7 151.1,4.8 C150.1,4.9 149.2,4.9 148.2,4.9 C145.8,5 143.4,5 140.9,5.1 C134.1,5.3 127.4,6.1 120.7,7.1 C120.3,7.2 120,7.2 119.6,7.3 C119.7,9.9 119.9,12.5 120.7,14.8 C123.4,14.8 125.9,14.8 128.4,14.8 C132,14.8 135.6,14.8 139.1,14.8 C141.4,14.8 143.6,14.7 145.9,14.5 C147.5,14.4 149.2,14.3 150.8,14.1 C154.4,13.7 158,13.2 161.6,12.9 C165.7,12.5 169.8,12.3 173.9,11.9 C174.1,12 174.3,11.9 174.8,11.9 Z M79.6,119.4 C79.4,119.4 79.3,119.3 79.1,119.3 C75.6,119.3 72.2,119.4 68.7,119.4 C67.3,119.4 65.9,119.4 64.5,119.4 C61.5,119.4 58.5,119.3 55.4,119.4 C50.7,119.7 46,120.1 41.2,120.5 C40.9,120.5 40.6,120.6 40.2,120.6 C41.3,124.5 40.8,128.6 41.4,132.5 C54.6,132 67.7,131.5 80.9,131 C80.8,127.1 81,123.1 79.6,119.4 Z M186.3,151.7 C186.3,151.8 186.2,151.9 186.2,152 C186.2,152.2 186.3,152.4 186.3,152.7 C186.7,154.7 186.8,156.8 186.6,158.8 C186.3,162.5 185.9,166.2 185,169.9 C183.7,175.4 182.3,180.9 180.8,186.4 C179.6,190.6 179,194.8 178.7,199.2 C178.4,203.2 178.4,207.2 178.7,211.3 C179,214.2 179.1,217.1 180.3,219.8 C180.8,221 181.2,222.2 181.6,223.5 C182.2,225.5 183.2,227.2 184.9,228.6 C185.1,228.4 185.3,228.2 185.5,228 C186.4,226.8 187.4,225.6 188.3,224.4 C188.9,223.6 189.3,222.8 189.8,221.9 C189.9,221.7 189.9,221.5 189.9,221.3 C189.8,220.6 189.8,219.9 189.6,219.2 C188.7,213.7 187.8,208.2 187,202.7 C186.6,200.1 186.5,197.4 186.4,194.8 C186.2,190.6 186.2,186.4 186.7,182.2 C187.4,176.9 188.4,171.7 189.5,166.5 C190.1,163.5 191,160.5 190.8,157.3 C190.7,155.7 190.6,154.2 190.4,152.8 C189.5,152.3 188.8,151.9 188,151.4 C187.7,151.3 187,151.5 186.3,151.7 Z M89.5,130.7 C89.8,130.7 90.1,130.7 90.4,130.7 C95.1,130.6 99.9,130.4 104.6,130.3 C108.8,130.2 113,130 117.2,129.6 C117.7,129.6 118.1,129.5 118.7,129.4 C118.5,125.5 118.4,121.7 118.2,117.8 C117.7,117.9 117.5,118 117.2,118 C115.8,118.2 114.3,118.5 112.9,118.6 C109.6,118.7 106.3,118.7 103.1,118.7 C100,118.7 96.9,118.7 93.8,118.7 C92.2,118.7 90.6,118.8 89.1,118.9 C89.2,123 89.4,126.8 89.5,130.7 Z M2.9,133.3 C3.8,133.5 4.5,133.8 5.3,133.7 C8.9,133.5 12.5,133.8 16,133.8 C20.9,133.7 25.8,133.4 30.6,133.2 C30.8,133.2 31.1,133.1 31.4,133 C30.9,129.1 31.6,125.2 30.9,121.3 C21.2,121.9 11.6,122.5 1.9,123.4 C2.2,126.8 2.5,129.9 2.9,133.3 Z M177.2,11.8 C179.3,11.6 181.2,11.5 183.1,11.3 C184.6,11.2 186.1,11 187.5,10.9 C188.7,10.8 190,10.8 191.2,10.5 C193.8,9.8 196.3,9.6 198.9,9.6 C199.6,9.6 200.4,9.5 201.1,9.4 C201.1,9.3 201.1,9.2 201.1,9.1 C199.3,8.6 197.6,8.1 195.8,7.7 C192.5,7 189.1,6.4 185.9,5.6 C183,4.9 180.2,4 177.3,3.2 C177.2,3.2 177,3.2 176.8,3.2 C176.9,6 177,8.7 177.2,11.8 Z M168.7,116.3 C169.3,112.8 169.3,109.4 170.9,106.2 C169.3,106.1 167.9,106.1 166.5,106 C165.3,105.9 164,105.8 162.8,105.7 C161.8,105.6 161.1,106.1 161,107.2 C160.9,109.1 160.6,111 160.4,112.9 C160.4,113.2 160.4,113.6 160.4,113.9 C163.2,114.8 165.9,115.6 168.7,116.3 Z M117.1,7.9 C115.9,8.5 114.9,9.1 113.8,9.7 C110.9,11.3 108.1,12.9 105.2,14.5 C103.6,15.4 101.9,16.2 100.2,17 C99.8,17.2 99.5,17.5 99.2,17.7 C102.4,17.4 105.6,17 108.6,16.3 C111.7,15.5 115,15.9 118.1,15.3 C117.8,12.9 117.4,10.5 117.1,7.9 Z M207.9,75.3 C206.5,78.2 205.1,81 203.7,83.9 C205.1,84.2 206.4,84.4 207.7,84.8 C209,85.2 210.2,85.6 211.5,86.1 C212.5,83.7 213.4,81.5 214.3,79.3 C213.7,78.7 213.3,78 212.7,77.7 C211.2,76.7 209.6,76.1 207.9,75.3 Z M37.7,120.8 C36.2,120.9 34.8,121.1 33.5,121.2 C33.6,125.2 33.6,129 33.7,133 C35.6,132.9 37.2,132.8 39,132.8 C38.8,129.5 38.6,126.4 38.4,123.3 C38.3,122.4 37.9,121.7 37.7,120.8 Z M200.3,74.2 C199.8,74.3 199.4,74.5 199.1,74.4 C197.8,74.2 196.7,74.9 195.6,75.2 C194.8,75.4 194.4,76 194.2,76.8 C193.6,79.3 194.1,81.9 193.9,84.5 C196.1,84.2 198.3,83.8 200.5,83.5 C200.4,80.4 200.4,77.4 200.3,74.2 Z M176,96.3 C175.3,96.1 174.7,95.9 174.2,95.7 C173.2,95.4 172.1,95.1 171.1,94.8 C170.1,94.5 169.4,94.8 168.7,95.6 C167.4,97.1 166.1,98.4 164.7,99.8 C164.5,100 164.3,100.2 164,100.5 C166.6,102.1 169.2,102.9 172.2,103.2 C173,100.8 174.1,98.4 176,96.3 Z M238.2,100.3 C235.4,100.6 233,102.1 230.4,102.7 C231.1,105 231.7,107.2 232.3,109.4 C235.1,108.4 237.8,107.3 240.5,106 C240.2,103.8 239.1,102.1 238.2,100.3 Z M191.6,143.6 C191.2,145.6 190.2,147.5 190.2,149.6 C191.7,150.3 197.8,151.5 198.7,151.3 C199,149 199.4,146.7 199.7,144.4 C197.1,144.1 194.4,143.9 191.6,143.6 Z M230.1,89.8 C228,90.7 226,91.6 224,92.5 C225.6,94.8 227.1,97 228.6,99.2 C230.6,98 232.5,96.9 234.4,95.7 C233,93.9 231.6,91.9 230.1,89.8 Z M213.5,141.6 C214.4,142.8 215.4,144 216.3,145.2 C216.6,145.6 217,145.9 217.3,146.2 C217.9,146.8 218.5,146.8 219.2,146.4 C220.4,145.7 221.7,145 222.9,144.3 C223.3,144.1 223.6,143.8 223.9,143.5 C222.8,141.2 221.3,139.4 219.3,138.1 C217.3,139.3 215.4,140.5 213.5,141.6 Z M82,119.4 C83.4,123.2 83,127.1 83.3,130.9 C84.6,130.9 85.7,130.9 86.9,130.9 C87,130.6 87,130.5 87,130.4 C86.9,127.2 86.9,124 86.8,120.8 C86.8,120.3 86.5,119.7 86.4,119.1 C84.9,119.1 83.6,119.2 82,119.4 Z M191.2,85.3 C190,83.1 189.7,80.7 187.9,78.9 C186.2,79.2 184.5,79.6 182.8,80.3 C183.6,82.9 184.4,85.3 185.2,87.9 C187.3,87 189.2,86.2 191.2,85.3 Z M223.8,80.8 C221.5,83 218.8,84.8 216.9,87.5 C218.4,88.3 219.9,89.2 221.5,90.1 C223.2,88.2 225,86.3 226.7,84.5 C226.4,83.7 224.5,81.4 223.8,80.8 Z M239.5,117.7 C240,116.3 239.7,115.1 239.7,113.9 C239.7,112.8 239.3,112.4 238.2,112.3 C237.6,112.2 237,112.1 236.3,112.1 C235.4,112.1 234.4,112.1 233.5,112.2 C232.7,112.3 232.6,112.5 232.6,113.3 C232.5,114.7 232.4,116.1 232.3,117.5 C232.3,117.9 232.2,118.3 232.2,118.8 C234.7,118.3 237.1,118 239.5,117.7 Z M182.4,89.6 C180.6,87.9 178.9,86.1 177,84.3 C175.6,85.4 174.2,86.5 172.8,87.6 C174.6,89.6 176.3,91.6 178.1,93.5 C179.6,92.2 181,90.9 182.4,89.6 Z M211.6,147.9 C210.9,146.1 210.2,144.4 209.6,142.6 C207.3,143.1 205.1,143.5 203.1,143.9 C203.8,145.7 204.4,147.4 205.1,149.2 C205.3,149.7 205.5,150.1 205.8,150.7 C207.8,149.7 209.8,148.8 211.6,147.9 Z M174.3,133.4 C173.1,131.1 171.9,129 170.7,126.7 C170,127.4 169.4,127.9 168.8,128.5 C168.2,129.1 167.5,129.6 167,130.1 C167.4,132 169.3,136.6 170.1,137.4 C171.5,136 172.9,134.7 174.3,133.4 Z M222.1,136.2 C224,137.3 226,137.9 228.1,138.5 C229.3,136.7 230.5,134.9 231.7,133 C230,131.7 228,131.5 226.2,130.8 C224.9,132.7 223.6,134.3 222.1,136.2 Z M231.6,121.4 C230.5,123.7 229.4,125.9 228.4,128 C230.6,128 232.8,128 235,128 C235.7,128 236.1,127.5 236.3,126.9 C236.5,126.1 236.8,125.3 237,124.6 C237.2,123.9 237.2,123.2 237.3,122.5 C235.2,122.1 233.4,121.7 231.6,121.4 Z M183.8,140.4 C183.7,140.7 183.6,141 183.5,141.3 C183.2,142.6 182.9,143.9 182.6,145.2 C182.5,145.6 182.3,146.1 182.3,146.5 C182.3,146.9 182.3,147.4 182.6,147.7 C183.5,148.9 184.9,149.1 186.3,149.1 C186.6,149.1 186.9,148.8 187,148.5 C187.7,146.9 188.3,145.3 188.9,143.6 C189,143.2 188.9,142.8 188.9,142.3 C187.2,141.8 185.6,141.1 183.8,140.4 Z M176.5,135.9 C175.9,137.2 175.3,138.5 174.8,139.8 C174.7,140.1 174.7,140.6 174.8,141 C175.5,142.5 176.3,144 177.1,145.5 C177.2,145.6 177.4,145.7 177.5,145.9 C179.2,143.8 180.5,141.6 181.5,139.2 C179.8,138.1 178.2,137 176.5,135.9 Z M162.9,126.4 C165.2,125.7 167.2,124.3 169.4,123.5 C169.2,122.2 168.9,121 168.7,119.8 C166.7,120.3 164.8,120.8 162.8,121.2 C162.2,121.3 161.9,121.8 162,122.4 C162.2,123.6 162.4,124.8 162.6,126 C162.6,126 162.8,126.2 162.9,126.4 Z" id="Shape" fill="#000000"></path>
                <path d="M201.2,71.4 C200.3,71.6 199.6,71.8 199,72 C198.9,72 198.7,72.1 198.6,72.1 C196.9,72 195.5,72.9 193.9,73.5 C192.9,73.9 192.4,74.7 192.1,75.6 C191.9,76.5 191.8,77.5 191.6,78.5 C191.5,78.8 191.5,79.1 191.2,79.5 C190.8,78.9 190.4,78.3 190,77.6 C189.5,76.7 188.7,76.3 187.7,76.6 C186,77 184.2,77.4 182.5,77.9 C180.6,78.5 180.1,79.6 180.6,81.6 C180.9,82.7 181.3,83.8 181.7,84.9 C181.8,85.2 181.9,85.6 182,85.9 C181.9,85.9 181.8,86 181.8,86 C181,85.2 180.3,84.3 179.5,83.5 C179.3,83.2 179.1,82.9 178.8,82.6 C178,81.8 176.9,81.6 176.1,82.3 C174.4,83.5 172.7,84.8 171,86.1 C169.9,87 169.9,88.1 170.7,89.2 C171,89.5 171.3,89.8 171.6,90.1 C172.6,91.1 173.5,92.1 174.5,93.2 C174.5,93.3 174.4,93.3 174.4,93.4 C174.1,93.3 173.9,93.3 173.6,93.2 C172.6,93 171.6,92.7 170.6,92.5 C169.2,92.2 168.1,92.7 167.2,93.8 C166,95.2 164.7,96.5 163.5,97.8 C163.1,98.2 162.7,98.6 162.3,99 C161.1,100.4 161.2,101.6 162.7,102.7 C163,103 163.4,103.2 164,103.6 C161.8,103.5 159.9,103.8 158.8,105.9 C157.7,106 156.6,106.3 155.4,106.3 C151.6,106.2 147.7,106.3 143.9,106.7 C141.5,107 139,106.9 136.5,107.1 C135.4,107.2 134.3,107.3 133.2,107.4 C132.3,107.5 131.4,107.5 130.8,107.5 C129.9,105.5 129,103.6 128.2,101.8 C127.8,101 127.4,100.2 127.2,99.3 C126.8,97.3 125.9,95.4 125.1,93.5 C124.7,92.6 124.3,91.7 124,90.7 C123.4,88.7 122.4,87 121.5,85.2 C120.9,84.1 120.4,83 120,81.8 C119.1,79.6 118.2,77.3 117.4,75 C116.9,73.5 116.6,72 116.1,70.5 C115.6,69.1 114.9,67.9 114.3,66.5 C112.4,61.9 110.6,57.2 109.2,52.4 C108.3,49.4 107.2,46.5 106.3,43.6 C105.4,40.8 104.5,37.9 103.7,35 C102.8,31.7 101.8,28.4 100.6,25.2 C100,23.6 99.4,22 98.8,20.3 C100.9,19.9 103,19.5 105.1,19.1 C107,18.7 109,18.4 110.9,18.1 C111.4,18 112,17.9 112.6,17.9 C114.1,17.8 115.6,17.7 117.1,17.7 C117.8,17.7 118.5,17.8 119.2,17.8 C119.6,17.8 119.9,17.7 120.3,17.7 C121.2,17.6 122.2,17.4 123.2,17.4 C123.5,17.4 123.8,17.5 124.1,17.5 C127.1,17.5 130.1,17.4 133.2,17.4 C135.1,17.4 137,17.4 138.9,17.4 C141.5,17.3 144.1,17.3 146.7,17.1 C150.2,16.8 153.7,16.3 157.3,16 C163.5,15.5 169.7,15 175.9,14.5 C178.8,14.3 181.8,13.9 184.7,13.7 C186.4,13.5 188.2,13.5 189.9,13.3 C190.6,13.2 191.2,13.2 191.9,13 C194.1,12.4 196.3,12.2 198.5,12.1 C199.3,12.1 200.1,12 201,12 C203.1,11.9 205.2,11.8 207.4,11.8 C207.4,12.9 207.5,13.9 207.4,14.8 C207.1,18.1 206.8,21.4 206.5,24.7 C206,29.7 205.6,34.7 205,39.6 C204.5,43.6 204,47.5 203.3,51.5 C202.4,57.3 202,63.1 201.5,68.9 C201.2,69.5 201.2,70.5 201.2,71.4 Z" id="Shape" fill="#FFFFFF"></path>
                <path d="M171.1,116.9 C171.3,115.5 171.5,113.2 171.9,110.9 C172.1,109.7 172.7,108.5 173.1,107.3 C173.5,106.1 174.1,105 174.5,103.8 C175.2,101.7 176.1,99.8 177.5,98.1 C179.6,95.5 181.8,92.9 184.7,91.1 C185.8,90.4 186.9,89.8 188,89.3 C189,88.8 190.1,88.4 191.2,87.9 C191.8,87.6 192.4,87.3 193.2,87.5 C193.5,87.6 193.8,87.4 194.1,87.3 C196.1,86.4 198.2,86.1 200.3,86.1 C203.5,86.1 206.6,86.7 209.6,88 C210.5,88.4 211.6,88.6 212.6,88.8 C214.7,89.3 216.6,90.1 218.5,91.1 C221.4,92.8 223.2,95.4 224.9,98.1 C225.8,99.5 226.8,101 227.5,102.5 C229.2,106 230.1,109.8 230.1,113.7 C230.1,116.9 229.5,120.1 228.1,123.1 C226.9,125.7 225.1,128 223.5,130.4 C221,134.3 217.2,136.7 213.3,138.8 C212.8,139 212.3,139.2 211.8,139.4 C208.2,140.4 204.5,141.3 200.8,141.6 C197.8,141.9 195,141.5 192.1,141 C192,141 192,141 191.9,140.9 C188.9,139.7 185.8,138.8 183,137 C182.5,136.7 181.9,136.3 181.4,136 C178.4,134.5 176.2,132.1 174.8,129 C173.8,126.9 172.5,125 171.8,122.7 C171.3,121.3 171.1,119.5 171.1,116.9 Z M200.5,99 C200.4,99.8 200.3,100.5 200.2,101.1 C200,103.4 199.8,105.8 199.6,108.1 C199.3,111.6 198.9,115.1 198.6,118.6 C198.3,122.6 198,126.7 197.8,130.7 C197.8,131.1 197.7,131.5 197.7,131.9 C197.7,132.6 198,133.1 198.6,133.2 C199.2,133.3 199.7,132.9 199.9,132.2 C200,132 200,131.8 200,131.7 C200.1,130.4 200.3,129.2 200.4,127.9 C200.6,124.3 200.7,120.8 201,117.2 C201.5,111.4 202.1,105.7 202.7,100 C202.8,99 202.8,98 202.3,97.1 C201.7,96 200.7,95.6 199.6,96.2 C199.2,96.4 198.9,96.8 198.6,97.1 C196.9,99 195.2,100.8 193.5,102.7 C192.6,103.7 191.8,104.8 191,105.9 C190.7,106.4 190.7,106.9 191.2,107.3 C191.6,107.7 192.2,107.7 192.7,107.3 C193,107.1 193.2,106.8 193.4,106.6 C195.1,104.7 196.7,102.7 198.4,100.8 C199.1,100.2 199.8,99.7 200.5,99 Z" id="Shape" fill="#FFFFFF"></path>
                <path d="M158.6,108.3 C158.5,109.3 158.4,110.2 158.3,111.2 C158.2,112 158.1,112.8 158,113.5 C157.9,115 158.5,115.9 159.8,116.3 C160.9,116.6 162.1,116.9 163.2,117.3 C163.8,117.5 164.5,117.7 165.1,117.9 C165.1,118 165.1,118.1 165.1,118.2 C164.4,118.4 163.7,118.6 163,118.7 C163,118.7 162.9,118.7 162.9,118.7 C160.1,119.1 158.9,121 159.7,123.7 C159.8,124.1 159.8,124.6 159.9,125 C160.1,125.9 160.3,126.8 160.6,127.7 C161,128.6 162.2,129 163.4,128.7 C164,128.5 164.6,128.3 165.4,128 C165.2,128.3 165.1,128.5 165,128.6 C164.3,129.3 164.2,130.2 164.5,131.1 C165.1,132.6 165.6,134.1 166.2,135.6 C166.4,136 166.5,136.4 166.7,136.9 C165.6,137 164.6,137.1 163.6,137.2 C161.4,137.4 159.2,137.7 157,137.9 C154.9,138.1 152.8,138.1 150.7,138.3 C148,138.4 145.3,138.6 142.7,138.7 C142.3,138.7 142,138.7 141.6,138.7 C139.7,138.7 137.7,138.7 135.8,138.7 C133.3,138.7 130.7,138.8 128.2,138.9 C127.7,138.9 127.2,138.8 126.8,138.8 C125.7,138.7 124.6,138.6 123.5,138.6 C122.4,138.6 122.1,138.4 121.9,137.3 C121.2,134.6 121.1,131.9 120.9,129.2 C120.7,124.7 120.5,120.2 120.3,115.7 C120.3,114.6 120.3,113.4 120.4,112.2 C120.5,111.2 121.1,110.7 122,110.4 C124.2,109.9 126.3,109.5 128.6,109.7 C130.5,109.9 132.4,109.9 134.3,109.5 C135.6,109.3 136.9,109.4 138.2,109.3 C141.5,109.1 144.7,108.8 148,108.6 C150.3,108.5 152.5,108.6 154.8,108.5 C156.2,108.5 157.3,108.4 158.6,108.3 Z" id="Shape" fill="#FFFFFF"></path>
                <path d="M193,152.9 C193.3,152.9 193.4,152.8 193.5,152.9 C194.9,153.2 196.3,153.5 197.8,153.9 C197.3,154.9 197.5,155.7 197.9,156.6 C199.4,160.3 199.9,164.1 200.1,168.1 C200.4,174.2 200.8,180.2 201.1,186.3 C201.3,190.1 201.4,193.9 201.6,197.7 C201.8,201.7 202.1,205.7 201.8,209.8 C201.5,214.7 201.6,219.5 202,224.3 C202.6,231 203.1,237.8 204.2,244.4 C204.3,245.3 204.4,246.2 204.5,247.1 C203.2,247.2 202.2,246.8 201.2,246.3 C199.5,245.5 197.9,244.6 196.2,243.8 C194.8,243.1 194,241.9 193.3,240.7 C193.1,240.3 193.2,239.8 193.2,239.3 C193.3,236.6 193.4,233.9 193.5,231.3 C193.5,229.1 193,227.1 192.2,225.1 C192,224.7 191.8,224.4 191.5,224 C191.9,223.5 192.2,222.9 192.6,222.3 C193.2,221.4 193.1,221.2 192.6,220.3 C192.4,220 192.3,219.6 192.2,219.2 C191.4,214.3 190.8,209.4 189.9,204.5 C188.7,197.4 188.6,190.2 189.3,183 C189.7,179.2 190.5,175.3 191.2,171.5 C191.7,168.6 192.4,165.7 193,162.7 C193.5,159.4 193.6,156.2 193,152.9 Z" id="Shape" fill="#FFFFFF"></path>
                <path d="M90.9,159.6 C87.4,159.8 84.1,160.1 80.8,160.2 C77,160.2 73.3,160 69.5,159.9 C68.1,159.9 66.6,159.8 65.2,159.8 C62.7,159.8 60.1,160 57.6,160 C54.4,160.1 51.2,160.1 48,160.2 C47.4,160.2 46.8,160.2 46.2,160.3 C44.1,160.7 42.1,160 39.8,160.1 C39.7,154.7 40,149.4 39,144 C39.5,143.9 40,143.8 40.4,143.8 C46.7,143.4 52.9,142.9 59.2,142.5 C60.3,142.4 61.4,142.5 62.4,142.5 C68.1,142.3 73.7,142.1 79.4,141.8 C82.1,141.7 84.8,141.6 87.5,141.5 C87.8,141.5 88.2,141.5 88.6,141.5 C88.7,141.9 88.8,142.3 88.9,142.7 C89.6,147 90.2,151.2 90.8,155.5 C90.9,156.8 90.9,158.1 90.9,159.6 Z M53.9,156.9 C55,157 56.2,156.8 56.8,156.4 C58.6,155.3 59.8,153.7 60.3,151.7 C60.6,150.1 60.4,148.6 59.3,147.4 C57.4,145.3 54.9,144.5 52.2,144.6 C50.8,144.7 49.7,145.5 48.9,146.7 C48.5,147.4 48.2,148.1 47.9,148.8 C46.8,151.5 48,154.7 50.4,156.2 C51.6,156.7 52.7,156.7 53.9,156.9 Z M74.4,156.9 C76,156.8 77.9,156.3 79.3,154.8 C80.9,153 81.2,150.8 80.3,148.4 C79.1,145.3 74.9,144 72.5,145.2 C71.6,145.6 70.8,146.1 70,146.6 C68.7,147.4 68,148.6 67.9,150.1 C67.6,153.6 70.1,156.9 74.4,156.9 Z" id="Shape" fill="#FFFFFF"></path>
                <path d="M213.1,233.8 C210.6,231.7 209.2,228.9 207.3,226.7 C207.6,225.3 208,224.1 208.2,222.8 C209.9,214.9 211.4,206.9 212.2,198.9 C212.9,192.2 213.7,185.6 214.1,178.9 C214.5,173.2 214.5,167.5 214,161.8 C213.7,158.5 213,155.2 212.1,151.9 C212,151.5 211.7,151.1 211.4,150.7 C211.8,150.5 212.3,150.3 212.8,150.1 C214.3,149.4 214.7,148.3 213.9,146.8 C213.6,146.2 213.2,145.7 212.9,145.1 C213,145.1 213,145 213.1,145 C213.5,145.5 213.8,146 214.2,146.5 C214.6,147 215,147.5 215.5,147.9 C216,148.3 216.6,148.7 217,149.1 C217.8,152.4 218.5,155.7 219.3,158.9 C220.3,163.1 220.6,167.4 220.6,171.7 C220.7,179.8 220.5,187.9 220.5,196 C220.5,199.9 219.8,203.8 219.2,207.7 C218.7,211.1 218.2,214.5 217.6,217.9 C217.2,219.9 216.5,221.9 216,223.9 C215.7,224.9 215.4,225.9 214.9,226.9 C214.4,227.9 214.3,229 214.1,230.1 C213.7,231.1 213.4,232.4 213.1,233.8 Z" id="Shape" fill="#FFFFFF"></path>
                <path d="M174.8,11.9 C174.3,12 174.1,12 173.8,12 C169.7,12.3 165.6,12.6 161.5,13 C157.9,13.3 154.3,13.8 150.7,14.2 C149.1,14.4 147.4,14.5 145.8,14.6 C143.5,14.7 141.3,14.8 139,14.9 C135.4,14.9 131.8,14.9 128.3,14.9 C125.8,14.9 123.2,14.9 120.6,14.9 C119.8,12.6 119.6,10 119.5,7.4 C119.9,7.3 120.3,7.3 120.6,7.2 C127.3,6.2 134,5.4 140.8,5.2 C143.2,5.1 145.6,5.1 148.1,5 C149.1,5 150,4.9 151,4.9 C152.7,4.8 154.5,4.7 156.2,4.6 C157.8,4.5 159.4,4.1 161,4.1 C163.7,4 166.4,3.7 169.1,3.3 C170.8,3.1 172.5,3 174.4,2.9 C174.6,5.9 174.7,8.8 174.8,11.9 Z" id="Shape" fill="#FFFFFF"></path>
                <path d="M79.6,119.4 C81,123.2 80.8,127.1 80.9,131.1 C67.7,131.6 54.6,132.1 41.4,132.6 C40.8,128.7 41.3,124.6 40.2,120.7 C40.6,120.6 40.9,120.6 41.2,120.6 C45.9,120.2 50.6,119.8 55.4,119.5 C58.4,119.3 61.4,119.5 64.5,119.5 C65.9,119.5 67.3,119.5 68.7,119.5 C72.2,119.5 75.6,119.4 79.1,119.4 C79.3,119.3 79.4,119.3 79.6,119.4 Z" id="Shape" fill="#FFFFFF"></path>
                <path d="M186.3,151.7 C187,151.5 187.6,151.3 188.2,151.1 C188.9,151.5 189.7,152 190.6,152.5 C190.7,153.9 190.9,155.5 191,157 C191.2,160.1 190.3,163.1 189.7,166.2 C188.6,171.4 187.5,176.6 186.9,181.9 C186.4,186.1 186.4,190.3 186.6,194.5 C186.7,197.1 186.9,199.8 187.2,202.4 C188,207.9 188.9,213.4 189.8,218.9 C189.9,219.6 190,220.3 190.1,221 C190.1,221.2 190.1,221.5 190,221.6 C189.5,222.4 189.1,223.3 188.5,224.1 C187.6,225.3 186.7,226.5 185.7,227.7 C185.5,227.9 185.3,228.1 185.1,228.3 C183.4,227 182.4,225.3 181.8,223.2 C181.4,221.9 181,220.7 180.5,219.5 C179.3,216.8 179.2,213.9 178.9,211 C178.6,207 178.6,203 178.9,198.9 C179.2,194.6 179.8,190.3 181,186.1 C182.5,180.6 183.9,175.2 185.2,169.6 C186.1,166 186.5,162.3 186.8,158.5 C187,156.4 186.9,154.4 186.5,152.4 C186.5,152.2 186.4,152 186.4,151.7 C186.3,151.9 186.3,151.9 186.3,151.7 Z" id="Shape" fill="#FFFFFF"></path>
                <path d="M89.5,130.7 C89.4,126.8 89.2,122.9 89.1,119 C90.6,118.9 92.2,118.8 93.8,118.8 C96.9,118.8 100,118.8 103.1,118.8 C106.4,118.8 109.7,118.8 112.9,118.7 C114.3,118.7 115.8,118.3 117.2,118.1 C117.5,118.1 117.8,118 118.2,117.9 C118.4,121.8 118.5,125.6 118.7,129.5 C118.1,129.6 117.6,129.6 117.2,129.7 C113,130.1 108.8,130.3 104.6,130.4 C99.9,130.5 95.1,130.6 90.4,130.8 C90.1,130.7 89.8,130.7 89.5,130.7 Z" id="Shape" fill="#FFFFFF"></path>
                <path d="M2.9,133.3 C2.6,129.9 2.2,126.8 1.9,123.5 C11.6,122.6 21.2,122 30.9,121.4 C31.6,125.3 30.9,129.2 31.4,133.1 C31.1,133.2 30.8,133.3 30.6,133.3 C25.7,133.5 20.8,133.8 16,133.9 C12.4,133.9 8.9,133.6 5.3,133.8 C4.5,133.8 3.7,133.5 2.9,133.3 Z" id="Shape" fill="#FFFFFF"></path>
                <path d="M177.2,11.8 C177.1,8.8 177,6 176.9,3.2 C177.1,3.2 177.3,3.2 177.4,3.2 C180.3,4 183.1,4.9 186,5.6 C189.3,6.4 192.6,6.9 195.9,7.7 C197.7,8.1 199.4,8.6 201.2,9.1 C201.2,9.2 201.2,9.3 201.2,9.4 C200.5,9.5 199.7,9.6 199,9.6 C196.4,9.6 193.8,9.9 191.3,10.5 C190.1,10.8 188.9,10.8 187.6,10.9 C186.1,11 184.6,11.2 183.2,11.3 C181.1,11.5 179.2,11.6 177.2,11.8 Z" id="Shape" fill="#FFFFFF"></path>
                <path d="M168.7,116.3 C165.9,115.5 163.2,114.8 160.4,114 C160.4,113.6 160.4,113.3 160.4,113 C160.6,111.1 160.9,109.2 161,107.3 C161.1,106.2 161.8,105.7 162.8,105.8 C164,105.9 165.3,106 166.5,106.1 C167.9,106.2 169.4,106.2 170.9,106.3 C169.3,109.4 169.3,112.9 168.7,116.3 Z" id="Shape" fill="#FFFFFF"></path>
                <path d="M117.1,7.9 C117.5,10.5 117.8,12.9 118.2,15.3 C115.1,15.9 111.8,15.6 108.7,16.3 C105.6,17 102.5,17.4 99.3,17.7 C99.6,17.5 100,17.2 100.3,17 C102,16.1 103.6,15.4 105.3,14.5 C108.2,12.9 111,11.3 113.9,9.7 C114.8,9.1 115.9,8.5 117.1,7.9 Z" id="Shape" fill="#FFFFFF"></path>
                <path d="M207.9,75.3 C209.5,76.1 211.1,76.7 212.7,77.5 C213.3,77.8 213.7,78.5 214.3,79.1 C213.4,81.3 212.4,83.6 211.5,85.9 C210.2,85.4 209,85 207.7,84.6 C206.5,84.3 205.2,84.1 203.7,83.7 C205.2,81 206.5,78.2 207.9,75.3 Z" id="Shape" fill="#FFFFFF"></path>
                <path d="M37.7,120.8 C37.9,121.6 38.3,122.4 38.4,123.2 C38.7,126.3 38.8,129.4 39,132.7 C37.2,132.8 35.6,132.9 33.7,132.9 C33.6,128.9 33.6,125.1 33.5,121.1 C34.8,121.1 36.2,120.9 37.7,120.8 Z" id="Shape" fill="#FFFFFF"></path>
                <path d="M200.3,74.2 C200.4,77.4 200.5,80.5 200.6,83.5 C198.4,83.8 196.2,84.2 194,84.5 C194.2,81.9 193.6,79.3 194.3,76.8 C194.5,76 194.9,75.5 195.7,75.2 C196.9,74.8 197.9,74.2 199.2,74.4 C199.4,74.5 199.7,74.3 200.3,74.2 Z" id="Shape" fill="#FFFFFF"></path>
                <path d="M176,96.3 C174.1,98.4 173.1,100.8 172.2,103.3 C169.3,102.9 166.6,102.1 164,100.6 C164.3,100.3 164.5,100.1 164.7,99.9 C166,98.5 167.4,97.1 168.7,95.7 C169.4,94.9 170.1,94.6 171.1,94.9 C172.1,95.2 173.2,95.5 174.2,95.8 C174.7,95.9 175.2,96 176,96.3 Z" id="Shape" fill="#FFFFFF"></path>
                <path d="M238.2,100.3 C239.2,102.1 240.2,103.8 240.5,106 C237.9,107.3 235.1,108.4 232.3,109.4 C231.7,107.2 231,105 230.4,102.7 C233,102.1 235.3,100.6 238.2,100.3 Z" id="Shape" fill="#FFFFFF"></path>
                <path d="M191.6,143.6 C194.4,143.9 197,144.1 199.8,144.4 C199.5,146.7 199.1,149 198.8,151.3 C197.9,151.5 191.8,150.3 190.3,149.6 C190.2,147.5 191.3,145.6 191.6,143.6 Z" id="Shape" fill="#FFFFFF"></path>
                <path d="M230.1,89.8 C231.6,91.9 233,93.8 234.4,95.7 C232.4,96.9 230.5,98 228.6,99.2 C227.1,97 225.6,94.8 224,92.5 C226,91.7 228,90.8 230.1,89.8 Z" id="Shape" fill="#FFFFFF"></path>
                <path d="M213.5,141.6 C215.4,140.5 217.4,139.3 219.3,138.2 C221.3,139.5 222.8,141.3 223.9,143.6 C223.5,143.9 223.2,144.2 222.9,144.4 C221.7,145.1 220.4,145.8 219.2,146.5 C218.5,146.9 217.9,146.9 217.3,146.3 C217,146 216.6,145.6 216.3,145.3 C215.3,144 214.4,142.8 213.5,141.6 Z" id="Shape" fill="#FFFFFF"></path>
                <path d="M82,119.4 C83.6,119.3 84.9,119.2 86.4,119.1 C86.6,119.7 86.8,120.2 86.8,120.8 C86.9,124 86.9,127.2 87,130.4 C87,130.5 87,130.6 86.9,130.9 C85.8,130.9 84.6,130.9 83.3,130.9 C83.1,127.1 83.4,123.2 82,119.4 Z" id="Shape" fill="#FFFFFF"></path>
                <path d="M191.2,85.3 C189.2,86.2 187.3,87 185.2,87.8 C184.4,85.3 183.6,82.8 182.8,80.2 C184.6,79.6 186.3,79.2 187.9,78.8 C189.7,80.7 190,83.1 191.2,85.3 Z" id="Shape" fill="#FFFFFF"></path>
                <path d="M223.8,80.8 C224.6,81.3 226.4,83.7 226.7,84.4 C225,86.2 223.3,88.1 221.5,90 C219.9,89.1 218.4,88.3 216.9,87.4 C218.7,84.8 221.4,83 223.8,80.8 Z" id="Shape" fill="#FFFFFF"></path>
                <path d="M239.5,117.7 C237.1,118 234.7,118.3 232.2,118.6 C232.2,118.1 232.3,117.7 232.3,117.3 C232.4,115.9 232.6,114.5 232.6,113.1 C232.6,112.3 232.7,112.1 233.5,112 C234.4,111.9 235.3,111.9 236.3,111.9 C236.9,111.9 237.6,112.1 238.2,112.1 C239.3,112.2 239.7,112.6 239.7,113.7 C239.7,115.1 239.9,116.3 239.5,117.7 Z" id="Shape" fill="#FFFFFF"></path>
                <path d="M182.4,89.6 C181,90.8 179.6,92.1 178.1,93.5 C176.4,91.6 174.7,89.6 172.8,87.6 C174.2,86.5 175.6,85.4 177,84.3 C178.9,86.2 180.6,87.9 182.4,89.6 Z" id="Shape" fill="#FFFFFF"></path>
                <path d="M211.6,147.9 C209.8,148.8 207.8,149.7 205.7,150.7 C205.4,150.1 205.2,149.7 205,149.2 C204.3,147.5 203.7,145.7 203,143.9 C205.1,143.5 207.3,143 209.5,142.6 C210.3,144.4 210.9,146.1 211.6,147.9 Z" id="Shape" fill="#FFFFFF"></path>
                <path d="M174.3,133.4 C172.9,134.7 171.5,136.1 170.1,137.4 C169.3,136.6 167.3,132 167,130.1 C167.6,129.6 168.2,129.1 168.8,128.5 C169.4,128 170,127.4 170.7,126.7 C171.9,128.9 173.1,131.1 174.3,133.4 Z" id="Shape" fill="#FFFFFF"></path>
                <path d="M222.1,136.2 C223.5,134.4 224.8,132.7 226.2,130.9 C228,131.6 230,131.7 231.7,133.1 C230.5,134.9 229.3,136.8 228.1,138.6 C226,137.9 224,137.2 222.1,136.2 Z" id="Shape" fill="#FFFFFF"></path>
                <path d="M231.6,121.4 C233.4,121.8 235.2,122.1 237.2,122.5 C237.1,123.1 237.1,123.9 236.9,124.6 C236.7,125.4 236.5,126.2 236.2,126.9 C236,127.5 235.6,128 234.9,128 C232.7,128 230.5,128 228.3,128 C229.4,125.9 230.5,123.7 231.6,121.4 Z" id="Shape" fill="#FFFFFF"></path>
                <path d="M183.8,140.4 C185.5,141.1 187.2,141.8 188.9,142.5 C188.9,142.9 189,143.4 188.9,143.8 C188.3,145.4 187.7,147.1 187,148.7 C186.9,149 186.5,149.3 186.3,149.3 C184.9,149.3 183.5,149.1 182.6,147.9 C182.4,147.6 182.3,147.1 182.3,146.7 C182.3,146.3 182.5,145.8 182.6,145.4 C182.9,144.1 183.2,142.8 183.5,141.5 C183.6,141.1 183.7,140.8 183.8,140.4 Z" id="Shape" fill="#FFFFFF"></path>
                <path d="M176.5,135.9 C178.2,137 179.9,138 181.6,139.2 C180.6,141.6 179.2,143.8 177.6,145.9 C177.4,145.7 177.2,145.7 177.2,145.5 C176.4,144 175.6,142.6 174.9,141 C174.7,140.7 174.7,140.2 174.9,139.8 C175.3,138.5 175.9,137.2 176.5,135.9 Z" id="Shape" fill="#FFFFFF"></path>
                <path d="M162.9,126.4 C162.8,126.2 162.6,126.1 162.6,126 C162.4,124.8 162.1,123.6 162,122.4 C161.9,121.8 162.2,121.4 162.8,121.2 C164.7,120.7 166.7,120.3 168.7,119.8 C168.9,121 169.1,122.2 169.4,123.5 C167.2,124.3 165.2,125.7 162.9,126.4 Z" id="Shape" fill="#FFFFFF"></path>
                <path d="M200.5,99 C199.7,99.7 199,100.2 198.5,100.8 C196.8,102.7 195.1,104.7 193.5,106.6 C193.3,106.9 193.1,107.1 192.8,107.3 C192.3,107.7 191.7,107.7 191.3,107.3 C190.9,106.9 190.8,106.3 191.1,105.9 C191.9,104.8 192.7,103.7 193.6,102.7 C195.3,100.8 197,99 198.7,97.1 C199,96.8 199.3,96.4 199.7,96.2 C200.8,95.6 201.9,95.9 202.4,97.1 C202.9,98 202.9,99 202.8,100 C202.2,105.7 201.6,111.5 201.1,117.2 C200.8,120.8 200.7,124.3 200.5,127.9 C200.4,129.2 200.2,130.4 200.1,131.7 C200.1,131.9 200,132.1 200,132.2 C199.8,132.9 199.2,133.2 198.7,133.2 C198.1,133.1 197.8,132.6 197.8,131.9 C197.8,131.5 197.9,131.1 197.9,130.7 C198.2,126.7 198.4,122.6 198.7,118.6 C199,115.1 199.4,111.6 199.7,108.1 C199.9,105.8 200.1,103.4 200.3,101.1 C200.3,100.4 200.4,99.8 200.5,99 Z" id="Shape" fill="#000000"></path>
                <path d="M53.9,156.9 C52.7,156.8 51.5,156.8 50.5,156.1 C48,154.6 46.9,151.4 48,148.7 C48.3,148 48.6,147.2 49,146.6 C49.7,145.4 50.9,144.6 52.3,144.5 C55,144.4 57.6,145.2 59.4,147.3 C60.5,148.5 60.7,150 60.4,151.6 C60,153.7 58.8,155.2 56.9,156.3 C56.2,156.7 55,156.9 53.9,156.9 Z M53.8,154.5 C56.1,154.9 57.9,152.6 58,150.6 C58,149.7 57.7,148.9 56.9,148.3 C55.6,147.3 54.1,147 52.5,146.9 C52,146.9 51.6,147.1 51.3,147.6 C51.1,148 50.8,148.3 50.6,148.6 C49.6,149.9 49.6,151.3 50.2,152.7 C50.8,154 51.9,154.5 53.3,154.5 C53.5,154.5 53.7,154.5 53.8,154.5 Z" id="Shape" fill="#000000"></path>
                <path d="M74.4,156.9 C70.1,156.9 67.6,153.6 67.9,150.1 C68,148.6 68.7,147.4 70,146.6 C70.8,146.1 71.7,145.6 72.5,145.2 C74.9,144 79.1,145.3 80.3,148.4 C81.2,150.8 80.9,152.9 79.3,154.8 C77.9,156.3 76,156.8 74.4,156.9 Z M70.1,150.7 C70.1,152.4 71.5,154.5 73.6,154.6 C75.1,154.7 76.5,154.3 77.5,153.2 C79.3,151.2 78,148.1 75.8,147.5 C74.3,147.1 71.4,148 70.5,149.3 C70.3,149.6 70.3,150.2 70.1,150.7 Z" id="Shape" fill="#000000"></path>
                <path d="M53.8,154.5 C53.7,154.5 53.5,154.5 53.4,154.5 C52,154.4 50.9,154 50.3,152.7 C49.7,151.3 49.7,149.9 50.7,148.6 C50.9,148.3 51.2,148 51.4,147.6 C51.7,147.1 52.1,146.9 52.6,146.9 C54.2,147 55.7,147.3 57,148.3 C57.8,148.9 58.1,149.7 58.1,150.6 C57.9,152.6 56.1,154.9 53.8,154.5 Z" id="Shape" fill="#FFFFFF"></path>
                <path d="M70.1,150.7 C70.3,150.2 70.3,149.7 70.6,149.3 C71.4,148 74.4,147.1 75.9,147.5 C78.1,148.1 79.4,151.2 77.6,153.2 C76.6,154.3 75.2,154.7 73.7,154.6 C71.5,154.4 70.1,152.4 70.1,150.7 Z" id="Shape" fill="#FFFFFF"></path>
            </g>
        </g>
    </g>
</svg>