<?xml version="1.0" encoding="UTF-8"?>
<svg width="259px" height="243px" viewBox="0 0 259 243" version="1.1" xmlns="http://www.w3.org/2000/svg" xmlns:xlink="http://www.w3.org/1999/xlink">
    <!-- Generator: Sketch 46.2 (44496) - http://www.bohemiancoding.com/sketch -->
    <title>Bazar - Small Fee</title>
    <desc>Created with Sketch.</desc>
    <defs></defs>
    <g id="Page-1" stroke="none" stroke-width="1" fill="none" fill-rule="evenodd">
        <g id="Bazar---Small-Fee" fill-rule="nonzero">
            <g id="Calque_2" transform="translate(12.000000, 127.000000)" fill="#B7D6E2">
                <path d="M68.1,0.5 C46.4,-0.3 28.1,15.4 12.2,30.2 C5.8,36.1 -1.1,44 1.4,52.3 C2.8,56.8 6.7,60 10.8,62.4 C31.3,74 58.1,69.1 78.9,80.4 C93.2,88.1 102.9,102.6 117.4,109.9 C130.2,116.3 145.3,116.2 159.4,113.9 C184.2,109.8 207.8,99.1 227.2,83.1 C232.4,78.8 237.5,73.8 239.5,67.3 C241.9,59.5 239.2,50.9 235.2,43.8 C225.6,26.9 207.7,14.9 188.4,12.4" id="Shape"></path>
            </g>
            <g id="Calque_1">
                <g id="Group">
                    <path d="M125.5,38.8 C128.6,38 131.7,37.3 134.7,36.6 C135.6,36.4 136.6,36.5 137.5,36.4 C141.4,36 145.3,36.8 149.2,37.1 C150.9,37.2 152.5,37.1 154,36.1 C158.6,33.3 163.6,32.1 169,32.5 C173.1,32.8 177.2,33.2 181.2,33.5 C184.5,33.7 186.4,36 188.1,38.4 C188.8,39.4 189.3,40.7 189.9,41.7 C191.2,43.6 191.5,45.9 191.9,48.1 C192.2,49.5 192.9,50.2 194.3,50.6 C198.8,52 203.2,53.6 207.6,55.3 C210.2,56.3 212.7,57.5 215.1,58.9 C220.5,61.9 225.4,65.5 228.8,70.8 C230,72.7 231.6,74.4 232.5,76.4 C233.8,79.5 234.8,82.7 235.8,85.9 C236.9,89.8 237.7,93.8 238.9,97.7 C240.3,102.5 240.9,107.3 240.7,112.3 C240.4,117.9 240,123.6 239.7,129.2 C239.7,129.5 239.7,129.8 239.7,130.2 C242.3,130.1 244.9,130 247.1,128.9 C250,127.4 252.8,125.6 255.6,123.9 C256,123.7 256.2,123.2 256.4,122.8 C256.7,122.1 257.2,121.6 257.9,121.9 C258.4,122.1 258.9,122.9 258.8,123.4 C258.7,124.1 258.3,124.8 257.7,125.2 C252.7,129.3 247.2,132.4 240.4,132.5 C239.4,132.5 239.1,132.9 238.9,133.8 C238.1,138.9 237.1,143.9 236.3,149 C235.2,155.8 234.4,162.6 233,169.4 C232.2,173.3 232.3,177.2 231.5,181 C230.9,183.5 230.2,186 229.7,188.5 C229,192 226.9,194.9 225.6,198 C224.6,200.3 222.4,201.2 220,201.7 C219.6,201.8 219.1,201.8 218.8,202 C218,202.4 217.3,202.2 216.5,201.9 C214,200.6 212.3,198.4 210.5,196.4 C209.6,195.4 208.9,194.2 207.9,193.3 C206.3,191.8 204.7,190.2 202.9,189.1 C199.8,187.1 197.2,184.6 194.5,182.2 C191,179.1 187.1,177.2 182.2,178.3 C176.9,179.4 172.3,181.9 168,185.1 C166.1,186.6 164,187.9 162.2,189.6 C159.7,191.8 157.4,194.1 155.1,196.5 C152.3,199.4 149.8,202.4 147,205.3 C145.4,206.9 143.6,208.4 141.7,209.6 C139.1,211.3 136.4,210.8 134.3,208.5 C132.1,206.2 130.8,203.4 130,200.4 C128.2,193.1 126.5,185.7 124.9,178.4 C123.9,173.8 122.5,169.4 120.2,165.2 C118.6,162.3 116.7,159.9 114,158 C112.2,156.7 110.7,154.9 108.9,153.7 C106.2,151.9 103.2,150.5 99.9,150 C97.3,149.6 94.8,148.9 92.2,148.5 C89,148.1 88.4,148.5 87.2,151.6 C86.2,154.4 85.8,157.4 84.5,160.1 C83.3,162.8 81.6,165.3 79.8,167.6 C78.4,169.4 76,169.8 73.7,169.8 C71.5,169.9 69.3,169.5 67.1,169.3 C66.8,169.3 66.3,168.6 66.2,168.1 C66,166.4 65.9,164.6 65.9,162.9 C65.8,158 65.9,153.1 65.5,148.3 C65,141.8 62.6,135.8 58.5,130.6 C57.1,128.8 55.4,127.1 53.6,125.7 C49.3,122.5 44.8,119.6 40.3,116.6 C38.8,115.6 37.2,114.5 35.8,113.4 C32.9,111.1 30.1,108.7 27.4,106.3 C26.4,105.4 25.6,104.3 24.6,103.4 C24.1,103 23.5,102.6 22.8,102.5 C19.2,101.9 15.8,100.7 12.6,99.2 C12.5,99.2 12.4,99.1 12.3,99 C9.6,96.7 6.6,94.7 4.3,92 C0.3,87.2 0.1,81.5 1.9,75.7 C3.9,69.5 8.1,65.2 14,62.5 C14.2,62.4 14.6,62.2 14.6,62.1 C14.9,60.8 16,60.3 16.8,59.5 C19.7,56.8 23.1,54.3 25.5,51.2 C28.9,46.7 31.6,41.8 32.9,36.2 C33.6,33 33.4,29.9 32.6,26.6 C31.1,20.3 30.1,13.9 29.9,7.4 C29.9,6.1 30,4.7 30.3,3.4 C30.8,1 32.8,1.21236354e-13 35.1,0.9 C36.1,1.3 37,1.8 37.9,2.2 C39.1,2.8 40.4,3.3 41.6,3.9 C42.7,4.5 43.8,5.1 44.7,5.8 C46.6,7.4 48.5,9 50.3,10.7 C50.9,11.3 51.5,11.9 52,12.6 C53.6,15 55.9,16.2 58.7,16.4 C61.8,16.6 64.9,16.7 68,16.8 C72.4,16.9 76.8,17.4 81,18.8 C81.6,19 82.3,19 82.9,19.2 C83.9,19.5 85,19.8 85.8,20.4 C89.2,22.7 92.6,25 96,27.4 C96.6,27.8 97,27.8 97.6,27.4 C101.1,24.9 104.6,22.4 108.2,20.1 C110.4,18.7 112.8,17.8 115.2,16.7 C116.4,16.1 117.7,15.8 119,15.4 C120.1,15.1 120.9,15.5 121.8,16.1 C124.7,17.8 124.7,20.6 124.9,23.4 C125.1,28.2 125.2,33 125.4,37.8 C125.5,38.2 125.5,38.6 125.5,38.8 Z M28.4,103.2 C28.3,103.3 28.2,103.4 28.2,103.5 C29.3,104.6 30.4,105.9 31.6,106.9 C36.3,110.8 41.2,114.4 46.4,117.7 C50,120 53.4,122.6 56.8,125.2 C58.2,126.3 59.5,127.7 60.6,129.1 C64.2,133.8 66.8,139 67.6,145 C68.1,149.2 68.2,153.4 68.4,157.6 C68.5,160.6 68.4,163.6 68.4,166.5 C70.6,167.7 72.6,167.9 74.7,167.4 C75.9,167.2 77.5,166.8 78.2,166 C79.8,164 81.3,161.8 82.3,159.5 C83.5,156.8 83.8,153.8 84.9,151.1 C86.6,146.9 87.1,146.1 91.3,146 C92.3,146 93.3,146.2 94.3,146.4 C95.8,146.7 97.3,147.3 98.8,147.4 C101.9,147.6 104.8,148.6 107.5,150 C108.4,150.4 109.3,150.8 110.1,151.4 C112,152.9 113.6,154.7 115.6,156 C118.7,158.2 120.8,160.9 122.6,164.2 C125.3,169.2 126.8,174.6 127.8,180.2 C129.2,187.5 130.6,194.8 133.1,201.8 C133.8,203.7 134.7,205.5 136.2,206.9 C137.5,208.2 138.9,208.6 140.5,207.5 C142.2,206.3 143.8,205 145.2,203.6 C150,198.7 154.7,193.8 159.5,188.8 C160,188.3 160.5,187.8 161.1,187.3 C162.7,186.1 164.4,184.9 165.9,183.7 C170.3,180.1 175.1,177.5 180.6,176.1 C186.8,174.5 191.9,176.5 196.4,180.7 C198.9,182.9 201.4,185.1 204.1,187 C206.2,188.4 208.1,189.9 209.7,191.8 C211.4,193.7 213,195.7 214.7,197.6 C216,199.1 217.5,200.2 219.7,199.5 C221.2,199 222.8,198.5 223.4,197 C224.7,193.9 226.6,191 227.5,187.7 C228.4,184.3 229.1,180.9 229.5,177.4 C229.6,176.6 229.5,175.9 229.5,175.1 C229.5,174.3 229.5,173.4 229.7,172.6 C230,171.4 230.5,170.2 230.7,168.9 C232.3,161.6 232.3,154 234.2,146.7 C234.6,145.2 234.8,143.6 235,142 C235.5,139 236.1,135.9 236.6,132.9 C236.3,132.8 236.2,132.7 236,132.7 C230.3,132.3 225.7,129.9 222.6,124.9 C222.3,124.3 221.9,124.3 221.4,124.5 C218.4,125.5 215.4,125.7 212.3,125.2 C211.3,125 210.1,124.8 209.3,124.2 C206.3,121.8 203.6,119.2 202.7,115.4 C201.9,112.3 202.7,109.4 204.2,106.7 C204.6,106 205.2,105.7 206,106.1 C206.8,106.5 206.7,107.2 206.3,107.9 C206.2,108.1 206,108.4 205.9,108.6 C204.9,110.9 204.3,113.2 205.3,115.6 C206.5,118.4 208.3,121 211,122.3 C214.1,123.9 217.6,123.3 221,122.2 C220.6,121.3 220.2,120.6 219.8,119.8 C217.3,114.5 219.4,108 222.6,104.8 C225,102.4 227.5,102.9 228.6,106.1 C230.5,111.8 230,117.2 225.8,121.9 C225.4,122.4 224.9,122.8 224.5,123.2 C226.9,127.9 231.9,130.5 236.9,130.3 C237,130 237,129.7 237.1,129.4 C237.4,124.7 237.8,120.1 238.1,115.4 C238.5,109.2 238,103 236,97 C234.9,93.6 234.3,90 233.3,86.6 C232.5,83.7 231.6,80.7 230.4,77.9 C229.4,75.7 227.8,73.9 226.5,71.9 C223.3,67.1 218.8,63.7 213.8,61.2 C209.2,58.9 204.6,56.5 199.6,55 C197.4,54.4 195.2,53.6 192.8,52.8 C192.8,53.5 192.9,53.9 192.9,54.4 C193.3,59.4 193.1,64.4 191.5,69.2 C190.6,72 189.8,74.9 187.3,76.9 C187.1,77.1 187,77.4 186.8,77.7 C188.2,78.3 189.5,78.8 190.8,79.4 C191.8,79.9 192.6,80.7 192.4,81.7 C192.2,82.5 191.5,83.4 190.8,83.8 C189.2,84.7 187.4,85.3 185.7,86.1 C185,86.4 184.2,86.7 183.5,87.2 C181.3,88.6 180.5,88.6 178.4,87.1 C175.5,85.1 172.6,83.1 169.6,81.3 C166.9,79.7 164.1,78.4 161.3,77 C159.1,75.9 156.9,74.9 154.8,73.9 C154,73.5 153.1,73.3 152.3,72.9 C149.7,71.7 147.1,70.6 144.2,70.2 C143.2,70.1 142.3,69.6 141.3,69.3 C138.9,68.6 136.5,68 134,67.3 C133.2,67.1 132.4,66.8 131.9,66.3 C131.5,65.9 131.4,64.8 131.7,64.5 C132.8,63.1 134.1,61.9 135.9,61.3 C137.5,60.8 139,60 140.6,59.3 C140.9,59.2 141.2,58.6 141.2,58.2 C140.9,54.5 142,51.2 143.6,48 C144.7,45.9 146.1,43.9 147.4,42 C147.9,41.2 148.7,40.5 149.3,39.7 C147,39.4 144.8,39 142.6,38.8 C138,38.5 133.4,39.2 129,40.4 C128.7,40.5 128.4,40.6 128.1,40.7 C126.7,41.4 125.1,41.7 125.3,43.9 C125.3,44.2 124.6,44.8 124.1,44.8 C123.8,44.8 123.2,44.2 123.1,43.8 C122.9,43.3 123,42.7 123,42.2 C122.8,35.2 122.6,28.2 122.4,21.2 C122.3,18.4 120.3,17.3 117.7,18.4 C117.2,18.6 116.7,18.9 116.1,19.1 C113.4,20.4 110.5,21.4 108.1,23.3 C105.7,25.2 103,26.8 100.5,28.6 C99.5,29.3 98.4,30 97.4,30.6 C96.7,31 96.1,30.9 95.5,30.3 C95.1,29.8 94.6,29.4 94,29 C92.2,27.7 90.2,26.6 88.5,25.2 C86,23.3 83.5,21.9 80.3,21.1 C76.3,20.1 72.2,19.4 68.1,19.3 C65,19.2 61.9,19.1 58.7,18.9 C55.7,18.7 52.9,17.7 51.1,15.3 C48.8,12.2 45.5,10.2 42.8,7.5 C42.3,7 41.7,6.6 41.1,6.3 C39.1,5.3 37,4.4 35,3.5 C33.3,2.7 32.6,3 32.5,4.8 C32.4,6.6 32.6,8.4 32.7,10.1 C33.1,16.7 34.2,23.2 36,29.6 C36.1,29.9 36.2,30.3 36.2,30.6 C36,32.2 35.9,33.7 35.6,35.3 C34.5,41.7 31.1,47.2 27.6,52.5 C26.9,53.5 25.9,54.3 25,55.1 C23.4,56.6 21.8,58.1 20.2,59.7 C20.6,59.9 20.8,59.9 21,59.8 C22.5,59.3 23.9,58.6 25.4,58.2 C26.8,57.8 28.4,57.7 29.9,57.5 C33.1,57.1 36.2,57.4 39.1,58.5 C39.5,58.7 40,58.8 40.4,58.9 C44.3,59.7 48.2,60.5 52.1,61.5 C56.5,62.6 60.5,64.7 64.6,66.6 C68.3,68.3 71.2,70.7 74,73.5 C75.5,75 76.4,76.8 77.1,78.8 C79.2,84.7 78.4,90.5 76.2,96.1 C75.7,97.4 74.9,98.9 73.8,99.7 C71.9,101.3 69.7,102.7 67.5,103.8 C64,105.6 60.1,106.2 56.2,106.4 C55.2,106.5 54.1,106.7 53.1,106.7 C50.5,106.5 47.9,106.3 45.3,105.9 C42.3,105.5 39.3,104.9 36.3,104.3 C33.7,104.2 31.1,103.7 28.4,103.2 Z M32.2,60.2 C30.8,60.3 29.5,60.4 28.2,60.5 C27.4,60.6 26.7,60.7 26.2,61.5 C26,61.7 25.4,61.9 25,62 C23.5,62.3 22,62.4 20.6,62.9 C18.6,63.5 16.5,64.2 14.6,65.1 C8.7,68 4.8,72.7 3.6,79.2 C2.9,83.2 3.3,87.4 6.2,90.6 C8.4,93 10.9,95.2 13.5,96.9 C15.5,98.2 18,98.9 20.4,99.5 C23.2,100.2 26.1,100.3 29,100.8 C34.8,101.8 40.6,103.1 46.4,104 C49.7,104.5 53,104.8 56.4,104.4 C60.5,104 64.5,103.3 68.1,101.2 C70.6,99.7 73,98.2 74.1,95.3 C75.2,92.4 75.8,89.4 75.9,86.3 C76.1,79.5 71.3,72.4 65.1,69.8 C63.6,69.2 62.1,68.5 60.7,67.8 C56,65.3 51,63.9 45.9,62.9 C43.5,62.4 41,62 38.6,61.4 C36.5,60.7 34.5,59.9 32.2,60.2 Z M153.6,60 C153.1,63 152.5,65.7 153.5,68.3 C153.9,69.5 154.7,70.7 155.7,71.4 C157.4,72.5 159.4,73.2 161.2,74 C163.2,74.9 165.2,75.9 167.1,76.9 C168.9,77.8 170.6,78.9 172.3,79.9 C174.1,78.6 175.9,77.3 177.6,76.1 C179.6,74.6 181.1,72.8 182,70.4 C182.6,68.8 183.4,67.3 183.8,65.6 C184.5,62.7 185.2,59.8 185.6,56.8 C186.1,53.3 184.8,50.1 183.8,46.8 C183.4,45.4 182.6,44.1 181.6,43 C180.1,41.3 178.5,39.7 176.8,38.3 C175.4,37.2 173.9,36.1 172.3,35.6 C169.6,34.8 166.7,34.5 163.8,35 C158.1,35.9 153.3,38.4 149.5,42.9 C147.3,45.4 145.8,48.3 144.6,51.4 C142.8,55.9 143.3,60.3 144.4,64.8 C144.6,65.7 144.9,66.7 145.2,67.6 C147,68.1 149,68.7 150.6,69.2 C150.6,66.9 150.3,64.5 150.7,62.3 C151.2,59.9 151.1,58.1 148.5,57.2 C148.5,57.2 148.4,57.2 148.4,57.1 C147.7,56.6 147.4,56 147.9,55.2 C148.4,54.5 149.1,54.7 149.8,55.1 C150.6,55.6 151.3,56.1 152.1,56.6 C152.4,56.1 152.6,55.7 152.9,55.3 C155,52 158.1,49.9 162,49.3 C162.9,49.1 163.8,49.3 164.7,49.1 C167.2,48.7 169.4,49.6 171.3,51 C171.7,51.3 171.9,52.1 171.8,52.6 C171.6,53.4 170.7,53.4 170.1,53 C168.2,51.8 166.2,51.5 163.9,51.6 C161.5,51.7 159.5,52.4 157.7,53.7 C156.2,54.7 155.1,56 154.4,57.8 C155.9,58.5 157.4,59 158.8,59.8 C160.2,60.5 161.6,61.4 162.8,62.3 C164,63.2 165.2,64.2 166.2,65.3 C166.7,65.8 166.5,66.7 165.8,67 C165.4,67.2 164.7,66.9 164.2,66.6 C163.9,66.5 163.7,66.1 163.5,65.9 C161.8,64.8 160.1,63.6 158.4,62.5 C157,61.7 155.4,61 153.6,60 Z M177.2,79.7 C182.5,79.3 185.5,76.3 187.5,72.7 C189.9,68.4 190.7,63.6 190.7,58.7 C190.7,54.6 190.4,50.4 189.1,46.4 C188.7,45.2 188.2,43.9 187.7,42.8 C187.3,41.8 186.6,40.9 186.2,39.9 C184.7,36.9 181.5,35.3 178,35.9 C178.2,36.1 178.4,36.3 178.6,36.5 C180.3,38.2 182.1,39.8 183.7,41.6 C185.8,43.9 186.5,46.8 187.4,49.6 C188.4,52.9 188.6,56.3 188.1,59.7 C187.4,64.1 185.7,68.2 184,72.2 C183.5,73.3 182.9,74.4 182.1,75.2 C180.4,76.8 178.7,78.2 177.2,79.7 Z M223.3,120.9 C223.5,120.7 223.6,120.7 223.7,120.6 C223.9,120.4 224.1,120.2 224.3,120 C227.5,116.4 227.9,112.2 226.6,107.7 C226.4,107 225.9,106.5 225.6,105.8 C225,106.2 224.3,106.5 223.9,107.1 C221.2,110.8 219.9,116 223.3,120.9 Z M176.3,82.5 C177.8,83.6 179.2,84.6 180.6,85.5 C180.8,85.7 181.3,85.6 181.6,85.5 C182.9,84.9 184.1,84.2 185.4,83.6 C186.8,83 188.1,82.4 189.8,81.6 C188,80.8 186.6,80.2 185.1,79.6 C184.9,79.5 184.4,79.6 184.2,79.8 C182.3,80.9 180.4,81.8 178.2,82 C177.6,82.1 177,82.3 176.3,82.5 Z M134.8,64.4 C134.9,64.5 134.9,64.6 135,64.8 C137.6,65.5 140.1,66.2 142.6,66.9 C142.1,65.2 141.7,63.5 141.3,61.9 C139,62.8 136.9,63.6 134.8,64.4 Z" id="Shape" fill="#000000"></path>
                    <path d="M28.4,103.2 C31.1,103.7 33.7,104.3 36.4,104.8 C39.4,105.4 42.4,106 45.4,106.4 C48,106.8 50.6,107 53.2,107.2 C54.2,107.3 55.3,107 56.3,106.9 C60.2,106.6 64.1,106 67.6,104.3 C69.8,103.2 72,101.8 73.9,100.2 C75,99.3 75.8,97.9 76.3,96.6 C78.5,90.9 79.3,85.2 77.2,79.3 C76.5,77.4 75.6,75.5 74.1,74 C71.4,71.2 68.4,68.8 64.7,67.1 C60.6,65.2 56.6,63.1 52.2,62 C48.3,61 44.4,60.3 40.5,59.4 C40,59.3 39.6,59.2 39.2,59 C36.2,57.9 33.1,57.6 30,58 C28.5,58.2 27,58.3 25.5,58.7 C24,59.1 22.6,59.7 21.1,60.3 C20.9,60.4 20.7,60.4 20.3,60.2 C21.9,58.7 23.5,57.2 25.1,55.6 C26,54.7 27,54 27.7,53 C31.2,47.6 34.6,42.2 35.7,35.8 C36,34.2 36.1,32.7 36.3,31.1 C36.3,30.8 36.2,30.4 36.1,30.1 C34.4,23.7 33.2,17.2 32.8,10.6 C32.7,8.8 32.6,7 32.6,5.3 C32.7,3.5 33.4,3.2 35.1,4 C37.1,5 39.2,5.9 41.2,6.8 C41.8,7.1 42.4,7.5 42.9,8 C45.6,10.6 48.9,12.6 51.2,15.8 C53,18.2 55.8,19.3 58.8,19.4 C61.9,19.6 65,19.7 68.2,19.8 C72.4,19.9 76.4,20.6 80.4,21.6 C83.5,22.3 86.1,23.7 88.6,25.7 C90.4,27.1 92.3,28.2 94.1,29.5 C94.6,29.9 95.1,30.3 95.6,30.8 C96.2,31.4 96.8,31.5 97.5,31.1 C98.5,30.4 99.6,29.8 100.6,29.1 C103.2,27.4 105.8,25.7 108.2,23.8 C110.6,21.9 113.5,20.9 116.2,19.6 C116.7,19.4 117.2,19.1 117.8,18.9 C120.4,17.8 122.4,19 122.5,21.7 C122.8,28.7 122.9,35.7 123.1,42.7 C123.1,43.2 123,43.8 123.2,44.3 C123.4,44.7 123.9,45.3 124.2,45.3 C124.6,45.3 125.4,44.6 125.4,44.4 C125.1,42.2 126.8,41.9 128.2,41.2 C128.5,41.1 128.8,41 129.1,40.9 C133.6,39.8 138.1,39.1 142.7,39.3 C144.9,39.4 147.1,39.9 149.4,40.2 C148.7,41 148,41.7 147.5,42.5 C146.2,44.5 144.7,46.4 143.7,48.5 C142.1,51.7 141,55 141.3,58.7 C141.3,59.1 141,59.6 140.7,59.8 C139.2,60.5 137.6,61.3 136,61.8 C134.2,62.4 132.9,63.6 131.8,65 C131.5,65.4 131.7,66.5 132,66.8 C132.5,67.3 133.4,67.6 134.1,67.8 C136.5,68.5 138.9,69.1 141.4,69.8 C142.4,70.1 143.3,70.5 144.3,70.7 C147.2,71.1 149.8,72.2 152.4,73.4 C153.2,73.8 154.1,74 154.9,74.4 C157.1,75.4 159.3,76.5 161.4,77.5 C164.2,78.9 167,80.2 169.7,81.8 C172.7,83.6 175.6,85.6 178.5,87.6 C180.6,89.1 181.4,89.2 183.6,87.7 C184.3,87.3 185,86.9 185.8,86.6 C187.5,85.8 189.3,85.2 190.9,84.3 C191.6,83.9 192.3,83 192.5,82.2 C192.7,81.2 191.9,80.3 190.9,79.9 C189.6,79.3 188.3,78.8 186.9,78.2 C187.1,77.9 187.2,77.6 187.4,77.4 C189.9,75.4 190.7,72.5 191.6,69.7 C193.1,64.9 193.4,59.9 193,54.9 C193,54.4 192.9,54 192.9,53.3 C195.3,54.1 197.5,54.9 199.7,55.5 C204.7,56.9 209.3,59.4 213.9,61.7 C219,64.2 223.4,67.6 226.6,72.4 C227.9,74.4 229.5,76.3 230.5,78.4 C231.8,81.2 232.6,84.1 233.4,87.1 C234.4,90.6 235,94.1 236.1,97.5 C238.1,103.5 238.5,109.6 238.2,115.9 C237.9,120.6 237.5,125.2 237.2,129.9 C237.2,130.2 237.1,130.5 237,130.8 C231.9,131.1 227,128.5 224.6,123.7 C225,123.3 225.5,122.9 225.9,122.4 C230.2,117.7 230.7,112.3 228.7,106.6 C227.6,103.5 225.1,102.9 222.7,105.3 C219.5,108.5 217.4,115 219.9,120.3 C220.3,121.1 220.6,121.8 221.1,122.7 C217.7,123.8 214.2,124.4 211.1,122.8 C208.5,121.5 206.6,119 205.4,116.1 C204.4,113.7 205.1,111.4 206,109.1 C206.1,108.9 206.2,108.6 206.4,108.4 C206.7,107.7 206.8,107 206.1,106.6 C205.4,106.2 204.7,106.5 204.3,107.2 C202.8,109.9 202,112.8 202.8,115.9 C203.8,119.7 206.5,122.4 209.4,124.7 C210.2,125.3 211.4,125.6 212.4,125.7 C215.5,126.2 218.5,126 221.5,125 C222,124.8 222.4,124.8 222.7,125.4 C225.8,130.4 230.4,132.8 236.1,133.2 C236.2,133.2 236.4,133.3 236.7,133.4 C236.2,136.5 235.6,139.5 235.1,142.5 C234.8,144.1 234.7,145.7 234.3,147.2 C232.4,154.5 232.4,162.1 230.8,169.4 C230.5,170.6 230,171.8 229.8,173.1 C229.6,173.9 229.6,174.8 229.6,175.6 C229.6,176.4 229.7,177.2 229.6,177.9 C229.2,181.4 228.5,184.8 227.6,188.2 C226.7,191.5 224.8,194.4 223.5,197.5 C222.9,199 221.3,199.5 219.8,200 C217.6,200.7 216.1,199.6 214.8,198.1 C213.1,196.2 211.5,194.2 209.8,192.3 C208.2,190.4 206.3,188.9 204.2,187.5 C201.5,185.6 198.9,183.5 196.5,181.2 C191.9,177.1 186.9,175 180.7,176.6 C175.2,178 170.4,180.6 166,184.2 C164.4,185.5 162.8,186.6 161.2,187.8 C160.6,188.2 160.1,188.8 159.6,189.3 C154.8,194.2 150.1,199.2 145.3,204.1 C143.9,205.5 142.2,206.8 140.6,208 C139.1,209.1 137.7,208.7 136.3,207.4 C134.8,206 133.9,204.2 133.2,202.3 C130.7,195.3 129.3,188 127.9,180.7 C126.8,175.1 125.4,169.7 122.7,164.7 C120.9,161.4 118.8,158.7 115.7,156.5 C113.8,155.1 112.1,153.4 110.2,151.9 C109.4,151.3 108.5,150.9 107.6,150.5 C104.9,149.1 102,148.1 98.9,147.9 C97.4,147.8 95.9,147.2 94.4,146.9 C93.4,146.7 92.4,146.5 91.4,146.5 C87.3,146.5 86.7,147.4 85,151.6 C83.9,154.3 83.5,157.3 82.4,160 C81.4,162.3 79.9,164.5 78.3,166.5 C77.6,167.4 76.1,167.7 74.8,167.9 C72.7,168.3 70.7,168.2 68.5,167 C68.5,164.2 68.6,161.1 68.5,158.1 C68.3,153.9 68.2,149.7 67.7,145.5 C66.9,139.6 64.3,134.4 60.7,129.6 C59.6,128.2 58.4,126.8 56.9,125.7 C53.5,123.1 50.1,120.5 46.5,118.2 C41.4,114.9 36.4,111.3 31.7,107.4 C30.5,106.4 29.4,105.1 28.3,104 C28.2,103.4 28.3,103.3 28.4,103.2 Z M60.5,54.9 C60.5,53.6 59.5,52.7 58.1,52.6 C57.1,52.6 56.5,53.4 56.5,54.9 C56.5,56.2 57.6,57.3 58.8,57.3 C59.9,57.2 60.5,56.3 60.5,54.9 Z M44.3,51.4 C44.1,51.2 43.9,50.5 43.4,50.3 C43,50.1 42.1,50.2 42,50.4 C41.5,51.2 41,52.1 40.8,53.1 C40.7,53.4 41.5,54 41.9,54.2 C43.2,54.6 44.3,53.4 44.3,51.4 Z" id="Shape" fill="#FFFFFF"></path>
                    <path d="M32.2,60.2 C34.5,59.9 36.5,60.7 38.7,61.3 C41.1,61.9 43.5,62.3 46,62.8 C51.1,63.8 56.1,65.3 60.8,67.7 C62.2,68.5 63.7,69.1 65.2,69.7 C71.5,72.3 76.2,79.5 76,86.2 C75.9,89.3 75.3,92.3 74.2,95.2 C73.1,98.1 70.7,99.7 68.2,101.1 C64.6,103.2 60.6,103.9 56.5,104.3 C53.1,104.7 49.8,104.4 46.5,103.9 C40.7,103 34.9,101.8 29.1,100.7 C26.2,100.2 23.3,100 20.5,99.4 C18.1,98.8 15.6,98.1 13.6,96.8 C10.9,95.1 8.4,92.9 6.3,90.5 C3.4,87.3 3,83.2 3.7,79.1 C4.9,72.6 8.7,67.9 14.7,65 C16.6,64.1 18.6,63.4 20.7,62.8 C22.1,62.4 23.6,62.3 25.1,61.9 C25.5,61.8 26.1,61.7 26.3,61.3 C26.8,60.5 27.5,60.4 28.3,60.3 C29.5,60.3 30.8,60.3 32.2,60.2 Z M23.4,81.1 C23.4,81.1 23.5,81.1 23.5,81.1 C23.5,81.8 23.4,82.5 23.4,83.2 C23.4,83.9 23.9,84.6 24.6,84.4 C25.1,84.3 25.6,83.7 25.8,83.3 C26,82.8 25.9,82.1 25.9,81.5 C26.1,79.5 26.4,77.6 26.6,75.6 C26.7,74.8 26.6,74 25.5,73.9 C24.5,73.8 24.3,74.6 24.2,75.3 C24,77.2 23.7,79.2 23.4,81.1 Z M51.4,82.6 C51.4,81.8 51.5,81.2 51.4,80.6 C51.3,79.9 50.9,79.4 50.1,79.4 C49.3,79.5 49,80 48.9,80.7 C48.8,82.4 48.7,84.2 48.7,85.9 C48.7,86.8 48.7,87.6 49.8,87.7 C50.8,87.8 51.1,87 51.1,86.1 C51.3,85 51.3,83.7 51.4,82.6 Z" id="Shape" fill="#FFFFFF"></path>
                    <path d="M153.6,60 C155.4,60.9 157.1,61.7 158.6,62.6 C160.4,63.6 162,64.8 163.7,66 C164,66.2 164.1,66.6 164.4,66.7 C164.9,66.9 165.6,67.2 166,67.1 C166.7,66.8 166.9,65.9 166.4,65.4 C165.3,64.3 164.2,63.3 163,62.4 C161.7,61.5 160.4,60.6 159,59.9 C157.6,59.2 156.1,58.6 154.6,57.9 C155.2,56.2 156.4,54.8 157.9,53.8 C159.8,52.5 161.8,51.8 164.1,51.7 C166.4,51.6 168.4,51.9 170.3,53.1 C170.9,53.5 171.7,53.4 172,52.7 C172.1,52.3 171.9,51.4 171.5,51.1 C169.5,49.7 167.4,48.8 164.9,49.2 C164,49.3 163.1,49.2 162.2,49.4 C158.3,50.1 155.3,52.1 153.1,55.4 C152.9,55.8 152.6,56.2 152.3,56.7 C151.5,56.2 150.7,55.7 150,55.2 C149.4,54.8 148.7,54.6 148.1,55.3 C147.6,56.1 148,56.7 148.6,57.2 C148.6,57.2 148.7,57.3 148.7,57.3 C151.2,58.2 151.3,60 150.9,62.4 C150.5,64.7 150.8,67.1 150.8,69.3 C149.1,68.8 147.1,68.2 145.4,67.7 C145.1,66.7 144.8,65.8 144.6,64.9 C143.6,60.4 143,55.9 144.8,51.5 C146,48.4 147.6,45.6 149.7,43 C153.5,38.5 158.2,36 164,35.1 C166.9,34.6 169.8,34.9 172.5,35.7 C174.1,36.2 175.7,37.3 177,38.4 C178.7,39.8 180.3,41.4 181.8,43.1 C182.7,44.2 183.6,45.5 184,46.9 C185,50.1 186.3,53.4 185.8,56.9 C185.4,59.9 184.7,62.8 184,65.7 C183.6,67.3 182.8,68.9 182.2,70.5 C181.3,72.8 179.8,74.7 177.8,76.2 C176,77.5 174.3,78.7 172.5,80 C170.8,79 169.1,78 167.3,77 C165.4,76 163.4,75 161.4,74.1 C159.6,73.2 157.6,72.6 155.9,71.5 C154.9,70.8 154.1,69.6 153.7,68.4 C152.5,65.7 153,63.1 153.6,60 Z" id="Shape" fill="#FFFFFF"></path>
                    <path d="M177.2,79.7 C178.8,78.3 180.5,76.8 182,75.2 C182.8,74.4 183.5,73.3 183.9,72.2 C185.6,68.1 187.3,64.1 188,59.7 C188.5,56.3 188.3,52.9 187.3,49.6 C186.4,46.7 185.7,43.8 183.6,41.6 C182,39.8 180.2,38.2 178.5,36.5 C178.3,36.3 178.1,36.1 177.9,35.9 C181.4,35.3 184.6,36.9 186.1,39.9 C186.6,40.9 187.2,41.8 187.6,42.8 C188.1,44 188.6,45.2 189,46.4 C190.3,50.4 190.5,54.5 190.6,58.7 C190.7,63.6 189.8,68.4 187.4,72.7 C185.4,76.3 182.5,79.2 177.2,79.7 Z" id="Shape" fill="#FFFFFF"></path>
                    <path d="M223.3,120.9 C219.9,116 221.2,110.8 223.9,107.1 C224.3,106.6 225,106.2 225.6,105.8 C226,106.4 226.4,107 226.6,107.7 C227.8,112.2 227.5,116.4 224.3,120 C224.1,120.2 223.9,120.4 223.7,120.6 C223.6,120.7 223.5,120.7 223.3,120.9 Z" id="Shape" fill="#FFFFFF"></path>
                    <path d="M176.3,82.5 C177,82.3 177.6,82.1 178.2,82 C180.4,81.8 182.3,80.9 184.2,79.8 C184.5,79.6 184.9,79.5 185.1,79.6 C186.6,80.2 188,80.8 189.8,81.6 C188.1,82.3 186.8,82.9 185.4,83.6 C184.1,84.2 182.9,84.9 181.6,85.5 C181.3,85.6 180.8,85.7 180.6,85.5 C179.2,84.6 177.8,83.6 176.3,82.5 Z" id="Shape" fill="#FFFFFF"></path>
                    <path d="M134.8,64.4 C136.9,63.6 139.1,62.7 141.2,61.9 C141.6,63.5 142.1,65.2 142.5,66.9 C140,66.2 137.5,65.5 134.9,64.8 C134.9,64.7 134.8,64.6 134.8,64.4 Z" id="Shape" fill="#FFFFFF"></path>
                    <path d="M60.5,54.9 C60.5,56.3 59.8,57.3 58.8,57.3 C57.6,57.3 56.5,56.2 56.5,54.9 C56.5,53.4 57.1,52.6 58.1,52.6 C59.6,52.6 60.5,53.5 60.5,54.9 Z" id="Shape" fill="#000000"></path>
                    <path d="M44.3,51.4 C44.3,53.4 43.2,54.6 41.9,54.2 C41.4,54 40.7,53.4 40.8,53.1 C41,52.2 41.4,51.2 42,50.4 C42.2,50.1 43.1,50.1 43.4,50.3 C43.9,50.5 44.1,51.2 44.3,51.4 Z" id="Shape" fill="#000000"></path>
                    <path d="M51.4,82.6 C51.3,83.7 51.2,85 51.1,86.2 C51,87 50.8,87.8 49.8,87.8 C48.7,87.7 48.7,86.8 48.7,86 C48.8,84.3 48.9,82.5 48.9,80.8 C48.9,80.1 49.3,79.5 50.1,79.5 C50.9,79.5 51.3,79.9 51.4,80.7 C51.5,81.2 51.4,81.8 51.4,82.6 Z" id="Shape" fill="#000000"></path>
                </g>
            </g>
        </g>
    </g>
</svg>