<?xml version="1.0" encoding="utf-8"?>
<!-- Generator: Adobe Illustrator 24.0.1, SVG Export Plug-In . SVG Version: 6.00 Build 0)  -->
<svg version="1.1" xmlns="http://www.w3.org/2000/svg" xmlns:xlink="http://www.w3.org/1999/xlink" x="0px" y="0px"
	 viewBox="0 0 156.8 136.3" style="enable-background:new 0 0 156.8 136.3;" xml:space="preserve">
<style type="text/css">
	.st0{fill:#B7D6E2;}
	.st1{fill:#DDDDDD;}
	.st2{fill:#FFFFFF;}
</style>
<g id="Calque_2">
	<g>
		<path class="st0" d="M45.3,58.5c-8.9,0.3-16.5,9.2-15.4,18.1c0.9,6.9,6.1,12.4,11,17.3c6.7,6.8,13.7,13.7,22.3,17.6
			c14.5,6.7,31.4,4.2,47.2,1.6c5.2-0.9,10.8-2,14.2-5.9c1.9-2.2,2.9-5.1,3.7-8c1.6-5.5,2.7-11.1,3.5-16.7c0.8-6.1,1.1-12.6-0.9-18.4
			c-4.4-12.4-20.7-18.9-32.4-12.9"/>
	</g>
</g>
<g id="Calque_1">
	<g>
		<path d="M60.9,29.7c2.4-0.8,4.7-1.6,7-2.3c5.8-1.7,11.7-3.1,17.6-4.3c2.6-0.5,2.8-0.4,3.7,2c0.4,1.1,0.8,2.2,1.2,3.2
			c1,0,2.1,0.2,3.1,0c2.6-0.6,5.3-0.5,8-0.6c2.9-0.1,5.8-0.3,8.7-0.4c1.4,0,2.9,0,4.3,0.1c1,0,2.1,0.1,3.1,0.2
			c1.2,0.1,2.5,0.2,3.7,0.5c1.5,0.3,2.6,1.1,2.5,2.9c0,0.2,0,0.3,0.1,0.5c1.1,3,0.5,6,0.4,9c-0.1,1.8-0.1,3.6-0.1,5.4
			c-0.1,6.1-0.2,12.2-0.4,18.4c-0.2,5.9-0.5,11.7-0.8,17.6c-0.1,2-0.3,4.1-0.4,6.1c-0.1,1.2,0,2.5-0.1,3.7c-0.1,2.2-0.2,4.5-0.3,6.7
			c-0.1,1.9-0.6,2.7-2.4,3.2c-0.2,0-0.3,0.1-0.6,0.1c-0.1,0.9-0.3,1.8-0.3,2.7c-0.1,1.1-0.5,1.5-1.6,1.5c-0.9,0-1.7,0.1-2.6,0.1
			c-0.6,0-1.1,0.1-1.7,0.1c-4.6,0.1-9.3,0.3-13.9,0.2c-3.6,0-7.1-0.3-10.7-0.4c-2.5-0.1-5-0.2-7.5-0.4c-2.3-0.2-4.6-0.4-6.9-0.5
			c-1.3-0.1-2.6-0.2-3.8-0.3c-1.7-0.1-3.4-0.2-5.1-0.3c-2-0.1-2.6-0.7-2.5-2.8c0-0.6,0.1-1.2-0.1-1.9c-0.2,0.3-0.5,0.6-0.7,0.9
			c-0.5,0.6-1.1,0.6-1.7,0.1c-1.9-1.9-3.7-3.7-5.5-5.7c-3-3.3-5.8-6.6-8.7-9.9c-0.1-0.1-0.2-0.2-0.2-0.3c-2.1-3.4-5.1-6.1-7.2-9.6
			c-1.8-3-4-5.9-6-8.8c-1.6-2.3-3.1-4.6-4.7-7c-0.2-0.3-0.4-0.7-0.7-1c-1.6-1.7-2.7-3.7-3.7-5.7c-0.1-0.2-0.2-0.4-0.3-0.5
			c-0.6-1-0.6-1.2,0.2-2c1.3-1.2,2.6-2.4,3.9-3.5c2.3-2,4.6-4,6.9-6c1.5-1.2,3-2.4,4.5-3.5c0.3-0.3,0.7-0.5,1.1-0.8
			c2.1-2,4.4-3.6,6.6-5.4c2.3-1.8,4.9-3.3,7.4-4.8c0.9-0.6,1.9-0.6,2.8,0.1c1,0.7,2,1.5,2.9,2.2C60,28.8,60.4,29.3,60.9,29.7z
			 M116.9,103.7c0.1-0.5,0.3-0.9,0.3-1.3c0.3-3,0.6-6,0.8-9c0.3-3.8,0.6-7.7,0.9-11.5c0.1-1.8,0.3-3.7,0.2-5.5
			c0-4.1-0.3-8.2,0.5-12.2c0-0.2,0-0.3,0-0.5c0.2-3.9,0.5-7.7,0.7-11.6c0.1-1.7,0.4-3.3,0.5-5c0.2-2.4,0.3-4.7,0.4-7.1
			c0.1-1.7,0-3.4-0.2-5.2c-1.3-0.1-2.6-0.2-3.9-0.3c-2.4-0.1-4.9,0-7.3-0.2c-4.4-0.3-8.9-0.6-13.3-1c-2.2-0.2-4.4-0.6-6.5-0.7
			c-3.8-0.2-7.6,0-11.4,0.3c-1.7,0.1-3.5-0.2-5.2-0.4c-0.2,0-0.3-0.1-0.4-0.2c-1-0.4-2-0.3-3.1-0.1c-0.1,0.4-0.2,0.7-0.2,1
			c-0.4,2.9-0.8,5.8-1.2,8.7c-0.3,1.8-0.6,3.6-0.8,5.4c-0.4,4-0.8,8-1.2,11.9c-0.4,3.9-1.1,7.8-1.1,11.7c0,2.2-0.1,4.5-0.2,6.7
			c-0.2,3.2-0.3,6.4-0.2,9.6c0.1,4.2,0.2,8.4-0.2,12.6c-0.1,0.7-0.1,1.5-0.2,2.3c0.6,0.1,1.1,0.2,1.5,0.2c3.5,0.3,7,0.6,10.5,0.8
			c4.3,0.3,8.5,0.6,12.8,0.8c4.8,0.2,9.6,0.5,14.4,0.2c2.9-0.2,5.9,0,8.9-0.1C114,104,115.4,103.8,116.9,103.7z M55,27.7
			c-0.4,0.2-0.8,0.4-1.2,0.6c-0.7,0.5-1.5,0.9-2.2,1.4c-2.7,1.9-5.4,3.5-7.9,5.6c-2.3,1.9-4.6,3.7-6.9,5.5c-2,1.6-4,3.2-5.9,4.9
			c-1.5,1.2-2.9,2.5-4.3,3.8c-0.6,0.5-1.1,1.1-1.7,1.7c0.6,1.6,1.5,3.1,2.4,4.4c1.7,2.5,3.6,4.9,5.3,7.4c2.4,3.4,4.7,6.9,7,10.3
			c0.7,1,1.3,2,2,3c1.7,2.4,4,4.4,5.5,7c0,0.1,0.1,0.1,0.2,0.2c3.1,3.5,6.1,7,9.2,10.4c1.4,1.5,2.8,2.9,4.3,4.4
			c0.8-0.6,1.5-1.1,2.3-1.7c-0.3-2.3,0.5-4.8-0.9-7.2c-0.6-1.1-1.1-2.4-1.6-3.6c-1.1-2.5-2.3-4.9-3.3-7.5c-1.9-4.8-3.5-9.8-5.8-14.4
			c-0.3-0.6-0.6-1.3-0.8-2c-0.9-2.5-1.7-5-2.8-7.4c-1-2.3-1.8-4.7-2.6-7.1c-0.8-2.5-1.7-4.9-2.2-7.5c-0.6-2.9,0.1-3.1,2.1-4.1
			c1.5-0.8,3.1-1.4,4.7-2.1c1.4-0.6,2.8-1.2,4.2-1.7c1.4-0.6,2.9-1.1,4.5-1.7C57.5,29.2,56.5,28.3,55,27.7z M44.7,38.3
			c0.5,2,1,3.9,1.6,5.7c1.2,4.4,3.1,8.6,4.6,13c0.4,1.2,1,2.4,1.5,3.7c0.3,0.8,0.5,1.6,0.9,2.3c2.3,4.6,3.9,9.4,5.7,14.1
			c0.9,2.4,2,4.7,3,7.1c0.2,0.4,0.4,0.7,0.8,1.3c0.1-1.8,0.2-3.3,0.2-4.8c0.1-2.2,0-4.3,0.1-6.5c0.1-2.3,0.2-4.6,0.4-6.9
			c0.3-2.8,0.6-5.6,1-8.3c0.7-5.4,1-10.9,1.9-16.3c0.6-3.5,1-7.1,1.5-10.7c0.1-0.9,0.6-1.6,1.6-1.7c0.6-0.1,1.3-0.2,1.9-0.2
			c1.2,0.1,2.5,0.3,3.7,0.3c4.4,0,8.7-0.8,13-1.5c0.1,0,0.2-0.1,0.4-0.3c-0.5-1.2-1-2.5-1.4-3.7c-0.3,0-0.5,0.1-0.7,0.1
			c-2,0.4-4,0.9-6,1.3c-5,1-9.9,2.4-14.8,4c-1.6,0.5-3.3,1.1-4.9,1.6c-4.7,1.4-9.2,3.2-13.6,5.2C46.2,37.5,45.5,37.9,44.7,38.3z
			 M121.7,30.4c-0.4-0.2-0.9-0.4-1.4-0.5c-2.5-0.2-5.1-0.4-7.6-0.6c-0.8-0.1-1.5,0-2.3,0c-2.7,0.1-5.4,0.4-8.1,0.4
			c-3.6,0-7.2,0.4-11,0.9c0.4,0.1,0.6,0.2,0.8,0.2c2.9,0.3,5.9,0.8,8.8,1c5.3,0.3,10.5,0.5,15.8,0.7c1.8,0.1,3.6,0.2,5.4,0.3
			C122.1,32.1,121.9,31.3,121.7,30.4z M120.5,86.4c-0.3,4.3-0.5,8.6-0.8,13.1c0.3-0.2,0.5-0.4,0.5-0.5
			C120.6,94.8,120.8,90.6,120.5,86.4z M121.3,75.2c0.2-3.9,0.7-7.7,0.5-11.8C121,67.5,120.9,71.3,121.3,75.2z"/>
		<path class="st2" d="M116.9,103.7c-1.5,0.1-2.9,0.4-4.4,0.4c-3,0.1-5.9,0-8.9,0.1c-4.8,0.2-9.6,0-14.4-0.2
			c-4.3-0.2-8.5-0.5-12.8-0.8c-3.5-0.2-7-0.5-10.5-0.8c-0.5,0-0.9-0.1-1.5-0.2c0.1-0.8,0.1-1.6,0.2-2.3c0.4-4.2,0.3-8.4,0.2-12.6
			c0-3.2,0-6.4,0.2-9.6c0.1-2.2,0.2-4.5,0.2-6.7c0-3.9,0.7-7.8,1.1-11.7c0.4-4,0.8-8,1.2-11.9c0.2-1.8,0.6-3.6,0.8-5.4
			c0.4-2.9,0.8-5.8,1.2-8.7c0-0.3,0.1-0.6,0.2-1c1-0.2,2-0.3,3.1,0.1c0.1,0.1,0.3,0.2,0.4,0.2c1.7,0.2,3.5,0.5,5.2,0.4
			c3.8-0.2,7.6-0.4,11.4-0.3c2.2,0.1,4.4,0.6,6.5,0.7c4.4,0.4,8.8,0.7,13.3,1c2.4,0.1,4.9,0.1,7.3,0.2c1.3,0,2.5,0.2,3.9,0.3
			c0.2,1.8,0.3,3.5,0.2,5.2c-0.1,2.4-0.2,4.7-0.4,7.1c-0.1,1.7-0.4,3.3-0.5,5c-0.3,3.9-0.5,7.7-0.7,11.6c0,0.2,0,0.3,0,0.5
			c-0.8,4-0.5,8.1-0.5,12.2c0,1.8-0.1,3.7-0.2,5.5c-0.3,3.8-0.5,7.7-0.9,11.5c-0.2,3-0.6,6-0.8,9C117.2,102.7,117,103.1,116.9,103.7
			z M107.4,56.3c0.1-1.7-0.1-3.3-0.6-4.9c-0.7-2.1-1.8-3.9-3.6-5.1c-1.6-1-3.3-1.7-5.1-2.4c-1.6-0.6-3.3-1.1-4.9-1.5
			c-0.8-0.2-1.7-0.4-2.5-0.1c-1.7,0.6-3.4,1.2-4.8,2.1c-2.9,2-5.1,4.8-6.9,7.9c-1,1.7-1.3,3.5-1,5.4c0.2,1.1,0.4,2.2,0.7,3.3
			c0.4,1.9,1.3,3.5,3,4.6c0.5,0.3,1.1,0.7,1.5,1.2c1.4,1.5,3.3,1.9,5,2.6c0,0,0.1,0,0.1,0c4,0.4,7.7,0,11.4-1.9
			c2.6-1.4,4.6-3.1,6.2-5.5c0.7-1.1,1.1-2.2,1.3-3.4C107.3,57.8,107.3,57,107.4,56.3z"/>
		<path class="st2" d="M55,27.7c1.4,0.6,2.5,1.5,3.5,2.7C57,31,55.5,31.5,54.1,32c-1.4,0.5-2.8,1.1-4.2,1.7
			c-1.6,0.7-3.2,1.3-4.7,2.1c-2,1-2.6,1.2-2.1,4.1c0.5,2.6,1.4,5,2.2,7.5c0.8,2.4,1.6,4.8,2.6,7.1c1.1,2.4,1.9,4.9,2.8,7.4
			c0.3,0.7,0.5,1.4,0.8,2c2.3,4.7,3.9,9.6,5.8,14.4c1,2.5,2.2,5,3.3,7.5c0.5,1.2,0.9,2.5,1.6,3.6c1.3,2.3,0.5,4.8,0.9,7.2
			c-0.8,0.6-1.5,1.1-2.3,1.7c-1.4-1.5-2.9-2.8-4.3-4.4c-3.1-3.4-6.1-6.9-9.2-10.4c-0.1-0.1-0.1-0.1-0.2-0.2c-1.5-2.6-3.8-4.6-5.5-7
			c-0.7-1-1.3-2-2-3c-2.3-3.5-4.6-6.9-7-10.3c-1.7-2.5-3.6-4.9-5.3-7.4c-0.9-1.3-1.8-2.7-2.4-4.4c0.6-0.6,1.1-1.2,1.7-1.7
			c1.4-1.3,2.9-2.6,4.3-3.8c2-1.7,3.9-3.3,5.9-4.9c2.3-1.9,4.7-3.6,6.9-5.5c2.4-2.1,5.2-3.8,7.9-5.6c0.7-0.5,1.5-1,2.2-1.4
			C54.2,28.1,54.6,27.9,55,27.7z"/>
		<path class="st2" d="M44.7,38.3c0.8-0.4,1.5-0.9,2.2-1.2c4.4-2.1,9-3.8,13.6-5.2c1.6-0.5,3.3-1.1,4.9-1.6c4.9-1.6,9.8-2.9,14.8-4
			c2-0.4,4-0.9,6-1.3c0.2,0,0.4-0.1,0.7-0.1c0.5,1.2,1,2.5,1.4,3.7c-0.2,0.2-0.3,0.3-0.4,0.3c-4.3,0.6-8.6,1.5-13,1.5
			c-1.2,0-2.5-0.2-3.7-0.3c-0.6,0-1.3,0.1-1.9,0.2c-1,0.1-1.4,0.8-1.6,1.7c-0.5,3.6-0.9,7.1-1.5,10.7c-0.9,5.4-1.2,10.9-1.9,16.3
			c-0.4,2.8-0.7,5.6-1,8.3c-0.2,2.3-0.3,4.6-0.4,6.9C63,76.4,63,78.6,63,80.7c0,1.5-0.1,3-0.2,4.8c-0.4-0.6-0.6-1-0.8-1.3
			c-1-2.3-2.1-4.7-3-7.1c-1.9-4.7-3.5-9.5-5.7-14.1c-0.4-0.7-0.6-1.6-0.9-2.3c-0.5-1.2-1-2.4-1.5-3.7c-1.5-4.3-3.4-8.5-4.6-13
			C45.7,42.2,45.2,40.3,44.7,38.3z"/>
		<path class="st2" d="M121.7,30.4c0.2,0.9,0.3,1.7,0.5,2.5c-1.8-0.1-3.6-0.3-5.4-0.3c-5.3-0.2-10.5-0.4-15.8-0.7
			c-2.9-0.2-5.9-0.6-8.8-1c-0.2,0-0.5-0.1-0.8-0.2c3.8-0.5,7.3-0.9,11-0.9c2.7,0,5.4-0.3,8.1-0.4c0.8,0,1.5,0,2.3,0
			c2.5,0.2,5.1,0.4,7.6,0.6C120.9,30,121.3,30.2,121.7,30.4z"/>
		<path class="st2" d="M120.5,86.4c0.3,4.2,0.2,8.4-0.3,12.7c0,0.1-0.3,0.2-0.5,0.5C119.9,95,120.2,90.7,120.5,86.4z"/>
		<path class="st2" d="M121.3,75.2c-0.3-3.9-0.3-7.8,0.5-11.8C122,67.5,121.5,71.4,121.3,75.2z"/>
		<path d="M107.4,56.3c0,0.8-0.1,1.5-0.2,2.3c-0.2,1.2-0.6,2.4-1.3,3.4c-1.6,2.3-3.7,4.1-6.2,5.5c-3.6,1.9-7.4,2.4-11.4,1.9
			c0,0-0.1,0-0.1,0c-1.8-0.7-3.7-1.1-5-2.6c-0.4-0.5-0.9-0.9-1.5-1.2c-1.7-1.1-2.6-2.7-3-4.6c-0.3-1.1-0.5-2.2-0.7-3.3
			c-0.3-1.9,0-3.8,1-5.4c1.8-3.1,4-5.9,6.9-7.9c1.4-1,3.1-1.6,4.8-2.1c0.7-0.2,1.7-0.1,2.5,0.1c1.7,0.4,3.3,0.9,4.9,1.5
			c1.7,0.7,3.5,1.4,5.1,2.4c1.8,1.2,2.9,3.1,3.6,5.1C107.2,53,107.4,54.6,107.4,56.3z M105.3,56C105.3,56,105.3,56,105.3,56
			c0-0.2,0-0.3,0-0.5c0-4.4-1.9-7.6-6.2-9.1c-2-0.7-4.1-1.3-6.2-1.9c-0.6-0.2-1.4-0.5-1.9-0.3c-1.5,0.5-3,1.1-4.2,1.9
			c-2.5,1.7-4.3,4.2-5.9,6.7c-1,1.6-1.3,3.3-0.8,5.2c0.1,0.5,0.2,0.9,0.3,1.4c0.3,2.1,1.3,3.6,3.1,4.9c1.4,1,2.7,2.1,4.4,2.7
			c0.3,0.1,0.5,0.2,0.8,0.3c1.5,0,3,0.2,4.4,0c2.1-0.2,4-0.8,5.9-1.8c2.2-1.1,3.9-2.7,5.2-4.6c0.6-0.9,1-1.9,1.1-3
			C105.3,57.3,105.3,56.7,105.3,56z"/>
		<path class="st2" d="M105.3,56c0,0.6,0,1.3-0.1,1.9c-0.1,1.1-0.4,2.1-1.1,3c-1.4,2-3.1,3.5-5.2,4.6c-1.9,1-3.8,1.6-5.9,1.8
			c-1.5,0.1-2.9,0-4.4,0c-0.3,0-0.5-0.2-0.8-0.3c-1.7-0.6-3-1.7-4.4-2.7c-1.8-1.3-2.8-2.8-3.1-4.9c-0.1-0.5-0.2-0.9-0.3-1.4
			c-0.5-1.8-0.2-3.6,0.8-5.2c1.6-2.5,3.4-5,5.9-6.7c1.3-0.9,2.8-1.4,4.2-1.9c0.6-0.2,1.3,0.1,1.9,0.3c2.1,0.6,4.1,1.2,6.2,1.9
			c4.3,1.5,6.2,4.7,6.2,9.1C105.3,55.7,105.3,55.9,105.3,56C105.3,56,105.3,56,105.3,56z M92.1,47.2c-1.5-0.3-2.9,0.1-4.1,1
			c-0.7,0.5-1.3,1-2,1.5c-1.7,1.4-2.7,3.2-3,5.4c-0.3,2.4,0.4,4.6,1.6,6.6c1,1.7,2.7,2.4,4.6,2.8c2.7,0.5,5.1-0.3,7.5-1.1
			c0.4-0.1,0.8-0.5,1.2-0.8c0.6-0.5,1.1-1,1.7-1.5c1.8-1.6,2.4-3.5,2-5.8c-0.4-2.2-1.2-4.2-3.1-5.5c-0.9-0.7-1.9-1.2-2.9-1.8
			C94.6,47.5,93.4,47.1,92.1,47.2z"/>
		<path d="M92.1,47.2c1.3-0.1,2.5,0.3,3.6,1c1,0.6,1.9,1.1,2.9,1.8c1.9,1.3,2.7,3.3,3.1,5.5c0.4,2.3-0.2,4.3-2,5.8
			c-0.6,0.5-1.1,1-1.7,1.5c-0.4,0.3-0.8,0.6-1.2,0.8c-2.4,0.8-4.8,1.6-7.5,1.1c-2-0.4-3.6-1.1-4.6-2.8c-1.2-2-1.9-4.2-1.6-6.6
			c0.3-2.2,1.2-4,3-5.4c0.7-0.5,1.3-1,2-1.5C89.2,47.3,90.6,46.9,92.1,47.2z M90.6,62.6c0.3,0.1,0.4,0.1,0.5,0.1c0.2,0,0.3,0,0.5,0
			c2.2-0.4,4.4-0.7,6.1-2.5c0.2-0.3,0.5-0.5,0.8-0.7c0.8-0.7,1.2-1.6,1.2-2.5c0-2.2-0.6-4.3-2.6-5.7c-1-0.7-2-1.3-3.1-1.8
			c-1.6-0.8-3.3-0.5-4.7,0.2c-1.2,0.6-2.2,1.6-3.1,2.6c-0.4,0.4-0.8,1.1-0.9,1.6c-0.7,2.3-0.3,4.5,0.9,6.6c0.5,0.8,1.2,1.5,2.3,1.7
			c0-1.4-0.2-2.7-0.5-4.1c-0.2-1-0.5-1.9-0.7-2.9c-0.2-1.5,0.4-2.5,1.9-2.9c1.7-0.4,3.4-0.7,5.2-1c0.9-0.1,1.5,0.3,1.8,1.2
			c0.3,0.9,0.6,1.7,0.8,2.6c0.4,1.4,0,2.2-1.3,2.8c-1,0.4-2,0.6-3,0.8c-0.8,0.2-1.6,0.2-2.4,0.8C90.4,60.5,90.5,61.5,90.6,62.6z
			 M89.9,57.4c1.7-0.7,3.6-0.6,5.3-1.5c-0.3-0.9-0.5-1.7-0.8-2.6c-1.7,0.3-3.3,0.6-4.8,1C89,55.4,89.5,56.3,89.9,57.4z"/>
		<path class="st2" d="M90.6,62.6c-0.1-1-0.2-2.1-0.3-3.1c0.7-0.5,1.6-0.6,2.4-0.8c1-0.2,2-0.4,3-0.8c1.4-0.5,1.7-1.3,1.3-2.8
			c-0.2-0.9-0.5-1.8-0.8-2.6c-0.3-0.9-0.9-1.3-1.8-1.2c-1.7,0.3-3.5,0.6-5.2,1c-1.5,0.4-2.1,1.4-1.9,2.9c0.1,1,0.4,1.9,0.7,2.9
			c0.3,1.3,0.5,2.6,0.5,4.1c-1.1-0.2-1.8-0.9-2.3-1.7c-1.2-2.1-1.6-4.3-0.9-6.6c0.2-0.6,0.5-1.2,0.9-1.6c1-0.9,1.9-2,3.1-2.6
			c1.5-0.7,3.1-1,4.7-0.2c1.1,0.5,2.1,1.1,3.1,1.8c2,1.4,2.6,3.4,2.6,5.7c0,1-0.4,1.9-1.2,2.5c-0.3,0.2-0.6,0.5-0.8,0.7
			c-1.7,1.8-3.9,2.1-6.1,2.5c-0.2,0-0.3,0-0.5,0C91,62.7,90.9,62.7,90.6,62.6z"/>
		<path class="st2" d="M89.9,57.4c-0.3-1.1-0.8-1.9-0.4-3.1c1.6-0.3,3.2-0.6,4.8-1c0.3,0.9,0.6,1.7,0.8,2.6
			C93.4,56.8,91.5,56.7,89.9,57.4z"/>
	</g>
</g>
</svg>
