<?xml version="1.0" encoding="UTF-8"?>
<svg width="247px" height="215px" viewBox="0 0 247 215" version="1.1" xmlns="http://www.w3.org/2000/svg" xmlns:xlink="http://www.w3.org/1999/xlink">
    <!-- Generator: Sketch 46.2 (44496) - http://www.bohemiancoding.com/sketch -->
    <title>Business - Write a Business Plan</title>
    <desc>Created with Sketch.</desc>
    <defs></defs>
    <g id="Page-1" stroke="none" stroke-width="1" fill="none" fill-rule="evenodd">
        <g id="Business---Write-a-Business-Plan" fill-rule="nonzero">
            <g id="Calque_2" fill="#B7D6E2">
                <path d="M166.6,191.2 C138.7,192.5 110.4,192.6 83.3,185.7 C56.2,178.8 30.2,164.3 14.4,141.2 C-1.4,118.1 -5.3,86.1 8.9,62.1 C14.9,52 23.7,43.8 33,36.7 C70.6,8.1 119.8,-4.7 166.5,2 C180.9,4.1 195.3,8 207.8,15.6 C232.3,30.4 247.4,59.5 245.5,88.1 C243.6,116.7 224.7,143.5 198.5,154.9" id="Shape"></path>
            </g>
            <g id="Calque_1" transform="translate(24.000000, 24.000000)">
                <g id="Group">
                    <path d="M139.5,174.7 C139,178 139,178.1 135.8,178.7 C130.5,179.8 125.2,180.6 119.8,181.1 C113.2,181.7 106.6,182.7 100,183.3 C88.2,184.3 76.5,185.1 64.7,186 C56.7,186.6 48.8,187.4 40.8,188.1 C35.3,188.6 29.7,188.9 24.2,189.4 C21.4,189.7 18.7,190.2 15.9,190.7 C14.6,190.9 12.7,189.7 12.6,188.4 C12.3,186.3 12.2,184.1 11.9,182 C10.9,173.9 10.1,165.9 8.8,157.9 C6.8,145.5 6,133 5.4,120.4 C4.7,106.9 3.8,93.3 3.2,79.8 C2.9,73.7 3.2,67.6 3,61.6 C2.7,53.4 2.1,45.2 1.5,37.1 C1.4,35.6 1,34.1 0.7,32.6 C0.5,31.3 0.8,31 2,30.7 C8,29 13.9,27.3 20,25.6 C19.9,24.6 19.7,23.7 19.7,22.8 C19.6,20.5 20.3,19.4 22.4,18.8 C24.4,18.2 26.5,17.6 28.5,17.1 C30.3,16.7 32.1,16.3 33.9,15.9 C34.6,15.8 34.9,15.5 35.1,14.8 C35.5,12.7 36.8,11.4 38.9,10.9 C40,10.7 41.1,10.1 42.2,9.8 C44.7,9 47.2,8.2 49.8,7.5 C52.3,6.8 54.8,6.1 57.4,5.7 C61.2,5.2 65.1,5 69,4.7 C74.9,4.3 80.7,3.9 86.6,3.6 C88.6,3.5 90.7,3.4 92.7,3.7 C95.6,4.1 98.5,3.9 101.4,3.5 C102.7,3.3 104,3.3 105.2,3.3 C113.9,3 122.6,2.7 131.3,2.4 C134.6,2.3 137.9,2.2 141.2,1.9 C143.6,1.7 146,1.3 148.3,1.1 C150.4,0.9 152.5,0.9 154.7,1 C156.2,1.1 157.7,1.4 159.1,1.9 C160.5,2.3 161.1,3.5 161.4,4.9 C161.8,7.1 162.2,9.3 162.6,11.6 C164.2,11.7 165.8,11.8 167.3,12 C172.8,12.8 178.2,13.6 183.7,14.4 C188.4,15 193.1,15.5 197.8,16 C203.4,16.6 208.9,17.3 214.5,17.9 C216.3,18.1 218.1,18.1 219.9,18.4 C222.5,18.9 223,20 222.7,22.6 C222.1,27.4 220.1,31.7 218.9,36.3 C216.9,44.3 215,52.4 212.9,60.4 C210.9,68.4 208.6,76.3 205.4,83.9 C203.7,88 201.9,92.1 200.4,96.2 C199.3,99 198.8,102.1 197.8,104.9 C195.8,110.6 193.6,116.2 191.6,121.9 C189.8,127 188.4,132.1 186.5,137.1 C183.3,145.9 180.9,154.8 178.9,164 C178.6,165.6 177.9,167.2 177.3,168.8 C176,172.1 174.9,175.5 174.4,179 C174.2,180.2 173.6,181.3 173,182.4 C172.8,182.7 171.9,182.9 171.4,182.8 C167.8,181.8 164.3,180.5 160.7,179.5 C157.1,178.5 153.5,177.6 149.8,176.7 C146.7,176 143.5,175.4 140.3,174.7 C140.1,174.7 139.8,174.7 139.5,174.7 Z M15,188.1 C15.5,188 15.8,188 16.1,188 C22.4,187.3 28.6,186.6 34.9,186 C39.6,185.5 44.2,185.3 48.9,184.9 C61.9,183.9 74.8,182.9 87.8,181.9 C93.5,181.4 99.1,180.9 104.8,180.3 C111.2,179.6 117.5,179 123.9,178.1 C128,177.6 132,176.8 136.1,176.1 C136.8,176 137,175.6 136.9,174.9 C136.7,173.2 136.4,171.4 136.3,169.6 C136,164.3 135.6,159 135.7,153.7 C135.8,149 135.6,144.4 134.8,139.9 C132.4,126.6 130.8,113.2 130,99.7 C129.2,85.5 128.4,71.3 127.4,57.2 C127,52.3 125.9,47.4 125.2,42.5 C124.4,37.2 123.4,31.9 122.8,26.6 C122.3,22.3 122.1,17.9 121.8,13.6 C121.8,12.8 121.5,12.4 120.7,12.4 C119.3,12.4 117.8,12.2 116.4,12.3 C111.9,12.8 107.3,13.2 102.8,13.9 C96.8,14.8 90.7,15.7 84.7,17.1 C77,18.9 69.3,19.9 61.5,20.9 C55.2,21.7 48.9,22.3 42.7,23.5 C33,25.4 23.4,27.7 13.8,29.8 C10.7,30.5 7.7,31.4 4.7,32.2 C4.1,32.4 3.4,32.5 3.5,33.5 C4.2,40.9 4.9,48.3 5.3,55.7 C5.7,63.5 5.4,71.4 5.7,79.2 C6.3,92.7 7.2,106.3 7.9,119.8 C8.6,132.8 9.5,145.7 11.5,158.6 C12.6,165.5 13.4,172.4 14.2,179.3 C14.6,182.2 14.8,185.1 15,188.1 Z M164.3,128.5 C166.6,129.4 168.7,130.2 170.8,131 C171.6,131.3 172.2,131.7 171.9,132.7 C171.6,133.6 170.8,133.7 170,133.5 C168.7,133 167.5,132.5 166.2,132 C165.7,131.8 165.1,131.6 164.5,131.4 C164.5,132.7 164.5,133.9 164.5,135 C164.4,142 164.3,149 164.3,156 C164.3,158.6 164.2,161.3 165.2,163.8 C165.7,164.9 165.3,165.8 164.2,166.3 C163.6,166.6 163,166.7 162.4,166.8 C158.6,166.9 154.8,167.1 151,167.1 C149.9,167.1 149.4,167.4 149.6,168.6 C149.8,170.3 149.1,171.5 147.4,172 C146.3,172.3 145.3,172.6 144.3,172.8 C146.4,173.3 148.7,173.9 151,174.5 C155,175.6 159.1,176.7 163.1,177.9 C165.3,178.5 167.5,179.4 169.7,179.9 C171.5,180.3 171.6,180 172.1,178.1 C173,174.7 174,171.4 175.1,168 C175.6,166.3 176.3,164.6 176.7,162.9 C178.1,157.5 179.2,152.1 180.8,146.8 C182.2,142 184,137.3 185.6,132.6 C186.9,128.8 188,125 189.3,121.2 C191.2,115.7 193.5,110.3 195.2,104.7 C197.1,98.5 198.9,92.4 201.6,86.5 C206.7,75.3 209.6,63.4 212.7,51.6 C214.3,45.6 215.7,39.6 217.1,33.6 C218,29.8 219.8,26.2 220.2,22.3 C220.3,21.5 220.1,21.1 219.3,21 C217.8,20.9 216.4,20.8 214.9,20.6 C210.2,20 205.6,19.4 200.9,18.8 C195.4,18.2 189.8,17.8 184.3,17.1 C179.8,16.5 175.4,15.6 170.9,15 C168.3,14.6 165.6,14.5 163,14.3 C163,20.5 163,26.4 163,32.3 C166.5,32.5 169.9,32.6 173.3,32.9 C177,33.2 180.7,33.7 184,35.7 C185,36.3 186.4,36.2 187.6,36.3 C188.7,36.4 189.9,36.1 190.9,36.3 C194.4,36.9 197.9,37.5 201.4,38.3 C201.9,38.4 202.2,39.1 202.6,39.6 C202.2,40 201.7,40.7 201.3,40.7 C199.6,40.6 197.8,40.4 196.1,39.9 C193.6,39.2 191,38.6 188.4,38.9 C185.9,39.1 183.7,38.7 181.5,37.4 C180.2,36.7 178.8,36.2 177.3,36 C173.7,35.5 170,35.3 166.3,35 C165.2,34.9 164,35 162.8,35 C162.4,39.2 162.1,43.2 161.8,47.2 C162.5,47.1 163,47 163.4,47.1 C165.1,47.2 166.7,47.4 168.4,47.6 C169.8,47.8 171.2,48.1 172.5,48.5 C174.4,49.2 176.2,49.4 178.2,49.1 C179.7,48.9 181.3,48.6 182.8,48.5 C188.7,48.1 193.3,50.9 197.8,54.2 C198.4,54.6 198.7,55.3 198.2,56 C197.7,56.7 196.9,56.6 196.3,56.2 C194.8,55.3 193.4,54.3 191.9,53.4 C188.4,51.2 184.6,50.6 180.6,51.3 C178,51.8 175.2,52.4 172.7,51.2 C169.2,49.6 165.4,50.5 161.9,49.3 C161.9,52.5 161.9,55.6 161.9,58.5 C162.7,58.4 163.3,58.2 164,58.2 C166.2,58.2 168.4,58.3 170.6,58.3 C172.1,58.3 173.2,59 174.3,60.1 C175,60.8 175.8,61.4 176.6,61.6 C180.8,62.9 184.8,65 189.2,65.2 C190,65.2 190.7,65.7 190.5,66.7 C190.4,67.6 189.6,67.8 188.8,67.7 C187,67.4 185.1,67.1 183.3,66.6 C180.5,65.8 177.8,64.8 175.1,63.8 C174.1,63.4 173.2,62.7 172.4,61.9 C171.6,61.1 170.9,60.8 169.8,60.8 C167.2,60.8 164.6,60.7 161.9,60.6 C162,60.5 161.9,60.5 161.9,60.5 C162.2,68.4 162.4,76.3 162.7,84.2 C162.7,84.5 162.8,84.8 163,84.9 C165,86.2 167,87.6 169.6,86.7 C171.5,86 173.4,86.4 175.2,87.1 C176.7,87.6 178.2,88.1 179.6,88.6 C180.5,88.9 181.3,89.4 182.1,89.9 C182.8,90.3 183.2,91 182.7,91.7 C182.2,92.5 181.5,92.3 180.7,92 C179.9,91.6 179,91.2 178.1,90.8 C176.9,90.3 175.6,90 174.4,89.5 C173,89 171.6,88.7 170.1,89.1 C167.8,89.8 165.5,89.4 163.4,88.2 C163.2,88.1 163.1,88.1 162.7,87.9 C162.8,90.5 162.9,93 163.1,95.5 C164.2,95.4 165.1,95.2 166,95.3 C169.3,95.6 172.7,96 176,96.4 C177.5,96.5 179,96.7 180.5,96.6 C181.3,96.6 182,96.5 182.2,97.4 C182.5,98.3 181.9,98.9 181.1,99.1 C180.4,99.3 179.7,99.4 179,99.4 C175,99 171,98.5 167,98.1 C165.8,98 164.5,98.2 163.1,98.2 C164.7,108.2 164.2,118.4 164.3,128.5 Z M135.2,127.2 C136.6,127.1 137.8,126.9 139,126.9 C139.4,126.9 140.1,127.2 140.3,127.5 C140.5,127.9 140.3,128.6 140,129 C139.7,129.4 139,129.5 138.5,129.6 C137.6,129.7 136.7,129.6 135.5,129.6 C136.4,134.4 137.2,138.9 138,143.4 C138.1,143.3 138.2,143.3 138.3,143.2 C138.8,143.6 139.5,144 139.7,144.5 C140,145.4 139.4,146 138.6,146.3 C138.4,146.4 138.3,146.7 138.3,147 C138.2,151.9 138.1,156.8 138.2,161.6 C138.2,164.1 138.6,166.6 138.7,169.1 C138.7,169.8 139.1,170.1 139.8,170 C141.8,169.9 143.7,169.9 145.7,169.7 C146.5,169.6 147.1,169.4 147.2,168.2 C147.4,165.1 147,162 147.4,158.9 C148.2,152.7 148.3,146.5 149,140.3 C149.8,133.6 149.8,127 149.7,120.3 C149.6,114.1 149,107.9 148.9,101.7 C148.8,89.3 148.9,76.8 148.9,64.4 C148.9,59.1 148.8,53.8 148.4,48.6 C147.8,40.8 147.5,33.1 148.2,25.4 C148.7,20.2 148.6,14.9 147.8,9.7 C147.6,8.5 147.1,8.3 146.1,8.4 C139.8,8.7 133.6,8.9 127.3,9.2 C125.1,9.3 123,9.5 120.8,9.6 C121.3,9.9 121.8,10 122.3,10 C123.9,9.9 124.2,10.2 124.3,11.7 C124.4,13.5 124.4,15.4 124.5,17.2 C124.7,19.7 124.9,22.2 125.1,24.8 C125.8,24.4 126.4,24.1 126.9,23.8 C128,23.3 129.1,23.4 129.9,24.3 C130.6,25 131.1,24.9 131.9,24.6 C132.8,24.3 133.8,24 134.7,24.3 C135.6,24.5 136.3,25 137.3,24.8 C137.7,24.7 138.5,25.3 138.5,25.7 C138.6,26.1 138.1,26.9 137.7,27 C136.7,27.2 135.6,27.3 134.7,27 C133.8,26.7 133.1,26.6 132.3,27 C130.9,27.7 129.6,27.6 128.5,26.4 C128.3,26.2 127.8,26.1 127.5,26.2 C125.5,27.1 125.2,27.6 125.5,29.9 C125.5,30.2 125.6,30.5 125.6,30.9 C126,33 126.3,35 126.7,37.1 C127.7,36.9 128.5,36.7 129.3,36.7 C130.2,36.6 131.2,36.8 132.1,36.7 C133.4,36.5 134.8,36.1 136.1,35.9 C136.9,35.8 137.6,36 137.7,36.8 C137.8,37.2 137.4,38.1 137.1,38.1 C134.6,38.6 132.1,39 129.6,39.4 C128.9,39.5 128.1,39.5 127.3,39.6 C128.1,43.7 128.8,47.5 129.6,51.6 C130.3,51.4 131,51.2 131.6,50.9 C133.4,50 135.2,49.7 137.1,50.8 C137.9,51.2 138.6,51.8 138.1,52.8 C137.6,53.7 136.8,53.5 136,53.1 C134.9,52.5 134,52.6 132.9,53.1 C131.9,53.6 130.8,54 129.7,54.4 C130,57.4 130.3,60.6 130.7,63.9 C132.5,63.5 134.1,63.2 135.8,62.9 C136.5,62.8 137.3,62.8 137.9,63.1 C138.3,63.2 138.6,63.9 138.6,64.4 C138.6,64.7 138.1,65.2 137.7,65.3 C135.4,65.7 133.2,66 130.8,66.3 C131.4,79 132.1,91.8 132.7,104.8 C133.1,104.6 133.3,104.6 133.5,104.5 C135,103.6 136.6,103.4 138.2,103.9 C139,104.1 139.7,104.6 139.4,105.6 C139.1,106.6 138.4,106.5 137.6,106.4 C136.9,106.3 136.2,106.3 135.5,106.4 C134.7,106.6 133.9,106.9 132.9,107.2 C133.1,109 133.2,110.9 133.4,113 C134,112.9 134.4,112.9 134.8,112.8 C135.8,112.7 136.7,112.6 137.7,112.7 C138.5,112.8 139.2,113.3 139.1,114.2 C139,115.1 138.3,115.2 137.5,115.2 C136.3,115.2 135.1,115.4 133.7,115.5 C134.2,119.5 134.7,123.2 135.2,127.2 Z M162.4,164.3 C162.2,162.6 162,161.3 162,160 C162,156.1 162.2,152.2 162.2,148.3 C162.1,136.5 161.9,124.7 161.8,112.9 C161.8,109.9 161.5,106.9 161.3,103.9 C161,99.7 160.6,95.5 160.4,91.2 C160,81.5 159.8,71.7 159.4,61.9 C159.1,55.3 159,48.6 159.5,42 C159.8,37.8 160.3,33.6 160.4,29.4 C160.6,21.4 160.9,13.3 159,5.4 C158.8,4.5 158.5,4 157.6,3.9 C156.1,3.7 154.6,3.4 153.1,3.4 C149.2,3.6 145.3,4 141.4,4.3 C138.2,4.5 134.9,4.6 131.7,4.7 C122.7,5 113.6,5.3 104.6,5.6 C103.8,5.6 102.9,5.6 102.1,5.8 C98.6,6.3 95,6.5 91.5,5.9 C90.4,5.7 89.3,5.8 88.2,5.8 C81.1,6.2 74.1,6.7 67,7.1 C63.1,7.4 59.2,7.2 55.5,8.4 C53.7,9 51.8,9.2 50,9.7 C48.1,10.2 46.2,10.7 44.4,11.3 C42.7,11.8 41,12.5 39.3,13.1 C38.4,13.4 37.8,13.9 37.8,15.1 C38.7,15 39.5,15 40.3,14.9 C45.4,14.1 50.5,13.2 55.6,12.6 C64.1,11.6 72.5,10.7 81,9.8 C87.3,9.1 93.6,8.4 100,7.8 C102.9,7.5 105.9,7.6 108.8,7.5 C112,7.4 115.2,7.2 118.4,7.1 C122.4,6.9 126.3,6.9 130.3,6.7 C133.9,6.6 137.5,6.4 141.1,6.3 C143.4,6.2 145.7,6 148,6 C148.5,6 149.2,6.4 149.4,6.8 C149.8,7.6 150.1,8.6 150.2,9.5 C151.1,15.3 151,21.1 150.6,26.9 C150.3,32.3 150,37.7 150.5,43.2 C151,49.1 151.2,55.1 151.4,61 C151.5,63.7 151.4,66.4 151.4,69 C151.4,73.1 151.4,77.2 151.4,81.2 C151.5,90.6 151.3,100 151.8,109.4 C152.2,117.9 152.5,126.4 152,134.9 C151.4,143.8 150.4,152.7 149.7,161.5 C149.6,162.4 149.7,163.4 149.7,164.2 C154,164.3 158.2,164.3 162.4,164.3 Z M22.6,24.8 C23.8,24.6 24.8,24.4 25.8,24.2 C36.2,21.7 46.8,20 57.4,18.7 C65.1,17.8 72.8,17 80.3,15.4 C91.3,13.1 102.3,11.1 113.5,10 C114,10 114.5,9.9 114.9,9.8 C111.3,9.9 107.7,9.7 104.1,9.9 C97.2,10.4 90.3,11.2 83.5,12 C76.3,12.8 69.2,14 62.1,14.5 C55.1,15 48.3,16.3 41.4,17.1 C35.6,17.8 29.9,18.8 24.2,20.4 C21.9,21.1 21.8,21.1 22.2,23.4 C22.4,24 22.5,24.3 22.6,24.8 Z" id="Shape" fill="#000000"></path>
                    <path d="M15,188.1 C14.7,185.1 14.6,182.2 14.2,179.3 C13.3,172.4 12.6,165.5 11.5,158.6 C9.4,145.7 8.5,132.8 7.9,119.8 C7.2,106.3 6.3,92.7 5.7,79.2 C5.4,71.4 5.6,63.5 5.3,55.7 C5,48.3 4.2,40.9 3.5,33.5 C3.4,32.5 4.1,32.3 4.7,32.2 C7.7,31.4 10.8,30.5 13.8,29.8 C23.4,27.6 33,25.3 42.7,23.5 C48.9,22.3 55.2,21.7 61.5,20.9 C69.3,20 77,18.9 84.7,17.1 C90.6,15.7 96.7,14.9 102.8,13.9 C107.3,13.2 111.8,12.8 116.4,12.3 C117.8,12.2 119.3,12.4 120.7,12.4 C121.5,12.4 121.8,12.8 121.8,13.6 C122.1,18 122.2,22.3 122.8,26.6 C123.4,31.9 124.4,37.2 125.2,42.5 C126,47.4 127.1,52.3 127.4,57.2 C128.4,71.4 129.3,85.5 130,99.7 C130.7,113.2 132.3,126.6 134.8,139.9 C135.6,144.5 135.8,149.1 135.7,153.7 C135.6,159 136,164.3 136.3,169.6 C136.4,171.4 136.7,173.1 136.9,174.9 C137,175.6 136.8,176 136.1,176.1 C132,176.8 128,177.6 123.9,178.1 C117.6,178.9 111.2,179.6 104.8,180.3 C99.2,180.9 93.5,181.4 87.8,181.9 C74.8,182.9 61.9,183.9 48.9,184.9 C44.2,185.3 39.6,185.5 34.9,186 C28.6,186.6 22.3,187.4 16.1,188 C15.9,188 15.6,188 15,188.1 Z M94.9,55 C95.1,53.2 94.6,50.8 93.4,48.7 C90.2,43.3 86.9,37.9 81.2,34.5 C77.7,32.4 74,31.8 70.1,31.8 C66.8,31.8 63.7,33.4 60.3,33.4 C60.1,33.4 60,33.5 59.8,33.5 C53.6,35.8 47.9,38.9 44,44.4 C41,48.6 39.3,53.2 38.9,58.3 C38.6,62 39.9,65.5 41.6,68.7 C42.4,70.3 43.6,71.6 44.7,73.1 C45,73.6 45.5,73.9 46,74.3 C48.3,76.5 50.3,79.2 53.3,80.3 C55.8,81.2 58.4,81.6 61,82 C62.7,82.3 64.4,82.3 66.1,82 C68.7,81.6 71.3,80.7 73.9,80.2 C79.3,79.1 83.8,76.4 87.5,72.4 C89.6,70.1 91.6,67.6 93.1,64.8 C94.6,62 94.7,58.8 94.9,55 Z M109.1,106.2 C109.5,106.1 109.9,106.1 110.3,105.9 C111,105.6 111.6,105.1 111.3,104.2 C111.1,103.4 110.4,103.3 109.7,103.4 C109.3,103.5 108.8,103.4 108.4,103.4 C107,103.4 105.5,103.3 104.1,103.4 C102.4,103.6 100.6,104 98.9,104.1 C95.8,104.3 92.6,104.3 89.5,104.4 C89.1,104.4 88.7,104.5 88.3,104.6 C84.7,105.6 81.2,106.7 77.5,107.4 C73.9,108.1 70.3,108.3 66.7,109 C61.4,110 56.2,111.2 51,112.3 C48.7,112.8 46.3,113 44.1,111.9 C41.6,110.7 39.3,111 37.1,112.5 C36.1,113.2 35,113.9 34,114.6 C33,115.3 32.1,115.2 31.3,114.4 C30.8,114 30.3,113.5 29.7,113.1 C29.2,112.8 28.5,112.5 27.9,112.6 C27.4,112.7 26.7,113.2 26.7,113.6 C26.6,114 27.1,114.6 27.5,114.9 C28,115.3 28.7,115.5 29.2,115.9 C31.7,118 33.3,118.1 36,116.2 C37,115.5 38,114.8 39.1,114.1 C40.2,113.4 41.3,113.3 42.5,113.8 C45.5,115.3 48.7,115.2 51.9,114.5 C57.1,113.4 62.3,111.8 67.6,111.3 C74,110.6 80.3,109.1 86.5,107.5 C87.9,107.2 89.3,106.7 90.7,106.6 C93.9,106.4 97.2,106.4 100.4,106.3 C100.7,106.3 101,106.3 101.2,106.2 C103.8,106 106.4,105.5 109.1,106.2 Z M42.4,145.4 C41.7,145.6 40.8,145.7 40,146 C38.8,146.4 37.7,146.9 36.5,147.3 C34.4,148.1 32.2,148.8 30,149.5 C29.7,149.6 29.4,149.9 29.4,150.2 C29.4,150.8 29.4,151.5 29.8,151.9 C30.3,152.6 31.2,152.5 31.9,152 C33.5,150.7 35.3,150 37.3,149.7 C37.9,149.6 38.6,149.4 39.1,149.1 C41.1,147.9 43.3,147.9 45.5,148.4 C47.6,148.8 49.6,148.9 51.7,148.2 C56.1,146.7 60.6,146.2 65.3,146.6 C67,146.7 68.8,146.6 70.4,146.1 C73.1,145.4 75.8,144.3 78.4,143.3 C80.6,142.5 82.9,141.6 85.3,142.1 C88.2,142.7 90.8,142.1 93.6,141.7 C99.7,140.7 105.5,138.7 111.7,138.4 C112.8,138.4 113.5,137.7 113.6,136.6 C113.7,135.6 112.8,135 112,135.3 C111.2,135.6 110.4,135.8 109.5,136 C105,136.9 100.5,137.8 96,138.6 C92.6,139.2 89.3,140.6 85.7,139.7 C84.6,139.4 83.2,139.5 82,139.8 C79.4,140.5 76.8,141.5 74.2,142.4 C71.1,143.5 68,144.5 64.6,144.1 C60.2,143.6 55.8,144.2 51.6,145.6 C49.8,146.2 48,146.4 46.2,146 C45,145.7 43.8,145.6 42.4,145.4 Z M110.1,155.9 C111.1,156 111.8,156.1 112.4,156 C112.9,155.9 113.6,155.5 113.6,155.1 C113.6,154.6 113.2,154.1 112.8,153.7 C112.6,153.5 112,153.4 111.7,153.4 C110.1,153.4 108.4,153.6 106.8,153.6 C105.9,153.6 105,153.6 104.2,153.3 C102.7,152.6 101.2,152.5 99.7,152.8 C99,152.9 98.3,153.1 97.7,152.9 C95.3,152.1 92.9,152.2 90.5,152.1 C85.5,151.8 80.8,153 76.2,154.8 C73.8,155.7 71.4,156.5 68.9,157 C65.4,157.7 61.8,158.2 58.3,158.8 C57.1,159 55.9,159.2 54.6,159.3 C46.9,160.3 39.2,161.3 31.4,162.2 C31.2,162.2 30.9,162.2 30.7,162.4 C30.4,162.7 30.1,163.1 30.1,163.4 C30.1,163.8 30.4,164.2 30.7,164.4 C31,164.6 31.5,164.6 32,164.6 C34.1,164.4 36.3,164.1 38.4,163.8 C41.2,163.4 44.1,162.9 46.9,162.6 C51.1,162.1 55.2,161.6 59.4,161 C62,160.6 64.6,160.2 67.2,159.6 C69.9,159 72.7,158.4 75.3,157.7 C76.8,157.3 78.2,156.4 79.8,156 C84,154.7 88.2,154.1 92.6,154.6 C93.7,154.7 94.9,155 96,155.1 C97.5,155.2 98.9,155.2 100.4,155.3 C101.2,155.3 102.1,155.2 102.8,155.5 C104.3,156.2 105.8,156.4 107.3,156.1 C108.3,156 109.4,156 110.1,155.9 Z M38.2,131.5 C36.3,131.9 34,132.3 31.8,132.8 C30.5,133.1 29.2,133.5 27.9,134.1 C27.4,134.3 27.2,135 26.8,135.5 C27.3,135.8 27.7,136.5 28.2,136.5 C29.1,136.5 30.1,136.2 31,135.8 C34.7,134.3 38.6,134 42.5,134.4 C44.7,134.6 46.9,134.8 49.1,134.7 C52,134.6 55,134.2 57.9,133.9 C60.2,133.6 62.5,133.2 64.7,132.8 C67,132.3 69.2,131.4 71.7,131.5 C74.4,131.6 77.1,131.4 79.8,131.3 C82.3,131.1 84.9,130.8 87.4,130.5 C89.6,130.2 91.8,130 93.8,128.8 C94.4,128.4 95.1,128.2 95.8,128.2 C97.2,128.2 98.7,128.3 100.1,128.3 C102.2,128.4 104.1,128.3 106.1,127.5 C106.8,127.2 107.7,127.2 108.4,127.2 C109.2,127.2 110,127.2 110.1,126.2 C110.2,125.2 109.5,124.7 108.7,124.8 C107.4,124.8 106,125.1 104.7,125.3 C104,125.4 103.4,125.7 102.7,125.7 C100.7,125.8 98.8,125.8 96.8,125.6 C95,125.4 93.5,125.8 92,126.6 C91.2,127 90.3,127.3 89.4,127.5 C87.3,127.8 85.2,127.9 83.1,128.2 C78.9,128.8 74.8,129.6 70.6,129 C69.5,128.8 68.2,129.1 67.1,129.4 C63.9,130.2 60.7,131.2 57.4,131.4 C54.6,131.5 51.8,131.9 48.9,132.1 C47.4,132.2 45.8,132.2 44.2,132.1 C42.6,132 40.6,131.8 38.2,131.5 Z M107.7,115 C107.7,115 107.7,115.1 107.7,115.1 C108.3,115.1 108.8,115.2 109.4,115.2 C110,115.2 110.6,115.3 111,115 C111.4,114.7 111.9,114.1 111.9,113.6 C111.9,113.3 111.1,112.8 110.6,112.7 C109.7,112.5 108.7,112.6 107.7,112.6 C102.2,112.8 96.7,112.9 91.9,116 C90.4,117 88.8,117.1 87.1,116.4 C83.9,115.2 80.8,115.6 77.7,117 C75.4,118 73.1,118.9 70.7,119.6 C68.4,120.2 65.9,120.3 63.5,120.7 C57.6,121.6 51.7,123.1 45.7,122.8 C45.2,122.8 44.7,122.9 44.2,123 C41.3,123.6 38.4,124.2 35.4,123.4 C34.2,123.1 32.9,123.5 31.6,123.8 C31.2,123.9 30.7,124.6 30.8,124.9 C30.9,125.3 31.3,125.8 31.8,126 C32.1,126.2 32.7,126 33.1,126 C34.2,126 35.3,126 36.4,126.1 C37.4,126.1 38.4,126.4 39.4,126.3 C43.2,125.9 46.9,124.9 50.7,125.2 C51.2,125.2 51.8,125.1 52.4,125 C56.5,124.3 60.5,123.4 64.6,123.1 C69.9,122.6 74.9,121.3 79.7,119 C81.7,118.1 83.8,117.8 85.9,118.6 C89,119.9 91.7,119.2 94.5,117.6 C95.9,116.8 97.6,116.1 99.2,115.8 C101.9,115.5 104.8,115.3 107.7,115 Z M36,172.8 C36.1,172.4 36.2,172.2 36.2,172 C36.1,171.5 36,170.6 35.7,170.5 C35.2,170.3 34.4,170.5 34,170.9 C32.8,171.9 32.9,173.4 34.1,174.4 C35.6,175.6 37.2,175.5 38.9,174.9 C40.2,174.4 41.5,173.6 42.9,173.2 C44,172.9 45.2,172.6 46.3,172.8 C51,173.7 55.6,173.1 60.1,171.8 C66.9,169.8 73.9,168.3 81.1,168.4 C83.2,168.4 85.3,168 87.3,167.5 C92.1,166.3 96.9,165.5 101.9,166.2 C103.7,166.4 105.5,166.3 107.3,166.2 C107.9,166.2 108.5,165.8 109,165.4 C109.7,164.9 109.6,163.6 109,163 C108.4,162.4 107.7,162.3 107.2,163 C106.7,163.8 106.1,163.8 105.4,163.8 C104.4,163.8 103.3,163.8 102.3,163.7 C97.2,162.9 92.2,163.6 87.2,164.9 C84.7,165.6 82.2,165.9 79.6,165.8 C78.3,165.8 76.9,165.7 75.7,166 C70.1,167.1 64.5,168.1 58.9,169.4 C55.4,170.2 52,171.1 48.5,170.4 C45.1,169.6 42.2,170.3 39.3,171.9 C38.8,172.2 38.4,172.4 37.9,172.5 C37.4,172.7 36.7,172.7 36,172.8 Z M29.9,100.5 C33.2,104.4 33.3,103.3 36.9,103.1 C37.2,103.1 37.4,103 37.7,103 C41.5,102.3 45.2,101.5 49,100.8 C51.7,100.3 54.4,100.1 57.2,99.7 C58,99.6 58.7,99.3 58.6,98.3 C58.5,97.3 57.8,97.1 56.9,97.2 C54,97.6 51.1,97.9 48.3,98.3 C44.9,98.9 41.6,99.6 38.2,100.2 C37.3,100.4 36.5,100.4 35.6,100.6 C34.1,100.9 33.2,100.5 32.3,99.3 C31.2,97.7 29.6,97.6 28.2,99 C27.4,99.8 26.7,100.9 26,101.8 C25.8,102.1 25.6,102.4 25.4,103 C25,102 24.7,101.2 24.4,100.4 C24.2,99.8 24,99.1 23.6,98.6 C23.3,98.3 22.6,98 22.2,98.2 C21.8,98.3 21.4,99.2 21.5,99.5 C22.2,101.5 23,103.6 23.9,105.5 C24.4,106.6 25.7,106.7 26.6,105.8 C27.2,105.2 27.6,104.4 28.1,103.6 C28.6,102.6 29.2,101.6 29.9,100.5 Z" id="Shape" fill="#FFFFFF"></path>
                    <path d="M164.3,128.5 C164.2,118.4 164.7,108.2 163.1,97.7 C164.6,97.7 165.8,97.5 167,97.6 C171,98 175,98.5 179,98.9 C179.7,99 180.5,98.9 181.1,98.6 C181.9,98.4 182.4,97.8 182.2,96.9 C181.9,96 181.3,96.1 180.5,96.1 C179,96.2 177.5,96 176,95.9 C172.7,95.6 169.3,95.1 166,94.8 C165.1,94.7 164.2,94.9 163.1,95 C163,92.5 162.9,90.1 162.7,87.4 C163,87.5 163.2,87.6 163.4,87.7 C165.5,89 167.7,89.3 170.1,88.6 C171.6,88.1 173,88.4 174.4,89 C175.6,89.5 176.9,89.8 178.1,90.3 C179,90.6 179.9,91 180.7,91.5 C181.5,91.9 182.2,92.1 182.7,91.2 C183.2,90.4 182.8,89.8 182.1,89.4 C181.3,88.9 180.4,88.5 179.6,88.1 C178.1,87.5 176.6,87.1 175.2,86.6 C173.4,85.9 171.5,85.5 169.6,86.2 C167,87.1 165,85.7 163,84.4 C162.8,84.3 162.8,83.9 162.7,83.7 C162.4,75.8 162.2,67.9 161.9,60 C161.9,60 161.9,59.9 161.9,60.1 C164.6,60.2 167.2,60.3 169.8,60.3 C170.9,60.3 171.7,60.7 172.4,61.4 C173.2,62.2 174.1,62.9 175.1,63.3 C177.8,64.3 180.5,65.3 183.3,66.1 C185.1,66.6 187,66.9 188.8,67.2 C189.6,67.3 190.3,67.1 190.5,66.2 C190.7,65.2 190,64.8 189.2,64.7 C184.7,64.4 180.7,62.4 176.6,61.1 C175.7,60.8 174.9,60.2 174.3,59.6 C173.3,58.6 172.1,57.8 170.6,57.8 C168.4,57.8 166.2,57.7 164,57.7 C163.4,57.7 162.7,57.9 161.9,58 C161.9,55.1 161.9,52 161.9,48.8 C165.4,50 169.2,49.2 172.7,50.7 C175.2,51.8 178,51.2 180.6,50.8 C184.6,50.1 188.4,50.7 191.9,52.9 C193.4,53.8 194.8,54.8 196.3,55.7 C197,56.1 197.7,56.3 198.2,55.5 C198.7,54.8 198.4,54.2 197.8,53.7 C193.3,50.5 188.6,47.6 182.8,48 C181.2,48.1 179.7,48.4 178.2,48.6 C176.3,48.9 174.4,48.7 172.5,48 C171.2,47.5 169.8,47.3 168.4,47.1 C166.8,46.8 165.1,46.7 163.4,46.6 C162.9,46.6 162.5,46.7 161.8,46.7 C162.1,42.7 162.5,38.7 162.8,34.5 C164,34.5 165.2,34.4 166.3,34.5 C170,34.8 173.6,35.1 177.3,35.5 C178.7,35.7 180.2,36.2 181.5,36.9 C183.7,38.1 185.9,38.6 188.4,38.4 C191,38.2 193.5,38.7 196.1,39.4 C197.8,39.9 199.5,40.1 201.3,40.2 C201.7,40.2 202.2,39.5 202.6,39.1 C202.2,38.7 201.9,37.9 201.4,37.8 C197.9,37.1 194.4,36.4 190.9,35.8 C189.8,35.6 188.7,35.9 187.6,35.8 C186.4,35.7 185,35.8 184,35.2 C180.7,33.2 177.1,32.6 173.3,32.4 C169.9,32.1 166.5,32 163,31.8 C163,25.9 163,20 163,13.8 C165.6,14 168.3,14.1 170.9,14.5 C175.4,15.1 179.8,16.1 184.3,16.6 C189.8,17.3 195.4,17.7 200.9,18.3 C205.6,18.8 210.3,19.5 214.9,20.1 C216.4,20.3 217.8,20.4 219.3,20.5 C220.1,20.6 220.3,21 220.2,21.8 C219.8,25.7 218.1,29.3 217.1,33.1 C215.6,39.1 214.2,45.2 212.7,51.1 C209.6,62.9 206.7,74.8 201.6,86 C198.9,91.9 197.1,98 195.2,104.2 C193.5,109.8 191.2,115.2 189.3,120.7 C188,124.5 186.9,128.3 185.6,132.1 C184,136.8 182.2,141.5 180.8,146.3 C179.2,151.6 178.1,157.1 176.7,162.4 C176.3,164.1 175.6,165.8 175.1,167.5 C174.1,170.9 173,174.2 172.1,177.6 C171.6,179.4 171.5,179.8 169.7,179.4 C167.5,178.9 165.3,178 163.1,177.4 C159.1,176.3 155.1,175.1 151,174 C148.7,173.4 146.5,172.9 144.3,172.3 C145.2,172 146.3,171.8 147.4,171.5 C149.1,171 149.8,169.8 149.6,168.1 C149.5,166.9 149.9,166.6 151,166.6 C154.8,166.6 158.6,166.4 162.4,166.3 C163,166.3 163.7,166.1 164.2,165.8 C165.3,165.3 165.7,164.4 165.2,163.3 C164.2,160.8 164.3,158.1 164.3,155.5 C164.3,148.5 164.4,141.5 164.5,134.5 C164.5,133.4 164.5,132.3 164.5,130.9 C165.1,131.1 165.7,131.3 166.2,131.5 C167.5,132 168.7,132.5 170,133 C170.8,133.3 171.6,133.1 171.9,132.2 C172.2,131.3 171.6,130.8 170.8,130.5 C168.7,130.2 166.6,129.4 164.3,128.5 Z" id="Shape" fill="#FFFFFF"></path>
                    <path d="M135.2,127.2 C134.7,123.3 134.2,119.5 133.7,115.6 C135.1,115.5 136.3,115.3 137.5,115.3 C138.3,115.3 139,115.2 139.1,114.3 C139.2,113.4 138.6,112.9 137.7,112.8 C136.8,112.7 135.8,112.8 134.8,112.9 C134.4,112.9 133.9,113 133.4,113.1 C133.2,111 133.1,109.1 132.9,107.3 C133.9,107 134.7,106.6 135.5,106.5 C136.2,106.4 136.9,106.4 137.6,106.5 C138.4,106.6 139.2,106.7 139.4,105.7 C139.7,104.7 139,104.2 138.2,104 C136.5,103.6 135,103.8 133.5,104.6 C133.3,104.7 133.2,104.7 132.7,104.9 C132,92 131.4,79.1 130.8,66.4 C133.1,66.1 135.4,65.8 137.7,65.4 C138.1,65.3 138.6,64.8 138.6,64.5 C138.6,64 138.2,63.3 137.9,63.2 C137.3,63 136.5,62.9 135.8,63 C134.1,63.3 132.4,63.6 130.7,64 C130.4,60.7 130.1,57.5 129.7,54.5 C130.8,54 131.9,53.6 132.9,53.2 C133.9,52.7 134.9,52.6 136,53.2 C136.7,53.6 137.6,53.9 138.1,52.9 C138.6,51.9 137.9,51.4 137.1,50.9 C135.2,49.9 133.4,50.1 131.6,51 C131,51.3 130.2,51.5 129.6,51.7 C128.8,47.6 128.1,43.8 127.3,39.7 C128.1,39.6 128.8,39.6 129.6,39.5 C132.1,39.1 134.6,38.7 137.1,38.2 C137.4,38.1 137.8,37.3 137.7,36.9 C137.6,36.1 136.9,35.8 136.1,36 C134.8,36.2 133.5,36.6 132.1,36.8 C131.2,36.9 130.2,36.7 129.3,36.8 C128.5,36.8 127.7,37 126.7,37.2 C126.3,35.2 126,33.1 125.6,31 C125.5,30.7 125.5,30.4 125.5,30 C125.2,27.8 125.5,27.3 127.5,26.3 C127.8,26.2 128.3,26.3 128.5,26.5 C129.7,27.6 130.9,27.8 132.3,27.1 C133.1,26.7 133.8,26.8 134.7,27.1 C135.6,27.4 136.7,27.3 137.7,27.1 C138.1,27 138.6,26.2 138.5,25.8 C138.4,25.4 137.7,24.8 137.3,24.9 C136.3,25 135.6,24.6 134.7,24.4 C133.9,24.2 132.8,24.4 131.9,24.7 C131.1,24.9 130.6,25.1 129.9,24.4 C129.1,23.5 128,23.4 126.9,23.9 C126.3,24.2 125.8,24.5 125.1,24.9 C124.9,22.3 124.7,19.8 124.5,17.3 C124.4,15.5 124.4,13.6 124.3,11.8 C124.2,10.3 123.9,10 122.3,10.1 C121.8,10.1 121.3,10 120.8,9.7 C123,9.6 125.1,9.4 127.3,9.3 C133.6,9 139.8,8.8 146.1,8.5 C147.2,8.5 147.6,8.6 147.8,9.8 C148.7,15 148.7,20.3 148.2,25.5 C147.5,33.3 147.8,41 148.4,48.7 C148.8,54 148.8,59.2 148.9,64.5 C149,76.9 148.8,89.4 148.9,101.8 C149,108 149.6,114.2 149.7,120.4 C149.8,127.1 149.8,133.7 149,140.4 C148.3,146.6 148.2,152.9 147.4,159 C147,162.1 147.5,165.2 147.2,168.3 C147.1,169.4 146.4,169.7 145.7,169.8 C143.8,170 141.8,170 139.8,170.1 C139.1,170.1 138.8,169.9 138.7,169.2 C138.5,166.7 138.2,164.2 138.2,161.7 C138.1,156.8 138.2,151.9 138.3,147.1 C138.3,146.9 138.4,146.5 138.6,146.4 C139.4,146 140,145.4 139.7,144.6 C139.5,144.1 138.8,143.7 138.3,143.3 C138.2,143.4 138.1,143.4 138,143.5 C137.2,139 136.4,134.5 135.5,129.7 C136.7,129.7 137.6,129.8 138.5,129.7 C139,129.6 139.7,129.5 140,129.1 C140.3,128.8 140.5,128 140.3,127.6 C140.2,127.3 139.5,127 139,127 C137.8,126.9 136.6,127 135.2,127.2 Z" id="Shape" fill="#FFFFFF"></path>
                    <path d="M162.4,164.3 C158.2,164.3 154,164.3 149.6,164.3 C149.6,163.5 149.5,162.5 149.6,161.6 C150.4,152.7 151.4,143.9 151.9,135 C152.4,126.5 152.1,118 151.7,109.5 C151.3,100.1 151.4,90.7 151.3,81.3 C151.3,77.2 151.3,73.1 151.3,69.1 C151.3,66.4 151.4,63.7 151.3,61.1 C151.1,55.1 150.9,49.2 150.4,43.3 C149.9,37.8 150.2,32.4 150.5,27 C150.9,21.2 151,15.4 150.1,9.6 C149.9,8.7 149.7,7.7 149.3,6.9 C149.1,6.5 148.4,6.1 147.9,6.1 C145.6,6.1 143.3,6.3 141,6.4 C137.4,6.6 133.8,6.7 130.2,6.8 C126.2,6.9 122.3,7 118.3,7.2 C115.1,7.3 111.9,7.5 108.7,7.6 C105.8,7.7 102.8,7.6 99.9,7.9 C93.6,8.5 87.3,9.2 80.9,9.9 C72.4,10.8 64,11.6 55.5,12.7 C50.4,13.3 45.3,14.2 40.2,15 C39.4,15.1 38.5,15.2 37.7,15.2 C37.7,14 38.3,13.5 39.2,13.2 C40.9,12.6 42.6,12 44.3,11.4 C46.2,10.8 48,10.3 49.9,9.8 C51.7,9.3 53.6,9.1 55.4,8.5 C59.2,7.2 63.1,7.4 66.9,7.2 C74,6.7 81,6.3 88.1,5.9 C89.2,5.8 90.4,5.8 91.4,6 C95,6.6 98.5,6.4 102,5.9 C102.8,5.8 103.7,5.8 104.5,5.7 C113.5,5.4 122.6,5.1 131.6,4.8 C134.8,4.7 138.1,4.6 141.3,4.4 C145.2,4.1 149.1,3.7 153,3.5 C154.5,3.4 156,3.8 157.5,4 C158.4,4.1 158.7,4.7 158.9,5.5 C160.8,13.4 160.5,21.5 160.3,29.5 C160.2,33.7 159.7,37.9 159.4,42.1 C158.9,48.7 159,55.4 159.3,62 C159.7,71.7 159.9,81.5 160.3,91.3 C160.5,95.5 160.9,99.8 161.2,104 C161.4,107 161.6,110 161.7,113 C161.9,124.8 162,136.6 162.1,148.4 C162.1,152.3 161.9,156.2 161.9,160.1 C162,161.3 162.2,162.6 162.4,164.3 Z" id="Shape" fill="#FFFFFF"></path>
                    <path d="M22.6,24.8 C22.5,24.3 22.4,23.9 22.3,23.5 C21.9,21.1 22,21.1 24.3,20.5 C29.9,18.8 35.6,17.8 41.5,17.2 C48.4,16.4 55.2,15.1 62.2,14.6 C69.4,14.1 76.5,12.9 83.6,12.1 C90.5,11.3 97.3,10.6 104.2,10 C107.8,9.7 111.4,10 115,9.9 C114.5,10 114,10 113.6,10.1 C102.4,11.2 91.4,13.1 80.4,15.5 C72.9,17.1 65.2,17.9 57.5,18.8 C46.9,20.1 36.3,21.8 25.9,24.3 C24.8,24.5 23.8,24.6 22.6,24.8 Z" id="Shape" fill="#FFFFFF"></path>
                    <path d="M94.9,55 C94.7,58.9 94.5,62 93.1,64.9 C91.7,67.7 89.7,70.2 87.5,72.5 C83.8,76.6 79.3,79.2 73.9,80.3 C71.3,80.8 68.7,81.7 66.1,82.1 C64.4,82.4 62.7,82.3 61,82.1 C58.4,81.7 55.8,81.3 53.3,80.4 C50.2,79.3 48.2,76.6 46,74.4 C45.6,74 45.1,73.6 44.7,73.2 C43.6,71.8 42.5,70.4 41.6,68.8 C39.8,65.6 38.6,62.1 38.9,58.4 C39.3,53.3 41.1,48.7 44,44.5 C48,38.9 53.7,35.9 59.8,33.6 C59.9,33.5 60.1,33.5 60.3,33.5 C63.6,33.5 66.8,31.9 70.1,31.9 C74,31.9 77.7,32.4 81.2,34.6 C86.9,38 90.2,43.4 93.4,48.8 C94.7,50.8 95.1,53.2 94.9,55 Z M92.5,55.6 C92.4,54.5 92.2,53.5 92.1,52.4 C91.6,49.5 89.8,47.3 88.2,44.9 C85.8,41.3 83.1,38.1 79.2,36.2 C78.1,35.6 76.9,35 75.6,34.9 C73.1,34.6 70.6,33.8 68,34.9 C67.9,35 67.7,34.9 67.5,35 C65,35.4 62.5,35.9 60.1,36.3 C60,36.3 59.9,36.4 59.8,36.4 C54.6,38.4 49.9,41.1 46.4,45.7 C43.7,49.3 42,53.4 41.6,57.7 C41.2,63.1 42.9,68 47.2,71.8 C47.5,72 47.6,72.4 47.9,72.6 C49.8,74.7 51.7,77 54.4,78.1 C56.6,79 59,79.3 61.4,79.7 C62.8,79.9 64.3,80 65.7,79.8 C68.3,79.3 70.9,78.5 73.5,78 C78.4,77 82.4,74.5 85.8,70.9 C89.7,66.5 92.8,61.8 92.5,55.6 Z" id="Shape" fill="#000000"></path>
                    <path d="M109.1,106.2 C106.4,105.5 103.8,106 101.2,106.6 C100.9,106.7 100.6,106.7 100.4,106.7 C97.2,106.8 93.9,106.8 90.7,107 C89.3,107.1 87.9,107.5 86.5,107.9 C80.3,109.5 74,111 67.6,111.7 C62.3,112.3 57.1,113.8 51.9,114.9 C48.7,115.6 45.6,115.7 42.5,114.2 C41.3,113.6 40.2,113.8 39.1,114.5 C38.1,115.2 37,115.9 36,116.6 C33.3,118.5 31.7,118.4 29.2,116.3 C28.7,115.9 28,115.7 27.5,115.3 C27.1,115 26.6,114.3 26.7,114 C26.8,113.6 27.5,113.1 27.9,113 C28.5,112.9 29.1,113.2 29.7,113.5 C30.3,113.8 30.8,114.3 31.3,114.8 C32.2,115.6 33.1,115.6 34,115 C35,114.3 36,113.6 37.1,112.9 C39.3,111.4 41.6,111.1 44.1,112.3 C46.3,113.4 48.7,113.2 51,112.7 C56.2,111.6 61.5,110.4 66.7,109.4 C70.3,108.7 73.9,108.5 77.5,107.8 C81.1,107.1 84.7,105.9 88.3,105 C88.7,104.9 89.1,104.8 89.5,104.8 C92.6,104.7 95.8,104.7 98.9,104.5 C100.6,104.4 102.4,103.9 104.1,103.8 C105.5,103.7 107,103.8 108.4,103.8 C108.8,103.8 109.3,103.9 109.7,103.8 C110.5,103.7 111.1,103.8 111.3,104.6 C111.5,105.5 111,106 110.3,106.3 C110,106.1 109.5,106.1 109.1,106.2 Z" id="Shape" fill="#000000"></path>
                    <path d="M42.4,145.4 C43.8,145.6 44.9,145.7 46.1,145.9 C48,146.2 49.7,146.1 51.5,145.5 C55.7,144.1 60.1,143.5 64.5,144 C67.9,144.4 71,143.4 74.1,142.3 C76.7,141.4 79.3,140.4 81.9,139.7 C83.1,139.4 84.4,139.3 85.6,139.6 C89.2,140.5 92.5,139.1 95.9,138.5 C100.4,137.7 104.9,136.8 109.4,135.9 C110.2,135.7 111.1,135.5 111.9,135.2 C112.8,134.9 113.6,135.5 113.5,136.5 C113.4,137.6 112.7,138.3 111.6,138.3 C105.4,138.6 99.5,140.6 93.5,141.6 C90.7,142.1 88.1,142.7 85.2,142 C82.9,141.5 80.6,142.4 78.3,143.2 C75.6,144.2 73,145.2 70.3,146 C68.7,146.4 66.9,146.6 65.2,146.5 C60.5,146.1 56,146.6 51.6,148.1 C49.6,148.8 47.5,148.8 45.4,148.3 C43.2,147.8 41,147.8 39,149 C38.5,149.3 37.8,149.5 37.2,149.6 C35.2,149.9 33.4,150.6 31.8,151.9 C31.2,152.4 30.3,152.5 29.7,151.8 C29.4,151.4 29.4,150.7 29.3,150.1 C29.3,149.9 29.7,149.5 29.9,149.4 C32,148.6 34.2,147.9 36.4,147.2 C37.6,146.8 38.7,146.3 39.9,145.9 C40.8,145.7 41.7,145.6 42.4,145.4 Z" id="Shape" fill="#000000"></path>
                    <path d="M110.1,155.9 C109.4,156 108.3,156 107.3,156.1 C105.7,156.3 104.2,156.1 102.8,155.5 C102.1,155.2 101.2,155.4 100.4,155.3 C98.9,155.2 97.5,155.2 96,155.1 C94.9,155 93.7,154.8 92.6,154.6 C88.2,154.2 84,154.7 79.8,156 C78.3,156.5 76.9,157.3 75.3,157.7 C72.6,158.4 69.9,159.1 67.2,159.6 C64.6,160.1 62,160.6 59.4,161 C55.2,161.6 51.1,162 46.9,162.6 C44.1,163 41.2,163.5 38.4,163.8 C36.3,164.1 34.1,164.3 32,164.6 C31.6,164.6 31.1,164.6 30.7,164.4 C30.4,164.2 30.1,163.7 30.1,163.4 C30.1,163 30.5,162.7 30.7,162.4 C30.8,162.3 31.1,162.2 31.4,162.2 C39.1,161.2 46.8,160.2 54.6,159.3 C55.8,159.1 57.1,159 58.3,158.8 C61.8,158.2 65.4,157.8 68.9,157 C71.4,156.5 73.8,155.7 76.2,154.8 C80.8,153 85.5,151.8 90.5,152.1 C92.9,152.2 95.4,152.2 97.7,152.9 C98.3,153.1 99,152.9 99.7,152.8 C101.3,152.5 102.7,152.5 104.2,153.3 C104.9,153.7 105.9,153.6 106.8,153.6 C108.4,153.6 110.1,153.5 111.7,153.4 C112.1,153.4 112.6,153.4 112.8,153.7 C113.2,154.1 113.6,154.7 113.6,155.1 C113.6,155.4 112.9,155.9 112.4,156 C111.8,156.2 111.1,156 110.1,155.9 Z" id="Shape" fill="#000000"></path>
                    <path d="M38.2,131.5 C40.6,131.7 42.6,132 44.6,132.1 C46.1,132.2 47.7,132.2 49.3,132.1 C52.1,131.9 54.9,131.5 57.8,131.4 C61.2,131.3 64.3,130.2 67.5,129.4 C68.6,129.1 69.9,128.8 71,129 C75.2,129.6 79.4,128.8 83.5,128.2 C85.6,127.9 87.7,127.8 89.8,127.5 C90.7,127.4 91.6,127 92.4,126.6 C93.9,125.8 95.5,125.4 97.2,125.6 C99.1,125.8 101.1,125.7 103.1,125.7 C103.8,125.7 104.4,125.4 105.1,125.3 C106.4,125.1 107.7,124.8 109.1,124.8 C109.9,124.8 110.6,125.3 110.5,126.2 C110.4,127.2 109.6,127.2 108.8,127.2 C108,127.2 107.2,127.2 106.5,127.5 C104.6,128.4 102.6,128.4 100.5,128.3 C99.1,128.2 97.6,128.1 96.2,128.2 C95.5,128.2 94.7,128.4 94.2,128.8 C92.2,130 90,130.2 87.8,130.5 C85.3,130.8 82.7,131.1 80.2,131.3 C77.5,131.5 74.8,131.7 72.1,131.5 C69.6,131.4 67.4,132.3 65.1,132.8 C62.8,133.3 60.6,133.7 58.3,133.9 C55.4,134.3 52.4,134.6 49.5,134.7 C47.3,134.8 45.1,134.7 42.9,134.4 C38.9,134 35.1,134.2 31.4,135.8 C30.5,136.2 29.6,136.4 28.6,136.5 C28.1,136.5 27.7,135.9 27.2,135.5 C27.5,135 27.8,134.3 28.3,134.1 C29.5,133.6 30.8,133.2 32.2,132.8 C34,132.4 36.3,131.9 38.2,131.5 Z" id="Shape" fill="#000000"></path>
                    <path d="M107.7,115 C104.8,115.3 101.9,115.4 99,115.9 C97.4,116.2 95.8,116.9 94.3,117.7 C91.5,119.3 88.8,119.9 85.7,118.7 C83.6,117.9 81.5,118.1 79.5,119.1 C74.7,121.4 69.7,122.7 64.4,123.2 C60.3,123.6 56.3,124.5 52.2,125.1 C51.6,125.2 51.1,125.4 50.5,125.3 C46.7,125 43,125.9 39.2,126.4 C38.2,126.5 37.2,126.3 36.2,126.2 C35.1,126.2 34,126.1 32.9,126.1 C32.5,126.1 31.9,126.3 31.6,126.1 C31.2,125.9 30.7,125.4 30.6,125 C30.6,124.7 31.1,124 31.4,123.9 C32.6,123.6 34,123.2 35.2,123.5 C38.2,124.2 41.1,123.6 44,123.1 C44.5,123 45,122.8 45.5,122.9 C51.6,123.2 57.4,121.7 63.3,120.8 C65.7,120.4 68.2,120.3 70.5,119.7 C72.9,119.1 75.2,118.1 77.5,117.1 C80.6,115.7 83.7,115.3 86.9,116.5 C88.6,117.1 90.2,117.1 91.7,116.1 C96.6,113 102.1,112.9 107.5,112.7 C108.5,112.7 109.4,112.6 110.4,112.8 C110.9,112.9 111.7,113.4 111.7,113.7 C111.7,114.2 111.2,114.8 110.8,115.1 C110.4,115.4 109.7,115.3 109.2,115.3 C108.6,115.3 108.1,115.2 107.5,115.2 C107.8,115.1 107.8,115.1 107.7,115 Z" id="Shape" fill="#000000"></path>
                    <path d="M36,172.8 C36.7,172.7 37.4,172.7 38,172.6 C38.5,172.5 39,172.3 39.4,172 C42.3,170.4 45.2,169.7 48.6,170.5 C52.1,171.3 55.5,170.4 59,169.5 C64.5,168.2 70.2,167.1 75.8,166.1 C77.1,165.9 78.4,165.9 79.7,165.9 C82.3,166 84.8,165.7 87.3,165 C92.2,163.6 97.2,163 102.4,163.8 C103.4,164 104.5,163.9 105.5,163.9 C106.2,163.9 106.9,163.9 107.3,163.1 C107.7,162.4 108.5,162.5 109.1,163.1 C109.7,163.7 109.8,164.9 109.1,165.5 C108.6,165.9 108,166.2 107.4,166.3 C105.6,166.4 103.8,166.6 102,166.3 C97,165.6 92.2,166.4 87.4,167.6 C85.4,168.1 83.2,168.5 81.2,168.5 C74,168.4 67.1,170 60.2,171.9 C55.6,173.2 51.1,173.8 46.4,172.9 C45.3,172.7 44.1,173 43,173.3 C41.6,173.7 40.4,174.5 39,175 C37.4,175.6 35.7,175.7 34.2,174.5 C33,173.5 32.9,172 34.1,171 C34.5,170.7 35.3,170.5 35.8,170.6 C36.1,170.7 36.1,171.6 36.3,172.1 C36.2,172.2 36.1,172.4 36,172.8 Z" id="Shape" fill="#000000"></path>
                    <path d="M29.9,100.5 C29.2,101.6 28.6,102.6 28,103.5 C27.5,104.2 27.2,105.1 26.5,105.7 C25.6,106.6 24.4,106.5 23.8,105.4 C22.9,103.5 22.1,101.4 21.4,99.4 C21.3,99.1 21.7,98.3 22.1,98.1 C22.5,98 23.2,98.2 23.5,98.5 C23.9,99 24.1,99.7 24.3,100.3 C24.6,101.1 24.9,101.9 25.3,102.9 C25.6,102.4 25.7,102 25.9,101.7 C26.6,100.7 27.2,99.7 28.1,98.9 C29.5,97.5 31.1,97.6 32.2,99.2 C33.1,100.5 34.1,100.9 35.5,100.5 C36.4,100.3 37.2,100.2 38.1,100.1 C41.5,99.5 44.8,98.7 48.2,98.2 C51.1,97.7 54,97.4 56.8,97.1 C57.6,97 58.4,97.2 58.5,98.2 C58.6,99.2 57.9,99.5 57.1,99.6 C54.4,100 51.6,100.2 48.9,100.7 C45.1,101.3 41.4,102.1 37.6,102.9 C37.3,103 37.1,103 36.8,103 C33.2,103.3 33.2,104.4 29.9,100.5 Z" id="Shape" fill="#000000"></path>
                    <path d="M92.5,55.6 C92.8,61.8 89.8,66.5 85.8,70.8 C82.4,74.5 78.4,76.9 73.5,77.9 C70.9,78.5 68.3,79.3 65.7,79.7 C64.3,79.9 62.8,79.8 61.4,79.6 C59,79.2 56.6,78.9 54.4,78 C51.7,76.9 49.8,74.6 47.9,72.5 C47.7,72.2 47.5,71.9 47.2,71.7 C43,68 41.2,63 41.6,57.6 C41.9,53.3 43.7,49.2 46.4,45.6 C49.9,41 54.6,38.3 59.8,36.3 C59.9,36.3 60,36.2 60.1,36.2 C62.6,35.7 65.1,35.3 67.5,34.9 C67.7,34.9 67.8,34.9 68,34.8 C70.5,33.8 73.1,34.5 75.6,34.8 C76.8,35 78,35.6 79.2,36.1 C83.1,38.1 85.9,41.2 88.2,44.8 C89.8,47.2 91.6,49.4 92.1,52.3 C92.2,53.5 92.3,54.5 92.5,55.6 Z M89.1,57.7 C89.2,54.5 88.3,51.8 87.1,49.3 C85,45 81.2,42.7 76.9,41.2 C75,40.5 73,40.3 71.1,39.9 C70.2,39.7 69.4,39.6 68.5,39.6 C65.5,39.6 62.8,40.7 60.1,41.7 C58.3,42.4 56.5,43.2 55,44.3 C51.4,46.8 49.2,50.5 47.4,54.4 C46.9,55.4 46.8,56.7 47,57.8 C47.6,62.1 48.6,66.3 50.8,70.1 C51.5,71.3 52.6,72.2 53.6,73.1 C54.3,73.7 55.3,74 56.1,74.5 C58.3,75.8 60.5,76.9 63.1,76.8 C65.3,76.7 67.5,76.7 69.6,76.6 C72.2,76.4 74.5,75.4 76.8,74.2 C79.5,72.7 81.9,70.9 83.9,68.6 C86.6,65.3 89.3,62 89.1,57.7 Z" id="Shape" fill="#FFFFFF"></path>
                    <path d="M89.1,57.7 C89.3,62 86.6,65.3 83.9,68.6 C81.9,70.9 79.5,72.7 76.8,74.2 C74.5,75.4 72.2,76.4 69.6,76.6 C67.4,76.7 65.2,76.7 63.1,76.8 C60.5,76.9 58.2,75.9 56.1,74.5 C55.3,74 54.3,73.7 53.6,73.1 C52.6,72.2 51.4,71.3 50.8,70.1 C48.6,66.3 47.7,62.1 47,57.8 C46.8,56.7 47,55.4 47.4,54.4 C49.2,50.5 51.4,46.8 55,44.3 C56.5,43.2 58.3,42.4 60.1,41.7 C62.8,40.6 65.6,39.6 68.5,39.6 C69.4,39.6 70.3,39.7 71.1,39.9 C73.1,40.3 75.1,40.5 76.9,41.2 C81.2,42.7 85,45 87.1,49.3 C88.3,51.8 89.2,54.5 89.1,57.7 Z M63.5,68.3 C64.5,70.2 65.3,71.9 66.2,73.5 C66.4,73.8 66.8,74.1 67.1,74.1 C70.1,74.2 72.9,73.4 75.5,71.9 C78,70.5 80.4,68.9 82.1,66.6 C83.7,64.5 85.4,62.4 86.3,60 C87.5,56.5 86.3,53.1 84.7,49.8 C83.6,47.6 81.6,46.4 79.7,45.1 C76.4,42.8 72.4,42.2 68.6,42.1 C64.1,41.9 60,43.9 56.3,46.3 C53.1,48.4 51.3,51.8 49.7,55.1 C49.4,55.8 49.2,56.7 49.4,57.4 C50.2,60.7 51.1,64 52.1,67.3 C52.7,69.1 53.8,70.5 55.7,71.3 C56.9,71.8 58.1,72.5 59.3,73.3 C60.6,74.2 62.1,74 63.7,74.1 C63.4,73.5 63.2,73.1 63.1,72.7 C62,70.2 60.9,67.7 59.9,65.1 C58.6,61.9 57.5,58.7 56.2,55.5 C55.6,53.9 55.6,52.9 56.8,51.7 C57.1,51.4 57.5,51 57.8,50.7 C59.3,49.1 60.9,47.8 63.2,47.8 C64.9,47.8 66.6,47.7 68.3,47.7 C70.3,47.7 72.1,47.4 73.6,46 C75.1,44.6 76.3,44.9 77.1,46.7 C77.9,48.5 78.8,50.3 79.6,52.1 C80.4,53.9 81.2,55.8 81.9,57.6 C82.4,58.9 82,59.9 81,60.4 C79.4,61.3 77.8,62.2 76.4,63.3 C74.7,64.6 73.2,66 71,66.3 C69.4,66.5 67.8,66.8 66.2,67.1 C65.4,67.5 64.5,67.9 63.5,68.3 Z M75.2,48.4 C74.3,48.9 73.5,49.3 72.8,49.6 C72.3,49.8 71.7,50.1 71.1,50.1 C69,50.3 66.8,50.6 64.7,50.4 C61.8,50.1 60.3,51.9 58.7,53.7 C58.5,53.9 58.6,54.6 58.8,55 C58.8,55.1 59.5,55.1 59.8,55 C60.8,54.6 61.7,54.1 62.7,53.8 C66.7,52.7 69.6,55.4 69.4,59.4 C69.3,61.3 68.5,62.6 66.7,63.4 C65.3,64 64.1,64.9 62.9,65.7 C63.4,65.7 63.8,65.6 64.2,65.5 C65,65.3 65.8,65 66.6,64.9 C68.2,64.6 69.7,64.4 71.3,64 C72,63.8 72.7,63.5 73.2,63.1 C75.2,61.7 77.1,60.3 79.1,58.8 C79.3,58.6 79.6,58.1 79.5,57.9 C78,54.7 76.6,51.6 75.2,48.4 Z M59.8,58 C60.6,59.8 61.2,61.4 61.9,63 C62.4,62.8 62.9,62.6 63.4,62.3 C64.4,61.6 65.7,61.1 66.4,60.2 C67.2,59.2 66.9,57.9 66.1,56.9 C65.4,56 64.3,55.8 63.3,56.3 C62.1,56.7 61.1,57.4 59.8,58 Z" id="Shape" fill="#000000"></path>
                    <path d="M63.5,68.3 C64.6,67.9 65.4,67.5 66.3,67.3 C67.9,66.9 69.5,66.7 71.1,66.5 C73.3,66.2 74.8,64.8 76.5,63.5 C78,62.4 79.6,61.5 81.1,60.6 C82,60.1 82.5,59.1 82,57.8 C81.3,55.9 80.5,54.1 79.7,52.3 C78.9,50.5 78,48.7 77.2,46.9 C76.4,45.1 75.2,44.8 73.7,46.2 C72.2,47.6 70.3,47.9 68.4,47.9 C66.7,47.9 65,47.9 63.3,48 C61,48.1 59.4,49.4 57.9,50.9 C57.6,51.2 57.2,51.6 56.9,51.9 C55.7,53.1 55.7,54.2 56.3,55.7 C57.6,58.9 58.7,62.1 60,65.3 C61,67.9 62.1,70.4 63.2,72.9 C63.4,73.3 63.6,73.7 63.8,74.3 C62.1,74.2 60.7,74.4 59.4,73.5 C58.3,72.7 57.1,72 55.8,71.5 C53.9,70.7 52.8,69.3 52.2,67.5 C51.2,64.2 50.3,60.9 49.5,57.6 C49.3,56.9 49.5,55.9 49.8,55.3 C51.5,52 53.2,48.6 56.4,46.5 C60.1,44.1 64.2,42.1 68.7,42.3 C72.5,42.5 76.4,43 79.8,45.3 C81.7,46.6 83.7,47.8 84.8,50 C86.4,53.2 87.6,56.7 86.4,60.2 C85.6,62.6 83.8,64.8 82.2,66.8 C80.5,69.1 78.1,70.7 75.6,72.1 C73,73.5 70.2,74.3 67.2,74.3 C66.9,74.3 66.5,74 66.3,73.7 C65.3,71.9 64.5,70.2 63.5,68.3 Z" id="Shape" fill="#FFFFFF"></path>
                    <path d="M75.2,48.4 C76.6,51.6 78,54.7 79.3,57.8 C79.4,58 79.2,58.5 78.9,58.7 C77,60.2 75,61.6 73,63 C72.4,63.4 71.7,63.7 71.1,63.9 C69.6,64.3 68,64.5 66.4,64.8 C65.6,65 64.8,65.2 64,65.4 C63.6,65.5 63.2,65.7 62.7,65.6 C64,64.8 65.2,63.9 66.5,63.3 C68.3,62.5 69.1,61.2 69.2,59.3 C69.5,55.3 66.6,52.6 62.5,53.7 C61.5,54 60.6,54.5 59.6,54.9 C59.3,55 58.6,55 58.6,54.9 C58.4,54.5 58.3,53.9 58.5,53.6 C60.1,51.8 61.6,50.1 64.5,50.3 C66.6,50.5 68.8,50.2 70.9,50 C71.5,50 72,49.7 72.6,49.5 C73.5,49.3 74.2,48.9 75.2,48.4 Z" id="Shape" fill="#FFFFFF"></path>
                    <path d="M59.8,58 C61,57.3 62.1,56.7 63.3,56.2 C64.3,55.8 65.4,56 66.1,56.8 C66.9,57.8 67.2,59.2 66.4,60.1 C65.7,61 64.5,61.5 63.4,62.2 C62.9,62.5 62.4,62.7 61.9,62.9 C61.3,61.4 60.6,59.8 59.8,58 Z" id="Shape" fill="#FFFFFF"></path>
                </g>
            </g>
        </g>
    </g>
</svg>