<?xml version="1.0" encoding="utf-8"?>
<!-- Generator: Adobe Illustrator 24.0.1, SVG Export Plug-In . SVG Version: 6.00 Build 0)  -->
<svg version="1.1" xmlns="http://www.w3.org/2000/svg" xmlns:xlink="http://www.w3.org/1999/xlink" x="0px" y="0px"
	 viewBox="0 0 156.8 136.3" style="enable-background:new 0 0 156.8 136.3;" xml:space="preserve">
<style type="text/css">
	.st0{fill:#B7D6E2;}
	.st1{fill:#DDDDDD;}
	.st2{fill:#FFFFFF;}
</style>
<g id="Calque_2">
	<g>
		<path class="st0" d="M111.2,53.2c-11.9-2.6-21.3-11.5-32.1-17.2c-10.8-5.8-23.6-8.5-35.6-5.7s-22.8,11.4-26.7,23
			s0.4,25.9,10.9,32.4c7.1,4.4,16.1,5,23.1,9.5c4,2.5,7.1,6.2,10.7,9.2c7.8,6.5,18.1,9.8,28.3,9.2c10.1-0.6,20-5.3,26-13.5
			c6-8.1,7.4-19.7,2.6-28.5"/>
	</g>
</g>
<g id="Calque_1">
	<g>
		<path d="M118.3,102.5c0.6,1.4,1.1,2.6,1.6,3.8c1,2.5,1.9,5,2.8,7.5c0.6,1.5-0.1,2.4-1.7,2.5c-0.7,0-1.4,0.1-2.1,0.2
			c-1.4,0.2-2,0-2.7-1.2c-1.2-2-2.3-4-3.4-6c-1.1-2-2.2-4-3.4-6.2c-0.7-0.2-1.5,0-2.3,0.1c-0.6,0.1-1.2,0.2-1.8,0.2
			c-2.1-0.1-4.1-0.4-6.2-0.4c-2.8-0.1-5.7-0.1-8.5,0.1c-3.1,0.2-6.2,0.7-9.3,0.9c-1.8,0.1-3.6,0.1-5.4,0c-1.7,0-3.4-0.2-5.1-0.3
			c-1.2-0.1-2.5-0.3-3.7-0.4c-1.5-0.1-3-0.2-4.4-0.1c-3.9,0.2-7.7-0.2-11.6-0.7c-1.8-0.2-3.7-0.3-5.5-0.5c-1-0.1-2-0.3-3.1-0.5
			c-0.5-0.1-0.8-0.4-0.9-0.9c0-0.2-0.1-0.3-0.1-0.5c-0.1-6.6-0.8-13.2-0.7-19.8c0.1-5.1-0.1-10.2-0.2-15.2c0-1.2,0-2.3,0-3.5
			c0.2-4.8,0.3-9.7,0.5-14.5c0.1-1.5,0.2-2.9,0.3-4.4c0.1-1.1,0.3-1.4,1.4-1.5c1.6-0.1,3.1-0.1,4.7-0.2c1.7-0.1,3.3-0.3,5-0.5
			c0.9-0.1,1.9-0.5,2.8-0.7c5.1-1.6,10.4-2.2,15.7-2.5c5.1-0.2,10.1-0.6,15.2-0.8c2.4-0.1,4.9,0.1,7.3,0.1c3.3,0,6.6-0.1,9.8-0.1
			c4,0,8-0.1,12-0.1c2.3,0,4.6-0.1,6.8,0c2.5,0.2,5,0.1,7.5-0.2c1.2-0.1,2.4-0.3,3.6-0.4c0.6-0.1,1.2-0.1,1.8-0.1
			c0.8,0,1.1,0.5,1.2,1.2c0.1,1.1,0.4,2.3,0.5,3.4c0.2,1.8,0.6,3.6,0.7,5.3c0.1,4.3,0,8.6,0.1,12.8c0.1,3.2,0.4,6.5,0.6,9.7
			c0.1,1,0.2,2,0.2,3c0.3,7,0.3,14.1,0,21.1c-0.1,2.9-0.5,5.7-0.9,8.6c-0.2,1.7-1.2,2.7-2.9,3c-1.2,0.2-2.4,0.2-3.6,0.3
			c-3.7,0.2-7.2-0.3-10.8-1.2C119.7,102.8,119.1,102.7,118.3,102.5z M43.6,99.3c0.6,0.6,1.4,0.5,2.2,0.6c1.8,0.2,3.6,0.3,5.4,0.5
			c3.7,0.5,7.4,0.9,11.1,0.7c1.7-0.1,3.4,0.1,5.1,0.2c1,0.1,2.1,0.3,3.1,0.3c1.8,0.1,3.7,0.3,5.5,0.3c1.6,0.1,3.3,0.1,4.9,0
			c3.3-0.3,6.5-0.7,9.8-0.9c2.1-0.1,4.2-0.1,6.2,0c2.6,0,5.1,0,7.7,0.3c1.4,0.1,2.6-0.2,4.1-0.4c-0.4-0.9-0.8-1.7-1.1-2.5
			c-0.3-0.6-0.7-1.3-1-1.9c-1.2-2.4-2.3-4.9-3.9-7.1c-0.5-0.7-1-1.5-1.1-2.3c-0.3-1.7-0.3-3.5-0.3-5.3c0-1.2,1.2-1.9,2.3-1.3
			c0.4,0.2,0.7,0.5,1.1,0.8c0.5,0.4,0.9,0.7,1.4,1.1c1,0.6,1.8,1.5,2.2,2.6c0.9,2.6,2.4,4.9,3.9,7.2c1.8,2.9,3.8,5.6,5.2,8.7
			c0,0.1,0.1,0.1,0.2,0.1c0.6-0.2,1.2-0.2,1.7-0.2c0.6,0.1,1.2,0.2,1.8,0.4c3.3,0.8,6.7,1.3,10.1,1.1c1-0.1,2.1-0.1,3.1-0.2
			c1.1-0.2,1.4-0.5,1.6-1.6c0.3-3.1,0.7-6.2,0.9-9.3c0.2-2.9,0-5.8,0.1-8.6c0.2-4-0.2-8.1-0.2-12.1c0-0.6-0.1-1.1-0.1-1.7
			c-0.2-3.4-0.5-6.9-0.6-10.3c-0.1-4.2,0-8.5,0-12.7c0-2.7-0.8-5.2-1.3-7.8c-1.1,0.1-2.2,0.3-3.3,0.4c-2.8,0.1-5.5,0.5-8.4,0.2
			c-2.3-0.2-4.5-0.1-6.8,0c-4.5,0.1-9,0.1-13.6,0.2c-2,0-4,0.1-6,0.1c-3.3,0-6.6-0.2-9.8-0.1c-5.1,0.2-10.1,0.6-15.2,0.8
			c-5.3,0.2-10.4,0.9-15.5,2.5c-2.7,0.9-5.4,1.1-8.2,1.2c-1.3,0.1-2.6,0.2-4,0.3c-0.1,0.4-0.1,0.7-0.1,1c-0.2,4-0.4,7.9-0.6,11.9
			c-0.1,2.9-0.2,5.8-0.2,8.6c0,4.1,0.2,8.2,0.2,12.4c0,2.4-0.1,4.9,0,7.3c0.2,4.8,0.4,9.5,0.7,14.3C43.5,98.9,43.6,99.1,43.6,99.3z
			 M119.3,110.5c-0.2-0.5-0.3-0.9-0.4-1.3c-1-2.6-2.2-5.1-3.4-7.6c-1.3-2.7-2.9-5.1-4.5-7.6c-0.6-0.9-1.1-1.8-1.6-2.6
			c-0.7-1.2-1.5-2.4-2.2-3.7c-0.8,0.4-1.6,0.7-2.3,1.1c0.6,1.2,1.3,2.4,1.9,3.6c0.7,1.5,1.5,2.9,2.2,4.4c0.6,1.2,1.1,2.4,1.7,3.6
			c0.9,2,1.8,4,2.7,6c0.6,1.2,1.3,2.4,2,3.5c0.4,0.6,0.8,1.3,1.1,1.8C117.6,111.7,118.4,111,119.3,110.5z M103.1,83.8
			c0.1,1,0,2,0.4,3.1c0.9-0.4,1.8-0.7,2.6-1.1C105.5,84,104.6,83.4,103.1,83.8z M120.7,114.1c-0.2-0.6-0.4-1.1-0.6-1.6
			c-0.9,0.4-1.7,0.8-2.5,1.2c0.2,0.3,0.4,0.6,0.6,0.8C119,114.3,119.7,114.2,120.7,114.1z"/>
		<path class="st2" d="M43.6,99.3c0-0.2-0.1-0.4-0.1-0.7c-0.2-4.8-0.5-9.5-0.7-14.3c-0.1-2.4,0.1-4.9,0-7.3c0-4.1-0.2-8.2-0.2-12.4
			c0-2.9,0.1-5.8,0.2-8.6c0.2-4,0.4-7.9,0.6-11.9c0-0.3,0.1-0.6,0.1-1c1.4-0.1,2.7-0.2,4-0.3c2.8-0.1,5.5-0.4,8.2-1.2
			c5-1.6,10.2-2.3,15.5-2.5c5.1-0.2,10.1-0.6,15.2-0.8c3.3-0.1,6.6,0.1,9.8,0.1c2,0,4-0.1,6-0.1c4.5-0.1,9-0.1,13.6-0.2
			c2.3,0,4.6-0.2,6.8,0c2.8,0.3,5.6-0.1,8.4-0.2c1.1-0.1,2.1-0.2,3.3-0.4c0.6,2.6,1.3,5.2,1.3,7.8c0,4.2-0.1,8.5,0,12.7
			c0.1,3.4,0.4,6.9,0.6,10.3c0,0.6,0.1,1.1,0.1,1.7c0.1,4,0.4,8.1,0.2,12.1c-0.1,2.9,0,5.8-0.1,8.6c-0.2,3.1-0.5,6.2-0.9,9.3
			c-0.1,1.1-0.5,1.5-1.6,1.6c-1,0.1-2.1,0.2-3.1,0.2c-3.4,0.2-6.8-0.3-10.1-1.1c-0.6-0.1-1.2-0.3-1.8-0.4c-0.6-0.1-1.1,0-1.7,0.2
			c-0.1,0-0.2-0.1-0.2-0.1c-1.4-3.1-3.4-5.8-5.2-8.7c-1.4-2.3-3-4.5-3.9-7.2c-0.4-1.1-1.2-2-2.2-2.6c-0.5-0.3-1-0.7-1.4-1.1
			c-0.4-0.3-0.7-0.6-1.1-0.8c-1.1-0.6-2.3,0.1-2.3,1.3c0,1.8,0.1,3.5,0.3,5.3c0.1,0.8,0.6,1.6,1.1,2.3c1.6,2.2,2.7,4.7,3.9,7.1
			c0.3,0.6,0.7,1.3,1,1.9c0.4,0.8,0.7,1.6,1.1,2.5c-1.5,0.2-2.7,0.5-4.1,0.4c-2.5-0.2-5.1-0.2-7.7-0.3c-2.1,0-4.2-0.1-6.2,0
			c-3.3,0.2-6.5,0.7-9.8,0.9c-1.6,0.1-3.3,0.1-4.9,0c-1.8-0.1-3.7-0.2-5.5-0.3c-1-0.1-2.1-0.3-3.1-0.3c-1.7-0.1-3.4-0.2-5.1-0.2
			c-3.7,0.2-7.4-0.2-11.1-0.7c-1.8-0.2-3.6-0.3-5.4-0.5C45,99.8,44.2,99.9,43.6,99.3z M85.6,66.1c-0.1-0.5-0.2-0.8-0.2-1.2
			c1.5-0.6,2.8-1.1,4.2-1.6c1.3-0.4,1.7-1.3,1-2.5c-0.3-0.5-0.6-1-1-1.5c-0.8-1.2-3.9-1.9-5.2-1.2c-0.2,0.1-0.4,0.2-0.6,0.4
			c-0.8,1.3-1.7,2.5-1.2,4.2c0.4,1.3,0.6,2.6,0.9,3.9c-1,0.7-1.9,1.2-2.7,1.9c-1.9,1.4-3.7,2.8-5,4.8c-0.3,0.4-0.6,0.9-0.7,1.4
			c-0.5,1.3,0.2,2.2,1.5,2.3c0.9,0.1,1.8,0.3,2.7,0.4c0.8,0.1,1.5,0.2,2.3,0.2c0.8,0.1,1.6,0.1,2.4,0.2c1.5,0.1,3,0.3,4.5,0.2
			c2.5-0.2,4.9-0.7,7.3-1.1c0.8-0.1,1.6-0.3,2.3-0.5c1.5-0.4,2-1.7,1-2.8c-0.3-0.4-0.6-0.8-1-1.2c-1.6-1.6-3.1-3.2-4.7-4.8
			c-0.7-0.8-1.7-1.2-2.7-1.5C89.2,65.5,87.5,65.4,85.6,66.1z M115.4,81.5c0.1,0.9,0.1,1.6,0.2,2.3c0.3,1.6,1.8,2.7,3.5,2.7
			c0.9,0,1.8-0.1,2.7-0.2c1.6-0.1,2-0.5,2.2-2.1c0.1-1.3,0.2-2.5,0.3-3.8c0.1-0.8,0.2-1.7,0.3-2.5c0.1-1.4-0.4-2.1-1.7-2.5
			c-0.3-0.1-0.6-0.2-0.9-0.2c-1.1-0.2-2.2-0.5-3.3-0.7c-0.5-0.1-1-0.1-1.3,0.4c-0.4,0.8-0.9,1.5-1.1,2.4
			C115.9,78.7,115.7,80.2,115.4,81.5z M118.3,58.7c-0.2,0.1-0.5,0.1-0.8,0.2c-1,0.3-2,0.8-2.8,1.6c-1.1,1.1-0.9,2.4,0.5,3.1
			c1.3,0.7,2.7,0.9,4.2,0.8c1.2-0.1,2.4-0.2,3.6,0c1.4,0.3,2.7-0.9,3-2.3c0.2-1.3-0.8-2.6-2.3-2.7c-1.4,0-2.6-0.7-3.9-0.9
			c0.8-1.9,0.3-3.7,0-5.5c0-0.3-0.6-0.6-0.9-0.6c-0.3,0-0.7,0.4-0.8,0.7c-0.1,0.3-0.1,0.7-0.1,1.1c0.1,0.8,0.1,1.7,0.2,2.5
			C118.2,57.4,118.3,58,118.3,58.7z M105.5,53.6c1.7,0,3.3-0.8,4.3-2.3c1.2-1.7,0.6-3.2-1.4-3.8c-2.5-0.7-4.8-0.5-7,0.8
			c-1.7,1-2,3.1-0.6,4.2c0.6,0.4,1.3,0.7,1.9,0.9C103.6,53.5,104.6,53.5,105.5,53.6z M80.9,93.5c2.1,0,3.4-1,4-3
			c0.1-0.3,0.1-0.5,0.2-0.8c0.3-1.7-0.6-3.8-3-4.4c-1.2-0.3-2.4,0.1-3,1c-0.7,1-1.1,2.2-1.4,3.4C77.2,91.8,78.8,93.5,80.9,93.5z
			 M55,51.7c-0.1,0-0.2-0.1-0.4-0.3c-1.4-0.9-2.5-0.4-2.6,1.2c0,0.9,0.1,1.9,0.3,2.8c0.2,0.9,0.9,1.3,1.7,1c0.7-0.2,1.3-0.1,1.9,0.2
			c1.2,0.5,2.3,0.1,2.9-1c0.4-0.7,0.7-1.5,0.8-2.3c0.2-1.3-0.5-2-1.8-1.9C57,51.4,56,51.5,55,51.7z M53.2,91.1
			c-0.3,0.5-0.7,1-0.9,1.5c-0.4,0.8-0.3,1.6,0.4,2c0.9,0.5,2,0.6,3,0.4c0.5-0.1,0.8-0.4,0.8-0.9c0-0.6-0.4-0.9-0.9-0.9
			c-0.3-0.1-0.7-0.1-1.1-0.2c0.5-0.7,1-1.2,1.4-1.8c0.7-1.1,0.3-2.1-1-2.2c-1.1-0.1-2.3-0.1-3.4-0.1c-0.3,0-0.8,0.3-0.9,0.6
			c-0.1,0.3,0,0.8,0.2,1.1c0.2,0.3,0.7,0.4,1,0.5C52.2,91.1,52.6,91.1,53.2,91.1z M109.6,67.5c0.1-0.4,0.2-0.7,0.2-1.1
			c0-0.6-0.3-1.1-0.8-1.2c-1.1-0.1-2.2,0-3.3,0c0,0-0.1,0-0.1,0c-0.5,0.3-0.8,0.7-0.7,1.3c0.1,0.5,0.5,0.8,1.1,0.8
			c0.3,0,0.7,0,1-0.1c0,0.2,0,0.3,0,0.4c0.1,1.4,1.2,2.1,2.5,1.6c0.5-0.2,0.7-0.7,0.5-1.3C109.9,67.9,109.7,67.7,109.6,67.5z
			 M59.2,57.7c0.5,1.7,1,3.5,1.6,5.2c0.1,0.3,0.6,0.5,1,0.5c0.5,0,0.8-0.4,0.8-0.9c0-0.3,0-0.7-0.1-1.1c-0.4-1.4-0.8-2.7-1.2-4.1
			c-0.2-0.5-0.4-1-1-0.9C59.7,56.4,59.4,56.9,59.2,57.7z M60.1,74.5c0.3-0.1,0.4-0.1,0.5-0.1c1.2-0.5,2.4-1,3.6-1.6
			c0.4-0.2,0.8-0.5,1.1-0.9c0.4-0.5,0.3-1.2-0.3-1.4c-0.3-0.1-0.8,0-1.1,0.1c-1.1,0.5-2.2,1-3.3,1.6c-0.4,0.2-0.8,0.4-1.1,0.7
			c-0.2,0.3-0.3,0.8-0.1,1.1C59.5,74.3,59.9,74.4,60.1,74.5z M73.6,90.5c-0.4,0.1-0.6,0.1-0.8,0.1c-0.4,0.1-0.8,0.2-1.1,0.4
			c-0.8,0.4-1.1,0.9-0.9,1.5c0.4,1.1,1.2,1.9,2,1.6c0.4-0.1,0.9-0.3,1.2-0.7c0.3-0.3,0.6-0.5,1.1-0.7c0.3-0.1,0.6-0.5,0.6-0.7
			c0-0.3-0.2-0.8-0.5-1C74.7,90.8,74,90.6,73.6,90.5z M73.7,57.7c0.4,0.5,0.7,1.1,1.1,1.6c0.2,0.3,0.5,0.6,0.8,0.8
			c0.4,0.3,0.9,0.3,1.3-0.1c0.4-0.4,0.3-0.9,0-1.3c-0.5-0.7-1.1-1.5-1.6-2.2c-0.7-1-2-1.2-2.9-0.5c-0.3,0.2-0.5,0.6-0.5,1
			c0,0.5,0.4,0.8,0.9,0.8C73,57.7,73.3,57.7,73.7,57.7z M116.2,48.9c0,0,0-0.1,0-0.1c-0.2,0-0.5-0.1-0.7,0c-0.4,0-0.8,0.2-0.9,0.7
			c0,0.3,0.2,0.8,0.4,1c0.2,0.2,0.6,0.3,0.9,0.3c0.8,0,1.6-0.1,2.4-0.2c0.6-0.1,1.2-0.2,1.8-0.3c0.8-0.1,1.1-0.2,1.2-0.7
			c0.1-0.6-0.3-1-0.8-1.2c-0.6-0.3-1.2-0.1-1.9,0C117.7,48.6,117,48.7,116.2,48.9z M67.4,49.1c0-0.9-0.8-1.4-1.6-1
			c-1,0.5-2.1,1-3.1,1.5c-0.4,0.2-0.7,0.4-1,0.6c-0.5,0.4-0.6,0.9-0.3,1.4c0.3,0.4,0.8,0.6,1.4,0.3c0.9-0.4,1.8-0.9,2.6-1.4
			c0.5-0.2,1-0.4,1.4-0.7C67,49.7,67.2,49.3,67.4,49.1z M115.4,79.9c0-0.7-0.6-1.5-1.4-1.5c-1.3-0.1-2.5,0-3.8,0.1
			c-0.8,0.1-1.1,0.7-1,1.2c0.1,0.6,0.6,0.8,1.4,0.7c1.2-0.2,2.4-0.4,3.6,0.3C114.8,81.1,115.4,80.6,115.4,79.9z M128.5,68.4
			c0.3,0.2,0.5,0.3,0.8,0.5c0.4,0.2,0.8,0.1,1.1-0.2c0.2-0.3,0.2-0.7,0.1-1c-0.3-0.9-1.1-1.4-2-1.3c-1,0.1-2,0.3-3,0.5
			c-0.5,0.1-0.9,0.4-0.8,1c0,0.6,0.4,0.8,0.9,0.9c0.4,0,0.7,0,1.1,0C127.3,68.6,127.9,68.5,128.5,68.4z M126.7,92.5
			c-0.5-1.1-0.8-1.3-1.4-1.1c-0.7,0.2-1.2,1-0.9,1.7c0.1,0.3,0.4,0.6,0.6,0.8c0.2,0.2,0.5,0.4,0.6,0.7c0.6,1,1.4,1.2,2.3,0.5
			c0.8-0.6,0.8-1.6-0.2-2.1C127.4,92.8,127,92.7,126.7,92.5z M80.4,97.7c0,0-0.1,0.1-0.1,0.1c0.3,0.4,0.6,0.8,1,1
			c0.6,0.3,1.3-0.3,1.6-1.5c0.3-0.9,0.1-1.5-0.6-1.8c-0.1,0-0.2,0-0.2,0c-0.3-0.1-0.7-0.2-1-0.4c-0.7-0.3-1.5-0.1-1.8,0.6
			c-0.3,0.6-0.1,1.3,0.6,1.7C80,97.6,80.2,97.7,80.4,97.7z M94,53.3c0.1-0.8-0.1-1.4-0.7-1.5c-0.7-0.1-1.5,0-2.2,0.2
			c-0.5,0.1-0.6,0.7-0.4,1.1c0.3,0.6,0.7,1.2,1.1,1.8c0.4,0.5,1.2,0.7,1.8,0.4c0.6-0.3,0.7-0.6,0.5-1.5C94.1,53.6,94,53.3,94,53.3z
			 M67.6,77.7c0-0.6-0.4-0.9-1-1.1c-0.7-0.2-1.3-0.5-2-0.7c-0.3-0.1-0.9,0-1,0.3c-0.2,0.2-0.2,0.8-0.1,1.1c0.4,0.8,1.3,1.1,1.6,2
			c0,0.1,0.2,0.1,0.3,0.2C66.2,79.7,67.6,78.6,67.6,77.7z M76.7,86.1c0.6,0,1-0.1,1.2-0.6c0.2-0.5,0-1-0.5-1.2
			c-0.9-0.4-1.7-0.8-2.6-1.1c-0.3-0.1-0.8-0.1-1.2,0c-0.6,0.1-0.9,0.7-0.8,1.2c0.1,0.5,0.4,0.8,1.1,0.9c0.6,0.1,1.2,0.3,1.8,0.4
			C76.1,85.8,76.5,86,76.7,86.1z M53.2,59.7c0-0.9-0.7-1.3-1.5-1c-1,0.5-2,1-3,1.5c-0.5,0.3-0.7,0.9-0.4,1.3
			c0.2,0.5,0.8,0.7,1.3,0.5c1-0.5,2-1.1,3-1.6C52.9,60.2,53,59.9,53.2,59.7z M99.5,52.6c-0.2,0-0.6,0.1-0.9,0.2
			c-0.8,0.4-1.6,0.9-2.3,1.5c-0.6,0.4-0.6,1-0.3,1.5c0.3,0.4,0.9,0.5,1.5,0.1c0.9-0.5,1.7-1,2.6-1.5c0.4-0.2,0.7-0.6,0.6-1.1
			C100.6,52.8,100.2,52.6,99.5,52.6z M56.4,49.8c-0.4-1.1-0.7-2.3-1.2-3.4c-0.1-0.3-0.7-0.5-1-0.4c-0.3,0.1-0.6,0.5-0.8,0.8
			c-0.1,0.2-0.1,0.5,0,0.7c0.3,0.9,0.5,1.8,0.8,2.7c0.2,0.6,0.7,0.9,1.2,0.7C56.1,50.8,56.2,50.4,56.4,49.8z M124.7,73.8
			c0.2,0.3,0.4,0.7,0.8,0.9c0.4,0.2,0.9,0,1.1-0.4c0.4-1,1-1.8,1.7-2.5c0.3-0.3,0.3-0.8,0-1.2c-0.3-0.4-0.8-0.4-1.2-0.2
			C125.8,71.1,125.2,72.3,124.7,73.8z M115.2,73.6c0.6,0,1-0.2,1.1-0.7c0.2-0.5,0-1-0.5-1.2c-0.9-0.3-1.6-0.9-2.2-1.6
			c-0.3-0.4-0.7-0.5-1.2-0.3c-0.5,0.3-0.6,0.7-0.4,1.2C112.3,72.2,114.1,73.5,115.2,73.6z M96.2,43.3c0.5-0.1,1.4-0.1,2.2-0.3
			c0.7-0.1,1.1-0.6,1.1-1.1c0-0.5-0.5-0.9-1.2-0.9c-1,0-2,0.1-3,0.3c-0.6,0.1-1,0.5-1,1c0,0.5,0.4,0.9,1,0.9
			C95.5,43.3,95.7,43.3,96.2,43.3z M99.6,43.3c-0.2,0.2-0.6,0.3-0.7,0.5c-0.1,0.3-0.1,0.8,0,1.1c0.5,0.8,1.1,1.5,1.7,2.2
			c0.5,0.6,1,0.7,1.4,0.4c0.5-0.3,0.6-0.9,0.2-1.5c-0.5-0.8-1.2-1.6-1.9-2.3C100.2,43.5,99.9,43.5,99.6,43.3z M128.9,84.7
			c0.3-0.2,0.7-0.4,0.8-0.7c0.1-0.2,0-0.7-0.2-1c-0.1-0.2-0.4-0.3-0.7-0.5c-0.6-0.3-1.3-0.6-1.9-0.9c-0.5-0.2-0.9-0.3-1.3,0.1
			c-0.3,0.4-0.3,1,0.1,1.4C126.6,84,127.7,84.3,128.9,84.7z M123.5,57.5c0.2,0.2,0.4,0.7,0.7,0.8c0.3,0.1,0.9,0,1-0.3
			c0.6-0.9,1-1.8,1.4-2.7c0.1-0.3-0.1-0.8-0.3-1c-0.2-0.2-0.8-0.2-1.1,0C124.3,55.1,123.8,56.1,123.5,57.5z M54.2,86.3
			c0.6,0,1.1-0.1,1.2-0.6c0-0.3-0.1-0.8-0.3-1c-0.7-0.6-1.4-1-2.1-1.5c-0.6-0.4-1.1-0.3-1.4,0c-0.4,0.4-0.3,1,0.2,1.5
			c0.6,0.5,1.2,1,1.8,1.4C53.7,86.2,54.1,86.3,54.2,86.3z M62.7,96.8c-0.1-0.3,0-0.4-0.1-0.5c-0.5-0.9-1-1.8-1.6-2.6
			c-0.4-0.5-1.3-0.3-1.4,0.4c-0.1,0.4-0.1,0.8,0.1,1.2c0.4,0.8,0.9,1.5,1.4,2.2c0.3,0.4,0.7,0.5,1.1,0.2
			C62.4,97.3,62.5,97,62.7,96.8z M61.1,86.7c-1,0.1-1.8,0.8-2.4,1.7c-0.4,0.5-0.3,1.1,0.1,1.4c0.4,0.3,0.9,0.2,1.4-0.1
			c0.5-0.4,1-0.8,1.5-1.1c0.4-0.3,0.7-0.6,0.6-1.1C62.1,86.8,61.7,86.7,61.1,86.7z M126.5,52.6c0.6-0.2,1.3-0.4,2-0.6
			c0.6-0.2,0.9-0.6,0.8-1.1c-0.1-0.5-0.6-0.9-1.3-0.8c-0.7,0.1-1.5,0.4-2.2,0.6c-0.5,0.2-0.8,0.6-0.6,1.1
			C125.4,52.4,125.9,52.5,126.5,52.6z M89.8,88.7c0.2,0,0.3,0,0.4,0c0.5,0,0.9-0.2,1-0.8c0.1-0.6-0.2-0.9-0.8-1.1
			c-0.5-0.1-0.9-0.2-1.4-0.2c-0.5,0-0.9,0.4-0.9,0.9c0,0.5,0.3,0.9,0.8,1C89.2,88.7,89.5,88.7,89.8,88.7z"/>
		<path class="st2" d="M119.3,110.5c-0.9,0.5-1.7,1.1-2.9,1c-0.3-0.6-0.8-1.2-1.1-1.8c-0.7-1.2-1.4-2.3-2-3.5c-1-2-1.8-4-2.7-6
			c-0.5-1.2-1.1-2.4-1.7-3.6c-0.7-1.5-1.5-2.9-2.2-4.4c-0.6-1.2-1.2-2.3-1.9-3.6c0.7-0.3,1.4-0.7,2.3-1.1c0.7,1.2,1.5,2.5,2.2,3.7
			c0.5,0.9,1.1,1.8,1.6,2.6c1.6,2.5,3.2,4.9,4.5,7.6c1.2,2.5,2.4,5,3.4,7.6C119,109.6,119.1,110,119.3,110.5z"/>
		<path class="st2" d="M103.1,83.8c1.4-0.4,2.4,0.2,3.1,2c-0.9,0.4-1.7,0.7-2.6,1.1C103.1,85.8,103.3,84.8,103.1,83.8z"/>
		<path class="st2" d="M120.7,114.1c-0.9,0.1-1.7,0.2-2.5,0.4c-0.2-0.2-0.3-0.4-0.6-0.8c0.8-0.4,1.6-0.8,2.5-1.2
			C120.3,113,120.4,113.5,120.7,114.1z"/>
		<path d="M85.6,66.1c1.9-0.7,3.7-0.6,5.4,0c1,0.3,1.9,0.8,2.7,1.5c1.6,1.6,3.1,3.2,4.7,4.8c0.4,0.4,0.6,0.8,1,1.2
			c1,1.1,0.5,2.4-1,2.8c-0.8,0.2-1.6,0.3-2.3,0.5c-2.4,0.4-4.9,0.9-7.3,1.1c-1.5,0.1-3-0.1-4.5-0.2c-0.8,0-1.6-0.1-2.4-0.2
			c-0.8-0.1-1.5-0.1-2.3-0.2c-0.9-0.1-1.8-0.3-2.7-0.4c-1.4-0.1-2-1.1-1.5-2.3c0.2-0.5,0.5-0.9,0.7-1.4c1.3-2,3.1-3.4,5-4.8
			c0.9-0.6,1.8-1.2,2.7-1.9c-0.3-1.3-0.5-2.7-0.9-3.9c-0.5-1.7,0.3-2.9,1.2-4.2c0.1-0.2,0.4-0.3,0.6-0.4c1.3-0.7,4.3,0.1,5.2,1.2
			c0.4,0.5,0.7,1,1,1.5c0.6,1.2,0.2,2.1-1,2.5c-1.4,0.5-2.8,1-4.2,1.6C85.4,65.3,85.5,65.6,85.6,66.1z M77.3,74.9
			c6.8,1.5,13.4,1.3,20.1-0.5c-1.6-2.2-3.6-4-5.5-5.7c-1.4-1.2-3.2-1.4-5-0.9c-0.2,0-0.3,0.2-0.5,0.3c0.1,0.2,0.2,0.4,0.2,0.6
			c0.2,0.8,0,1.2-0.5,1.4c-0.5,0.2-1-0.1-1.4-0.7c-0.1-0.2-0.3-0.5-0.4-0.8C81.7,70.5,79,72.1,77.3,74.9z M85,62.8
			c1.3-0.2,2.3-0.9,3.5-1.3c-0.7-1.4-1.6-1.7-3.2-1.4C84.8,60.8,84.2,61.6,85,62.8z"/>
		<path d="M115.4,81.5c0.3-1.3,0.5-2.8,0.9-4.3c0.2-0.8,0.7-1.6,1.1-2.4c0.3-0.5,0.7-0.5,1.3-0.4c1.1,0.3,2.2,0.5,3.3,0.7
			c0.3,0.1,0.6,0.1,0.9,0.2c1.3,0.4,1.8,1.1,1.7,2.5c0,0.8-0.2,1.7-0.3,2.5c-0.1,1.3-0.2,2.5-0.3,3.8c-0.2,1.6-0.5,1.9-2.2,2.1
			c-0.9,0.1-1.8,0.1-2.7,0.2c-1.6,0-3.1-1.1-3.5-2.7C115.5,83.1,115.5,82.4,115.4,81.5z M121.9,84.4c0.2-2.4,0.4-4.6,0.7-6.9
			c-1.4-0.2-2.6-0.5-3.9-0.7c-0.2,0.4-0.4,0.7-0.5,1.1c-0.3,1.3-0.5,2.7-0.7,4c-0.1,0.4,0,0.9,0,1.3c0.1,0.7,0.7,1.3,1.3,1.3
			C119.9,84.5,120.9,84.4,121.9,84.4z"/>
		<path d="M118.3,58.7c-0.1-0.7-0.1-1.3-0.2-1.9c-0.1-0.8-0.2-1.7-0.2-2.5c0-0.4-0.1-0.8,0.1-1.1c0.2-0.3,0.5-0.7,0.8-0.7
			c0.3,0,0.8,0.3,0.9,0.6c0.3,1.8,0.9,3.6,0,5.5c1.3,0.2,2.5,0.8,3.9,0.9c1.5,0,2.5,1.3,2.3,2.7c-0.2,1.5-1.5,2.6-3,2.3
			c-1.2-0.2-2.4-0.1-3.6,0c-1.5,0.1-2.9,0-4.2-0.8c-1.4-0.8-1.6-2-0.5-3.1c0.8-0.8,1.8-1.2,2.8-1.6
			C117.9,58.8,118.2,58.7,118.3,58.7z M116.3,61.9c1,0.5,1.9,0.6,2.9,0.5c1.3-0.1,2.5-0.3,3.8,0c0.5,0.1,0.8-0.1,0.8-0.8
			c-0.4-0.1-0.8-0.2-1.2-0.2c-1-0.1-2.1,0.2-3-0.5c-0.1-0.1-0.4-0.1-0.6-0.1C118.1,60.8,117.2,61.1,116.3,61.9z"/>
		<path d="M105.5,53.6c-0.9-0.1-1.8-0.1-2.7-0.3c-0.7-0.1-1.4-0.4-1.9-0.9c-1.4-1.1-1.1-3.2,0.6-4.2c2.2-1.3,4.6-1.5,7-0.8
			c2,0.6,2.5,2.1,1.4,3.8C108.8,52.8,107.2,53.7,105.5,53.6z M102,50.8c0.3,0.2,0.6,0.5,1,0.5c0.9,0.1,1.9,0.3,2.9,0.2
			c1.2,0,2.1-0.8,2.4-1.9C106.1,48.7,103,49.3,102,50.8z"/>
		<path d="M80.9,93.5c-2.1,0-3.7-1.7-3.2-3.8c0.3-1.2,0.7-2.4,1.4-3.4c0.6-0.9,1.8-1.3,3-1c2.4,0.6,3.3,2.7,3,4.4
			C85,90,85,90.3,84.9,90.5C84.3,92.5,83,93.5,80.9,93.5z M81.5,87.2c-1,0.5-2,2.2-1.8,3.2c0,0.3,0.2,0.6,0.5,0.8
			c0.6,0.5,1.9,0.3,2.4-0.3C83.7,89.5,83.2,87.9,81.5,87.2z"/>
		<path d="M55,51.7c1.1-0.1,2-0.3,3-0.3c1.3,0,2,0.6,1.8,1.9c-0.1,0.8-0.4,1.6-0.8,2.3c-0.6,1.1-1.7,1.5-2.9,1
			c-0.7-0.3-1.2-0.4-1.9-0.2c-0.9,0.3-1.5-0.1-1.7-1c-0.2-0.9-0.4-1.9-0.3-2.8c0.1-1.6,1.2-2.1,2.6-1.2C54.7,51.5,54.9,51.6,55,51.7
			z M57.7,53.6c-0.1-0.1-0.1-0.2-0.2-0.2c-0.5,0.2-1.1,0.4-1.6,0.5c-0.5,0.1-1.1,0.1-1.7,0.1c0,0,0,0.1,0,0.1c1,0.2,1.9,0.4,3,0.6
			C57.3,54.3,57.5,54,57.7,53.6z"/>
		<path d="M53.2,91.1c-0.5,0-1,0-1.4-0.1c-0.4-0.1-0.8-0.2-1-0.5c-0.2-0.3-0.4-0.8-0.2-1.1c0.1-0.3,0.6-0.6,0.9-0.6
			c1.1,0,2.3,0,3.4,0.1c1.3,0.1,1.8,1,1,2.2c-0.4,0.6-0.9,1.1-1.4,1.8c0.4,0.1,0.8,0.1,1.1,0.2c0.5,0.1,0.9,0.4,0.9,0.9
			c0,0.5-0.3,0.8-0.8,0.9c-1,0.2-2.1,0.1-3-0.4c-0.7-0.4-0.8-1.2-0.4-2C52.5,92.1,52.8,91.7,53.2,91.1z"/>
		<path d="M109.6,67.5c0.2,0.2,0.3,0.4,0.4,0.6c0.2,0.5,0,1-0.5,1.3c-1.3,0.6-2.4-0.1-2.5-1.6c0-0.1,0-0.2,0-0.4
			c-0.4,0-0.7,0.1-1,0.1c-0.6,0-1.1-0.3-1.1-0.8c-0.1-0.6,0.2-1,0.7-1.3c0,0,0.1,0,0.1,0c1.1,0,2.2-0.1,3.3,0c0.6,0,0.8,0.6,0.8,1.2
			C109.7,66.8,109.6,67.1,109.6,67.5z"/>
		<path d="M59.2,57.7c0.1-0.7,0.5-1.2,1-1.2c0.6,0,0.9,0.4,1,0.9c0.4,1.4,0.8,2.7,1.2,4.1c0.1,0.3,0.2,0.7,0.1,1.1
			c0,0.5-0.4,0.9-0.8,0.9c-0.3,0-0.9-0.2-1-0.5C60.2,61.2,59.7,59.4,59.2,57.7z"/>
		<path d="M60.1,74.5c-0.2-0.1-0.6-0.3-0.7-0.5c-0.1-0.3-0.1-0.8,0.1-1.1c0.2-0.3,0.7-0.5,1.1-0.7c1.1-0.5,2.2-1.1,3.3-1.6
			c0.3-0.1,0.8-0.2,1.1-0.1c0.5,0.2,0.7,0.9,0.3,1.4c-0.3,0.4-0.7,0.7-1.1,0.9c-1.2,0.6-2.4,1.1-3.6,1.6
			C60.5,74.5,60.4,74.5,60.1,74.5z"/>
		<path d="M73.6,90.5c0.4,0.2,1.1,0.3,1.7,0.6c0.3,0.2,0.5,0.6,0.5,1c0,0.3-0.4,0.6-0.6,0.7c-0.4,0.1-0.7,0.3-1.1,0.7
			c-0.3,0.3-0.8,0.5-1.2,0.7c-0.8,0.2-1.6-0.5-2-1.6c-0.2-0.6,0.1-1.1,0.9-1.5c0.4-0.2,0.7-0.3,1.1-0.4C73,90.5,73.2,90.5,73.6,90.5
			z"/>
		<path d="M73.7,57.7c-0.3,0-0.7,0-1,0c-0.5,0-0.9-0.3-0.9-0.8c0-0.3,0.2-0.8,0.5-1c1-0.7,2.2-0.4,2.9,0.5c0.6,0.7,1.1,1.5,1.6,2.2
			c0.3,0.4,0.4,0.9,0,1.3c-0.4,0.4-0.9,0.4-1.3,0.1c-0.3-0.2-0.6-0.5-0.8-0.8C74.4,58.8,74.1,58.2,73.7,57.7z"/>
		<path d="M116.2,48.9c0.8-0.2,1.5-0.4,2.3-0.6c0.6-0.2,1.2-0.3,1.9,0c0.5,0.2,0.9,0.6,0.8,1.2c-0.1,0.5-0.4,0.7-1.2,0.7
			c-0.6,0-1.2,0.2-1.8,0.3c-0.8,0.1-1.6,0.2-2.4,0.2c-0.3,0-0.7-0.1-0.9-0.3c-0.2-0.3-0.4-0.7-0.4-1c0-0.4,0.4-0.7,0.9-0.7
			c0.2,0,0.5,0,0.7,0C116.2,48.8,116.2,48.9,116.2,48.9z"/>
		<path d="M67.4,49.1c-0.1,0.2-0.3,0.5-0.6,0.8c-0.4,0.3-0.9,0.5-1.4,0.7c-0.9,0.5-1.8,0.9-2.6,1.4c-0.6,0.3-1.1,0.1-1.4-0.3
			c-0.3-0.4-0.2-1,0.3-1.4c0.3-0.2,0.7-0.4,1-0.6c1-0.5,2.1-1.1,3.1-1.5C66.6,47.8,67.4,48.2,67.4,49.1z"/>
		<path d="M115.4,79.9c0,0.7-0.7,1.2-1.3,0.8c-1.2-0.7-2.4-0.5-3.6-0.3c-0.9,0.1-1.3-0.1-1.4-0.7c-0.1-0.6,0.2-1.1,1-1.2
			c1.3-0.2,2.5-0.2,3.8-0.1C114.8,78.4,115.4,79.2,115.4,79.9z"/>
		<path d="M128.5,68.4c-0.6,0.1-1.2,0.2-1.8,0.3c-0.4,0-0.7,0.1-1.1,0c-0.5-0.1-0.9-0.3-0.9-0.9c0-0.6,0.3-0.9,0.8-1
			c1-0.2,2-0.4,3-0.5c0.9-0.1,1.8,0.4,2,1.3c0.1,0.3,0,0.7-0.1,1c-0.2,0.4-0.7,0.4-1.1,0.2C129,68.7,128.8,68.5,128.5,68.4z"/>
		<path d="M126.7,92.5c0.4,0.2,0.7,0.2,1.1,0.4c0.9,0.5,1,1.5,0.2,2.1c-0.9,0.7-1.7,0.6-2.3-0.5c-0.2-0.3-0.4-0.4-0.6-0.7
			c-0.2-0.3-0.5-0.5-0.6-0.8c-0.2-0.7,0.2-1.5,0.9-1.7C125.8,91.2,126.2,91.5,126.7,92.5z"/>
		<path d="M80.4,97.7c-0.2-0.1-0.4-0.1-0.5-0.2c-0.7-0.4-0.9-1.1-0.6-1.7c0.4-0.7,1.1-0.9,1.8-0.6c0.3,0.1,0.7,0.2,1,0.4
			c0.1,0,0.2,0,0.2,0c0.7,0.3,0.9,0.9,0.6,1.8c-0.4,1.2-1,1.8-1.6,1.5c-0.4-0.2-0.7-0.7-1-1C80.3,97.8,80.4,97.8,80.4,97.7z"/>
		<path d="M94,53.3c0,0.1,0,0.3,0.1,0.5c0.2,0.9,0.1,1.2-0.5,1.5c-0.6,0.3-1.5,0.2-1.8-0.4c-0.4-0.6-0.8-1.2-1.1-1.8
			c-0.2-0.4,0-1,0.4-1.1c0.7-0.2,1.5-0.3,2.2-0.2C94,51.9,94.2,52.5,94,53.3z"/>
		<path d="M67.6,77.7c0,0.9-1.5,2-2.3,1.8c-0.1,0-0.3-0.1-0.3-0.2c-0.3-0.9-1.2-1.3-1.6-2c-0.1-0.3-0.1-0.8,0.1-1.1
			c0.2-0.2,0.7-0.3,1-0.3c0.7,0.1,1.3,0.4,2,0.7C67.2,76.8,67.6,77.2,67.6,77.7z"/>
		<path d="M76.7,86.1c-0.2-0.1-0.6-0.2-1-0.3c-0.6-0.2-1.2-0.3-1.8-0.4c-0.7-0.1-1-0.3-1.1-0.9c-0.1-0.5,0.2-1,0.8-1.2
			c0.4-0.1,0.8-0.2,1.2,0c0.9,0.3,1.8,0.7,2.6,1.1c0.5,0.2,0.7,0.7,0.5,1.2C77.8,86,77.3,86.1,76.7,86.1z"/>
		<path d="M53.2,59.7c-0.1,0.2-0.3,0.5-0.5,0.7c-1,0.6-2,1.2-3,1.6c-0.6,0.3-1.1,0-1.3-0.5c-0.2-0.5-0.1-1,0.4-1.3
			c1-0.6,1.9-1.1,3-1.5C52.4,58.4,53.2,58.8,53.2,59.7z"/>
		<path d="M99.5,52.6c0.7,0,1.1,0.2,1.2,0.8c0.1,0.5-0.2,0.8-0.6,1.1c-0.9,0.5-1.7,1-2.6,1.5c-0.6,0.4-1.2,0.3-1.5-0.1
			c-0.3-0.4-0.3-1,0.3-1.5c0.7-0.5,1.5-1,2.3-1.5C98.9,52.7,99.3,52.7,99.5,52.6z"/>
		<path d="M56.4,49.8c-0.2,0.6-0.3,1-0.9,1.2c-0.5,0.1-1-0.1-1.2-0.7c-0.3-0.9-0.6-1.8-0.8-2.7c-0.1-0.2-0.1-0.5,0-0.7
			c0.2-0.3,0.5-0.7,0.8-0.8c0.3-0.1,0.9,0.2,1,0.4C55.7,47.5,56,48.7,56.4,49.8z"/>
		<path d="M124.7,73.8c0.5-1.5,1.1-2.7,2.4-3.5c0.4-0.2,0.9-0.2,1.2,0.2c0.3,0.4,0.3,0.9,0,1.2c-0.7,0.8-1.3,1.6-1.7,2.5
			c-0.2,0.4-0.7,0.6-1.1,0.4C125.1,74.5,124.9,74.1,124.7,73.8z"/>
		<path d="M115.2,73.6c-1.1,0-2.9-1.4-3.2-2.4c-0.1-0.5-0.1-1,0.4-1.2c0.5-0.3,0.9-0.1,1.2,0.3c0.6,0.7,1.3,1.3,2.2,1.6
			c0.5,0.2,0.7,0.6,0.5,1.2C116.2,73.4,115.8,73.6,115.2,73.6z"/>
		<path d="M96.2,43.3c-0.5,0-0.7,0-0.9,0c-0.7-0.1-1-0.4-1-0.9c0-0.5,0.3-0.9,1-1c1-0.1,2-0.2,3-0.3c0.7,0,1.2,0.3,1.2,0.9
			c0,0.5-0.4,1-1.1,1.1C97.6,43.2,96.7,43.3,96.2,43.3z"/>
		<path d="M99.6,43.3c0.3,0.2,0.6,0.2,0.8,0.4c0.6,0.7,1.3,1.5,1.9,2.3c0.4,0.6,0.2,1.2-0.2,1.5c-0.5,0.3-1,0.1-1.4-0.4
			c-0.6-0.7-1.2-1.4-1.7-2.2c-0.2-0.3-0.2-0.8,0-1.1C99,43.6,99.3,43.5,99.6,43.3z"/>
		<path d="M128.9,84.7c-1.2-0.4-2.3-0.7-3.1-1.5c-0.4-0.4-0.5-1-0.1-1.4c0.4-0.4,0.8-0.4,1.3-0.1c0.6,0.3,1.3,0.6,1.9,0.9
			c0.2,0.1,0.6,0.3,0.7,0.5c0.2,0.3,0.3,0.7,0.2,1C129.5,84.4,129.1,84.5,128.9,84.7z"/>
		<path d="M123.5,57.5c0.3-1.4,0.8-2.5,1.8-3.2c0.2-0.2,0.8-0.2,1.1,0c0.2,0.2,0.4,0.8,0.3,1c-0.4,0.9-0.9,1.9-1.4,2.7
			c-0.1,0.2-0.8,0.4-1,0.3C123.9,58.2,123.7,57.8,123.5,57.5z"/>
		<path d="M54.2,86.3c-0.2-0.1-0.5-0.1-0.7-0.3c-0.6-0.4-1.2-0.9-1.8-1.4c-0.5-0.5-0.5-1.1-0.2-1.5c0.3-0.4,0.8-0.4,1.4,0
			c0.7,0.5,1.5,0.9,2.1,1.5c0.2,0.2,0.4,0.7,0.3,1C55.3,86.2,54.8,86.3,54.2,86.3z"/>
		<path d="M62.7,96.8c-0.1,0.2-0.3,0.6-0.6,0.8c-0.4,0.3-0.8,0.1-1.1-0.2c-0.5-0.7-1-1.4-1.4-2.2c-0.2-0.3-0.2-0.8-0.1-1.2
			c0.2-0.7,1-0.9,1.4-0.4c0.6,0.8,1.1,1.7,1.6,2.6C62.6,96.3,62.6,96.5,62.7,96.8z"/>
		<path d="M61.1,86.7c0.6,0,1,0.2,1.2,0.7c0.1,0.5-0.2,0.8-0.6,1.1c-0.5,0.4-1,0.7-1.5,1.1c-0.5,0.4-1,0.5-1.4,0.1
			c-0.4-0.3-0.5-0.9-0.1-1.4C59.3,87.5,60,86.8,61.1,86.7z"/>
		<path d="M126.5,52.6c-0.6,0-1.1-0.2-1.2-0.7c-0.1-0.5,0.1-1,0.6-1.1c0.7-0.3,1.4-0.5,2.2-0.6c0.7-0.1,1.2,0.2,1.3,0.8
			c0.1,0.5-0.2,0.9-0.8,1.1C127.8,52.2,127.1,52.4,126.5,52.6z"/>
		<path d="M89.8,88.7c-0.3,0-0.6,0-0.9-0.1c-0.5-0.1-0.8-0.5-0.8-1c0-0.5,0.4-0.9,0.9-0.9c0.5,0,1,0,1.4,0.2
			c0.5,0.1,0.8,0.5,0.8,1.1c-0.1,0.6-0.5,0.8-1,0.8C90.1,88.7,90,88.7,89.8,88.7z"/>
		<path class="st2" d="M77.3,74.9c1.7-2.9,4.4-4.4,7-6.2c0.2,0.3,0.3,0.6,0.4,0.8c0.4,0.6,0.8,0.9,1.4,0.7c0.5-0.2,0.7-0.6,0.5-1.4
			c0-0.2-0.1-0.4-0.2-0.6c0.2-0.1,0.3-0.3,0.5-0.3c1.8-0.4,3.6-0.3,5,0.9c1.9,1.7,3.9,3.4,5.5,5.7C90.7,76.2,84.1,76.4,77.3,74.9z"
			/>
		<path class="st2" d="M85,62.8c-0.8-1.1-0.2-1.9,0.3-2.7c1.6-0.3,2.5,0,3.2,1.4C87.3,61.9,86.2,62.6,85,62.8z"/>
		<path class="st2" d="M121.9,84.4c-1.1,0-2.1,0.1-3,0.1c-0.6,0-1.2-0.6-1.3-1.3c-0.1-0.4-0.1-0.9,0-1.3c0.2-1.3,0.5-2.7,0.7-4
			c0.1-0.4,0.3-0.7,0.5-1.1c1.3,0.2,2.5,0.4,3.9,0.7C122.4,79.7,122.2,82,121.9,84.4z"/>
		<path class="st2" d="M116.3,61.9c0.9-0.8,1.8-1.1,2.7-1.2c0.2,0,0.4,0,0.6,0.1c0.9,0.7,2,0.5,3,0.5c0.4,0,0.8,0.1,1.2,0.2
			c0,0.7-0.3,1-0.8,0.8c-1.3-0.3-2.5-0.1-3.8,0C118.2,62.5,117.3,62.4,116.3,61.9z"/>
		<path class="st2" d="M102,50.8c1-1.5,4.2-2.1,6.3-1.1c-0.4,1.1-1.2,1.9-2.4,1.9c-1,0-1.9-0.1-2.9-0.2
			C102.6,51.3,102.3,51,102,50.8z"/>
		<path class="st2" d="M81.5,87.2c1.7,0.7,2.2,2.3,1,3.6c-0.5,0.6-1.8,0.8-2.4,0.3c-0.2-0.2-0.4-0.5-0.5-0.8
			C79.5,89.5,80.5,87.8,81.5,87.2z"/>
		<path class="st2" d="M57.7,53.6c-0.2,0.4-0.3,0.8-0.5,1.1c-1.1-0.2-2.1-0.4-3-0.6c0,0,0-0.1,0-0.1c0.6,0,1.1,0,1.7-0.1
			c0.6-0.1,1.1-0.3,1.6-0.5C57.5,53.4,57.6,53.5,57.7,53.6z"/>
	</g>
</g>
</svg>
