<?xml version="1.0" encoding="utf-8"?>
<!-- Generator: Adobe Illustrator 24.0.1, SVG Export Plug-In . SVG Version: 6.00 Build 0)  -->
<svg version="1.1" xmlns="http://www.w3.org/2000/svg" xmlns:xlink="http://www.w3.org/1999/xlink" x="0px" y="0px"
	 viewBox="0 0 156.8 136.3" style="enable-background:new 0 0 156.8 136.3;" xml:space="preserve">
<style type="text/css">
	.st0{fill:#B7D6E2;}
	.st1{fill:#DDDDDD;}
	.st2{fill:#FFFFFF;}
</style>
<g id="Calque_2">
	<g>
		<path class="st0" d="M46.3,60.3C55,46.4,68,35.1,83,28.3c13.4-6,30.5-7.8,41.5,1.9c8.9,7.9,11,21,10.6,33
			c-0.6,15.6-5.4,32.2-17.6,42c-9.4,7.5-22,10-34,10c-16,0-32.5-4.4-44.9-14.5c-5-4-9.4-9.3-10.1-15.6c-0.7-6.3,3.9-13.4,10.2-13.5"
			/>
	</g>
</g>
<g id="Calque_1">
	<g>
		<path d="M34.9,83.9c-0.2-0.9-0.4-1.5-0.5-2.2c-0.6-6.3-0.9-12.7-0.9-19.1c0-0.2,0-0.5,0-0.7c0.3-5.4,0.5-10.9,0.8-16.3
			c0.1-1.4,0.3-2.7,0.6-4c0.3-1.4,1-2.4,2.4-2.8c1.4-0.4,2.8-0.9,4.3-1.1c2.3-0.3,4.5-0.4,6.8-0.6c2.8-0.1,5.6-0.2,8.4-0.2
			c4-0.1,8-0.3,12-0.4c2.5,0,5,0.1,7.6,0.2c4.4,0.2,8.7,0.1,13.1-0.3c2.8-0.3,5.6-0.2,8.4-0.2c2.4,0,4.7-0.1,7.1-0.1
			c1.7,0,3.4,0,5,0.1c1.6,0.1,2.6,1,3,2.5c0.4,1.5,0.7,3,0.8,4.5c0.1,1.7,0,3.4,0,5.2c0,1.4-0.1,2.8,0,4.2c0.2,3.6,0,7.2-0.2,10.8
			c-0.1,2.1-0.1,4.2,0.4,6.2c0.6,2.6,0.3,5.2-0.1,7.9c-0.4,2.4-0.7,4.7-1.1,7.2c3,2.7,5.9,5.5,8.9,8.1c0.7,0.7,1.1,1.3,0.8,2.3
			c-0.5,1.3-0.8,2.7-1.2,4c-0.3,1-1,1.5-1.9,1.8c-0.3,0.1-0.7,0.1-1.1,0.2c-1.1,0.1-2.2,0.3-3.3,0.3c-0.8,0.1-1.7,0-2.5,0
			c-0.1,0-0.2,0-0.2,0c-4.3,0.2-8.6-0.6-12.9-0.1c-3.7,0.4-7.3,0.2-11,0.4c-2.4,0.1-4.9,0-7.3,0.3c-2.6,0.3-5.2,0.8-7.8,1.1
			c-1.4,0.1-2.7,0.3-4.1,0.3c-3,0-5.9,0.1-8.9-0.1c-3-0.1-6,0.2-9,0.5c-0.3,0-0.6,0-1,0c-1.8,0-3.5,0-5.3,0c-0.4,0-0.8,0-1.2,0.1
			c-2.5,0.7-5,0.6-7.5,0.2c-0.7-0.1-1.5-0.1-2.3-0.1c-3.3,0.3-6.6,0.2-9.9-0.3c-2.5-0.3-3-1-3.1-3.5c-0.2-2.9,1.3-5.1,3-7.1
			c1.1-1.3,2.5-2.4,3.8-3.5c2.2-1.9,4.5-3.7,6.8-5.6C34.7,84,34.9,83.9,34.9,83.9z M23.5,98.1c4.1,0,8.1,0,12,0
			c1.6,0,3.3-0.2,4.9-0.4c3.2-0.5,6.3-0.8,9.6-0.7c2.9,0.1,5.8,0.1,8.6,0c5.3-0.3,10.5-0.8,15.8-1.2c4.5-0.3,8.9-0.1,13.4,0.3
			c2.3,0.2,4.6,0.5,6.8-0.1c3.3-0.7,6.6-0.8,9.9-0.6c1.8,0.1,3.7,0.1,5.5,0c2.2-0.2,4.4-0.6,6.7-0.9c1-0.1,1.9-0.3,2.8-0.7
			c-2.6-2.4-5-4.8-7.4-7.1c-0.6-0.6-1.3-0.7-2.1-0.6c-2.5,0.3-5.1,0.7-7.6,0.9c-2.3,0.2-4.7,0.2-7.1-0.1c-3.1-0.3-6.2-0.4-9.3-0.6
			c-0.9,0-1.8,0.1-2.8,0.1c-2.3,0-4.6,0-7-0.1c-3.3,0-6.6,0-9.8-0.1c-2.2,0-4.4-0.3-6.6-0.3c-3.3,0-6.6,0.2-9.8,0.2
			c-2.2,0.1-4.4,0-6.6,0.1c-2.3,0.1-4.5,0-6.7-0.5c-0.3-0.1-0.5-0.1-0.8-0.1c-0.3,0.2-0.7,0.5-1,0.7c-3.1,2.7-6.2,5.3-9.3,8
			C24.5,95.3,23.9,96.6,23.5,98.1z M60.6,55.2c-1.5,0-3,0-4.5,0c-2.2,0-4.4-0.1-6.6-0.2c-1.4,0-2.9-0.1-4.3-0.2
			c-2-0.1-4.1-0.2-6.2-0.4c0.1,2.2,0.1,4.2,0.2,6.1c0.2,2.8,0.1,5.7-0.3,8.5c-0.2,1.6-0.2,3.2-0.3,4.9c7.8-1.2,15.4-1.5,23.2-0.9
			C61.6,67.1,61.9,61.1,60.6,55.2z M108.8,46c-1.1,0-2.2-0.1-3.2,0c-1.5,0.1-3,0.3-4.5,0.1c-1.4-0.2-2.8-0.3-4.2-0.4
			c-2.8-0.1-5.7-0.1-8.5,0c-4.3,0.1-8.5,0.2-12.8,0.5c-4.9,0.2-9.9,0.6-14.8,0.9c-4.6,0.3-9.1,0.7-13.6,1.4c-2.6,0.4-5.2,0.7-7.9,1
			c0,1-0.3,2.2-0.2,3.3c0.8-0.1,1.4-0.2,2.1-0.2c1.6,0.1,3.1,0.3,4.7,0.3c4.3,0.2,8.6,0.3,12.9,0.4c0.1,0,0.2,0,0.2,0
			c5.1-0.3,10.3-0.7,15.4-1c1.8-0.1,3.5-0.2,5.3-0.4c3.3-0.3,6.5-0.5,9.8-0.8c1.2-0.1,2.3,0,3.5-0.1c4.5-0.4,9.1-0.7,13.6-0.8
			c0.7,0,1.3-0.1,2-0.2C108.6,48.7,108.7,47.5,108.8,46z M23.2,101.6c1.1,0.2,2.1,0.4,3.1,0.4c2.7,0,5.3,0.4,8,0
			c0.7-0.1,1.4,0,2,0.1c2.4,0.4,4.8,0.5,7.1-0.2c0.5-0.1,1-0.1,1.5-0.1c1.7,0,3.4,0,5.1,0c0.2,0,0.5,0,0.7,0
			c3.1-0.3,6.1-0.7,9.2-0.5c2.6,0.2,5.3,0,7.9,0.1c2.9,0.1,5.8-0.4,8.7-0.8c2.1-0.3,4.3-0.6,6.4-0.8c1.8-0.1,3.6,0,5.4,0
			c3.4-0.1,6.9,0,10.3-0.4c4.5-0.5,8.9,0.2,13.4,0.2c2.3,0,4.4-0.4,6.7-0.6c0,0,0.1,0,0.2-0.2c0.3-0.8,0.6-1.7,1-2.7
			c-2.1,0.3-3.9,0.7-5.8,0.9c-1.9,0.3-3.7,0.6-5.6,0.7c-2.5,0.1-5-0.2-7.4-0.2c-1.3,0-2.7,0-3.9,0.3c-3.4,0.7-6.8,0.8-10.3,0.5
			c-2-0.2-4-0.4-6-0.4c-5.8-0.1-11.6,0.4-17.4,0.9c-4.1,0.4-8.2,0.8-12.3,0.5c-3.3-0.2-6.5-0.1-9.8,0.4c-1.9,0.3-3.9,0.5-5.8,0.6
			c-3.6,0.1-7.2,0.1-10.8,0.1c-0.6,0-1.1,0.1-1.7,0.1c-0.1,0-0.2,0.1-0.3,0.2C23.1,100.8,23.1,101.1,23.2,101.6z M38.7,76.1
			c0.1,1.9,0.1,3.5,0.2,5.2c0.3,0.1,0.5,0.2,0.7,0.2c1.9-0.1,3.8,0.5,5.8,0.2c2.6-0.4,5.2-0.4,7.7-0.4c2.1,0,4.1,0.3,6.2,0.5
			c0.8,0.1,1.6,0,2.6,0c-0.6-2.2-0.1-4.3,0.1-6.5C54.2,74.5,46.5,74.8,38.7,76.1z M110.8,83.9c0.4-2.7,0.8-5.4,1.2-7.9
			c0.4-2.2,0.3-4.3-0.2-6.4c-0.4-1.8-0.5-3.6-0.4-5.4c0.2-4,0.4-7.9,0.2-11.9c-0.1-2.8,0.1-5.7,0-8.5c0-1.4-0.4-2.8-0.7-4.2
			c-0.1-0.8-0.7-1.3-1.5-1.3c-1.4-0.1-2.7-0.1-4.1-0.1c-2.2,0-4.5,0.2-6.7,0.1c-3.6-0.1-7.2,0-10.8,0.3c-1.3,0.1-2.6,0.2-3.8,0.2
			c-0.7,0-1.4,0.1-2.1,0.1c1.9,0.2,3.8,0.3,5.8,0.3c1.5,0,3-0.1,4.6-0.1c2.4,0,4.7-0.1,7.1-0.1c2.8,0,5.7-0.4,8.5,0.3
			c0.2,0,0.3,0,0.5,0c1.6,0.1,2,0.5,2.2,2.1c0.5,3.8-0.1,7.5-0.2,11.3c0,2.2-0.2,4.5-0.2,6.7c0,3.4,0.2,6.9,0,10.3
			c-0.2,4.2-0.5,8.5-0.8,12.7c-0.1,0.7-0.3,1.1-1.1,1.2c-0.9,0.1-1.7,0.3-2.6,0.2c-1.5,0-2.9-0.3-4.4-0.3c-2.9,0-5.8,0-8.7-0.4
			c-0.5-0.1-1,0-1.5,0c-1.6,0.1-3.1,0.2-4.7,0.3c-2,0-4,0-6,0c-0.7,0-1.3-0.2-2-0.2c-2.5,0.1-4.9,0.5-7.4,0.2
			c-0.5-0.1-1,0.1-1.5,0.1c-0.8,0.1-1.7,0.1-2.5,0.2c-1.5,0.1-2.9,0.1-4.4,0.1c1.5,0.3,2.9,0.5,4.4,0.5c1.9,0.1,3.8,0.1,5.8,0.1
			c3.8,0,7.7,0.2,11.5,0c3.3-0.1,6.5,0,9.7,0.4c1.4,0.1,2.7,0.4,4.1,0.4c2.3,0,4.6-0.1,6.8-0.3C106.8,84.5,108.8,84.2,110.8,83.9z
			 M76.2,38.9c0-0.1,0-0.1,0-0.2c-2.3-0.1-4.5-0.2-6.8-0.2c-4.3,0.1-8.6,0.3-12.8,0.4c-2.8,0.1-5.5,0.1-8.3,0.2
			c-2.1,0.1-4.2,0.2-6.3,0.5c-1.3,0.2-2.5,0.6-3.7,0.9c-0.8,0.2-1.3,0.8-1.4,1.6c-0.2,1.2-0.4,2.4-0.5,3.6
			c-0.3,5.4-0.6,10.8-0.8,16.2c0,0.2,0,0.5,0,0.7c0,6.1,0.3,12.2,0.8,18.3c0.1,0.9,0,1.7,0,2.6c0.1,0,0.3,0.1,0.4,0.1
			c2.3,0.6,4.6,0.6,7,0.5c4.6-0.2,9.2-0.2,13.8-0.3c0.2,0,0.5-0.1,0.7-0.2c-1.8-0.3-3.6-0.4-5.4-0.5c-0.6,0-1.3,0.2-1.9,0.2
			c-2.3-0.2-4.5,0.1-6.8,0.4c-0.3,0-0.6,0-0.8,0c-1.7-0.1-3.3-0.3-5-0.5c-1.1-0.1-1.4-0.4-1.5-1.5c-0.1-0.8-0.1-1.7-0.1-2.5
			c0.1-3.6,0-7.3,0.3-10.9c0.2-2.6,0.3-5.1,0.2-7.7c-0.1-3.2-0.2-6.3-0.2-9.5c0-2.7,0.2-5.4,0.2-8.1c0-0.9,0.4-1.5,1.2-1.9
			c0.4-0.2,0.9-0.3,1.4-0.4c1.5-0.2,2.9-0.3,4.4-0.6c4.8-0.9,9.6-1.4,14.4-1.1c1.3,0.1,2.6,0.3,3.8,0.2c3.6-0.1,7.1-0.3,10.6-0.5
			c0.5,0,1,0,1.6-0.1C75.2,38.9,75.7,38.9,76.2,38.9z M87,53.3c0.2,2.8,0.4,5.6,0.6,8.4c2-0.5,4.2,0.1,6.4-0.4
			c-0.2-2.8-0.5-5.5-0.7-8.3C91.2,53.1,89.1,52.9,87,53.3z M51.9,45.7c4.3-0.5,8.5-0.5,12.7-1c-0.2-1.1-0.4-2.1-0.6-3
			c-4.6-0.6-10.9-0.6-12.4,0C51.7,43,51.8,44.3,51.9,45.7z M85.6,60.8c-0.2-2.6-0.4-4.9-0.7-7.5c-2.4,0.3-4.7,0.5-7,0.8
			c0.2,1.4,0.4,2.6,0.5,3.8c0.1,1.3,0.2,2.5,0.3,3.9c0.5,0,0.9,0,1.3-0.1c0.4,0,0.8-0.1,1.2-0.1c0-0.4,0.1-0.8,0.1-1.2
			c0.2-1.3,1-1.7,2.1-1.1C84,59.7,84.7,60.2,85.6,60.8z M49.6,41.6c-3.5,0.5-6.8,1.1-10.3,1.6c0,1.4,0,2.7,0,4.1
			c3.6-0.1,7.1-0.7,10.6-1.3C49.8,44.5,49.7,43.1,49.6,41.6z M76.6,62c-0.1-2.8-0.3-5.3-0.8-7.9c-1.9,0.1-3.7,0.3-5.5,0.4
			c0.1,2.6,0.2,5.1,0.3,7.5C72.7,62,74.5,62,76.6,62z M95.3,52.8c0.2,2.9,0.5,5.6,0.7,8.5c1.6-0.2,3.2-0.5,4.8-0.7
			c0.1-2.8,0.2-5.4-0.1-8.2C98.9,52.5,97.2,52.6,95.3,52.8z M79.3,75.8c2.6-0.5,5.1,0,7.7-0.6c-0.1-1.9-0.1-3.8-0.5-5.7
			c-2.5,0.2-4.9,0.4-7.5,0.6C79.1,72,79.2,73.8,79.3,75.8z M108.2,59.8c0.1-2.6,0.2-5.1,0.3-7.8c-1.9,0.4-3.7,0-5.5,0.3
			c0,2.7,0,5.2,0,7.7C104.7,60,106.4,59.9,108.2,59.8z M108.9,44c-0.1-0.9-0.2-1.7-0.2-2.4c-2.4-0.8-4.7-0.5-6.9-0.5
			c-2.3,0-4.6,0.1-6.8,0.2c0,0.9,0,1.6,0,2.6c0.5,0,0.9,0,1.4,0c0.6,0,1.1-0.1,1.7,0C101.5,44.5,105.1,43.9,108.9,44z M78.6,40.8
			c-4.2,0.3-8.2,0.5-12.4,0.8c0.2,1.1,0.3,2,0.5,3c4.2-0.2,8.2-0.2,12.3-0.8C78.8,42.8,78.7,41.9,78.6,40.8z M68.3,54.8
			c-2,0.1-3.7,0.2-5.5,0.2c0.3,2.4,0.6,4.6,0.9,6.8c0.9,0,1.7-0.1,2.5-0.1c0.8,0,1.6,0.1,2.5,0.1C68.5,59.4,68.4,57.2,68.3,54.8z
			 M107.8,74.1c0.5-1.8,0.7-5.3,0.4-6.4c-1.3-0.3-4,0-5.2,0.4c0.1,1.9-0.1,3.9,0.1,5.9C104.7,74.1,106.2,74.1,107.8,74.1z M95,74.7
			c-0.2-2.1-0.3-3.9-0.5-5.8c-2,0.2-3.9,0.4-5.8,0.6c0.2,1.9,0.3,3.7,0.4,5.5C91.1,74.9,93,74.8,95,74.7z M70.9,71.1
			c0,1.6,0,3.2,0,4.6c2.2,0,4.2,0,6.4,0c-0.1-1.9-0.2-3.6-0.3-5.4C74.9,70.6,72.9,70.8,70.9,71.1z M93.1,41.1c-4.2,0-8.3,0-12.5,0
			c0,0.4,0.1,0.8,0.1,1.2c0.1,0.5,0.1,0.9,0.2,1.3c4,0,7.9,0,11.7,0C92.9,42.7,93,42,93.1,41.1z M86.9,77.4c-2.5,0.4-5-0.1-7.5,0.5
			c0,1.1,0.1,2.1,0.1,3.2c0.5,0.1,1,0.2,1.4,0.2c1.3,0,2.6,0,3.9,0c0.6,0,1.3,0,2,0C86.9,80,86.9,78.8,86.9,77.4z M76.8,64.2
			c-2.1,0-4.1,0-6,0c0,1.6,0,3.1,0,4.8c2.1-0.3,4.1-0.5,6.2-0.8C76.9,66.8,76.8,65.5,76.8,64.2z M100.9,68c-1.5,0.2-2.9,0.3-4.4,0.5
			c0.2,2.1,0.3,4.1,0.5,6.2c1.4-0.1,2.6-0.2,3.9-0.3C100.9,72.2,100.9,70.3,100.9,68z M63.8,64.1c0,1.8,0,3.5,0,5.4
			c1.7-0.1,3.2-0.3,4.8-0.4c0-1.8,0-3.4,0-5.1C66.6,63.5,65.2,63.6,63.8,64.1z M95,76.7c-2,0.2-4,0.1-6,0.4c0,1.4,0,2.7,0,4
			c2,0,3.9,0,6,0C95,79.8,95,78.3,95,76.7z M103.3,76.2c-0.5,1.9,0.5,3.6-0.3,5.4c1.5,0.1,2.9,0.5,4.4,0c0.1-1.8,0.2-3.5,0.3-5.4
			C106.1,76.2,104.7,76.2,103.3,76.2z M77.5,81.2c-0.1-1.2-0.1-2.3-0.2-3.4c-2.2-0.2-4.2-0.2-6.4,0.2c0.1,1.1,0.2,2.2,0.3,3.3
			C73.3,81.5,75.3,81.2,77.5,81.2z M68.7,71.1c-1.6,0.1-3.2,0.2-4.6,0.4c0,1.6,0,3,0,4.4c0.9-0.1,1.6-0.2,2.4-0.2c0.8,0,1.6,0,2.3,0
			C68.7,74.2,68.7,72.7,68.7,71.1z M97.1,76.7c0,1.6,0,3.2,0,4.7c1.7,0.2,3.5,0.2,4.3-0.1c-0.1-1.6-0.3-3.2-0.4-4.9
			C99.7,76.5,98.5,76.6,97.1,76.7z M63.7,81.7c1.9-0.4,3.8,0.3,5.6-0.4c-0.1-1.2-0.3-2.3-0.4-3.3c-1.6-0.4-3.5-0.3-5.2,0.2
			C63.7,79.3,63.7,80.4,63.7,81.7z M108.3,62c-1.8-0.1-3.6-0.3-5.3,0.4c0,1.2,0,2.3,0,3.5c1.8-0.1,3.5-0.2,5.3-0.4
			C108.3,64.4,108.3,63.2,108.3,62z M88.6,67.4c2-0.2,3.9-0.1,5.7-0.7c-0.1-1.1-0.1-2.1-0.2-3.1c-1.9,0-3.7,0-5.5,0
			C88.6,64.9,88.6,66,88.6,67.4z M86.5,65.2c-0.1,0-0.3,0-0.3,0c-0.4,0.4-0.7,0.9-1.1,1.3c-0.3,0.3-0.6,0.6-0.9,0.7
			c-0.7,0.2-1.9-0.7-2.2-1.4c-0.2-0.7-0.3-1.4-0.5-2.2c-0.9,0.1-1.8,0.2-2.7,0.2c0.1,1.5,0.2,2.8,0.2,4.1c2.6,0,5-0.2,7.4-0.5
			C86.5,66.6,86.5,65.9,86.5,65.2z M100.8,62.6c-1.7,0.3-3.1,0.5-4.7,0.7c0.1,1.1,0.1,2,0.2,3.1c1.6-0.2,3.1-0.3,4.5-0.5
			C100.8,64.9,100.8,63.9,100.8,62.6z M85.5,62.9c-0.5,0-0.7,0-1,0.1c-0.3,0.1-0.6,0.3-0.9,0.5c0.1,0.4,0.2,0.7,0.3,0.9
			C84.3,64,84.8,63.6,85.5,62.9z"/>
		<path class="st2" d="M23.5,98.1c0.4-1.4,1-2.7,2.2-3.7c3.1-2.7,6.2-5.3,9.3-8c0.3-0.3,0.6-0.5,1-0.7c0.3,0,0.6,0,0.8,0.1
			c2.2,0.5,4.4,0.7,6.7,0.5c2.2-0.1,4.4-0.1,6.6-0.1c3.3-0.1,6.6-0.2,9.8-0.2c2.2,0,4.4,0.2,6.6,0.3c3.3,0.1,6.6,0,9.8,0.1
			c2.3,0,4.6,0.1,7,0.1c0.9,0,1.8-0.1,2.8-0.1c3.1,0.2,6.2,0.3,9.3,0.6c2.4,0.2,4.7,0.3,7.1,0.1c2.5-0.2,5.1-0.5,7.6-0.9
			c0.8-0.1,1.5,0,2.1,0.6c2.4,2.4,4.9,4.7,7.4,7.1c-0.9,0.4-1.9,0.6-2.8,0.7c-2.2,0.3-4.4,0.7-6.7,0.9c-1.8,0.2-3.7,0.2-5.5,0
			c-3.3-0.2-6.6-0.2-9.9,0.6c-2.3,0.5-4.5,0.3-6.8,0.1c-4.5-0.4-8.9-0.7-13.4-0.3c-5.3,0.4-10.5,0.9-15.8,1.2
			c-2.9,0.2-5.8,0.1-8.6,0c-3.2-0.1-6.4,0.2-9.6,0.7c-1.6,0.3-3.3,0.4-4.9,0.4C31.5,98.1,27.6,98.1,23.5,98.1z M78.3,87
			C78.3,87,78.3,87,78.3,87c-1.4,0-2.9,0-4.3,0.2c-2.6,0.4-5.1,0.8-7.7,1.3c-0.5,0.1-1,0.3-1.3,0.7c-1,1-1.9,2.2-2.8,3.3
			c-0.4,0.5-0.6,1-0.4,1.7c0.2,0.7,0.8,0.9,1.4,0.9c2.4,0.1,4.9,0.3,7.3-0.1c4.5-0.7,8.9-1.4,13.4-2c1.1-0.2,1.6-0.8,1.2-1.8
			c-0.2-0.7-0.5-1.3-0.8-2c-0.7-1.7-1.2-2.1-3.1-2.1C80.3,87,79.3,87,78.3,87z"/>
		<path class="st2" d="M60.6,55.2c1.3,5.9,1,11.9,1.3,17.9c-7.8-0.7-15.5-0.4-23.2,0.9c0.1-1.6,0.1-3.3,0.3-4.9
			c0.3-2.8,0.4-5.7,0.3-8.5c-0.1-2-0.1-4-0.2-6.1c2.1,0.1,4.2,0.3,6.2,0.4c1.4,0.1,2.9,0.2,4.3,0.2c2.2,0.1,4.4,0.1,6.6,0.2
			C57.6,55.3,59.1,55.2,60.6,55.2z"/>
		<path class="st2" d="M108.8,46c-0.1,1.5-0.2,2.6-0.2,3.9c-0.7,0.1-1.4,0.2-2,0.2c-4.6,0-9.1,0.4-13.6,0.8c-1.2,0.1-2.3,0-3.5,0.1
			c-3.3,0.2-6.5,0.5-9.8,0.8c-1.8,0.1-3.5,0.3-5.3,0.4c-5.1,0.3-10.3,0.7-15.4,1c-0.1,0-0.2,0-0.2,0c-4.3-0.1-8.6-0.2-12.9-0.4
			c-1.6-0.1-3.1-0.3-4.7-0.3c-0.6,0-1.3,0.1-2.1,0.2c-0.1-1.1,0.1-2.3,0.2-3.3c2.7-0.3,5.3-0.6,7.9-1c4.5-0.7,9-1.2,13.6-1.4
			c4.9-0.3,9.9-0.7,14.8-0.9c4.3-0.2,8.5-0.4,12.8-0.5c2.8-0.1,5.7,0,8.5,0c1.4,0,2.8,0.2,4.2,0.4c1.5,0.2,3,0,4.5-0.1
			C106.6,45.9,107.7,46,108.8,46z"/>
		<path class="st2" d="M23.2,101.6c-0.1-0.5-0.1-0.8-0.2-1.1c0.1-0.1,0.2-0.2,0.3-0.2c0.6-0.1,1.1-0.1,1.7-0.1c3.6,0,7.2,0,10.8-0.1
			c2-0.1,3.9-0.3,5.8-0.6c3.3-0.5,6.5-0.6,9.8-0.4c4.1,0.3,8.2-0.1,12.3-0.5c5.8-0.5,11.6-1,17.4-0.9c2,0,4,0.2,6,0.4
			c3.4,0.4,6.9,0.3,10.3-0.5c1.3-0.3,2.6-0.3,3.9-0.3c2.5,0,5,0.2,7.4,0.2c1.9,0,3.7-0.4,5.6-0.7c1.9-0.3,3.8-0.6,5.8-0.9
			c-0.4,1-0.7,1.9-1,2.7c-0.2,0.1-0.2,0.2-0.2,0.2c-2.2,0.2-4.4,0.6-6.7,0.6c-4.5,0-8.9-0.6-13.4-0.2c-3.4,0.3-6.9,0.3-10.3,0.4
			c-1.8,0-3.6-0.1-5.4,0c-2.1,0.2-4.3,0.5-6.4,0.8c-2.9,0.4-5.8,0.9-8.7,0.8c-2.6,0-5.3,0.1-7.9-0.1c-3.1-0.2-6.1,0.2-9.2,0.5
			c-0.2,0-0.5,0-0.7,0c-1.7,0-3.4,0-5.1,0c-0.5,0-1.1,0-1.5,0.1c-2.4,0.7-4.7,0.6-7.1,0.2c-0.7-0.1-1.4-0.2-2-0.1
			c-2.7,0.4-5.3,0-8,0C25.3,102,24.3,101.8,23.2,101.6z"/>
		<path class="st2" d="M38.7,76.1c7.8-1.3,15.5-1.6,23.3-0.9c-0.1,2.2-0.7,4.3-0.1,6.5c-0.9,0-1.8,0.1-2.6,0
			c-2.1-0.2-4.1-0.5-6.2-0.5c-2.6,0-5.2,0.1-7.7,0.4c-2,0.3-3.9-0.2-5.8-0.2c-0.2,0-0.4-0.1-0.7-0.2C38.8,79.6,38.8,78,38.7,76.1z"
			/>
		<path class="st2" d="M110.8,83.9c-2,0.3-4,0.6-5.9,0.8c-2.3,0.2-4.5,0.3-6.8,0.3c-1.4,0-2.7-0.2-4.1-0.4c-3.2-0.3-6.4-0.5-9.7-0.4
			c-3.8,0.2-7.7,0-11.5,0c-1.9,0-3.8,0-5.8-0.1c-1.5-0.1-2.9-0.2-4.4-0.5c1.5,0,2.9-0.1,4.4-0.1c0.8,0,1.7-0.1,2.5-0.2
			c0.5,0,1-0.2,1.5-0.1c2.5,0.3,4.9,0,7.4-0.2c0.7,0,1.3,0.2,2,0.2c2,0,4,0.1,6,0c1.6,0,3.1-0.2,4.7-0.3c0.5,0,1-0.1,1.5,0
			c2.9,0.4,5.8,0.4,8.7,0.4c1.5,0,2.9,0.2,4.4,0.3c0.9,0,1.8-0.1,2.6-0.2c0.8-0.1,1-0.5,1.1-1.2c0.3-4.2,0.7-8.4,0.8-12.7
			c0.1-3.4-0.1-6.9,0-10.3c0-2.2,0.2-4.5,0.2-6.7c0.1-3.8,0.7-7.5,0.2-11.3c-0.2-1.6-0.6-2-2.2-2.1c-0.2,0-0.3,0-0.5,0
			c-2.8-0.6-5.7-0.2-8.5-0.3c-2.4,0-4.7,0-7.1,0.1c-1.5,0-3,0.1-4.6,0.1c-1.9,0-3.8-0.1-5.8-0.3c0.7,0,1.4-0.1,2.1-0.1
			c1.3-0.1,2.6-0.1,3.8-0.2c3.6-0.3,7.2-0.4,10.8-0.3c2.2,0.1,4.5-0.1,6.7-0.1c1.4,0,2.7,0.1,4.1,0.1c0.8,0,1.4,0.5,1.5,1.3
			c0.3,1.4,0.6,2.8,0.7,4.2c0.1,2.8-0.2,5.7,0,8.5c0.2,4,0,7.9-0.2,11.9c-0.1,1.8,0,3.6,0.4,5.4c0.5,2.1,0.5,4.3,0.2,6.4
			C111.6,78.5,111.2,81.1,110.8,83.9z"/>
		<path class="st2" d="M76.2,38.9c-0.5,0-1,0.1-1.5,0.1c-0.5,0-1,0-1.6,0.1c-3.5,0.2-7.1,0.4-10.6,0.5c-1.3,0-2.5-0.1-3.8-0.2
			c-4.9-0.3-9.6,0.2-14.4,1.1c-1.4,0.3-2.9,0.4-4.4,0.6c-0.5,0.1-1,0.2-1.4,0.4c-0.8,0.3-1.2,0.9-1.2,1.9c0,2.7-0.2,5.4-0.2,8.1
			c0,3.2,0.1,6.3,0.2,9.5c0.1,2.6,0,5.1-0.2,7.7c-0.2,3.6-0.2,7.3-0.3,10.9c0,0.8,0,1.7,0.1,2.5c0.1,1.1,0.4,1.4,1.5,1.5
			c1.7,0.2,3.3,0.3,5,0.5c0.3,0,0.6,0,0.8,0c2.3-0.3,4.5-0.6,6.8-0.4c0.6,0.1,1.3-0.2,1.9-0.2c1.8,0.1,3.6,0.2,5.4,0.5
			c-0.2,0.1-0.5,0.2-0.7,0.2c-4.6,0.1-9.2,0.2-13.8,0.3c-2.4,0.1-4.7,0-7-0.5c-0.2,0-0.3-0.1-0.4-0.1c0-0.9,0.1-1.8,0-2.6
			c-0.5-6.1-0.8-12.2-0.8-18.3c0-0.2,0-0.5,0-0.7c0.3-5.4,0.5-10.8,0.8-16.2c0.1-1.2,0.3-2.4,0.5-3.6c0.1-0.8,0.6-1.4,1.4-1.6
			c1.2-0.3,2.5-0.8,3.7-0.9c2.1-0.3,4.2-0.4,6.3-0.5c2.8-0.1,5.5-0.1,8.3-0.2c4.3-0.1,8.5-0.3,12.8-0.4c2.3,0,4.5,0.1,6.8,0.2
			C76.2,38.7,76.2,38.8,76.2,38.9z"/>
		<path class="st2" d="M87,53.3c2.1-0.5,4.1-0.2,6.3-0.3c0.2,2.8,0.5,5.5,0.7,8.3c-2.2,0.5-4.3-0.1-6.4,0.4
			C87.4,58.9,87.2,56.2,87,53.3z"/>
		<path class="st2" d="M51.9,45.7c-0.1-1.4-0.2-2.7-0.3-4c1.6-0.6,7.9-0.6,12.4,0c0.2,0.9,0.4,1.9,0.6,3
			C60.4,45.2,56.3,45.2,51.9,45.7z"/>
		<path class="st2" d="M85.6,60.8c-0.9-0.6-1.6-1-2.2-1.4c-1.1-0.7-2-0.2-2.1,1.1c0,0.4-0.1,0.7-0.1,1.2c-0.4,0.1-0.8,0.1-1.2,0.1
			c-0.4,0-0.8,0-1.3,0.1c-0.1-1.3-0.2-2.6-0.3-3.9c-0.1-1.2-0.3-2.5-0.5-3.8c2.3-0.3,4.6-0.5,7-0.8C85.2,55.8,85.4,58.2,85.6,60.8z"
			/>
		<path class="st2" d="M49.6,41.6c0.1,1.5,0.2,2.9,0.3,4.4c-3.5,0.6-7,1.2-10.6,1.3c0-1.4,0-2.7,0-4.1
			C42.7,42.7,46.1,42.1,49.6,41.6z"/>
		<path class="st2" d="M76.6,62c-2.1,0-4,0-6,0c-0.1-2.4-0.2-4.9-0.3-7.5c1.8-0.1,3.6-0.3,5.5-0.4C76.4,56.8,76.5,59.3,76.6,62z"/>
		<path class="st2" d="M95.3,52.8c1.8-0.1,3.6-0.3,5.4-0.4c0.3,2.7,0.2,5.4,0.1,8.2c-1.6,0.2-3.2,0.5-4.8,0.7
			C95.8,58.4,95.6,55.6,95.3,52.8z"/>
		<path class="st2" d="M79.3,75.8c-0.1-2-0.2-3.8-0.3-5.7c2.6-0.2,5-0.4,7.5-0.6c0.4,1.9,0.4,3.8,0.5,5.7
			C84.4,75.8,81.9,75.3,79.3,75.8z"/>
		<path class="st2" d="M108.2,59.8c-1.7,0.1-3.4,0.2-5.2,0.2c0-2.5,0-5,0-7.7c1.8-0.4,3.6,0,5.5-0.3
			C108.3,54.7,108.2,57.2,108.2,59.8z"/>
		<path class="st2" d="M108.9,44c-3.8-0.1-7.4,0.5-10.9-0.2c-0.5-0.1-1.1,0-1.7,0c-0.4,0-0.9,0-1.4,0c0-0.9,0-1.6,0-2.6
			c2.2-0.1,4.5-0.2,6.8-0.2c2.3,0,4.6-0.2,6.9,0.5C108.7,42.2,108.8,43,108.9,44z"/>
		<path class="st2" d="M78.6,40.8c0.2,1.1,0.3,2,0.4,3c-4.1,0.6-8.2,0.6-12.3,0.8c-0.2-1-0.3-1.9-0.5-3C70.3,41.3,74.4,41,78.6,40.8
			z"/>
		<path class="st2" d="M68.3,54.8c0.1,2.4,0.2,4.7,0.3,7.1c-0.9-0.1-1.7-0.1-2.5-0.1c-0.8,0-1.6,0.1-2.5,0.1
			c-0.3-2.2-0.6-4.4-0.9-6.8C64.6,54.9,66.3,54.8,68.3,54.8z"/>
		<path class="st2" d="M107.8,74.1c-1.6,0-3.1,0-4.8,0c-0.1-2,0-4-0.1-5.9c1.2-0.5,3.9-0.7,5.2-0.4
			C108.5,68.8,108.3,72.3,107.8,74.1z"/>
		<path class="st2" d="M95,74.7c-2,0.1-3.9,0.2-5.9,0.3c-0.1-1.9-0.3-3.6-0.4-5.5c1.9-0.2,3.8-0.4,5.8-0.6
			C94.6,70.8,94.8,72.6,95,74.7z"/>
		<path class="st2" d="M70.9,71.1c2-0.3,4-0.5,6.1-0.8c0.1,1.8,0.2,3.5,0.3,5.4c-2.2,0-4.2,0-6.4,0C70.9,74.2,70.9,72.7,70.9,71.1z"
			/>
		<path class="st2" d="M93.1,41.1c-0.1,0.9-0.2,1.6-0.4,2.5c-3.9,0-7.8,0-11.7,0c-0.1-0.4-0.1-0.8-0.2-1.3c-0.1-0.4-0.1-0.8-0.1-1.2
			C84.9,41.1,88.9,41.1,93.1,41.1z"/>
		<path class="st2" d="M86.9,77.4c0,1.4,0,2.6,0,3.9c-0.7,0-1.4,0-2,0c-1.3,0-2.6,0.1-3.9,0c-0.5,0-0.9-0.1-1.4-0.2
			c-0.1-1.1-0.1-2.2-0.1-3.2C81.9,77.3,84.4,77.8,86.9,77.4z"/>
		<path class="st2" d="M76.8,64.2c0.1,1.3,0.1,2.6,0.2,4c-2.1,0.3-4.1,0.5-6.2,0.8c0-1.7,0-3.2,0-4.8C72.7,64.2,74.6,64.2,76.8,64.2
			z"/>
		<path class="st2" d="M100.9,68c0,2.3,0,4.2,0,6.4c-1.3,0.1-2.5,0.2-3.9,0.3c-0.2-2.1-0.3-4.1-0.5-6.2C98,68.3,99.4,68.2,100.9,68z
			"/>
		<path class="st2" d="M63.8,64.1c1.4-0.5,2.8-0.5,4.8,0c0,1.6,0,3.3,0,5.1c-1.5,0.1-3.1,0.3-4.8,0.4C63.8,67.6,63.8,65.9,63.8,64.1
			z"/>
		<path class="st2" d="M95,76.7c0,1.6,0,3.1,0,4.4c-2.1,0-4,0-6,0c0-1.4,0-2.6,0-4C91,76.8,93,76.9,95,76.7z"/>
		<path class="st2" d="M103.3,76.2c1.5,0,2.9,0,4.5,0c-0.1,1.9-0.2,3.6-0.3,5.4c-1.6,0.5-3,0.1-4.4,0
			C103.8,79.8,102.8,78.1,103.3,76.2z"/>
		<path class="st2" d="M77.5,81.2c-2.2,0.1-4.2,0.4-6.2,0.1c-0.1-1.1-0.2-2.1-0.3-3.3c2.1-0.4,4.2-0.4,6.4-0.2
			C77.4,78.9,77.4,79.9,77.5,81.2z"/>
		<path class="st2" d="M68.7,71.1c0,1.6,0,3,0,4.7c-0.7,0-1.5,0-2.3,0c-0.8,0-1.5,0.1-2.4,0.2c0-1.4,0-2.9,0-4.4
			C65.5,71.3,67,71.3,68.7,71.1z"/>
		<path class="st2" d="M97.1,76.7c1.4-0.1,2.6-0.2,3.9-0.3c0.1,1.7,0.3,3.3,0.4,4.9c-0.8,0.3-2.7,0.4-4.3,0.1
			C97.1,79.8,97.1,78.3,97.1,76.7z"/>
		<path class="st2" d="M63.7,81.7c0-1.4,0-2.4,0-3.5c1.7-0.5,3.6-0.6,5.2-0.2c0.1,1,0.3,2.1,0.4,3.3C67.5,82,65.6,81.3,63.7,81.7z"
			/>
		<path class="st2" d="M108.3,62c0,1.2,0,2.4,0,3.5c-1.7,0.1-3.4,0.2-5.3,0.4c0-1.2,0-2.3,0-3.5C104.7,61.7,106.4,61.9,108.3,62z"/>
		<path class="st2" d="M88.6,67.4c0-1.3,0-2.5,0-3.8c1.8,0,3.6,0,5.5,0c0.1,1,0.1,2,0.2,3.1C92.4,67.3,90.6,67.2,88.6,67.4z"/>
		<path class="st2" d="M86.5,65.2c0,0.7,0,1.4,0,2.2C84,67.8,81.6,68,79,68c-0.1-1.4-0.2-2.7-0.2-4.1c0.9-0.1,1.8-0.2,2.7-0.2
			c0.2,0.8,0.3,1.5,0.5,2.2c0.2,0.7,1.5,1.5,2.2,1.4c0.3-0.1,0.7-0.4,0.9-0.7c0.4-0.4,0.7-0.9,1.1-1.3
			C86.2,65.2,86.3,65.2,86.5,65.2z"/>
		<path class="st2" d="M100.8,62.6c0,1.2,0,2.3,0,3.3c-1.5,0.2-2.9,0.3-4.5,0.5c-0.1-1-0.1-2-0.2-3.1
			C97.7,63.1,99.2,62.9,100.8,62.6z"/>
		<path class="st2" d="M85.5,62.9c-0.7,0.6-1.2,1.1-1.7,1.6c-0.1-0.2-0.2-0.6-0.3-0.9c0.3-0.2,0.6-0.4,0.9-0.5
			C84.7,62.9,85,63,85.5,62.9z"/>
		<path d="M78.3,87c1,0,2,0,3,0c1.9,0,2.4,0.4,3.1,2.1c0.3,0.7,0.6,1.3,0.8,2c0.3,1.1-0.1,1.7-1.2,1.8c-4.5,0.7-8.9,1.4-13.4,2
			c-2.4,0.4-4.9,0.2-7.3,0.1c-0.6,0-1.2-0.2-1.4-0.9c-0.2-0.6,0-1.2,0.4-1.7c0.9-1.1,1.8-2.2,2.8-3.3c0.3-0.3,0.8-0.6,1.3-0.7
			c2.6-0.5,5.1-1,7.7-1.3C75.5,87.1,76.9,87.1,78.3,87C78.3,87,78.3,87,78.3,87z M66.5,90.7c-0.3,0.4-0.6,0.8-0.9,1.1
			c-0.3,0.4-0.6,0.8-0.9,1.3c2.8,0.4,14.9-1.1,18.3-2.2c-0.1-0.3-0.2-0.6-0.3-0.9c-0.1-0.3-0.3-0.6-0.4-0.8
			C76.8,88.7,71.6,89.5,66.5,90.7z"/>
		<path class="st2" d="M66.5,90.7c5.2-1.2,10.3-2,15.7-1.5c0.1,0.2,0.3,0.5,0.4,0.8c0.1,0.3,0.2,0.6,0.3,0.9
			c-3.4,1.2-15.4,2.6-18.3,2.2c0.3-0.5,0.6-0.9,0.9-1.3C65.8,91.4,66.1,91.1,66.5,90.7z"/>
	</g>
</g>
</svg>
