<?xml version="1.0" encoding="utf-8"?>
<!-- Generator: Adobe Illustrator 16.0.0, SVG Export Plug-In . SVG Version: 6.00 Build 0)  -->
<!DOCTYPE svg PUBLIC "-//W3C//DTD SVG 1.1//EN" "http://www.w3.org/Graphics/SVG/1.1/DTD/svg11.dtd">
<svg version="1.1" xmlns="http://www.w3.org/2000/svg" xmlns:xlink="http://www.w3.org/1999/xlink" x="0px" y="0px"
	 width="850.39px" height="850.39px" viewBox="0 0 850.39 850.39" enable-background="new 0 0 850.39 850.39" xml:space="preserve">
<g id="Layer_1">
	<g>
		<defs>
			<path id="SVGID_1_" d="M694.482,486.394c-5.376,16.562-11.149,32.899-20.168,47.986c-4.906,8.209-8.374,17.271-12.844,25.763
				c-6.355,12.091-14.787,22.707-23.509,33.19c-10.25,12.318-21.133,24.004-32.207,35.547c-3.307,3.447-7.39,5.848-11.483,7.936
				c-15.498,7.89-29.88,17.731-45.202,25.893c-11.417,6.081-23.451,10.811-35.878,14.51c-6.234,1.859-12.334,4.183-18.611,5.858
				c-9.392,2.507-19.179,2.67-28.715,4.346c-12.326,2.163-24.746,3.356-37.184,2.372c-12.536-0.995-25.177-0.364-37.613-2.474
				c-6.038-1.021-12.189-0.777-18.156-1.805c-4.786-0.826-9.625-1.436-14.384-2.409c-11.299-2.31-21.41-7.928-32.159-11.753
				c-15.028-5.349-27.808-14.625-41.455-22.432c-8.506-4.872-16.721-10.21-25.198-15.117c-9.121-5.281-17.331-11.762-24.366-20.044
				c-7.91-9.308-14.969-18.982-21.591-29.27c-11.198-17.405-22.067-34.933-30.979-53.606c-8.123-17.03-14.499-34.764-19.473-52.982
				c-2.352-8.603-3.293-17.492-4.633-26.289c-1.759-11.508-2.592-23.191-1.54-34.739c0.975-10.747,0.612-21.51,2.056-32.283
				c1.848-13.813,3.86-27.5,8.416-40.633c3.59-10.35,7.943-20.442,12.186-30.55c6.964-16.619,15.306-32.505,25.289-47.528
				c6.115-9.196,11.629-18.8,17.864-27.91c4.972-7.275,10.552-14.146,17.25-19.98c14.749-12.836,30.7-23.983,47.767-33.466
				c12.605-7.007,25.511-13.346,39.254-17.928c7.646-2.554,15.025-5.872,22.837-8.024c6.537-1.8,13.249-2.527,19.886-3.715
				c10.038-1.795,20.072-3.538,30.023-5.856c5.47-1.274,11.229-1.551,16.876-1.76c10.426-0.384,20.81-1.747,31.272-1.336
				c9.418,0.364,18.67,1.459,27.941,3.589c7.635,1.751,15.447,3.09,23.21,4.316c7.361,1.162,14.121,3.936,21.097,6.125
				c15.907,4.995,31.031,12.002,46.006,19.188c13.006,6.243,24.396,15.104,33.836,26.183c4.172,4.904,9.135,8.796,14.445,12.201
				c7.814,5.011,14.036,11.353,20.06,18.518c11.778,13.998,19.767,30.354,29.889,45.352c5.513,8.164,8.093,18.376,11.666,27.795
				c3.88,10.234,7.455,20.586,11.016,30.941c4.432,12.893,8.235,25.992,10.473,39.445c1.187,7.104,1.156,14.403,1.826,21.603
				c0.993,10.602,1.5,21.244,1.663,31.891c0.143,9.532-1.59,18.83-2.433,28.332c-0.692,7.804-1.883,15.443-4.305,22.894
				c-0.164,0.515-0.02,1.123-0.02,1.689"/>
		</defs>
		<clipPath id="SVGID_2_">
			<use xlink:href="#SVGID_1_"  overflow="visible"/>
		</clipPath>
		<g clip-path="url(#SVGID_2_)">
			<defs>
				<rect id="SVGID_3_" x="8.778" y="-3136.847" width="2812.92" height="10342.429"/>
			</defs>
			<clipPath id="SVGID_4_">
				<use xlink:href="#SVGID_3_"  overflow="visible"/>
			</clipPath>
			<rect x="142.937" y="132.093" clip-path="url(#SVGID_4_)" fill="#B8D7E3" width="572.045" height="571.785"/>
		</g>
	</g>
	<g enable-background="new    ">
		<g>
			<defs>
				<rect id="SVGID_5_" x="154.369" y="143.062" width="549.399" height="549.399"/>
			</defs>
			<clipPath id="SVGID_6_">
				<use xlink:href="#SVGID_5_"  overflow="visible"/>
			</clipPath>
			<g clip-path="url(#SVGID_6_)">
				<defs>
					<path id="SVGID_7_" d="M437.784,692.461c-3.166,0-6.249-0.121-9.282-0.362c-4.617-0.364-9.351-0.512-13.931-0.654
						c-7.831-0.245-15.927-0.494-23.887-1.844c-2.889-0.488-5.909-0.681-8.833-0.869c-3.053-0.198-6.213-0.401-9.328-0.938
						c-1.771-0.304-3.549-0.579-5.325-0.855c-2.994-0.465-6.09-0.942-9.131-1.567c-7.554-1.542-14.604-4.527-21.423-7.414
						c-3.605-1.523-7.332-3.104-11.042-4.425c-11.144-3.964-21.145-10.086-30.812-16.007c-3.595-2.199-7.313-4.474-11.015-6.597
						c-4.48-2.564-8.938-5.293-13.249-7.932c-3.903-2.39-7.943-4.861-11.962-7.19c-9.947-5.759-18.116-12.479-24.967-20.543
						c-7.696-9.062-14.82-18.716-21.772-29.519c-10.143-15.764-21.75-34.223-31.122-53.859c-7.831-16.42-14.43-34.375-19.617-53.373
						c-1.869-6.835-2.871-13.891-3.84-20.715c-0.276-1.948-0.552-3.894-0.848-5.832c-2.012-13.171-2.521-24.718-1.557-35.304
						c0.409-4.515,0.583-9.14,0.752-13.611c0.23-6.13,0.471-12.471,1.314-18.768c1.969-14.709,3.969-27.956,8.521-41.084
						c3.191-9.193,7.021-18.293,10.728-27.089l1.513-3.6c7.188-17.152,15.766-33.272,25.495-47.911
						c2.755-4.145,5.44-8.458,8.039-12.627c3.151-5.06,6.409-10.291,9.843-15.31c5.743-8.402,11.514-15.082,17.638-20.417
						c14.713-12.807,30.918-24.16,48.16-33.742c14.975-8.324,27.575-14.075,39.649-18.099c2.961-0.99,5.958-2.125,8.855-3.222
						c4.55-1.722,9.255-3.503,14.097-4.837c4.705-1.295,9.507-2.052,14.156-2.784c1.95-0.309,3.967-0.625,5.931-0.977l2.419-0.432
						c9.046-1.615,18.397-3.284,27.491-5.403c5.562-1.293,11.364-1.596,17.314-1.816c3.675-0.134,7.422-0.399,11.05-0.654
						c6.652-0.47,13.533-0.953,20.393-0.684c10.116,0.394,19.398,1.588,28.369,3.648c7.95,1.824,16.116,3.192,23.055,4.284
						c5.601,0.885,10.858,2.669,15.948,4.391c1.794,0.609,3.647,1.237,5.475,1.811c16.243,5.102,31.783,12.337,46.312,19.312
						c13.238,6.353,24.878,15.358,34.595,26.767c3.604,4.233,8.031,7.967,13.934,11.752c7.041,4.515,13.195,10.188,20.58,18.974
						c7.635,9.078,13.757,19.218,19.681,29.023c3.311,5.483,6.728,11.152,10.354,16.522c4.26,6.312,6.825,13.751,9.304,20.943
						c0.837,2.425,1.7,4.931,2.606,7.326c3.775,9.953,7.233,19.935,11.043,31.011c5.209,15.157,8.567,27.808,10.568,39.818
						c0.771,4.627,1.041,9.357,1.304,13.928c0.147,2.581,0.302,5.25,0.542,7.841c0.952,10.17,1.5,20.661,1.674,32.071
						c0.098,6.588-0.681,13.114-1.439,19.422c-0.357,2.996-0.73,6.095-1.002,9.15c-0.817,9.19-2.21,16.6-4.378,23.304
						c0,0.11,0.017,0.223,0.024,0.338c0.02,0.247,0.038,0.494,0.038,0.735h-3.608h3.608c-5.162,15.911-11.106,33.9-20.495,49.604
						c-2.847,4.757-5.261,9.95-7.598,14.969c-1.639,3.525-3.337,7.169-5.185,10.683c-6.601,12.552-15.367,23.478-23.778,33.592
						c-10.957,13.17-22.484,25.421-32.315,35.668c-3.681,3.837-8.182,6.396-12.1,8.395c-8.277,4.214-16.403,9.09-24.258,13.807
						c-6.778,4.067-13.786,8.276-20.909,12.069c-10.95,5.832-23.163,10.771-36.301,14.682c-2.578,0.77-5.193,1.639-7.723,2.479
						c-3.56,1.184-7.241,2.409-10.951,3.399c-5.874,1.566-11.911,2.245-17.748,2.899c-3.68,0.416-7.489,0.843-11.165,1.489
						C455.699,691.554,446.432,692.461,437.784,692.461 M444.12,148.143c-5.35,0-10.742,0.378-15.991,0.749
						c-3.661,0.257-7.455,0.523-11.205,0.66c-5.714,0.212-11.272,0.499-16.437,1.704c-9.212,2.146-18.625,3.825-27.728,5.448
						l-2.417,0.432c-2.012,0.36-4.05,0.682-6.025,0.993c-4.522,0.71-9.198,1.448-13.654,2.677
						c-4.633,1.274-9.233,3.018-13.687,4.703c-2.94,1.113-5.979,2.264-9.03,3.284c-11.798,3.933-24.149,9.574-38.868,17.756
						c-16.962,9.427-32.902,20.595-47.374,33.189c-5.824,5.076-11.338,11.468-16.859,19.543c-3.377,4.936-6.609,10.124-9.734,15.141
						c-2.616,4.198-5.319,8.541-8.112,12.745c-9.567,14.395-18.007,30.254-25.082,47.139l-1.516,3.605
						c-3.677,8.729-7.478,17.759-10.619,26.807c-4.412,12.721-6.373,25.727-8.308,40.183c-0.814,6.076-1.049,12.303-1.276,18.325
						c-0.17,4.533-0.347,9.222-0.769,13.857c-0.93,10.208-0.432,21.387,1.522,34.183c0.299,1.958,0.577,3.92,0.856,5.88
						c0.948,6.683,1.93,13.59,3.723,20.146c5.113,18.73,11.616,36.427,19.328,52.596c9.257,19.393,20.769,37.706,30.835,53.349
						c6.842,10.628,13.845,20.125,21.408,29.026c6.506,7.656,14.279,14.049,23.767,19.539c4.067,2.356,8.128,4.842,12.056,7.249
						c4.281,2.621,8.708,5.334,13.128,7.862c3.767,2.155,7.511,4.447,11.133,6.664c9.47,5.8,19.261,11.793,29.954,15.597
						c3.836,1.368,7.629,2.973,11.294,4.522c6.61,2.798,13.445,5.692,20.551,7.144c2.935,0.602,5.974,1.073,8.914,1.53
						c1.803,0.278,3.606,0.558,5.403,0.865c2.874,0.497,5.773,0.682,8.842,0.881c3.039,0.195,6.181,0.396,9.306,0.928
						c7.648,1.293,15.584,1.54,23.261,1.778c4.636,0.143,9.428,0.293,14.15,0.668c10.933,0.864,22.564,0.121,36.604-2.345
						c3.814-0.67,7.693-1.107,11.447-1.528c5.67-0.636,11.533-1.297,17.075-2.773c3.578-0.956,7.188-2.157,10.687-3.319
						c2.562-0.853,5.213-1.732,7.86-2.521c12.845-3.825,24.773-8.648,35.454-14.336c7.015-3.736,13.971-7.914,20.701-11.95
						c7.922-4.76,16.114-9.677,24.538-13.964c3.573-1.821,7.661-4.137,10.864-7.477c9.776-10.191,21.236-22.367,32.1-35.427
						c8.255-9.923,16.847-20.628,23.237-32.783c1.797-3.416,3.469-7.007,5.086-10.48c2.388-5.13,4.855-10.431,7.823-15.394
						c9.083-15.194,14.797-31.651,19.856-47.225h-0.021c0-0.121-0.011-0.241-0.021-0.364c-0.044-0.529-0.1-1.251,0.158-2.043
						c2.073-6.39,3.41-13.5,4.198-22.384c0.279-3.122,0.654-6.256,1.019-9.289c0.773-6.44,1.5-12.522,1.407-18.8
						c-0.173-11.286-0.714-21.66-1.652-31.709c-0.25-2.674-0.406-5.383-0.557-8.007c-0.254-4.45-0.517-9.048-1.25-13.432
						c-1.955-11.75-5.256-24.166-10.379-39.072c-3.796-11.039-7.243-20.983-10.992-30.874c-0.935-2.46-1.809-5.003-2.656-7.458
						c-2.383-6.911-4.845-14.054-8.762-19.862c-3.691-5.47-7.147-11.189-10.484-16.718c-5.826-9.655-11.856-19.64-19.258-28.438
						c-7.068-8.41-12.914-13.81-19.539-18.062c-6.297-4.035-11.051-8.053-14.96-12.646c-9.295-10.913-20.422-19.524-33.078-25.598
						c-14.376-6.902-29.748-14.06-45.698-19.071c-1.876-0.587-3.756-1.226-5.572-1.84c-5.135-1.738-9.979-3.382-15.192-4.204
						c-7.015-1.107-15.276-2.492-23.368-4.346c-8.686-1.999-17.688-3.155-27.518-3.536
						C446.725,148.164,445.424,148.143,444.12,148.143"/>
				</defs>
				<clipPath id="SVGID_8_">
					<use xlink:href="#SVGID_7_"  overflow="visible"/>
				</clipPath>
				<g clip-path="url(#SVGID_8_)">
					<defs>
						<rect id="SVGID_9_" x="154.369" y="143.062" width="549.399" height="552.146"/>
					</defs>
					<clipPath id="SVGID_10_">
						<use xlink:href="#SVGID_9_"  overflow="visible"/>
					</clipPath>
					<rect x="140.634" y="129.783" clip-path="url(#SVGID_10_)" fill="#231F20" width="576.653" height="576.412"/>
				</g>
			</g>
		</g>
	</g>
	<g>
		<defs>
			<polygon id="SVGID_11_" points="319.647,456.533 335.324,456.395 309.86,329.533 293.779,328.191 			"/>
		</defs>
		<clipPath id="SVGID_12_">
			<use xlink:href="#SVGID_11_"  overflow="visible"/>
		</clipPath>
		<g clip-path="url(#SVGID_12_)">
			<defs>
				<rect id="SVGID_13_" x="8.778" y="-3136.847" width="2812.92" height="10342.429"/>
			</defs>
			<clipPath id="SVGID_14_">
				<use xlink:href="#SVGID_13_"  overflow="visible"/>
			</clipPath>
			<rect x="280.043" y="314.457" clip-path="url(#SVGID_14_)" fill="#787260" width="69.016" height="155.811"/>
		</g>
	</g>
	<g>
		<defs>
			<polygon id="SVGID_15_" points="366.34,683.742 382.774,685.657 340.153,470.3 323.725,472.081 			"/>
		</defs>
		<clipPath id="SVGID_16_">
			<use xlink:href="#SVGID_15_"  overflow="visible"/>
		</clipPath>
		<g clip-path="url(#SVGID_16_)">
			<defs>
				<rect id="SVGID_17_" x="8.778" y="-3136.847" width="2812.92" height="10342.429"/>
			</defs>
			<clipPath id="SVGID_18_">
				<use xlink:href="#SVGID_17_"  overflow="visible"/>
			</clipPath>
			<rect x="309.989" y="456.565" clip-path="url(#SVGID_18_)" fill="#787260" width="86.52" height="242.827"/>
		</g>
	</g>
	<g>
		<defs>
			<path id="SVGID_19_" d="M342.6,483.287c0,0,68.54,28.739,103.242,36.69c27.267,6.245,88.494,1.075,88.494,1.075h51.313
				c0,0,24.444-4.95,35.185-13.563c5.939-4.765,19.97,0,25.381-18.652c2.347-8.094-120.176-32.803-138.613-30.351
				c-18.436,2.449-65.155-5.875-73.137-5.875c-7.98,0-37.747,5.314-38.417,12.023c-0.676,6.709,4.203,19.081,1.486,17.826
				c-33.788-15.541-38.187-12.74-56.164-10.211C335.823,473.028,342.6,483.287,342.6,483.287"/>
		</defs>
		<clipPath id="SVGID_20_">
			<use xlink:href="#SVGID_19_"  overflow="visible"/>
		</clipPath>
		<g clip-path="url(#SVGID_20_)">
			<defs>
				<rect id="SVGID_21_" x="8.778" y="-3136.847" width="2812.92" height="10342.429"/>
			</defs>
			<clipPath id="SVGID_22_">
				<use xlink:href="#SVGID_21_"  overflow="visible"/>
			</clipPath>
			<rect x="325.452" y="438.876" clip-path="url(#SVGID_22_)" fill="#ADADAD" width="334.532" height="97.921"/>
		</g>
	</g>
	<g>
		<defs>
			<path id="SVGID_23_" d="M286.206,306.747c0,0,43.598-0.926,57.751,0c14.153,0.925,24.889-0.926,34.106,0
				c9.218,0.925,44.03-9.277,55.938-14.293c13.504-5.689,41.859,5.14,60.853,14.838c11.659,5.947,25.651,18.558,28.414,17.448
				c2.766-1.111,21.33,1.417,25.938,1.738c4.608,0.322,36.929,5.398,46.713,5.374c14.734-0.035,26.729-2.245,31.702,24.881
				c3.085,16.833,27.03,44.285,27.856,60.007s-1.758,58.132-4.458,64.589c-3.326,7.943-31.32,9.988-42.973,11.406
				c-15.106,1.841-37.94-18.364-55.759-17.75c-13.359,0.464-56.512-6.139-77.938-7.134c-21.2-0.987-147.527,3.072-150.512,2.521
				c-4.934-0.906-14.079-14.233-4.078-13.771c9.995,0.464,89.932,0.013,95.176-2.377c5.25-2.391,12.412-26.239,12.412-29.938
				s-7.661-7.61-7.064-13.429c0.558-5.446,2.834-5.021,3.138-22.596c0.301-17.574-6.036-24.077,2.259-42.066
				c-6.452-2.73-50.382-18.977-73.429-17.931c-23.043,1.046-62.553,0.953-63.014-2.165S282.066,306.83,286.206,306.747"/>
		</defs>
		<clipPath id="SVGID_24_">
			<use xlink:href="#SVGID_23_"  overflow="visible"/>
		</clipPath>
		<g clip-path="url(#SVGID_24_)">
			<defs>
				<rect id="SVGID_25_" x="8.778" y="-3136.847" width="2812.92" height="10342.429"/>
			</defs>
			<clipPath id="SVGID_26_">
				<use xlink:href="#SVGID_25_"  overflow="visible"/>
			</clipPath>
			<rect x="271.129" y="277.145" clip-path="url(#SVGID_26_)" fill="#FFFFFF" width="398.239" height="229.443"/>
		</g>
	</g>
	<g>
		<defs>
			<path id="SVGID_27_" d="M301.03,273.139c7.707-9.955,3.203-25.246-10.355-28.43c-10.328-2.425-19.116,2.148-23.548,8.732
				c-2.272,3.377-1.218,7.911-0.623,11.999c1.325,9.15,8.062,14.279,14.942,18.532c3.007,1.859,4.756,3.914,5.011,6.583
				c0.52,5.397,2.736,10.591,1.958,16.12l12.512-0.896c-2.049-7.659-1.979-15.72-4.402-23.331c-0.521-1.634-0.217-3.493,1.253-4.934
				C299.071,276.237,299.946,274.542,301.03,273.139 M285.401,268.767c-4.628,0-8.378-3.203-8.378-7.155
				c0-3.951,3.75-7.154,8.378-7.154c4.627,0,8.375,3.203,8.375,7.154C293.775,265.563,290.028,268.767,285.401,268.767"/>
		</defs>
		<clipPath id="SVGID_28_">
			<use xlink:href="#SVGID_27_"  overflow="visible"/>
		</clipPath>
		<g clip-path="url(#SVGID_28_)">
			<defs>
				<rect id="SVGID_29_" x="8.778" y="-3136.847" width="2812.92" height="10342.429"/>
			</defs>
			<clipPath id="SVGID_30_">
				<use xlink:href="#SVGID_29_"  overflow="visible"/>
			</clipPath>
			<rect x="251.997" y="230.317" clip-path="url(#SVGID_30_)" fill="#787260" width="66.523" height="90.092"/>
		</g>
	</g>
	<g>
		<defs>
			<path id="SVGID_31_" d="M388.324,337.095l35.489,8.901c0,0-3.923,24.785-3.312,32.492c0.618,7.705,4.233,12.718,0.547,22.623
				c-3.688,9.902-2.832,9.824-1.067,12.954c2.678,4.754,9.357,6.695,4.754,20.265c-4.604,13.563-8.627,19.049-13.483,19.325
				c-4.853,0.281-12.371,3.756-13.077-4.877c-0.711-8.633-5.818-14.025-5.818-18.035c0-4.007-0.923-19.847-1.84-22.314
				c-0.922-2.465-1.424-6.717,0.112-19.073c1.535-12.361,3.568-26.437,2.302-32.604
				C391.667,350.586,388.324,337.095,388.324,337.095"/>
		</defs>
		<clipPath id="SVGID_32_">
			<use xlink:href="#SVGID_31_"  overflow="visible"/>
		</clipPath>
		<g clip-path="url(#SVGID_32_)">
			<defs>
				<rect id="SVGID_33_" x="8.778" y="-3136.847" width="2812.92" height="10342.429"/>
			</defs>
			<clipPath id="SVGID_34_">
				<use xlink:href="#SVGID_33_"  overflow="visible"/>
			</clipPath>
			<rect x="374.589" y="323.36" clip-path="url(#SVGID_34_)" fill="#ADADAD" width="65.458" height="144.954"/>
		</g>
	</g>
	<g>
		<defs>
			<path id="SVGID_35_" d="M397.089,456.535c-0.046,0-0.092-0.002-0.14-0.004c-1.271-0.078-2.237-1.173-2.162-2.448
				c0.078-1.279,0.037-2.507-0.121-3.655c-0.185-1.36-0.525-2.607-1.038-3.821c-2.061-4.881-3.442-9.179-4.346-13.524
				c-0.611-2.922-0.989-5.792-1.158-8.783c-0.038-0.614-0.07-1.336-0.038-2.015c0.226-4.157-0.478-8.262-1.282-12.455
				c-0.252-1.317-0.445-2.691-0.574-4.081c-0.606-6.625,0.287-13.177,1.153-19.516c0.494-3.619,1.003-7.364,1.207-11.004l0.15-2.562
				c0.432-7.259,0.839-14.116-0.488-21.133l-0.07-0.338c-0.297-1.325-0.891-2.661-1.519-4.075c-1.046-2.358-2.13-4.794-2.049-7.712
				c0.038-1.395-0.402-1.838-1.282-2.203c-0.295-0.126-0.641-0.236-1.103-0.349l-1.929-0.469c-1.234-0.303-1.996-1.553-1.695-2.793
				c0.3-1.242,1.545-2.004,2.784-1.703l1.927,0.472c0.713,0.174,1.287,0.356,1.802,0.577c2.763,1.153,4.188,3.434,4.104,6.594
				c-0.051,1.87,0.778,3.731,1.652,5.706c0.692,1.559,1.406,3.168,1.813,4.982l0.086,0.427c1.44,7.605,1.014,14.741,0.568,22.295
				l-0.15,2.546c-0.215,3.823-0.737,7.662-1.245,11.374c-0.87,6.358-1.69,12.362-1.126,18.462c0.112,1.238,0.284,2.459,0.506,3.63
				c0.862,4.484,1.613,8.9,1.36,13.571c-0.021,0.444,0.005,1.011,0.032,1.505c0.162,2.76,0.51,5.41,1.073,8.104
				c0.842,4.046,2.136,8.072,4.078,12.667c0.665,1.57,1.121,3.251,1.36,4.992c0.2,1.451,0.251,2.986,0.155,4.568
				C399.314,455.588,398.301,456.535,397.089,456.535"/>
		</defs>
		<clipPath id="SVGID_36_">
			<use xlink:href="#SVGID_35_"  overflow="visible"/>
		</clipPath>
		<g clip-path="url(#SVGID_36_)">
			<defs>
				<rect id="SVGID_37_" x="8.778" y="-3136.847" width="2812.92" height="10342.429"/>
			</defs>
			<clipPath id="SVGID_38_">
				<use xlink:href="#SVGID_37_"  overflow="visible"/>
			</clipPath>
			<rect x="364.806" y="318.091" clip-path="url(#SVGID_38_)" fill="#231F20" width="48.363" height="152.179"/>
		</g>
	</g>
	<g>
		<defs>
			<path id="SVGID_39_" d="M556.125,347.158c-0.377,0-0.752-0.089-1.105-0.282c-2.345-1.285-4.684-2.581-7.023-3.876
				c-5.72-3.168-11.632-6.444-17.522-9.48c-2.151-1.114-3.782-2.664-5.36-4.164c-0.794-0.756-1.546-1.47-2.34-2.105
				c-1.08-0.875-2.07-1.452-3.116-1.816c-9.301-3.249-16.976-9.18-24.4-14.918l-1.804-1.392
				c-7.487-5.762-16.664-8.979-24.655-11.366c-12.424-3.712-25.547-4.469-40.125-2.318c-10.092,1.492-19.984,4.518-29.551,7.441
				c-4.26,1.301-8.66,2.648-13.048,3.85c-5.274,1.443-10.578,2.21-15.763,2.277c-7.125,0.086-14.32-0.322-21.276-0.719
				c-8.533-0.49-17.354-0.995-25.992-0.561l-4.04,0.201c-5.821,0.284-11.841,0.58-17.732,1.03c-2.521,0.185-5.07,0.413-7.581,0.676
				c-2.052,0.218-4.048-0.019-5.556-0.247c-0.435-0.062-0.856-0.131-1.25-0.196c-0.013-0.002-0.03-0.005-0.041-0.008
				c0.129,1.059,0.365,1.953,0.655,3.028c0.381,1.417,0.815,3.023,1.089,5.395c0.249,2.189,1.14,5.596,1.787,6.468
				c1.889,0.789,5.204,1.446,8.761,1.73c1.199,0.097,2.404,0.145,3.584,0.145c1.049,0,3.788-0.22,4.753-0.303
				c1.417-0.14,3.101,0.038,4.582,0.19c0.604,0.064,1.153,0.121,1.599,0.142c6.042,0.306,12.206,0.392,18.172,0.478
				c9.901,0.142,20.138,0.287,30.211,1.417c5.979,0.673,11.889,2.151,17.605,3.579l1.441,0.362c1.237,0.306,1.991,1.562,1.685,2.801
				c-0.309,1.239-1.559,1.99-2.792,1.688l-1.446-0.363c-5.569-1.392-11.332-2.83-17.008-3.471
				c-9.845-1.103-19.969-1.247-29.761-1.387c-6.006-0.086-12.217-0.174-18.333-0.48c-0.51-0.027-1.148-0.092-1.846-0.164
				c-1.208-0.126-2.707-0.279-3.688-0.185c-0.397,0.035-3.737,0.322-5.175,0.322c-1.298,0-2.629-0.053-3.949-0.161
				c-4.303-0.341-8.118-1.146-10.476-2.205c-3.146-1.408-4.123-8.638-4.289-10.071c-0.231-2.031-0.601-3.399-0.955-4.721
				c-0.515-1.915-1.003-3.724-0.904-6.747c0.027-0.813,0.475-1.551,1.183-1.948c1.105-0.614,2.374-0.408,4.295-0.094
				c0.373,0.059,0.77,0.124,1.188,0.185c1.245,0.191,2.862,0.384,4.399,0.22c2.557-0.266,5.15-0.496,7.715-0.687
				c5.947-0.456,12-0.751,17.85-1.039l4.032-0.198c8.888-0.445,17.834,0.064,26.488,0.558c6.878,0.395,13.99,0.802,20.956,0.713
				c4.792-0.062,9.709-0.775,14.607-2.114c4.318-1.183,8.692-2.521,12.917-3.812c9.729-2.975,19.792-6.049,30.225-7.594
				c15.256-2.253,29.028-1.449,42.109,2.462c8.394,2.508,18.064,5.91,26.145,12.128l1.811,1.397
				c7.463,5.768,14.511,11.214,23.102,14.215c1.562,0.545,2.99,1.363,4.491,2.576c0.938,0.753,1.798,1.569,2.624,2.358
				c1.406,1.336,2.731,2.597,4.297,3.407c5.95,3.066,11.896,6.361,17.642,9.545c2.334,1.29,4.667,2.586,7.007,3.865
				c1.116,0.612,1.528,2.018,0.917,3.139C557.729,346.723,556.94,347.158,556.125,347.158"/>
		</defs>
		<clipPath id="SVGID_40_">
			<use xlink:href="#SVGID_39_"  overflow="visible"/>
		</clipPath>
		<g clip-path="url(#SVGID_40_)">
			<defs>
				<rect id="SVGID_41_" x="8.778" y="-3136.847" width="2812.92" height="10342.429"/>
			</defs>
			<clipPath id="SVGID_42_">
				<use xlink:href="#SVGID_41_"  overflow="visible"/>
			</clipPath>
			<rect x="268.398" y="275.886" clip-path="url(#SVGID_42_)" fill="#231F20" width="303.769" height="85.006"/>
		</g>
	</g>
	<g>
		<defs>
			<path id="SVGID_43_" d="M288.531,309.059c-0.107,0-0.217-0.008-0.325-0.024c-1.261-0.177-2.138-1.347-1.961-2.61
				c0.437-3.125-0.223-6.226-0.92-9.51c-0.418-1.956-0.851-3.981-1.052-6.065c-0.112-1.194-0.663-2.819-3.927-4.839
				c-7.468-4.614-14.577-10.25-16.015-20.168c-0.062-0.438-0.131-0.882-0.204-1.331c-0.623-4-1.331-8.531,1.202-12.294
				c5.574-8.281,15.771-12.08,25.981-9.687c7.037,1.649,12.407,6.374,14.73,12.954c2.302,6.521,1.153,13.679-3.08,19.146
				c-0.349,0.453-0.689,0.963-1.049,1.5c-0.668,1-1.424,2.135-2.412,3.106s-0.842,2.033-0.668,2.578
				c1.368,4.303,1.972,8.719,2.557,12.987c0.499,3.635,0.971,7.071,1.873,10.451c0.333,1.234-0.397,2.5-1.626,2.831
				c-1.229,0.33-2.495-0.4-2.825-1.634c-0.979-3.662-1.491-7.401-1.988-11.018c-0.582-4.263-1.135-8.287-2.382-12.208
				c-0.837-2.621-0.15-5.344,1.834-7.292c0.646-0.636,1.21-1.481,1.808-2.374c0.386-0.582,0.789-1.183,1.239-1.765
				c3.262-4.214,4.147-9.732,2.372-14.762c-1.787-5.068-5.956-8.71-11.433-9.998c-10.124-2.377-17.7,2.701-21.112,7.774
				c-1.519,2.253-0.982,5.679-0.467,8.989c0.075,0.464,0.145,0.925,0.212,1.382c1.1,7.591,6.339,12.243,13.872,16.895
				c3.788,2.347,5.783,5.073,6.095,8.332c0.177,1.822,0.563,3.629,0.971,5.545c0.751,3.533,1.529,7.187,0.976,11.12
				C290.648,308.225,289.661,309.059,288.531,309.059"/>
		</defs>
		<clipPath id="SVGID_44_">
			<use xlink:href="#SVGID_43_"  overflow="visible"/>
		</clipPath>
		<g clip-path="url(#SVGID_44_)">
			<defs>
				<rect id="SVGID_45_" x="8.778" y="-3136.847" width="2812.92" height="10342.429"/>
			</defs>
			<clipPath id="SVGID_46_">
				<use xlink:href="#SVGID_45_"  overflow="visible"/>
			</clipPath>
			<rect x="249.803" y="228.087" clip-path="url(#SVGID_46_)" fill="#231F20" width="71.137" height="94.707"/>
		</g>
	</g>
	<g>
		<defs>
			<path id="SVGID_47_" d="M608.136,495.048h-0.093c-3.406-0.009-7.597-1.782-10.374-2.953c-0.686-0.293-1.258-0.538-1.659-0.68
				c-5.852-2.065-10.167-3.868-13.634-5.32c-3.895-1.628-6.97-2.915-10.43-3.841c-6.419-1.717-12.232-3.195-18.36-3.933
				c-7.248-0.874-14.866-1.009-22.046-1.071c-10.604-0.091-21.82-1.41-35.294-4.152c-12.117-2.473-24.597-3.268-36.271-3.756
				c-10.144-0.432-20.544,0.055-30.602,0.521c-4.554,0.21-9.266,0.43-13.903,0.562c-3.981,0.112-7.962,0.19-11.943,0.269
				c-2.449,0.048-4.896,0.096-7.342,0.152l-1.725,0.037c-1.953,0.052-3.922-0.046-5.824-0.137c-4.037-0.19-7.852-0.369-11.347,0.711
				c-3.013,0.937-5.223,0.72-7.358,0.512l-0.74-0.069c-0.59-0.056-1.296-0.108-2.071-0.123l-0.671-0.014
				c-1.73-0.028-4.346-0.08-5.735,0.069c-1.314,0.148-2.667,0.247-4.134,0.31c-2.808,0.118-5.63,0.072-8.367,0.031
				c-3.128-0.048-6.369-0.098-9.497,0.105c-1.99,0.129-4.083,0.7-5.934,1.204l-0.092,0.024c-1.982,0.537-4.035,1.095-6.084,1.255
				c-0.282,0.024-0.569-0.007-0.842-0.091c-0.488-0.147-0.966-0.304-1.438-0.462c-5.8-1.947-13.236-5.719-11.047-15.923
				c0.132-1.773,1.867-3.051,5.172-3.799c0.418-0.089,0.767-0.15,1.035-0.183l1.497-0.164c4.662-0.512,9.486-1.041,14.371-0.848
				c2.219,0.086,4.295,0.31,6.342,0.689c11.224,2.068,22.834,1.101,34.061,0.164c6.24-0.521,12.694-1.058,19.084-1.086
				c1.186-0.006,2.377,0.011,3.574,0.028c1.835,0.027,3.733,0.052,5.582-0.007c3.587-0.108,6.44-0.529,8.99-1.331
				c1.974-0.616,2.62-0.877,2.978-1.65c2.09-4.527,4.146-9.177,6.137-13.67l1.471-3.321c2.998-6.744,2.827-7.729-2.256-13.16
				c-0.137-0.147-0.263-0.271-0.389-0.395c-0.173-0.169-0.344-0.338-0.505-0.514c-1.175-1.269-1.964-2.218-2.554-3.084
				c-0.719-1.055-0.451-2.493,0.601-3.214c1.049-0.724,2.484-0.454,3.203,0.602c0.456,0.67,1.111,1.455,2.122,2.548
				c0.11,0.117,0.228,0.233,0.349,0.349c0.185,0.185,0.373,0.367,0.55,0.561c6.299,6.73,6.819,9.792,3.091,18.188l-1.47,3.315
				c-1.997,4.513-4.062,9.179-6.171,13.738c-1.238,2.698-3.619,3.444-5.719,4.103c-3.021,0.948-6.272,1.438-10.285,1.562
				c-1.951,0.059-3.9,0.031-5.789,0.007c-1.17-0.018-2.329-0.034-3.488-0.028c-6.21,0.028-12.571,0.558-18.722,1.069
				c-11.527,0.961-23.449,1.956-35.279-0.226c-1.829-0.338-3.688-0.538-5.685-0.613c-4.552-0.181-8.989,0.308-13.692,0.823
				l-1.478,0.161c-0.129,0.016-0.333,0.056-0.566,0.104c-0.711,0.162-1.339,0.384-1.72,0.556c-1.003,5.158,1.234,7.971,8.075,10.267
				c0.29,0.098,0.577,0.193,0.869,0.284c1.505-0.169,3.123-0.605,4.823-1.067l0.091-0.027c2.052-0.558,4.381-1.193,6.835-1.354
				c3.315-0.215,6.647-0.162,9.87-0.113c2.666,0.042,5.426,0.086,8.104-0.029c1.363-0.055,2.607-0.147,3.82-0.282
				c1.685-0.185,4.367-0.134,6.326-0.096l0.657,0.011c0.925,0.014,1.741,0.08,2.414,0.139l0.77,0.076
				c1.991,0.193,3.426,0.334,5.553-0.327c4.268-1.32,8.67-1.114,12.924-0.913c1.905,0.091,3.708,0.18,5.5,0.135l1.728-0.039
				c2.453-0.059,4.905-0.104,7.356-0.152c3.968-0.08,7.936-0.158,11.903-0.269c4.598-0.13,9.287-0.349,13.823-0.56
				c10.155-0.47,20.661-0.958,31.006-0.521c11.867,0.499,24.562,1.309,36.995,3.845c13.18,2.685,24.114,3.973,34.416,4.063
				c7.312,0.062,15.075,0.198,22.561,1.1c6.422,0.775,12.4,2.296,18.992,4.057c3.762,1.009,6.965,2.345,11.016,4.04
				c3.595,1.502,7.663,3.205,13.392,5.226c0.499,0.176,1.126,0.442,1.923,0.78c2.286,0.966,6.113,2.586,8.587,2.592h0.091
				c5.6,0,9.958-0.755,14.555-2.521c5.597-2.441,11.798-2.45,16.781-2.457c2.307-0.004,4.3-0.007,5.83-0.236
				c0.707-0.104,1.92-0.357,2.121-0.872c4.257-10.852,6.31-19.942,6.27-27.781c-0.027-5.792-0.072-7.598-0.957-14.614
				c-0.718-5.68-0.492-11.866,0.711-19.468c0.854-5.38-2.093-11.05-4.947-16.531c-0.923-1.771-1.792-3.444-2.551-5.126
				c-1.143-2.532-2.305-4.646-3.426-6.69c-1.935-3.528-3.762-6.86-5.401-11.948c-0.716-2.229-1.402-3.791-2.062-5.298
				c-0.252-0.572-0.499-1.135-0.739-1.714c-1.471-3.543-2.917-6.159-5.95-9.035c-2.964-2.816-3.026-7.047-3.075-10.449l-0.008-0.488
				c-0.069-3.86-0.41-8.364-2.406-12.482c-2.856-5.896-7.055-8.56-13.616-8.638c-3.525-0.035-6.487,0.003-9.353,0.045
				c-4.581,0.062-8.905,0.121-14.657-0.155c-1.519-0.048-5.35-0.309-8.359-1.679c-8.086-3.686-14.68-3.606-22.316-3.509
				c-5.019,0.059-10.205,0.126-16.211-0.904c-1.141-0.193-2.098-0.547-3.025-0.888c-2.297-0.851-4.282-1.581-9.222,0.303
				c-1.193,0.457-2.521-0.145-2.975-1.341c-0.45-1.191,0.148-2.527,1.337-2.983c6.551-2.495,9.823-1.29,12.449-0.319
				c0.797,0.292,1.489,0.547,2.211,0.671c5.593,0.96,10.566,0.896,15.379,0.837c7.845-0.097,15.256-0.19,24.277,3.925
				c1.841,0.837,4.609,1.202,6.589,1.263c0.016,0.003,0.08,0.005,0.1,0.005c5.599,0.271,9.854,0.212,14.359,0.15
				c2.895-0.04,5.886-0.081,9.47-0.045c8.3,0.099,14.095,3.774,17.708,11.24c2.386,4.928,2.789,10.057,2.867,14.424l0.011,0.502
				c0.039,2.792,0.081,5.682,1.631,7.155c3.617,3.428,5.373,6.602,7.04,10.615c0.23,0.553,0.462,1.086,0.703,1.631
				c0.676,1.542,1.442,3.289,2.231,5.744c1.502,4.665,3.227,7.806,5.054,11.135c1.165,2.125,2.366,4.319,3.587,7.016
				c0.705,1.566,1.546,3.181,2.436,4.893c3.051,5.865,6.511,12.509,5.411,19.4c-1.129,7.155-1.346,12.926-0.687,18.159
				c0.915,7.263,0.965,9.281,0.993,15.171c0.043,8.438-2.114,18.088-6.59,29.5c-1.212,3.077-4.61,3.583-5.729,3.75
				c-1.862,0.281-4.117,0.284-6.505,0.288c-4.811,0.004-10.261,0.013-14.987,2.092c-0.035,0.014-0.067,0.026-0.1,0.037
				C619.292,494.17,614.272,495.048,608.136,495.048"/>
		</defs>
		<clipPath id="SVGID_48_">
			<use xlink:href="#SVGID_47_"  overflow="visible"/>
		</clipPath>
		<g clip-path="url(#SVGID_48_)">
			<defs>
				<rect id="SVGID_49_" x="8.778" y="-3136.847" width="2812.92" height="10342.429"/>
			</defs>
			<clipPath id="SVGID_50_">
				<use xlink:href="#SVGID_49_"  overflow="visible"/>
			</clipPath>
			<rect x="299.152" y="307.748" clip-path="url(#SVGID_50_)" fill="#231F20" width="372.888" height="201.035"/>
		</g>
	</g>
	<g>
		<defs>
			<path id="SVGID_51_" d="M419.763,416.945c-0.725,0-1.444-0.345-1.889-0.986c-0.382-0.551-0.688-1.076-0.937-1.609
				c-0.537-1.16-0.035-2.535,1.118-3.072c1.154-0.54,2.524-0.035,3.061,1.121c0.132,0.284,0.31,0.59,0.535,0.91
				c0.729,1.046,0.475,2.485-0.57,3.219C420.68,416.809,420.218,416.945,419.763,416.945"/>
		</defs>
		<clipPath id="SVGID_52_">
			<use xlink:href="#SVGID_51_"  overflow="visible"/>
		</clipPath>
		<g clip-path="url(#SVGID_52_)">
			<defs>
				<rect id="SVGID_53_" x="8.778" y="-3136.847" width="2812.92" height="10342.429"/>
			</defs>
			<clipPath id="SVGID_54_">
				<use xlink:href="#SVGID_53_"  overflow="visible"/>
			</clipPath>
			<rect x="402.987" y="397.325" clip-path="url(#SVGID_54_)" fill="#231F20" width="32.814" height="33.355"/>
		</g>
	</g>
	<g>
		<defs>
			<path id="SVGID_55_" d="M419.021,415.672c-0.872,0-1.706-0.5-2.093-1.344c-1.539-3.333-0.451-6.24,1.951-10.136
				c1.987-3.217,2.752-6.44,2.557-10.787c-0.162-3.533-0.371-6.991-1.095-10.435c-1.492-7.104-1.766-14.393-0.811-21.66
				c0.687-5.231,2.027-10.585,3.987-15.918c0.439-1.197,1.765-1.813,2.96-1.368c1.194,0.442,1.804,1.771,1.363,2.97
				c-1.841,5.008-3.101,10.027-3.74,14.92c-0.885,6.747-0.633,13.51,0.752,20.101c0.794,3.782,1.014,7.447,1.187,11.178
				c0.238,5.28-0.763,9.424-3.241,13.434c-2.308,3.743-2.157,4.746-1.689,5.758c0.536,1.158,0.032,2.534-1.121,3.071
				C419.674,415.602,419.344,415.672,419.021,415.672"/>
		</defs>
		<clipPath id="SVGID_56_">
			<use xlink:href="#SVGID_55_"  overflow="visible"/>
		</clipPath>
		<g clip-path="url(#SVGID_56_)">
			<defs>
				<rect id="SVGID_57_" x="8.778" y="-3136.847" width="2812.92" height="10342.429"/>
			</defs>
			<clipPath id="SVGID_58_">
				<use xlink:href="#SVGID_57_"  overflow="visible"/>
			</clipPath>
			<rect x="402.48" y="330.145" clip-path="url(#SVGID_58_)" fill="#231F20" width="39.241" height="99.263"/>
		</g>
	</g>
	<g>
		<defs>
			<path id="SVGID_59_" d="M367.038,685.676c-1.017,0-1.948-0.681-2.224-1.711c-0.193-0.72-0.389-1.438-0.585-2.157l-0.335-1.233
				c-2.659-9.792-5.972-21.989-7.962-33.659c-2.103-12.346-4.297-24.887-6.425-37.013l-0.271-1.553
				c-0.445-2.532-0.891-5.062-1.33-7.598c-0.531-3.025-1.086-6.052-1.645-9.074c-1.13-6.142-2.302-12.49-3.217-18.789
				c-1.553-10.634-3.396-21.977-6.358-32.862c-3.761-13.882-7.629-28.693-10.049-43.774c-0.327-2.036-0.891-4.019-1.438-5.877
				l-0.217-0.741c-0.574-1.947-1.167-3.96-1.574-6.035c-0.741-3.767-1.572-7.246-2.546-10.643c-0.352-1.227,0.354-2.508,1.577-2.862
				c1.226-0.351,2.5,0.356,2.852,1.583c1.011,3.524,1.873,7.13,2.64,11.028c0.365,1.863,0.901,3.688,1.47,5.616l0.22,0.744
				c0.563,1.91,1.199,4.146,1.566,6.451c2.382,14.859,6.218,29.535,9.947,43.295c3.023,11.122,4.896,22.63,6.467,33.409
				c0.904,6.212,2.069,12.518,3.19,18.617c0.561,3.036,1.122,6.073,1.652,9.118c0.443,2.535,0.886,5.062,1.331,7.592l0.271,1.557
				c2.127,12.13,4.327,24.674,6.43,37.029c1.95,11.45,5.231,23.529,7.868,33.236l0.33,1.215c0.199,0.724,0.397,1.45,0.59,2.175
				c0.333,1.234-0.397,2.504-1.625,2.836C367.44,685.649,367.236,685.676,367.038,685.676"/>
		</defs>
		<clipPath id="SVGID_60_">
			<use xlink:href="#SVGID_59_"  overflow="visible"/>
		</clipPath>
		<g clip-path="url(#SVGID_60_)">
			<defs>
				<rect id="SVGID_61_" x="8.778" y="-3136.847" width="2812.92" height="10342.429"/>
			</defs>
			<clipPath id="SVGID_62_">
				<use xlink:href="#SVGID_61_"  overflow="visible"/>
			</clipPath>
			<rect x="307.039" y="456.271" clip-path="url(#SVGID_62_)" fill="#231F20" width="76.042" height="243.141"/>
		</g>
	</g>
	<g>
		<defs>
			<path id="SVGID_63_" d="M342.101,483.389c-0.929,0-1.803-0.566-2.152-1.489c-1.024-2.693-1.803-6.277-1.985-9.134
				c-0.062-0.904-0.062-1.773,0.002-2.575c0.099-1.274,1.215-2.219,2.481-2.122c1.266,0.103,2.216,1.215,2.114,2.486
				c-0.045,0.569-0.045,1.227,0,1.902c0.18,2.776,0.979,5.916,1.693,7.796c0.454,1.193-0.145,2.529-1.333,2.986
				C342.65,483.341,342.374,483.389,342.101,483.389"/>
		</defs>
		<clipPath id="SVGID_64_">
			<use xlink:href="#SVGID_63_"  overflow="visible"/>
		</clipPath>
		<g clip-path="url(#SVGID_64_)">
			<defs>
				<rect id="SVGID_65_" x="8.778" y="-3136.847" width="2812.92" height="10342.429"/>
			</defs>
			<clipPath id="SVGID_66_">
				<use xlink:href="#SVGID_65_"  overflow="visible"/>
			</clipPath>
			<rect x="324.183" y="454.325" clip-path="url(#SVGID_66_)" fill="#231F20" width="33.959" height="42.798"/>
		</g>
	</g>
	<g>
		<defs>
			<path id="SVGID_67_" d="M579.973,523.365c-1.45,0-2.763-0.094-4.028-0.188c-1.865-0.133-3.788-0.276-6.343-0.131
				c-3.028,0.172-6.722,0.054-10.296-0.062c-3.271-0.106-6.658-0.217-9.314-0.088c-6.534,0.313-8.997,0.077-10.977-0.109
				c-1.566-0.15-2.699-0.258-5.553-0.046c-3.611,0.273-7.807,0.131-11.868-0.003c-3.391-0.112-6.594-0.218-9.415-0.102
				c-6.466,0.265-13.956,0.024-21.881-0.233c-9.421-0.304-19.164-0.62-26.884,0c-6.589,0.533-14.007,0.149-22.046-1.141
				c-4.035-0.645-8.145-1.51-12.228-2.575c-10.436-2.714-18.715-5.741-26.049-9.522c-1.019-0.529-2.012-1.066-2.978-1.607
				c-4.791-2.701-9.735-4.395-14.969-6.189c-1.615-0.556-3.235-1.11-4.853-1.698c-2.768-0.995-5.411-2.359-7.964-3.68
				c-2.248-1.162-4.577-2.361-6.905-3.257c-1.787-0.688-3.659-1.297-5.473-1.883c-1.706-0.553-3.465-1.125-5.199-1.773
				c-0.478-0.18-0.966-0.345-1.454-0.505c-0.925-0.311-1.886-0.633-2.828-1.069c-0.52-0.24-1.446-0.535-2.339-0.817
				c-1.067-0.337-2.071-0.656-2.849-1.013c-0.295-0.135-0.66-0.261-1.043-0.393c-1.081-0.369-2.422-0.831-3.41-1.937
				c-0.349-0.373-0.654-0.86-0.872-1.413c-0.467-1.188,0.115-2.533,1.301-2.999c1.181-0.467,2.521,0.112,2.989,1.301
				c0.198,0.233,0.971,0.496,1.481,0.673c0.477,0.164,0.974,0.333,1.47,0.563c0.518,0.236,1.433,0.526,2.323,0.809
				c1.073,0.34,2.093,0.661,2.879,1.023c0.716,0.333,1.516,0.601,2.358,0.883c0.542,0.182,1.084,0.362,1.612,0.563
				c1.628,0.611,3.342,1.164,4.998,1.7c1.87,0.609,3.804,1.234,5.703,1.967c2.567,0.984,5.006,2.246,7.367,3.467
				c2.535,1.306,4.928,2.542,7.42,3.438c1.596,0.579,3.189,1.126,4.78,1.671c5.199,1.784,10.575,3.627,15.731,6.532
				c0.92,0.519,1.866,1.024,2.836,1.526c7.02,3.624,14.997,6.538,25.095,9.164c3.938,1.025,7.908,1.862,11.794,2.484
				c7.68,1.229,14.729,1.602,20.95,1.098c7.979-0.642,17.853-0.325,27.402-0.015c7.843,0.253,15.246,0.491,21.545,0.236
				c2.988-0.124,6.43-0.011,9.76,0.1c3.936,0.132,8.004,0.265,11.366,0.013c3.248-0.243,4.68-0.104,6.339,0.055
				c1.829,0.174,4.106,0.392,10.314,0.093c2.843-0.137,6.323-0.023,9.687,0.087c3.472,0.112,7.061,0.228,9.883,0.066
				c2.85-0.166,5.022-0.006,6.938,0.137c1.242,0.089,2.415,0.175,3.696,0.175c1.146,0,2.29-0.07,3.509-0.218
				c3.997-0.49,6.856-1.06,10.436-1.875c1.293-0.295,2.683-0.625,4.251-1l1.42-0.338c0.566-0.135,2.704-1.108,3.852-1.635
				l0.618-0.278c0.466-0.212,0.871-0.395,1.161-0.516c2.631-1.11,4.708-2.253,6.902-3.463c1.601-0.88,3.257-1.792,5.204-2.73
				c0.711-0.344,1.438-0.668,2.151-0.961c3.356-1.374,5.846-1.775,8.043-2.133c3.074-0.499,5.499-0.89,9.759-3.884
				c0.525-0.368,1.577-1.379,2.978-3.129c1.363-1.7,4.786-6.301,7.177-12.262c0.072-0.177,0.14-0.343,0.204-0.515
				c0.456-1.19,1.789-1.789,2.978-1.331c1.188,0.456,1.78,1.795,1.327,2.986c-0.078,0.201-0.155,0.396-0.236,0.598
				c-2.617,6.522-6.364,11.56-7.854,13.421c-1.056,1.317-2.593,3.085-3.933,4.021c-5.118,3.598-8.299,4.115-11.664,4.66
				c-2.049,0.332-4.168,0.676-7.036,1.848c-0.627,0.256-1.264,0.542-1.894,0.846c-1.838,0.889-3.437,1.768-4.987,2.621
				c-2.202,1.212-4.479,2.468-7.337,3.669c-0.266,0.113-0.625,0.277-1.044,0.467l-0.546,0.249c-2.228,1.015-3.831,1.73-4.762,1.951
				l-1.414,0.338c-1.583,0.376-2.989,0.712-4.293,1.009c-3.728,0.848-6.709,1.44-10.907,1.956
				C582.634,523.284,581.304,523.365,579.973,523.365"/>
		</defs>
		<clipPath id="SVGID_68_">
			<use xlink:href="#SVGID_67_"  overflow="visible"/>
		</clipPath>
		<g clip-path="url(#SVGID_68_)">
			<defs>
				<rect id="SVGID_69_" x="8.778" y="-3136.847" width="2812.92" height="10342.429"/>
			</defs>
			<clipPath id="SVGID_70_">
				<use xlink:href="#SVGID_69_"  overflow="visible"/>
			</clipPath>
			<rect x="326.061" y="465.034" clip-path="url(#SVGID_70_)" fill="#231F20" width="339.766" height="72.065"/>
		</g>
	</g>
	<g>
		<defs>
			<path id="SVGID_71_" d="M382.881,686.054c-0.998,0-1.918-0.657-2.21-1.67c-3.943-13.654-8.761-33.445-10.452-48.025
				c-0.408-3.543-0.823-7.082-1.263-10.614c-1.191-9.593-2.771-20.916-5.454-32.138l-0.762-3.185
				c-1.888-7.889-3.847-16.044-5.349-24.229c-0.513-2.778-0.95-5.614-1.371-8.359c-1.006-6.539-2.047-13.3-4.177-19.576
				c-0.36-1.068-0.697-2.145-1.001-3.201c-1.634-5.565-2.696-11.292-3.726-16.823l-0.435-2.322c-0.821-4.367-1.786-8.8-2.72-13.086
				c-0.48-2.197-0.96-4.396-1.422-6.597c-0.356-1.688-1.239-6.46-2.36-12.771l-0.349-1.978c-0.005-0.016-0.005-0.035-0.008-0.054
				c-0.587-3.308-1.129-6.445-1.492-8.59c-0.147-0.896-0.268-1.615-0.346-2.104c-0.196-1.264,0.665-2.445,1.921-2.642
				c1.26-0.196,2.436,0.665,2.634,1.926c0.075,0.476,0.191,1.181,0.338,2.05c0.359,2.141,0.906,5.29,1.492,8.606
				c0.005,0.021,0.005,0.043,0.01,0.061l0.338,1.91c1.113,6.267,1.985,10.985,2.329,12.627c0.461,2.192,0.939,4.382,1.417,6.567
				c0.942,4.319,1.916,8.782,2.747,13.215l0.438,2.331c1.005,5.422,2.049,11.025,3.619,16.38c0.29,1.001,0.606,2.007,0.942,3.005
				c2.261,6.661,3.329,13.624,4.367,20.36c0.416,2.709,0.848,5.511,1.346,8.226c1.483,8.063,3.423,16.156,5.298,23.988l0.765,3.186
				c2.733,11.444,4.338,22.924,5.545,32.645c0.44,3.548,0.858,7.097,1.269,10.651c1.658,14.301,6.406,33.794,10.298,47.274
				c0.354,1.228-0.349,2.509-1.572,2.862C383.311,686.025,383.096,686.054,382.881,686.054"/>
		</defs>
		<clipPath id="SVGID_72_">
			<use xlink:href="#SVGID_71_"  overflow="visible"/>
		</clipPath>
		<g clip-path="url(#SVGID_72_)">
			<defs>
				<rect id="SVGID_73_" x="8.778" y="-3136.847" width="2812.92" height="10342.429"/>
			</defs>
			<clipPath id="SVGID_74_">
				<use xlink:href="#SVGID_73_"  overflow="visible"/>
			</clipPath>
			<rect x="324.223" y="454.325" clip-path="url(#SVGID_74_)" fill="#231F20" width="74.7" height="245.465"/>
		</g>
	</g>
	<g>
		<defs>
			<path id="SVGID_75_" d="M318.901,458.778c-1.073,0-2.033-0.754-2.253-1.849c-0.211-1.024-0.306-2.014-0.394-2.973
				c-0.078-0.86-0.156-1.676-0.311-2.465c-2.605-13.37-5.502-27.651-9.038-41.54c-1.024-4.037-1.708-8.182-2.371-12.189
				c-0.273-1.666-0.547-3.33-0.848-4.99c-1.508-8.37-2.997-16.742-4.47-25.112c-0.472-2.661-0.912-5.336-1.352-8.005
				c-0.204-1.261,0.644-2.452,1.899-2.658c1.255-0.207,2.443,0.646,2.65,1.907c0.435,2.65,0.874,5.304,1.341,7.949
				c1.473,8.37,2.962,16.734,4.467,25.099c0.303,1.679,0.582,3.366,0.861,5.057c0.644,3.908,1.309,7.954,2.289,11.801
				c3.565,13.995,6.476,28.357,9.091,41.793c0.201,1.013,0.295,1.984,0.381,2.923c0.081,0.872,0.158,1.696,0.317,2.475
				c0.257,1.251-0.548,2.476-1.792,2.729C319.209,458.763,319.057,458.778,318.901,458.778"/>
		</defs>
		<clipPath id="SVGID_76_">
			<use xlink:href="#SVGID_75_"  overflow="visible"/>
		</clipPath>
		<g clip-path="url(#SVGID_76_)">
			<defs>
				<rect id="SVGID_77_" x="8.778" y="-3136.847" width="2812.92" height="10342.429"/>
			</defs>
			<clipPath id="SVGID_78_">
				<use xlink:href="#SVGID_77_"  overflow="visible"/>
			</clipPath>
			<rect x="284.1" y="343.233" clip-path="url(#SVGID_78_)" fill="#231F20" width="50.844" height="129.281"/>
		</g>
	</g>
	<g>
		<defs>
			<path id="SVGID_79_" d="M300.136,361.587c-1.108,0-2.084-0.805-2.272-1.937l-0.282-1.725c-1.566-9.609-3.189-19.543-5.909-29.023
				c-0.349-1.226,0.354-2.508,1.577-2.862c1.229-0.351,2.503,0.357,2.854,1.583c2.795,9.743,4.437,19.816,6.028,29.554l0.282,1.723
				c0.204,1.261-0.644,2.449-1.899,2.659C300.386,361.577,300.26,361.587,300.136,361.587"/>
		</defs>
		<clipPath id="SVGID_80_">
			<use xlink:href="#SVGID_79_"  overflow="visible"/>
		</clipPath>
		<g clip-path="url(#SVGID_80_)">
			<defs>
				<rect id="SVGID_81_" x="8.778" y="-3136.847" width="2812.92" height="10342.429"/>
			</defs>
			<clipPath id="SVGID_82_">
				<use xlink:href="#SVGID_81_"  overflow="visible"/>
			</clipPath>
			<rect x="277.849" y="312.214" clip-path="url(#SVGID_82_)" fill="#231F20" width="38.332" height="63.108"/>
		</g>
	</g>
	<g>
		<defs>
			<path id="SVGID_83_" d="M335.431,456.986c-1.103,0-2.076-0.8-2.269-1.93c-0.66-3.913-1.459-7.891-2.235-11.741
				c-0.502-2.486-1-4.973-1.467-7.466c-0.682-3.603-1.379-7.199-2.076-10.799c-2.251-11.595-4.577-23.584-6.237-35.513
				c-0.7-5.019-1.848-10.062-2.959-14.942c-0.512-2.24-1.041-4.561-1.523-6.859c-0.419-2.001-0.815-4.008-1.21-6.014
				c-1.237-6.256-2.514-12.727-4.509-18.859c-0.269-0.834-0.556-1.664-0.843-2.49c-0.249-0.724-0.499-1.451-0.74-2.178
				c-0.799-2.449-1.625-5.376-1.696-8.539c-0.026-1.28,0.985-2.333,2.256-2.363c1.28-0.059,2.326,0.987,2.353,2.264
				c0.054,2.557,0.772,5.07,1.465,7.192c0.231,0.7,0.472,1.403,0.719,2.108c0.295,0.858,0.59,1.714,0.87,2.573
				c2.082,6.396,3.385,13.002,4.646,19.393c0.392,1.988,0.784,3.978,1.202,5.961c0.472,2.261,0.998,4.56,1.502,6.782
				c1.135,4.973,2.307,10.116,3.034,15.333c1.642,11.806,3.957,23.733,6.194,35.265c0.697,3.608,1.401,7.214,2.082,10.824
				c0.464,2.477,0.96,4.944,1.459,7.413c0.778,3.884,1.588,7.897,2.259,11.886c0.215,1.259-0.633,2.452-1.886,2.667
				C335.689,456.976,335.56,456.986,335.431,456.986"/>
		</defs>
		<clipPath id="SVGID_84_">
			<use xlink:href="#SVGID_83_"  overflow="visible"/>
		</clipPath>
		<g clip-path="url(#SVGID_84_)">
			<defs>
				<rect id="SVGID_85_" x="8.778" y="-3136.847" width="2812.92" height="10342.429"/>
			</defs>
			<clipPath id="SVGID_86_">
				<use xlink:href="#SVGID_85_"  overflow="visible"/>
			</clipPath>
			<rect x="293.932" y="313.555" clip-path="url(#SVGID_86_)" fill="#231F20" width="57.542" height="157.166"/>
		</g>
	</g>
	<g>
		<defs>
			<path id="SVGID_87_" d="M435.949,352.99c-0.617,0-1.229-0.247-1.685-0.738c-2.592-2.785-3.287-3.01-4.969-3.557l-0.37-0.118
				c-1.205-0.386-2.452-0.767-3.702-1.124c-5.932-1.703-11.948-2.953-16.53-3.855c-4.729-0.934-9.48-2.17-14.078-3.367
				c-1.771-0.461-3.539-0.92-5.307-1.365c-0.587-0.147-2.511-0.682-4.475-1.226l-1.228-0.341c-1.427-0.399-2.726-0.756-3.354-0.925
				l-0.26-0.067c-1.237-0.298-1.999-1.545-1.703-2.787c0.3-1.242,1.545-2.004,2.779-1.709c0.129,0.032,0.258,0.064,0.386,0.099
				c0.623,0.164,1.937,0.528,3.38,0.931l1.229,0.34c1.921,0.534,3.796,1.054,4.368,1.199c1.776,0.445,3.557,0.91,5.341,1.374
				c4.53,1.18,9.218,2.398,13.807,3.305c4.671,0.92,10.817,2.197,16.911,3.949c1.294,0.367,2.592,0.762,3.855,1.169l0.362,0.118
				c2.312,0.749,3.673,1.301,6.927,4.804c0.868,0.934,0.818,2.396-0.112,3.268C437.075,352.783,436.512,352.99,435.949,352.99"/>
		</defs>
		<clipPath id="SVGID_88_">
			<use xlink:href="#SVGID_87_"  overflow="visible"/>
		</clipPath>
		<g clip-path="url(#SVGID_88_)">
			<defs>
				<rect id="SVGID_89_" x="8.778" y="-3136.847" width="2812.92" height="10342.429"/>
			</defs>
			<clipPath id="SVGID_90_">
				<use xlink:href="#SVGID_89_"  overflow="visible"/>
			</clipPath>
			<rect x="364.489" y="318.011" clip-path="url(#SVGID_90_)" fill="#231F20" width="87.502" height="48.713"/>
		</g>
	</g>
	<g>
		<defs>
			<path id="SVGID_91_" d="M397.531,484.772c-0.518,0-1.038-0.174-1.47-0.531c-2.846-2.371-6.467-3.964-10.191-4.482
				c-0.241-0.037-0.451-0.059-0.66-0.083c-3.662-0.384-8.456-2.68-11.83-4.542c-2.511-1.379-4.402-2.604-5.304-3.211
				c-1.057-0.71-1.339-2.149-0.63-3.208c0.708-1.06,2.141-1.344,3.197-0.633c1.427,0.96,3.23,2.052,4.952,2.999
				c4.25,2.342,7.831,3.758,10.087,3.996c0.279,0.028,0.563,0.062,0.85,0.105c4.534,0.63,8.974,2.586,12.472,5.5
				c0.981,0.815,1.116,2.271,0.3,3.257C398.849,484.488,398.193,484.772,397.531,484.772"/>
		</defs>
		<clipPath id="SVGID_92_">
			<use xlink:href="#SVGID_91_"  overflow="visible"/>
		</clipPath>
		<g clip-path="url(#SVGID_92_)">
			<defs>
				<rect id="SVGID_93_" x="8.778" y="-3136.847" width="2812.92" height="10342.429"/>
			</defs>
			<clipPath id="SVGID_94_">
				<use xlink:href="#SVGID_93_"  overflow="visible"/>
			</clipPath>
			<rect x="353.319" y="453.955" clip-path="url(#SVGID_94_)" fill="#231F20" width="60.251" height="44.554"/>
		</g>
	</g>
	<g>
		<defs>
			<path id="SVGID_95_" d="M397.531,484.772c-0.301,0-0.604-0.059-0.899-0.183c-1.172-0.499-1.72-1.856-1.221-3.033
				c0.529-1.245,0.073-3.431-0.368-5.54c-0.201-0.963-0.408-1.958-0.541-2.937c-0.172-1.267,0.71-2.431,1.974-2.606
				c1.255-0.169,2.42,0.718,2.592,1.98c0.112,0.818,0.295,1.693,0.488,2.616c0.584,2.809,1.191,5.712,0.097,8.294
				C399.283,484.245,398.43,484.772,397.531,484.772"/>
		</defs>
		<clipPath id="SVGID_96_">
			<use xlink:href="#SVGID_95_"  overflow="visible"/>
		</clipPath>
		<g clip-path="url(#SVGID_96_)">
			<defs>
				<rect id="SVGID_97_" x="8.778" y="-3136.847" width="2812.92" height="10342.429"/>
			</defs>
			<clipPath id="SVGID_98_">
				<use xlink:href="#SVGID_97_"  overflow="visible"/>
			</clipPath>
			<rect x="380.746" y="456.721" clip-path="url(#SVGID_98_)" fill="#231F20" width="33.249" height="41.788"/>
		</g>
	</g>
	<g>
		<defs>
			<path id="SVGID_99_" d="M396.774,475.029c-1.14,0-2.129-0.848-2.282-2.01c-0.22-1.668-0.175-2.988,0.139-4.157
				c0.333-1.233,1.596-1.964,2.828-1.631c1.229,0.332,1.953,1.602,1.626,2.833c-0.151,0.555-0.156,1.322-0.022,2.35
				c0.167,1.267-0.724,2.427-1.985,2.597C396.976,475.021,396.874,475.029,396.774,475.029"/>
		</defs>
		<clipPath id="SVGID_100_">
			<use xlink:href="#SVGID_99_"  overflow="visible"/>
		</clipPath>
		<g clip-path="url(#SVGID_100_)">
			<defs>
				<rect id="SVGID_101_" x="8.778" y="-3136.847" width="2812.92" height="10342.429"/>
			</defs>
			<clipPath id="SVGID_102_">
				<use xlink:href="#SVGID_101_"  overflow="visible"/>
			</clipPath>
			<rect x="380.623" y="453.415" clip-path="url(#SVGID_102_)" fill="#231F20" width="32.275" height="35.35"/>
		</g>
	</g>
	<g>
		<defs>
			<path id="SVGID_103_" d="M285.336,271.079c-0.217,0-0.435-0.003-0.655-0.003l-0.633-0.005h-0.102l-0.451,0.002
				c-2.447,0.019-4.987,0.019-7.286-2.717c-2.215-2.637-1.948-6.714-0.537-9.376c0.612-1.153,1.24-2.35,2.635-3.401
				c0.875-0.662,1.926-1.433,3.082-2.132c1.483-0.894,2.709-0.944,3.815-0.861c0.164,0.011,0.359,0.03,0.568,0.048l0.1,0.011
				c3.417,0.375,5.977,1.542,8.096,3.681c2.721,2.75,3.305,7.066,1.39,10.266c-2.457,4.104-6.293,4.466-9.695,4.485
				C285.556,271.079,285.443,271.079,285.336,271.079z M284.049,266.449l0.665,0.002c0.306,0.003,0.612,0.003,0.917,0
				c3.077-0.016,4.638-0.343,5.773-2.24c0.821-1.368,0.51-3.399-0.708-4.627c-1.35-1.366-2.983-2.087-5.29-2.339l-0.064-0.005
				c-0.161-0.016-0.317-0.03-0.456-0.04c-0.596-0.046-0.746-0.016-1.119,0.209c-0.974,0.587-1.907,1.271-2.685,1.862
				c-0.553,0.416-0.821,0.904-1.336,1.878c-0.652,1.231-0.815,3.267-0.01,4.228c0.872,1.038,1.545,1.092,3.742,1.073h0.469H284.049z
				"/>
		</defs>
		<clipPath id="SVGID_104_">
			<use xlink:href="#SVGID_103_"  overflow="visible"/>
		</clipPath>
		<g clip-path="url(#SVGID_104_)">
			<defs>
				<rect id="SVGID_105_" x="8.778" y="-3136.847" width="2812.92" height="10342.429"/>
			</defs>
			<clipPath id="SVGID_106_">
				<use xlink:href="#SVGID_105_"  overflow="visible"/>
			</clipPath>
			<rect x="260.847" y="238.823" clip-path="url(#SVGID_106_)" fill="#231F20" width="49.368" height="45.991"/>
		</g>
	</g>
	<g>
		<defs>
			<path id="SVGID_107_" d="M286.27,271.079h-0.016l-0.614-0.003c-0.247-0.005-0.464-0.011-0.667-0.003h-1.025
				c-2.39,0-4.711-0.209-6.814-2.72c-2.213-2.637-1.945-6.712-0.536-9.374c0.609-1.153,1.239-2.347,2.634-3.401
				c0.875-0.662,1.929-1.435,3.08-2.132c0.837-0.505,1.634-0.775,2.511-0.856c0.547-0.062,1.317-0.016,1.999,0.056
				c3.394,0.373,5.953,1.542,8.072,3.678c2.72,2.75,3.305,7.068,1.39,10.269C293.599,271.071,289.194,271.079,286.27,271.079
				 M285.476,257.18c-0.067,0-0.129,0.003-0.193,0.011c-0.158,0.013-0.3,0.04-0.593,0.217c-0.974,0.587-1.902,1.271-2.688,1.864
				c-0.547,0.413-0.818,0.902-1.333,1.873c-0.652,1.234-0.816,3.27-0.011,4.23c0.794,0.947,1.379,1.073,3.289,1.073h1.025
				c0.241,0,0.483,0,0.724,0.005h0.558c3.337,0,4.918-0.312,6.077-2.243c0.818-1.365,0.507-3.399-0.711-4.625
				c-1.35-1.365-2.983-2.087-5.29-2.342C286.018,257.209,285.736,257.18,285.476,257.18"/>
		</defs>
		<clipPath id="SVGID_108_">
			<use xlink:href="#SVGID_107_"  overflow="visible"/>
		</clipPath>
		<g clip-path="url(#SVGID_108_)">
			<defs>
				<rect id="SVGID_109_" x="8.778" y="-3136.847" width="2812.92" height="10342.429"/>
			</defs>
			<clipPath id="SVGID_110_">
				<use xlink:href="#SVGID_109_"  overflow="visible"/>
			</clipPath>
			<rect x="261.77" y="238.826" clip-path="url(#SVGID_110_)" fill="#231F20" width="49.368" height="45.988"/>
		</g>
	</g>
</g>
<g id="CNC" display="none">
	<g display="inline">
		<defs>
			<path id="SVGID_111_" d="M613.579,463.324c-0.039-0.718-0.136-1.497,0.08-2.151c3.204-9.548,8.018-17.91,17.296-22.904
				c2.364-1.273,4.723-2.551,7.942-4.291c0.823,9.058-1.847,16.451-3.506,23.979c-0.377,1.69-0.624,3.525-1.497,4.952
				c-1.109,1.812-2.719,3.342-4.259,4.849c-0.7,0.677-1.723,1.065-2.649,1.469c-1.67,0.716-4.028,2.387-4.938,1.815
				C618.829,469.028,613.863,468.567,613.579,463.324"/>
		</defs>
		<clipPath id="SVGID_112_">
			<use xlink:href="#SVGID_111_"  overflow="visible"/>
		</clipPath>
		<g clip-path="url(#SVGID_112_)">
			<defs>
				<rect id="SVGID_113_" x="-983.513" y="-3147.184" width="2823.161" height="10380.078"/>
			</defs>
			<clipPath id="SVGID_114_">
				<use xlink:href="#SVGID_113_"  overflow="visible"/>
			</clipPath>
			<rect x="599.74" y="420.193" clip-path="url(#SVGID_114_)" fill="#030404" width="53.099" height="64.752"/>
		</g>
	</g>
	<g display="inline">
		<defs>
			<path id="SVGID_115_" d="M338.611,453.426c10.705-0.86,20.554,2.327,30.338,6.013c5.498,2.07,11.071,3.938,16.687,5.632
				c0.663,0.199,2.478-1.19,2.666-2.076c0.512-2.375,0.673-4.896,0.517-7.324c-0.204-3.178,1.146-3.893,4.098-3.903
				c11.927-0.041,23.859-0.527,35.787-0.444c13.735,0.089,27.504,0.139,41.198,1.104c8.583,0.606,17,3.416,25.583,4.249
				c13.117,1.267,26.369,1.237,39.465,2.632c7.237,0.772,14.415,2.928,21.383,5.199c7.408,2.419,14.371,6.288,21.847,8.426
				c5.465,1.567,11.426,1.669,17.192,1.858c6.3,0.197,12.622-0.362,18.934-0.324c1.432,0.006,2.858,1.105,4.291,1.702
				c-1.04,1.358-1.793,3.322-3.166,3.969c-8.605,4.053-17.209,8.205-26.11,11.539c-5.17,1.939-10.899,2.396-16.364,3.576
				c-1.981,0.42-3.915,1.076-5.896,1.497c-7.738,1.621-15.481,3.235-23.241,4.755c-4.813,0.936-9.644,1.835-14.502,2.492
				c-8.442,1.137-16.896,2.768-25.371,2.951c-15.224,0.329-30.58,1.389-45.604-2.192c-17.845-4.253-35.711-8.518-53.346-13.554
				c-6.564-1.869-12.449-6.03-18.75-8.922c-3.016-1.384-6.316-2.121-9.413-3.343c-11.437-4.515-22.788-9.246-34.285-13.605
				c-2.719-1.034-6.752-1.6-8.938-3.68c-0.856-0.809-0.85-1.8-1.109-3.083c-0.231-1.166-0.63-2.574-0.727-3.885
				C331.595,452.133,336.845,453.564,338.611,453.426"/>
		</defs>
		<clipPath id="SVGID_116_">
			<use xlink:href="#SVGID_115_"  overflow="visible"/>
		</clipPath>
		<g clip-path="url(#SVGID_116_)">
			<defs>
				<rect id="SVGID_117_" x="-983.513" y="-3147.184" width="2823.161" height="10380.078"/>
			</defs>
			<clipPath id="SVGID_118_">
				<use xlink:href="#SVGID_117_"  overflow="visible"/>
			</clipPath>
			<rect x="317.982" y="437.529" clip-path="url(#SVGID_118_)" fill="#030404" width="314.398" height="83.607"/>
		</g>
	</g>
	<g display="inline">
		<defs>
			<path id="SVGID_119_" d="M405.339,420.965c-4.701,10.892-8.61,13.062-21.754,11.48c-1.018-6.07-2.079-12.41-3.145-18.75
				c-0.118-0.711-0.135-1.48-0.42-2.125c-4.534-10.196-4.426-21.154-4.447-31.869c-0.022-8.877,1.701-17.77,2.784-26.639
				c1.018-8.338,0.312-16.458-2.536-24.382c-0.706-1.963-1.266-3.977-2.354-7.404c12.041,2.685,22.789,5.086,33.816,7.544
				c-0.625,4.098-1.421,8.021-1.771,11.981c-0.539,6.136-1.153,12.307-1.018,18.448c0.113,4.865,1.852,9.709,1.825,14.552
				c-0.016,3.851-0.937,8.024-2.649,11.468c-2.828,5.694-3.005,8.588,1.146,13.421c0.566,0.663,1.195,1.269,1.804,1.895
				c3.861,3.953,5.143,8.158,1.875,13.234C407.101,415.98,406.373,418.574,405.339,420.965"/>
		</defs>
		<clipPath id="SVGID_120_">
			<use xlink:href="#SVGID_119_"  overflow="visible"/>
		</clipPath>
		<g clip-path="url(#SVGID_120_)">
			<defs>
				<rect id="SVGID_121_" x="-983.513" y="-3147.184" width="2823.161" height="10380.078"/>
			</defs>
			<clipPath id="SVGID_122_">
				<use xlink:href="#SVGID_121_"  overflow="visible"/>
			</clipPath>
			<rect x="359.682" y="307.492" clip-path="url(#SVGID_122_)" fill="#030404" width="64.46" height="139.2"/>
		</g>
	</g>
	<g display="inline">
		<defs>
			<path id="SVGID_123_" d="M625.995,370.167c5.536,12.116,11.907,23.995,9.214,38.16c-0.689,3.658-0.636,7.544-0.339,11.282
				c0.592,7.422-2.678,12.204-9.058,15.682c-10.042,5.465-15.39,14.679-18.514,25.218c-0.673,2.264,0.384,5.035,0.669,7.841
				c-1.573,0.297-3.118,0.866-4.647,0.829c-15.75-0.384-31.124-1.754-45.598-9.4c-6.994-3.695-15.391-6.364-23.22-6.548
				c-21.608-0.513-42.836-3.401-64.159-6.425c-12.858-1.828-26.046-1.556-39.098-1.777c-11.062-0.191-22.143,0.259-33.219,0.438
				c-13.537,0.219-27.085,0.334-40.623,0.716c-14.243,0.405-28.475,1.073-42.717,1.615c-1.023,0.037-2.057,0.095-3.059-0.038
				c-3.602-0.473-4.766-3.09-4.889-6.188c-0.14-3.438,2.692-3.391,4.938-3.348c12.046,0.231,24.086,0.698,36.131,0.896
				c4.049,0.069,8.115-0.359,12.17-0.65c3.322-0.243,6.634-0.697,9.961-0.927c10.716-0.731,21.442-1.308,32.142-2.207
				c1.416-0.118,3.312-1.465,3.948-2.75c3.16-6.363,5.648-13.07,9.002-19.32c2.876-5.353,1.164-9.369-2.228-13.416
				c-1.492-1.771-3.243-3.465-4.184-5.508c-0.689-1.513-1.051-4.138-0.206-5.234c6.069-7.883,4.303-16.569,2.79-25.088
				c-1.787-10.053-1.012-19.877,1.244-29.697c0.657-2.861,2.23-3.954,5.062-2.45c1.281,0.679,2.542,1.526,3.915,1.858
				c1.028,0.245,2.229-0.213,3.355-0.353c-0.383-1.077-0.485-2.819-1.195-3.126c-4.652-1.968-9.337-3.99-14.2-5.317
				c-11.754-3.209-23.52-6.505-35.453-8.92c-12.498-2.525-25.142-4.949-37.828-5.834c-19.584-1.371-39.26-1.386-58.898-1.981
				c-0.291-0.008-0.641,0.099-0.867-0.03c-4.921-2.846-1.862-7.794-3.004-11.65c-0.641-2.162,0.673-3.007,2.913-3.099
				c16.854-0.7,33.698-1.709,50.558-2.176c6.952-0.19,13.946,0.562,20.898,1.16c14.119,1.209,27.414-2.315,40.623-6.566
				c14.587-4.692,29.314-8.637,44.861-7.821c18.13,0.953,34.603,6.149,49.437,17.18c11.028,8.201,23.046,15.115,34.812,22.298
				c6.684,4.084,13.688,7.647,20.666,11.225c1.099,0.562,2.79-0.029,4.206-0.086c-0.619-1.211-0.927-2.967-1.922-3.538
				c-7.292-4.203-14.733-8.155-22.1-12.232c-1.459-0.81-2.815-1.801-4.427-2.84c13.792,0.91,27.366,0.453,40.338,3.024
				c13.844,2.747,27.704,2.862,41.564,4.057c5.186,0.45,10.538,6.127,11.804,12.549c0.388,1.984,0.479,4.033,0.598,6.061
				c0.307,5.215,0.394,10.374,4.804,14.377c1.486,1.349,2.014,3.805,2.827,5.812c1.862,4.599,3.646,9.206,8.168,12.028
				C624.79,368.453,625.597,369.29,625.995,370.167"/>
		</defs>
		<clipPath id="SVGID_124_">
			<use xlink:href="#SVGID_123_"  overflow="visible"/>
		</clipPath>
		<g clip-path="url(#SVGID_124_)">
			<defs>
				<rect id="SVGID_125_" x="-983.513" y="-3147.184" width="2823.161" height="10380.078"/>
			</defs>
			<clipPath id="SVGID_126_">
				<use xlink:href="#SVGID_125_"  overflow="visible"/>
			</clipPath>
			<rect x="259.385" y="264.123" clip-path="url(#SVGID_126_)" fill="#030404" width="390.244" height="218.841"/>
		</g>
	</g>
	<g display="inline">
		<defs>
			<path id="SVGID_127_" d="M376.827,680.529c0.285,1.062,0.042,2.256,0.042,3.85c-4.571-0.263-8.653-0.29-12.648-0.859
				c-1.061-0.15-2.444-1.85-2.725-3.062c-2.079-9.006-3.996-18.054-5.826-27.121c-3.893-19.276-7.743-38.561-11.54-57.854
				c-2.768-14.058-5.293-28.166-8.153-42.206c-3.866-18.991-7.916-37.957-11.97-56.911c-1.459-6.843-2.989-13.666-4.513-20.494
				c-1.292-5.789-1.948-11.788-3.753-17.455c-0.517-1.609-1.745-3.854-1.244-5.583c0.764-2.647,4.368-1.456,6.349-1.462
				c1.497,0,5.541-0.816,6.801,0.024c0.781,0.523,0.818,2.382,0.975,3.177c0.419,2.122,1.039,4.206,1.41,6.342
				c0.275,1.627,1.088,2.804,1.449,4.425c3.403,15.416,6.769,30.839,10.14,46.262c5.25,24.021,10.845,47.981,15.621,72.105
				c2.525,12.751,3.29,25.847,5.492,38.675c1.858,10.817,4.475,21.517,7.065,32.195
				C371.916,663.282,374.523,671.867,376.827,680.529"/>
		</defs>
		<clipPath id="SVGID_128_">
			<use xlink:href="#SVGID_127_"  overflow="visible"/>
		</clipPath>
		<g clip-path="url(#SVGID_128_)">
			<defs>
				<rect id="SVGID_129_" x="-983.513" y="-3147.184" width="2823.161" height="10380.078"/>
			</defs>
			<clipPath id="SVGID_130_">
				<use xlink:href="#SVGID_129_"  overflow="visible"/>
			</clipPath>
			<rect x="300.595" y="437.23" clip-path="url(#SVGID_130_)" fill="#030404" width="90.151" height="260.934"/>
		</g>
	</g>
	<g display="inline">
		<defs>
			<path id="SVGID_131_" d="M321.009,426.002c1.637,8.352,1.713,8.464-6.919,8.396c-1.297-0.01-2.59-0.108-4.862-0.215
				c-7.9-40.458-15.815-80.959-23.908-122.427c4.151,0.334,7.081,0.25,9.811,0.951c1.136,0.291,2.305,2.13,2.666,3.473
				c2.79,10.322,5.837,20.607,7.954,31.072C311.063,373.458,315.867,399.765,321.009,426.002"/>
		</defs>
		<clipPath id="SVGID_132_">
			<use xlink:href="#SVGID_131_"  overflow="visible"/>
		</clipPath>
		<g clip-path="url(#SVGID_132_)">
			<defs>
				<rect id="SVGID_133_" x="-983.513" y="-3147.184" width="2823.161" height="10380.078"/>
			</defs>
			<clipPath id="SVGID_134_">
				<use xlink:href="#SVGID_133_"  overflow="visible"/>
			</clipPath>
			<rect x="271.534" y="297.972" clip-path="url(#SVGID_134_)" fill="#030404" width="64.116" height="150.225"/>
		</g>
	</g>
	<g display="inline">
		<defs>
			<path id="SVGID_135_" d="M290.439,286.327c0.113,0.662-0.146,1.384-0.258,2.31h-7.771c-1.249-5.796-2.401-11.717-3.888-17.549
				c-0.35-1.368-1.594-2.886-2.854-3.592c-10.77-6.031-15.444-11.106-16.16-22.581c-0.484-7.711,5.024-11.825,11.34-13.831
				c7.011-2.219,13.57-0.713,19.25,3.791c5.95,4.728,6.188,17.481,0.027,23.475c-3.635,3.545-3.672,7.008-2.687,11.356
				C288.684,275.191,289.502,280.775,290.439,286.327 M283.72,247.718c0.053-3.661-4.669-8.331-8.552-8.449
				c-3.021-0.094-6.009,3.441-6.138,7.248c-0.135,4.093,3.888,9.071,7.253,8.988C279.842,255.41,283.665,251.407,283.72,247.718"/>
		</defs>
		<clipPath id="SVGID_136_">
			<use xlink:href="#SVGID_135_"  overflow="visible"/>
		</clipPath>
		<g clip-path="url(#SVGID_136_)">
			<defs>
				<rect id="SVGID_137_" x="-983.513" y="-3147.184" width="2823.161" height="10380.078"/>
			</defs>
			<clipPath id="SVGID_138_">
				<use xlink:href="#SVGID_137_"  overflow="visible"/>
			</clipPath>
			<rect x="245.698" y="216.287" clip-path="url(#SVGID_138_)" fill="#030404" width="62.743" height="86.135"/>
		</g>
	</g>
	<g display="inline">
		<defs>
			<rect id="SVGID_139_" x="152.369" y="144.665" width="551.398" height="548.642"/>
		</defs>
		<clipPath id="SVGID_140_">
			<use xlink:href="#SVGID_139_"  overflow="visible"/>
		</clipPath>
		<g clip-path="url(#SVGID_140_)">
			<defs>
				<path id="SVGID_141_" d="M703.051,446.857c0.485-6.74,0.42-13.534,0.355-20.106c-0.027-2.502-0.054-5.086-0.042-7.618
					c0.005-4.667-0.362-9.32-0.717-13.82c-0.242-3.013-0.49-6.128-0.614-9.159c-0.199-4.954-0.748-9.889-1.341-14.934
					c-0.538-4.594-1.626-9.084-2.676-13.425c-0.188-0.789-0.383-1.578-0.57-2.366c-2.321-9.771-5.233-19.307-8.654-28.348
					c-0.538-1.433-1.087-2.864-1.631-4.3c-2.5-6.542-5.078-13.311-7.172-20.031c-1.325-4.262-3.103-8.279-4.825-12.164
					c-1.454-3.271-2.822-6.362-3.943-9.579c-2.793-8.051-7.408-14.911-11.873-21.545c-1.463-2.178-2.981-4.434-4.387-6.669
					c-2.602-4.13-5.154-8.492-7.814-13.333c-1.189-2.17-2.536-4.149-4.006-5.883c-2.601-3.078-5.277-6.346-6.876-9.525
					c-4.093-8.137-10.048-13.371-16.354-18.909c-0.867-0.756-1.74-1.524-2.617-2.308c-9.381-8.37-18.647-16.437-28.874-23.095
					c-6.067-3.958-12.276-6.968-19.18-10.217c-2.59-1.217-5.223-2.405-7.775-3.554c-2.024-0.91-4.119-1.853-6.161-2.8
					c-1.243-0.576-2.465-1.228-3.757-1.917c-1.987-1.063-4.051-2.162-6.296-3.023c-1.653-0.638-3.301-1.29-4.954-1.941
					c-5.874-2.32-11.948-4.722-18.297-6.388c-1.044-0.272-2.138-0.779-3.296-1.317c-1.082-0.503-2.208-1.026-3.462-1.449
					c-7.141-2.398-14.308-4.028-22.875-5.738c-2.735-0.546-5.503-1.023-8.185-1.486c-4.738-0.818-9.639-1.667-14.323-2.889
					c-3.161-0.826-6.354-1.032-9.445-1.228c-1.733-0.113-3.375-0.215-4.98-0.425c-1.492-0.191-2.892-0.177-4.243-0.162
					c-1.406,0.013-2.729,0.03-3.883-0.218c-0.29-0.062-0.582-0.089-0.867-0.075c-0.301-0.014-0.607,0.016-0.915,0.085
					c-0.538,0.122-1.265,0.079-2.11,0.03c-0.544-0.032-1.163-0.075-1.804-0.062c-4.044,0.042-8.089,0.353-11.998,0.651
					c-1.798,0.138-3.662,0.28-5.476,0.394c-3.91,0.242-7.437,0.447-11.023,0.482c-4.604,0.045-8.992,0.873-13.235,1.675
					c-1.362,0.258-2.768,0.522-4.146,0.754c-2.924,0.492-5.848,1.098-8.669,1.685c-4.485,0.932-8.724,1.812-13.085,2.297
					c-1.912,0.212-3.716,0.641-5.466,1.055c-1.674,0.396-3.252,0.77-4.782,0.924c-6.542,0.654-13.483,2.081-21.221,4.358
					c-2.542,0.751-4.992,1.686-7.361,2.59c-1.378,0.527-2.811,1.074-4.206,1.562c-6.812,2.377-14.716,5.202-22.293,8.635
					c-9.789,4.434-19.353,9.59-28.308,14.491c-5.363,2.932-10.317,6.44-15.115,9.832c-3.397,2.409-6.919,4.897-10.479,7.1
					c-5.622,3.478-9.596,6.612-12.892,10.158c-1.271,1.373-2.902,2.493-4.636,3.681l-0.63,0.439c-2.897,2-4.863,4.537-6.758,6.99
					c-0.856,1.104-1.664,2.145-2.525,3.099c-6.559,7.253-11.771,15.444-16.811,23.367l-1.405,2.205
					c-1.869,2.927-3.721,5.923-5.515,8.822c-0.904,1.463-1.803,2.924-2.714,4.381c-1.238,1.99-2.563,3.995-3.844,5.937
					c-2.165,3.277-4.405,6.664-6.392,10.212c-6.3,11.238-11.508,23.106-15.767,33.232c-0.856,2.035-1.718,4.066-2.585,6.093
					c-3.199,7.511-6.51,15.276-9.283,23.181c-0.889,2.531-1.491,5.06-2.079,7.504c-0.398,1.666-0.775,3.239-1.232,4.794
					c-0.695,2.364-1.233,4.739-1.75,7.033c-0.372,1.629-0.722,3.167-1.12,4.712c-0.398,1.519-0.512,2.972-0.608,4.254
					c-0.054,0.636-0.097,1.238-0.173,1.798c-0.296,2.184-0.49,4.378-0.672,6.502c-0.275,3.169-0.539,6.161-1.12,9.089
					c-0.883,4.464-0.889,8.864-0.889,13.12c0,3.524,0,6.855-0.479,10.129c-0.5,3.408-0.43,6.742-0.366,9.965
					c0.042,2.218,0.086,4.315-0.049,6.38c-0.312,4.797,0.286,9.36,0.862,13.779c0.15,1.131,0.296,2.26,0.431,3.39
					c0.248,2.121,0.549,4.259,0.845,6.327c0.361,2.511,0.732,5.108,0.991,7.626c0.416,4.047,1.266,7.96,2.089,11.751
					c0.394,1.814,0.802,3.693,1.147,5.526c0.576,3.047,1.61,5.884,2.612,8.63c0.598,1.642,1.163,3.199,1.631,4.77l0.318,1.085
					c2.385,8.065,4.846,16.411,8.826,24.192c1.222,2.4,2.224,4.877,3.285,7.507c0.775,1.928,1.583,3.921,2.482,5.881
					c3.974,8.614,8.314,17.735,13.915,26.181c2.682,4.047,5.137,8.44,7.517,12.695c0.394,0.7,0.786,1.4,1.179,2.1
					c2.671,4.762,5.74,9.483,9.127,14.041c1.934,2.609,3.694,5.588,5.401,8.469c0.329,0.555,0.658,1.11,0.986,1.662
					c2.768,4.643,5.471,8.255,8.508,11.361c1.971,2.027,3.786,4.158,5.713,6.42c2.687,3.156,5.465,6.425,8.702,9.343
					c3.758,3.397,7.856,6.258,11.819,9.021l1.045,0.726c2.784,1.945,5.691,3.626,8.502,5.245c2.584,1.491,5.029,2.9,7.388,4.509
					c5.837,3.962,12.013,7.527,17.985,10.974c1.966,1.131,3.99,2.299,5.966,3.462c1.89,1.107,3.807,2.271,5.659,3.391
					c6.188,3.749,12.584,7.624,19.503,10.582c2.892,1.234,5.842,2.359,8.697,3.446c2.165,0.825,4.405,1.675,6.569,2.557
					c1.352,0.556,2.676,1.149,4.076,1.777c3.128,1.4,6.359,2.85,9.886,3.787c7.253,1.922,13.806,3.612,20.603,4.812
					c3.704,0.658,7.404,0.975,10.979,1.283c1.777,0.15,3.613,0.311,5.396,0.504c9.154,1.009,18.238,1.564,27.021,2.1
					c4.582,0.287,9.223,0.416,13.709,0.546c6.747,0.188,13.721,0.388,20.483,1.105c0.394,0.04,0.775,0.058,1.147,0.058
					c1.528,0,2.901-0.307,4.146-0.582c0.527-0.118,1.028-0.232,1.486-0.306c7.759-1.26,15.713-2.236,23.402-3.178l0.754-0.091
					c0.953-0.121,1.906-0.231,2.864-0.344c5.147-0.617,10.479-1.246,15.712-2.419c1.821-0.409,3.501-1.014,5.127-1.605
					c0.771-0.274,1.498-0.537,2.22-0.774c4.032-1.313,8.066-2.622,12.1-3.938c3.127-1.012,6.262-2.03,9.39-3.053
					c7.15-2.325,14.335-5.277,21.977-9.02c1.114-0.548,2.24-1.082,3.365-1.615c3.655-1.732,7.437-3.527,11.006-5.831
					c11.755-7.587,24.135-14.335,36.837-21.145c7.383-3.965,12.605-8.17,16.424-13.238c1.072-1.421,2.417-2.715,3.849-4.081
					c0.626-0.593,1.267-1.212,1.902-1.847c0.527-0.539,1.061-1.071,1.594-1.611c4.582-4.606,9.32-9.374,13.256-14.91
					c1.729-2.434,3.76-4.641,5.908-6.978c1.088-1.179,2.208-2.402,3.29-3.656c9.515-11.033,16.983-21.781,22.825-32.852
					c3.496-6.624,6.77-13.447,9.936-20.053l1.605-3.346c1.027-2.132,2.223-4.188,3.489-6.365c0.608-1.038,1.231-2.115,1.83-3.191
					c3.431-6.145,6.042-12.078,7.98-18.148c0.824-2.589,1.868-5.1,2.972-7.765c0.921-2.217,1.875-4.511,2.692-6.865
					c0.093-0.253,0.179-0.504,0.27-0.759c0.663-1.835,1.47-4.087,1.395-6.624c0.097-0.188,0.206-0.425,0.308-0.706
					c1.711-4.785,2.467-9.681,3.198-14.418c0.231-1.521,0.474-3.087,0.743-4.602c0.312-1.764,0.408-3.495,0.506-5.17
					c0.118-2.09,0.232-4.067,0.743-5.843c0.679-2.356,0.587-4.593,0.512-6.568C703.024,448.661,702.987,447.722,703.051,446.857
					 M695.885,449.936c0.063,1.64,0.118,3.058-0.236,4.307c-0.739,2.547-0.878,5.022-1.014,7.413
					c-0.085,1.536-0.172,2.985-0.408,4.334c-0.281,1.592-0.529,3.199-0.766,4.749c-0.711,4.586-1.379,8.914-2.843,13.038
					c-0.016,0.027-0.026,0.06-0.043,0.085c-0.274,0.522-0.84,1.607-0.717,3.108c0.107,1.228-0.415,2.671-0.964,4.201
					c-0.098,0.273-0.193,0.542-0.29,0.817c-0.749,2.153-1.621,4.253-2.547,6.479c-1.109,2.681-2.262,5.453-3.178,8.328
					c-1.792,5.611-4.216,11.115-7.409,16.838c-0.57,1.024-1.179,2.068-1.766,3.08c-1.281,2.203-2.607,4.475-3.754,6.867l-1.609,3.35
					c-3.14,6.543-6.382,13.305-9.812,19.804c-5.59,10.592-12.757,20.897-21.916,31.523c-1.013,1.162-2.095,2.341-3.14,3.481
					c-2.202,2.398-4.485,4.88-6.473,7.674c-3.59,5.058-7.921,9.408-12.497,14.011c-0.54,0.54-1.071,1.078-1.605,1.621
					c-0.564,0.566-1.146,1.127-1.76,1.715c-1.572,1.501-3.199,3.057-4.62,4.941c-3.172,4.211-7.646,7.782-14.082,11.234
					c-12.843,6.887-25.356,13.708-37.344,21.439c-3.17,2.048-6.579,3.663-10.188,5.374c-1.151,0.55-2.305,1.095-3.451,1.654
					c-7.328,3.597-14.204,6.425-21.028,8.643c-3.128,1.017-6.257,2.035-9.391,3.053c-4.032,1.313-8.066,2.622-12.104,3.938
					c-0.828,0.274-1.643,0.563-2.434,0.85c-1.481,0.534-2.881,1.04-4.25,1.347c-4.877,1.092-10.021,1.702-14.99,2.294
					c-0.964,0.114-1.928,0.231-2.892,0.35l-0.753,0.093c-7.76,0.947-15.782,1.932-23.677,3.219
					c-0.668,0.109-1.299,0.248-1.902,0.384c-1.151,0.251-2.142,0.479-2.967,0.386c-7.038-0.743-14.155-0.947-21.038-1.141
					c-4.426-0.125-9.008-0.253-13.473-0.528c-8.696-0.532-17.694-1.087-26.675-2.072c-1.868-0.203-3.748-0.367-5.563-0.521
					c-3.58-0.309-6.956-0.6-10.343-1.196c-6.521-1.151-12.918-2.806-20.01-4.685c-2.962-0.786-5.789-2.058-8.783-3.398
					c-1.395-0.625-2.838-1.271-4.303-1.868c-2.24-0.916-4.523-1.788-6.725-2.628c-2.789-1.062-5.675-2.159-8.433-3.338
					c-6.456-2.752-12.353-6.329-18.604-10.113c-1.875-1.137-3.807-2.31-5.741-3.44c-2.002-1.181-4.043-2.359-6.014-3.496
					c-5.859-3.379-11.922-6.875-17.538-10.692c-2.574-1.75-5.25-3.297-7.835-4.787c-2.8-1.615-5.449-3.146-7.98-4.911l-1.05-0.732
					c-3.953-2.758-7.69-5.358-11.114-8.454c-2.886-2.608-5.396-5.553-8.044-8.669c-1.917-2.254-3.904-4.583-6.047-6.779
					c-2.628-2.693-5.002-5.881-7.474-10.026c-0.328-0.546-0.651-1.094-0.975-1.644c-1.798-3.041-3.656-6.181-5.815-9.089
					c-3.209-4.318-6.112-8.789-8.637-13.279c-0.389-0.696-0.781-1.396-1.168-2.088c-2.446-4.368-4.971-8.886-7.803-13.163
					c-5.315-8.016-9.521-16.854-13.371-25.222c-0.835-1.803-1.573-3.628-2.354-5.562c-1.071-2.653-2.181-5.4-3.548-8.077
					c-3.672-7.193-6.042-15.217-8.33-22.972l-0.323-1.087c-0.528-1.782-1.158-3.516-1.766-5.19
					c-0.948-2.593-1.836-5.036-2.304-7.502c-0.361-1.934-0.781-3.859-1.19-5.724c-0.813-3.763-1.588-7.314-1.96-10.96
					c-0.274-2.664-0.657-5.331-1.023-7.913c-0.291-2.021-0.587-4.112-0.824-6.138c-0.134-1.166-0.291-2.329-0.441-3.493
					c-0.56-4.264-1.087-8.289-0.819-12.384c0.157-2.371,0.108-4.718,0.06-6.99c-0.06-3.065-0.119-5.962,0.296-8.785
					c0.554-3.789,0.554-7.538,0.554-11.166c0-4.089,0.006-7.951,0.754-11.728c0.657-3.312,0.947-6.642,1.228-9.862
					c0.183-2.133,0.36-4.146,0.63-6.161c0.108-0.762,0.161-1.497,0.221-2.205c0.081-1.083,0.162-2.106,0.399-3.01
					c0.43-1.653,0.808-3.317,1.173-4.927c0.517-2.292,1.007-4.456,1.637-6.604c0.506-1.729,0.926-3.462,1.324-5.14
					c0.571-2.375,1.109-4.62,1.875-6.804c2.697-7.684,5.961-15.341,9.116-22.742c0.867-2.041,1.74-4.082,2.596-6.128
					c4.184-9.94,9.284-21.577,15.411-32.505c1.863-3.323,4.028-6.599,6.123-9.768c1.309-1.979,2.661-4.028,3.947-6.096
					c0.916-1.464,1.819-2.934,2.729-4.405c1.777-2.875,3.614-5.851,5.455-8.733l1.411-2.216c5.105-8.023,9.924-15.602,16.079-22.403
					c1.05-1.158,1.976-2.359,2.875-3.522c1.637-2.113,3.182-4.108,5.164-5.476l0.619-0.425c1.976-1.359,4.017-2.762,5.832-4.717
					c2.838-3.056,6.354-5.811,11.405-8.936c3.748-2.318,7.361-4.873,10.85-7.345c4.625-3.273,9.413-6.661,14.41-9.394
					c8.836-4.835,18.265-9.918,27.823-14.25c7.307-3.309,15.028-6.068,21.694-8.395c1.492-0.52,2.973-1.084,4.405-1.631
					c2.337-0.894,4.55-1.739,6.829-2.41c7.301-2.152,13.812-3.492,19.896-4.104c2.009-0.202,3.898-0.646,5.724-1.079
					c1.61-0.383,3.128-0.741,4.609-0.905c4.696-0.525,9.3-1.481,13.747-2.404c2.757-0.573,5.611-1.166,8.4-1.634
					c1.448-0.243,2.892-0.517,4.292-0.781c4.114-0.776,8.002-1.511,11.965-1.548c3.759-0.039,7.534-0.256,11.4-0.496
					c1.869-0.116,3.753-0.261,5.579-0.401c3.79-0.289,7.716-0.589,11.528-0.632h0.087c0.365,0,0.775,0.024,1.205,0.051
					c0.986,0.057,2.17,0.129,3.447-0.064c1.718,0.288,3.365,0.269,4.841,0.253c1.151-0.011,2.245-0.024,3.235,0.104
					c1.837,0.237,3.673,0.356,5.444,0.469c2.875,0.184,5.596,0.358,8.088,1.01c4.976,1.301,10.032,2.173,14.916,3.019
					c2.638,0.455,5.357,0.923,8.002,1.451c8.298,1.656,15.212,3.223,21.986,5.5c0.877,0.296,1.776,0.713,2.729,1.155
					c1.389,0.646,2.832,1.317,4.496,1.753c5.929,1.556,11.804,3.877,17.485,6.12c1.668,0.659,3.338,1.319,5.013,1.963
					c1.83,0.706,3.607,1.653,5.486,2.654c1.324,0.708,2.693,1.438,4.12,2.1c2.078,0.964,4.193,1.914,6.234,2.835
					c2.521,1.134,5.133,2.308,7.663,3.5c6.655,3.134,12.633,6.027,18.318,9.736c9.802,6.386,18.848,14.258,28.012,22.438
					c0.894,0.794,1.778,1.573,2.654,2.342c6.021,5.288,11.218,9.852,14.686,16.747c1.948,3.877,4.927,7.528,7.808,10.934
					c1.157,1.368,2.229,2.949,3.192,4.698c2.73,4.97,5.354,9.453,8.029,13.704c1.471,2.329,3.016,4.628,4.513,6.853
					c4.398,6.542,8.557,12.721,11.05,19.894c1.211,3.5,2.708,6.874,4.157,10.137c1.711,3.866,3.332,7.52,4.533,11.386
					c2.159,6.938,4.781,13.812,7.318,20.459c0.543,1.424,1.086,2.851,1.625,4.28c3.312,8.753,6.135,17.996,8.385,27.468
					c0.193,0.799,0.389,1.599,0.576,2.396c1.05,4.326,2.04,8.411,2.531,12.579c0.592,5.089,1.103,9.682,1.298,14.388
					c0.123,3.172,0.376,6.357,0.624,9.437c0.345,4.356,0.699,8.86,0.694,13.238c-0.011,2.575,0.017,5.181,0.044,7.703
					c0.059,6.43,0.128,13.077-0.34,19.527C695.793,447.608,695.836,448.793,695.885,449.936"/>
			</defs>
			<clipPath id="SVGID_142_">
				<use xlink:href="#SVGID_141_"  overflow="visible"/>
			</clipPath>
			<g clip-path="url(#SVGID_142_)">
				<defs>
					<rect id="SVGID_143_" x="152.369" y="144.665" width="551.398" height="548.642"/>
				</defs>
				<clipPath id="SVGID_144_">
					<use xlink:href="#SVGID_143_"  overflow="visible"/>
				</clipPath>
				<rect x="138.584" y="131.125" clip-path="url(#SVGID_144_)" fill="#231F20" width="578.65" height="575.807"/>
			</g>
		</g>
	</g>
</g>
</svg>
