<svg width="263" height="262" viewBox="0 0 263 262" fill="none" xmlns="http://www.w3.org/2000/svg">
<g clip-path="url(#clip0_79_2128)">
<path d="M116.105 155.517C96.7012 152.261 89.3377 149.071 86.0143 158.082C85.7544 158.779 88.1695 163.545 88.1695 163.545C88.1695 163.545 127.149 168.729 145.969 167.982C160.754 167.392 191.301 156.272 191.301 156.272L217.501 149.167C217.501 149.167 229.296 143.257 233.589 137.368C235.96 134.112 243.787 134.604 243.964 124.331C244.04 119.87 178.061 124.224 168.983 128.028C159.904 131.833 134.905 134.054 130.831 135.161C126.757 136.269 112.29 143.102 112.876 146.619C113.462 150.137 117.665 155.78 116.105 155.517Z" fill="#AEADAD"/>
<path d="M121.085 138.687C118.735 140.635 77.9829 151.932 72.829 153.079C67.6752 154.226 74.1737 159.765 76.8214 159.544C78.419 159.414 142.365 139.855 153.314 137.416C164.402 134.976 187.34 132.35 194.098 130.263C203.111 127.481 217.572 134.635 225.027 131.601C230.783 129.266 244.789 124.343 245.392 119.827C245.876 116.155 241.318 94.1441 238.719 86.2313C236.121 78.3184 220.092 67.6176 216.186 59.449C209.888 46.2845 204.074 49.076 196.553 51.1337C191.56 52.5035 174.357 54.3852 171.958 54.8579C169.559 55.3306 159.73 56.6136 158.475 57.5666C157.22 58.5197 148.323 54.0121 141.551 52.5935C130.507 50.2724 114.528 48.6674 108.423 53.4461C103.036 57.6545 86.6764 67.6854 81.8395 68.4869C77.0025 69.2884 71.7768 71.7149 64.4248 73.2116C57.0728 74.7083 34.9385 81.2082 34.9385 81.2082C32.8333 81.8254 38.5008 89.1446 39.1657 90.6734C39.8306 92.2022 60.0193 86.7767 71.6358 83.0366C83.2523 79.2965 107.922 81.5241 111.612 82.019C109.867 92.3559 114.005 94.7994 116.287 103.813C118.569 112.826 117.341 112.926 117.814 115.783C118.314 118.839 122.765 119.774 123.277 121.663C123.788 123.552 123.434 136.738 121.085 138.687Z" fill="white"/>
<path d="M91.2744 82.5654C91.2744 82.5654 94.8475 88.9941 96.3452 91.9642C97.843 94.9342 98.7598 102.404 99.6844 108.931C100.609 115.458 101.463 117.553 102.272 118.687C103.081 119.821 105.745 127.78 106.322 129.832C106.898 131.885 110.237 133.925 111.791 138.236C113.345 142.547 116.706 139.732 119.148 138.924C121.59 138.115 122.88 134.733 123.359 127.192C123.838 119.651 120.146 119.545 118.105 117.507C116.769 116.153 116.343 116.31 116.827 110.751C117.31 105.192 114.785 103.13 113.417 99.2747C112.049 95.4191 110.609 82.229 110.609 82.229L91.2744 82.5654Z" fill="#AEADAD"/>
<path d="M243.77 98.2569C242.636 95.3208 241.925 92.2385 241.657 89.1024C241.239 85.1785 238.465 82.1677 236.008 79.5079L235.945 79.4341C235.285 78.7176 234.662 78.0391 234.118 77.3767C233.088 76.1319 232.123 75.1302 231.268 74.2425C229.762 72.7616 228.412 71.1293 227.24 69.3714C226.629 68.4391 225.967 67.5406 225.259 66.6799C225.062 66.4402 224.876 66.2029 224.682 65.957C223.294 64.0195 221.477 62.4282 219.374 61.3067C218.664 60.9225 218.271 59.5548 217.924 58.3396L217.857 58.0866C217.188 55.7879 216.236 53.1289 214.237 50.8301C211.157 47.2737 207.43 46.1241 202.864 47.2999C201.028 47.7917 199.5 48.2012 198.007 48.6437C195.74 49.2936 193.597 49.9052 190.714 50.5393L190.645 50.5579C189.589 50.8262 188.495 50.9124 187.411 50.8129C182.065 49.9323 178.216 51.0274 174.11 52.1966C171.567 52.9992 168.954 53.5588 166.305 53.8679C166.191 53.8985 165.721 53.95 164.418 54.1501C162.339 54.4679 157.483 55.2162 156.938 55.2079C152.258 54.8667 147.964 53.0925 143.417 51.2054L142.299 50.7445C137.194 48.6401 131.699 48.2354 126.992 48.114C119.669 47.9493 112.406 49.4433 104.837 52.7477C99.668 55.0101 94.9349 57.9853 90.3612 60.8805L90.2614 60.9445C88.3183 62.167 86.3112 63.428 84.3287 64.6027C82.1376 65.9019 79.79 66.9169 77.3425 67.6232C73.816 68.6319 70.146 69.4026 66.5928 70.1526C61.9752 71.0412 57.4089 72.1778 52.9136 73.5574L50.8826 74.2133C49.8801 74.5404 49.2765 74.7287 48.7659 74.8868C47.975 75.1306 47.4049 75.3047 45.989 75.7957L45.8799 75.825L45.7899 75.8863C45.7099 75.9449 45.6223 75.995 45.5397 76.0437C44.1439 73.1368 41.2863 67.6915 40.1875 65.9919C40.0487 65.7836 39.9733 65.5395 39.9705 65.2892C39.9676 65.0389 40.0373 64.7932 40.1712 64.5818C40.5061 63.9711 40.7755 63.3267 40.9749 62.6595C41.0854 62.3374 41.1886 62.0279 41.3011 61.7532C42.7082 58.3717 40.0698 55.2925 37.992 52.2812C36.9591 50.7864 35.5602 49.5813 33.9289 48.7812C32.2976 47.9811 30.4883 47.6126 28.674 47.7109C23.1303 47.8988 18.4559 51.2518 16.7497 56.2555C15.9805 58.5248 16.9671 60.7384 17.8373 62.6961C17.9382 62.9137 18.034 63.1326 18.1286 63.3465C20.2351 68.2114 24.6464 70.1082 29.0991 71.425C31.0476 72.009 31.5524 72.7618 31.7781 73.366C31.9607 73.8488 33.3883 77.3907 34.2697 79.5687C34.0559 79.5886 33.8407 79.5893 33.6268 79.5708L33.3859 79.5449L33.1773 79.6593C32.9953 79.761 32.8267 79.8848 32.6751 80.0278C32.4273 80.2689 32.2459 80.5698 32.1485 80.9014C32.051 81.2331 32.0408 81.5843 32.1189 81.9211C32.4121 83.1817 32.9141 84.3844 33.6041 85.4794C34.02 86.1649 34.3796 86.883 34.6793 87.6267C35.2412 89.0289 36.7668 92.3212 38.8605 92.6535C39.5038 92.7456 40.154 92.7814 40.8035 92.7604C43.2041 97.0256 45.3855 101.411 47.3389 105.898L47.7181 106.738C48.3169 108.04 48.912 109.348 49.5193 110.642C51.4284 114.711 53.3479 118.779 55.2778 122.845C55.6639 123.651 56.035 124.461 56.4026 125.277C57.2976 127.228 58.2225 129.251 59.3001 131.169C63.0319 137.773 66.4894 144.664 69.6681 151.129C69.8587 151.524 70.0262 151.93 70.1695 152.345C69.2209 153.131 68.8166 153.984 68.9679 154.906C69.2388 159.529 72.1732 161.173 74.663 161.792C74.6914 161.873 74.7264 161.95 74.7679 162.025C75.728 163.623 76.6405 165.283 77.5499 167.129C78.0428 168.135 78.6058 169.084 79.1892 169.992L79.4043 170.338C79.9772 171.24 80.4943 172.176 80.9528 173.14C84.2775 180.508 88.303 187.533 92.1426 194.103C95.0626 199.241 97.6728 204.549 99.9591 209.998C101.317 213.08 102.774 216.157 104.202 219.145C104.903 220.611 105.604 222.077 106.297 223.551C106.872 224.784 107.451 226.012 108.031 227.244L108.383 228.001C111.148 233.896 114.006 239.996 116.787 246.009C119.419 251.685 122.802 257.463 125.515 262.09L125.857 262.674C126.055 263.015 126.257 263.354 126.455 263.694C126.591 263.926 126.798 264.108 127.047 264.21C127.295 264.313 127.57 264.331 127.83 264.262C127.933 264.234 128.03 264.192 128.121 264.136C128.391 263.98 128.59 263.725 128.677 263.425C128.764 263.126 128.733 262.804 128.588 262.527L136.731 261.302L136.366 260.534L136.453 260.68C136.589 260.907 136.796 261.083 137.041 261.182C137.286 261.281 137.557 261.298 137.813 261.231C137.925 261.201 138.033 261.154 138.132 261.092C138.27 261.007 138.39 260.895 138.486 260.763C138.581 260.632 138.649 260.482 138.686 260.324C138.723 260.166 138.729 260.002 138.702 259.841C138.676 259.681 138.618 259.527 138.532 259.39C134.674 253.048 129.556 243.752 126.724 236.678C126.02 234.921 125.311 233.161 124.597 231.399C122.44 225.967 119.985 220.658 117.242 215.497L116.414 213.975C114.35 210.242 112.25 206.375 110.383 202.462C109.754 201.147 109.132 199.777 108.557 198.447C107.095 195.154 105.586 191.745 103.503 188.634C103.197 188.185 102.891 187.698 102.595 187.229C101.089 184.681 99.7145 182.056 98.4782 179.367L97.9322 178.242C96.8931 176.09 95.7768 173.949 94.699 171.871C94.1518 170.821 93.6046 169.772 93.0661 168.714C92.7891 168.177 92.1888 166.929 91.3751 165.222L91.4049 165.214C91.8076 165.228 92.3562 165.251 92.6173 165.293C93.1729 165.379 93.7329 165.435 94.2946 165.46C94.5577 165.47 94.8333 165.486 95.0742 165.512C96.1 165.609 97.1125 165.657 98.0115 165.698C99.0902 165.755 100.07 165.8 101.028 165.9C102.342 166.061 103.646 166.292 104.935 166.592C106.474 166.957 108.035 167.221 109.608 167.382C110.462 167.451 111.317 167.509 112.167 167.563L112.356 167.576C115.231 167.768 117.948 167.944 120.698 168.643C121.269 168.788 121.864 168.926 122.468 169.057C127.335 170.032 132.295 170.458 137.257 170.327C139.511 170.308 141.754 170.185 143.928 169.943C147.879 169.571 151.772 168.728 155.523 167.432C159.326 166.067 164.311 164.885 169.166 163.734C173.251 162.766 177.112 161.854 180.426 160.807C181.823 160.363 183.463 159.993 185.19 159.573L185.264 159.553C187.316 159.118 189.343 158.575 191.337 157.926C192.218 157.587 193.133 157.342 194.066 157.195C196.007 156.857 197.917 156.359 199.777 155.707C201.073 155.285 202.798 154.897 204.483 154.478C206.334 154.04 208.249 153.586 209.812 153.05C210.828 152.719 211.865 152.461 212.917 152.276L212.967 152.263C213.685 152.124 214.331 151.993 215.045 151.802L215.109 151.785C215.832 151.588 216.542 151.348 217.235 151.066C219.071 150.319 220.864 149.469 222.605 148.521C223.159 148.229 223.753 147.905 224.408 147.549L225.335 147.04C226.14 146.521 226.903 145.939 227.618 145.301L227.936 145.04L228.311 144.732C229.464 143.812 230.566 142.83 231.612 141.79C232.275 141.15 232.964 140.486 233.766 139.788C234.034 139.556 234.303 139.33 234.577 139.124C235.559 138.382 236.631 137.768 237.767 137.296C239.965 136.411 241.889 134.961 243.347 133.094C243.991 132.24 244.518 131.303 244.913 130.308C246.027 127.732 246.775 125.013 247.136 122.231L247.173 121.891C247.179 121.856 247.18 121.82 247.176 121.784C247.839 115.427 247.579 110.248 246.391 105.956C245.722 103.325 244.845 100.75 243.77 98.2569ZM104.992 153.251C104.982 153.22 104.974 153.188 104.967 153.157C106.431 152.328 108.213 151.936 110.106 151.519C110.839 151.355 111.612 151.185 112.348 150.993C112.385 151.132 112.453 151.268 112.513 151.411L112.522 151.446C112.736 151.947 112.984 152.434 113.221 152.902C113.276 153.009 113.384 153.294 113.497 153.594C112.213 153.393 110.908 153.372 109.62 153.532C109.454 153.55 109.296 153.576 109.139 153.602C107.734 153.705 106.323 153.582 104.957 153.239L104.992 153.251ZM239.841 122.787C237.226 123.487 233.979 124.389 231.362 126.489C229.299 127.981 226.965 129.06 224.492 129.665C223.38 129.963 221.223 129.669 220.031 129.509C219.578 129.445 219.215 129.398 218.931 129.373C215.788 129.152 213.501 128.834 211.485 128.572L211.413 128.564C209.333 128.235 207.232 128.053 205.126 128.021C201.657 127.963 198.188 128.155 194.746 128.595C190.785 129.249 186.863 130.122 182.998 131.211C177.766 132.581 172.053 133.426 165.011 133.877C158.261 134.309 151.631 135.66 145.469 137.056C144.115 137.36 142.765 137.7 141.421 138.061C137.452 139.124 133.5 140.39 129.617 141.638L129.538 141.659C127.281 142.386 124.947 143.14 122.648 143.83C120.749 144.403 118.841 144.962 116.938 145.519L115.676 145.89C114.738 146.141 113.806 146.433 112.876 146.714L111.993 146.951C111.132 147.208 110.237 147.421 109.28 147.619L109.22 147.635C106.956 148.136 104.617 148.656 102.503 149.993C101.743 150.459 100.885 150.742 99.9964 150.819L99.5839 150.887C99.1889 150.961 98.7629 151.038 98.2803 151.162L97.9479 151.251C96.827 151.508 95.721 151.826 94.6348 152.203C94.0431 152.436 93.4362 152.652 92.7695 152.862C91.4409 153.282 90.0378 153.642 88.6334 153.997C86.9912 154.437 85.2738 154.855 83.5977 155.426C82.4042 155.873 81.2591 156.44 80.1799 157.118L80.5648 157.781L80.1108 157.158C79.4456 157.562 78.756 157.925 78.0459 158.243L77.7428 158.223C74.1559 158.014 73.2009 157.01 72.9681 155.249C73.0729 155.183 73.1877 155.115 73.3087 155.051L73.515 154.948L74.2565 154.659C76.4493 153.731 78.7089 152.969 81.016 152.38C81.9624 152.157 82.9238 152.004 83.8926 151.923C90.3388 151.392 96.3338 149.216 102.139 147.108C105.193 146.002 108.347 144.854 111.492 143.99C112.078 143.833 112.668 143.675 113.303 143.505C114.266 143.247 115.253 142.982 116.28 142.707C118.122 142.182 119.882 141.405 121.51 140.397C122.514 139.755 123.889 138.876 124.209 137.014C124.656 134.395 125.064 131.729 125.464 129.133L125.753 127.237C126.539 122.134 125.712 120.335 121.306 117.607L120.997 117.424L120.904 117.374C120.841 117.338 120.773 117.303 120.721 117.269C120.25 116.987 119.8 116.673 119.374 116.327C119.31 116.272 119.242 116.223 119.169 116.18C119.132 116.119 119.09 116.061 119.043 116.006C118.885 115.815 118.672 115.574 119.256 113.546C120.016 111.003 119.943 108.283 119.048 105.785C118.47 103.842 117.733 101.949 116.846 100.127C115.262 97.021 114.216 93.6692 113.754 90.2137C113.466 88.0235 113.385 85.8111 113.509 83.6057L113.569 83.5897L113.773 83.5987C114.609 83.6407 114.894 83.6546 116.432 84.6093C116.665 84.7489 116.924 84.8393 117.193 84.875C117.462 84.9108 117.736 84.8911 117.997 84.8172C118.371 84.7142 118.707 84.5045 118.964 84.2138C119.221 83.9232 119.387 83.564 119.444 83.1803C119.5 82.7965 119.443 82.4047 119.28 82.0526C119.118 81.7005 118.856 81.4034 118.527 81.1976C116.223 79.7624 115.333 79.6553 113.955 79.5937L113.749 79.5798C113.027 79.5446 112.304 79.5256 111.605 79.5161C108.246 79.4642 104.902 79.6638 102.36 79.8399C99.817 80.016 97.3505 80.0388 94.9001 80.0626L94.7893 80.0657L91.9528 80.0972C91.6627 80.1058 90.7505 80.095 89.7761 80.0902L88.9774 80.0862C88.6634 80.0551 88.3478 80.0437 88.0324 80.0522L86.0036 80.1013C82.8085 80.0954 79.6165 80.3023 76.4489 80.7205C71.1227 81.5415 65.8626 82.8872 60.7563 84.1916C59.4911 84.5306 57.8412 84.8823 56.2511 85.2392C53.9423 85.7515 51.7589 86.2355 50.5295 86.6287C49.9855 86.8011 49.7377 86.8887 49.5532 86.9541C49.2754 87.0286 49.1877 87.0786 48.3145 87.3126L47.2528 87.5971L45.8041 87.9853C45.2286 88.1395 44.6282 88.3004 44.0156 88.3954C42.6358 88.6796 41.2269 88.7982 39.819 88.7488C39.2357 87.9424 38.7517 87.0687 38.3773 86.1466C38 85.2093 37.546 84.3047 37.0198 83.4421C36.93 83.2854 36.8504 83.1472 36.7771 83.0126C37.687 82.9058 38.5809 82.6913 39.4402 82.3735C40.6929 81.889 41.9609 81.4216 43.1945 80.9847C46.1521 79.9369 49.1707 78.9579 52.0865 78.0118L54.1212 77.3496C58.4832 76.0146 62.9137 74.9145 67.3935 74.0539C71.0027 73.2942 74.7372 72.5063 78.3989 71.4666C81.17 70.6655 83.828 69.5155 86.3091 68.0443C88.3706 66.8272 90.4234 65.538 92.3908 64.2876L92.487 64.2299C96.9355 61.4427 101.529 58.5422 106.413 56.4092C113.455 53.3366 120.15 51.9307 126.891 52.1026C131.233 52.2103 136.276 52.5764 140.808 54.4252L141.921 54.8874C145.091 56.2021 152.119 58.1795 156.318 59.3623C157.956 59.8219 159.51 60.2617 159.701 60.3383C160.579 60.7846 161.486 61.1722 162.415 61.4987L163.102 61.7612C164.608 62.3815 166.082 63.0782 167.517 63.8486C169.749 64.9947 172.055 66.1794 174.126 66.6829L174.273 66.7178L178.257 67.6923C178.579 67.7713 178.916 67.7652 179.236 67.6746C179.663 67.5588 180.04 67.3041 180.306 66.9505C180.573 66.5969 180.714 66.1647 180.707 65.7221C180.701 65.2794 180.547 64.8515 180.271 64.5058C179.994 64.1602 179.61 63.9165 179.18 63.8132C178.13 63.5625 177.083 63.3114 176.037 63.0599L175.075 62.8232C173.178 62.353 170.924 61.2235 168.792 60.1143C167.351 59.3786 165.859 58.6137 164.459 58.0529L164.897 58.0206C165.242 57.9974 165.645 57.9532 166.058 57.9064L166.709 57.8381C169.612 57.5092 172.477 56.902 175.263 56.0247C179.058 54.9442 182.334 54.0132 186.805 54.7453C188.409 54.9331 190.033 54.8294 191.6 54.4392C194.612 53.7755 196.8 53.1469 199.15 52.4744C200.632 52.0508 202.114 51.6271 203.899 51.1648C206.982 50.3653 209.186 51.0509 211.274 53.4429C212.768 55.1695 213.528 57.3109 214.074 59.1906L214.14 59.4387C214.646 61.2069 215.338 63.6323 217.533 64.8151C219.139 65.6803 220.523 66.9056 221.576 68.3952C221.781 68.6646 221.989 68.9227 222.218 69.2017C222.834 69.9483 223.408 70.728 223.939 71.5376C225.255 73.5271 226.778 75.3721 228.482 77.0417C229.315 77.9085 230.177 78.8048 231.083 79.9022C231.737 80.6948 232.471 81.4923 233.124 82.2002C235.252 84.5068 237.454 86.8893 237.742 89.5134C238.043 93.027 238.848 96.479 240.132 99.7634C241.149 102.108 241.976 104.531 242.605 107.008C243.677 110.869 243.888 115.646 243.246 121.603C243.082 121.718 242.906 121.813 242.721 121.887C241.782 122.25 240.819 122.551 239.841 122.787ZM106.291 126.107C106.217 125.881 106.156 125.651 106.107 125.418C105.511 123.009 104.618 120.683 103.448 118.494C103.176 117.936 102.932 117.364 102.718 116.781C101.613 113.828 101.208 110.687 100.776 107.368C100.532 105.487 100.235 103.365 99.8267 101.326L99.5422 99.9667C98.7169 96.0136 97.9352 92.2827 96.1063 88.5134L95.9992 88.2921C95.5114 87.4269 94.937 86.6133 94.285 85.864C93.8029 85.3143 93.3818 84.7139 93.0289 84.0735L94.9354 84.0838C97.4542 84.0576 100.063 84.0287 102.626 83.8523C104.52 83.717 106.962 83.5625 109.511 83.5284C109.387 85.9345 109.486 88.3468 109.804 90.7349C110.327 94.6365 111.507 98.4215 113.293 101.929C114.083 103.561 114.738 105.255 115.251 106.994C115.893 108.729 115.958 110.626 115.434 112.4C114.691 114.907 114.526 116.813 115.988 118.558C116.109 118.704 116.252 118.829 116.412 118.929C116.516 119.09 116.643 119.235 116.788 119.36C117.361 119.835 117.969 120.266 118.606 120.649L118.973 120.864L119.198 120.99C122.29 122.905 122.364 123.061 121.814 126.628L121.479 128.807C121.081 131.291 120.701 133.844 120.306 136.338C120.288 136.449 120.063 136.621 119.36 137.075C118.045 137.879 116.625 138.498 115.141 138.913C114.61 139.055 114.064 139.201 113.558 139.337C113.456 138.955 113.313 138.621 113.182 138.31C112.801 137.402 112.301 136.549 111.694 135.774C110.253 133.977 108.995 132.041 107.939 129.995C107.293 128.742 106.743 127.443 106.291 126.107ZM89.7047 157.836L89.799 157.811C91.1733 157.443 92.6051 157.091 94.0118 156.645C94.7814 156.402 95.4763 156.157 96.1311 155.902C96.9739 155.613 97.831 155.367 98.699 155.166C98.9492 155.277 99.2093 155.364 99.4759 155.426L99.5007 155.419C100.082 155.604 101.246 155.978 102.721 156.343C104.773 156.857 107.638 157.37 109.687 157.039L109.752 157.022L110.019 156.988C111.978 156.739 113.73 156.589 115.288 157.304L115.371 157.335L115.535 157.392L115.707 157.436L115.842 157.464L115.945 157.473C116.017 157.481 116.088 157.483 116.16 157.48L116.276 157.475C116.398 157.466 116.519 157.446 116.637 157.416C116.805 157.369 116.965 157.299 117.113 157.208C117.158 157.185 117.2 157.157 117.24 157.126C117.347 157.053 117.445 156.97 117.535 156.877L117.639 156.77C117.725 156.663 117.801 156.548 117.866 156.427L117.928 156.32C117.991 156.177 118.036 156.028 118.064 155.874C118.075 155.837 118.083 155.8 118.087 155.762L118.098 155.626L118.08 155.556C118.222 153.923 117.463 152.419 116.794 151.115C116.583 150.704 116.369 150.282 116.212 149.915L116.2 149.87L117.749 149.418C119.769 148.823 121.797 148.232 123.813 147.623C126.101 146.93 128.407 146.19 130.64 145.475L130.938 145.395C135.965 143.777 141.169 142.122 146.345 140.937C152.359 139.57 158.778 138.26 165.261 137.846C172.579 137.374 178.526 136.488 184.002 135.058C187.727 134.017 191.507 133.182 195.323 132.556C198.576 132.147 201.853 131.97 205.131 132.029C207.058 132.067 208.98 132.238 210.883 132.54C212.851 132.8 215.294 133.124 218.626 133.374C218.832 133.388 219.125 133.432 219.473 133.477L219.545 133.49C221.197 133.701 223.648 134.038 225.578 133.521C228.507 132.789 231.266 131.499 233.706 129.722L233.817 129.639C235.824 128.038 238.506 127.292 240.9 126.64C241.396 126.507 241.813 126.396 242.224 126.285C241.962 127.144 241.656 127.99 241.308 128.817C241.054 129.461 240.727 130.073 240.334 130.642C239.257 132.052 237.809 133.135 236.153 133.772C234.747 134.368 233.42 135.136 232.203 136.059C231.864 136.32 231.523 136.597 231.2 136.859C230.341 137.621 229.613 138.3 228.886 139C227.934 139.947 226.931 140.84 225.881 141.677L225.344 142.113L225.06 142.344C224.544 142.798 224.006 143.226 223.447 143.627L222.766 144.001L220.735 145.077C219.115 145.957 217.446 146.747 215.738 147.442C215.193 147.665 214.635 147.855 214.067 148.012C213.456 148.176 212.88 148.287 212.264 148.41L212.21 148.425C210.971 148.645 209.749 148.951 208.552 149.341C207.166 149.803 205.337 150.24 203.561 150.678C201.785 151.117 200.011 151.518 198.553 151.993C196.863 152.59 195.126 153.043 193.359 153.348C192.218 153.536 191.098 153.836 190.015 154.244C188.132 154.852 186.22 155.365 184.285 155.779C182.559 156.183 180.784 156.606 179.235 157.095C176.077 158.09 172.297 158.986 168.251 159.943C163.326 161.108 158.25 162.309 154.181 163.771C150.727 164.954 147.147 165.726 143.513 166.071C141.445 166.291 139.35 166.41 137.227 166.426C132.561 166.554 127.895 166.157 123.317 165.24C122.758 165.124 122.214 164.999 121.685 164.864C118.701 164.19 115.662 163.794 112.605 163.681C111.723 163.625 110.841 163.568 109.949 163.494C108.544 163.343 107.15 163.104 105.774 162.778C104.351 162.443 102.911 162.188 101.459 162.014C100.415 161.906 99.3797 161.854 98.3721 161.805L98.1564 161.793C97.2736 161.753 96.3521 161.708 95.4848 161.626C95.184 161.595 94.8872 161.579 94.5354 161.556C94.1249 161.54 93.7154 161.503 93.3088 161.444C92.7397 161.365 92.1665 161.32 91.5921 161.308C91.1458 161.29 90.6458 161.269 90.4009 161.229C90.093 161.179 89.7826 161.147 89.4711 161.132L89.4413 161.14C88.9464 160.087 88.4836 159.094 88.1035 158.271C88.625 158.094 89.1559 157.952 89.7047 157.836ZM28.5185 61.4985C27.3873 61.8016 27.0115 61.8278 26.3998 61.3908C25.7882 60.9538 25.5432 59.722 25.7285 58.8853C25.7864 58.4133 25.9528 57.961 26.2146 57.564C26.6201 57.0311 27.0527 56.5193 27.5107 56.0308C27.5906 55.9274 27.6995 55.8501 27.8235 55.8088L27.9376 55.7782C28.1048 55.7386 28.274 55.7075 28.4444 55.685C29.6398 55.4302 30.8872 55.6196 31.9532 56.2177C32.069 56.2875 32.1791 56.3665 32.2823 56.4539C32.3937 56.663 32.4815 56.8838 32.5438 57.1124C32.6893 57.7265 32.6734 58.3679 32.4976 58.9742C32.3218 59.5804 31.992 60.1307 31.5405 60.5717C31.0012 60.8006 30.4449 60.987 29.8766 61.1293L28.5072 61.4962L28.5185 61.4985ZM52.8813 90.226C55.8679 89.564 58.854 88.8011 61.7757 88.0555C66.7516 86.7807 71.9373 85.455 77.0734 84.6584C80.0783 84.2698 83.1055 84.0787 86.1354 84.0861L87.1031 84.0661L88.738 84.0747C88.7726 84.0813 88.8069 84.0899 88.8405 84.1004C88.8988 84.2007 88.9391 84.3106 88.9594 84.4248C89.3624 86.0876 90.3472 87.302 91.2262 88.3799C91.6941 88.9193 92.1129 89.4993 92.4777 90.1131L92.55 90.2639C94.1619 93.5809 94.9073 97.0769 95.6678 100.808L95.9456 102.143C96.3445 104.009 96.5993 105.972 96.8468 107.868C97.2826 111.261 97.7405 114.775 98.9985 118.16C99.2605 118.866 99.5578 119.559 99.8893 120.235C100.901 122.147 101.677 124.174 102.199 126.274C102.305 126.67 102.413 127.072 102.52 127.373C103.021 128.895 103.639 130.376 104.371 131.801C105.546 134.078 106.943 136.233 108.541 138.235C108.938 138.73 109.264 139.278 109.509 139.863C109.552 140.022 109.637 140.18 109.692 140.346C106.661 141.222 103.691 142.3 100.813 143.347C95.2599 145.367 89.5136 147.439 83.6 147.933C83.1223 147.976 82.6422 148.03 82.1612 148.1C81.4106 146.51 80.6252 144.928 79.8644 143.398C79.2624 142.204 78.6668 141.013 78.0896 139.811C77.2442 138.065 76.3838 136.323 75.5271 134.574C72.7882 128.996 69.955 123.225 67.4815 117.427C66.3856 114.865 65.0707 112.399 63.8109 110.019C63.2436 108.954 62.6556 107.851 62.1014 106.755C61.6172 105.821 61.136 104.839 60.6601 103.876C59.1601 100.685 57.4687 97.5863 55.595 94.5985C55.3341 94.2004 55.0683 93.8037 54.7962 93.4033C54.5715 93.0807 54.3504 92.7517 54.1356 92.4264C53.6623 91.7304 53.2394 91.0014 52.8704 90.2449L52.8813 90.226Z" fill="#141414"/>
</g>
<defs>
<clipPath id="clip0_79_2128">
<rect width="263" height="262" fill="white"/>
</clipPath>
</defs>
</svg>
