<?xml version="1.0" encoding="UTF-8"?>
<svg width="269px" height="160px" viewBox="0 0 269 160" version="1.1" xmlns="http://www.w3.org/2000/svg" xmlns:xlink="http://www.w3.org/1999/xlink">
    <!-- Generator: Sketch 46.2 (44496) - http://www.bohemiancoding.com/sketch -->
    <title>Global Community - 1000 spaces</title>
    <desc>Created with Sketch.</desc>
    <defs></defs>
    <g id="Page-1" stroke="none" stroke-width="1" fill="none" fill-rule="evenodd">
        <g id="Global-Community---1000-spaces" fill-rule="nonzero">
            <g id="Calque_2" transform="translate(0.000000, 38.000000)" fill="#B7D6E2">
                <path d="M65.3,20.2 C57.5,24.8 48.1,25.5 39,26 C29.9,26.5 20.5,27 12.5,31.2 C4.5,35.4 -1.7,44.6 0.5,53.4 C1.3,56.6 3.2,59.5 5.3,62 C20.1,80.2 45.2,85.1 67.8,91.3 C94.6,98.7 120.4,109.5 147.4,116.3 C165.6,120.9 184.7,123.6 203,119.5 C214.3,117 225,112 235.2,106.5 C241.3,103.2 247.5,99.7 252.6,95 C267.7,81.2 272.3,57.4 264.3,38.6 C256.3,19.7 236.7,6.7 216.2,5.5 C212.7,5.3 209.2,5.4 205.8,6.3 C201.2,7.5 197.1,10.2 192.7,12.1 C183.7,16 173.4,16.9 163.9,14.5 C164.1,11 164.2,7.4 164.4,3.9 C164.4,3.1 164.5,2.3 164.1,1.6 C163.4,0.5 161.9,0.3 160.7,0.3 C145.4,-0.3 130,2.1 115.7,7.4" id="Shape"></path>
            </g>
            <g id="Calque_1" transform="translate(4.000000, 0.000000)">
                <g id="Group">
                    <path d="M144,44.1 C144,45 144,45.8 144,46.6 C143.9,50 143.7,53.3 143.7,56.7 C143.7,59.8 143.8,62.9 144.1,65.9 C144.5,69.2 144.8,72.5 144.7,76 C145.1,76 145.4,76.1 145.7,76.1 C149.3,76.3 153,76.4 156.6,76.7 C157.5,76.8 158.3,77.2 159.1,77.6 C159.4,77.7 159.6,78.3 159.5,78.6 C159.2,79.8 159.5,80.9 159.6,82.1 C159.8,88.9 160,95.6 160.1,102.4 C160.2,108.1 160,113.8 159.9,119.6 C159.9,120.8 159.7,122 159.7,123.2 C159.7,123.9 159.4,124.4 158.8,124.8 C155.9,126.6 152.9,128.3 150,130.1 C146.7,132.1 143.4,134 140.2,136 C139.5,136.4 138.9,136.6 138.1,136.5 C136.9,136.2 135.6,136.4 134.4,136.1 C132.7,135.6 131.1,134.9 129.5,134.2 C128.4,133.7 127.9,132.7 127.9,131.4 C127.9,129.1 128,126.8 128,124.6 C128,120.7 128,116.8 128,112.8 C128,112.1 127.8,111.5 127.7,110.8 C126.1,110.7 124.7,110.6 123.2,110.5 C120.2,110.2 117.2,109.9 114.3,109.6 C114.1,109.6 114,109.6 113.8,109.6 C111.1,109.5 108.5,109.3 105.8,109.2 C105.2,109.2 104.5,109.1 103.9,109 C101.8,108.7 99.8,108.7 97.6,109.1 C97.1,111.2 96.6,113.4 96.1,115.5 C95.4,119.1 94.8,122.7 94.2,126.2 C94.1,127 94,127.9 93.9,128.7 C93.7,130.4 92.8,131 91.2,130.6 C89.8,130.2 88.5,129.7 87.1,129.2 C85.9,128.7 85.3,127.8 85.4,126.5 C85.6,124.8 85.8,123 86,121.3 C86.5,116.2 87.1,111.1 87.6,106 C87.8,104.5 87.9,103.1 88.1,101.6 C87.6,101.3 87.1,101 86.7,100.7 C85.4,99.5 84.6,96.2 85.5,94.7 C86,93.8 86.9,93 87.8,92.3 C91.7,89 95.7,85.8 99.6,82.5 C99.7,82.5 99.7,82.4 99.9,82.1 C99.1,82.1 98.5,82.1 97.8,82.1 C95.8,82.1 94,81.6 92.9,79.7 C91.9,78 90.9,76.3 89.8,74.6 C89.3,73.8 88.7,72.9 88.1,72.1 C87.6,71.4 87.6,70.8 88.1,70.1 C88.4,69.8 88.5,69.3 88.6,68.9 C89.2,66.3 89.9,63.8 90.5,61.2 C90.6,60.8 90.6,60.4 90.7,60 C87.5,61.1 84.4,62.2 81.2,63.3 C81.2,64.3 81.2,65.4 81.2,66.5 C81.3,70.5 81.4,74.6 81.4,78.6 C81.4,81.1 81.2,83.5 81.1,86 C81.1,86.9 80.6,87.6 79.8,88.1 C78.3,89.1 77,90.2 75.7,91.4 C75.2,91.8 74.7,92.2 74,92 C73.3,91.8 73.1,91.2 72.9,90.6 C72,86.8 71,83 70.1,79.2 C70,78.7 69.8,78.1 69.5,77.4 C66.3,79.9 63.3,82.5 60.1,84.8 C57,87.1 53.7,89.3 50.3,91.6 C50.3,92.2 50.4,93 50.3,93.7 C50,96.1 49.8,98.5 49.4,100.8 C48.8,105.1 48.2,109.4 47.5,113.6 C47.3,115 47.1,116.4 46.7,117.7 C46.6,118.2 46.2,118.7 45.8,119 C44.3,120.2 42.7,121.4 41.2,122.6 C39.5,124.2 37.5,124.3 35.4,123.8 C34.8,123.6 34.2,123.4 33.6,123.2 C31.4,122.7 29.3,122 27.3,120.9 C23.6,119 19.8,117.1 16.1,115.2 C12.6,113.4 9.2,111.7 5.7,109.9 C4.4,109.2 3.1,108.3 1.8,107.5 C1,107 0.8,106.2 0.8,105.3 C0.4,98.9 0.4,92.4 0.8,86 C1,81.9 1.3,77.9 1.5,73.8 C1.5,73 1.5,72.1 1.5,71.3 C1.4,70.1 1.9,69.2 3,68.7 C4.2,68.1 5.4,67.5 6.7,66.9 C8.4,66.1 10.1,65.3 11.8,64.5 C13.2,63.9 14.6,63.3 16,62.7 C16.4,62.5 16.8,62.3 17.4,62.1 C17.2,59.9 17,57.6 16.7,55.4 C16.3,52.4 15.7,49.3 15.3,46.3 C15.1,44.8 15.1,43.3 15.1,41.9 C15.1,41 15.5,40.4 16.4,40.1 C17.2,39.8 17.9,39.3 18.6,38.9 C21.5,37.4 24.5,36.4 27.8,37.1 C28.6,37.3 29.4,37.6 30.2,37.8 C31.4,38.2 32.5,38.2 33.7,37.9 C35.4,37.5 36.6,38.2 36.8,39.9 C37,42.2 37.2,44.6 37.3,47 C37.4,48.7 36.5,49.8 35.1,50.8 C31.6,53.4 27.7,54 23.5,54 C23.2,54 22.9,54 22.5,54 C21.4,54 20.3,54.2 19.2,55 C19.4,56.8 19.6,58.8 19.8,60.9 C21.4,60.3 22.9,59.7 24.4,59.1 C32.5,55.7 40.5,52.2 48.6,48.9 C51.7,47.6 54.8,46.5 57.9,45.3 C58.6,45 59.2,45.1 59.8,45.4 C61.2,46.2 62.6,46.8 64,47.5 C64.6,45.2 64.7,39.5 64.2,37.5 C59.7,34.8 55.5,31.8 50.4,30.2 C50.4,30.2 50.3,30.3 50.2,30.4 C49.7,33.6 49.1,36.8 48.7,40 C48.4,42 48.2,44.1 48,46.1 C48,46.5 47.9,46.9 47.8,47.3 C47.5,48.3 46.8,48.7 45.9,48.5 C44.2,48.1 42.5,47.5 41.2,46.3 C40.4,45.6 40,44.7 40,43.7 C40,40.1 39.9,36.5 39.9,32.9 C39.9,30.3 40.1,27.7 40.3,25.1 C40.6,21.1 40.9,17.2 41.1,13.3 C41.2,12.1 41.3,11 41.3,9.8 C41.3,7.4 42.3,6.1 44.7,5.7 C46.9,5.3 49.1,4.9 51.3,4.6 C54.3,4.1 57.4,3.6 60.4,3.2 C62.3,2.9 64.1,2.7 66,2.5 C66.5,2.5 67.1,2.7 67.5,3 C68.2,3.4 68.8,4.1 69.6,4.4 C72.1,5.4 74.1,7.2 76.2,8.7 C77.6,9.7 79,10.6 80.6,11.2 C83.1,12.2 85.3,13.5 87.5,15.1 C89.2,16.4 91.1,17.5 93,18.5 C94.1,19.1 94.5,19.8 94.3,21 C94.2,21.3 94.2,21.6 94.3,21.8 C95.5,24.8 95.6,28.1 96.2,31.2 C96.6,33.2 96.9,35.2 97.3,37.5 C97.6,37 97.8,36.6 98.1,36.3 C99,35.2 99.9,34.1 100.8,33 C101.4,32.2 102.2,31.5 102.7,30.7 C103.7,29.3 104.8,28 106.1,26.9 C106.3,26.7 106.6,26.5 106.8,26.3 C109.2,23.5 111.5,20.8 113.9,18 C114.1,17.8 114.2,17.6 114.3,17.4 C115,16.5 115.7,16.4 116.6,17.1 C117.9,18.1 119.1,19.2 120.4,20.2 C121.4,21 122.5,21.7 123.4,22.5 C124.5,23.4 125.6,24.4 126.7,25.4 C129.1,27.5 131.5,29.7 133.9,31.8 C136.1,33.7 138.2,35.7 140.5,37.5 C142.2,38.8 143.5,40.3 145,41.8 C145,41.8 145.1,41.9 145.1,41.9 C145.6,42.5 146.1,43.1 145.8,43.9 C145.5,44.3 144.8,44.3 144,44.1 Z M37.9,121.5 C38,121 38,120.8 38,120.6 C38.3,117 38.5,113.4 38.8,109.8 C39.3,103.7 39.8,97.7 40.2,91.6 C40.3,90 40.1,88.3 40,86.7 C39.9,85.8 39.5,85 38.5,84.6 C36.8,83.8 35.2,83 33.6,82.1 C31.9,81.2 30.2,80.2 28.2,79.8 C25.3,79 22.5,78 19.8,76.7 C19.2,76.4 18.6,76.2 18,76 C14,74.9 10,73.9 5.9,72.9 C5.3,72.8 4.8,72.6 4.2,72.5 C3.6,83.7 2.4,94.7 3.5,105.9 C4.9,106.7 6.4,107.5 7.8,108.2 C14.2,111.5 20.5,114.7 26.9,118 C29.3,119.2 31.8,120.4 34.5,120.9 C35.7,120.9 36.7,121.2 37.9,121.5 Z M77.7,55.6 C77,55.2 76.6,54.8 76,54.5 C74.7,53.9 73.4,53.4 72.1,52.9 C70.2,52.2 68.3,51.5 66.3,50.9 C64.3,50.3 62.4,49.6 60.7,48.5 C59.3,47.6 58,47.6 56.5,48.2 C54.1,49.3 51.6,50.1 49.1,51.1 C44.8,52.8 40.6,54.6 36.4,56.4 C31.9,58.3 27.4,60.3 22.8,62.2 C21.8,62.6 20.8,63.1 19.7,63.6 C19.8,64.6 20,65.5 20.1,66.3 C20.2,67.3 19.9,67.9 19.2,68 C18.5,68.2 17.9,67.7 17.6,66.7 C17.5,66.1 17.4,65.5 17.2,64.6 C13.3,66.4 9.6,68.1 5.9,69.8 C5.9,69.9 5.9,70 5.9,70.1 C8.8,70.8 11.7,71.6 14.6,72.3 C17.2,72.9 19.7,73.7 22.1,74.8 C23.5,75.5 25,76.1 26.6,76.5 C29.9,77.4 32.9,78.7 35.8,80.4 C37.4,81.4 39.2,82.1 41,82.9 C43,81.3 44.9,79.6 47,78.1 C53.9,73 60.9,68 67.9,63 C69.6,61.7 71.4,60.4 73.1,59.1 C74.7,58 76.1,56.9 77.7,55.6 Z M119.7,74.1 C119.8,73.1 120,72 120.1,70.9 C120.6,66.6 121,62.2 121.5,57.9 C121.6,56.9 121.8,55.8 122,54.8 C122.3,53.3 122.8,52.9 124.3,52.8 C125,52.7 125.7,52.6 126.4,52.5 C128.5,52.3 130.5,52.2 132.6,52.1 C133.7,52.1 134.4,52.7 134.6,53.8 C135,55.6 135.5,57.4 135.8,59.2 C136.3,62.5 136.7,65.9 137.1,69.2 C137.4,71.3 137.7,73.4 138.1,75.6 C139.6,75.7 140.8,75.8 142.2,75.9 C142.4,73 142.2,70.2 141.8,67.5 C141.3,63.8 141.1,60.1 141.2,56.4 C141.4,52 141.7,47.5 141.3,43.1 C141.2,41.7 141.1,40.4 139.5,39.8 C139.4,39.8 139.3,39.7 139.2,39.6 C136.8,37.5 134.4,35.5 132.1,33.4 C129.7,31.3 127.4,29.2 125,27.1 C124.3,26.5 123.6,26 122.9,25.5 C122.6,25.6 122.5,25.7 122.4,25.7 C119.8,28 117.2,30.2 114.7,32.5 C114.5,32.7 114.3,32.9 114.1,33.1 C112,35.1 109.9,37.1 107.9,39.1 C105.7,41.2 103.5,43.3 101.4,45.4 C101.1,45.7 100.9,46.2 100.8,46.6 C100.3,50.8 100,55 99.5,59.2 C99.3,61.1 98.8,63 98.5,64.9 C97.9,69 97.4,73.1 96.9,77.2 C96.8,77.9 96.9,78.5 96.9,79.2 C98.8,79.4 100.8,78.8 102.6,79.9 C104.8,78.4 106.9,77 109,75.4 C110.2,74.5 111.5,74.1 113,74.2 C115.2,74.2 117.4,74.1 119.7,74.1 Z M73.3,28.1 C73.3,28.5 73.3,28.9 73.3,29.3 C73.3,31 73.3,32.7 73.1,34.3 C72.8,37.4 72.4,40.4 72.8,43.5 C73,45.2 73,46.9 73.1,48.5 C73.2,49.2 73.3,50 73.4,50.6 C74.8,51.2 76,51.7 77.1,52.3 C77.9,52.6 78.6,53 79.4,53.4 C80.1,53.7 80.5,54.1 80.6,54.9 C80.7,56.2 80.9,57.5 81,58.8 C81,59.2 81.1,59.6 81.2,60.2 C84.9,59.2 88.2,58 91.6,56.3 C92.3,52.4 93,48.4 93.7,44.5 C93.8,44.2 93.7,43.8 93.6,43.5 C93.2,42.6 93.4,41.9 94,41.2 C94.5,40.5 95,39.9 95.4,39.4 C95.2,38.2 94.9,37.1 94.7,36.1 C94.1,32.3 93.5,28.5 92.8,24.8 C92.7,24 92.3,23.2 92.1,22.3 C91.5,22.6 91,22.8 90.7,23 C89.5,23.9 88.1,24.3 86.7,24.6 C84.1,25.2 81.5,25.7 78.9,26.4 C76.9,26.8 75.1,27.4 73.3,28.1 Z M40.7,119.3 C40.8,119.4 40.9,119.4 41,119.5 C41.9,118.8 42.9,118.2 43.8,117.5 C44.1,117.3 44.4,116.9 44.5,116.5 C44.8,115.2 45,113.9 45.2,112.6 C45.8,108.6 46.4,104.6 46.9,100.6 C47.3,97.7 47.6,94.8 47.8,91.9 C47.9,90.5 48.2,89.6 49.4,88.8 C52.7,86.6 56,84.3 59.3,82 C61.1,80.7 62.7,79.2 64.4,77.8 C65.8,76.7 67.2,75.5 68.6,74.5 C69.9,73.6 70.7,73.8 71.4,75.2 C71.8,76 72.3,76.9 72.5,77.8 C73.3,80.7 74,83.5 74.7,86.4 C74.8,86.8 74.9,87.3 75.1,87.8 C76.3,87 77.4,86.3 78.5,85.5 C79.2,83 79,61.2 78.2,58.3 C78.1,58.4 78,58.4 77.9,58.5 C75.6,60.3 73.3,62.2 70.9,64 C68.5,65.8 66.1,67.5 63.7,69.2 C60.9,71.2 58,73.2 55.3,75.3 C51.3,78.3 47.4,81.4 43.4,84.4 C42.7,85 42.4,85.6 42.5,86.6 C42.7,88.2 42.8,89.8 42.7,91.4 C42.6,94.3 42.3,97.1 42,100 C41.6,104.5 41.3,109 40.9,113.5 C40.9,115.5 40.8,117.4 40.7,119.3 Z M140.2,132.7 C140.8,132.3 141.3,132 141.7,131.8 C142.4,131.4 143.1,130.9 143.8,130.5 C146.6,128.9 149.4,127.4 152.1,125.8 C153.6,124.9 155,124 156.5,123.1 C157.1,122.8 157.3,122.3 157.3,121.7 C157.4,119.7 157.6,117.6 157.6,115.6 C157.6,106.4 157.5,97.2 157.5,88 C157.5,86.5 157.4,84.9 157.3,83.2 C156.4,84.4 155.7,85.4 155,86.3 C153.3,88.7 151.5,91.2 149.8,93.6 C147.6,97 145.4,100.4 143.3,103.8 C143.1,104.2 142.8,104.6 142.8,105.1 C142.5,107.6 142.3,110.2 142,112.7 C141.5,118.7 140.9,124.6 140.4,130.6 C140.3,131.3 140.2,131.9 140.2,132.7 Z M137.5,133.6 C138.3,124.6 139.1,115.7 139.9,106.8 C139.8,106.7 139.7,106.7 139.6,106.6 C139.5,106.8 139.5,107 139.3,107.1 C137.8,108.5 136.5,108.1 135.9,106.1 C135.8,105.9 135.8,105.6 135.7,105.4 C135.6,104.7 135.4,104 135.3,103.3 C134.9,103.7 134.8,104.1 134.6,104.5 C134.3,105.1 134,105.8 133.5,106.3 C132.1,107.8 130.2,107.4 129.6,105.4 C129.3,104.6 129.3,103.7 129.1,102.8 C129,102.3 128.8,101.9 128.6,101.1 C128.2,101.7 127.9,102.1 127.7,102.5 C127.4,103.1 127.2,103.8 126.8,104.5 C126.2,105.5 125.3,106.1 124.2,106 C123,105.9 122.3,105.2 122,104.1 C121.8,103.4 121.7,102.7 121.5,102 C121.3,101.3 121.1,100.6 120.2,100.4 C119.6,101.1 119,101.7 118.4,102.4 C117.5,103.7 116.3,104.4 114.7,104.6 C113.2,104.7 112.2,104.4 111.5,103 C111,102 110.7,100.8 110.3,99.7 C110.2,99.3 110.1,98.9 109.9,98.2 C109.6,98.7 109.3,98.9 109.2,99.2 C108.6,100.1 108.1,101 107.4,101.9 C106.1,103.5 104.3,103.2 103.5,101.3 C103.2,100.5 103,99.7 102.7,98.9 C102.5,98.3 102.4,97.8 102.1,97 C101.6,97.6 101.2,97.9 100.9,98.4 C100.5,99 100.1,99.7 99.7,100.3 C98.6,101.9 97,102 95.9,100.4 C95.2,99.4 94.9,98.3 94.4,97.2 C94.2,96.8 94.1,96.4 94,95.8 C93.6,96.1 93.2,96.2 93,96.5 C92.1,98.1 91,99.5 90.8,101.5 C90.1,109.3 89.1,117.1 88.2,124.9 C88.2,125.3 88.2,125.8 88.2,126.3 C89.3,126.7 90.4,127.1 91.4,127.5 C91.5,127.3 91.6,127.2 91.6,127.1 C92.4,122.8 93,118.5 93.9,114.2 C94.3,111.9 95,109.7 95.5,107.4 C95.7,106.6 96.1,106 96.9,106 C98.9,105.9 100.9,105.6 102.9,105.8 C106.7,106.1 110.4,106.7 114.2,106.6 C114.4,106.6 114.6,106.6 114.8,106.7 C117.9,107 121,107.4 124.1,107.6 C125.3,107.7 126.6,107.6 127.8,107.8 C129.4,108 130,108.5 130.3,110.1 C130.6,111.5 130.8,113 130.8,114.4 C130.8,117.7 130.8,121 130.7,124.4 C130.7,126.5 130.6,128.6 130.6,130.6 C130.6,131.4 131,131.8 131.7,132.1 C132.4,132.4 133.2,132.8 133.9,133 C134.9,133.5 136.1,133.8 137.5,133.6 Z M70.5,49.5 C70.5,49 70.5,48.6 70.5,48.2 C70.1,43.3 69.8,38.4 70.6,33.5 C70.7,33.1 70.7,32.8 70.7,32.4 C70.7,30.8 70.7,29.1 70.7,27.5 C70,27.2 69.5,27 69,26.7 C67.3,25.7 65.6,24.6 63.9,23.6 C61.7,22.4 59.7,20.9 57.8,19.4 C56.4,18.4 55,17.5 53.5,16.5 C52.8,16.1 52,15.7 51.5,15.2 C49.4,12.9 46.5,11.5 43.9,9.7 C43.8,10.6 43.8,11.4 43.7,12.3 C43.3,18.1 42.7,23.9 42.5,29.6 C42.3,34.1 42.5,38.7 42.5,43.3 C42.5,43.6 42.6,44 42.8,44.2 C43.5,44.8 44.3,45.4 45.4,45.4 C45.4,45.1 45.5,44.9 45.5,44.7 C46,41.4 46.5,38.1 47,34.8 C47.3,32.9 47.5,31 47.8,29.1 C48.1,27.2 49.3,26.7 51,27.6 C51.7,28 52.5,28.3 53.3,28.7 C55,29.5 56.7,30.2 58.3,31.1 C60.6,32.4 62.9,33.8 65.2,35.1 C66,35.6 66.6,36.2 66.6,37.2 C66.7,39 66.9,40.8 66.9,42.6 C66.9,44.6 66.7,46.6 66.6,48.6 C68,48.8 69.2,49.1 70.5,49.5 Z M124.3,55.5 C123.6,61.8 122.9,68.2 122.3,74.5 C125.8,75 134.5,75.4 135.5,75.2 C135.5,72.2 133,56.5 132.2,54.7 C129.6,54.7 127.1,54.8 124.3,55.5 Z M18.8,52 C19.9,51.8 20.9,51.6 21.8,51.5 C22.8,51.4 23.8,51.4 24.8,51.4 C28.2,51.4 31.3,50.5 33.9,48.4 C34.2,48.2 34.6,47.7 34.6,47.4 C34.8,45.1 34.6,42.8 34.3,40.3 C31.9,41 29.7,40.3 27.5,39.6 C26.7,39.4 25.8,39.3 25,39.4 C22.2,39.6 19.8,40.9 17.6,42.4 C17.3,45.7 18.4,48.8 18.8,52 Z M116,19.4 C114.1,21.6 112.3,23.7 110.4,25.8 C109.4,26.9 108.3,27.9 107.3,29 C106.5,29.9 105.7,30.9 104.9,31.8 C104.1,32.7 103.3,33.6 102.6,34.5 C101.8,35.4 101,36.3 100.4,37.3 C99.6,38.5 98.8,39.7 97.6,40.6 C97.1,41 96.7,41.6 96.2,42.1 C97.1,42.9 97.9,43.6 98.6,44.2 C106,37.3 113.4,30.4 120.8,23.5 C119.2,22.1 117.6,20.8 116,19.4 Z M115.4,102.1 C116.3,101.1 117,100.1 117.9,99.2 C118.2,98.9 118.5,98.6 118.9,98.3 C119.4,97.8 120.1,97.5 120.5,96.9 C122.6,94.2 124.7,91.3 126.8,88.6 C129.3,85.4 131.8,82.3 134.3,79.1 C134.6,78.8 134.8,78.4 135.1,77.9 C134.4,77.9 133.9,77.9 133.5,77.8 C132.5,77.6 131.7,77.9 131,78.6 C129.2,80.3 127.3,81.9 125.5,83.6 C121.7,87.4 117.9,91.3 114.2,95.2 C113.5,95.9 112.9,96.7 112.2,97.5 C112.7,99.1 113.2,100.7 113.7,102.2 C114.3,102.1 114.8,102.1 115.4,102.1 Z M124.3,103.4 C124.4,103.4 124.5,103.4 124.6,103.4 C124.8,102.9 125,102.3 125.3,101.8 C125.8,101 126.3,100.2 126.9,99.5 C127.5,98.7 128.3,98.1 128.9,97.3 C130.6,94.9 132.2,92.5 133.9,90.1 C136.6,86.5 139.3,83 142,79.4 C142.2,79.1 142.4,78.8 142.7,78.4 C141.7,78.3 140.8,78.4 140,78.2 C138.7,77.9 137.8,78.4 137.1,79.4 C135.4,81.4 133.8,83.5 132.2,85.6 C130.3,88.1 128.4,90.7 126.5,93.2 C125.1,95 123.7,96.9 122.2,98.8 C123.8,100 123.9,101.8 124.3,103.4 Z M132.1,104.1 C132.3,103.8 132.4,103.6 132.4,103.4 C132.8,102.2 133.3,101 134.7,100.5 C134.9,100.4 135.1,100.1 135.3,99.9 C137.2,97.1 139.4,94.6 140.9,91.5 C141.2,90.9 141.7,90.4 142.1,89.8 C144.5,86.6 147,83.4 149.4,80.2 C149.8,79.7 150.1,79.2 150.6,78.5 C149,78.5 147.6,78.5 146.2,78.5 C140.1,84.8 135.5,92.3 130.6,99.2 C131.1,101 131.6,102.4 132.1,104.1 Z M96,45.4 C95.7,46.8 95.3,48.1 95.2,49.4 C94.4,55.9 92.9,62.2 91.3,68.5 C90.9,70 90.6,71.4 91.9,72.6 C92,72.7 92,72.8 92.1,72.9 C92.8,74 93.5,75.1 94.3,76.2 C95.5,66.4 97.8,56.8 98.2,47 C97.5,46.5 96.8,46 96,45.4 Z M97.3,98.7 C97.4,98.7 97.5,98.7 97.6,98.7 C98.1,98.1 98.5,97.4 99,96.8 C99.9,95.7 100.8,94.8 102.3,94.6 C102.7,94.5 103.1,94.2 103.4,93.9 C105.1,92.3 106.7,90.8 108.4,89.2 C111.9,85.9 115.3,82.4 119.1,79.4 C120,78.7 120.7,78 121.6,77.2 C120,76.7 118.8,76.8 117.6,77.9 C115,80 112.4,82 109.7,84 C105.2,87.4 100.8,90.9 96.3,94.3 C96.2,94.4 96.1,94.5 96,94.7 C96.4,96 96.9,97.4 97.3,98.7 Z M140.3,103.3 C140.4,103.3 140.5,103.4 140.5,103.4 C142.5,100.3 144.6,97.3 146.5,94.1 C148.6,90.5 151.1,87.2 153.6,83.8 C154.1,83.1 154.6,82.3 155.1,81.5 C155.6,80.7 156,80 156.6,79.1 C155.6,79 154.8,79 153.9,78.9 C153.1,79.8 152.4,80.6 151.7,81.5 C149.1,84.9 146.5,88.3 143.9,91.7 C143.4,92.3 143.1,93 142.6,93.6 C141.5,95.3 140.4,97 139.2,98.7 C138.6,99.6 137.9,100.4 137.4,101.2 C137.7,102.3 137.9,103.2 138.2,104.1 C139,103.9 139.6,103.6 140.3,103.3 Z M125.5,77.4 C117.9,83.2 111.3,89.9 104.4,96.3 C104.8,97.6 105.1,98.9 105.4,100.1 C105.5,100.1 105.6,100.1 105.6,100.2 C106.1,99.5 106.5,98.8 107,98 C107.6,96.9 108.4,96.1 109.7,95.9 C110,95.9 110.3,95.7 110.5,95.4 C112,93.8 113.5,92.1 115.1,90.5 C118.6,87 122.1,83.6 125.5,80.1 C126.3,79.3 127,78.5 127.9,77.6 C127.1,77.5 126.2,77.5 125.5,77.4 Z M88.7,98.5 C89.1,97.9 89.5,97.3 89.8,96.7 C90.5,95.5 91.3,94.4 92.5,93.7 C93.9,92.8 95.2,91.9 96.5,90.9 C101.5,87.1 106.5,83.3 111.4,79.4 C112.5,78.6 113.6,77.7 114.6,76.8 C114.6,76.7 114.5,76.6 114.5,76.5 C113.6,76.5 112.8,76.5 111.9,76.5 C111.6,76.5 111.3,76.6 111,76.8 C108.5,78.5 106,80.3 103.6,82.1 C101.4,83.7 99.3,85.4 97.2,87.1 C94.2,89.5 91.3,92 88.4,94.6 C87.4,95.6 87.5,97.3 88.7,98.5 Z M77.9,12.5 C71.9,14.5 66.3,16.4 60.4,18.3 C61.3,19 61.9,19.4 62.5,19.8 C68.7,18.3 74.6,16 80.4,13.6 C80.2,13.4 80.1,13.3 80,13.3 C79.2,13 78.4,12.7 77.9,12.5 Z M67.2,22.8 C73.8,21.7 79.7,19.3 85.7,16.5 C84.8,15.9 84,15.4 83.5,15 C77.7,17.7 71.8,19.7 65.7,21.7 C66.3,22.1 66.8,22.5 67.2,22.8 Z M70.8,24.5 C72.2,25.5 72.2,25.6 73.5,25.2 C75,24.8 76.4,24.2 77.8,23.8 C80.2,23.2 82.7,22.6 85.1,22.1 C87.1,21.7 88.8,20.8 90.5,19.7 C89.6,19.2 88.7,18.7 88,18.2 C82.4,20.6 77.1,23.5 70.8,24.5 Z M73.7,9.6 C67.6,11.3 61.6,13 55.6,14.7 C56.5,15.3 57.3,15.8 58.1,16.3 C63.7,14.5 69.4,12.6 75.3,10.7 C74.6,10.2 74.1,9.9 73.7,9.6 Z M49.2,10.1 C54.8,7.8 60.8,6.9 66.6,5.3 C66.3,5 65.9,4.9 65.6,4.9 C65,4.9 64.5,4.9 63.9,5 C59.4,5.7 54.9,6.4 50.4,7.2 C49,7.4 47.6,7.7 46.2,7.9 C46.2,8 46.1,8.1 46.1,8.2 C47.1,8.8 48.1,9.4 49.2,10.1 Z M52.7,12.9 C56,12 59.1,11.3 62,10.4 C64.9,9.4 68,9 71.1,7.7 C70.4,7.4 70,7.1 69.6,6.9 C69.6,7 69.6,7.1 69.6,7.2 C67.8,7.7 66.1,8.2 64.3,8.6 C61.3,9.3 58.2,10 55.2,10.7 C54,11 52.9,11.4 51.7,11.8 C52.2,12.3 52.5,12.7 52.7,12.9 Z" id="Shape" fill="#000000"></path>
                    <path d="M220.9,31.5 C223.8,31.2 225.1,33.2 226.5,35 C228.1,37 229.3,39.3 230.7,41.4 C231.3,42.3 231.9,43.3 232.6,44.4 C234.1,44.2 235.6,43.9 237.2,43.7 C238,43.6 238.8,43.3 239.5,43.1 C240.8,42.8 241.3,42.9 241.9,44.1 C242.9,46.1 243.8,48.2 244.7,50.2 C245.9,52.9 247,55.7 248.2,58.5 C249.9,62 251.7,65.5 253.4,69 C253.5,69.2 253.7,69.5 253.6,69.8 C253.3,71.8 253.9,73.8 253.7,75.8 C253.5,77.8 253.5,79.9 253.5,81.9 C253.4,83.9 253.4,86 253.3,88 C253.2,90 253.1,92.1 253.1,94.1 C253.1,96.7 253.2,99.3 253.2,101.9 C253.2,104.5 253,107.1 253,109.7 C253,111 252.9,112.3 252.8,113.7 C251.3,114.2 249.7,114.6 248.2,115.1 C245.5,115.9 242.8,116.6 240.1,117.3 C239.5,117.5 238.9,117.5 238.3,117.6 C237.1,117.9 235.8,118.2 234.6,118.6 C233.6,118.9 232.6,119.2 231.6,119.6 C230.3,120.1 228.9,120.6 227.6,121.2 C226.1,122 224.6,122.6 222.9,122.9 C221.9,123.1 220.9,123.5 220,123.9 C219.3,124.2 218.7,124.2 218.2,123.7 C218.1,123.6 218,123.5 217.9,123.3 C216.1,121 214.3,118.6 212.4,116.3 C211.6,115.3 211.2,114.2 211.3,112.9 C211.6,107.8 212.1,102.7 213,97.6 C213.4,95.4 213.4,93.1 213.5,90.8 C213.5,90.3 213.2,89.8 213,89.4 C211.5,87.3 209.6,85.8 207.6,84.1 C205.7,82.5 204,80.8 202.2,79.2 C200.2,77.5 198.1,76 196.3,74.2 C195.1,73 193.8,72 192.3,71.2 C191.9,71 191.5,70.7 191.1,70.4 C189.1,68.7 187,67.2 184.7,65.9 C183.8,65.4 183,64.6 182.1,63.9 C182,64 181.9,64.2 181.9,64.4 C181.5,68.6 180.8,72.8 179.6,76.9 C179,79.1 178.8,81.4 178.4,83.6 C178.3,84.3 178.2,85.1 178,85.8 C177.6,87 176.6,87.4 175.6,86.6 C174.2,85.5 172.9,84.2 171.5,82.9 C170.8,82.2 170.6,81.3 170.8,80.2 C171.4,76.4 171.9,72.7 172.5,68.9 C173.5,62.3 174.5,55.8 175.6,49.2 C176.1,46.2 176.7,43.1 177.2,40.1 C177.5,37.9 177.8,35.7 178,33.6 C178.2,31.8 178.8,31.1 180.7,30.7 C186.9,29.5 193,28.1 199.2,27.5 C201.3,27.3 203.4,27.2 205.5,27 C205.8,27 206,26.9 206.3,26.9 C206.4,26.1 206.1,25.9 205.4,25.8 C201.2,25.3 197,25 192.7,25.4 C190.6,25.6 188.5,25.4 186.5,25.4 C183.4,25.4 180.3,25.6 177.1,25.6 C175.5,25.6 173.8,25.5 172.2,25.5 C171.8,25.5 171.5,25.5 171,25.5 C170.8,26.3 170.5,27 170.3,27.8 C169.7,30.9 169.2,34.1 168.5,37.2 C168.1,39 167.7,40.7 167.2,42.4 C166.3,45.1 166,47.9 165.5,50.7 C165.4,51.2 165.3,51.6 165.2,52.1 C165,53 164.5,53.5 163.6,53.8 C163.2,53.9 162.7,54.1 162.3,54.1 C160.1,54.2 157.8,54.3 155.6,54.3 C154,54.3 153.3,53.4 153.4,51.8 C153.4,51.2 153.6,50.5 153.7,49.9 C155,42.6 156.2,35.3 157.5,28 C158.3,23.8 159.2,19.6 160.3,15.5 C160.7,13.7 161.5,11.9 162.2,10.2 C162.3,9.9 162.6,9.6 162.9,9.4 C165.6,7.3 168.5,5.6 171.5,4 C171.9,3.8 172.4,3.6 172.8,3.4 C175.6,1.2 179,1 182.3,0.7 C187.5,0.2 192.6,0.5 197.8,0.9 C198.9,1 199.9,1.2 201,1.2 C202.5,1.3 204,1.3 205.5,1.3 C206.6,1.3 207.5,1.8 208.4,2.3 C210.8,3.9 213.3,5.5 215.7,7.2 C217.6,8.5 219.1,10.1 219.3,12.7 C219.6,16.1 220.4,19.5 220.7,22.9 C221,25.7 220.9,28.5 220.9,31.5 Z M218.9,120.2 C219.1,119.3 219.3,118.7 219.4,118.1 C220.6,112.1 221.1,105.9 221.8,99.8 C222.2,95.8 222.7,91.8 223.6,87.8 C224.2,85.4 224.5,82.9 224.9,80.5 C225,79.6 225.1,78.8 225.2,77.5 C224.4,76.1 223.5,74.4 222.5,72.7 C220.8,69.6 218.7,66.8 217.6,63.4 C217.6,63.4 217.6,63.3 217.5,63.3 C215.9,60.2 214.2,57.2 212.5,54.1 C212.2,53.5 211.8,52.9 211.3,52.1 C210.9,53.4 210.6,54.4 210.3,55.5 C209.8,57.2 209.2,58.9 208.7,60.6 C208.5,61.2 208.2,61.7 207.5,61.7 C206.8,61.8 206.4,61.4 206.1,60.8 C205.9,60.5 205.7,60.1 205.5,59.8 C203.8,57 202.1,54.2 200.5,51.4 C198.8,48.4 197.2,45.4 195.5,42.4 C195,41.5 194.4,40.8 193.9,40 C193.3,41.8 193,43.6 192.7,45.3 C192.5,46.3 192.3,47.2 192,48.2 C191.8,49 191.3,49.6 190.5,49.7 C189.6,49.8 189.1,49.2 188.7,48.5 C188.5,48.2 188.4,47.9 188.2,47.6 C187.4,46.3 186.8,44.9 185.9,43.7 C184.3,41.3 182.6,39.1 181,36.7 C180.8,36.5 180.7,36.3 180.4,35.9 C180.3,36.2 180.3,36.4 180.2,36.6 C180,38.2 179.9,39.8 179.6,41.4 C179.1,44.4 178.5,47.3 178.1,50.3 C177.1,56.8 176.1,63.3 175.1,69.9 C174.6,73.4 174.1,76.9 173.5,80.3 C173.4,81 173.6,81.7 174.1,82.2 C174.6,82.7 175.3,83.2 176,83.8 C176.1,83.3 176.1,83 176.2,82.8 C176.6,80.5 176.9,78.1 177.5,75.9 C178.5,72.1 179.1,68.3 179.5,64.5 C179.6,63.5 179.7,62.5 180,61.6 C180.4,60.5 181.4,60.2 182.3,60.9 C182.8,61.2 183.2,61.7 183.7,62.1 C184.6,62.9 185.5,63.6 186.5,64.3 C187,64.7 187.7,65 188.2,65.3 C191,66.9 193.1,69.4 196.1,70.7 C196.3,70.8 196.5,70.9 196.6,71.1 C197.9,72.8 199.8,74 201.4,75.4 C206.1,79.7 211.2,83.5 215.4,88.3 C215.9,88.9 216.2,89.4 216.2,90.2 C216.3,93 216.2,95.9 215.6,98.7 C214.7,103.4 214.3,108.2 214,113 C214,113.7 214,114.3 214.5,114.9 C215.9,116.4 217.3,118.2 218.9,120.2 Z M250.2,111.8 C250.3,111.6 250.3,111.4 250.3,111.2 C250.4,108.2 250.7,105.3 250.6,102.3 C250.3,95.3 250.7,88.3 250.9,81.3 C251,78.7 251.1,76 251.1,73.4 C251.1,72.9 251,72.4 251,71.8 C250.7,71.8 250.4,71.8 250.2,71.9 C249.1,72.2 248,72.5 246.9,72.8 C243.4,73.8 239.9,74.8 236.4,75.8 C233.5,76.7 230.7,77.6 227.8,78.6 C227.6,79.5 227.5,80.3 227.4,81 C227.3,81.5 227.3,82 227.2,82.5 C226.6,85.4 225.9,88.4 225.4,91.3 C224.7,95.9 224.3,100.5 223.7,105.1 C223.1,110 222.7,114.9 221.5,119.7 C221.5,119.9 221.5,120.1 221.5,120.3 C223.3,120.2 224.9,119.7 226.3,118.8 C227,118.4 227.7,118 228.5,117.8 C230.2,117.2 231.9,116.8 233.6,116.1 C235.1,115.5 236.6,115.2 238.1,115 C238.5,115 238.8,114.9 239.2,114.8 C242.6,113.9 245.9,113 249.2,112 C249.6,112.1 249.9,112 250.2,111.8 Z M162.7,51.7 C162.8,51 162.9,50.5 163,50 C163.5,47.7 163.8,45.3 164.4,43 C165.5,39.4 166.1,35.8 166.8,32.1 C167.2,29.9 167.6,27.7 168.2,25.6 C168.7,23.8 169.8,23.2 171.6,23.2 C175.7,23.2 179.7,23.2 183.8,23.2 C186.8,23.2 189.9,23.3 192.9,23.1 C197.3,22.8 201.6,23.1 205.9,23.6 C207.2,23.8 208.1,24.5 208.5,25.8 C208.6,26.1 208.7,26.5 208.8,26.9 C211,26.3 212.5,27.1 213.8,28.7 C214.7,29.9 215.8,31 216.8,32.2 C217.4,32.1 218,32.1 218.4,32 C218.2,28.4 218.1,25 217.9,21.6 C217.7,18.1 216.9,14.7 216.2,11.3 C215.6,11.2 215.1,11.2 214.7,11.2 C212.5,11 210.4,11 208.2,10.7 C203.2,10.1 198.2,9.6 193.2,9.5 C183.8,9.2 174.5,10.4 165.3,11.8 C164.5,11.9 164,12.3 163.8,13 C163.4,14.1 163,15.1 162.7,16.2 C161.7,20.5 160.7,24.8 159.8,29.2 C158.5,36.1 157.4,43 156.2,49.9 C156.1,50.6 156,51.4 155.8,52.3 C158.3,51.9 160.4,51.8 162.7,51.7 Z M250.7,69.1 C246.4,61.6 243,53.8 240.1,45.8 C239.3,45.9 238.7,45.9 238.2,46 C236.4,46.3 234.6,46.6 232.8,46.9 C230.2,47.3 227.6,47.6 225.1,48 C221.3,48.7 217.6,49.5 213.7,49.6 C213.6,49.6 213.5,49.7 213.2,49.8 C217.9,58.7 222.3,67.6 227.4,76 C235.1,73.7 242.8,71.4 250.7,69.1 Z M229.7,44.6 C229.4,44.2 229.3,44 229.2,43.8 C227.9,41.8 226.7,39.8 225.4,37.8 C224.7,36.7 223.9,35.6 222.9,34.8 C222.2,34.2 221.6,34 220.7,34.2 C219,34.5 217.2,34.7 215.5,35 C212.1,35.5 208.6,36.1 205.2,36.7 C202.3,37.2 199.4,37.8 196.4,37.9 C196.1,37.9 195.9,38 195.5,38 C195.7,38.3 195.8,38.6 195.9,38.8 C199.2,43.7 201.8,49 204.7,54.2 C205.3,55.4 206.1,56.4 206.9,57.7 C207.1,57.3 207.2,57.1 207.3,56.9 C208,54.3 208.8,51.7 209.5,49.1 C209.9,47.6 210.2,47.3 211.8,47.2 C213,47.1 214.1,47.2 215.3,47.1 C218.3,46.7 221.2,46.2 224.2,45.7 C226,45.2 227.7,44.9 229.7,44.6 Z M189.9,45.6 C190,45.2 190,44.9 190.1,44.5 C190.5,42.3 190.9,40.1 191.4,37.9 C191.6,36.9 192.1,36.1 193.1,35.8 C193.7,35.6 194.2,35.4 194.8,35.3 C197.6,34.9 200.4,34.7 203.2,34.3 C206,33.9 208.8,33.3 211.6,32.9 C212.3,32.8 212.9,32.7 213.8,32.5 C212.9,31.5 212.2,30.6 211.5,29.7 C211,29.1 210.5,29 209.8,29.1 C208.4,29.3 207,29.5 205.7,29.7 C201.8,30.1 197.9,30.4 194,30.9 C190.2,31.4 186.5,32.3 182.7,33 C182.4,33.1 182.1,33.2 181.6,33.4 C184.4,37.5 187.1,41.5 189.9,45.6 Z M169.4,8.1 C169.4,8.2 169.5,8.2 169.5,8.3 C169.9,8.3 170.3,8.2 170.7,8.2 C175.7,7.7 180.8,7 185.8,6.8 C193.3,6.4 200.7,6.8 208.2,7.9 C209.4,8.1 210.6,8.1 211.8,8.2 C211.9,8.1 211.9,8 212,7.8 C211.8,7.7 211.6,7.6 211.5,7.5 C209.9,6.4 208.3,5.3 206.6,4.2 C206.2,3.9 205.6,3.8 205.1,3.8 C203.9,3.7 202.8,3.9 201.6,3.8 C199.2,3.6 196.9,3.4 194.6,3.2 C189.6,2.8 184.7,2.8 179.8,3.5 C178.4,3.7 177,4.1 175.7,4.6 C174.4,5.1 173.2,5.9 171.9,6.6 C171,7.2 170.2,7.7 169.4,8.1 Z" id="Shape" fill="#000000"></path>
                    <path d="M37.9,121.5 C36.7,121.2 35.6,121 34.6,120.7 C31.9,120.2 29.4,119 27,117.8 C20.6,114.5 14.3,111.3 7.9,108 C6.4,107.3 5,106.5 3.6,105.7 C2.5,94.5 3.7,83.5 4.3,72.3 C4.9,72.4 5.5,72.5 6,72.7 C10,73.7 14,74.8 18.1,75.8 C18.7,76 19.3,76.2 19.9,76.5 C22.6,77.8 25.4,78.8 28.3,79.6 C30.2,80.1 31.9,81 33.7,81.9 C35.3,82.8 36.9,83.6 38.6,84.4 C39.6,84.8 40,85.6 40.1,86.5 C40.3,88.1 40.4,89.8 40.3,91.4 C39.9,97.5 39.4,103.5 38.9,109.6 C38.6,113.2 38.4,116.8 38.1,120.4 C38,120.8 38,121 37.9,121.5 Z" id="Shape" fill="#FFFFFF"></path>
                    <path d="M77.7,55.6 C76.1,56.9 74.7,58 73.2,59.2 C71.5,60.5 69.8,61.8 68,63.1 C61,68.2 54.1,73.2 47.1,78.2 C45,79.7 43.1,81.4 41.1,83 C39.4,82.2 37.6,81.5 35.9,80.5 C33,78.7 29.9,77.4 26.7,76.6 C25.2,76.2 23.7,75.6 22.2,74.9 C19.8,73.8 17.3,73 14.7,72.4 C11.8,71.7 8.9,71 6,70.2 C6,70.1 6,70 6,69.9 C9.7,68.2 13.4,66.4 17.3,64.7 C17.5,65.5 17.5,66.2 17.7,66.8 C17.9,67.8 18.5,68.3 19.3,68.1 C20,67.9 20.3,67.3 20.2,66.4 C20.1,65.5 20,64.7 19.8,63.7 C20.9,63.2 21.9,62.8 22.9,62.3 C27.4,60.4 31.9,58.4 36.5,56.5 C40.7,54.7 45,52.9 49.2,51.2 C51.6,50.2 54.1,49.4 56.6,48.3 C58.1,47.6 59.4,47.7 60.8,48.6 C62.5,49.7 64.4,50.4 66.4,51 C68.3,51.6 70.3,52.3 72.2,53 C73.5,53.5 74.8,54 76.1,54.6 C76.6,54.8 77,55.2 77.7,55.6 Z" id="Shape" fill="#FFFFFF"></path>
                    <path d="M119.7,74.1 C117.4,74.1 115.2,74.2 113,74.1 C111.5,74 110.2,74.4 109,75.3 C106.9,76.9 104.7,78.3 102.6,79.8 C100.8,78.7 98.9,79.3 96.9,79.1 C96.9,78.4 96.8,77.7 96.9,77.1 C97.4,73 97.9,68.9 98.5,64.8 C98.8,62.9 99.3,61 99.5,59.1 C100,54.9 100.4,50.7 100.8,46.5 C100.8,46.1 101.1,45.6 101.4,45.3 C103.6,43.2 105.8,41.1 107.9,39 C110,37 112.1,35 114.1,33 C114.3,32.8 114.5,32.6 114.7,32.4 C117.3,30.1 119.8,27.8 122.4,25.6 C122.5,25.5 122.6,25.5 122.9,25.4 C123.6,25.9 124.3,26.4 125,27 C127.4,29.1 129.7,31.2 132.1,33.3 C134.5,35.4 136.8,37.5 139.2,39.5 C139.3,39.6 139.4,39.7 139.5,39.7 C141.1,40.3 141.2,41.6 141.3,43 C141.6,47.4 141.4,51.9 141.2,56.3 C141,60 141.3,63.7 141.8,67.4 C142.2,70.1 142.3,72.9 142.2,75.8 C140.8,75.7 139.6,75.6 138.1,75.5 C137.8,73.3 137.4,71.2 137.1,69.1 C136.7,65.8 136.3,62.4 135.8,59.1 C135.5,57.3 135,55.5 134.6,53.7 C134.3,52.6 133.6,52 132.6,52 C130.5,52.1 128.5,52.2 126.4,52.4 C125.7,52.5 125,52.6 124.3,52.7 C122.8,52.8 122.4,53.2 122,54.7 C121.8,55.7 121.6,56.7 121.5,57.8 C121,62.1 120.6,66.5 120.1,70.8 C120,72 119.8,73.1 119.7,74.1 Z M120.1,58.8 C120,58.8 120,58.8 119.9,58.8 C119.9,57.7 120,56.6 119.9,55.6 C119.7,53.5 118.8,52.8 116.7,53.1 C116.3,53.2 116,53.3 115.6,53.3 C114.9,53.4 114.2,53.5 113.5,53.5 C112.9,53.5 112.2,53.5 111.6,53.5 C109.7,53.7 107.8,53.9 105.9,54 C104.4,54.1 104,54.3 103.8,55.7 C103.5,57.4 103.2,59.2 103,60.9 C102.8,62.3 102.6,63.8 102.6,65.2 C102.6,67 103.5,67.7 105.2,67.7 C106.4,67.6 107.7,67.5 108.9,67.4 C111.4,67.2 113.9,67 116.4,66.7 C118.3,66.5 118.8,66 119.2,64.2 C119.7,62.5 119.9,60.6 120.1,58.8 Z M128.6,39.3 C128.4,38.8 128.3,37.9 127.9,37.2 C126.7,34.6 123.1,33.5 120.5,34.1 C120.2,34.2 119.9,34.3 119.7,34.5 C117.4,36.5 116.6,39.1 116.5,42.1 C116.4,44 117.6,45 119.5,45.9 C121.6,46.8 123.5,46.4 125.4,45.3 C127.5,44 128.3,42.1 128.6,39.3 Z" id="Shape" fill="#FFFFFF"></path>
                    <path d="M73.3,28.1 C75.2,27.5 76.9,26.8 78.7,26.3 C81.3,25.6 83.9,25.1 86.5,24.5 C87.9,24.2 89.3,23.7 90.5,22.9 C90.9,22.6 91.3,22.5 91.9,22.2 C92.2,23.1 92.5,23.9 92.6,24.7 C93.3,28.5 93.9,32.3 94.5,36 C94.7,37.1 94.9,38.1 95.2,39.3 C94.8,39.8 94.3,40.5 93.8,41.1 C93.2,41.8 93,42.5 93.4,43.4 C93.6,43.7 93.6,44.1 93.5,44.4 C92.8,48.4 92.1,52.3 91.4,56.2 C88,57.8 84.7,59.1 81,60.1 C80.9,59.5 80.9,59.1 80.8,58.7 C80.7,57.4 80.5,56.1 80.4,54.8 C80.3,54 79.9,53.6 79.2,53.3 C78.4,52.9 77.7,52.6 76.9,52.2 C75.7,51.7 74.5,51.1 73.2,50.5 C73.1,49.9 73,49.2 72.9,48.4 C72.8,46.7 72.8,45 72.6,43.4 C72.3,40.3 72.6,37.3 72.9,34.2 C73.1,32.5 73,30.8 73.1,29.2 C73.3,28.8 73.3,28.4 73.3,28.1 Z" id="Shape" fill="#FFFFFF"></path>
                    <path d="M40.7,119.3 C40.8,117.4 40.9,115.5 41,113.6 C41.3,109.1 41.7,104.6 42.1,100.1 C42.3,97.2 42.6,94.4 42.8,91.5 C42.9,89.9 42.8,88.3 42.6,86.7 C42.5,85.7 42.7,85.1 43.5,84.5 C47.5,81.5 51.4,78.4 55.4,75.4 C58.2,73.3 61,71.3 63.8,69.3 C66.2,67.6 68.6,65.9 71,64.1 C73.4,62.3 75.6,60.5 78,58.6 C78.1,58.5 78.2,58.5 78.3,58.4 C79.1,61.3 79.3,83.1 78.6,85.6 C77.5,86.3 76.4,87.1 75.2,87.9 C75,87.3 74.9,86.9 74.8,86.5 C74.1,83.6 73.4,80.8 72.6,77.9 C72.4,77 71.9,76.1 71.5,75.3 C70.8,73.9 70,73.7 68.7,74.6 C67.2,75.6 65.9,76.8 64.5,77.9 C62.8,79.3 61.2,80.8 59.4,82.1 C56.2,84.4 52.9,86.7 49.5,88.9 C48.3,89.7 48,90.6 47.9,92 C47.7,94.9 47.4,97.8 47,100.7 C46.5,104.7 45.9,108.7 45.3,112.7 C45.1,114 44.9,115.3 44.6,116.6 C44.5,117 44.2,117.4 43.9,117.6 C43,118.3 42.1,118.9 41.1,119.6 C40.9,119.4 40.8,119.4 40.7,119.3 Z" id="Shape" fill="#FFFFFF"></path>
                    <path d="M140.2,132.7 C140.3,131.9 140.3,131.3 140.4,130.7 C140.9,124.7 141.5,118.8 142,112.8 C142.2,110.3 142.5,107.7 142.8,105.2 C142.9,104.8 143.1,104.3 143.3,103.9 C145.5,100.5 147.6,97.1 149.8,93.7 C151.5,91.2 153.2,88.8 155,86.4 C155.7,85.4 156.5,84.4 157.3,83.3 C157.4,85 157.5,86.6 157.5,88.1 C157.6,97.3 157.6,106.5 157.6,115.7 C157.6,117.7 157.4,119.8 157.3,121.8 C157.3,122.4 157.1,122.8 156.5,123.2 C155,124.1 153.6,125 152.1,125.9 C149.3,127.5 146.5,129.1 143.8,130.6 C143.1,131 142.4,131.5 141.7,131.9 C141.2,132.1 140.8,132.3 140.2,132.7 Z" id="Shape" fill="#FFFFFF"></path>
                    <path d="M137.5,133.6 C136.1,133.8 134.9,133.5 133.7,133.2 C132.9,133 132.2,132.6 131.5,132.3 C130.8,132 130.4,131.6 130.4,130.8 C130.5,128.7 130.5,126.6 130.5,124.6 C130.5,121.3 130.6,118 130.6,114.6 C130.6,113.2 130.4,111.7 130.1,110.3 C129.8,108.7 129.2,108.2 127.6,108 C126.4,107.9 125.1,107.9 123.9,107.8 C120.8,107.5 117.7,107.2 114.6,106.9 C114.4,106.9 114.2,106.8 114,106.8 C110.2,106.9 106.4,106.3 102.7,106 C100.7,105.8 98.7,106.1 96.7,106.2 C95.9,106.2 95.5,106.9 95.3,107.6 C94.7,109.9 94.1,112.1 93.7,114.4 C92.9,118.7 92.2,123 91.4,127.3 C91.4,127.4 91.3,127.5 91.2,127.7 C90.1,127.3 89.1,126.9 88,126.5 C88,126 88,125.6 88,125.1 C88.9,117.3 89.8,109.5 90.6,101.7 C90.8,99.7 91.9,98.3 92.8,96.7 C93,96.4 93.3,96.3 93.8,96 C94,96.6 94.1,97 94.2,97.4 C94.7,98.5 95,99.7 95.7,100.6 C96.8,102.2 98.4,102.1 99.5,100.5 C99.9,99.9 100.3,99.2 100.7,98.6 C101,98.2 101.4,97.8 101.9,97.2 C102.1,98 102.3,98.6 102.5,99.1 C102.7,99.9 102.9,100.7 103.3,101.5 C104.2,103.4 105.9,103.6 107.2,102.1 C107.9,101.3 108.4,100.3 109,99.4 C109.2,99.1 109.4,98.9 109.7,98.4 C109.9,99 110,99.5 110.1,99.9 C110.5,101 110.8,102.1 111.3,103.2 C111.9,104.6 113,104.9 114.5,104.8 C116.2,104.7 117.3,104 118.2,102.6 C118.7,101.9 119.4,101.2 120,100.6 C121,100.8 121.2,101.5 121.3,102.2 C121.5,102.9 121.6,103.6 121.8,104.3 C122.1,105.4 122.8,106.1 124,106.2 C125.2,106.3 126.1,105.7 126.6,104.7 C126.9,104.1 127.2,103.4 127.5,102.7 C127.7,102.3 128,101.9 128.4,101.3 C128.6,102.1 128.8,102.5 128.9,103 C129.1,103.9 129.2,104.7 129.4,105.6 C130,107.6 131.9,108 133.3,106.5 C133.8,106 134.1,105.3 134.4,104.7 C134.6,104.3 134.8,103.8 135.1,103.5 C135.2,104.2 135.4,104.9 135.5,105.6 C135.5,105.8 135.6,106.1 135.7,106.3 C136.3,108.2 137.6,108.6 139.1,107.3 C139.2,107.2 139.3,106.9 139.4,106.8 C139.5,106.9 139.6,106.9 139.7,107 C139.2,115.7 138.4,124.6 137.5,133.6 Z" id="Shape" fill="#FFFFFF"></path>
                    <path d="M70.5,49.5 C69.2,49.1 68,48.8 66.7,48.4 C66.8,46.4 67,44.4 67,42.4 C67,40.6 66.9,38.8 66.7,37 C66.6,36.1 66.1,35.4 65.3,34.9 C63,33.6 60.7,32.2 58.4,30.9 C56.8,30 55.1,29.3 53.4,28.5 C52.6,28.1 51.9,27.8 51.1,27.4 C49.4,26.5 48.2,27 47.9,28.9 C47.6,30.8 47.4,32.7 47.1,34.6 C46.6,37.9 46.1,41.2 45.6,44.5 C45.6,44.7 45.5,45 45.5,45.2 C44.4,45.2 43.6,44.7 42.9,44 C42.7,43.8 42.6,43.4 42.6,43.1 C42.6,38.5 42.4,34 42.6,29.4 C42.8,23.6 43.4,17.8 43.8,12.1 C43.9,11.3 43.9,10.4 44,9.5 C46.6,11.3 49.5,12.7 51.6,15 C52.1,15.6 52.9,15.9 53.6,16.3 C55,17.3 56.5,18.1 57.9,19.2 C59.9,20.7 61.8,22.2 64,23.4 C65.8,24.3 67.4,25.4 69.1,26.5 C69.6,26.8 70.1,27 70.8,27.3 C70.8,28.9 70.8,30.5 70.8,32.2 C70.8,32.6 70.8,32.9 70.7,33.3 C69.9,38.2 70.2,43.1 70.6,48 C70.6,48.6 70.5,49 70.5,49.5 Z" id="Shape" fill="#FFFFFF"></path>
                    <path d="M124.3,55.5 C127.1,54.8 129.6,54.7 132.1,54.7 C132.9,56.5 135.4,72.2 135.4,75.2 C134.4,75.5 125.7,75 122.2,74.5 C122.9,68.2 123.6,61.8 124.3,55.5 Z" id="Shape" fill="#FFFFFF"></path>
                    <path d="M18.8,52 C18.4,48.8 17.3,45.7 17.6,42.4 C19.9,40.9 22.2,39.5 25,39.4 C25.8,39.3 26.7,39.4 27.5,39.6 C29.7,40.2 31.8,41 34.3,40.3 C34.6,42.8 34.8,45.1 34.6,47.4 C34.6,47.8 34.2,48.2 33.9,48.4 C31.2,50.5 28.2,51.5 24.8,51.4 C23.8,51.4 22.8,51.4 21.8,51.5 C20.9,51.6 19.9,51.8 18.8,52 Z" id="Shape" fill="#FFFFFF"></path>
                    <path d="M116,19.4 C117.6,20.8 119.2,22.1 120.8,23.5 C113.4,30.4 106,37.3 98.6,44.2 C97.9,43.6 97.1,42.9 96.2,42.1 C96.7,41.6 97.1,41.1 97.6,40.6 C98.7,39.7 99.6,38.5 100.4,37.3 C101,36.3 101.9,35.4 102.6,34.5 C103.4,33.6 104.2,32.7 104.9,31.8 C105.7,30.9 106.5,29.9 107.3,29 C108.3,27.9 109.4,26.9 110.4,25.8 C112.2,23.7 114.1,21.6 116,19.4 Z" id="Shape" fill="#FFFFFF"></path>
                    <path d="M115.4,102.1 C114.8,102.1 114.3,102.2 113.6,102.2 C113.1,100.7 112.6,99.1 112.1,97.5 C112.8,96.7 113.4,95.9 114.1,95.2 C117.9,91.3 121.6,87.5 125.4,83.6 C127.1,81.9 129.1,80.3 130.9,78.6 C131.6,77.9 132.4,77.6 133.4,77.8 C133.9,77.9 134.3,77.9 135,77.9 C134.7,78.4 134.5,78.7 134.2,79.1 C131.7,82.3 129.2,85.4 126.7,88.6 C124.6,91.4 122.5,94.2 120.4,96.9 C120,97.4 119.3,97.8 118.8,98.3 C118.5,98.6 118.1,98.9 117.8,99.2 C117,100.1 116.3,101.1 115.4,102.1 Z" id="Shape" fill="#FFFFFF"></path>
                    <path d="M124.3,103.4 C123.9,101.8 123.8,99.9 122.3,98.8 C123.8,96.9 125.2,95 126.6,93.2 C128.5,90.7 130.4,88.1 132.3,85.6 C133.9,83.5 135.6,81.5 137.2,79.4 C137.9,78.5 138.8,78 140.1,78.2 C140.9,78.4 141.8,78.3 142.8,78.4 C142.5,78.8 142.3,79.1 142.1,79.4 C139.4,83 136.6,86.5 134,90.1 C132.3,92.4 130.7,94.9 129,97.3 C128.4,98.1 127.6,98.8 127,99.5 C126.4,100.2 125.9,101 125.4,101.8 C125.1,102.3 124.9,102.9 124.7,103.4 C124.5,103.4 124.4,103.4 124.3,103.4 Z" id="Shape" fill="#FFFFFF"></path>
                    <path d="M132.1,104.1 C131.6,102.4 131.1,101 130.6,99.3 C135.6,92.4 140.2,85 146.2,78.6 C147.6,78.6 149,78.6 150.6,78.6 C150.1,79.3 149.8,79.8 149.4,80.3 C147,83.5 144.5,86.7 142.1,89.9 C141.7,90.4 141.2,91 140.9,91.6 C139.4,94.6 137.2,97.2 135.3,100 C135.1,100.2 135,100.5 134.7,100.6 C133.3,101.1 132.8,102.2 132.4,103.5 C132.4,103.6 132.3,103.8 132.1,104.1 Z" id="Shape" fill="#FFFFFF"></path>
                    <path d="M96,45.4 C96.8,46 97.5,46.5 98.2,47.1 C97.8,56.9 95.5,66.5 94.3,76.3 C93.6,75.2 92.9,74.1 92.1,73 C92,72.9 92,72.8 91.9,72.7 C90.6,71.5 90.9,70.1 91.3,68.6 C92.9,62.3 94.4,55.9 95.2,49.5 C95.3,48.1 95.7,46.8 96,45.4 Z" id="Shape" fill="#FFFFFF"></path>
                    <path d="M97.3,98.7 C96.9,97.3 96.4,96 96,94.6 C96.1,94.5 96.2,94.3 96.3,94.2 C100.8,90.8 105.2,87.3 109.7,83.9 C112.3,81.9 115,79.9 117.6,77.8 C118.8,76.8 120,76.6 121.6,77.1 C120.7,77.9 120,78.7 119.1,79.3 C115.3,82.3 111.9,85.8 108.4,89.1 C106.7,90.7 105.1,92.2 103.4,93.8 C103.1,94.1 102.7,94.4 102.3,94.5 C100.8,94.7 99.9,95.7 99,96.7 C98.5,97.3 98.1,98 97.6,98.6 C97.5,98.7 97.4,98.7 97.3,98.7 Z" id="Shape" fill="#FFFFFF"></path>
                    <path d="M140.3,103.3 C139.6,103.6 139,103.9 138.2,104.2 C138,103.3 137.7,102.4 137.4,101.3 C138,100.5 138.6,99.7 139.2,98.8 C140.3,97.1 141.4,95.4 142.6,93.7 C143,93.1 143.4,92.4 143.9,91.8 C146.5,88.4 149.1,85 151.7,81.6 C152.4,80.7 153.1,79.9 153.9,79 C154.7,79.1 155.6,79.1 156.6,79.2 C156.1,80.1 155.6,80.9 155.1,81.6 C154.6,82.4 154.2,83.2 153.6,83.9 C151.1,87.2 148.6,90.5 146.5,94.2 C144.6,97.4 142.5,100.4 140.5,103.5 C140.5,103.4 140.4,103.3 140.3,103.3 Z" id="Shape" fill="#FFFFFF"></path>
                    <path d="M125.5,77.4 C126.2,77.5 127,77.6 127.9,77.7 C127.1,78.6 126.3,79.4 125.5,80.2 C122,83.7 118.5,87.1 115.1,90.6 C113.5,92.2 112,93.9 110.5,95.5 C110.3,95.7 110,95.9 109.7,96 C108.4,96.2 107.6,97 107,98.1 C106.6,98.8 106.1,99.6 105.6,100.3 C105.5,100.3 105.4,100.3 105.4,100.2 C105.1,99 104.8,97.8 104.4,96.4 C111.3,89.9 117.9,83.1 125.5,77.4 Z" id="Shape" fill="#FFFFFF"></path>
                    <path d="M88.7,98.5 C87.5,97.3 87.4,95.5 88.5,94.6 C91.4,92.1 94.3,89.6 97.3,87.1 C99.4,85.4 101.5,83.7 103.7,82.1 C106.1,80.3 108.6,78.6 111.1,76.8 C111.3,76.6 111.7,76.5 112,76.5 C112.9,76.5 113.7,76.5 114.6,76.5 C114.6,76.6 114.7,76.7 114.7,76.8 C113.6,77.7 112.6,78.5 111.5,79.4 C106.5,83.2 101.6,87.1 96.6,90.9 C95.3,91.9 93.9,92.8 92.6,93.7 C91.4,94.5 90.6,95.5 89.9,96.7 C89.5,97.3 89.1,97.9 88.7,98.5 Z" id="Shape" fill="#FFFFFF"></path>
                    <path d="M77.9,12.5 C78.4,12.7 79.2,13 79.9,13.3 C80,13.3 80.1,13.4 80.3,13.6 C74.4,16.1 68.6,18.3 62.4,19.8 C61.8,19.4 61.2,18.9 60.3,18.3 C66.2,16.3 71.9,14.5 77.9,12.5 Z" id="Shape" fill="#FFFFFF"></path>
                    <path d="M67.2,22.8 C66.8,22.5 66.3,22.2 65.7,21.7 C71.8,19.8 77.7,17.7 83.5,15 C84.1,15.4 84.8,15.9 85.7,16.5 C79.7,19.3 73.8,21.7 67.2,22.8 Z" id="Shape" fill="#FFFFFF"></path>
                    <path d="M70.8,24.5 C77,23.4 82.4,20.6 88.1,18.3 C88.9,18.8 89.7,19.2 90.6,19.8 C88.9,21 87.2,21.9 85.2,22.2 C82.7,22.7 80.3,23.3 77.9,23.9 C76.4,24.3 75,24.9 73.6,25.3 C72.2,25.6 72.2,25.6 70.8,24.5 Z" id="Shape" fill="#FFFFFF"></path>
                    <path d="M73.7,9.6 C74,9.8 74.5,10.2 75.2,10.7 C69.3,12.6 63.6,14.5 58,16.3 C57.2,15.8 56.4,15.3 55.5,14.7 C61.7,13 67.6,11.4 73.7,9.6 Z" id="Shape" fill="#FFFFFF"></path>
                    <path d="M49.2,10.1 C48.1,9.4 47.1,8.8 46.1,8.1 C46.1,8 46.2,7.9 46.2,7.8 C47.6,7.6 49,7.3 50.4,7.1 C54.9,6.4 59.4,5.7 63.9,4.9 C64.4,4.8 65,4.8 65.6,4.8 C65.9,4.8 66.3,5 66.6,5.2 C60.8,6.9 54.8,7.8 49.2,10.1 Z" id="Shape" fill="#FFFFFF"></path>
                    <path d="M52.7,12.9 C52.5,12.7 52.2,12.3 51.8,11.9 C53,11.5 54.1,11 55.3,10.8 C58.3,10.1 61.4,9.4 64.4,8.7 C66.2,8.3 67.9,7.7 69.7,7.3 C69.7,7.2 69.7,7.1 69.7,7 C70.1,7.2 70.5,7.4 71.2,7.8 C68.1,9.1 65,9.5 62.1,10.5 C59.1,11.3 56,12 52.7,12.9 Z" id="Shape" fill="#FFFFFF"></path>
                    <path d="M218.9,120.2 C217.3,118.2 215.8,116.5 214.4,114.7 C213.9,114.1 213.9,113.5 213.9,112.8 C214.2,108 214.6,103.2 215.5,98.5 C216,95.7 216.1,92.9 216.1,90 C216.1,89.2 215.8,88.7 215.3,88.1 C211.1,83.3 206,79.5 201.3,75.2 C199.7,73.8 197.8,72.7 196.5,70.9 C196.4,70.7 196.2,70.6 196,70.5 C193,69.2 190.9,66.7 188.1,65.1 C187.5,64.8 186.9,64.5 186.4,64.1 C185.4,63.4 184.5,62.6 183.6,61.9 C183.1,61.5 182.7,61.1 182.2,60.7 C181.3,60.1 180.2,60.3 179.9,61.4 C179.6,62.3 179.5,63.3 179.4,64.3 C179,68.2 178.4,72 177.4,75.7 C176.8,78 176.5,80.3 176.1,82.6 C176.1,82.9 176,83.1 175.9,83.6 C175.2,83 174.6,82.5 174,82 C173.5,81.5 173.3,80.9 173.4,80.1 C173.9,76.6 174.4,73.1 175,69.7 C176,63.2 177,56.7 178,50.1 C178.5,47.1 179.1,44.2 179.5,41.2 C179.8,39.6 179.9,38 180.1,36.4 C180.1,36.2 180.2,36 180.3,35.7 C180.6,36.1 180.7,36.3 180.9,36.5 C182.5,38.8 184.2,41.1 185.8,43.5 C186.6,44.8 187.3,46.1 188.1,47.4 C188.3,47.7 188.4,48 188.6,48.3 C189,49 189.5,49.6 190.4,49.5 C191.3,49.4 191.7,48.8 191.9,48 C192.2,47 192.4,46.1 192.6,45.1 C193,43.4 193.3,41.6 193.8,39.8 C194.4,40.6 195,41.4 195.4,42.2 C197.1,45.2 198.7,48.2 200.4,51.2 C202,54 203.7,56.8 205.4,59.6 C205.6,59.9 205.8,60.3 206,60.6 C206.3,61.2 206.7,61.6 207.4,61.5 C208.1,61.4 208.4,61 208.6,60.4 C209.2,58.7 209.7,57 210.2,55.3 C210.5,54.2 210.9,53.2 211.2,51.9 C211.7,52.7 212.1,53.3 212.4,53.9 C214.1,57 215.7,60 217.4,63.1 C217.4,63.1 217.4,63.2 217.5,63.2 C218.7,66.6 220.7,69.4 222.4,72.5 C223.4,74.2 224.3,75.9 225.1,77.3 C225,78.5 224.9,79.4 224.8,80.3 C224.4,82.7 224.1,85.2 223.5,87.6 C222.6,91.5 222.1,95.6 221.7,99.6 C221,105.7 220.5,111.9 219.3,117.9 C219.3,118.7 219.1,119.3 218.9,120.2 Z" id="Shape" fill="#FFFFFF"></path>
                    <path d="M250.2,111.8 C249.9,111.9 249.6,112.1 249.3,112.1 C246,113 242.6,113.9 239.3,114.9 C239,115 238.6,115 238.2,115.1 C236.6,115.3 235.1,115.6 233.7,116.2 C232,116.9 230.3,117.3 228.6,117.9 C227.9,118.2 227.1,118.5 226.4,118.9 C224.9,119.8 223.4,120.3 221.6,120.4 C221.6,120.2 221.6,120 221.6,119.8 C222.7,115 223.2,110.1 223.8,105.2 C224.3,100.6 224.8,96 225.5,91.4 C225.9,88.4 226.7,85.5 227.3,82.6 C227.4,82.1 227.4,81.6 227.5,81.1 C227.6,80.3 227.8,79.6 227.9,78.7 C230.8,77.8 233.7,76.8 236.5,75.9 C240,74.8 243.5,73.9 247,72.9 C248.1,72.6 249.2,72.3 250.3,72 C250.5,71.9 250.8,72 251.1,71.9 C251.1,72.5 251.2,73 251.2,73.5 C251.1,76.1 251,78.8 251,81.4 C250.8,88.4 250.4,95.4 250.7,102.4 C250.8,105.3 250.5,108.3 250.4,111.3 C250.4,111.4 250.3,111.6 250.2,111.8 Z" id="Shape" fill="#FFFFFF"></path>
                    <path d="M162.7,51.7 C160.4,51.8 158.3,51.9 155.9,52.1 C156,51.1 156.1,50.4 156.3,49.7 C157.5,42.8 158.6,35.9 159.9,29 C160.7,24.6 161.8,20.3 162.8,16 C163,14.9 163.5,13.9 163.9,12.8 C164.1,12.1 164.7,11.7 165.4,11.6 C174.7,10.2 183.9,9 193.3,9.3 C198.3,9.4 203.3,9.9 208.3,10.5 C210.4,10.8 212.6,10.8 214.8,11 C215.3,11 215.7,11.1 216.3,11.1 C217.1,14.5 217.8,17.9 218,21.4 C218.2,24.8 218.3,28.2 218.5,31.8 C218.1,31.9 217.5,31.9 216.9,32 C215.9,30.8 214.8,29.7 213.9,28.5 C212.6,26.8 211.1,26 208.9,26.7 C208.8,26.3 208.7,26 208.6,25.6 C208.2,24.3 207.4,23.6 206,23.4 C201.7,22.9 197.3,22.5 193,22.9 C190,23.1 186.9,23 183.9,23 C179.8,23 175.8,23 171.7,23 C169.9,23 168.8,23.6 168.3,25.4 C167.7,27.5 167.3,29.8 166.9,31.9 C166.2,35.5 165.6,39.2 164.5,42.8 C163.8,45.1 163.5,47.5 163.1,49.8 C162.9,50.4 162.8,50.9 162.7,51.7 Z" id="Shape" fill="#FFFFFF"></path>
                    <path d="M250.7,69.1 C242.8,71.5 235.1,73.7 227.4,76 C222.3,67.6 217.9,58.6 213.2,49.8 C213.5,49.7 213.6,49.6 213.7,49.6 C217.5,49.5 221.3,48.7 225.1,48 C227.7,47.5 230.2,47.3 232.8,46.9 C234.6,46.6 236.4,46.3 238.2,46 C238.8,45.9 239.4,45.9 240.1,45.8 C243.1,53.8 246.5,61.5 250.7,69.1 Z" id="Shape" fill="#FFFFFF"></path>
                    <path d="M229.7,44.6 C227.8,44.9 226,45.2 224.2,45.5 C221.2,46 218.3,46.5 215.3,46.9 C214.2,47.1 213,47 211.8,47 C210.2,47.1 209.9,47.4 209.5,48.9 C208.8,51.5 208,54.1 207.3,56.7 C207.2,56.9 207.1,57.1 206.9,57.5 C206.1,56.2 205.3,55.2 204.7,54 C201.8,48.8 199.2,43.5 195.9,38.6 C195.8,38.4 195.7,38.1 195.5,37.8 C195.9,37.7 196.1,37.7 196.4,37.7 C199.4,37.6 202.3,37 205.2,36.5 C208.6,35.9 212,35.4 215.5,34.8 C217.2,34.5 219,34.3 220.7,34 C221.5,33.9 222.2,34 222.9,34.6 C223.9,35.5 224.7,36.5 225.4,37.6 C226.6,39.6 227.9,41.6 229.2,43.6 C229.3,44 229.4,44.2 229.7,44.6 Z" id="Shape" fill="#FFFFFF"></path>
                    <path d="M189.9,45.6 C187.1,41.5 184.4,37.5 181.6,33.4 C182.1,33.2 182.4,33.1 182.7,33 C186.5,32.3 190.2,31.4 194,30.9 C197.9,30.3 201.8,30.1 205.7,29.7 C207.1,29.6 208.5,29.4 209.8,29.1 C210.5,29 211.1,29.1 211.5,29.7 C212.2,30.6 213,31.5 213.8,32.5 C212.9,32.7 212.3,32.8 211.6,32.9 C208.8,33.4 206,33.9 203.2,34.3 C200.4,34.7 197.6,35 194.8,35.3 C194.2,35.4 193.7,35.6 193.1,35.8 C192.1,36.1 191.6,36.9 191.4,37.9 C191,40.1 190.5,42.3 190.1,44.5 C190.1,44.8 190,45.1 189.9,45.6 Z" id="Shape" fill="#FFFFFF"></path>
                    <path d="M169.4,8.1 C170.2,7.6 171,7.1 171.8,6.7 C173.1,6 174.3,5.2 175.6,4.7 C176.9,4.2 178.3,3.8 179.7,3.6 C184.6,2.9 189.6,2.8 194.5,3.3 C196.8,3.5 199.2,3.7 201.5,3.9 C202.6,4 203.8,3.9 205,3.9 C205.5,3.9 206.1,4.1 206.5,4.3 C208.1,5.4 209.7,6.5 211.4,7.6 C211.6,7.7 211.7,7.8 211.9,7.9 C211.8,8 211.8,8.1 211.7,8.3 C210.5,8.2 209.3,8.2 208.1,8 C200.7,6.9 193.2,6.5 185.7,6.9 C180.6,7.2 175.6,7.8 170.6,8.3 C170.2,8.3 169.8,8.4 169.4,8.4 C169.5,8.3 169.5,8.2 169.4,8.1 Z" id="Shape" fill="#FFFFFF"></path>
                    <path d="M120.1,58.8 C119.8,60.6 119.7,62.4 119.3,64.2 C118.9,66.1 118.3,66.5 116.5,66.7 C114,67 111.5,67.2 109,67.4 C107.8,67.5 106.5,67.6 105.3,67.7 C103.6,67.8 102.6,67 102.7,65.2 C102.7,63.8 102.9,62.3 103.1,60.9 C103.3,59.2 103.6,57.4 103.9,55.7 C104.2,54.3 104.5,54.1 106,54 C107.9,53.9 109.8,53.7 111.7,53.5 C112.3,53.4 113,53.5 113.6,53.5 C114.3,53.5 115,53.4 115.7,53.3 C116.1,53.3 116.4,53.1 116.8,53.1 C118.9,52.8 119.8,53.5 120,55.6 C120.1,56.7 120,57.8 120,58.8 C120,58.8 120.1,58.8 120.1,58.8 Z M105.2,65.3 C109.1,65 112.9,64.8 116.7,64.2 C117.7,61.3 117.4,58.5 117.5,55.5 C113.7,56.5 109.9,55.7 106.2,56.8 C106,59.6 105.2,62.3 105.2,65.3 Z" id="Shape" fill="#000000"></path>
                    <path d="M128.6,39.3 C128.4,42.1 127.5,44 125.3,45.3 C123.4,46.4 121.4,46.8 119.4,45.9 C117.5,45 116.4,44 116.4,42.1 C116.5,39.1 117.3,36.5 119.6,34.5 C119.8,34.3 120.1,34.1 120.4,34.1 C123,33.4 126.6,34.6 127.8,37.2 C128.2,38 128.4,38.8 128.6,39.3 Z M118.7,41.6 C118.8,42.7 119.6,43.1 120.3,43.6 C121.7,44.4 122.9,43.9 124.1,43.2 C125.4,42.4 126,41.3 126,39.8 C126.1,38.4 125,37.3 123.4,36.7 C121.9,36.2 120.8,36.7 120.1,37.8 C119.4,38.9 119.1,40.3 118.7,41.6 Z" id="Shape" fill="#000000"></path>
                    <path d="M105.2,65.3 C105.1,62.3 105.9,59.6 106.2,56.9 C109.9,55.8 113.7,56.6 117.5,55.6 C117.4,58.5 117.7,61.4 116.7,64.3 C112.9,64.8 109.1,65 105.2,65.3 Z" id="Shape" fill="#FFFFFF"></path>
                    <path d="M118.7,41.6 C119.1,40.3 119.4,39 120.1,37.8 C120.8,36.7 121.9,36.2 123.4,36.7 C125,37.2 126,38.4 126,39.8 C125.9,41.2 125.4,42.4 124.1,43.2 C122.9,43.9 121.7,44.4 120.3,43.6 C119.6,43.1 118.8,42.7 118.7,41.6 Z" id="Shape" fill="#FFFFFF"></path>
                </g>
            </g>
        </g>
    </g>
</svg>