<?xml version="1.0" encoding="UTF-8"?>
<svg width="250px" height="149px" viewBox="0 0 250 149" version="1.1" xmlns="http://www.w3.org/2000/svg" xmlns:xlink="http://www.w3.org/1999/xlink">
    <!-- Generator: Sketch 46.2 (44496) - http://www.bohemiancoding.com/sketch -->
    <title>Global Community - Nice Sapiens</title>
    <desc>Created with Sketch.</desc>
    <defs></defs>
    <g id="Page-1" stroke="none" stroke-width="1" fill="none" fill-rule="evenodd">
        <g id="Global-Community---Nice-Sapiens" fill-rule="nonzero">
            <g id="Calque_2" transform="translate(18.000000, 45.000000)" fill="#B7D6E2">
                <path d="M0.8,65.8 C13.6,67 27.5,67.5 38.1,60.3 C42.1,57.5 45.4,53.8 48.7,50.3 C72.4,25.5 103.9,8.4 137.6,2 C151,-0.6 165.9,-1.1 177,6.7 C185.2,12.5 189.9,21.9 196,29.8 C201,36.2 207,41.9 211.3,48.8 C215.5,55.7 217.8,64.7 214.3,72 C209.6,81.9 197.1,84.9 186.2,86.6 C178.3,87.9 170.3,89.2 162.4,90.5 C150,92.5 137.5,94.5 124.9,94.3 C117.6,94.1 110.3,93.2 102.9,92.8 C92,92.2 81.1,92.8 70.3,94.7 C61.9,96.1 53.5,98.3 45,98.1 C35.6,97.9 26.5,94.9 17.6,91.9 C12.4,90.1 6.9,88.1 3.2,84 C-0.4,79.8 -1.4,72.7 2.7,69" id="Shape"></path>
            </g>
            <g id="Calque_1">
                <path d="M97.5,19.4 C95.5,17.2 95.2,14.6 95.4,11.8 C95.6,9.5 96.9,8.1 98.8,7.1 C99.3,6.8 99.9,6.6 100.4,6.3 C102.2,5.2 104.1,5.1 106.1,5.6 C107.3,5.9 108.2,6.6 109,7.6 C110.3,9.3 111.6,11.1 112.1,13.2 C112.1,13.3 112.2,13.4 112.3,13.6 C113.4,13.6 114.5,13.6 115.7,13.6 C116.1,11.3 117.7,9.5 119.2,7.7 C119.6,7.1 120.1,6.6 120.7,6.2 C124.7,3 129.1,0.9 134.3,0.4 C136.9,0.1 139.4,0.8 141.7,1.8 C143.9,2.8 145.8,4.3 147.1,6.3 C147.3,6.6 147.6,6.9 147.9,7.2 C148.2,6.9 148.5,6.6 148.8,6.3 C151.2,4.3 154.7,5.6 155.2,8.6 C155.5,10.5 154.9,12.3 154.2,14.1 C153.7,15.5 153.2,17 152.8,18.4 C153.8,19.7 154.7,20.9 155.6,22 C157.2,24 158.4,26.1 159.4,28.5 C159.8,29.4 160.3,30.3 160.8,31.1 C161,31.5 161.3,31.8 161.7,32.1 C164.1,33.8 166.4,35.6 169.1,36.9 C171.3,37.9 173.3,39.2 174.9,41.1 C175.2,41.4 175.6,41.7 175.9,42 C176.8,42.9 177.8,43.8 178.7,44.8 C179.6,45.8 180.4,46.8 181.1,47.9 C181.6,48.7 182,49.7 182.4,50.6 C183.3,53.1 184.1,55.7 185,58.2 C185.7,60.3 186.5,62.3 187,64.5 C187.6,67.7 187.7,70.9 187.7,74.2 C187.6,81 186.7,87.7 185.8,94.4 C185.4,97.2 184.7,99.9 184,102.6 C183.4,104.9 182.1,106.8 180.6,108.6 C178.5,111.2 176.4,113.9 174.4,116.5 C173.5,117.6 173.5,118.3 174.2,119.3 C174.4,119.3 174.6,119.4 174.8,119.3 C176.9,118.9 179,118.5 180.8,117.5 C182.9,116.3 185.1,115.5 187.5,114.9 C189.9,114.4 192.2,113.8 194.6,113.3 C197,112.8 199.3,113.3 201.5,114.2 C202.9,114.7 204.3,115.2 205.6,115.8 C209,117.2 212.5,117.5 216.1,116.8 C219.6,116.1 223.1,115.4 226.5,114.7 C230,113.9 233.4,114.1 236.8,114.9 C239,115.4 241.2,115.8 243.2,117.1 C244.5,118 245.7,119 246.5,120.3 C247.1,121.3 247.7,122.3 248.2,123.3 C250.1,127.2 249.1,131.8 245.6,134.4 C243.9,135.7 242,136.9 240.2,138.2 C238.7,139.3 237.3,140.4 235.8,141.5 C234.5,142.5 233.1,143.1 231.5,143.3 C229.2,143.5 226.9,143.8 224.6,143.9 C222.1,144 219.7,144.5 217.6,146 C216.2,147 214.6,147.9 212.8,148.2 C209.1,148.7 206.7,146 207.8,142.5 C208.5,140.2 209.9,138.5 212.4,137.7 C214.4,137.1 216.4,136.6 218.5,136.3 C221.3,136 224,135.5 226.8,135 C227.4,134.9 228,134.7 228.5,134.4 C230.9,132.7 233.3,131 235.6,129.3 C237.1,128.2 237.2,125.3 235.8,123.8 C234.9,122.8 233.9,122.2 232.4,122.5 C230.5,122.8 228.5,122.9 226.6,123.2 C225.3,123.4 224,124 222.7,124.3 C218.6,125.2 214.6,126 210.4,125.9 C208.6,125.9 206.8,125.5 205.2,124.6 C203.1,123.4 200.9,122.8 198.5,122.6 C198,122.6 197.5,122.6 197.1,122.7 C194.6,123.1 192.3,124 190,125.1 C187.8,126.2 185.4,127 183.1,127.8 C181.2,128.5 179.2,128.9 177.3,129.5 C175.5,130.1 173.7,129.9 172,129.5 C170.9,129.3 169.8,128.9 168.8,128.6 C167.7,128.2 166.7,127.7 165.5,127.7 C164.9,127.7 164.4,127.2 163.6,126.8 C163.1,126.9 162.5,127.2 161.8,127.3 C158.3,127.9 154.7,128.5 151.2,129.1 C149.7,129.3 148.2,129.3 146.7,128.8 C145.7,128.5 144.7,128.4 143.6,128.2 C141.4,127.7 139.3,127 137.3,125.7 C136.9,126.1 136.6,126.5 136.3,126.9 C135.3,128.3 134,128.8 132.4,128.8 C129.6,128.8 127,128.3 124.4,127 C122.1,125.9 119.9,124.8 118.1,123.2 C116.9,123.3 115.8,123.3 114.8,123.5 C113.4,123.8 111.9,124.2 110.6,124.9 C108.1,126.1 105.5,126.2 102.9,126.3 C101.6,126.4 100.3,126.4 99.1,126.4 C97.1,126.4 95,126.5 93,126.4 C91.4,126.3 89.9,127 88.3,127.2 C87.6,127.3 86.9,127.4 86.2,127.3 C84.7,127.1 83.8,125.9 84.2,124.5 C84.5,123.4 85.1,122.4 85.7,121.2 C84.9,118.3 85.9,116.3 88.9,114.9 C89.8,114.5 90.8,114.2 91.6,113.9 C93.9,110.3 97.3,108.7 101.3,108.3 C104.2,108 107,107.3 109.8,106.4 C109.9,105.7 110,105 110.1,104.4 C110.3,101.6 111.1,99 112,96.4 C113,93.7 114.7,91.3 116.5,89.1 C117.1,88.3 118.1,87.9 118.9,87.3 C119.4,86.9 120,86.7 120.5,86.2 C119.7,86.3 118.9,86.3 118.2,86.4 C116.4,86.7 114.7,86 113.2,85.1 C112.9,84.9 112.6,84.8 112.3,84.6 C111.2,83.9 110.3,83.1 109.8,81.8 C109.5,81 109,80.2 108.6,79.4 C105.6,80.3 103.3,79.1 101.4,77.4 C100,76.1 98.9,74.4 97.9,72.7 C97.4,71.9 97.4,70.8 97.1,69.8 C96.7,68.4 96.6,66.9 96,65.6 C95.6,64.6 95.6,63.5 95.6,62.4 C95.5,59.7 95.8,57 97.5,54.8 C97.7,54.5 97.8,54 97.7,53.6 C97.3,51.7 97,49.7 96.4,47.9 C94.7,42.1 94,36.1 94.4,30.1 C94.7,26.2 95.4,22.5 97.5,19.4 Z M166.2,88.4 C166.3,89.9 166.4,91.2 166.5,92.5 C166.9,96.4 167.3,100.2 167.7,104.1 C167.8,105.1 167.3,105.7 166.6,105.8 C165.9,105.9 165.4,105.4 165.2,104.4 C165.2,104.3 165.2,104.2 165.2,104 C165,102.2 164.9,100.5 164.7,98.7 C164.3,94.8 164,90.9 163.5,87 C163.2,84.7 162.6,82.3 160.5,80.8 C160.1,80.5 159.7,80.3 159.3,80.1 C157.6,79.3 155.8,78.9 153.9,78.6 C151.5,78.2 149.3,78.4 147.5,80.6 C146.8,81.5 145.6,82 144.7,82.7 C144.1,83.1 143.5,83.5 143,84 C140.8,86.9 138.7,89.9 137,93.1 C136.4,94.1 135.8,95.2 135,96.1 C133.4,97.9 132.3,99.9 131.6,102.2 C131,103.9 130.5,105.6 130,107.3 C129.3,109.4 128.2,111.2 126.7,112.8 C126,113.6 125.3,113.8 124.3,113.4 C123.9,113.2 123.5,113.1 123.1,112.9 C121.2,111.7 119.1,110.7 117,109.9 C115.5,109.4 114.1,108.8 112.6,108.3 C112.3,108.2 112,108.3 111.7,108.3 C110.4,108.6 109.2,109.1 107.9,109.4 C106,109.8 104.2,110.4 102.3,110.5 C99.6,110.7 97.3,111.5 95.3,113.2 C94.6,113.8 94.3,114.5 94.5,115.5 C95.1,115.5 95.6,115.5 96.2,115.6 C97.6,115.8 98.1,117.1 97.2,118.2 C97,118.4 96.7,118.6 96.5,118.9 C96.2,119.2 96,119.6 95.8,119.9 C95.9,120 95.9,120 96,120.1 C96.6,119.9 97.2,119.7 97.8,119.5 C99,119.2 99.7,119.8 99.8,121 C99.8,121.4 99.8,121.7 99.8,122 C100.5,122.7 101.4,122.8 102.1,122.4 C103.1,121.9 104,121.3 104.8,120.6 C106.1,119.5 107.5,118.5 109.2,118.1 C112.2,117.4 115.1,117.6 117.8,119.5 C120.4,121.4 122.9,123.3 125.9,124.6 C128,125.5 130.1,126.1 132.4,126.1 C133.5,126.1 134.2,125.7 134.8,124.9 C135.4,124.1 136,123.3 136.8,122.7 C137.9,122 138.6,121.2 139.3,120.2 C140.9,118 142.5,115.8 144.2,113.7 C144.4,113.4 144.7,113.1 145,112.8 C145.6,112.2 146.3,112.1 146.8,112.4 C147.4,112.8 147.4,113.6 146.9,114.3 C144.7,117.2 142.5,120.2 140.2,123.1 C140,123.3 139.9,123.5 139.7,123.9 C140.5,124.2 141.2,124.6 141.9,124.8 C143.7,125.3 145.5,125.6 147.3,126.1 C148.8,126.5 150.2,126.5 151.7,126.3 C153.7,126 155.7,125.7 157.7,125.3 C159.5,124.9 161.4,124.5 163.2,124.1 C164.4,123.8 165.6,123.6 166.2,124.8 C167.4,125.2 168.5,125.6 169.6,125.9 C170.6,126.2 171.6,126.6 172.6,126.8 C173.8,127 175.2,127.2 176.4,127 C181.4,126 186.3,124.4 190.8,121.9 C191.7,121.4 192.7,121 193.7,120.8 C196.1,120.1 198.6,119.4 201.1,120.1 C203,120.7 204.9,121.3 206.7,122.1 C207.9,122.6 209,123.1 210.2,123.1 C211.4,123.1 212.5,123.2 213.7,123.1 C216.7,122.7 219.8,122.1 222.8,121.5 C224,121.3 225.2,120.7 226.5,120.5 C228.9,120.1 231.3,119.9 233.8,119.7 C234.5,119.6 235.2,119.8 235.8,120 C238.7,121.4 240.3,124.2 239.8,127.3 C239.6,128.7 239.1,130 237.9,130.9 C235.5,132.7 233,134.5 230.5,136.2 C229.7,136.7 228.8,137 227.9,137.2 C226.6,137.5 225.3,137.5 224,137.7 C222.3,138 220.7,138.4 219,138.5 C217,138.7 215.1,139.3 213.2,140 C211.8,140.5 210.6,142.6 210.8,144.1 C211,145 211.4,145.5 212.3,145.4 C213.1,145.3 214,145.1 214.7,144.8 C215.9,144.2 217.1,143.5 218.2,142.8 C219.4,142.1 220.7,141.6 222.1,141.4 C225.2,141.1 228.3,140.9 231.4,140.6 C232.7,140.5 233.8,140 234.8,139.2 C236.3,138 237.8,136.9 239.3,135.8 C241.1,134.5 242.9,133.3 244.6,132 C246.9,130.3 247.6,127 246.4,124.4 C246,123.5 245.4,122.6 244.9,121.7 C244.1,120.3 242.9,119.3 241.5,118.5 C239.9,117.6 238.1,117.4 236.4,117 C232.8,116 229.3,116.3 225.7,117.1 C222.8,117.8 219.9,118.4 217,118.9 C212.7,119.7 208.5,119.3 204.4,117.6 C203.3,117.1 202.1,116.7 200.9,116.3 C198.8,115.5 196.7,115.1 194.6,115.6 C192.2,116.1 189.8,116.6 187.5,117.3 C185.8,117.8 184.1,118.4 182.5,119.3 C180.2,120.5 177.8,121.2 175.3,121.5 C172.9,121.9 171.3,120.4 171.2,118 C171.2,116.6 171.7,115.5 172.5,114.5 C174.7,111.7 176.9,108.9 179.1,106.1 C180.1,104.8 180.9,103.4 181.5,101.8 C182.7,98 183.4,94 183.8,90.1 C184.4,84.7 185.1,79.4 185.2,74 C185.3,70.6 184.9,67.2 184.4,63.9 C184.4,63.6 184.2,63.3 184.1,63 C183.4,61 182.6,59.1 181.9,57.1 C181.2,55 180.6,52.9 179.9,50.8 C179.7,50.3 179.5,49.7 179.2,49.3 C178.3,48 177.3,46.7 176.3,45.5 C176.1,45.2 175.8,44.9 175.5,44.6 C174.4,43.6 173.3,42.6 172.2,41.7 C171.4,41.1 170.6,40.5 169.8,40 C168,38.9 166.1,38 164.3,36.9 C163.2,36.3 162.3,35.4 161.3,34.8 C160,34 159.1,33 158.4,31.7 C157.7,30.2 157,28.7 156.3,27.3 C155.4,25.6 154.3,24.1 153,22.7 C152.5,23.9 152.2,25 151.7,26.1 C151.2,27.2 150.5,27.5 149.8,27.2 C149.1,26.8 149,26.1 149.5,25 C150.1,23.9 150.4,22.7 150.4,21.4 C150.5,18.5 151,15.6 152.2,12.9 C152.7,11.9 152.8,10.8 152.9,9.7 C153,9 152.7,8.4 152,8.2 C151.3,8 150.7,8.2 150.3,8.7 C150,9 149.8,9.4 149.5,9.7 C148.7,10.5 147.9,10.6 147.1,9.9 C146.4,9.3 145.8,8.6 145.3,7.8 C144.1,6.1 142.7,4.8 140.7,4 C139.1,3.4 137.5,2.9 135.9,2.8 C132.9,2.6 130.1,3.6 127.5,4.9 C124.4,6.4 121.5,8.4 119.6,11.5 C119,12.4 118.5,13.4 118.4,14.4 C118.1,16.2 117.2,16.8 115.5,16.2 C114.6,15.9 113.6,15.9 112.6,16.2 C112.7,16.6 112.8,16.9 113,17.1 C113.7,18.1 114.5,19.1 115.2,20.1 C115.6,20.7 116.2,21.3 116.5,21.9 C117.2,23.6 118,25.4 118.4,27.2 C118.8,29 119.8,30.4 120.9,31.7 C121.4,32.2 122,32.4 122.5,32.4 C121.4,30.6 120.2,28.8 119.2,27 C118.8,26.2 118.5,25.3 118.3,24.4 C118,23.4 118.2,22.3 118.7,21.4 C119.8,19.4 121.2,17.8 123.3,16.7 C126.2,15.2 129.4,14.6 132.6,14.1 C134.1,13.9 135.6,13.8 137.1,14.1 C139.7,14.6 141.9,15.8 143.8,17.4 C146.1,19.3 147.3,21.8 146.6,24.9 C146.4,25.8 146.2,26.7 146.1,27.6 C146,28.5 145.8,29.3 145.8,30.2 C145.7,31.4 145.8,32.6 145.8,33.8 C145.8,33.8 145.9,33.8 146,33.7 C146.1,33.4 146.3,33.1 146.4,32.8 C146.7,32 147.3,31.6 147.9,31.8 C148.5,32 149,32.7 148.8,33.4 C148.7,34 148.3,34.6 148.1,35.2 C147.6,36.5 146.9,37.7 146.6,39 C146.2,40.9 145.3,42.5 143.7,43.7 C142.8,44.4 142,45 141.1,45.6 C137.4,47.9 133.6,48 129.6,46.3 C129.2,46.1 128.9,45.9 128.6,45.7 C126.9,44.2 125.5,42.5 124.5,40.4 C123.9,39.1 123.2,37.9 122.6,36.7 C122.5,36.7 122.4,36.8 122.3,36.8 C122.5,37.5 122.7,38.2 123.1,38.8 C123.9,40 124.4,41.4 124.8,42.7 C125.5,45 126.1,47.4 127,49.7 C128.1,52.4 129.1,55.1 129.9,57.9 C130.4,59.6 131,61.3 131.6,63 C132.4,64.8 132.8,66.7 133,68.7 C133.1,69.8 132.7,70.8 131.8,71.4 C130.9,72 130,72.5 129.1,73 C128.5,73.4 127.9,73.7 127.1,74.2 C127.7,74.3 128,74.4 128.3,74.4 C129.5,74.4 130.7,74.3 131.9,74.3 C133.1,74.2 134.3,74 135.5,73.9 C137.1,73.8 138.6,73.8 140.2,73.7 C141,73.6 141.7,73.3 142.4,73 C143.4,72.5 144.3,71.8 145.3,71.3 C146.5,70.7 147.7,70.1 149,70.3 C149.4,70.3 149.7,70.2 150.3,70.1 C148.7,68.8 147.4,67.8 146,66.7 C144.6,65.6 144.1,64 143.8,62.3 C143.7,61.6 143.9,61.1 144.6,60.9 C145.2,60.7 145.7,61 146.1,61.6 C146.3,61.9 146.4,62.3 146.5,62.6 C146.8,63.6 147.3,64.5 148.2,65.1 C149.6,66.1 150.8,67.2 152.2,68.2 C152.8,68.6 153.6,69 154.3,69.2 C155.7,69.4 157.2,69.5 158.6,69.6 C159.5,69.7 160,70.1 160,70.8 C160.1,71.5 159.7,72.1 158.8,72.2 C156.7,72.5 154.5,72.7 152.4,72.7 C149.8,72.7 147.2,72.7 145,74.4 C143,76 140.7,76.4 138.3,76.4 C136.6,76.4 134.9,76.6 133.2,76.7 C132.1,76.8 131,76.9 129.9,77 C126.7,77.3 124.1,76 122,73.6 C121.1,72.5 119.8,72 118.6,71.1 C118.6,71.9 118.6,72.4 118.6,73 C118.5,74.4 117.8,75.2 116.5,75.3 C116,75.4 115.4,75.4 114.9,75.3 C113.2,74.9 111.4,74.9 109.8,74 C109.7,74 109.6,74 109.3,74.1 C109.8,75.1 110.1,76 110.6,76.8 C111.3,78.1 112.1,79.4 112.9,80.7 C113.2,81.1 113.5,81.6 113.9,81.8 C114.9,82.4 115.9,83 117,83.2 C118,83.4 119.3,83.4 120.2,83 C121.6,82.4 121.5,82.2 122.8,83.1 C123.7,83.1 124.7,83.1 125.6,83.1 C126.2,83.1 126.8,83.1 127.3,83.2 C129.8,84.1 132.3,83.9 134.9,83.8 C136.8,83.7 138.6,83.5 140.5,83.4 C140.8,83.3 141,82.9 141.3,82.7 C142.1,81.9 142.8,80.9 143.7,80.5 C145,79.8 146,79 147,78 C148.3,76.7 149.9,75.8 151.9,75.8 C154.9,75.8 157.7,76.4 160.4,77.4 C163.3,78.4 165,80.4 165.8,83.3 C166,84.1 166.2,84.8 166.4,85.6 C168.1,85.9 169.5,85.9 170.9,85 C171.4,84.6 172,84.4 172.7,84.2 C173.8,83.9 174.3,83.1 174.6,82.1 C175.1,80.1 175.1,78.1 174.6,76 C174.1,73.9 173.6,71.8 173.1,69.7 C172.3,66.8 171.5,63.9 170.7,60.9 C170.1,58.9 169.4,56.9 168.8,55 C168.5,53.9 168.7,53.1 169.5,52.9 C170.3,52.7 170.8,53.1 171.2,54.3 C171.8,56.3 172.5,58.2 173.1,60.2 C173.9,62.8 174.7,65.5 175.4,68.1 C176,70.5 176.5,72.9 177.1,75.2 C177.6,77 177.6,78.8 177.4,80.7 C177.2,82.3 177,83.9 175.8,85.1 C175,85.9 170,88.3 168.9,88.3 C167.7,88.6 167.1,88.5 166.2,88.4 Z M123.9,73 C125.4,72.2 126.8,71.4 128.1,70.7 C130.2,69.5 130.3,69.5 129.7,67 C129.3,65.3 128.6,63.7 128.1,62 C127.3,59.7 126.6,57.4 125.9,55 C124.8,51.7 123.3,48.6 122.5,45.3 C122,43.3 121.4,41.4 120.2,39.7 C119.9,39.3 119.9,38.8 119.7,38.4 C119,36.5 118.3,34.7 117.5,32.8 C116.8,31.2 115.9,29.6 115.6,27.8 C115.3,26.3 114.6,24.8 114,23.3 C113.9,23 113.7,22.6 113.4,22.4 C111.8,20.8 110.6,19 109.7,17.1 C108.5,16.6 107.3,16.5 106.1,16.9 C104.8,17.4 103.5,17.8 102.1,18.3 C101.5,18.5 101,18.8 100.6,18.9 C100.2,19.6 100,20.1 99.6,20.6 C98.4,22.3 97.7,24.2 97.3,26.2 C95.9,33.1 96.6,39.8 98.5,46.5 C99.4,49.5 99.6,52.7 100.8,55.7 C101,56.2 101,56.7 101.1,57.4 C101.8,56.4 102.3,55.6 102.9,54.9 C104.1,53.6 105.1,52 106.8,51.2 C108.4,50.4 109.8,51.3 109.6,53.1 C109.5,54 109.1,54.9 108.8,55.8 C108.7,56.2 108.5,56.5 108.2,57 C108.7,56.9 108.9,56.8 109.1,56.7 C110.1,56.4 111,56.1 112,55.9 C113.7,55.6 114.6,56.5 114.4,58.2 C114.3,58.7 114.1,59.2 113.9,59.7 C114.1,59.8 114.2,60 114.4,60.1 C116,61.7 115.8,63.9 113.8,65 C111.3,66.5 108.9,67.9 106.4,69.4 C106.6,69.8 106.7,70.2 106.9,70.6 C108.1,70.4 108.9,70.9 109.8,71.6 C110.4,72 111.2,72.3 111.9,72.5 C112.7,72.7 113.5,72.8 114.3,72.9 C114.6,72.9 114.9,72.9 115.3,72.9 C115.3,72.4 115.3,72 115.3,71.6 C115.4,70.9 115.4,70.2 115.6,69.6 C116.1,68 117.7,67.6 119,68.6 C119.3,68.8 119.5,69.1 119.8,69.3 C121.4,70.5 123.1,71.2 123.9,73 Z M124.2,35.1 C125.1,36.9 125.9,38.7 127,40.4 C127.7,41.6 128.7,42.6 129.6,43.6 C129.8,43.8 130.2,44.1 130.5,44.1 C131.5,44.1 132.5,44 133.4,43.7 C136,42.9 137.8,41.4 138.5,38.7 C138.8,37.3 139.6,36 141,35.3 C142.8,34.5 143,33.1 143,31.4 C143,30.2 143,28.9 143.2,27.7 C143.3,26.5 143.6,25.3 143.9,24.2 C144.1,23.3 144,22.5 143.6,21.6 C143.1,20.5 142.4,19.5 141.3,18.9 C140.5,18.4 139.7,17.8 138.8,17.5 C137.5,17 136,16.4 134.7,16.5 C131.1,16.6 127.6,17.2 124.4,18.8 C123.2,19.4 122.2,20.2 121.4,21.2 C120.2,22.6 120.1,24.1 121,25.6 C122.1,27.3 122.8,29.2 124.4,30.7 C125.2,31.5 125.4,32.5 125,33.6 C124.8,34.1 124.5,34.6 124.2,35.1 Z M112.6,105.7 C117,107.2 121.1,108.6 125,111.2 C125.7,110.2 126.4,109.4 126.8,108.5 C127.6,106.4 128.3,104.3 129,102.2 C129.8,99.9 130.6,97.5 132.2,95.7 C134.2,93.5 135.4,90.8 137.1,88.3 C137.5,87.8 137.8,87.2 138.2,86.4 C137.2,86.5 136.3,86.5 135.5,86.6 C133.5,86.8 131.6,87.2 129.6,86.8 C128.8,86.7 128,86.4 127.2,86.5 C125.7,86.8 124.3,87.2 122.9,87.8 C120,89.1 117.5,90.8 116.3,93.9 C116.3,93.9 116.3,94 116.2,94 C114.2,96.7 113.5,99.9 112.9,103.2 C112.7,104 112.6,104.8 112.6,105.7 Z M98.5,58.2 C98.4,58.3 98.3,58.6 98.3,58.8 C98.2,60.1 98.1,61.4 98.1,62.7 C98.1,63.9 98.6,65.1 98.9,66.3 C99.5,69.3 100,72.3 102.4,74.5 C102.4,74.5 102.5,74.6 102.5,74.6 C103,75.7 104.1,76.2 105.2,76.7 C105.7,76.9 106.3,76.9 107.1,77.1 C106.4,75.3 106.5,73.4 105.1,72.3 C103.4,72.6 102.5,72.3 101.7,70.9 C100.9,69.5 101.4,68.1 103,67.7 C103.9,67.4 104.9,67.3 105.8,67 C106.2,66.9 106.6,66.6 106.9,66.4 C107.6,65.9 108.3,65.4 109.1,65 C110.4,64.3 111.7,63.6 113,62.8 C113,62.7 112.9,62.6 112.9,62.6 C112.6,62.6 112.2,62.6 111.9,62.6 C111.5,62.6 111.2,62.7 110.8,62.7 C109.6,62.7 109,61.8 109.2,60.7 C109.3,60.3 109.4,60 109.5,59.6 C108.8,59.8 108.3,60.1 107.8,60.2 C106.4,60.5 105.3,59.6 105.5,58.1 C105.6,57.5 105.8,57 106,56.4 C106.1,56.1 106.2,55.9 106.3,55.6 C106.2,55.6 106.1,55.5 106,55.5 C105.3,56.5 104.6,57.5 103.8,58.5 C103.2,59.3 102.5,60 101.7,60.6 C101,61.2 100.3,61.1 99.7,60.3 C99.2,59.6 98.8,58.9 98.5,58.2 Z M109.6,14.1 C109.4,12.3 108.4,10.9 107.3,9.5 C106,7.8 104,7.2 102,8.2 C101.2,8.6 100.4,9 99.7,9.4 C98.7,10 97.9,10.8 97.9,12 C97.9,12.9 97.9,13.8 98,14.7 C98.1,15.4 98.4,16 98.7,16.7 C99.5,16.4 100.1,16.1 100.7,15.9 C103.6,15.3 106.3,13.4 109.6,14.1 Z M96.9,122.6 C93.3,123 92.4,121.7 93.6,118.1 C93.3,117.9 92.9,117.7 92.6,117.5 C92.3,117.2 92,116.9 91.7,116.5 C90,116.9 89,117.4 88.4,118.2 C87.9,119 87.8,119.5 88.3,120.2 C89.2,121.5 89.1,121.9 87.9,122.9 C87.4,123.4 86.8,123.8 86.8,124.9 C90.3,123.6 93.8,123.5 97.5,123.8 C97.3,123.3 97.1,123 96.9,122.6 Z M138.7,43.8 C142,42.4 144,40.1 144.1,36.4 C143.6,36.7 143.2,37 142.6,37.3 C141.8,37.7 141.3,38.3 141.1,39.1 C140.6,40.8 139.9,42.5 138.7,43.8 Z M105.5,123.5 C106.9,123.7 107.9,123.2 109,122.9 C110.7,122.3 112.4,121.7 114.1,121.1 C114.2,121.1 114.3,121 114.5,120.9 C111.6,119.6 108.1,120.6 105.5,123.5 Z" id="Shape" fill="#000000"></path>
                <path d="M66.7,117.3 C66.1,117.7 65.5,118.1 65,118.5 C64.4,118.9 63.7,119.3 63.1,119.8 C61.5,121.1 59.7,121.9 57.7,122.1 C55.8,122.3 53.9,122.3 52.1,121.7 C46.5,119.9 40.9,120 35.3,121.3 C31.7,122.1 28.2,123.1 24.6,123.9 C20.9,124.7 17.1,124.7 13.4,124.2 C11.3,123.9 9.2,123.4 7.2,122.9 C5.2,122.3 3.4,121.1 2,119.6 C0.7,118.2 0.2,116.5 0.7,114.6 C1.8,110 4.3,106.2 8,103.2 C11.3,100.5 15,98.9 19.1,97.7 C23.5,96.4 27.9,95.9 32.3,94.9 C35.4,94.2 38.5,93.3 41.3,91.6 C41.2,91.4 41,91.2 40.9,91 C40.5,90.4 40.1,89.8 39.7,89.3 C39.3,88.7 39,88.1 38.6,87.6 C36.8,85.5 36.5,83.1 36.7,80.4 C37,76.4 38.9,73.3 41.5,70.6 C42.3,69.7 43.6,69.2 44.8,68.5 C44.7,67.7 44.4,66.6 44.3,65.6 C44,63.9 43.7,62.1 43.5,60.4 C43.3,58.6 44.3,57.5 46.1,57.7 C47.4,57.8 48.8,58.2 50.1,58.4 C50.4,58.5 50.7,58.7 50.9,58.8 C51.4,59.2 51.6,59.7 51.4,60.3 C51.2,60.9 50.7,61.2 50.1,61.1 C49.1,60.9 48,61.1 47.1,60.4 C46.9,60.2 46.6,60.3 46.1,60.2 C46.2,62.9 46.8,65.4 47.3,68 C48.8,68.1 50.1,68.2 51.4,68.3 C54.4,68.5 56.6,70.1 58.8,71.9 C59,72.1 59.1,72.3 59.3,72.6 C59.9,73.5 60.6,74.3 61.5,75.1 C62.3,75.9 62.9,77 63.4,78.1 C65.1,81.6 66,85.4 67.3,89 C67.4,89.2 67.4,89.4 67.5,89.6 C68.9,92.5 69.6,95.5 70.5,98.6 C70.6,99 70.8,99.4 71,99.9 C71.2,99.9 71.4,99.9 71.6,99.8 C73.2,99.1 75,99.2 76.7,99.1 C77.3,99.1 78,99.1 78.6,99 C80.9,98.7 82.8,99.5 84.4,101.2 C85.1,101.9 85.8,102.6 86,103.7 C86.4,105.5 85.8,107 84.3,108.2 C82.7,109.6 81.1,110.9 79.5,112.4 C79,112.9 78.6,113.7 78.3,114.4 C78,115.1 77.8,115.9 77.5,116.6 C76.7,118.4 75.1,119.1 73.3,118.6 C72.6,118.4 72,118.2 71.4,118 C69.9,117 68.3,116.8 66.7,117.3 Z M60,105.9 C57.8,105.7 55.6,105.7 53.4,105.4 C50.8,105.1 48.8,103.8 48,101.2 C47.5,99.8 47.4,98.5 47.9,97.1 C48.3,96 48.7,95 49,93.9 C49.3,93 48.7,92 47.8,91.5 C47.1,91.2 46.6,91.6 46,92 C45.3,92.6 44.5,93 43.7,93.4 C42.9,93.8 42,94 41.3,94.4 C38.8,95.8 36,96.5 33.3,97.2 C28.8,98.2 24.2,98.8 19.7,100.1 C16,101.2 12.7,102.7 9.7,105.1 C6.5,107.7 4.3,111 3.3,115.1 C3,116.2 3.3,117.1 4.1,117.9 C5.2,119.1 6.6,120.1 8.2,120.5 C10.2,121 12.2,121.5 14.2,121.8 C18.2,122.3 22.2,122.1 26.2,121.1 C29.4,120.2 32.7,119.4 36,118.7 C41.6,117.5 47.3,117.5 52.8,119.3 C53.4,119.5 54,119.6 54.7,119.7 C57.4,119.9 59.9,119.6 62,117.7 C62.9,116.9 63.8,116.2 64.8,115.5 C65.3,115.2 65.8,114.9 66.4,114.8 C68.4,114.4 70.3,114.6 72.2,115.3 C72.8,115.5 73.3,115.7 73.9,115.9 C75,116.2 75.3,116.1 75.7,115 C75.9,114.4 76.1,113.7 76.4,113.1 C76.8,111.9 77.5,110.9 78.4,110 C80,108.6 81.6,107.2 83.2,105.8 C83.8,105.2 84,104.6 83.7,103.9 C83.1,102.5 81.1,101.3 79.6,101.4 C78.2,101.5 76.7,101.6 75.3,101.7 C74.6,101.8 73.9,101.8 73.3,102 C71.5,102.6 69.7,103.2 68,104.1 C65.4,105.1 62.8,106 60,105.9 Z M39.7,84.8 C41.4,86.6 42,88.9 43.9,90.4 C44.2,90.1 44.5,89.8 44.8,89.6 C45.9,88.8 47.2,88.3 48.4,89 C50.8,90.3 52.2,92.1 51.2,94.9 C50.9,95.7 50.6,96.5 50.3,97.4 C49.4,100.3 50.9,102.7 53.9,103 C56,103.2 58,103.4 60.1,103.3 C63.1,103.2 66,102.4 68.3,100.3 C68.1,99.5 67.8,98.7 67.6,98 C67,96.1 66.4,94.3 65.8,92.4 C65.4,91.3 65,90.3 64.6,89.3 C64.2,88.3 63.9,87.2 63.5,86.1 C63.2,85.2 62.8,84.3 62.6,83.4 C62.2,81.3 61,79.5 60.2,77.6 C60.1,77.4 59.9,77.2 59.6,76.8 C58.1,77.2 56.6,77.6 55.2,78.1 C53,78.8 50.9,79.5 48.7,80.2 C47.9,80.5 47.2,80.8 46.4,81.2 C45,81.9 43.6,82.7 42.2,83.4 C41.4,83.7 40.7,84.2 39.7,84.8 Z M39,82.1 C39.8,81.7 40.4,81.3 41,81 C42.4,80.2 43.9,79.4 45.3,78.7 C46.3,78.2 47.3,77.8 48.4,77.5 C51.4,76.5 54.4,75.6 57.4,74.6 C56,71.7 51.3,69.8 47.5,70.6 C47.5,70.9 47.5,71.3 47.6,71.7 C47.7,72.4 47.8,73.1 47.8,73.7 C47.8,74.4 47.6,74.9 46.9,75 C46.3,75.2 45.7,74.8 45.5,74 C45.4,73.5 45.3,73 45.3,72.5 C45.2,72 45.2,71.6 45.1,71.1 C44.1,71.2 43.4,71.7 42.9,72.4 C42.3,73.2 41.7,74 41.1,74.8 C39.4,77 39.1,79.4 39,82.1 Z" id="Shape" fill="#000000"></path>
                <path d="M166.2,88.4 C167,88.5 167.6,88.6 168.2,88.5 C169.3,88.5 174.3,86.1 175.1,85.3 C176.3,84 176.5,82.5 176.7,80.9 C176.9,79.1 176.8,77.2 176.4,75.4 C175.8,73 175.4,70.6 174.7,68.3 C174,65.6 173.2,63 172.4,60.4 C171.8,58.4 171.1,56.4 170.5,54.5 C170.1,53.3 169.6,52.9 168.8,53.1 C168,53.3 167.8,54.1 168.1,55.2 C168.7,57.2 169.4,59.1 170,61.1 C170.9,64 171.7,66.9 172.4,69.9 C173,72 173.4,74.1 173.9,76.2 C174.4,78.2 174.4,80.2 173.9,82.3 C173.7,83.4 173.1,84.1 172,84.4 C171.4,84.6 170.8,84.8 170.2,85.2 C168.8,86.1 167.4,86.1 165.7,85.8 C165.5,85.1 165.3,84.3 165.1,83.5 C164.3,80.6 162.5,78.7 159.7,77.6 C156.9,76.6 154.1,76 151.2,76 C149.2,76 147.6,76.9 146.3,78.2 C145.3,79.2 144.3,80.1 143,80.7 C142.1,81.2 141.3,82.2 140.6,82.9 C140.3,83.2 140.1,83.5 139.8,83.6 C137.9,83.7 136.1,83.9 134.2,84 C131.7,84.2 129.1,84.4 126.6,83.4 C126.1,83.2 125.5,83.3 124.9,83.3 C123.9,83.3 123,83.3 122.1,83.3 C120.9,82.3 120.9,82.5 119.5,83.2 C118.6,83.6 117.3,83.6 116.3,83.4 C115.2,83.2 114.2,82.5 113.2,82 C112.8,81.8 112.4,81.3 112.2,80.9 C111.4,79.6 110.6,78.3 109.9,77 C109.4,76.1 109.1,75.2 108.6,74.3 C108.9,74.2 109,74.2 109.1,74.2 C110.7,75.1 112.5,75.1 114.2,75.5 C114.7,75.6 115.2,75.6 115.8,75.5 C117.1,75.3 117.8,74.5 117.9,73.2 C117.9,72.6 117.9,72.1 117.9,71.3 C119.1,72.2 120.4,72.7 121.3,73.8 C123.4,76.2 126,77.5 129.2,77.2 C130.3,77.1 131.4,77 132.5,76.9 C134.2,76.8 135.9,76.6 137.6,76.6 C140.1,76.6 142.4,76.1 144.3,74.6 C146.5,72.8 149.1,72.8 151.7,72.9 C153.8,72.9 156,72.6 158.1,72.4 C159,72.3 159.3,71.7 159.3,71 C159.2,70.3 158.7,69.9 157.9,69.8 C156.5,69.7 155,69.6 153.6,69.4 C152.9,69.3 152.1,68.9 151.5,68.4 C150.1,67.4 148.9,66.3 147.5,65.3 C146.6,64.6 146.1,63.8 145.8,62.8 C145.7,62.5 145.6,62.1 145.4,61.8 C145.1,61.2 144.5,60.9 143.9,61.1 C143.2,61.3 143,61.9 143.1,62.5 C143.4,64.2 143.9,65.8 145.3,66.9 C146.7,68 148,69.1 149.6,70.3 C149.1,70.4 148.7,70.5 148.3,70.5 C146.9,70.4 145.7,70.9 144.6,71.5 C143.6,72 142.7,72.7 141.7,73.2 C141,73.6 140.2,73.9 139.5,73.9 C138,74.1 136.4,74 134.8,74.1 C133.6,74.2 132.4,74.4 131.2,74.5 C130,74.6 128.8,74.6 127.6,74.6 C127.3,74.6 127,74.5 126.4,74.4 C127.2,73.9 127.8,73.5 128.4,73.2 C129.3,72.7 130.2,72.2 131.1,71.6 C132,71 132.5,70 132.3,68.9 C132.1,66.9 131.7,65.1 130.9,63.2 C130.2,61.5 129.7,59.8 129.2,58.1 C128.4,55.3 127.4,52.6 126.3,49.9 C125.4,47.7 124.8,45.3 124.1,42.9 C123.7,41.5 123.3,40.2 122.4,39 C122,38.4 121.9,37.7 121.6,37 C121.7,37 121.8,36.9 121.9,36.9 C122.5,38.1 123.2,39.3 123.8,40.6 C124.8,42.7 126.2,44.4 127.9,45.9 C128.2,46.2 128.5,46.4 128.9,46.5 C132.8,48.2 136.7,48 140.4,45.8 C141.3,45.2 142.2,44.6 143,43.9 C144.5,42.7 145.4,41.1 145.9,39.2 C146.2,37.9 146.9,36.7 147.4,35.4 C147.6,34.8 148,34.3 148.1,33.6 C148.3,32.8 147.8,32.2 147.2,32 C146.5,31.8 146,32.1 145.7,33 C145.6,33.3 145.5,33.6 145.3,33.9 C145.3,34 145.2,34 145.1,34 C145.1,32.8 145.1,31.6 145.1,30.4 C145.1,29.5 145.3,28.7 145.4,27.8 C145.6,26.9 145.7,26 145.9,25.1 C146.7,22 145.5,19.5 143.1,17.6 C141.1,16 138.9,14.8 136.4,14.3 C134.9,14 133.4,14.1 131.9,14.3 C128.7,14.7 125.5,15.4 122.6,16.9 C120.5,18 119.1,19.6 118,21.6 C117.5,22.5 117.3,23.6 117.6,24.6 C117.8,25.5 118.1,26.4 118.5,27.2 C119.5,29 120.7,30.8 121.8,32.6 C121.2,32.7 120.6,32.5 120.2,31.9 C119,30.6 118.1,29.2 117.7,27.4 C117.3,25.6 116.5,23.8 115.8,22.1 C115.5,21.4 114.9,20.9 114.5,20.3 C113.8,19.3 113,18.3 112.3,17.3 C112.1,17.1 112.1,16.7 111.9,16.4 C112.9,16.1 113.9,16.1 114.8,16.4 C116.6,16.9 117.5,16.4 117.7,14.6 C117.9,13.5 118.3,12.6 118.9,11.7 C120.8,8.6 123.7,6.6 126.8,5.1 C129.4,3.8 132.3,2.9 135.2,3 C136.8,3.1 138.5,3.7 140,4.2 C141.9,4.9 143.4,6.2 144.6,8 C145.1,8.8 145.7,9.4 146.4,10.1 C147.2,10.9 148.1,10.8 148.8,9.9 C149.1,9.6 149.3,9.2 149.6,8.9 C150.1,8.4 150.6,8.1 151.3,8.4 C152,8.6 152.3,9.3 152.2,9.9 C152,11 151.9,12.2 151.5,13.1 C150.2,15.8 149.7,18.6 149.7,21.6 C149.7,22.9 149.4,24 148.8,25.2 C148.2,26.3 148.4,27.1 149.1,27.4 C149.8,27.8 150.6,27.4 151,26.3 C151.5,25.2 151.9,24.1 152.3,22.9 C153.6,24.3 154.7,25.8 155.6,27.5 C156.3,29 157,30.5 157.7,31.9 C158.4,33.2 159.3,34.3 160.6,35 C161.6,35.7 162.6,36.5 163.6,37.1 C165.4,38.2 167.3,39.2 169.1,40.2 C170,40.7 170.8,41.3 171.5,41.9 C172.6,42.8 173.7,43.8 174.8,44.8 C175.1,45.1 175.4,45.4 175.6,45.7 C176.6,47 177.6,48.2 178.5,49.5 C178.8,49.9 179,50.5 179.2,51 C179.9,53.1 180.5,55.2 181.2,57.3 C181.9,59.3 182.7,61.3 183.4,63.2 C183.5,63.5 183.6,63.8 183.7,64.1 C184.2,67.5 184.5,70.8 184.5,74.2 C184.4,79.6 183.7,85 183.1,90.3 C182.6,94.3 182,98.2 180.8,102 C180.3,103.6 179.4,105 178.4,106.3 C176.2,109.1 174,111.9 171.8,114.7 C171,115.7 170.5,116.9 170.5,118.2 C170.5,120.6 172.2,122.1 174.6,121.7 C177.1,121.3 179.5,120.6 181.8,119.5 C183.4,118.7 185.1,118 186.8,117.5 C189.1,116.8 191.5,116.3 193.9,115.8 C196.1,115.3 198.2,115.7 200.2,116.5 C201.4,116.9 202.5,117.4 203.7,117.8 C207.8,119.5 212,119.9 216.3,119.1 C219.2,118.6 222.1,118 225,117.3 C228.6,116.5 232.1,116.2 235.7,117.2 C237.4,117.7 239.2,117.8 240.8,118.7 C242.2,119.5 243.4,120.4 244.2,121.9 C244.7,122.8 245.3,123.7 245.7,124.6 C246.9,127.1 246.1,130.5 243.9,132.2 C242.2,133.5 240.3,134.7 238.6,136 C237.1,137.1 235.6,138.3 234.1,139.4 C233.1,140.2 232,140.7 230.7,140.8 C227.6,141.1 224.5,141.4 221.4,141.6 C220,141.7 218.7,142.2 217.5,143 C216.3,143.7 215.2,144.5 214,145 C213.3,145.4 212.4,145.5 211.6,145.6 C210.7,145.7 210.2,145.2 210.1,144.3 C209.9,142.9 211.1,140.8 212.5,140.2 C214.4,139.5 216.3,138.9 218.3,138.7 C220,138.5 221.6,138.1 223.3,137.9 C224.6,137.7 225.9,137.7 227.2,137.4 C228.1,137.2 229.1,136.9 229.8,136.4 C232.3,134.7 234.7,132.9 237.2,131.1 C238.4,130.2 238.9,128.9 239.1,127.5 C239.6,124.3 238,121.5 235.1,120.2 C234.5,119.9 233.8,119.8 233.1,119.9 C230.7,120.1 228.2,120.3 225.8,120.7 C224.5,120.9 223.4,121.5 222.1,121.7 C219.1,122.3 216.1,122.8 213,123.3 C211.9,123.5 210.7,123.3 209.5,123.3 C208.2,123.3 207.1,122.7 206,122.3 C204.2,121.5 202.3,120.9 200.4,120.3 C197.9,119.6 195.4,120.3 193,121 C192,121.3 191,121.7 190.1,122.1 C185.6,124.5 180.7,126.1 175.7,127.2 C174.5,127.4 173.2,127.2 171.9,127 C170.9,126.8 169.9,126.4 168.9,126.1 C167.8,125.8 166.8,125.4 165.5,125 C164.9,123.8 163.7,124 162.5,124.3 C160.7,124.7 158.9,125.2 157,125.5 C155,125.9 153,126.2 151,126.5 C149.5,126.7 148.1,126.7 146.6,126.3 C144.8,125.8 143,125.5 141.2,125 C140.5,124.8 139.8,124.4 139,124.1 C139.2,123.8 139.3,123.6 139.5,123.3 C141.7,120.4 143.9,117.4 146.2,114.5 C146.7,113.8 146.7,113 146.1,112.6 C145.6,112.2 144.9,112.3 144.3,113 C144,113.3 143.8,113.6 143.5,113.9 C141.9,116.1 140.3,118.3 138.6,120.4 C137.9,121.4 137.1,122.2 136.1,122.9 C135.3,123.4 134.6,124.3 134.1,125.1 C133.5,126 132.7,126.3 131.7,126.3 C129.4,126.3 127.3,125.7 125.2,124.8 C122.2,123.5 119.7,121.6 117.1,119.7 C114.5,117.8 111.6,117.6 108.5,118.3 C106.8,118.7 105.4,119.7 104.1,120.8 C103.3,121.5 102.4,122.1 101.4,122.6 C100.6,123 99.8,123 99.1,122.2 C99.1,121.9 99.1,121.5 99.1,121.2 C99.1,119.9 98.4,119.4 97.1,119.7 C96.5,119.9 95.9,120.1 95.3,120.3 C95.2,120.2 95.2,120.2 95.1,120.1 C95.3,119.8 95.6,119.4 95.8,119.1 C96,118.9 96.3,118.7 96.5,118.4 C97.4,117.3 96.9,116 95.5,115.8 C95,115.7 94.4,115.7 93.8,115.7 C93.6,114.7 93.9,114 94.6,113.4 C96.7,111.7 99,110.9 101.6,110.7 C103.5,110.6 105.4,110 107.2,109.6 C108.5,109.3 109.7,108.9 111,108.5 C111.3,108.4 111.7,108.4 111.9,108.5 C113.4,109 114.8,109.5 116.3,110.1 C118.4,110.9 120.5,111.9 122.4,113.1 C122.8,113.3 123.2,113.5 123.6,113.6 C124.5,114 125.3,113.8 126,113 C127.4,111.3 128.6,109.6 129.3,107.5 C129.9,105.8 130.4,104.1 130.9,102.4 C131.6,100.1 132.7,98.1 134.3,96.3 C135.1,95.4 135.7,94.4 136.3,93.3 C138.1,90.1 140.1,87.1 142.3,84.2 C142.7,83.7 143.4,83.3 144,82.9 C145,82.2 146.1,81.7 146.8,80.8 C148.5,78.7 150.7,78.4 153.2,78.8 C155.1,79.1 156.9,79.5 158.6,80.3 C159,80.5 159.4,80.7 159.8,81 C161.9,82.5 162.4,84.9 162.8,87.2 C163.3,91.1 163.6,95 164,98.9 C164.2,100.6 164.3,102.4 164.5,104.2 C164.5,104.3 164.5,104.4 164.5,104.6 C164.7,105.6 165.2,106 165.9,106 C166.6,105.9 167.1,105.3 167,104.3 C166.6,100.4 166.2,96.6 165.8,92.7 C166.4,91.2 166.4,89.9 166.2,88.4 Z" id="Shape" fill="#FFFFFF"></path>
                <path d="M123.9,73 C123.1,71.3 121.3,70.5 119.8,69.5 C119.5,69.3 119.3,69 119,68.8 C117.7,67.7 116.1,68.1 115.6,69.8 C115.4,70.4 115.4,71.1 115.3,71.8 C115.3,72.2 115.3,72.6 115.3,73.1 C114.9,73.1 114.6,73.1 114.3,73.1 C113.5,73 112.7,72.9 111.9,72.7 C111.2,72.5 110.4,72.3 109.8,71.8 C108.9,71.1 108.1,70.7 106.9,70.8 C106.7,70.4 106.6,70 106.4,69.6 C108.9,68.1 111.4,66.7 113.8,65.2 C115.8,64 116,61.9 114.4,60.3 C114.2,60.1 114.1,60 113.9,59.9 C114.1,59.3 114.3,58.9 114.4,58.4 C114.7,56.7 113.7,55.8 112,56.1 C111,56.3 110.1,56.7 109.1,56.9 C108.9,57 108.7,57 108.2,57.2 C108.5,56.7 108.7,56.3 108.8,56 C109.1,55.1 109.5,54.2 109.6,53.3 C109.8,51.5 108.4,50.6 106.8,51.4 C105.1,52.2 104.1,53.7 102.9,55.1 C102.3,55.8 101.8,56.6 101.1,57.6 C101,56.9 101,56.3 100.8,55.9 C99.6,53 99.4,49.8 98.5,46.7 C96.6,40.1 95.9,33.3 97.3,26.4 C97.7,24.4 98.4,22.5 99.6,20.8 C99.9,20.3 100.2,19.8 100.6,19.1 C101,18.9 101.5,18.7 102.1,18.5 C103.4,18 104.8,17.6 106.1,17.1 C107.3,16.6 108.4,16.8 109.7,17.3 C110.6,19.3 111.8,21.1 113.4,22.6 C113.6,22.8 113.8,23.2 114,23.5 C114.6,25 115.3,26.5 115.6,28 C115.9,29.8 116.9,31.3 117.5,33 C118.3,34.8 119,36.7 119.7,38.6 C119.9,39 119.9,39.6 120.2,39.9 C121.4,41.6 122,43.6 122.5,45.5 C123.3,48.9 124.8,52 125.9,55.2 C126.7,57.5 127.4,59.8 128.1,62.2 C128.6,63.9 129.3,65.5 129.7,67.2 C130.3,69.7 130.3,69.7 128.1,70.9 C126.8,71.4 125.5,72.1 123.9,73 Z" id="Shape" fill="#FFFFFF"></path>
                <path d="M124.2,35.1 C124.5,34.6 124.8,34.1 125,33.6 C125.4,32.5 125.3,31.5 124.4,30.7 C122.9,29.3 122.1,27.4 121,25.6 C120.1,24.1 120.1,22.6 121.4,21.2 C122.3,20.2 123.2,19.3 124.4,18.8 C127.7,17.2 131.2,16.7 134.7,16.5 C136.1,16.4 137.5,17 138.8,17.5 C139.7,17.8 140.5,18.5 141.3,18.9 C142.4,19.5 143.1,20.5 143.6,21.6 C144,22.4 144.1,23.3 143.9,24.2 C143.6,25.4 143.3,26.5 143.2,27.7 C143,28.9 143,30.2 143,31.4 C143,33 142.8,34.5 141,35.3 C139.6,35.9 138.9,37.3 138.5,38.7 C137.8,41.5 136,43 133.4,43.7 C132.5,44 131.4,44 130.5,44.1 C130.2,44.1 129.8,43.9 129.6,43.6 C128.7,42.6 127.7,41.5 127,40.4 C125.9,38.7 125.1,36.8 124.2,35.1 Z M136.1,24.9 C137,24.9 137.7,24.2 137.7,23.3 C137.7,22.4 137,21.6 136.1,21.6 C135.3,21.6 134.5,22.3 134.5,23.2 C134.5,24 135.2,24.9 136.1,24.9 Z M129.2,24.2 C129.2,23.4 128.6,22.8 127.8,22.7 C126.9,22.7 126,23.5 126,24.4 C126,25.2 126.6,25.9 127.4,25.9 C128.3,25.9 129.2,25.1 129.2,24.2 Z" id="Shape" fill="#FFFFFF"></path>
                <path d="M112.6,105.7 C112.7,104.8 112.7,104 112.9,103.2 C113.5,100 114.2,96.8 116.2,94 C116.2,94 116.2,93.9 116.3,93.9 C117.6,90.9 120,89.1 122.9,87.8 C124.3,87.2 125.7,86.8 127.2,86.5 C127.9,86.3 128.8,86.6 129.6,86.8 C131.6,87.2 133.6,86.8 135.5,86.6 C136.3,86.5 137.1,86.5 138.2,86.4 C137.7,87.2 137.4,87.8 137.1,88.3 C135.5,90.8 134.3,93.5 132.2,95.7 C130.5,97.5 129.7,99.9 129,102.2 C128.3,104.3 127.6,106.5 126.8,108.5 C126.4,109.4 125.7,110.2 125,111.2 C121.1,108.6 116.9,107.2 112.6,105.7 Z" id="Shape" fill="#FFFFFF"></path>
                <path d="M98.5,58.2 C98.9,58.9 99.2,59.6 99.7,60.2 C100.3,61 100.9,61.1 101.7,60.5 C102.5,59.9 103.1,59.1 103.8,58.4 C104.6,57.5 105.3,56.4 106,55.4 C106.1,55.4 106.2,55.5 106.3,55.5 C106.2,55.8 106.1,56 106,56.3 C105.8,56.9 105.6,57.4 105.5,58 C105.4,59.4 106.4,60.4 107.8,60.1 C108.3,60 108.9,59.8 109.5,59.5 C109.4,59.9 109.3,60.3 109.2,60.6 C109,61.7 109.7,62.6 110.8,62.6 C111.2,62.6 111.5,62.5 111.9,62.5 C112.2,62.5 112.6,62.5 112.9,62.5 C112.9,62.6 113,62.7 113,62.7 C111.7,63.4 110.4,64.1 109.1,64.9 C108.4,65.3 107.7,65.9 106.9,66.3 C106.5,66.5 106.2,66.8 105.8,66.9 C104.9,67.2 103.9,67.3 103,67.6 C101.5,68 100.9,69.4 101.7,70.8 C102.5,72.1 103.3,72.5 105.1,72.2 C106.5,73.4 106.4,75.2 107.1,77 C106.3,76.8 105.7,76.8 105.2,76.6 C104.2,76.1 103.1,75.6 102.5,74.5 C102.5,74.5 102.5,74.4 102.4,74.4 C100,72.2 99.5,69.2 98.9,66.2 C98.7,65 98.1,63.9 98.1,62.6 C98.1,61.3 98.2,60 98.3,58.7 C98.2,58.6 98.4,58.4 98.5,58.2 Z" id="Shape" fill="#FFFFFF"></path>
                <path d="M109.6,14.1 C106.3,13.4 103.6,15.3 100.7,16.1 C100.1,16.3 99.5,16.6 98.7,16.9 C98.4,16.2 98.1,15.5 98,14.9 C97.9,14 97.9,13.1 97.9,12.2 C97.9,10.9 98.6,10.1 99.7,9.6 C100.5,9.2 101.2,8.7 102,8.4 C104,7.4 105.9,8 107.3,9.7 C108.4,10.9 109.3,12.3 109.6,14.1 Z" id="Shape" fill="#FFFFFF"></path>
                <path d="M96.9,122.6 C97.1,123 97.3,123.3 97.5,123.9 C93.8,123.6 90.3,123.7 86.8,125 C86.8,123.9 87.4,123.5 87.9,123 C89.1,122 89.1,121.6 88.3,120.3 C87.8,119.6 87.8,119.1 88.4,118.3 C89,117.5 90,116.9 91.7,116.6 C92,116.9 92.2,117.3 92.6,117.6 C92.9,117.9 93.3,118 93.6,118.2 C92.4,121.7 93.3,123 96.9,122.6 Z" id="Shape" fill="#FFFFFF"></path>
                <path d="M138.7,43.8 C140,42.5 140.6,40.8 141.1,39.1 C141.3,38.3 141.8,37.7 142.6,37.3 C143.1,37 143.6,36.7 144.1,36.4 C144,40.1 141.9,42.4 138.7,43.8 Z" id="Shape" fill="#FFFFFF"></path>
                <path d="M105.5,123.5 C108.1,120.7 111.6,119.7 114.4,120.9 C114.2,121 114.1,121.1 114,121.1 C112.3,121.7 110.6,122.3 108.9,122.9 C107.9,123.2 106.8,123.7 105.5,123.5 Z" id="Shape" fill="#FFFFFF"></path>
                <path d="M60,105.9 C62.8,106 65.4,105.1 67.8,103.9 C69.5,103 71.3,102.3 73.1,101.8 C73.7,101.6 74.4,101.6 75.1,101.5 C76.5,101.4 78,101.3 79.4,101.2 C80.9,101.1 82.9,102.4 83.5,103.7 C83.8,104.4 83.6,105.1 83,105.6 C81.4,107 79.8,108.4 78.2,109.8 C77.2,110.6 76.6,111.7 76.2,112.9 C76,113.5 75.8,114.2 75.5,114.8 C75.1,115.9 74.8,116.1 73.7,115.7 C73.1,115.5 72.6,115.3 72,115.1 C70.1,114.4 68.2,114.2 66.2,114.6 C65.6,114.7 65.1,115 64.6,115.3 C63.6,116 62.7,116.7 61.8,117.5 C59.7,119.4 57.2,119.7 54.5,119.5 C53.9,119.4 53.2,119.3 52.6,119.1 C47,117.3 41.4,117.3 35.8,118.5 C32.5,119.2 29.3,120 26,120.9 C22,121.9 18,122.2 14,121.6 C12,121.3 10,120.9 8,120.3 C6.4,119.9 5,118.9 3.9,117.7 C3.2,116.9 2.9,116 3.1,114.9 C4.1,110.8 6.3,107.5 9.5,104.9 C12.5,102.5 15.8,101 19.5,99.9 C24,98.6 28.6,98 33.1,97 C35.9,96.4 38.6,95.7 41.1,94.2 C41.9,93.8 42.8,93.6 43.5,93.2 C44.3,92.8 45.1,92.3 45.8,91.8 C46.4,91.4 46.9,90.9 47.6,91.3 C48.5,91.7 49.1,92.8 48.8,93.7 C48.5,94.8 48.1,95.8 47.7,96.9 C47.2,98.3 47.4,99.7 47.8,101 C48.7,103.6 50.6,104.9 53.2,105.2 C55.6,105.6 57.8,105.7 60,105.9 Z M33,108.7 C36.3,108.7 39.1,108.2 41.7,106.5 C42.9,105.7 43.5,104.7 43.4,103.2 C43.3,102.1 43.4,100.9 43.5,99.7 C43.6,97.7 42,96.2 40.1,96.6 C38.9,96.9 37.7,97.4 36.5,97.8 C35.2,98.3 34,98.8 32.7,99.3 C31.5,99.8 30.2,100.1 29,100.7 C27.9,101.2 26.9,101.9 26.1,102.7 C24.5,104.3 24.9,106 26.9,107 C28.9,108 31,108.9 33,108.7 Z M79.7,105 C79.4,104.5 79.2,103.9 78.7,103.6 C77.6,102.8 76.5,102.4 75.1,102.6 C74.3,102.8 73.4,103 72.6,102.9 C71.2,102.8 70.1,103.6 69,104.3 C67.9,105 66.9,105.7 65.8,106.4 C64.4,107.2 63.9,109.2 65,110 C66.4,111 67.8,111.8 69.3,112.6 C70.1,113 71,113 71.7,112.4 C72.5,111.8 73.2,111.2 73.9,110.5 C74.7,109.6 75.5,108.8 76.8,108.5 C78.1,108.3 79.5,106.4 79.7,105 Z" id="Shape" fill="#FFFFFF"></path>
                <path d="M39.7,84.8 C40.7,84.2 41.4,83.7 42.2,83.3 C43.6,82.5 45,81.8 46.4,81.1 C47.1,80.7 47.9,80.3 48.7,80.1 C50.9,79.4 53,78.7 55.2,78 C56.7,77.5 58.2,77.2 59.6,76.7 C59.9,77.1 60.1,77.3 60.2,77.5 C61.1,79.4 62.2,81.2 62.6,83.3 C62.8,84.2 63.2,85.1 63.5,86 C63.9,87.1 64.2,88.1 64.6,89.2 C65,90.2 65.4,91.3 65.8,92.3 C66.4,94.2 67,96 67.6,97.9 C67.8,98.7 68.1,99.4 68.3,100.2 C66,102.3 63.1,103.1 60.1,103.2 C58,103.2 56,103.1 53.9,102.9 C50.9,102.6 49.4,100.3 50.3,97.3 C50.6,96.5 50.9,95.6 51.2,94.8 C52.1,92 50.8,90.2 48.4,88.9 C47.2,88.3 45.9,88.7 44.8,89.5 C44.5,89.7 44.2,90 43.9,90.3 C42,88.9 41.4,86.6 39.7,84.8 Z" id="Shape" fill="#FFFFFF"></path>
                <path d="M39,82.1 C39.1,79.4 39.4,76.9 41,74.8 C41.6,74 42.2,73.2 42.8,72.4 C43.3,71.7 44,71.3 45,71.1 C45.1,71.6 45.1,72 45.2,72.5 C45.3,73 45.3,73.5 45.4,74 C45.6,74.7 46.2,75.1 46.8,75 C47.5,74.8 47.8,74.3 47.7,73.7 C47.7,73 47.6,72.3 47.5,71.7 C47.5,71.3 47.5,71 47.4,70.6 C51.1,69.8 55.9,71.7 57.3,74.6 C54.3,75.6 51.3,76.5 48.3,77.5 C47.2,77.8 46.2,78.3 45.2,78.7 C43.7,79.4 42.3,80.2 40.9,81 C40.4,81.4 39.8,81.7 39,82.1 Z" id="Shape" fill="#FFFFFF"></path>
                <path d="M136.1,24.9 C135.2,24.9 134.5,24.1 134.5,23.2 C134.5,22.3 135.2,21.6 136.1,21.6 C137,21.6 137.7,22.4 137.7,23.3 C137.7,24.2 137,24.9 136.1,24.9 Z" id="Shape" fill="#000000"></path>
                <path d="M129.2,24.2 C129.2,25.1 128.3,25.9 127.4,25.9 C126.6,25.9 126,25.3 126,24.4 C126,23.5 126.9,22.7 127.8,22.7 C128.6,22.8 129.2,23.4 129.2,24.2 Z" id="Shape" fill="#000000"></path>
                <path d="M33,108.7 C31,108.9 28.9,108 26.8,107 C24.8,106 24.5,104.3 26,102.7 C26.8,101.9 27.9,101.2 28.9,100.7 C30.1,100.1 31.3,99.7 32.6,99.3 C33.9,98.8 35.1,98.3 36.4,97.8 C37.6,97.4 38.8,96.8 40,96.6 C42,96.2 43.5,97.7 43.4,99.7 C43.3,100.8 43.2,102 43.3,103.2 C43.4,104.7 42.8,105.7 41.6,106.5 C39.2,108.1 36.4,108.7 33,108.7 Z M40.8,98.9 C39.7,99.3 38.7,99.6 37.7,100 C36.2,100.6 34.7,101.2 33.1,101.8 C32,102.2 30.9,102.6 29.9,103.1 C29.1,103.4 28.3,103.9 27.8,104.6 C31.2,107.1 38.1,106.6 40.7,103.9 C40.8,102.3 40.8,100.8 40.8,98.9 Z" id="Shape" fill="#000000"></path>
                <path d="M79.7,105 C79.5,106.4 78.2,108.3 76.8,108.6 C75.5,108.9 74.7,109.7 73.9,110.6 C73.3,111.3 72.5,111.9 71.7,112.5 C71,113 70.1,113.1 69.3,112.7 C67.8,111.9 66.4,111.1 65,110.1 C63.9,109.3 64.4,107.3 65.8,106.5 C66.9,105.9 67.9,105.1 69,104.4 C70.1,103.7 71.2,102.9 72.6,103 C73.4,103 74.3,102.8 75.1,102.7 C76.5,102.4 77.6,102.9 78.7,103.7 C79.1,103.9 79.3,104.5 79.7,105 Z M76.8,105.5 C74.4,104.5 69.8,106.1 67.7,108.7 C68.6,109.3 69.4,109.8 70.4,110.4 C71,109.8 71.6,109.4 72,108.9 C73,107.7 74.1,106.6 75.7,106.2 C76.1,106.1 76.4,105.8 76.8,105.5 Z" id="Shape" fill="#000000"></path>
                <path d="M40.8,98.9 C40.8,100.8 40.8,102.3 40.8,103.8 C38.1,106.5 31.2,107.1 27.9,104.5 C28.4,103.7 29.2,103.3 30,103 C31.1,102.5 32.2,102.2 33.2,101.7 C34.7,101.1 36.2,100.5 37.8,99.9 C38.7,99.6 39.7,99.3 40.8,98.9 Z" id="Shape" fill="#FFFFFF"></path>
                <path d="M76.8,105.5 C76.4,105.8 76.1,106.2 75.8,106.2 C74.2,106.6 73.1,107.7 72.1,108.9 C71.6,109.4 71.1,109.9 70.5,110.4 C69.5,109.8 68.7,109.2 67.8,108.7 C69.8,106.1 74.4,104.4 76.8,105.5 Z" id="Shape" fill="#FFFFFF"></path>
            </g>
        </g>
    </g>
</svg>