<?xml version="1.0" encoding="utf-8"?>
<!-- Generator: Adobe Illustrator 24.0.1, SVG Export Plug-In . SVG Version: 6.00 Build 0)  -->
<svg version="1.1" xmlns="http://www.w3.org/2000/svg" xmlns:xlink="http://www.w3.org/1999/xlink" x="0px" y="0px"
	 viewBox="0 0 156.8 136.3" style="enable-background:new 0 0 156.8 136.3;" xml:space="preserve">
<style type="text/css">
	.st0{fill:#B7D6E2;}
	.st1{fill:#DDDDDD;}
	.st2{fill:#FFFFFF;}
</style>
<g id="Calque_2">
	<g>
		<path class="st0" d="M79.6,99.5c-10.4,1-21,1.9-31.2-0.2c-10.2-2.1-20.2-7.9-24.9-17.2c-5.2-10.4-2.9-23.1,2.2-33.5
			c5.8-11.7,16.5-22.3,29.5-22.3c14.1,0,24.9,11.9,33.8,22.9c5.7,7.1,11.4,14.1,17.1,21.2c1.9,2.4,3.9,4.9,4.6,7.9s-0.2,6.6-3,8"/>
	</g>
	<g>
		<path class="st0" d="M97.3,54.2c8.5,4.8,19.8-4.8,28.5-0.3c4.3,2.2,6.2,7.2,7.8,11.8c1.3,3.7,2.5,7.4,2.6,11.3
			c0.1,3.9-1.1,8-3.9,10.6c-3.5,3.1-8.7,3.4-13.4,3.6"/>
	</g>
</g>
<g id="Calque_1">
	<g>
		<path d="M78.5,92.2c-1.9,0.2-3.8,0.4-5.6,0.4c-2.6,0.1-5.3,0.1-7.9,0.1c-0.4,0-0.8-0.2-1.1-0.3c-2.1,0-4,0-6,0c-0.4,0-0.9,0-1.3,0
			c-2.6,0-5.1,0-7.7,0c-1.1,0-2.2,0.1-3.4,0.1c-1.6,0.1-2.2-0.4-2.4-2c-0.1-0.8-0.1-1.6-0.2-2.4c-0.2-2.1-0.3-4.2-0.5-6.3
			c-0.1-1.5,0.6-2.2,2.1-2.2c1.9,0,3.7-0.1,5.7-0.2c0.1-2.5-0.8-4.9,0.2-7.4c-0.5,0-0.8-0.1-1.2-0.1c-1.9,0-3.8,0-5.7,0
			c-1.3,0-1.8-0.4-1.6-1.8c0.2-2.3,0.5-4.6,0.7-6.9c0.1-0.7,0.1-1.4,0.2-2c0.1-1.4,0.6-1.9,1.9-1.9c1.6,0,3.2,0,4.8,0
			c0.1-0.2,0.2-0.5,0.2-0.7c0-1.4,0-2.9-0.1-4.3c0-0.4,0-0.9,0.1-1.3c0.1-0.9,0.6-1.6,1.5-1.8c0.9-0.2,1.9-0.4,2.8-0.5
			c0.9-0.1,1.9-0.2,2.9-0.4c0-0.4,0-0.8,0-1.1c0-2-0.1-4,0-6c0-1.5,0.6-2.1,2.1-2.2c4.7-0.4,9.5-1,14.2-1c1.2,0,2.5-0.2,3.7-0.2
			c3.2,0.1,6.5,0.3,9.7,0.4c1.6,0,3.3-0.1,4.9-0.2c1.6,0,3.2,0,4.8,0c0.6,1.5,0.9,3,1.1,4.6c0.1,1.3,0.3,2.6,1.2,3.7
			c3.3,0.1,6.6,0.3,9.9,0.4c0.6,0.8,0.9,1.5,0.9,2.5c0,1.9,0.1,3.8,0.2,5.8c0,0.5,0.1,1,0.2,1.7c1.2,0.1,2.4,0.2,3.6,0.2
			c0.8,0,1.6,0,2.4,0c1,0,1.6,0.4,1.8,1.4c0.3,1.7,0.6,3.5,0.8,5.2c0.1,0.8,0,1.6,0,2.4c0.4,0.1,0.6,0.1,0.9,0.2
			c1.9,0.1,3.8,0.3,5.7,0.4c0.5,0,1,0.1,1.5,0.3c1.1,0.3,1.8,1,2,2.2c0.5,3.1,0.8,6.3,0.3,9.4c0,0,0.1,0.1,0.1,0.2
			c1.1,0.7,1.4,1.5,1,2.8c-0.3,1.2-0.3,2.5-0.4,3.8c-0.3,3.4-1,6.8-1.7,10.2c-0.4,1.7-0.7,3.5-1,5.2c-0.2,1-0.6,1.6-1.6,2
			c-1.9,0.9-3.8,1.1-5.7,1.6c-6.7,1.8-13.4,3.6-20.2,5.3c-3.1,0.8-6.1,1.6-9.2,2.3c-0.8,0.2-1.6,0.1-2.3-0.4
			c-0.9-0.7-1.8-1.4-2.7-2.2c-1.7-1.5-3.5-2.9-5.2-4.4c-0.9-0.7-1.3-1.6-1.2-2.7c0.2-3.6-0.1-7.2-0.4-10.8
			C78.6,92.9,78.5,92.7,78.5,92.2z M89.2,111.8c0.4,0,0.8,0,1.1-0.1c2.9-0.7,5.9-1.5,8.8-2.2c5.2-1.4,10.4-2.9,15.6-4.2
			c3.4-0.9,6.8-1.6,10.3-2.4c0.9-6.3,3-12.5,2.9-19c-0.7,0.2-1.2,0.3-1.8,0.5c-3.3,0.8-6.6,1.6-9.9,2.3c-1.1,0.3-1.7-0.1-2.1-1.2
			c-0.1-0.4-0.3-0.7-0.4-1.1c-1.3,0.3-2.5,0.6-3.8,1c-0.1,0.6-0.3,1.1-0.3,1.6c-0.2,0.9-0.7,1.5-1.6,1.7c-2.2,0.5-4.4,0.9-6.6,1.4
			c-0.9,0.2-1.4-0.2-1.7-1.1c-0.2-0.6-0.3-1.1-0.5-1.8c-1.4,0.3-2.7,0.5-4,0.8c-0.1,0.6-0.2,1.1-0.2,1.6c0.1,1.8-0.5,2.3-2.3,2.7
			c-0.5,0.1-1,0.2-1.5,0.3c-0.4,0.1-0.8,0.2-1.3,0.3C89.6,99,89,105.4,89.2,111.8z M107.4,86.5c0.1-0.7,0.2-1.2,0.4-1.7
			c0.2-0.9,0.7-1.4,1.6-1.6c1.2-0.3,2.4-0.6,3.6-0.9c1.2-0.3,2,0.2,2.5,1.3c0.2,0.3,0.3,0.7,0.5,1c3.8-0.9,7.6-1.5,11.4-2.8
			c-1.5-1-2.7-2-4.1-2.7c-1.7-0.8-3.3-1.8-4.9-2.7c-0.1-0.2-0.3-0.2-0.5-0.1c-1.6,0.3-3.3,0.6-4.9,1.1c-1.7,0.4-2.3,0.1-2.6-1.6
			c-0.1-0.3-0.2-0.6-0.3-1c-1.2,0.1-2.4,0.3-3.6,0.4c-0.2,0.9-0.4,1.7-0.6,2.5c-0.2,1-0.9,1.7-1.9,1.9c-3.4,0.6-6.8,1.2-10.2,1.7
			c-1.2,0.2-1.8-0.2-2.2-1.4c-0.2-0.5-0.3-1-0.5-1.5c-1.4,0.3-2.7,0.6-4.1,0.8c-0.1,0.7-0.2,1.2-0.2,1.8c0,1.1-0.6,1.7-1.6,2
			c-0.9,0.3-1.9,0.6-2.9,0.9c1.9,2.9,4.4,4.9,7.2,6.8c1-0.2,2.2-0.5,3.3-0.7c0.1-0.9,0.1-1.7,0.2-2.4c0-0.8,0.3-1.5,1.1-1.7
			c1.8-0.4,3.5-0.7,5.3-0.9c1-0.1,1.5,0.4,1.7,1.5c0.1,0.4,0.2,0.8,0.3,1.3C103.4,87.3,105.4,86.9,107.4,86.5z M62.5,81
			c-0.7,0-1.3-0.1-1.8-0.1c-5.2,0.2-10.4,0.4-15.6,0.7c-0.2,0-0.4,0.1-0.5,0.1c0.2,2.9,0.4,5.8,0.5,8.5c6,0.1,11.9,0.1,17.9,0.1
			C62.8,87.2,62.7,84.2,62.5,81z M60.1,68.7c0.7-0.1,1.2-0.2,1.6-0.3c2.4-0.6,4.9-0.7,7.4-0.4c2.9,0.4,5.8,0.4,8.7,0.4
			c0.3,0,0.5-0.1,0.8-0.1c-0.1-2.8,0.4-5.6-0.7-8.4c-1.2-0.3-2.5-0.5-3.7-0.3c-1.3,0.2-2.7,0.4-4,0.5c-2.3,0.2-4.7,0.4-7,0.7
			c-1.1,0.1-2.2,0.3-3.1,1C60.1,64,60.1,66.3,60.1,68.7z M82.3,80.5C76.4,80.4,70.6,80,64.7,81c-0.1,3.2,0.2,6.4,0.4,9.6
			c2.7,0.4,11.6,0,13.4-0.6c0-0.3,0-0.7,0-1.1c0-1.4-0.1-2.9-0.1-4.3c0-1.4,0.6-2.2,2-2.6c0.5-0.1,1.1-0.2,1.6-0.3
			c0.1,0,0.2-0.1,0.3-0.2c0-0.2,0-0.3,0-0.5C82.4,80.8,82.3,80.7,82.3,80.5z M52.4,79.3c5.8-0.6,11.5-0.1,17.2-0.9
			c0.2-2.8-0.1-5.5-0.5-8.3c-2.3-0.3-4.4-0.2-6.5,0.2c-2.7,0.5-5.5,1-8.3,1.1c-0.6,0-1.1,0.2-1.6,0.3C51.5,74.3,52.2,76.7,52.4,79.3
			z M89.1,50.6c0.5,2.6,0.9,5,1.3,7.5c5.7,0.1,11.5,0.7,17.4,0.6c-0.1-2.7,0-5.2-0.3-7.8C101.3,50.2,95.2,50.4,89.1,50.6z
			 M99.3,68.3c1.6,0.1,3.1,0.2,4.7,0.3c1.3,0.1,2.6,0.2,3.9,0.2c2.7-0.2,5.3-0.4,8-0.7c0.1,0,0.3-0.1,0.4-0.1c0-0.7-0.1-1.4,0-1.9
			c0.5-1.8-0.2-3.4-0.5-5.2c-2,0-4-0.1-5.9-0.1c-2,0-3.9,0-5.9-0.1c-1.9-0.1-3.9-0.2-6-0.4C98.5,63.1,98.9,65.6,99.3,68.3z
			 M80.6,68.5c0.6,0,1.1,0,1.5,0c1.4,0,2.9,0.1,4.3,0.1c1.4,0,2.8,0.1,4.2,0c1.9-0.1,3.7-0.3,5.6-0.4c0.3,0,0.5-0.1,1-0.1
			c-0.4-2.6-0.8-5.1-1.2-7.6c-0.7-0.1-1.2-0.3-1.8-0.4c-4.7-0.2-9.3-0.3-14.1-0.5C80.9,62.6,80.6,65.4,80.6,68.5z M88.2,70.8
			c-5.7-0.4-11.3-0.3-16.9-0.4c0.2,2.7,0.4,5.3,0.5,7.9c4.4,0,8.8,0.4,13.2,0.1c0.5-1,1.4-1.3,2.4-1.4c0.5-0.1,1.1-0.2,1.6-0.4
			C88.7,74.6,88.5,72.8,88.2,70.8z M68.9,58.2c0.5-0.1,0.9-0.1,1.3-0.2c2.4-0.4,4.8-0.8,7.3-0.4c0.2,0,0.5,0,0.7,0
			c1.4,0,2.8,0,4.2,0c1.6,0,3.3,0.1,4.9,0.1c0.3,0,0.5-0.1,1-0.1c-0.4-2.3-0.8-4.4-1.2-6.6c-2-0.4-3.9-0.4-5.7-0.2
			c-2.6,0.3-5.2,0.6-7.8,0.2c-0.9-0.1-1.9-0.2-2.8,0.4c-0.3,0.2-0.7,0.2-1,0.2c-0.3,0.1-0.7,0.1-1.1,0.2
			C68.8,54,68.8,56.1,68.9,58.2z M95.1,42.3c-1.1-0.1-1.9-0.3-2.8-0.2c-3.8,0.3-7.5,0.1-11.3,0c-1.3,0-2.7,0.1-4.1,0.1
			c-0.3,2.4-0.3,4.7,0.1,7c0.2,0,0.4,0.1,0.5,0.1c3.1-0.3,6.1-0.4,9.2-0.4c2.9,0,5.7-0.4,8.6-0.4c0.3,0,0.5-0.1,0.8-0.1
			C95.8,46.2,95.5,44.3,95.1,42.3z M80.8,85.2c-0.1,0.1-0.2,0.1-0.3,0.2c0,0.3-0.1,0.7-0.1,1c0.2,4.3,0.4,8.7,0.5,13
			c0.1,1.4,0,2.9,0,4.3c0,0.6,0.1,1.1,0.6,1.5c1.6,1.3,3.1,2.6,4.7,3.9c0.2,0.2,0.4,0.3,0.8,0.6c0-1,0.1-1.8,0.1-2.6
			c0.1-1.8,0.1-3.7,0.2-5.5c0.1-2.9,0.2-5.7,0.3-8.6c0-0.8-0.3-1.4-1-1.9c-2-1.5-4-3.1-5.4-5.2C81.1,85.7,80.9,85.4,80.8,85.2z
			 M74.9,42.1c-5.4-0.1-10.7,0.5-15.9,1c-0.1,2.5-0.4,4.7,0.2,7.1c0.6,0,1.2,0,1.7,0c2.2-0.2,4.5-0.1,6.7-0.6
			c2.3-0.4,4.5-0.8,6.8-0.6c0.2,0,0.4,0,0.5,0C74.9,46.7,74.9,44.5,74.9,42.1z M108.3,71c-0.9-0.1-1.5-0.1-2.2-0.2
			c-1.2-0.1-2.3-0.1-3.5-0.2c-2.9-0.1-5.7-0.3-8.6-0.3c-1.3,0-2.5,0.2-3.8,0.6c0.1,1,0.3,1.8,0.4,2.7c0.1,0.9,0.1,1.7,0.2,2.4
			c0.7,0.5,1.4,0.7,1.8,1.2c0.4,0.5,0.6,1.3,0.9,2.1c3.4-0.9,6.9-0.7,10.3-1.9c0.1-0.7,0.3-1.3,0.4-2c0.2-1.4,1.1-2.1,2.4-2.2
			c0.5-0.1,1-0.1,1.6-0.2C108.3,72.2,108.3,71.7,108.3,71z M58,61.9c-2.4-0.5-11.9-0.8-13.2-0.3c-0.3,2.7-0.5,5.5-0.8,8.3
			c2.4,0.3,4.7,0.1,6.9-0.2c1.3-0.2,2.6-0.2,3.9-0.3c1.1-0.1,2.1-0.2,3.2-0.4C58,66.6,58,64.3,58,61.9z M51.7,59.4
			c2.3,0.1,4.4,0.3,6.5,0.4c0.2,0,0.5-0.1,0.7-0.1c2.1-0.6,4.2-1,6.4-1c0.5,0,1-0.1,1.5-0.1c0.2-1.4,0-5.6-0.3-6.5
			c-4.9,0.6-9.9,0-14.8,1.2C51.7,55.3,51.7,57.2,51.7,59.4z M126.6,70.7c-0.6-0.1-1.2-0.3-1.8-0.3c-3.3-0.3-6.5-0.5-9.8-0.2
			c-1.5,0.1-3,0.2-4.5,0.4c0,0.8,0,1.4,0,2.2c1.3,0.3,1.6,1.4,2,2.5c0.3-0.1,0.6-0.1,0.9-0.1c1.4-0.3,2.7-0.6,4.1-0.8
			c1.1-0.2,2.1-0.1,3,0.8c0.2,0.2,0.5,0.4,0.8,0.5c1.9,1.1,3.8,2.1,5.7,3.2c0.1,0,0.2,0,0.3,0C127.3,76.1,127.2,73.5,126.6,70.7z"/>
		<path class="st2" d="M89.2,111.8c-0.2-6.4,0.4-12.7,0.5-19.1c0.5-0.1,0.9-0.2,1.3-0.3c0.5-0.1,1-0.2,1.5-0.3
			c1.8-0.4,2.4-0.9,2.3-2.7c0-0.5,0.1-1,0.2-1.6c1.3-0.3,2.7-0.5,4-0.8c0.2,0.7,0.3,1.3,0.5,1.8c0.3,0.9,0.8,1.2,1.7,1.1
			c2.2-0.4,4.4-0.9,6.6-1.4c0.9-0.2,1.5-0.8,1.6-1.7c0.1-0.5,0.2-1,0.3-1.6c1.3-0.3,2.5-0.6,3.8-1c0.2,0.4,0.3,0.8,0.4,1.1
			c0.4,1.1,1,1.5,2.1,1.2c3.3-0.7,6.6-1.5,9.9-2.3c0.5-0.1,1.1-0.3,1.8-0.5c0.1,6.6-2,12.7-2.9,19c-3.5,0.8-6.9,1.6-10.3,2.4
			c-5.2,1.4-10.4,2.8-15.6,4.2c-2.9,0.8-5.9,1.5-8.8,2.2C89.9,111.8,89.6,111.7,89.2,111.8z"/>
		<path class="st2" d="M107.4,86.5c-2,0.4-4,0.8-6.1,1.2c-0.1-0.5-0.2-0.9-0.3-1.3c-0.2-1-0.8-1.6-1.7-1.5c-1.8,0.2-3.6,0.5-5.3,0.9
			c-0.8,0.2-1.1,0.9-1.1,1.7c0,0.8-0.1,1.5-0.2,2.4c-1.1,0.2-2.3,0.5-3.3,0.7c-2.8-1.9-5.4-3.9-7.2-6.8c1-0.3,1.9-0.6,2.9-0.9
			c1-0.3,1.6-0.9,1.6-2c0-0.6,0.2-1.2,0.2-1.8c1.4-0.3,2.7-0.6,4.1-0.8c0.2,0.6,0.3,1.1,0.5,1.5c0.4,1.1,1,1.5,2.2,1.4
			c3.4-0.5,6.8-1.1,10.2-1.7c1.1-0.2,1.7-0.8,1.9-1.9c0.2-0.8,0.3-1.5,0.6-2.5c1.2-0.1,2.4-0.3,3.6-0.4c0.1,0.4,0.2,0.7,0.3,1
			c0.4,1.7,0.9,2,2.6,1.6c1.6-0.4,3.3-0.7,4.9-1.1c0.2,0,0.4,0,0.5,0.1c1.6,0.9,3.3,1.8,4.9,2.7c1.4,0.7,2.6,1.7,4.1,2.7
			c-3.8,1.3-7.6,1.9-11.4,2.8c-0.2-0.3-0.3-0.7-0.5-1c-0.5-1.1-1.4-1.5-2.5-1.3c-1.2,0.3-2.4,0.6-3.6,0.9c-0.9,0.2-1.4,0.8-1.6,1.6
			C107.7,85.3,107.6,85.8,107.4,86.5z"/>
		<path class="st2" d="M62.5,81c0.2,3.2,0.3,6.2,0.5,9.4c-6,0-11.9,0-17.9-0.1c-0.2-2.8-0.4-5.6-0.5-8.5c0.2-0.1,0.4-0.1,0.5-0.1
			c5.2-0.2,10.4-0.5,15.6-0.7C61.3,80.9,61.9,81,62.5,81z"/>
		<path class="st2" d="M60.1,68.7c0-2.4,0-4.7,0-7c0.9-0.7,2-0.9,3.1-1c2.3-0.2,4.7-0.4,7-0.7c1.3-0.1,2.7-0.4,4-0.5
			c1.2-0.1,2.5,0,3.7,0.3c1.1,2.8,0.5,5.6,0.7,8.4c-0.3,0.1-0.6,0.1-0.8,0.1c-2.9,0-5.8,0-8.7-0.4c-2.5-0.3-4.9-0.2-7.4,0.4
			C61.3,68.5,60.8,68.6,60.1,68.7z"/>
		<path class="st2" d="M82.3,80.5c0,0.2,0.1,0.3,0.1,0.5c0,0.2,0,0.3,0,0.5c-0.1,0.1-0.2,0.2-0.3,0.2c-0.5,0.1-1.1,0.2-1.6,0.3
			c-1.4,0.3-2,1.1-2,2.6c0,1.4,0.1,2.9,0.1,4.3c0,0.4,0,0.8,0,1.1c-1.9,0.6-10.7,1-13.4,0.6c-0.2-3.2-0.5-6.4-0.4-9.6
			C70.6,80,76.4,80.4,82.3,80.5z"/>
		<path class="st2" d="M52.4,79.3c-0.2-2.6-0.9-5,0.2-7.6c0.5-0.1,1-0.3,1.6-0.3c2.8-0.1,5.6-0.6,8.3-1.1c2.1-0.4,4.3-0.6,6.5-0.2
			c0.4,2.8,0.7,5.5,0.5,8.3C63.9,79.2,58.2,78.7,52.4,79.3z"/>
		<path class="st2" d="M89.1,50.6c6.2-0.2,12.2-0.4,18.4,0.2c0.3,2.6,0.2,5.2,0.3,7.8c-5.9,0.1-11.7-0.5-17.4-0.6
			C89.9,55.5,89.5,53.2,89.1,50.6z"/>
		<path class="st2" d="M99.3,68.3c-0.4-2.7-0.8-5.2-1.2-8c2.1,0.1,4,0.3,6,0.4c2,0.1,3.9,0.1,5.9,0.1c2,0,3.9,0.1,5.9,0.1
			c0.3,1.8,1,3.4,0.5,5.2c-0.2,0.6,0,1.3,0,1.9c-0.1,0-0.3,0.1-0.4,0.1c-2.7,0.2-5.3,0.5-8,0.7c-1.3,0.1-2.6-0.1-3.9-0.2
			C102.4,68.6,100.9,68.4,99.3,68.3z"/>
		<path class="st2" d="M80.6,68.5c0-3.1,0.3-6-0.5-8.9c4.8,0.2,9.4,0.3,14.1,0.5c0.5,0,1.1,0.2,1.8,0.4c0.4,2.5,0.8,5,1.2,7.6
			c-0.4,0.1-0.7,0.1-1,0.1c-1.9,0.2-3.7,0.3-5.6,0.4c-1.4,0.1-2.8,0-4.2,0c-1.4,0-2.9-0.1-4.3-0.1C81.7,68.5,81.2,68.5,80.6,68.5z"
			/>
		<path class="st2" d="M88.2,70.8c0.3,2.1,0.5,3.9,0.8,5.8c-0.5,0.1-1.1,0.3-1.6,0.4c-1,0.1-1.9,0.4-2.4,1.4
			c-4.4,0.3-8.8,0-13.2-0.1c-0.2-2.7-0.4-5.2-0.5-7.9C76.9,70.4,82.5,70.4,88.2,70.8z"/>
		<path class="st2" d="M68.9,58.2c-0.1-2.1-0.2-4.2-0.2-6.3c0.4-0.1,0.7-0.1,1.1-0.2c0.4-0.1,0.8,0,1-0.2c0.9-0.6,1.8-0.6,2.8-0.4
			c2.6,0.4,5.2,0.1,7.8-0.2c1.9-0.2,3.7-0.2,5.7,0.2c0.4,2.2,0.8,4.4,1.2,6.6c-0.4,0.1-0.7,0.1-1,0.1c-1.6,0-3.3-0.1-4.9-0.1
			c-1.4,0-2.8,0-4.2,0c-0.2,0-0.5,0-0.7,0c-2.5-0.4-4.9,0-7.3,0.4C69.8,58.1,69.4,58.1,68.9,58.2z"/>
		<path class="st2" d="M95.1,42.3c0.3,2,0.7,4,1,6c-0.2,0.1-0.5,0.1-0.8,0.1c-2.9,0-5.8,0.4-8.6,0.4c-3.1,0-6.1,0.1-9.2,0.4
			c-0.1,0-0.2,0-0.5-0.1c-0.4-2.3-0.4-4.5-0.1-7c1.4,0,2.7-0.1,4.1-0.1c3.8,0.1,7.5,0.3,11.3,0C93.2,42,94.1,42.2,95.1,42.3z"/>
		<path class="st2" d="M80.8,85.2c0.1,0.2,0.3,0.5,0.4,0.7c1.5,2.1,3.4,3.7,5.4,5.2c0.7,0.5,1,1.1,1,1.9c-0.1,2.9-0.2,5.7-0.3,8.6
			c-0.1,1.8-0.1,3.7-0.2,5.5c0,0.8-0.1,1.6-0.1,2.6c-0.4-0.3-0.6-0.4-0.8-0.6c-1.6-1.3-3.1-2.6-4.7-3.9c-0.5-0.4-0.6-0.9-0.6-1.5
			c0-1.4,0-2.9,0-4.3c-0.2-4.3-0.3-8.7-0.5-13c0-0.3,0-0.7,0.1-1C80.6,85.3,80.7,85.3,80.8,85.2z"/>
		<path class="st2" d="M74.9,42.1c0,2.4,0,4.6,0,7c-0.2,0-0.4,0-0.5,0c-2.3-0.2-4.5,0.1-6.8,0.6c-2.2,0.4-4.4,0.4-6.7,0.6
			c-0.6,0-1.1,0-1.7,0c-0.5-2.4-0.3-4.7-0.2-7.1C64.2,42.6,69.5,42,74.9,42.1z"/>
		<path class="st2" d="M108.3,71c0,0.7-0.1,1.2-0.1,1.9c-0.6,0.1-1.1,0.2-1.6,0.2c-1.3,0.2-2.2,0.8-2.4,2.2c-0.1,0.7-0.3,1.3-0.4,2
			c-3.4,1.1-6.9,0.9-10.3,1.9c-0.3-0.8-0.4-1.5-0.9-2.1c-0.4-0.5-1.1-0.8-1.8-1.2c-0.1-0.6-0.1-1.5-0.2-2.4
			c-0.1-0.9-0.3-1.7-0.4-2.7c1.3-0.3,2.6-0.6,3.8-0.6c2.9,0.1,5.7,0.2,8.6,0.3c1.2,0.1,2.3,0.1,3.5,0.2
			C106.8,70.8,107.5,70.9,108.3,71z"/>
		<path class="st2" d="M58,61.9c0,2.3,0,4.6,0,7.1c-1.1,0.1-2.1,0.3-3.2,0.4c-1.3,0.1-2.6,0.2-3.9,0.3c-2.2,0.3-4.5,0.4-6.9,0.2
			c0.3-2.8,0.5-5.6,0.8-8.3C46.1,61.2,55.6,61.4,58,61.9z"/>
		<path class="st2" d="M51.7,59.4c0-2.1,0-4.1,0-6.2c4.9-1.2,9.9-0.7,14.8-1.2c0.3,0.9,0.5,5.1,0.3,6.5c-0.5,0-1,0.1-1.5,0.1
			c-2.2,0-4.3,0.4-6.4,1c-0.2,0.1-0.5,0.2-0.7,0.1C56.1,59.6,54,59.5,51.7,59.4z"/>
		<path class="st2" d="M126.6,70.7c0.7,2.8,0.7,5.4,0.6,8.1c-0.2,0-0.3,0-0.3,0c-1.9-1.1-3.8-2.1-5.7-3.2c-0.3-0.2-0.6-0.3-0.8-0.5
			c-0.8-0.9-1.9-1-3-0.8c-1.4,0.2-2.7,0.5-4.1,0.8c-0.3,0.1-0.5,0.1-0.9,0.1c-0.4-1.1-0.6-2.2-2-2.5c0-0.7,0-1.4,0-2.2
			c1.5-0.1,3-0.3,4.5-0.4c3.3-0.2,6.5,0,9.8,0.2C125.3,70.5,125.9,70.6,126.6,70.7z"/>
	</g>
</g>
</svg>
