<?xml version="1.0" encoding="utf-8"?>
<!-- Generator: Adobe Illustrator 24.0.1, SVG Export Plug-In . SVG Version: 6.00 Build 0)  -->
<svg version="1.1" xmlns="http://www.w3.org/2000/svg" xmlns:xlink="http://www.w3.org/1999/xlink" x="0px" y="0px"
	 viewBox="0 0 156.8 136.3" style="enable-background:new 0 0 156.8 136.3;" xml:space="preserve">
<style type="text/css">
	.st0{fill:#B7D6E2;}
	.st1{fill:#DDDDDD;}
	.st2{fill:#FFFFFF;}
</style>
<g id="Calque_2">
	<g>
		<path class="st0" d="M48.3,63.2c-8.7-0.7-17.7,3.4-22.8,10.5c-5.1,7.1-6.3,16.9-2.9,25c0.5,1.2,1.2,2.5,2.1,3.4
			c2.4,2.3,6.2,2.5,9.5,1.9c10.3-1.9,19.6-9.5,30-8.6c5.7,0.5,10.9,3.5,16.3,5.4c11.3,3.8,23.8,2.7,35-1.2c2.8-1,5.5-2.1,7.8-4
			c5.2-4.3,6.9-12.1,4.8-18.6c-2.1-6.5-7.4-11.6-13.5-14.6c-10.6-5.2-22.9-4.4-34.7-3.3c-11,1-22.2,2-32.7,5.5"/>
	</g>
</g>
<g id="Calque_1">
	<g>
		<path d="M75.8,90c0.4-0.2,0.9-0.4,1.2-0.6c1.4-1.2,3.1-2,4.7-2.9c0.8-0.5,1.5-1.1,2.3-1.6c1.1-0.7,2.3-1.4,3.4-2.1
			c1.1-0.7,2.2-1.4,2.9-1.8c0.5-2,0.9-3.6,1.4-5.2c0.5-2,1.1-3.9,1.7-5.9c0.2-0.6,0.5-1.3,0.8-1.9c0.5-0.9,1.2-1.5,2.3-1.6
			c1.1-0.1,2.1-0.2,3.2-0.3c0.7,0,1.4,0.1,2.1,0.1c0.1-0.3,0.3-0.5,0.4-0.8c0.1-0.4,0.2-0.8,0.3-1.3c0.4-1.6,1.1-2.9,3-3.3
			c0.3-1.7,1.1-3.4,0.8-5.2c-2.2-0.8-4.3-1.2-6.5-1.6c-1.4-0.3-2.7-0.6-4.1-0.9c-0.2,0-0.4-0.1-0.6-0.2c-1.8-1.1-3.6-2.1-5.3-3.3
			c-0.9-0.6-1.7-1.3-2.6-1.9c-1.4-0.8-2.7-1.8-4.1-2.7c-0.1,0-0.1-0.1-0.2-0.2c-0.6-1.2-1.6-1.2-2.8-1.3c-1.7,0-3.3-0.8-4.8-1.4
			c-0.7-0.3-1-1-1-1.8c0.1-1,0.4-1.8,1.4-2.2c0.5-0.2,1-0.2,1.5-0.1c1.3,0.1,2.6,0.3,3.9,0.5c0.5,0.1,1,0.1,1.7,0.2
			c0.3-0.5,0.6-1,0.9-1.5c0.5-0.9,1.2-1.3,2.2-1.4c2.7-0.3,5.5-0.7,8.2-1c3-0.3,5.9,0,8.8,0.7c1.7,0.4,3.5,0.8,5.2,1.3
			c0.8,0.2,1.6,0.5,2.4,0.7c1.6,0.5,3.1,1.1,4.7,1.5c1.7,0.4,3.3,1.2,4.9,2c1.2,0.5,2,1.6,2.4,2.9c0.5,1.8,0.5,3.6,0.1,5.3
			c-0.5,2.5-0.9,5-1.4,7.4c-0.4,2-0.9,4-1.3,6c-0.3,1.3-0.6,2.6-0.8,4c-0.1,0.5,0,1,0.1,1.5c0.6,3.1,0.6,6.1,0,9.2
			c-0.4,2.2-1,4.4-1.6,6.5c-0.2,0.9-0.6,1.8-1,2.7c-0.5,1.2-1.5,1.9-2.8,1.9c-1.3,0.1-2.5,0-3.8-0.4c-1-0.4-2-0.5-3-0.8
			c-1-0.3-2-0.7-3.1-1c-1.1-0.3-2.2-0.5-3.3-0.8c-0.5-0.1-1.1-0.2-1.7-0.4c-0.4,0.3-1,0.6-1.6,1c-1.8,1.1-3.7,2.2-5.5,3.3
			c-0.9,0.5-1.7,1.2-2.6,1.7c-1,0.6-2.1,1.1-3.1,1.7c-0.5,0.3-1,0.6-1.5,0.9c-1.5,0.9-2.9,2-4.6,2.3c-0.1,0.2-0.1,0.2-0.1,0.3
			c0.3,2.4-0.9,4.2-2.4,5.9c-0.9,1-2,1.5-3.3,1.6c-3,0.1-5.4-0.9-7.3-3.2c-1.5-1.7-1.7-3.6-0.8-5.6c0.6-1.3,1.4-2.5,2.3-3.6
			c0.9-1.2,2.1-1.7,3.6-1.8C73.4,89.4,74.7,89.4,75.8,90z M105.4,84.2c0,0.1,0,0.2,0,0.3c1.1,0.3,2.1,0.7,3.2,0.9
			c1.5,0.3,2.9,1.1,4.5,1c1.2,0,1.5-0.2,1.9-1.2c0.2-0.4,0.4-0.9,0.5-1.3c0.7-2.8,1.5-5.5,1.9-8.3c0.4-2.4,0.3-4.8-0.3-7.1
			c-0.2-0.6-0.2-1.4-0.1-2c0.2-1.7,0.4-3.3,1-4.9c0.2-0.6,0.3-1.2,0.4-1.7c0.7-3.7,1.4-7.4,2.2-11.2c0.3-1.4,0.3-2.7-0.1-4
			c-0.2-0.8-0.6-1.5-1.4-1.8c-1.4-0.6-2.8-1.2-4.2-1.7c-1.3-0.5-2.7-0.8-4-1.2c-2.4-0.7-4.7-1.4-7.1-2.1c-0.7-0.2-1.3-0.3-2-0.4
			c-0.6-0.1-1.2-0.2-1.9-0.3c0.1,0.8,0.2,1.4,0.2,2.1c0.1,1.7-0.2,3.3-0.6,4.8c-0.6,2.1-1.4,4.1-2.1,6.1c-0.1,0.4-0.2,0.8-0.4,1.3
			c0.5,0.2,0.9,0.3,1.3,0.4c2.6,0.6,5.2,1.2,7.8,1.7c0.9,0.2,1.4,0.6,1.7,1.4c0.3,0.7,0.5,1.4,0.3,2.2c-0.3,1.2-0.6,2.5-0.8,3.7
			c-0.2,1-0.7,1.8-1.8,2c-0.6,0.1-0.9,0.5-1,1.1c-0.3,1.1-0.7,2.3-1,3.5c0.5,0.1,0.9,0.2,1.3,0.2c1.1-0.1,2.1,0.4,3,0.9
			c1.4,0.8,1.4,1.8,0.1,2.7c-1.1,0.7-2.3,1.3-3.4,2c-0.3,0.2-0.5,0.4-0.8,0.6c0.6,0.8,1.1,1.4,1.7,2.2c0.5-0.2,0.8-0.4,1.2-0.6
			c1.1-0.7,2.2-1.4,3.4-2.1c0.8-0.5,1.4-0.5,1.9,0.2c1.1,1.4,1.9,2.9,1.2,4.7c-1,2.8-2.7,5.1-6,5.6C106.6,83.9,106,84.1,105.4,84.2z
			 M106.2,69.9c-0.5-0.1-0.7-0.2-0.9-0.2c-1.5-0.2-3,0-4.4,0.6c-1.3,0.6-2.4,1.3-2.9,2.7c-0.6,1.5-1.1,3-0.3,4.6
			c0.4,0.6,0.2,1.3-0.4,1.7c-0.4,0.3-0.8,0.5-1.3,0.7c-1,0.5-2,1-2.9,1.6c-2,1.2-3.8,2.6-5.9,3.7C85.6,86,84.3,87.1,83,88
			c-2,1.3-4.1,2.5-6.1,3.8c-0.7,0.5-1.3,0.5-2.1,0c-1.3-0.9-3.7-0.5-4.6,0.7c-0.8,1-1.5,2.1-2.1,3.2c-0.7,1.3-0.4,2.4,0.5,3.5
			c1.1,1.3,2.5,1.9,4,2.3c1,0.3,2.1,0.3,3-0.4c1.1-0.9,1.9-2,2.3-3.3c0.1-0.4,0.2-0.7,0-1c-0.5,0.7-0.9,1.4-1.4,1.9
			c-0.3,0.4-0.8,0.7-1.3,0.8c-1.2,0.2-3-0.1-4-1.5c-1.1-1.5-0.3-4.1,1.5-4.5c1-0.2,2.1-0.2,3.2-0.2c1,0.1,1.7,0.8,2.1,1.7
			c0.5-0.3,0.8-0.8,1.2-0.9c1.6-0.4,3-1.3,4.4-2.2c3.3-2,6.7-3.9,10-5.9c2.3-1.4,4.6-2.9,6.9-4.3c0.5-0.3,1.1-0.5,1.7-0.2
			c2.3,1.3,4.5,0.5,6.7-0.3c0.3-0.1,0.6-0.3,0.7-0.6c0.6-0.7,1.1-1.5,1.6-2.2c0.6-1,0.5-2-0.2-2.9c-1,0.5-1.9,1.1-2.9,1.6
			c-0.6,0.3-1.2,0.6-1.8,0.9c-0.8,0.3-1.6,0.2-2.1-0.6c-0.5-0.7-1.1-1.4-1.6-2.1c-1-1.5-0.8-2.5,0.8-3.5c0.2-0.2,0.5-0.3,0.7-0.4
			C104.6,70.9,105.2,70.5,106.2,69.9z M95.2,50.8c0.2-0.7,0.4-1.3,0.6-2c0.7-2.2,1.7-4.3,2.1-6.6c0.3-1.8,0.5-3.6-0.4-5.4
			c-2-0.2-4,0.1-6,0.6c0.3,3.4-0.8,6.5-1.6,9.6C91.3,48.8,93.4,49.6,95.2,50.8z M89.5,37.9c-1.4-0.3-2.6-0.1-3.7,0.1
			c-1.5,1.6-0.9,3.7-1.5,5.4c1.3,0.9,2.4,1.7,3.8,2.6C88.8,43.3,89.7,40.8,89.5,37.9z M95.4,78c-0.6-2.1-0.2-4,0.6-5.7
			c0.8-1.9,2.4-2.9,4.1-4c-1,0-2,0.1-3,0.2c-0.7,0.1-1.1,0.5-1.4,1c-0.2,0.3-0.3,0.7-0.4,1c-0.7,2.5-1.5,5-2.2,7.4
			c-0.1,0.4-0.2,0.8-0.2,1.3C93.7,78.8,94.5,78.4,95.4,78z M73,95.6c-0.8,1.3-0.3,1.9,1.7,2c0.6-0.5,1.3-1.1,0.9-2.3
			C74.7,95.4,73.9,95.5,73,95.6z M76.5,40.4c1.2,0.9,2.9,1.2,6,1.2c0-0.2,0-0.4,0-0.5C81.7,40.7,77.1,40.2,76.5,40.4z"/>
		<path d="M32.7,77.3c-1.3,0.8-2.5,1.7-3.8,2.5c-1.4,0.9-2.3,0.7-3.3-0.7c-0.2-0.2-0.3-0.5-0.5-0.7c-1.2-1.7-2.3-3.3-3.5-5
			c-0.8-1.1-1.6-2.3-2-3.6c-0.4-1.4-0.1-2.6,1-3.5c1.1-0.9,2.1-1.9,3.2-2.8c1.1-0.9,2.3-1.7,3.5-2.5c1.5-0.9,3.1-1.6,4.7-2.4
			c0.8-0.4,1.5-0.9,2.3-1.3c0.8-0.4,1.7-0.5,2.5-0.1c0.6,0.3,1.3,0.5,1.8,0.9c0.6,0.4,1.3,0.5,2.1,0.6c-0.5-2.6-0.9-5.1-1.4-7.5
			c-0.2-1.2-0.3-2.4-0.5-3.6c-0.5-3.2-1-6.5-1.4-9.7c-0.3-2.6-0.5-5.3-0.8-7.9c0-0.2,0-0.4,0-0.6c0.1-1.1,0.9-1.5,1.9-0.9
			c1.8,1,3.5,2.1,5.3,3.1c1.6,0.9,3.3,1.7,4.9,2.6c1.3,0.8,2.6,1.6,3.8,2.4c0.9,0.6,1.9,1.3,2.9,1.8c1.9,1,3.7,2,5.5,3.2
			c2.1,1.5,4.3,2.7,6.4,4.2c1.6,1.1,3.2,2.1,4.9,3c0.5,0.3,0.9,0.6,1.4,1c2.2,1.6,4.4,3.2,6.6,4.8c0.6,0.4,1.1,1,1.6,1.4
			c1.4,1.2,2.7,2.4,4.1,3.5c0.3,0.3,0.7,0.5,1,0.7c2.1,1.4,3.7,3.2,4.3,5.8c-0.2,0.5-0.7,1-1.4,1.3c-3.5,1.4-7.2,2.5-10.8,3.6
			c-3.4,1-6.8,1.8-10.2,2.8c-2.2,0.7-4.4,1.1-6.6,1.5c-1.7,0.3-3.3,0.8-5,1.1c-2.5,0.5-5.1,0.9-7.7,1.3c-0.9,0.2-1.9,0.4-2.8,0.6
			c-1.1,0.3-1.7,0.1-2.1-1c-0.9-2.4-1.4-4.9-1.4-7.6c-1.6,0.9-3.2,1.6-4.5,3.1c0.6,0.9,1.1,1.9,1.8,2.8c2.7,3.5,5.5,6.9,8.2,10.3
			c0.4,0.5,0.8,1,1.3,1.4c1.5,1.4,2.8,3,4,4.7c1.4,2,3,3.8,4.4,5.7c0.9,1.2,1.8,2.4,2.7,3.6c0.1,0.2,0.3,0.5,0.2,0.7
			c-0.1,0.7,0.3,1.2,0.7,1.7c0.4,0.5,0.7,0.9,1,1.5c0.5,0.8,0.9,1.6,1.3,2.4c0.5,1,0.5,2-0.2,2.9c-0.8,1.1-1.9,1.9-3.3,2.3
			c-1,0.3-1.9,0.6-2.9,0.9c-1.2,0.3-2.1-0.1-2.8-1.1c-0.5-0.7-0.8-1.5-1.2-2.2c-0.5-0.9-1-1.8-1.8-2.5c-0.3-0.3-0.5-0.8-0.7-1.2
			c-0.7-1.5-1.6-2.9-2.6-4.3c-0.9-1.1-1.5-2.4-2.2-3.6c-1.3-2.3-2.6-4.6-4-6.8c-0.4-0.7-1-1.4-1.5-2c-1.6-1.8-2.9-3.7-4-5.8
			c-0.7-1.2-1.5-2.4-2.3-3.5C34.2,79.3,33.4,78.3,32.7,77.3z M88.8,65.3c0-0.7-0.2-1.2-0.6-1.6c-0.9-0.8-1.7-1.6-2.6-2.3
			c-2-1.4-3.8-3-5.6-4.7c-1.5-1.4-3-2.8-4.9-3.6c-0.5-0.2-0.9-0.6-1.3-0.9c-0.5-0.4-0.9-0.8-1.4-1.1c-2.1-1.3-4.2-2.7-6.2-4
			c-2.1-1.4-4.3-2.6-6.3-4.1c-1.5-1.1-3.1-2-4.7-2.8c-1.3-0.7-2.6-1.6-3.9-2.4c-1.1-0.7-2.2-1.5-3.3-2.1c-2-1.1-4-2.2-6-3.3
			c-0.9-0.5-1.9-0.9-3-1.5c0.2,1.6,0.3,3,0.5,4.5c0.7,0,1.3-0.1,1.9-0.1c0.6,0,0.9,0.4,1,0.8c0.1,0.5-0.2,0.9-0.8,1.1
			c-0.3,0.1-0.6,0.1-0.9,0.2c-0.3,0-0.6,0.1-1,0.1c0.1,0.9,0.2,1.7,0.4,2.6c0.7,0,1.2-0.1,1.8-0.1c0.6,0,1,0.3,1.1,0.8
			c0.1,0.5-0.2,0.9-0.7,1.1c-0.2,0.1-0.5,0.1-0.7,0.1c-0.3,0.1-0.7,0.1-1.1,0.2c0.2,1.3,0.4,2.6,0.6,3.8c0.3,0,0.5,0,0.7,0
			c0.2,0,0.5,0,0.7,0c0.6,0.1,1.1,0.4,1.1,0.9c0,0.5-0.3,0.9-1,1c-0.4,0.1-0.8,0.1-1.3,0.2c0.2,1.2,0.4,2.2,0.6,3.3
			c0.7,0,1.2,0,1.8,0c0.6,0.1,1,0.5,0.9,1c0,0.5-0.4,0.8-1,0.9c-0.4,0.1-0.8,0.1-1.4,0.1c0.1,0.7,0.2,1.4,0.3,2.1
			c0.6-0.1,1.1-0.2,1.6-0.3c0.6-0.1,1.1,0.3,1.2,0.7c0.1,0.5-0.2,0.9-0.8,1.2c-0.4,0.2-0.9,0.3-1.4,0.4c0,0.2,0,0.4,0,0.7
			c0.4,0,0.8,0,1.2,0c1-0.1,1.8,0.3,2.2,1.3c0.3,0.6,0.8,1.2,1.2,1.8c0.4,0.7,0.8,1.4,1.1,2.1c0.4,1,0.1,1.8-0.8,2.4
			c-0.5,0.4-1.1,0.7-1.6,1.1c-0.4,0.2-0.7,0.5-1,0.7c0,0.8,0.1,1.5,0.1,2.3c0.5,0,0.9,0,1.3-0.1c0.4-0.1,0.7-0.2,1.1-0.2
			c0.5-0.1,0.9,0,1.1,0.5c0.2,0.4,0,1-0.4,1.2c-0.3,0.2-0.7,0.3-1.1,0.4c-0.6,0.1-1.1,0.2-1.8,0.4c0.2,0.8,0.3,1.6,0.5,2.3
			c0.1,0.4,0.3,0.8,0.5,1.2C61,73.9,75,70.2,88.8,65.3z M27.5,78.2c0.8-0.5,1.5-0.9,2.1-1.3c2.1-1.5,4.1-3,6.2-4.6
			c0.3-0.2,0.5-0.5,0.8-0.7c1.2-1.2,2.5-2.2,4-3c0.7-0.4,1.4-0.8,2-1.3c1.1-0.8,2.2-1.6,3.3-2.4c0.3-0.2,0.5-0.4,0.9-0.7
			c-0.9-1.3-1.7-2.5-2.5-3.7c-1.4,0-2.8,0-4.1,0c-0.9,0-1.8-0.3-2.6-0.8c-0.7-0.4-1.4-0.6-2-0.9c-0.5,0.2-0.9,0.4-1.3,0.6
			c-1.9,1.3-4,2.3-6.1,3.3c-1.4,0.6-2.5,1.6-3.5,2.6c-0.8,0.8-1.7,1.6-2.6,2.3c-0.7,0.6-0.8,0.7-0.6,1.6c0.2,1.1,0.9,1.9,1.5,2.7
			c1.3,1.8,2.7,3.4,3.8,5.4C27,77.6,27.2,77.9,27.5,78.2z M58.8,101.7c-0.1-0.2-0.1-0.5-0.2-0.6c-0.8-1.2-1.6-2.4-2.5-3.5
			c-1.2-1.6-2.5-3.1-3.7-4.7c-1.1-1.6-2.2-3-3.6-4.3c-0.6-0.6-1.2-1.3-1.8-1.9c-1.3-1.6-2.6-3.3-4-4.9c-1.7-2-3.3-4.2-4.9-6.3
			c-0.3-0.4-0.6-0.9-0.9-1.4c-0.9,0.7-1.8,1.3-2.7,1.9c0.2,0.4,0.3,0.8,0.5,1c0.3,0.5,0.7,1.1,1.1,1.5c1.3,1.5,2.4,3.2,3.3,5
			c0.7,1.3,1.5,2.6,2.5,3.7c1.6,1.9,3.1,3.9,4.2,6.1c0.2,0.5,0.6,1,0.9,1.4c0.6,1,1.2,2.1,1.8,3.1c0.7,1.1,1.3,2.2,2,3.3
			c0.7,1,1.4,2,2.1,3.1c0.2,0.3,0.3,0.5,0.4,0.6c1.2-0.5,2.4-1,3.5-1.5C57.5,102.9,58.3,102.6,58.8,101.7z M62.9,108.6
			c-1-1.6-1.5-3.5-3-4.6c-1.2,0.5-2.3,1-3.4,1.5c-0.8,0.3-1.6,0.6-2.1,1.2c0.9,1.6,1.8,3.2,2.8,4.9
			C59.3,110.9,61.6,110.8,62.9,108.6z"/>
		<path class="st2" d="M105.4,84.2c0.6-0.1,1.2-0.3,1.8-0.4c3.3-0.5,4.9-2.8,6-5.6c0.6-1.7-0.1-3.3-1.2-4.7
			c-0.5-0.6-1.2-0.6-1.9-0.2c-1.1,0.7-2.2,1.4-3.4,2.1c-0.3,0.2-0.7,0.3-1.2,0.6c-0.6-0.7-1.1-1.4-1.7-2.2c0.3-0.2,0.6-0.4,0.8-0.6
			c1.1-0.7,2.3-1.3,3.4-2c1.3-0.8,1.3-1.9-0.1-2.7c-0.9-0.5-1.9-1-3-0.9c-0.4,0-0.9-0.1-1.3-0.2c0.3-1.2,0.7-2.4,1-3.5
			c0.2-0.5,0.5-0.9,1-1.1c1.1-0.3,1.6-1,1.8-2c0.3-1.3,0.5-2.5,0.8-3.7c0.2-0.8,0-1.5-0.3-2.2c-0.3-0.8-0.9-1.3-1.7-1.4
			c-2.6-0.5-5.2-1.2-7.8-1.7c-0.4-0.1-0.8-0.2-1.3-0.4c0.1-0.5,0.2-0.9,0.4-1.3c0.7-2,1.5-4,2.1-6.1c0.5-1.6,0.8-3.2,0.6-4.8
			c0-0.7-0.1-1.3-0.2-2.1c0.7,0.1,1.3,0.2,1.9,0.3c0.7,0.1,1.3,0.3,2,0.4c2.4,0.7,4.8,1.4,7.1,2.1c1.3,0.4,2.7,0.7,4,1.2
			c1.4,0.5,2.8,1.1,4.2,1.7c0.8,0.3,1.2,1,1.4,1.8c0.3,1.3,0.3,2.7,0.1,4c-0.7,3.7-1.4,7.5-2.2,11.2c-0.1,0.6-0.2,1.2-0.4,1.7
			c-0.6,1.6-0.8,3.3-1,4.9c-0.1,0.7,0,1.4,0.1,2c0.6,2.4,0.6,4.8,0.3,7.1c-0.4,2.8-1.3,5.5-1.9,8.3c-0.1,0.5-0.3,0.9-0.5,1.3
			c-0.5,1.1-0.8,1.2-1.9,1.2c-1.6,0-3-0.7-4.5-1c-1.1-0.2-2.1-0.6-3.2-0.9C105.4,84.4,105.4,84.3,105.4,84.2z M110,44
			c-0.2,0-0.4,0-0.6,0c-0.9-0.2-1.4,0.3-1.7,1c-0.1,0.3-0.3,0.6-0.4,0.9c-0.5,1.4,0,2.5,1.3,3c1.7,0.6,3.4,0.8,5.2,0.8
			c0.7,0,1.1-0.4,1.3-1.1c0.1-0.5,0.2-1,0.3-1.5c0.2-0.9-0.2-1.6-1-2C113.1,44.4,111.6,44,110,44z"/>
		<path class="st2" d="M106.2,69.9c-0.9,0.6-1.6,1-2.3,1.4c-0.2,0.1-0.5,0.3-0.7,0.4c-1.5,1-1.8,2-0.8,3.5c0.5,0.7,1.1,1.4,1.6,2.1
			c0.6,0.8,1.3,0.9,2.1,0.6c0.6-0.2,1.2-0.6,1.8-0.9c0.9-0.5,1.9-1,2.9-1.6c0.7,1,0.8,2,0.2,2.9c-0.5,0.8-1,1.5-1.6,2.2
			c-0.2,0.2-0.5,0.5-0.7,0.6c-2.2,0.8-4.4,1.6-6.7,0.3c-0.6-0.4-1.1-0.1-1.7,0.2c-2.3,1.5-4.6,2.9-6.9,4.3c-3.3,2-6.6,4-10,5.9
			c-1.4,0.8-2.7,1.8-4.4,2.2c-0.4,0.1-0.8,0.5-1.2,0.9c-0.4-0.9-1.1-1.6-2.1-1.7c-1.1-0.1-2.2-0.1-3.2,0.2c-1.8,0.4-2.6,3-1.5,4.5
			c1,1.4,2.8,1.8,4,1.5c0.5-0.1,1-0.4,1.3-0.8c0.5-0.6,1-1.3,1.4-1.9c0.3,0.3,0.2,0.7,0,1c-0.4,1.3-1.2,2.5-2.3,3.3
			c-0.9,0.7-2,0.6-3,0.4c-1.5-0.4-2.9-1-4-2.3c-0.9-1.1-1.2-2.3-0.5-3.5c0.6-1.1,1.3-2.2,2.1-3.2c0.9-1.2,3.3-1.6,4.6-0.7
			c0.8,0.5,1.3,0.4,2.1,0c2-1.3,4.1-2.5,6.1-3.8c1.4-0.9,2.6-2,4.1-2.7c2.1-1.1,3.9-2.5,5.9-3.7c1-0.6,2-1.1,2.9-1.6
			c0.4-0.2,0.9-0.4,1.3-0.7c0.6-0.4,0.8-1,0.4-1.7c-0.9-1.6-0.3-3.1,0.3-4.6c0.5-1.3,1.7-2.1,2.9-2.7c1.4-0.7,2.9-0.8,4.4-0.6
			C105.4,69.7,105.7,69.8,106.2,69.9z"/>
		<path class="st2" d="M95.2,50.8c-1.8-1.2-3.9-2-5.3-3.8c0.8-3.1,2-6.2,1.6-9.6c2-0.5,4-0.8,6-0.6c0.9,1.8,0.8,3.5,0.4,5.4
			c-0.4,2.3-1.4,4.4-2.1,6.6C95.6,49.5,95.4,50.1,95.2,50.8z"/>
		<path class="st2" d="M89.5,37.9c0.2,2.8-0.7,5.3-1.5,8.1c-1.3-0.9-2.5-1.7-3.8-2.6c0.6-1.7,0-3.8,1.5-5.4
			C86.9,37.8,88.1,37.6,89.5,37.9z"/>
		<path class="st2" d="M95.4,78c-0.9,0.4-1.6,0.8-2.6,1.2c0.1-0.5,0.1-0.9,0.2-1.3c0.7-2.5,1.5-5,2.2-7.4c0.1-0.3,0.3-0.7,0.4-1
			c0.3-0.6,0.7-1,1.4-1c1-0.1,2-0.2,3-0.2c-1.7,1.1-3.3,2.1-4.1,4C95.2,74,94.8,75.9,95.4,78z"/>
		<path class="st2" d="M76.5,40.4c0.6-0.2,5.2,0.4,6,0.7c0,0.2,0,0.3,0,0.5C79.4,41.6,77.7,41.2,76.5,40.4z"/>
		<path class="st2" d="M88.8,65.3C75,70.2,61,73.9,46.5,75.9c-0.2-0.4-0.4-0.8-0.5-1.2c-0.2-0.7-0.3-1.5-0.5-2.3
			c0.6-0.1,1.2-0.2,1.8-0.4c0.4-0.1,0.8-0.2,1.1-0.4c0.5-0.3,0.6-0.8,0.4-1.2c-0.2-0.5-0.6-0.6-1.1-0.5c-0.4,0.1-0.7,0.2-1.1,0.2
			c-0.4,0.1-0.8,0.1-1.3,0.1c0-0.8-0.1-1.5-0.1-2.3c0.3-0.2,0.6-0.5,1-0.7c0.5-0.4,1.1-0.7,1.6-1.1c0.8-0.6,1.1-1.4,0.8-2.4
			c-0.3-0.7-0.7-1.4-1.1-2.1c-0.4-0.6-0.9-1.2-1.2-1.8c-0.5-0.9-1.2-1.3-2.2-1.3c-0.4,0-0.8,0-1.2,0c0-0.3,0-0.4,0-0.7
			c0.5-0.1,1-0.2,1.4-0.4c0.6-0.2,0.9-0.7,0.8-1.2c-0.1-0.5-0.6-0.8-1.2-0.7c-0.5,0.1-1,0.2-1.6,0.3c-0.1-0.7-0.2-1.3-0.3-2.1
			c0.5-0.1,1-0.1,1.4-0.1c0.6-0.1,0.9-0.4,1-0.9c0-0.5-0.3-1-0.9-1c-0.5-0.1-1.1,0-1.8,0c-0.2-1.1-0.4-2.1-0.6-3.3
			c0.5-0.1,0.9-0.1,1.3-0.2c0.6-0.1,1-0.5,1-1c0-0.5-0.4-0.9-1.1-0.9c-0.2,0-0.5,0-0.7,0c-0.2,0-0.4,0-0.7,0
			c-0.2-1.3-0.4-2.5-0.6-3.8c0.5-0.1,0.8-0.1,1.1-0.2c0.2,0,0.5-0.1,0.7-0.1c0.5-0.2,0.8-0.6,0.7-1.1c-0.1-0.5-0.5-0.8-1.1-0.8
			c-0.6,0-1.1,0-1.8,0.1c-0.1-0.9-0.2-1.7-0.4-2.6c0.4-0.1,0.7-0.1,1-0.1c0.3-0.1,0.6-0.1,0.9-0.2c0.6-0.2,0.8-0.6,0.8-1.1
			c-0.1-0.5-0.4-0.8-1-0.8c-0.6,0-1.2,0-1.9,0.1C39.1,34,39,32.6,38.8,31c1.1,0.6,2.1,1,3,1.5c2,1.1,4,2.1,6,3.3
			c1.1,0.6,2.2,1.4,3.3,2.1c1.3,0.8,2.5,1.7,3.9,2.4c1.6,0.9,3.2,1.8,4.7,2.8c2.1,1.4,4.2,2.7,6.3,4.1c2.1,1.3,4.2,2.6,6.2,4
			c0.5,0.3,0.9,0.7,1.4,1.1c0.4,0.3,0.8,0.7,1.3,0.9c1.9,0.8,3.4,2.2,4.9,3.6c1.8,1.7,3.6,3.3,5.6,4.7c0.9,0.7,1.7,1.5,2.6,2.3
			C88.6,64.1,88.8,64.6,88.8,65.3z M55.6,70.6c0.3,0,0.7-0.1,1.2-0.2c2.7-0.7,5.4-1.4,8.1-2.2c1.5-0.4,2.9-0.9,4.3-1.3
			c1.5-0.4,3.1-0.7,4.7-1c1.6-0.4,3.2-0.9,4.8-1.4c0.5-0.2,1-0.5,1.5-0.8c0.8-0.5,0.8-1.4,0-1.8c-0.4-0.2-0.6-0.5-0.8-0.8
			c-0.2-0.3-0.5-0.6-0.9-0.8c-1.5-1-3-1.9-4.6-2.9c-0.2-0.1-0.5-0.3-0.7-0.5c-2.4-2-4.9-4-7.6-5.6c-0.2-0.1-0.4-0.3-0.6-0.4
			c-2.2-1.7-4.5-3.2-7.2-4c-0.5-0.1-0.9-0.4-1.3-0.6c-1.6-1.1-3.2-2.1-4.8-3.2c-1.2-0.8-2.4-1.6-3.6-2.4c-0.4-0.3-0.8-0.3-1.2-0.1
			c-0.9,0.5-1.2,1.2-1,2.2c0.2,1,0.4,2,0.6,3c0.7,3,1.4,6,2.1,9c0.6,2.1,1.3,4.2,1.8,6.3c0.7,2.9,1.8,5.6,2.9,8.4
			C53.9,70.3,54.5,70.6,55.6,70.6z"/>
		<path class="st2" d="M27.5,78.2c-0.3-0.4-0.5-0.6-0.7-0.9c-1.1-1.9-2.5-3.6-3.8-5.4c-0.6-0.8-1.3-1.7-1.5-2.7
			c-0.2-0.9-0.1-1,0.6-1.6c0.9-0.7,1.8-1.5,2.6-2.3c1-1.1,2.2-2,3.5-2.6c2.1-1,4.2-2,6.1-3.3c0.4-0.2,0.8-0.4,1.3-0.6
			c0.7,0.3,1.4,0.5,2,0.9c0.8,0.5,1.7,0.8,2.6,0.8c1.3,0,2.6,0,4.1,0c0.8,1.2,1.6,2.4,2.5,3.7c-0.4,0.3-0.6,0.5-0.9,0.7
			c-1.1,0.8-2.2,1.6-3.3,2.4c-0.7,0.5-1.3,0.9-2,1.3c-1.5,0.8-2.8,1.8-4,3c-0.3,0.3-0.5,0.5-0.8,0.7c-2,1.5-4.1,3.1-6.2,4.6
			C29,77.4,28.3,77.7,27.5,78.2z"/>
		<path class="st2" d="M58.8,101.7c-0.5,0.9-1.3,1.2-2.1,1.5c-1.1,0.5-2.3,1-3.5,1.5c-0.1-0.1-0.2-0.4-0.4-0.6c-0.7-1-1.4-2-2.1-3.1
			c-0.7-1.1-1.4-2.2-2-3.3c-0.6-1-1.2-2.1-1.8-3.1c-0.3-0.5-0.6-0.9-0.9-1.4c-1.1-2.2-2.6-4.2-4.2-6.1c-0.9-1.1-1.7-2.4-2.5-3.7
			c-1-1.8-2.1-3.4-3.3-5c-0.4-0.5-0.8-1-1.1-1.5c-0.2-0.3-0.3-0.6-0.5-1c0.9-0.6,1.8-1.3,2.7-1.9c0.3,0.5,0.6,1,0.9,1.4
			c1.6,2.2,3.2,4.3,4.9,6.3c1.4,1.6,2.7,3.3,4,4.9c0.6,0.7,1.1,1.3,1.8,1.9c1.4,1.3,2.6,2.7,3.6,4.3c1.1,1.6,2.5,3.1,3.7,4.7
			c0.9,1.1,1.7,2.3,2.5,3.5C58.7,101.3,58.7,101.5,58.8,101.7z"/>
		<path class="st2" d="M62.9,108.6c-1.3,2.2-3.5,2.3-5.6,3c-1-1.7-1.9-3.3-2.8-4.9c0.5-0.6,1.3-0.9,2.1-1.2c1.1-0.4,2.2-0.9,3.4-1.5
			C61.4,105,61.9,106.9,62.9,108.6z"/>
		<path d="M110,44c1.6-0.1,3.1,0.3,4.5,1c0.8,0.4,1.1,1.1,1,2c-0.1,0.5-0.2,1-0.3,1.5c-0.2,0.8-0.6,1.1-1.3,1.1
			c-1.8,0-3.5-0.2-5.2-0.8c-1.4-0.5-1.8-1.6-1.3-3c0.1-0.3,0.2-0.6,0.4-0.9c0.3-0.7,0.8-1.2,1.7-1C109.6,44.1,109.8,44,110,44z
			 M109.2,46.9c1.4,0.5,2.7,0.8,4.1,0.7c0.1-0.2,0.1-0.4,0.1-0.5c0-0.1,0-0.2-0.1-0.3C111.1,45.8,110,45.8,109.2,46.9z"/>
		<path d="M55.6,70.6c-1.1,0-1.7-0.4-2-1.1c-1.1-2.7-2.2-5.5-2.9-8.4c-0.5-2.1-1.3-4.2-1.8-6.3c-0.8-3-1.4-6-2.1-9
			c-0.2-1-0.4-2-0.6-3c-0.2-1,0.1-1.7,1-2.2c0.4-0.3,0.8-0.2,1.2,0.1c1.2,0.8,2.4,1.6,3.6,2.4c1.6,1.1,3.2,2.2,4.8,3.2
			c0.4,0.3,0.8,0.5,1.3,0.6c2.7,0.8,5,2.3,7.2,4c0.2,0.1,0.4,0.3,0.6,0.4c2.7,1.6,5.2,3.6,7.6,5.6c0.2,0.2,0.5,0.3,0.7,0.5
			c1.5,1,3.1,1.9,4.6,2.9c0.3,0.2,0.6,0.5,0.9,0.8c0.2,0.3,0.4,0.6,0.8,0.8c0.8,0.4,0.8,1.3,0,1.8c-0.5,0.3-1,0.6-1.5,0.8
			c-1.6,0.5-3.2,1-4.8,1.4c-1.5,0.4-3.1,0.6-4.7,1c-1.5,0.4-2.9,0.9-4.3,1.3c-2.7,0.8-5.4,1.5-8.1,2.2
			C56.3,70.5,55.9,70.6,55.6,70.6z M48.3,43.4c0.1,0.8,0.2,1.3,0.3,1.8c0.7,3,1.3,5.9,2.1,8.9c0.6,2.4,1.4,4.8,2.1,7.2
			c0.5,1.8,1.1,3.5,1.7,5.2c0.2,0.7,0.6,1.4,1,2c0.3,0,0.5-0.1,0.7-0.1c2.7-0.7,5.3-1.4,8-2.2c1.5-0.4,3-1,4.6-1.4
			c1.6-0.4,3.3-0.7,4.9-1.1c0.7-0.2,1.5-0.4,2.2-0.6c0.7-0.2,1.4-0.4,2.2-0.7c-0.3-0.3-0.4-0.5-0.6-0.6c-1.3-0.9-2.7-1.7-4-2.6
			c-0.6-0.4-1.3-0.8-1.9-1.3c-1.9-1.4-3.7-2.8-5.5-4.2c-0.7-0.5-1.6-1-2.3-1.5c-2-1.5-4.1-2.8-6.6-3.6c-0.6-0.2-1.2-0.6-1.8-0.9
			c-1.9-1.2-3.7-2.5-5.6-3.7C49.4,43.8,48.9,43.7,48.3,43.4z"/>
		<path class="st2" d="M109.2,46.9c0.8-1.1,2-1.1,4.1-0.1c0,0.1,0.1,0.2,0.1,0.3c0,0.1-0.1,0.3-0.1,0.5
			C111.9,47.7,110.6,47.4,109.2,46.9z"/>
	</g>
</g>
</svg>
