<?xml version="1.0" encoding="utf-8"?>
<!-- Generator: Adobe Illustrator 24.0.1, SVG Export Plug-In . SVG Version: 6.00 Build 0)  -->
<svg version="1.1" xmlns="http://www.w3.org/2000/svg" xmlns:xlink="http://www.w3.org/1999/xlink" x="0px" y="0px"
	 viewBox="0 0 156.8 136.3" style="enable-background:new 0 0 156.8 136.3;" xml:space="preserve">
<style type="text/css">
	.st0{fill:#B7D6E2;}
	.st1{fill:#DDDDDD;}
	.st2{fill:#FFFFFF;}
</style>
<g id="Calque_2">
	<g>
		<path class="st0" d="M48,74c-7.8,0.1-13.9,6.6-17.8,13.3c-1.6,2.8-3.1,5.9-2.9,9.2c0.3,5,4.7,9,9.4,10.7c4.7,1.7,9.9,1.6,14.9,1.7
			c7.8,0.3,15.6,1.3,23.2,3c6.9,1.6,13.8,3.8,20.9,4.1c9.8,0.4,19.6-3.1,26.9-9.6c3.7-3.2,6.9-7.6,6.8-12.5
			c-0.1-6.2-5.4-11.1-10.8-14.3c-4.8-2.8-10-5-15.4-6.3"/>
	</g>
</g>
<g id="Calque_1">
	<g>
		<path d="M96.9,34.3c1.5,0.8,3.1,1.2,4.1,2.5c1.7,0,1.7,0,2.9,1.2c0.5,0.5,1,1,1.5,1.6c0.5,0.5,0.9,1.1,1.4,1.8
			c0.3,0,0.8,0.1,1.2,0.2c2.2,0.3,3.7,1.6,4.4,3.7c0.4,1.1,0.6,2.3,0.7,3.5c0.1,1.4,0.1,2.9,0.1,4.3c0,2.8-0.1,5.7-0.2,8.5
			c-0.1,3-0.3,6-1,8.9c-0.6,2.5-0.6,5.1-0.4,7.6c0.2,3.3,0.1,6.6-0.5,9.8c-0.4,2.2-2,3.6-4,4.3c-4.6,1.7-9.3,2.8-14.2,3
			c-3.2,0.2-6.4,0.6-9.6,0.7c-5,0.2-9.9,0.4-14.9-0.1c-2.1-0.2-4.1-0.6-6.2-0.8c-0.8-0.1-1.7-0.2-2.5-0.2c-4.3-0.2-8.5-0.5-12.8-1.1
			c-1.8-0.2-3.4-0.9-4.6-2.3c-0.7-0.7-1-1.6-1.4-2.5c-1.3-3.2-2-6.6-1.6-10.1c0.2-1.4,0.7-2.8,1-4.2c0.3-1,0.7-2.1,0.9-3.1
			c0.4-1.6,0.5-3.3,0.1-5c-0.7-2.8-0.8-5.6-0.5-8.5c0.2-1.9,0.4-3.7,0.5-5.6c0.1-0.8,0.5-1.4,1.2-1.8c0.2-0.1,0.4-0.2,0.5-0.3
			c0.3-1.7,0.6-3.4,0.9-5c0.1-0.3,0.2-0.6,0.3-0.9c0.5-1.7,1.4-3,3.4-3c0.1-0.3,0.2-0.6,0.3-0.9c0.5-1.8,1.5-3,3.4-3.5
			c0.4-0.1,0.8-0.5,1.1-0.9c1.1-1.3,2.1-2.6,3.2-3.9c0.7-0.8,1.4-1.3,2.4-0.7c1.9-0.9,3.7-1.8,5.5-2.6c0.1-0.2,0.1-0.3,0.1-0.3
			c-0.3-1.7-0.1-2,1.4-2.7c0.4-0.2,0.9-0.4,1.3-0.6c0.9-0.4,1.8-0.5,2.5,0.3c1-0.3,2-0.5,3-0.8c0.1-0.1,0.2-0.2,0.2-0.2
			c0.9-1.8,1-1.9,3-1.7c0.8,0.1,1.7,0.1,2.5,0.1c1.6,0,2,0.4,2.3,2c0,0.1,0.1,0.2,0.1,0.3c0.1,0.1,0.2,0.1,0.2,0.1
			c2.8,0,5.4,0.8,8.1,1.4c1.1,0.2,2.1,0.9,3,1.6c0.8,0.6,1.7,1.1,2.7,1.1c0.4,0,0.7,0.1,1.1,0.1c0.9,0.1,1.4,0.7,1.5,1.5
			c0.1,0.6,0.2,1.2,0.2,1.8C96.9,33.5,96.9,33.9,96.9,34.3z M43.5,52.9c-0.2,1.9-0.3,3.8-0.5,5.7c-0.3,2.7-0.1,5.4,0.5,8
			c0.5,2,0.3,3.9-0.2,5.8c-0.3,1-0.5,2-0.9,3c-1.1,2.8-1.4,5.7-0.8,8.7c0.4,1.8,0.8,3.6,1.7,5.2c0.9,1.6,2.2,2.4,4,2.7
			c4.3,0.5,8.6,0.9,12.9,1.1c0.8,0,1.6,0.1,2.4,0.2c2.2,0.3,4.4,0.8,6.5,0.8c4.6,0.1,9.2,0.2,13.8,0.1c3.3-0.1,6.5-0.6,9.8-0.7
			c4.7-0.3,9.3-1.3,13.7-2.9c1.6-0.6,2.7-1.6,2.8-3.5c0.1-1.3,0.2-2.5,0.3-3.8c0.1-1.6,0-3.2,0.1-4.8c0.1-2.5,0-5,0.3-7.4
			c0.5-3.1,1-6.2,1-9.3c0.1-2.9,0.1-5.8,0.2-8.6c0-1.3,0.1-2.6,0-4c-0.1-1-0.3-2-0.6-2.9c-0.5-1.5-1.6-2.4-3.2-2.5
			c-1.3-0.1-2.6-0.1-3.8,0.2c-3.4,0.7-6.8,1-10.2,1.1c-3.5,0.1-7.1,0.5-10.6,0.9c-4.3,0.6-8.6,1.1-12.9,1.2
			c-2.6,0.1-5.1,0.2-7.6,0.6c-3.8,0.6-7.5,1.5-11.3,2.2c-0.9,0.2-1.8,0.2-2.6,0.6C46.8,51.2,45.3,52,43.5,52.9z M90.5,34.1
			c0.9,0.8,1.6,1.4,2.5,2.2c0.1,0,0.3-0.1,0.7-0.1c-0.1-1.1,0.1-2,1.2-2.4c-0.1-0.7-0.1-1.3-0.2-1.9c-0.9-0.1-1.7-0.2-2.6-0.3
			C91.6,32.4,91,33.3,90.5,34.1z M66.5,30.2c-2.3,1-4.4,1.9-6.5,2.8c0,0.7-0.1,1.2-0.1,1.8c0.4,0,0.7,0.1,0.9,0.1
			c1.7-2,4-2.6,6.4-3.3C67,31.1,66.8,30.8,66.5,30.2z M83.9,34.2c-0.3-0.7-0.5-1.3-0.6-1.8c-1.4-0.1-2.8-0.1-4.2-0.2
			c0.1,0.8,0.3,1.5,0.4,2.2c0.8,0.1,1.5,0.4,2.1,0.3C82.3,34.7,83,34.4,83.9,34.2z M76.7,44.6c2-0.2,4-0.3,5.8-0.8
			c0.1-0.6,0.2-1.2,0.4-1.9c-0.9,0.3-1.7,0.6-2.5,0.9c-0.5,0.2-1,0.4-1.6,0.1c-0.8-0.3-1.6,0-2.4,0.2C76.5,43.5,76.6,44,76.7,44.6z
			 M86.5,29.3c-0.1-0.2-0.1-0.4-0.2-0.4c-1.1-0.3-2.2-0.7-3.3-0.8c-1.3-0.2-2.7-0.3-4-0.4c0,0.1-0.1,0.2-0.1,0.3
			c1.3,0,1.9,0.9,2.5,1.8c0.4,0.6,0.9,0.8,1.5,0.5C83.6,29,83.6,29,86.5,29.3z M53.1,45.7c-1.7,0.5-3.3,1-5,1.5
			c0,0.4,0.1,0.6,0.1,1.1c1.9-0.3,3.7-0.7,5.7-1C53.5,46.7,53.3,46.3,53.1,45.7z M73.6,27c-1.2,0.2-2.3,0.4-3.5,0.6
			c0.1,0.5,0.1,0.9,0.2,1.1c0.5,0.3,0.8,0.6,1.2,0.8c1-0.3,1.9-0.5,2.8-0.8C74.1,28.1,73.9,27.7,73.6,27z M78.5,39.5
			c0.2,0.3,0.6,0.9,1,1.4c0.9-0.3,1.6-0.5,2.4-0.8c-0.5-0.7-0.8-1.2-1.3-1.8c-0.4-0.5-0.5-1.2-1.1-1.5
			C79.2,37.7,78.9,38.5,78.5,39.5z M85,35.7c1.9,0.9,3.7,1.2,5.4,1.9c0.1-0.2,0.3-0.4,0.4-0.7c-1.3-0.8-2.6-1.5-3.9-2.3
			C86.3,34.9,85.7,35.2,85,35.7z M67.4,35.2c0.6-0.3,1.2-0.7,1.8-0.8c0.6-0.1,1.2,0.3,1.8,0.4c-0.5-1.3-0.9-2.6-1.4-4
			c-0.3,0.8-0.4,1.5-0.8,1.9c-0.4,0.5-1.1,0.8-1.7,1.2C67.2,34.4,67.3,34.8,67.4,35.2z M95.9,42.9c1.7-0.3,3.4-0.1,5.1-0.7
			c-0.5-0.4-0.8-0.8-1.1-0.8c-1.3-0.2-2.7-0.2-4-0.3c0,0.3-0.1,0.5-0.1,0.7C95.8,42,95.9,42.4,95.9,42.9z M54.6,38.7
			c1-0.3,1-0.3,1.8-1.5c1.2-2.1,1.4-2.6,1.1-3.5c-1.2,1.3-2.2,2.5-3.1,3.8C54.4,37.9,54.5,38.2,54.6,38.7z M76.7,37.5
			c-0.7-0.2-1.3-0.4-1.8-0.6c-1.2,0.8-2.3,1.5-3.4,2.3c1,0.8,1.1,0.8,1.9,0.3C74.4,38.9,75.4,38.2,76.7,37.5z M60.7,45.8
			c-1-1.1-1.8-2.1-2.7-3.2c-0.3,0.3-0.7,0.6-1,0.9c0.7,0.9,1.3,1.8,1.9,2.7C59.5,46.1,60,46,60.7,45.8z M72.9,31.3
			c1.5,0.2,2.7,1,3.8,0.7c0.7-0.8,1.1-1.5,1.6-2.1c-0.3,0-0.7-0.1-1,0C75.8,30.4,74.4,30.8,72.9,31.3z M77.3,34.2
			C76.4,34.1,75.7,34,75,34c-0.7-0.1-1.4-0.6-2.2-0.3c0.2,0.6,0.4,1.2,0.6,1.7c1.5-0.5,1.5-0.5,3.1-0.1c0.3,0.1,0.6,0.1,1,0.2
			C77.4,35,77.3,34.6,77.3,34.2z M82.1,36.8c0.8,1.1,1.5,2.1,2.3,3.2c0.5-0.5,0.9-1.1,1.4-1.7c-0.7-0.3-1.2-0.6-1.8-0.8
			C83.4,37.3,83.1,36.4,82.1,36.8z M51,44.1c0.6-0.1,1-0.2,1.4-0.3c1.4-0.2,2.1,0.1,2.7,1.4c0.2,0.5,0.4,1,0.7,1.6
			c0.3-0.1,0.5-0.1,1-0.2c-0.5-0.6-1-1.1-1.3-1.7c-0.4-0.6-0.6-1.2-0.9-1.8c-1.1,0-2.2,0-3.3,0C51.2,43.5,51.1,43.7,51,44.1z
			 M70.4,43.4C69,43.6,68.8,43.9,69,45c1.2,0.1,2.5,0.1,3.8-0.1C71.9,44.4,71.2,43.9,70.4,43.4z M77.6,25.3c-0.9,0-1.8-0.1-2.7-0.1
			c0.5,1,0.9,1.9,1.4,3C76.8,27.1,77.2,26.3,77.6,25.3z M87.4,39.7c0.4,0.7,0.9,1.4,1.4,2.3c0.4-1,0.7-1.8,1-2.6
			c-0.7-0.2-1.2-0.3-1.8-0.4C87.8,39.3,87.6,39.5,87.4,39.7z M67,38.8c0.6-0.2,1.2-0.5,1.7-0.6c0.6-0.2,1.3-0.1,1.6-0.9
			c-0.3-0.2-0.6-0.5-0.9-0.7c-0.9,0.5-1.8,1-2.7,1.4C66.8,38.3,66.9,38.5,67,38.8z M61,39.5c0.2,0.2,0.4,0.3,0.6,0.5
			c0.9-0.7,1.8-1.3,2.7-2c-0.4-0.3-0.7-0.4-0.9-0.6C62.3,37.9,61.4,38.4,61,39.5z M48.9,44.1c-2-0.6-2.6-0.1-2.7,1.9
			c0.8-0.4,1.7-0.8,2.7-1.3C48.9,44.6,48.9,44.3,48.9,44.1z M89.1,32.5c-1.4-0.5-2.6-0.9-4.1-1.4c0.3,0.8,0.5,1.3,0.7,1.8
			c1.1-0.2,2.1-0.5,3.1,0.3C88.8,32.9,88.9,32.7,89.1,32.5z M72.4,42.4c0.8,0.2,1.3,0.4,1.6,0.5c0.5-0.6,0.7-1.2,1.2-1.5
			c0.5-0.3,1.1-0.4,1.9-0.7c-0.3-0.3-0.5-0.5-0.7-0.7C75,40.8,73.8,41.5,72.4,42.4z M101.9,38.8c-0.3,0.2-0.5,0.3-0.8,0.4
			c0.8,0.9,1.4,1.7,2.2,2.5c0.3-0.1,0.6-0.1,1.1-0.3C103.5,40.5,102.7,39.7,101.9,38.8z M92.2,39.4c-0.1,0-0.1,0-0.2,0
			c-0.4,1.1-0.8,2.3-1.2,3.4c0.6,0,1,0,1.4,0C92.2,41.6,92.2,40.5,92.2,39.4z M52.3,41c0-0.5,0.1-1,0.2-1.6c-1.3,0-1.7,0.3-2.1,1.6
			c0.6,0.1,1.1,0.1,1.7,0.2C52,41.1,52.1,41.1,52.3,41z M86.1,41.4c-1,1-1.1,1-1.2,2.1c0.8-0.1,1.5-0.1,2.4-0.2
			C86.8,42.6,86.5,42,86.1,41.4z M69.3,40c-0.7,0.4-1.3,0.7-2,1.1c0.3,0.3,0.5,0.6,0.7,0.9c0.8-0.3,1.4-0.6,2.3-0.9
			C69.9,40.7,69.7,40.4,69.3,40z M54.5,40.2c0,0.3-0.1,0.5-0.1,0.8c0.6,0.1,1.2,0.2,1.8,0.3c0-0.1,0-0.1,0-0.2
			c0.9-0.3,1.9-0.6,2.8-0.9C57.5,40,56,41.1,54.5,40.2z M63.6,41.9c0.9-0.5,1.5-0.9,2.3-1.3c-0.2-0.3-0.4-0.5-0.6-0.8
			c-1.1,0.8-2.1,1.5-3.2,2.4C62.8,42,63.3,42,63.6,41.9z M66.1,43c-0.1,0-0.2,0-0.4,0c-0.2,0.7-0.3,1.5-0.5,2.4
			c0.7-0.1,1.2-0.1,1.8-0.2C66.7,44.3,66.4,43.6,66.1,43z M96.8,36.5c0.5,1.1,0.9,1.9,1.4,2.9c0.3-0.7,0.5-1.2,0.8-1.7
			C98.3,37.3,97.7,36.9,96.8,36.5z M66.1,36.1c-0.5-0.6-0.8-1.1-1.2-1.6c-0.5,0.3-0.9,0.5-1.3,0.8C64.5,35.3,65,36.4,66.1,36.1z
			 M88.4,29.3c-0.2,0.3-0.3,0.5-0.4,0.8c2,0.6,2,0.6,2.6,0.3C89.8,29.9,89.2,29.6,88.4,29.3z M68.3,28.9c-0.3-0.5-0.6-0.9-0.9-1.4
			c-0.6,0.1-1.1,0.2-1.4,0.6C66.7,28.3,67.4,28.6,68.3,28.9z"/>
		<path class="st2" d="M43.5,52.9c1.8-0.9,3.3-1.7,4.9-2.4c0.8-0.3,1.7-0.4,2.6-0.6c3.8-0.8,7.5-1.6,11.3-2.2
			c2.5-0.4,5.1-0.6,7.6-0.6c4.3-0.1,8.6-0.6,12.9-1.2c3.5-0.5,7.1-0.8,10.6-0.9c3.4-0.1,6.8-0.4,10.2-1.1c1.2-0.2,2.6-0.3,3.8-0.2
			c1.5,0.1,2.7,1,3.2,2.5c0.3,0.9,0.5,1.9,0.6,2.9c0.1,1.3,0.1,2.6,0,4c0,2.9-0.1,5.8-0.2,8.6c-0.1,3.1-0.6,6.2-1,9.3
			c-0.4,2.4-0.3,4.9-0.3,7.4c-0.1,1.6,0,3.2-0.1,4.8c-0.1,1.3-0.2,2.5-0.3,3.8c-0.1,1.9-1.3,2.9-2.8,3.5c-4.4,1.6-9,2.6-13.7,2.9
			c-3.3,0.2-6.5,0.7-9.8,0.7c-4.6,0.1-9.2,0.1-13.8-0.1c-2.2-0.1-4.4-0.6-6.5-0.8c-0.8-0.1-1.6-0.2-2.4-0.2
			c-4.3-0.1-8.6-0.5-12.9-1.1c-1.8-0.2-3.1-1.1-4-2.7c-0.9-1.6-1.3-3.4-1.7-5.2c-0.6-3-0.3-5.9,0.8-8.7c0.4-1,0.7-2,0.9-3
			c0.5-1.9,0.6-3.8,0.2-5.8c-0.6-2.6-0.8-5.3-0.5-8C43.2,56.7,43.3,54.7,43.5,52.9z M83.8,66.7c0-1.8-0.3-3.4-0.9-5
			c-0.8-1.8-2.7-2.5-4.5-1.8c-1.4,0.5-2,1.7-2.3,3c-0.6,2.9-0.6,5.9,0,8.8c0.2,1.1,0.8,2,1.7,2.7c1.2,0.9,2.3,0.8,3.4-0.2
			c1.1-1.1,1.9-2.4,2.2-4C83.5,69,83.6,67.8,83.8,66.7z M58,66.7c0,2.8,0.4,5,1.4,7.2c0.7,1.6,2.1,2,3.6,1.2
			c0.7-0.4,1.1-0.9,1.4-1.6c1.7-3.3,1.8-6.8,0.8-10.4c-0.2-0.7-0.6-1.4-1-2c-0.9-1.2-2.5-1.4-3.7-0.5c-0.5,0.5-1,1-1.4,1.6
			C58.2,63.7,58,65.4,58,66.7z M74.6,66.3c-0.2-1.1-0.3-2.4-0.7-3.7c-0.4-1.3-1.3-2.1-2.6-2.4c-0.3-0.1-0.7-0.1-1,0
			c-1.4,0.6-2.5,1.4-3,2.9c-0.5,1.5-0.6,3-0.6,4.6c0.1,2,0.4,4,1.3,5.8c0.8,1.8,3.2,2.2,4.4,0.8c0.7-0.8,1.2-1.7,1.5-2.7
			C74.3,69.9,74.4,68.2,74.6,66.3z M90.9,70.3c0.6,1,1.1,1.8,1.6,2.6c0.3,0.4,0.7,0.6,1.2,0.4c0.5-0.2,0.7-0.8,0.5-1.3
			c-0.1-0.3-0.3-0.6-0.4-0.9c-0.5-1-1-2-1.5-3c-0.1-0.3,0-0.8,0.1-1.1c0.4-1,1-1.9,1.5-2.9c0.2-0.3,0.3-0.6,0.4-1
			c0.1-0.5-0.1-0.9-0.6-1.1c-0.3-0.1-0.8,0-1.1,0.2c-0.2,0.1-0.3,0.5-0.5,0.8c-0.3,0.6-0.7,1.2-1,1.7c-0.2-0.4-0.1-0.8-0.2-1.2
			c-0.1-0.8-0.1-1.5-0.3-2.2c-0.1-0.5-0.5-0.7-1-0.7c-0.5,0.1-0.8,0.4-0.9,0.9c0,0.3,0,0.6,0,1c0,0.4,0.1,0.9,0.1,1.3
			c0,3-0.1,5.9-0.1,8.9c0,0.1,0,0.2,0,0.4c0.1,0.8,0.5,1.3,1,1.2c0.6,0,0.9-0.5,1-1.3c0-0.2,0-0.5,0-0.7
			C90.9,71.7,90.9,71.1,90.9,70.3z M54.3,64.9c0.1,0,0.1,0.1,0.2,0.1c0,0.2,0,0.3,0,0.5c-0.3,3.1-0.7,6.3-1,9.4
			c0,0.4-0.1,0.7-0.1,1.1c0,0.5,0.3,0.9,0.9,1c0.6,0.1,0.9-0.3,1-0.8c0.1-0.3,0.1-0.6,0.2-0.9c0.2-2.4,0.5-4.8,0.7-7.1
			c0.2-1.5,0.4-3,0.5-4.5c0.1-0.6,0.1-1.1,0-1.7c-0.2-1.1-1.2-1.5-1.9-0.7c-1.3,1.3-2.4,2.7-3.1,4.4c-0.3,0.7-0.1,1.2,0.3,1.5
			c0.5,0.3,1,0.1,1.4-0.5C53.8,65.9,54,65.4,54.3,64.9z M97.5,69.6c-0.1,0.4-0.2,0.8-0.3,1.3c-1.2-0.8-1.4-2.6-0.7-4.4
			c0.3-0.2,0.7-0.3,0.9-0.5c0.2-0.2,0.4-0.7,0.3-0.9c-0.1-0.3-0.4-0.6-0.7-0.7c-0.4-0.1-0.8,0-1.1,0.1c-0.7,0.3-1.2,0.9-1.4,1.6
			c-0.6,1.7-0.5,3.4,0.1,5c0.3,0.8,0.9,1.4,1.7,1.8c1,0.6,2.3,0.3,2.6-0.7c0.4-1.1,0.5-2.2,0.6-3.4c0.1-0.8-0.6-1.3-1.6-1.5
			c-0.8-0.1-1.1,0-1.6,1.1C96.6,68.7,97,69.1,97.5,69.6z"/>
		<path class="st2" d="M90.5,34.1c0.5-0.8,1.1-1.7,1.6-2.6c0.9,0.1,1.7,0.2,2.6,0.3c0.1,0.7,0.1,1.3,0.2,1.9
			c-1.1,0.4-1.3,1.3-1.2,2.4c-0.3,0-0.6,0.1-0.7,0.1C92.1,35.5,91.4,34.9,90.5,34.1z"/>
		<path class="st2" d="M66.5,30.2c0.3,0.5,0.5,0.9,0.7,1.3c-2.4,0.7-4.7,1.3-6.4,3.3c-0.2,0-0.6,0-0.9-0.1c0-0.6,0.1-1.1,0.1-1.8
			C62.1,32.2,64.2,31.2,66.5,30.2z"/>
		<path class="st2" d="M83.9,34.2c-0.9,0.2-1.6,0.5-2.3,0.6c-0.7,0-1.4-0.2-2.1-0.3c-0.1-0.7-0.2-1.4-0.4-2.2
			c1.5,0.1,2.8,0.1,4.2,0.2C83.4,32.9,83.6,33.4,83.9,34.2z"/>
		<path class="st2" d="M76.7,44.6c-0.1-0.6-0.2-1-0.3-1.5c0.8-0.2,1.6-0.5,2.4-0.2c0.6,0.2,1.1,0.1,1.6-0.1c0.8-0.3,1.6-0.6,2.5-0.9
			c-0.1,0.7-0.2,1.2-0.4,1.9C80.7,44.3,78.8,44.4,76.7,44.6z"/>
		<path class="st2" d="M86.5,29.3c-2.8-0.3-2.8-0.3-3.7,1c-0.6,0.3-1.1,0.1-1.5-0.5c-0.6-0.9-1.2-1.8-2.5-1.8c0-0.1,0.1-0.2,0.1-0.3
			c1.3,0.1,2.7,0.2,4,0.4c1.1,0.2,2.2,0.5,3.3,0.8C86.4,28.9,86.4,29,86.5,29.3z"/>
		<path class="st2" d="M53.1,45.7c0.3,0.6,0.5,1,0.8,1.6c-1.9,0.3-3.7,0.7-5.7,1c0-0.4-0.1-0.7-0.1-1.1
			C49.8,46.7,51.4,46.2,53.1,45.7z"/>
		<path class="st2" d="M73.6,27c0.2,0.7,0.4,1.1,0.6,1.7c-1,0.3-1.9,0.5-2.8,0.8c-0.3-0.2-0.7-0.5-1.2-0.8c0-0.3-0.1-0.6-0.2-1.1
			C71.3,27.4,72.4,27.2,73.6,27z"/>
		<path class="st2" d="M78.5,39.5c0.4-1,0.7-1.8,1-2.6c0.6,0.2,0.7,1,1.1,1.5c0.4,0.5,0.8,1.1,1.3,1.8c-0.8,0.3-1.6,0.5-2.4,0.8
			C79.1,40.3,78.7,39.8,78.5,39.5z"/>
		<path class="st2" d="M85,35.7c0.8-0.4,1.3-0.8,1.9-1.1c1.4,0.8,2.6,1.5,3.9,2.3c-0.2,0.3-0.3,0.5-0.4,0.7
			C88.6,36.9,86.8,36.6,85,35.7z"/>
		<path class="st2" d="M67.4,35.2c-0.1-0.4-0.2-0.8-0.4-1.2c0.6-0.4,1.3-0.7,1.7-1.2c0.4-0.5,0.5-1.2,0.8-1.9c0.5,1.4,1,2.7,1.4,4
			c-0.7-0.2-1.3-0.5-1.8-0.4C68.6,34.5,68,34.9,67.4,35.2z"/>
		<path class="st2" d="M95.9,42.9c0-0.5-0.1-0.8-0.1-1.1c0-0.2,0-0.4,0.1-0.7c1.4,0.1,2.7,0.1,4,0.3c0.3,0,0.7,0.5,1.1,0.8
			C99.3,42.7,97.7,42.6,95.9,42.9z"/>
		<path class="st2" d="M54.6,38.7c-0.1-0.5-0.1-0.8-0.2-1.2c0.9-1.3,1.9-2.5,3.1-3.8c0.2,0.9,0.1,1.5-1.1,3.5
			C55.6,38.4,55.6,38.4,54.6,38.7z"/>
		<path class="st2" d="M76.7,37.5c-1.3,0.7-2.3,1.4-3.4,2c-0.8,0.5-0.9,0.5-1.9-0.3c1.1-0.8,2.2-1.5,3.4-2.3
			C75.4,37.1,76,37.3,76.7,37.5z"/>
		<path class="st2" d="M60.7,45.8c-0.7,0.1-1.3,0.3-1.8,0.4c-0.6-0.9-1.2-1.7-1.9-2.7c0.3-0.3,0.7-0.6,1-0.9
			C58.9,43.7,59.8,44.7,60.7,45.8z"/>
		<path class="st2" d="M72.9,31.3c1.6-0.5,3-0.9,4.4-1.3c0.3-0.1,0.7,0,1,0c-0.5,0.6-1,1.2-1.6,2.1C75.5,32.3,74.3,31.6,72.9,31.3z"
			/>
		<path class="st2" d="M77.3,34.2c0.1,0.4,0.1,0.8,0.2,1.3c-0.4-0.1-0.7-0.1-1-0.2c-1.6-0.5-1.6-0.5-3.1,0.1
			c-0.2-0.6-0.4-1.1-0.6-1.7c0.9-0.3,1.5,0.3,2.2,0.3C75.7,34,76.4,34.1,77.3,34.2z"/>
		<path class="st2" d="M82.1,36.8c1-0.4,1.3,0.5,1.9,0.7c0.6,0.2,1.1,0.5,1.8,0.8c-0.5,0.6-1,1.1-1.4,1.7
			C83.6,38.9,82.9,37.9,82.1,36.8z"/>
		<path class="st2" d="M51,44.1c0.1-0.4,0.2-0.6,0.3-1c1.1,0,2.2,0,3.3,0c0.3,0.6,0.6,1.3,0.9,1.8c0.4,0.6,0.8,1,1.3,1.7
			c-0.4,0.1-0.7,0.1-1,0.2c-0.2-0.6-0.5-1.1-0.7-1.6c-0.6-1.3-1.3-1.6-2.7-1.4C52,43.9,51.6,44,51,44.1z"/>
		<path class="st2" d="M70.4,43.4c0.8,0.5,1.5,1,2.3,1.5C71.4,45.1,70.2,45,69,45C68.8,43.9,69,43.6,70.4,43.4z"/>
		<path class="st2" d="M77.6,25.3c-0.4,1-0.8,1.8-1.3,2.8c-0.5-1.1-0.9-2-1.4-3C75.8,25.2,76.7,25.3,77.6,25.3z"/>
		<path class="st2" d="M87.4,39.7c0.2-0.3,0.4-0.5,0.6-0.7c0.6,0.1,1.1,0.3,1.8,0.4c-0.3,0.9-0.6,1.7-1,2.6
			C88.3,41.2,87.9,40.5,87.4,39.7z"/>
		<path class="st2" d="M67,38.8c-0.1-0.3-0.2-0.5-0.3-0.8c0.9-0.5,1.8-0.9,2.7-1.4c0.3,0.2,0.6,0.5,0.9,0.7c-0.3,0.9-1,0.8-1.6,0.9
			C68.2,38.3,67.7,38.6,67,38.8z"/>
		<path class="st2" d="M61,39.5c0.4-1.1,1.3-1.6,2.3-2.1c0.3,0.2,0.6,0.4,0.9,0.6c-0.9,0.7-1.8,1.3-2.7,2
			C61.4,39.8,61.2,39.7,61,39.5z"/>
		<path class="st2" d="M48.9,44.1c0,0.2,0,0.5,0,0.7c-0.9,0.4-1.8,0.9-2.7,1.3C46.3,44,47,43.5,48.9,44.1z"/>
		<path class="st2" d="M89.1,32.5c-0.1,0.2-0.2,0.4-0.4,0.7c-0.9-0.8-1.9-0.5-3.1-0.3c-0.2-0.5-0.4-1-0.7-1.8
			C86.4,31.6,87.7,32,89.1,32.5z"/>
		<path class="st2" d="M72.4,42.4c1.5-0.9,2.7-1.6,4-2.4c0.2,0.2,0.4,0.4,0.7,0.7c-0.8,0.3-1.5,0.4-1.9,0.7
			c-0.4,0.3-0.7,0.9-1.2,1.5C73.6,42.8,73.1,42.6,72.4,42.4z"/>
		<path class="st2" d="M101.9,38.8c0.8,0.9,1.6,1.7,2.5,2.7c-0.5,0.1-0.9,0.2-1.1,0.3c-0.8-0.9-1.5-1.7-2.2-2.5
			C101.3,39.1,101.5,39,101.9,38.8z"/>
		<path class="st2" d="M92.2,39.4c0,1.1,0,2.2,0,3.4c-0.4,0-0.8,0-1.4,0c0.4-1.2,0.8-2.3,1.2-3.4C92,39.4,92.1,39.4,92.2,39.4z"/>
		<path class="st2" d="M52.3,41c-0.2,0.1-0.2,0.1-0.3,0.1c-0.6-0.1-1.1-0.1-1.7-0.2c0.4-1.2,0.8-1.6,2.1-1.6
			C52.4,40,52.3,40.5,52.3,41z"/>
		<path class="st2" d="M86.1,41.4c0.4,0.6,0.7,1.1,1.2,1.8c-0.9,0.1-1.6,0.1-2.4,0.2C85,42.5,85,42.4,86.1,41.4z"/>
		<path class="st2" d="M69.3,40c0.4,0.4,0.6,0.6,1,1.1c-0.8,0.3-1.5,0.6-2.3,0.9c-0.2-0.3-0.5-0.6-0.7-0.9
			C68,40.7,68.6,40.4,69.3,40z"/>
		<path class="st2" d="M54.5,40.2c1.5,0.8,3-0.2,4.5,0.1c-0.9,0.3-1.9,0.6-2.8,0.9c0,0.1,0,0.1,0,0.2c-0.6-0.1-1.1-0.2-1.8-0.3
			C54.4,40.8,54.4,40.5,54.5,40.2z"/>
		<path class="st2" d="M63.6,41.9c-0.3,0-0.8,0.1-1.5,0.2c1.1-0.8,2-1.5,3.2-2.4c0.2,0.3,0.4,0.6,0.6,0.8
			C65.1,41,64.5,41.4,63.6,41.9z"/>
		<path class="st2" d="M66.1,43c0.3,0.7,0.6,1.4,0.9,2.2c-0.6,0.1-1.1,0.1-1.8,0.2c0.2-0.9,0.4-1.6,0.5-2.4C65.9,43,66,43,66.1,43z"
			/>
		<path class="st2" d="M96.8,36.5c0.8,0.4,1.5,0.8,2.2,1.1c-0.2,0.5-0.5,1-0.8,1.7C97.7,38.4,97.3,37.6,96.8,36.5z"/>
		<path class="st2" d="M66.1,36.1c-1.1,0.4-1.6-0.8-2.5-0.8c0.4-0.3,0.8-0.5,1.3-0.8C65.2,35,65.6,35.5,66.1,36.1z"/>
		<path class="st2" d="M88.4,29.3c0.8,0.4,1.5,0.7,2.2,1c-0.6,0.4-0.6,0.4-2.6-0.3C88.1,29.8,88.2,29.6,88.4,29.3z"/>
		<path class="st2" d="M68.3,28.9c-0.9-0.3-1.6-0.5-2.3-0.8c0.3-0.4,0.8-0.5,1.4-0.6C67.7,27.9,68,28.4,68.3,28.9z"/>
		<path d="M83.8,66.7c-0.1,1.1-0.2,2.3-0.5,3.5c-0.3,1.6-1.1,2.9-2.2,4c-1,1-2.2,1-3.4,0.2c-0.9-0.7-1.4-1.6-1.7-2.7
			c-0.6-2.9-0.6-5.9,0-8.8c0.3-1.3,0.9-2.5,2.3-3c1.8-0.7,3.7,0.1,4.5,1.8C83.5,63.3,83.7,64.9,83.8,66.7z M79.5,73
			c0.4-0.5,0.8-0.9,1.1-1.4c1.2-2.1,1.3-4.4,1-6.7c-0.1-0.8-0.4-1.5-0.6-2.3c-0.2-0.6-0.6-0.8-1.2-0.8c-0.6,0-1.2,0.1-1.5,0.8
			c-0.1,0.3-0.2,0.5-0.3,0.8c-0.5,2.6-0.6,5.2-0.1,7.8C78.1,71.9,78.4,72.6,79.5,73z"/>
		<path d="M58,66.7c0-1.3,0.1-3,1.2-4.5c0.4-0.6,0.9-1.1,1.4-1.6c1.2-1,2.8-0.7,3.7,0.5c0.4,0.6,0.8,1.3,1,2c0.9,3.5,0.9,7-0.8,10.4
			c-0.3,0.7-0.8,1.2-1.4,1.6c-1.5,0.9-2.9,0.4-3.6-1.2C58.4,71.7,58,69.5,58,66.7z M62.2,62c-1.3,0.8-1.9,2-2.1,3.3
			c-0.2,1.7-0.2,3.4,0.2,5c0.2,1.1,0.5,2.1,1.2,3C64.3,72,64.7,64.2,62.2,62z"/>
		<path d="M74.6,66.3c-0.3,2-0.3,3.6-0.7,5.3c-0.2,1-0.8,1.9-1.5,2.7c-1.2,1.4-3.6,1-4.4-0.8c-0.8-1.8-1.2-3.8-1.3-5.8
			c-0.1-1.6,0.1-3.1,0.6-4.6c0.5-1.5,1.6-2.4,3-2.9c0.3-0.1,0.7-0.1,1,0c1.3,0.4,2.2,1.2,2.6,2.4C74.3,63.8,74.4,65.2,74.6,66.3z
			 M70.9,62.1c-1,0.3-1.4,0.9-1.7,1.8c-0.8,2.8-0.4,5.5,0.5,8.2c0.2,0.5,0.5,0.9,1.2,0.7c0.5-0.6,1-1.3,1.1-2.1
			c0.1-0.6,0.2-1.2,0.3-1.8c0.2-1.6,0.3-3.2,0-4.8C72.2,63.3,71.9,62.5,70.9,62.1z"/>
		<path d="M90.9,70.3c0,0.8,0,1.4,0,2c0,0.2,0,0.5,0,0.7c-0.1,0.8-0.4,1.3-1,1.3c-0.6,0-0.9-0.4-1-1.2c0-0.1,0-0.2,0-0.4
			c0-3,0.1-5.9,0.1-8.9c0-0.4,0-0.9-0.1-1.3c0-0.3-0.1-0.6,0-1c0.1-0.5,0.4-0.8,0.9-0.9c0.5-0.1,0.9,0.2,1,0.7
			c0.2,0.7,0.2,1.5,0.3,2.2c0,0.4,0,0.8,0.2,1.2c0.3-0.6,0.6-1.2,1-1.7c0.2-0.3,0.3-0.6,0.5-0.8c0.3-0.2,0.7-0.3,1.1-0.2
			c0.5,0.1,0.7,0.6,0.6,1.1c-0.1,0.3-0.2,0.7-0.4,1c-0.5,1-1,1.9-1.5,2.9c-0.2,0.3-0.2,0.8-0.1,1.1c0.4,1,1,2,1.5,3
			c0.1,0.3,0.3,0.6,0.4,0.9c0.2,0.6,0,1.1-0.5,1.3c-0.5,0.2-1,0-1.2-0.4C92,72.1,91.5,71.3,90.9,70.3z"/>
		<path d="M54.3,64.9c-0.3,0.5-0.6,1-0.9,1.5C53,67,52.5,67.2,52,66.9c-0.5-0.3-0.6-0.8-0.3-1.5c0.7-1.7,1.9-3.1,3.1-4.4
			c0.7-0.8,1.8-0.3,1.9,0.7c0.1,0.5,0.1,1.1,0,1.7c-0.2,1.5-0.4,3-0.5,4.5c-0.2,2.4-0.5,4.8-0.7,7.1c0,0.3-0.1,0.6-0.2,0.9
			c-0.1,0.5-0.5,0.9-1,0.8c-0.6-0.1-0.8-0.5-0.9-1c0-0.4,0-0.7,0.1-1.1c0.3-3.1,0.7-6.3,1-9.4c0-0.2,0-0.3,0-0.5
			C54.5,64.9,54.4,64.9,54.3,64.9z"/>
		<path d="M97.5,69.6c-0.5-0.5-0.9-0.9-1.2-1.2c0.5-1.1,0.8-1.2,1.6-1.1c1,0.2,1.7,0.7,1.6,1.5c-0.1,1.1-0.3,2.3-0.6,3.4
			c-0.3,1-1.6,1.3-2.6,0.7c-0.7-0.4-1.4-1-1.7-1.8c-0.6-1.7-0.6-3.4-0.1-5c0.2-0.7,0.7-1.3,1.4-1.6c0.4-0.1,0.8-0.2,1.1-0.1
			c0.3,0.1,0.6,0.4,0.7,0.7c0.1,0.3-0.1,0.7-0.3,0.9c-0.2,0.3-0.6,0.4-0.9,0.5c-0.7,1.9-0.5,3.6,0.7,4.4
			C97.3,70.4,97.4,70,97.5,69.6z"/>
		<path class="st2" d="M79.5,73c-1.1-0.4-1.3-1.1-1.5-1.9c-0.5-2.6-0.5-5.2,0.1-7.8c0.1-0.3,0.2-0.5,0.3-0.8
			c0.3-0.6,0.9-0.8,1.5-0.8c0.6,0,1,0.3,1.2,0.8c0.2,0.8,0.5,1.5,0.6,2.3c0.3,2.3,0.2,4.6-1,6.7C80.3,72.1,79.8,72.5,79.5,73z"/>
		<path class="st2" d="M62.2,62c2.5,2.2,2.1,10-0.6,11.4c-0.7-0.9-1-2-1.2-3c-0.4-1.6-0.5-3.3-0.2-5C60.3,64,60.9,62.8,62.2,62z"/>
		<path class="st2" d="M70.9,62.1c1,0.3,1.3,1.2,1.5,2c0.3,1.6,0.2,3.2,0,4.8c-0.1,0.6-0.2,1.2-0.3,1.8c-0.1,0.9-0.6,1.5-1.1,2.1
			c-0.7,0.2-1-0.2-1.2-0.7c-0.9-2.7-1.3-5.4-0.5-8.2C69.4,63,69.9,62.4,70.9,62.1z"/>
	</g>
</g>
</svg>
