<?xml version="1.0" encoding="utf-8"?>
<!-- Generator: Adobe Illustrator 24.0.1, SVG Export Plug-In . SVG Version: 6.00 Build 0)  -->
<svg version="1.1" xmlns="http://www.w3.org/2000/svg" xmlns:xlink="http://www.w3.org/1999/xlink" x="0px" y="0px"
	 viewBox="0 0 156.8 136.3" style="enable-background:new 0 0 156.8 136.3;" xml:space="preserve">
<style type="text/css">
	.st0{fill:#B7D6E2;}
	.st1{fill:#DDDDDD;}
	.st2{fill:#FFFFFF;}
</style>
<g id="Calque_2">
	<g>
		<path class="st0" d="M46.6,53.8C38,55.4,30.2,61,26,68.7c-4.3,7.7-4.9,17.2-1.7,25.4c1,2.6,2.5,5.1,4.9,6.4
			c3.3,1.7,7.2,0.8,10.8-0.1c9.9-2.4,20.6-4,30.1-0.2c5.6,2.2,10.3,6,15.3,9.3c5.7,3.7,12.2,6.7,19.1,6.6c9.2-0.1,17.9-6.3,22-14.5
			c4.1-8.3,4.1-18.3,0.9-26.9c-1.4-3.7-3.3-7.2-5.9-10.2c-6.4-7.5-16.1-11.2-25.5-14.1c-9.7-3.1-20-5.7-29.8-3"/>
	</g>
</g>
<g id="Calque_1">
	<g>
		<path d="M51.4,113.4c-0.4,0.3-0.7,0.5-1,0.7c-1.2,0.8-2.4,1.2-3.8,1.3c-0.7,0-1.4,0.1-2,0.2c-1.7,0.2-3.3-0.3-5-0.6
			c-0.3,0-0.6-0.2-0.9-0.4c-2.1-1.5-4.1-3.2-5.5-5.5c-0.4-0.6-0.5-1.3-0.7-2c-0.1-0.4-0.1-0.8-0.2-1.2c-2.1-1-4.2-2.1-6.3-3.1
			c-0.8-0.4-1.5-0.9-2.3-1.3c-0.8-0.5-1.1-1.2-1.1-2.1c0.1-1.2,0.4-2.3,0.9-3.3c2.1-4.3,4.1-8.5,6.3-12.8c0.9-1.9,1.9-3.7,2.9-5.5
			c1.2-2.2,2.4-4.4,3.7-6.6c0.2-0.4,0.4-0.8,0.7-1.1c0.5-0.8,1.1-1.2,2.2-1.1c0.9,0.1,1.8,0.2,2.7,0.5c0.3,0.1,0.6,0.2,0.9,0.3
			c3.4,0.9,6.5,2.4,9.5,4.3c2.4,1.5,5,2.6,7.7,3.5c2.7,0.9,5.5,1.6,8,3.2c0.2,0.1,0.5,0.2,0.8,0.4c1.2,0.7,2.4,1.3,3.6,2.1
			c0.5,0.3,0.5,0.9,0.3,1.4c-0.4,0.9-0.8,1.7-1.2,2.6c-0.3,0.8-0.6,1.6-0.9,2.3c-0.3,0.7-0.7,1.4-1.2,2.1c-0.4,0.6-0.9,1.1-1.3,1.7
			c-2.1,3.9-4.3,7.7-6,11.7c-0.4,0.9-0.9,1.7-1.3,2.6c-0.8,1.5-1.7,3-2.4,4.6c-0.9,1.8-2.3,2.5-4.5,2.1
			C53.1,114,52.3,113.6,51.4,113.4z M45.4,101.3c0.4-0.2,0.6-0.2,0.9-0.4c0.5-0.3,1-0.6,1.6-0.9c1-0.4,2.6-0.1,3.2,0.7
			c0.7,0.9,0.3,1.7-0.1,2.6c-0.2,0.5-0.5,0.9-0.8,1.6c0.5-0.3,0.7-0.3,0.9-0.5c1-1,2.2-1.5,3.7-1.5c0.4,0,0.9-0.2,1.2-0.5
			c1-1,1.9-2.1,2.8-3.2c1-1.2,1.4-2.6,1.7-4c0.7-2.9,0.3-5.7-1.2-8.3c-0.5-0.9-1-1.7-1.6-2.5c-2.9-4-7.8-6.1-12.9-4.7
			c-3.8,1-6.8,3.2-8.4,6.9c-0.4,0.8-0.6,1.7-0.9,2.5c-0.7,2-0.8,4.2-0.5,6.3c0,0.3,0.2,0.6,0.2,0.7c0.8,0.2,1.5,0.1,2.1,0.4
			c1,0.5,1.6,1.4,1.7,2.6c0,0.6,0,1.3,0.4,2c0.3-0.5,0.5-0.8,0.7-1.1c0.6-0.9,1.4-1.6,2.5-1.9c1.8-0.5,3.2,0.7,3,2.5
			C45.5,100.6,45.5,100.9,45.4,101.3z M33.7,97.9c-1-2.1-1.1-4-0.9-6c0.1-1.5,0.6-2.9,1-4.3c0.5-1.8,1.3-3.5,2.6-5
			c3.2-3.8,7.3-5.6,12.2-5.5c2,0.1,4,0.7,5.8,1.7c2.3,1.3,4.2,3,5.5,5.2c1.6,2.6,2.9,5.3,2.8,8.4c0,2.9-0.7,5.5-2.3,7.9
			c-1.1,1.6-2.4,3.1-3.9,4.3c0.1,2.2-0.7,3.9-2.2,5.4c-0.5,0.5-0.9,1.1-1.4,1.7c0.2,0.1,0.4,0.2,0.5,0.3c0.3,0.1,0.5,0.2,0.8,0.2
			c1.4,0.3,1.9,0.1,2.5-1.1c0.7-1.4,1.5-2.7,2.2-4.1c0.5-1,1.1-2,1.6-3.1c0.8-1.6,1.5-3.3,2.3-4.9c0.9-1.8,2-3.6,3-5.5
			c0.6-1.2,1.3-2.4,2.2-3.4c0.3-0.3,0.5-0.7,0.6-1c0.3-1.3,0.9-2.4,1.5-3.5c0.2-0.3,0.3-0.7,0.4-1c-0.5-0.7-1.2-1.1-2-1.4
			c-0.5-0.2-1-0.3-1.4-0.6c-2.3-1.5-4.9-2.2-7.4-3c-2.9-1-5.7-2.1-8.3-3.7c-3-1.8-6.1-3.3-9.5-4.2c-0.3-0.1-0.7-0.3-1-0.3
			c-0.7-0.1-1.3-0.2-1.9-0.3c-0.3,0.4-0.5,0.6-0.6,0.9c-1.5,2.7-3,5.4-4.4,8.1c-0.8,1.4-1.6,2.9-2.3,4.3c-2.1,4.2-4.1,8.5-6.2,12.7
			c-0.4,0.9-0.7,1.8-0.7,2.9c2.5,1.3,5,2.5,7.6,3.9C32.4,101.6,32.7,99.6,33.7,97.9z M54.5,105c-1.1,0.1-1.1,0-1.6,0.5
			c-0.9,0.9-2,1.3-3.1,1.8c-0.8,0.4-1.5,0-1.7-0.9c-0.1-0.4-0.1-0.9,0-1.3c0.2-0.6,0.5-1.3,0.7-1.9c0.2-0.4,0.4-0.7,0.6-1.2
			c-0.3-0.1-0.5-0.1-0.6-0.1c-0.8,0.4-1.7,0.6-2.2,1.5c-0.1,0.2-0.3,0.4-0.6,0.6c-0.6,0.4-1.2,0.8-2,0.5c-0.8-0.4-1-1.1-0.9-1.9
			c0.1-0.7,0.3-1.3,0.4-2c0-0.2,0-0.5,0-0.8c-0.9,0.2-1.3,0.7-1.8,1.3c-0.4,0.6-0.8,1.3-1.4,1.8c-0.9,0.9-2,0.7-2.6-0.5
			c-0.2-0.3-0.3-0.7-0.4-1.1c-0.1-0.6-0.2-1.3-0.3-1.9c-0.1-0.6-0.2-1.1-0.9-1.3c-0.2,0.2-0.3,0.3-0.5,0.5c-0.6,1.1-1.2,2.3-1.2,3.6
			c-0.1,1,0,2.1-0.1,3.1c-0.1,1.6,0.4,3,1.5,4.1c1.1,1.1,2.3,2.2,3.5,3.2c0.2,0.2,0.6,0.3,0.9,0.4c1.6,0.3,3.2,0.7,4.9,0.4
			c0.5-0.1,1-0.1,1.4-0.1c1.5-0.1,2.8-0.7,3.8-1.9c1.1-1.2,2.1-2.5,3.2-3.7C54.2,107,54.5,106.1,54.5,105z"/>
		<path d="M100.2,103.9c-1.3,0.2-2.4,0.7-3.6,1.1c-0.8,0.3-1.6,0.6-2.4,0.7c-2.8,0.5-5-0.6-6.7-2.8c-1.3-1.7-2.3-3.6-3.3-5.5
			c-1.5-2.8-2.4-5.7-3-8.8c-0.2-0.8-0.4-1.5-0.6-2.3c-0.4-1.5-0.1-2.9,0.6-4.2c0.7-1.2,1.5-2.3,2.6-3.1c1.2-0.9,2.4-1.8,3.7-2.5
			c3.8-2.1,7.7-3.9,11.9-5c2.6-0.7,5.2-1.2,7.9-1.3c2.9-0.1,5.8-0.1,8.7,0.5c1.6,0.3,3,1,4.4,1.6c0.3,0.1,0.5,0.2,0.8,0.4
			c0.8-0.3,1.6-0.7,2.5-1c1.1-0.4,1.8-0.3,2.5,0.7c0.7,1,1.3,2.1,1.9,3.2c0.5,1,0.3,1.6-0.6,2.3c-0.6,0.5-1.2,0.9-1.9,1.4
			c0.2,0.6,0.4,1.1,0.6,1.7c0.6,1.7,0.5,3.2-0.6,4.6c-0.9,1.2-1.9,2.2-3.2,2.9c-0.6,0.3-1.2,0.7-1.8,1.1c0.5,1.8,0.5,3.6,0.2,5.4
			c-0.2,2-0.9,3.9-2.3,5.4c-0.8,0.9-1.5,1.8-2.4,2.7c-2.1,2.1-4.7,3.1-7.4,3.9c-2.3,0.6-4.5,0.2-6.4-1.1
			C101.6,105.3,101,104.6,100.2,103.9z M119.8,87.6c1.5-0.8,2.9-1.5,4-3c0.8-1.1,0.9-2.1,0.4-3.2c-0.8-1.6-1.5-3.2-2.2-4.8
			c-0.5-1.1-1.3-2-2.4-2.4c-1.2-0.5-2.4-1.1-3.7-1.4c-1.7-0.4-3.4-0.7-5.2-0.6c-2.2,0.1-4.5,0.2-6.7,0.4C100.1,73,96.5,74.4,93,76
			c-2.7,1.2-5.4,2.5-7.8,4.4C84.3,81.2,83.5,82,83,83c-0.5,0.9-0.7,1.8-0.4,2.9c0.3,1.2,0.7,2.5,0.9,3.7c0.6,3.6,2.4,6.8,4.2,9.9
			c0.4,0.8,1,1.5,1.5,2.3c1.4,1.9,3.2,2.4,5.4,1.9c0.3-0.1,0.6-0.2,0.9-0.3c0.8-0.3,1.6-0.6,2.5-1c0.5-0.2,0.9-0.4,1.5-0.5
			c-0.3-0.5-0.5-1-0.7-1.5c-0.1-0.1-0.1-0.2-0.2-0.3c-1.6-0.5-1.9-0.6-2.4-1.3c-1.1-1.5-1.7-3.3-1.9-5.1c-0.2-1.9,0.7-3.4,2.2-4.6
			c0.6-0.5,1.3-1,2-1.5c1.7-1.2,3.3-2.4,5-3.5c2.8-1.7,6-2.3,9.2-3c0.2,0,0.3,0,0.5,0c1.8-0.1,2.8,0.9,2.8,2.7c0,0.6,0,1.2,0,1.8
			C117.1,86.2,118.4,86.9,119.8,87.6z M100.3,97.3c-0.2,0.9,0,1.5,0.2,2.1c0.4,0.8,0.9,1.6,1.3,2.4c0.2,0.3,0.5,0.7,0.6,1
			c0.3,0.9,0.9,1.3,1.6,1.7c1.4,0.7,2.9,0.9,4.4,0.4c2.4-0.8,4.7-1.7,6.5-3.5c0.7-0.7,1.3-1.5,1.9-2.3c2.4-2.7,2.4-6,1.7-9.3
			c-0.1-0.6-0.5-1.1-1.1-1.3c-1.5-0.7-3-1.4-4.6-2.1c-0.2-0.1-0.4-0.1-0.8-0.2c0.4,0.5,0.6,0.9,0.8,1.1c0.5,0.6,1.1,1.1,1.6,1.6
			c0.6,0.6,0.9,1.3,0.5,2.1c-0.3,0.7-0.9,0.9-2,0.8c-0.3,0-0.6-0.1-0.8-0.1c-1.1-0.2-2.2-0.3-3.6-0.6c0.5,0.4,0.9,0.6,1.1,0.9
			c0.5,0.6,1,1.1,1.4,1.8c0.4,0.7,0.3,1.4-0.2,2c-0.5,0.6-1.2,0.8-2,0.6c-1-0.3-1.9-0.7-2.8-1c-0.3-0.1-0.6-0.2-1.1-0.5
			c0.3,0.5,0.5,0.7,0.7,1c0.3,0.5,0.6,1,0.8,1.5c0.3,0.7,0.2,1.3-0.3,1.9c-0.6,0.6-1.2,0.5-1.9,0.2c-0.6-0.3-1.3-0.7-1.9-1.1
			C101.8,98.2,101.1,97.8,100.3,97.3z M113.7,83.2c-0.5,0-0.9-0.1-1.3,0c-0.6,0.1-1.2,0.3-1.9,0.5c-2.3,0.4-4.5,1.1-6.5,2.4
			c-0.9,0.5-1.7,1.1-2.5,1.7c-1.4,1-2.8,2.1-4.2,3.2c-0.9,0.7-1.5,1.7-1.2,2.9c0.3,1.1,0.8,2.3,1.2,3.4c0.1,0.2,0.3,0.4,0.6,0.6
			c0.1-0.4,0.1-0.6,0.1-0.9c0.3-1.3,1.2-1.9,2.5-1.5c0.5,0.1,1,0.4,1.4,0.6c0.5,0.2,0.9,0.5,1.4,0.8c-0.1-0.4-0.4-0.6-0.5-0.9
			c-0.3-0.7-0.8-1.3-0.9-2.1c-0.2-1.4,0.8-2.2,2.2-1.7c0.4,0.2,0.7,0.4,1,0.6c1.1,0.6,2.3,1.3,3.6,1.6c-0.2-0.3-0.4-0.6-0.6-0.8
			c-0.5-0.4-1.1-0.8-1.6-1.2c-0.5-0.4-1.1-0.9-1.5-1.4c-0.7-0.9-0.2-2,0.9-2.2c0.6-0.1,1.3,0,1.9,0.1c0.6,0.1,1.2,0.4,1.9,0.5
			c0.7,0.1,1.4,0.3,2.2,0.2c-0.2-0.2-0.3-0.3-0.4-0.5c-0.4-0.5-0.9-1-1.2-1.6c-0.4-0.8-0.5-1.7,0.1-2.5c0.5-0.7,1.3-0.8,2.2-0.6
			c0.3,0.1,0.6,0.1,1,0.2C113.7,84,113.7,83.7,113.7,83.2z M122.9,74.2c0.6,1.1,1.2,2.2,1.8,3.2c0.5-0.4,1-0.7,1.4-1
			c-0.5-1.1-0.9-2-1.8-2.8C123.9,73.7,123.4,74,122.9,74.2z"/>
		<path d="M103.1,60.6c-0.4,0.8-0.7,1.6-1.1,2.3c-0.8,1.6-1.6,3.1-2.4,4.7c-0.3,0.6-0.8,1-1.3,0.9c-0.7-0.1-0.9-0.6-1-1.2
			c-0.2-1.7-0.4-3.3-0.6-5c0-0.4-0.1-0.9-0.2-1.3c-1.7,0-3.4,0-5,0c-0.4,0-0.8,0.1-1.2,0c-3.2-0.6-6.1-2-8.1-4.7
			c-1.5-2-2.5-4.2-3-6.6c-0.3-1.2-0.2-2.5,0.1-3.7c0.9-3.4,2.4-6.4,4.8-9c4.1-4.5,9.2-7.3,15.1-8.5c6.2-1.2,12.2-0.8,18.2,1.4
			c3,1.1,5.6,2.9,7.8,5.1c3.2,3.2,5.2,8.9,2.7,14.1c-0.4,0.8-0.8,1.5-1.1,2.3c-1.3,3-4,4.6-6.8,5.9c-3.6,1.7-7.5,2.4-11.5,2.8
			c-1.4,0.2-2.9,0.2-4.3,0.3C103.9,60.4,103.5,60.6,103.1,60.6z M99.1,64.1c0.2-0.4,0.4-0.5,0.5-0.7c0.5-1,1-2.1,1.5-3.1
			c0.4-1,1.1-1.5,2.2-1.7c0.8-0.1,1.7-0.3,2.5-0.3c4.6-0.1,9-0.9,13.2-2.7c3.1-1.3,5.6-3.2,6.8-6.5c0.1-0.3,0.2-0.5,0.3-0.8
			c2.2-4.4,0.3-9.3-2.2-11.9c-2-2.1-4.4-3.7-7.2-4.7c-5-1.7-10.1-2.2-15.4-1.5c-4.9,0.7-9.3,2.6-13.2,5.7c-3,2.4-5.2,5.4-6.4,9.1
			c-0.4,1.2-0.8,2.4-0.6,3.6c0.6,3.4,2.1,6.4,4.9,8.5c1.4,1.1,3.1,1.7,4.9,1.8c1.3,0.1,2.7,0,4.1-0.1c0.6,0,1.3-0.1,1.9-0.2
			c1.3-0.3,1.8,0.1,1.7,1.4C98.6,61.4,98.8,62.6,99.1,64.1z"/>
		<path d="M59,61.1c-0.4,1.5-0.8,3-1.3,4.5c-0.1,0.5-0.2,1.1-0.4,1.6c-0.4,0.9-1.3,1.1-2,0.4c-0.2-0.2-0.4-0.6-0.6-0.9
			c-0.8-1.4-1.7-2.8-2.5-4.1c-2-0.1-3.8-0.1-5.6-0.2c-2.1-0.2-4.2-0.3-6.2-1c-1.8-0.7-3.4-1.7-4.4-3.3c-0.9-1.4-1.8-2.8-2.5-4.2
			c-1.3-2.5-1.6-5.2-0.7-7.9c0.6-1.8,1.2-3.6,2-5.4c0.3-0.8,0.8-1.5,1.3-2.1c1-1.1,1.9-2.2,3.1-3.2c3.9-3.3,8.3-5.3,13.4-5.7
			c3.1-0.2,6.2,0,9.3,0c1.5,0,2.9,0.6,4.1,1.5c1.3,1.1,2.7,2.1,4.1,3.2c0.5,0.4,1,0.8,1.3,1.4c1.1,1.5,2.1,2.9,2.8,4.6
			c1.6,3.8,1.1,7.4-0.8,10.8c-1.8,3.2-4.5,5.4-7.7,7.1c-1.9,1-4,1.8-6,2.7C59.4,60.9,59.3,61,59,61.1z M55.8,64.6
			c0.4-1.4,0.8-2.6,1.2-3.8c0.2-0.8,0.6-1.4,1.4-1.7c1.5-0.6,2.9-1.2,4.4-1.8c3.6-1.5,6.7-3.7,8.6-7.1c1.7-2.9,2.2-5.9,0.7-9.1
			c-0.7-1.5-1.6-2.8-2.5-4.2c-0.3-0.4-0.7-0.8-1.1-1.1c-1.3-1-2.6-2-3.9-3c-0.9-0.7-1.9-1.1-3.1-1.1c-0.9,0-1.8,0-2.6-0.1
			c-2.8-0.3-5.5,0-8.2,0.3c-2.2,0.3-4.4,0.9-6.3,2.1c-2,1.3-4,2.6-5.6,4.4c-1.3,1.4-2.4,2.9-3,4.7c-0.4,1.1-0.7,2.1-1.1,3.2
			c-0.8,2.4-0.6,4.7,0.6,7c0.6,1.1,1.3,2.2,2,3.3c0.9,1.5,2.3,2.5,4,3.1c1.4,0.5,2.9,0.6,4.4,0.7c2.1,0.1,4.1,0.2,6.2,0.2
			c1.1,0,1.8,0.3,2.3,1.3C54.6,62.7,55.2,63.5,55.8,64.6z"/>
		<path class="st2" d="M45.4,101.3c0.1-0.4,0.1-0.7,0.1-0.9c0.2-1.8-1.2-3-3-2.5c-1.1,0.3-1.9,1-2.5,1.9c-0.2,0.3-0.4,0.7-0.7,1.1
			c-0.4-0.7-0.4-1.4-0.4-2c-0.1-1.2-0.7-2.1-1.7-2.6C36.7,96,36,96,35.2,95.9c0-0.1-0.2-0.4-0.2-0.7c-0.3-2.1-0.2-4.2,0.5-6.3
			c0.3-0.8,0.5-1.7,0.9-2.5c1.6-3.7,4.6-5.9,8.4-6.9c5.2-1.4,10,0.7,12.9,4.7c0.6,0.8,1.1,1.7,1.6,2.5c1.5,2.6,1.9,5.4,1.2,8.3
			c-0.3,1.4-0.7,2.9-1.7,4c-0.9,1.1-1.9,2.2-2.8,3.2c-0.3,0.3-0.8,0.5-1.2,0.5c-1.4,0-2.7,0.4-3.7,1.5c-0.2,0.2-0.4,0.3-0.9,0.5
			c0.4-0.7,0.6-1.1,0.8-1.6c0.4-0.8,0.8-1.7,0.1-2.6c-0.6-0.7-2.3-1.1-3.2-0.7c-0.5,0.2-1,0.6-1.6,0.9C46,101,45.8,101.1,45.4,101.3
			z M47.9,95.7c1.1,0,2-0.4,2.7-1.1c0.9-0.8,1-1.8,0.5-2.8c-1-2.2-4.1-2.7-5.8-1c-0.1,0.1-0.3,0.3-0.3,0.5
			C44.3,92.8,45.6,96,47.9,95.7z"/>
		<path class="st2" d="M33.7,97.9c-1,1.7-1.4,3.7-1.5,5.8c-2.6-1.3-5.2-2.6-7.6-3.9c0-1.1,0.3-2,0.7-2.9c2.1-4.2,4.1-8.5,6.2-12.7
			c0.7-1.5,1.5-2.9,2.3-4.3c1.5-2.7,3-5.4,4.4-8.1c0.2-0.3,0.4-0.5,0.6-0.9c0.6,0.1,1.3,0.2,1.9,0.3c0.4,0.1,0.7,0.2,1,0.3
			c3.4,0.9,6.5,2.4,9.5,4.2c2.6,1.6,5.4,2.8,8.3,3.7c2.5,0.8,5.1,1.5,7.4,3c0.4,0.3,0.9,0.4,1.4,0.6c0.7,0.3,1.4,0.7,2,1.4
			c-0.1,0.4-0.2,0.7-0.4,1c-0.6,1.1-1.2,2.2-1.5,3.5c-0.1,0.4-0.3,0.7-0.6,1c-1,1-1.6,2.2-2.2,3.4c-1,1.8-2,3.6-3,5.5
			c-0.8,1.6-1.5,3.3-2.3,4.9c-0.5,1-1.1,2.1-1.6,3.1c-0.7,1.4-1.5,2.8-2.2,4.1c-0.7,1.2-1.2,1.4-2.5,1.1c-0.3-0.1-0.5-0.1-0.8-0.2
			c-0.1-0.1-0.3-0.1-0.5-0.3c0.5-0.6,0.9-1.2,1.4-1.7c1.5-1.5,2.4-3.2,2.2-5.4c1.6-1.2,2.8-2.7,3.9-4.3c1.6-2.4,2.3-5,2.3-7.9
			c0-3.1-1.2-5.8-2.8-8.4c-1.4-2.2-3.3-3.9-5.5-5.2c-1.8-1-3.8-1.6-5.8-1.7c-4.9-0.1-9,1.8-12.2,5.5c-1.2,1.4-2,3.1-2.6,5
			c-0.4,1.4-0.9,2.8-1,4.3C32.7,93.9,32.8,95.8,33.7,97.9z"/>
		<path class="st2" d="M54.5,105c0,1.1-0.3,2-1,2.8c-1.1,1.2-2.1,2.5-3.2,3.7c-1,1.1-2.3,1.7-3.8,1.9c-0.5,0-1,0-1.4,0.1
			c-1.7,0.4-3.3-0.1-4.9-0.4c-0.3-0.1-0.6-0.2-0.9-0.4c-1.2-1.1-2.4-2.1-3.5-3.2c-1.1-1.1-1.6-2.5-1.5-4.1c0.1-1,0-2.1,0.1-3.1
			c0.1-1.3,0.6-2.5,1.2-3.6c0.1-0.2,0.3-0.4,0.5-0.5c0.7,0.2,0.8,0.7,0.9,1.3c0.1,0.6,0.1,1.3,0.3,1.9c0.1,0.4,0.2,0.8,0.4,1.1
			c0.6,1.1,1.6,1.3,2.6,0.5c0.5-0.5,1-1.2,1.4-1.8c0.4-0.6,0.9-1.1,1.8-1.3c0,0.3,0,0.6,0,0.8c-0.1,0.7-0.3,1.3-0.4,2
			c-0.1,0.8,0.2,1.5,0.9,1.9c0.7,0.4,1.4,0,2-0.5c0.2-0.2,0.4-0.4,0.6-0.6c0.5-0.9,1.4-1.1,2.2-1.5c0.1-0.1,0.3,0,0.6,0.1
			c-0.2,0.5-0.5,0.8-0.6,1.2c-0.3,0.6-0.6,1.2-0.7,1.9c-0.1,0.4-0.1,0.9,0,1.3c0.2,0.9,0.9,1.3,1.7,0.9c1.1-0.5,2.2-0.9,3.1-1.8
			C53.3,105,53.4,105,54.5,105z"/>
		<path class="st2" d="M119.8,87.6c-1.4-0.7-2.7-1.4-4-2.1c0-0.6,0-1.2,0-1.8c0-1.8-1-2.7-2.8-2.7c-0.2,0-0.3,0-0.5,0
			c-3.1,0.7-6.4,1.3-9.2,3c-1.7,1.1-3.4,2.3-5,3.5c-0.7,0.5-1.4,1-2,1.5c-1.4,1.2-2.4,2.7-2.2,4.6c0.2,1.8,0.8,3.6,1.9,5.1
			c0.5,0.6,0.8,0.8,2.4,1.3c0.1,0.1,0.1,0.2,0.2,0.3c0.2,0.5,0.5,0.9,0.7,1.5c-0.5,0.2-1,0.4-1.5,0.5c-0.8,0.3-1.6,0.6-2.5,1
			c-0.3,0.1-0.6,0.2-0.9,0.3c-2.2,0.6-4,0-5.4-1.9c-0.5-0.7-1.1-1.5-1.5-2.3c-1.8-3.1-3.5-6.3-4.2-9.9c-0.2-1.3-0.6-2.5-0.9-3.7
			c-0.3-1-0.1-2,0.4-2.9c0.5-1,1.3-1.8,2.2-2.5c2.4-1.9,5.1-3.2,7.8-4.4c3.5-1.6,7.2-3,11.1-3.4c2.2-0.3,4.5-0.3,6.7-0.4
			c1.8-0.1,3.5,0.3,5.2,0.6c1.3,0.3,2.5,0.9,3.7,1.4c1.1,0.5,1.9,1.4,2.4,2.4c0.8,1.6,1.5,3.2,2.2,4.8c0.6,1.2,0.4,2.2-0.4,3.2
			C122.8,86.1,121.3,86.9,119.8,87.6z"/>
		<path class="st2" d="M100.3,97.3c0.8,0.5,1.5,0.9,2.2,1.3c0.6,0.4,1.2,0.8,1.9,1.1c0.6,0.3,1.3,0.3,1.9-0.2
			c0.5-0.6,0.6-1.2,0.3-1.9c-0.2-0.5-0.5-1-0.8-1.5c-0.1-0.3-0.3-0.5-0.7-1c0.5,0.2,0.8,0.4,1.1,0.5c0.9,0.3,1.9,0.7,2.8,1
			c0.7,0.2,1.5,0.1,2-0.6c0.5-0.6,0.5-1.4,0.2-2c-0.4-0.7-0.9-1.2-1.4-1.8c-0.2-0.3-0.6-0.5-1.1-0.9c1.4,0.2,2.5,0.4,3.6,0.6
			c0.3,0,0.6,0.1,0.8,0.1c1,0.1,1.6-0.1,2-0.8c0.4-0.8,0.1-1.5-0.5-2.1c-0.5-0.5-1.1-1.1-1.6-1.6c-0.3-0.3-0.5-0.6-0.8-1.1
			c0.5,0.1,0.7,0.1,0.8,0.2c1.5,0.7,3,1.4,4.6,2.1c0.6,0.3,1,0.7,1.1,1.3c0.7,3.3,0.7,6.5-1.7,9.3c-0.7,0.7-1.2,1.6-1.9,2.3
			c-1.8,1.8-4.1,2.7-6.5,3.5c-1.5,0.5-3,0.3-4.4-0.4c-0.7-0.4-1.3-0.8-1.6-1.7c-0.1-0.4-0.4-0.7-0.6-1c-0.4-0.8-0.9-1.6-1.3-2.4
			C100.2,98.8,100.1,98.2,100.3,97.3z"/>
		<path class="st2" d="M122.9,74.2c0.5-0.2,1-0.4,1.5-0.6c0.9,0.8,1.3,1.8,1.8,2.8c-0.5,0.3-0.9,0.7-1.4,1
			C124.1,76.3,123.5,75.3,122.9,74.2z"/>
		<path class="st2" d="M99.1,64.1c-0.3-1.4-0.5-2.7-0.4-4c0.1-1.3-0.4-1.7-1.7-1.4c-0.6,0.1-1.3,0.2-1.9,0.2
			C93.7,59,92.4,59.1,91,59c-1.8-0.1-3.5-0.7-4.9-1.8c-2.8-2.1-4.3-5.1-4.9-8.5c-0.2-1.3,0.2-2.5,0.6-3.6c1.2-3.7,3.4-6.7,6.4-9.1
			c3.8-3.1,8.2-5,13.2-5.7c5.3-0.7,10.4-0.2,15.4,1.5c2.8,1,5.2,2.6,7.2,4.7c2.6,2.6,4.4,7.4,2.2,11.9c-0.1,0.3-0.2,0.5-0.3,0.8
			c-1.2,3.3-3.7,5.2-6.8,6.5c-4.2,1.8-8.6,2.5-13.2,2.7c-0.8,0-1.7,0.2-2.5,0.3c-1,0.1-1.7,0.7-2.2,1.7c-0.5,1.1-1,2.1-1.5,3.1
			C99.4,63.5,99.3,63.7,99.1,64.1z M106.3,46.6c-0.1-0.7-0.1-1.1-0.2-1.5c-0.5-2.6-1.9-4.6-4.5-5.7c-1.4-0.6-2.7,0.4-2.7,1.9
			c0,1.6,0.1,3.1,0.1,4.7c0.1,1.2,0.2,2.4,0.3,3.6c0.1,1.1,0.5,1.4,1.6,1.5c1.8,0.1,4.3-1.4,4.9-3.1C106.2,47.5,106.2,47,106.3,46.6
			z M95.9,46c0.1,1.3,0.1,2.3,0.1,3.4c0,0.3,0,0.6,0,0.8c0.1,0.5,0.4,0.8,0.9,0.8c0.5,0,0.9-0.2,1-0.7c0.1-0.2,0.1-0.5,0.1-0.7
			c-0.1-2.8-0.1-5.6-0.2-8.4c0-0.3-0.1-0.7-0.3-1c-0.2-0.4-0.6-0.6-1-0.5c-0.4,0.1-0.7,0.4-0.7,0.9c0,0.3,0,0.6,0,1
			c0,0.7,0,1.5,0,2.3c-1.1,0.1-2.1,0.2-3.2,0.3c0-0.6,0-1.2,0-1.7c0-0.4,0-0.9-0.1-1.3c-0.1-0.5-0.4-0.8-0.9-0.8
			c-0.5,0-0.8,0.3-0.9,0.8c-0.1,0.2-0.1,0.5-0.1,0.7c0,2-0.1,4-0.1,6c0,0.3,0,0.6,0.2,0.9c0.2,0.4,0.5,0.6,0.9,0.6
			c0.4,0,0.7-0.3,0.8-0.8c0.1-0.4,0-0.7,0.1-1.1c0-0.5,0.1-0.9,0.1-1.4C93.7,46.2,94.7,46.1,95.9,46z M109.6,47
			c0.8-0.3,1.5-0.6,2.3-0.9c1.2-0.5,1.7-1.5,1.8-2.8c0-2.6-1.6-4.3-4.3-4.4c-1.6,0-2.4,0.8-2.3,2.4c0.2,2.5,0.4,5.1,0.6,7.6
			c0,0.3,0.1,0.6,0.1,0.9c0.2,0.7,0.6,1.1,1.2,1c0.5-0.1,0.8-0.5,0.8-1.2c0-0.2-0.1-0.5-0.1-0.7C109.6,48.4,109.6,47.8,109.6,47z
			 M116.4,46.4c0.3-0.1,0.5-0.2,0.7-0.2c0.2-0.1,0.5-0.1,0.7-0.1c0.6-0.2,1-0.6,0.9-1.1c0-0.5-0.4-0.8-1.1-0.9c-0.4,0-0.8,0-1.3,0
			c0-0.9,0.1-1.8,0.1-2.8c0.7-0.1,1.3-0.2,1.9-0.3c0.6-0.1,1-0.5,1-1c0-0.5-0.4-0.9-1-0.9c-0.8,0-1.6,0.2-2.3,0.4
			c-1,0.3-1.5,1-1.5,2.1c0,1,0,2.1-0.1,3.1c-0.1,1.6,0.4,3.1,0.8,4.6c0.2,0.6,0.5,1.1,1.1,1.1c0.9,0.1,1.9,0.1,2.8,0.1
			c0.5,0,0.8-0.4,0.8-0.9c0-0.5-0.3-0.8-0.9-1c-0.3-0.1-0.7-0.1-1.1-0.1c-0.3,0-0.6-0.1-1-0.1C116.8,47.7,116.6,47.1,116.4,46.4z"/>
		<path class="st2" d="M55.8,64.6c-0.6-1.1-1.2-1.9-1.7-2.8c-0.5-1-1.2-1.3-2.3-1.3c-2.1,0.1-4.1,0-6.2-0.2
			c-1.5-0.1-2.9-0.2-4.4-0.7c-1.7-0.6-3-1.6-4-3.1c-0.7-1.1-1.3-2.2-2-3.3c-1.2-2.2-1.4-4.5-0.6-7c0.4-1.1,0.7-2.1,1.1-3.2
			c0.6-1.8,1.7-3.3,3-4.7c1.6-1.8,3.6-3.2,5.6-4.4c1.9-1.2,4.1-1.8,6.3-2.1c2.7-0.4,5.5-0.6,8.2-0.3c0.9,0.1,1.8,0.1,2.6,0.1
			c1.2,0,2.2,0.4,3.1,1.1c1.3,1,2.6,2,3.9,3c0.4,0.3,0.8,0.7,1.1,1.1c0.9,1.4,1.8,2.7,2.5,4.2c1.4,3.1,0.9,6.2-0.7,9.1
			c-2,3.4-5,5.6-8.6,7.1c-1.5,0.6-2.9,1.2-4.4,1.8c-0.8,0.3-1.2,0.9-1.4,1.7C56.6,62,56.2,63.2,55.8,64.6z M50.7,49.5
			c0.6-0.1,1.1-0.2,1.5-0.4c0.6-0.2,1.1-0.4,1.7-0.7c1.5-0.9,2-2.3,1.5-3.9c-0.8-2.5-3-3.5-5.4-2.5c-1.1,0.4-1.5,1-1.5,2.2
			c0.1,2.7,0.2,5.4,0.4,8.1c0,0.4,0.1,0.7,0.2,1.1c0.1,0.5,0.5,0.8,1,0.7c0.5,0,0.8-0.4,0.9-0.8c0.1-0.3,0-0.7,0-1.1
			C50.8,51.4,50.8,50.5,50.7,49.5z M58.9,43.9c0.2-0.9,0.7-0.8,1.2-0.9c0.5-0.1,0.9-0.3,0.9-0.8c0.1-0.5-0.2-0.9-0.7-1.1
			C60,41,59.6,41,59.3,41c-2,0.2-3.1,2.6-2,4.3c0.3,0.5,0.8,0.9,1.2,1.3c0.5,0.5,0.9,1,1.1,1.7c0.4,1.3,0.3,1.7-1.1,2.1
			c-0.6,0.2-1.2,0.3-1.8,0.6c-0.4,0.2-0.6,0.5-0.6,1c0.1,0.5,0.4,0.8,0.9,0.8c0.2,0,0.3,0,0.5,0c0.9-0.3,1.9-0.5,2.8-0.9
			c1.2-0.6,1.7-1.8,1.5-3.1c-0.3-1.4-0.8-2.7-2.1-3.7C59.5,44.7,59.2,44.3,58.9,43.9z"/>
		<path d="M47.9,95.7c-2.3,0.2-3.6-3-2.9-4.4c0.1-0.2,0.2-0.3,0.3-0.5c1.7-1.7,4.8-1.2,5.8,1c0.5,1.1,0.3,2-0.5,2.8
			C49.9,95.4,48.9,95.7,47.9,95.7z M48.5,91.9c-0.7,0.2-1.4,0.1-1.6,1c0.2,0.2,0.4,0.6,0.5,0.8c1.2,0,1.2,0,1.9-0.8
			C49.1,92.5,48.8,92.2,48.5,91.9z"/>
		<path d="M106.3,46.6c-0.1,0.3-0.1,0.9-0.3,1.4c-0.6,1.7-3.1,3.2-4.9,3.1c-1.1-0.1-1.5-0.4-1.6-1.5c-0.1-1.2-0.2-2.4-0.3-3.6
			c-0.1-1.6-0.1-3.1-0.1-4.7c0-1.5,1.2-2.4,2.7-1.9c2.6,1,3.9,3,4.5,5.7C106.2,45.5,106.2,46,106.3,46.6z M101.1,41.5
			c0.1,2.6-0.1,5.1,0.5,7.6c0.6-0.2,1-0.4,1.5-0.7c0.9-0.5,1.4-1.3,1.2-2.4c-0.2-0.9-0.4-1.9-0.8-2.7
			C102.9,42.5,102.2,41.8,101.1,41.5z"/>
		<path d="M95.9,46c-1.2,0.1-2.2,0.2-3.3,0.4c0,0.5-0.1,0.9-0.1,1.4c0,0.4,0,0.7-0.1,1.1c-0.1,0.4-0.4,0.7-0.8,0.8
			c-0.5,0-0.8-0.2-0.9-0.6c-0.1-0.3-0.2-0.6-0.2-0.9c0-2,0-4,0.1-6c0-0.2,0-0.5,0.1-0.7c0.1-0.5,0.4-0.8,0.9-0.8
			c0.5,0,0.8,0.3,0.9,0.8c0.1,0.4,0.1,0.9,0.1,1.3c0,0.5,0,1,0,1.7c1.1-0.1,2.1-0.2,3.2-0.3c0-0.8,0-1.6,0-2.3c0-0.3,0-0.6,0-1
			c0-0.4,0.3-0.8,0.7-0.9c0.4-0.1,0.8,0.1,1,0.5c0.2,0.3,0.3,0.7,0.3,1c0.1,2.8,0.2,5.6,0.2,8.4c0,0.2,0,0.5-0.1,0.7
			c-0.2,0.5-0.5,0.7-1,0.7c-0.5,0-0.8-0.3-0.9-0.8c0-0.3,0-0.6,0-0.8C96,48.3,95.9,47.3,95.9,46z"/>
		<path d="M109.6,47c0,0.7,0,1.4,0,2c0,0.2,0.1,0.5,0.1,0.7c0,0.7-0.3,1.1-0.8,1.2c-0.5,0.1-1-0.3-1.2-1c-0.1-0.3-0.1-0.6-0.1-0.9
			c-0.2-2.5-0.4-5.1-0.6-7.6c-0.1-1.6,0.7-2.5,2.3-2.4c2.7,0.1,4.3,1.8,4.3,4.4c0,1.3-0.6,2.2-1.8,2.8
			C111.2,46.5,110.4,46.7,109.6,47z M109.4,44.9c0.5-0.1,0.8-0.2,1.1-0.3c1.3-0.5,1.6-1.7,0.8-2.8c-0.5-0.7-1.3-0.9-2.2-0.7
			C109.2,42.3,109.3,43.5,109.4,44.9z"/>
		<path d="M116.4,46.4c0.2,0.7,0.4,1.3,0.6,2c0.3,0,0.7,0.1,1,0.1c0.4,0,0.7,0,1.1,0.1c0.6,0.1,0.9,0.5,0.9,1c0,0.5-0.3,0.9-0.8,0.9
			c-0.9,0-1.9,0-2.8-0.1c-0.6-0.1-0.9-0.6-1.1-1.1c-0.5-1.5-0.9-3-0.8-4.6c0.1-1,0.1-2.1,0.1-3.1c0-1.1,0.5-1.9,1.5-2.1
			c0.8-0.2,1.6-0.4,2.3-0.4c0.6,0,1,0.4,1,0.9c0,0.5-0.4,0.9-1,1c-0.6,0.1-1.2,0.2-1.9,0.3c0,1-0.1,1.9-0.1,2.8c0.5,0,0.9,0,1.3,0
			c0.7,0,1.1,0.3,1.1,0.9c0,0.5-0.3,0.9-0.9,1.1c-0.2,0.1-0.5,0.1-0.7,0.1C116.9,46.2,116.7,46.3,116.4,46.4z"/>
		<path d="M50.7,49.5c0.1,1,0.1,1.9,0.1,2.7c0,0.4,0.1,0.7,0,1.1c-0.1,0.5-0.4,0.8-0.9,0.8c-0.5,0-0.8-0.3-1-0.7
			c-0.1-0.3-0.1-0.7-0.2-1.1c-0.1-2.7-0.3-5.4-0.4-8.1c0-1.1,0.4-1.8,1.5-2.2c2.5-0.9,4.6,0.1,5.4,2.5c0.5,1.6,0,3-1.5,3.9
			c-0.5,0.3-1.1,0.5-1.7,0.7C51.8,49.3,51.4,49.4,50.7,49.5z M50.5,44c0,1.1-0.1,2.2,0.1,3.5c0.8-0.2,1.5-0.4,2.1-0.7
			c0.8-0.4,0.9-0.9,0.6-1.7C53,43.8,52.2,43.5,50.5,44z"/>
		<path d="M58.9,43.9c0.3,0.3,0.6,0.8,1,1.1c1.2,0.9,1.8,2.2,2.1,3.7c0.3,1.4-0.2,2.5-1.5,3.1c-0.9,0.4-1.9,0.6-2.8,0.9
			c-0.1,0-0.3,0-0.5,0c-0.5-0.1-0.8-0.3-0.9-0.8c-0.1-0.5,0.2-0.8,0.6-1c0.6-0.2,1.2-0.4,1.8-0.6c1.3-0.4,1.5-0.8,1.1-2.1
			c-0.2-0.7-0.6-1.2-1.1-1.7c-0.4-0.4-0.9-0.8-1.2-1.3c-1.2-1.7-0.1-4,2-4.3c0.3,0,0.6,0,0.9,0.1c0.5,0.2,0.8,0.6,0.7,1.1
			c-0.1,0.5-0.4,0.8-0.9,0.8C59.6,43.1,59.1,43.1,58.9,43.9z"/>
		<path class="st2" d="M48.5,91.9c0.3,0.4,0.6,0.7,0.8,1c-0.7,0.8-0.7,0.8-1.9,0.8c-0.2-0.3-0.4-0.6-0.5-0.8
			C47.1,91.9,47.8,92.1,48.5,91.9z"/>
		<path class="st2" d="M101.1,41.5c1.2,0.3,1.9,1.1,2.3,1.9c0.4,0.8,0.6,1.8,0.8,2.7c0.2,1.1-0.3,1.9-1.2,2.4
			c-0.4,0.2-0.9,0.4-1.5,0.7C101,46.5,101.2,44,101.1,41.5z"/>
		<path class="st2" d="M109.4,44.9c-0.1-1.4-0.2-2.5-0.3-3.8c0.9-0.1,1.6,0,2.2,0.7c0.8,1.1,0.5,2.3-0.8,2.8
			C110.2,44.7,109.9,44.7,109.4,44.9z"/>
		<path class="st2" d="M50.5,44c1.7-0.5,2.5-0.2,2.9,1.1c0.3,0.8,0.1,1.3-0.6,1.7c-0.6,0.3-1.3,0.4-2.1,0.7
			C50.5,46.2,50.5,45.1,50.5,44z"/>
	</g>
</g>
</svg>
