<?xml version="1.0" encoding="utf-8"?>
<!-- Generator: Adobe Illustrator 24.0.1, SVG Export Plug-In . SVG Version: 6.00 Build 0)  -->
<svg version="1.1" xmlns="http://www.w3.org/2000/svg" xmlns:xlink="http://www.w3.org/1999/xlink" x="0px" y="0px"
	 viewBox="0 0 156.8 136.3" style="enable-background:new 0 0 156.8 136.3;" xml:space="preserve">
<style type="text/css">
	.st0{fill:#B7D6E2;}
	.st1{fill:#DDDDDD;}
	.st2{fill:#FFFFFF;}
</style>
<g id="Calque_2">
	<g>
		<path class="st0" d="M87.2,17.7C56.5,18.9,27.7,41.2,19,70.7c-2.3,7.6-3.3,15.8-1.4,23.5s7.1,14.9,14.4,17.8
			c10.8,4.3,23.1-1.1,34.7,0.2c9,1,17,6,25.6,8.8c8,2.7,16.7,3.5,25.1,2.3c9.4-1.3,18.6-5.2,24.8-12.4c6.3-7.4,8.7-17.6,8-27.2
			s-4.4-18.9-9-27.5c-9.9-18.3-27.8-35.5-48.5-33.5"/>
	</g>
</g>
<g id="Calque_1">
	<g>
		<path d="M84.7,48.6c0.3,0.6,0.5,1.1,0.8,1.6c1.4,2.9-0.4,4.9-2.7,5.4c-2.6,0.5-5.2,0.3-7.7-0.7c-1.4-0.5-2-1.7-1.7-2.9
			c0.1-0.3,0.3-0.7,0.4-1c-1-1.9-1.3-2.8,0.5-4.4c-0.5-1.6-0.2-3.3-0.1-4.9c0.1-1.2-0.1-2.3-1-3.2c-1.8-2.1-3.2-4.5-4.3-7
			c-1.3-2.7-0.9-5.3,0.2-8c1.7-4,4.6-7,8.4-9.1c2.3-1.3,4.7-1.9,7.3-2c2-0.1,3.9,0.4,5.7,1c0.5,0.2,1,0.4,1.5,0.8
			c2.5,2,4.6,4.2,5.9,7.1c0.8,1.9,0.8,3.8,0.7,5.8c0,0.7-0.1,1.4-0.2,2c-0.6,3.3-2.7,5.7-5.1,7.8c-0.8,0.7-1.8,1.3-2.8,1.9
			c-2.5,1.6-4.3,3.7-4.5,6.8C85.9,47,85.8,47.1,84.7,48.6z M82.8,47.1c0.9-0.2,1.1-0.8,1.2-1.5c0.2-0.9,0.3-1.7,0.5-2.6
			c0.9-2.7,2.8-4.6,5.2-6.1c2-1.2,3.8-2.7,5.2-4.6c0.7-0.9,1.2-1.9,1.4-3c0.7-3.1,0.7-6-1-8.8c-1.1-1.9-2.7-3.4-4.4-4.7
			c-0.2-0.2-0.5-0.3-0.7-0.4c-2.1-0.8-4.2-1.3-6.4-0.9c-3,0.4-5.6,1.7-8,3.6c-2.8,2.2-4.4,5.1-5.4,8.4c-0.3,0.9-0.2,1.8,0,2.7
			c0.2,1,0.8,1.9,1.2,2.9c0.9,2.1,2.3,3.7,3.6,5.5c0.4,0.5,0.7,1.2,0.9,1.8c0.4,0.9,0.3,1.8,0.2,2.7c-0.1,0.9-0.2,1.8-0.2,2.7
			c0,1.1,0.3,1.4,1.5,1.6c1.2-4.4,2-8.8,2-13.4c-0.5-0.3-1-0.6-1.4-0.9c-1.4-1-1.9-2.4-1.6-4c0.2-1.5,1.6-2.1,2.9-1.2
			c0.8,0.5,1.3,1.3,1.6,2.2c0.2,0.8,0.4,1.7,0.7,2.6c0.3,0.1,0.6,0.2,1,0.3c0.2-0.7,0.3-1.3,0.5-1.9c0.3-1.1,0.6-2.1,1.3-2.9
			c1-1.2,2.3-1.1,3,0.3c0.4,0.7,0.6,1.6,0.7,2.4c0.2,1.9-0.7,3.2-2.6,3.8c-0.3,0.1-0.7,0.2-1.1,0.3C83.9,38.4,83.3,42.7,82.8,47.1z
			 M82.8,49.3c-2.3-0.5-4.7,0-6.8-1.1c-0.3,0.2-0.6,0.4-0.9,0.6c0.4,0.7,0.9,1.2,0.9,1.9c0.1,0.6-0.3,1.3-0.5,2.1
			c0.4,0.5,1,0.6,1.6,0.6c1.4,0.2,2.9,0.2,4.3,0.3c1.1,0.1,1.9-0.4,2.5-1.4C83.9,51.2,83.1,50.3,82.8,49.3z M81.7,34.1
			c-0.3,2.3-0.5,4.4-0.7,6.6c-0.2,2.1-1.1,4.1-1.2,6.3c0.4,0,0.7,0,1,0c0.6-4.3,1.1-8.5,1.7-12.7C82.2,34.2,82,34.1,81.7,34.1z
			 M85.9,29c-0.6,0.9-0.8,1.8-0.9,2.7C86.4,31.3,86.5,30.9,85.9,29z"/>
		<path d="M107.2,106.9c0.1-1,0.2-1.8,0.2-2.6c-0.6-1.5-1.6-2.7-2.7-3.9c-3.3-3.3-4.7-7.9-3.9-12.4c0.4-2,0.9-3.9,1.5-5.8
			c1.2-3.3,3.5-5.5,6.3-7.3c0.6-0.4,1.3-0.7,2-1c3.1-1.4,6.1-1.3,9.2,0.2c1.9,0.9,3.6,2,5.1,3.5c3.6,3.8,5.2,8.1,3.7,13.3
			c-0.5,1.8-1.1,3.4-2.2,4.9c-0.8,1.1-1.6,2.3-2.5,3.4c-2,2.5-4.5,4.5-7.5,5.6c-0.6,0.2-1.2,0.5-1.8,0.8c-0.5,0.2-0.8,0.7-0.8,1.2
			c0.1,0.8,0.1,1.6,0.2,2.4c0.2,1.3,0.3,2.5,0,3.8c-0.3,1.2-1.1,2-2.3,2.1c-0.9,0.1-1.8,0.2-2.7,0.2c-2,0-3.3-1.2-3.4-3.3
			c0-0.9-0.1-1.8,0-2.7c0.1-0.6,0.4-1.1,0.6-1.6C106.6,107.3,107,107.1,107.2,106.9z M114.2,103.4c3.3-0.9,5.9-2.7,7.9-5.1
			c0.8-0.9,1.5-2,2.2-3c1.4-1.8,2.2-3.9,2.6-6.1c0.5-2.6,0.1-5-1.2-7.3c-0.9-1.4-1.9-2.7-3.1-3.8c-1.2-1.1-2.7-1.7-4.1-2.5
			c-0.9-0.5-1.9-0.7-2.9-0.8c-2-0.2-3.9,0.5-5.6,1.5c-2.7,1.6-4.9,3.6-6,6.7c-0.7,1.9-1.1,3.8-1.4,5.8c-0.5,3.6,0.8,7.5,3.4,10.1
			c1,1,1.9,2,2.6,3.3c0.5,1,0.9,2.1,0.6,3.2c-0.1,0.3-0.2,0.7,0.1,1c0.4-1.2,1.2-10.7,1-11.9c-0.3-0.2-0.6-0.4-0.9-0.7
			c-1.3-1-1.8-2.4-1.8-4c0-0.8,0.4-1.4,1.1-1.7c0.7-0.3,1.4-0.1,1.9,0.4c0.4,0.4,0.8,0.9,1,1.4c0.4,1,0.6,2.1,1,3.3
			c0.3,0,0.7,0.1,1.1,0.2c0.2-0.6,0.4-1.1,0.6-1.6c0.2-0.4,0.4-0.9,0.6-1.3c0.4-0.6,0.9-1,1.7-0.9c0.7,0.1,1.1,0.6,1.3,1.2
			c0.1,0.3,0.2,0.6,0.2,0.9c0,1.4-0.6,2.4-1.8,3.1c-0.3,0.2-0.7,0.4-1,0.6C115,98.2,114.2,100.7,114.2,103.4z M112.3,110
			c-1.7,0.3-3-0.3-4.5-1.1c0,1.2-0.1,2.2,0,3.2c0.1,0.8,0.5,1.1,1.3,1.1c0.9,0,1.9-0.1,2.8-0.2C112.6,112,112.3,111,112.3,110z
			 M112.6,95.5c-0.2,1.9-0.4,3.7-0.6,5.5c0.1,0,0.1,0,0.2,0c0.4-1.8,0.8-3.5,1.2-5.4C113.2,95.6,113,95.6,112.6,95.5z"/>
		<path d="M45.4,93.2C46,94,46.1,95,46.1,96c0,0.5,0.1,1.1,0.2,1.7c0.3,1.5-0.2,2.6-1.8,2.8c-1.2,0.2-2.4,0.3-3.5,0.5
			c-0.9,0.1-1.7,0.1-2.6,0.3c-0.9,0.1-1.8-0.1-2.4-0.8c-0.4-0.4-0.7-0.9-1-1.3c-0.2-0.3-0.3-0.7-0.2-1c0.3-1.1,0.1-2.2-0.5-3.2
			c-0.3-0.5-0.4-1-0.6-1.6c-0.4-0.9-1-1.5-2-1.9c-1.6-0.6-3.3-1.3-4.7-2.3c-2.5-2-4-4.7-3.6-8.1c0.2-2.2,0.7-4.4,2.3-6.1
			c0.8-0.9,1.8-1.5,2.8-2.2c1.3-0.9,2.6-1.6,4.1-2.3c2.8-1.2,5.6-1,8.4-0.2c1.8,0.5,3.2,1.7,4.5,3.1C46.9,75,48,77,48.8,79
			c1.3,3.7,0.6,6.6-2.2,9.2c-0.9,0.9-1.4,1.8-1.2,3C45.5,91.8,45.4,92.5,45.4,93.2z M36.6,94.3c-0.3-3.4-1.2-6.5-2.1-9.6
			c-0.5-0.2-0.9-0.3-1.3-0.4c-0.8-0.3-1.5-0.7-2-1.4c-0.4-0.7-0.6-1.4-0.1-2.1c0.4-0.6,1.3-0.9,2.1-0.6c0.7,0.2,1.4,0.6,1.8,1.3
			c0.3,0.5,0.7,1,1,1.5c0.8,0.2,1.6,0.4,2.4-0.1c-0.1-0.5-0.1-1-0.2-1.5c0-0.6-0.1-1.1,0-1.7c0.1-0.9,0.7-1.4,1.5-1.5
			c1.1-0.1,2.5,0.9,3,2c0.4,1,0.2,2-0.8,2.9c-0.4,0.3-0.8,0.6-1.2,0.9c0.3,3.1,1,6,1.7,9c0.3-0.2,0.5-0.3,0.8-0.4
			c0-0.6,0-1.2-0.1-1.7c-0.2-1.5,0.4-2.7,1.5-3.7c2.7-2.3,3.1-5.8,1.4-8.6c-0.3-0.4-0.5-0.8-0.7-1.3c-1-2-2.5-3.6-4.5-4.6
			c-1-0.5-2.1-0.6-3.2-0.8c-1.4-0.2-2.7,0-4,0.4c-2.1,0.6-3.8,1.9-5.5,3.1c-0.9,0.6-1.6,1.4-2,2.3c-0.6,1.3-1,2.6-1,4.1
			c-0.1,2.5,1,4.5,3,6c1.2,0.9,2.7,1.5,4.1,2c1.2,0.4,2.1,1.1,2.6,2.1c0.3,0.6,0.5,1.2,0.7,1.8C35.9,93.8,35.9,94.2,36.6,94.3z
			 M40.5,93.3c-0.6-2.9-1.1-5.6-1.6-8.2c-0.7,0-1.3,0-2,0c0.6,2.9,1.3,5.7,1.9,8.5C39.4,93.5,39.9,93.4,40.5,93.3z M43.8,94.7
			c-2.4,0.7-4.8,0.7-7.2,1.8c0.2,0.3,0.4,0.5,0.6,0.6c0.2,0.1,0.5,0.1,0.7,0c1.8-0.4,3.6-0.7,5.4-1.1c0.3-0.1,0.5-0.3,0.8-0.4
			c0-0.2,0-0.3,0-0.4C44,95,43.9,94.9,43.8,94.7z M44.1,98.1c-1.3,0.2-2.6,0.2-4,0.8C42.1,99.1,43.3,98.9,44.1,98.1z"/>
		<path d="M78.2,63.3c5.8,0.2,9.2,2.7,10.7,7.9c0.4,1.2,0.2,2.4-0.3,3.5c-0.7,1.6-1.4,3.4-2.4,4.8c-1.1,1.6-2.5,3-4.4,3.8
			c-1.1,0.4-2.2,0.8-3.2,1.2c-0.6,0.2-1,0.5-1.4,1c-0.7,0.9-1.4,1.8-2.1,2.6c-0.5,0.7-1.3,1-2.1,1c-1.2,0-2.4-0.2-3.4-1
			c-0.7-0.6-1.5-0.8-2.2-1.4c-0.8-0.8-1.1-1.7-0.8-2.7c0.3-1.1,0.7-2.2,1.2-3.1c0.8-1.4,0.9-2.8,0.5-4.4c-0.6-2.3-0.5-4.7,0.2-7
			c0.9-2.7,2.9-4.4,5.5-5.2C75.6,63.7,77.2,63.5,78.2,63.3z M74.3,75c-0.2-0.3-0.5-0.6-0.7-0.9c-0.2-0.5-0.5-0.9-0.6-1.4
			c-0.2-1.1,0.4-1.8,1.5-1.8c1.1,0,2,0.7,2.2,1.9c0.1,0.5,0.1,0.9,0.1,1.5c0.4,0.2,0.7,0.4,1.1,0.6c0.2-0.3,0.4-0.5,0.7-0.7
			c0.5-0.4,1-0.8,1.6-1c1.4-0.5,2.8,0.7,2.7,2.2c-0.1,1.6-1.5,2.7-3.1,2.4c-0.4-0.1-0.7-0.1-1.1-0.2c-1.6,2-2.8,4.3-3.8,6.6
			c0,0.1,0.1,0.2,0.3,0.6c0.8-1.6,2.1-2,3.5-2.5c1.7-0.5,3.3-1.3,4.7-2.6c1.2-1.1,1.8-2.5,2.6-3.9c1.6-2.7,1.2-5.2-0.7-7.5
			c-0.3-0.4-0.6-0.7-1-1c-0.9-0.9-2-1.3-3.2-1.6c-2.2-0.6-4.3-0.2-6.4,0.4c-2.9,0.9-4.4,2.8-4.8,5.8c-0.2,1.6,0,3.2,0.4,4.8
			c0.3,1.3,0.3,2.5-0.2,3.8C70,80.7,69.9,81,69.9,81c0.4,0.5,0.7,0.9,1.1,1.4C72.4,80,73.4,77.6,74.3,75z M73.9,86.1
			c-1.8-0.7-3.7-1-5-2.7c-0.1,0.5-0.2,1-0.3,1.6c1,0.7,1.9,1.3,2.9,1.8C72.4,87.4,73.3,87.1,73.9,86.1z M74.9,79.3
			c0,0,0.1,0,0.1,0.1c0.6-0.9,1.2-1.7,1.8-2.7c-0.2-0.2-0.4-0.3-0.7-0.5C75.6,77.3,75.3,78.3,74.9,79.3z"/>
		<path d="M121.2,47.4c0,3-0.9,5.4-2.3,7.6c-0.4,0.5-0.6,1-0.4,1.7c0.1,0.4,0,0.8,0.1,1.2c0.1,0.7,0.1,1.4,0.3,2.1
			c0.6,1.9,0.1,3.1-1.8,3.7c-1.7,0.5-3.5,0.9-5.2,1.2c-1.5,0.2-2.8-0.9-2.8-2.5c0-0.7-0.1-1.2-0.4-1.8c-0.2-0.5-0.3-1.1-0.4-1.6
			c-0.2-1.2-0.8-2-2-2.3c-0.3-0.1-0.5-0.2-0.8-0.3c-2.9-0.9-4.7-3-5.9-5.6c-0.9-1.9-0.9-3.9-0.1-5.8c1.8-4.2,5.1-6.7,9.4-7.8
			c1-0.3,2.1,0,3.1,0.3c1.5,0.5,3.1,1.1,4.6,1.8c1,0.4,1.7,1.1,2.4,2C120.4,43,121.3,45.2,121.2,47.4z M109.7,53.1
			c-0.8-0.7-1.5-1.1-1.9-1.7c-0.5-0.7-0.4-1.6,0.2-2.2c0.6-0.5,1.4-0.6,2.1-0.1c0.3,0.2,0.6,0.6,0.8,0.9c0.2,0.2,0.3,0.5,0.5,0.8
			c0.5,0,1,0,1.4,0c0.1-0.7,0.1-1.3,0.2-1.9c0.2-0.8,0.9-1.4,1.6-1.3c1.1,0.2,1.7,0.9,2.1,1.8c0.4,0.9,0.1,1.7-0.5,2.3
			c-0.3,0.3-0.7,0.5-1,0.8c0.2,2.1,0.3,4.1,0.6,6.2c0.6-0.1,0.7-0.5,0.7-0.8c0-0.5,0-1-0.1-1.4c-0.1-0.8,0.1-1.6,0.6-2.3
			c1-1.2,1.5-2.6,1.9-4.1c0.8-2.9,0.3-5.6-1.6-7.9c-0.4-0.5-1-1.1-1.7-1.3c-1.4-0.6-2.8-1.1-4.2-1.6c-0.7-0.2-1.5-0.3-2.1-0.2
			c-3.6,0.9-6.3,2.9-7.8,6.4c-0.6,1.4-0.6,2.9,0,4.2c0.9,2.1,2.3,3.8,4.6,4.6c0.3,0.1,0.6,0.3,0.9,0.4c2.1,0.6,3.1,2,3.4,4.1
			c0.1,0.4,0.2,0.8,0.3,1.2c0.1,0,0.2,0,0.3-0.1C110.5,57.5,110.1,55.2,109.7,53.1z M113.8,59.5c-0.2-2.2-0.4-4.4-0.7-6.6
			c-0.5,0-0.9,0.1-1.4,0.1c0.4,2.3,0.8,4.5,1.2,6.8C113.3,59.7,113.5,59.6,113.8,59.5z M111.2,62.4c0.2,0.4,0.5,0.5,0.8,0.4
			c1.3-0.3,2.6-0.5,3.9-0.8c0.3-0.1,0.7-0.2,1-0.4c0.3-0.2,0.4-0.5,0.1-0.7C115,61.3,113.1,61.8,111.2,62.4z"/>
		<path class="st2" d="M82.8,47.1c0.5-4.4,1.1-8.7,1.7-13c0.4-0.1,0.8-0.2,1.1-0.3c1.8-0.5,2.8-1.9,2.6-3.8
			c-0.1-0.8-0.3-1.7-0.7-2.4c-0.7-1.4-2-1.5-3-0.3c-0.7,0.8-1.1,1.9-1.3,2.9c-0.2,0.6-0.3,1.2-0.5,1.9c-0.4-0.1-0.7-0.2-1-0.3
			c-0.2-1-0.4-1.8-0.7-2.6c-0.3-0.9-0.8-1.6-1.6-2.2c-1.3-0.8-2.7-0.3-2.9,1.2c-0.2,1.6,0.2,3,1.6,4c0.5,0.3,0.9,0.6,1.4,0.9
			c0,4.6-0.8,9-2,13.4c-1.2-0.2-1.5-0.6-1.5-1.6c0-0.9,0.1-1.8,0.2-2.7c0.1-0.9,0.2-1.8-0.2-2.7c-0.3-0.6-0.5-1.2-0.9-1.8
			c-1.3-1.8-2.7-3.5-3.6-5.5c-0.4-0.9-1-1.8-1.2-2.9c-0.2-0.9-0.3-1.8,0-2.7c1-3.3,2.6-6.2,5.4-8.4c2.4-1.9,5-3.1,8-3.6
			c2.2-0.3,4.4,0.1,6.4,0.9c0.3,0.1,0.5,0.2,0.7,0.4c1.7,1.3,3.2,2.8,4.4,4.7c1.7,2.8,1.7,5.8,1,8.8c-0.2,1.1-0.8,2.1-1.4,3
			c-1.4,1.9-3.1,3.4-5.2,4.6c-2.4,1.4-4.3,3.3-5.2,6.1c-0.3,0.8-0.4,1.7-0.5,2.6C83.9,46.3,83.7,46.9,82.8,47.1z"/>
		<path class="st2" d="M82.8,49.3c0.4,1,1.2,1.9,1.2,3.1c-0.6,0.9-1.4,1.4-2.5,1.4c-1.4-0.1-2.9-0.2-4.3-0.3
			c-0.6-0.1-1.3-0.2-1.6-0.6c0.2-0.8,0.5-1.5,0.5-2.1c-0.1-0.6-0.6-1.2-0.9-1.9c0.3-0.2,0.6-0.4,0.9-0.6
			C78.1,49.3,80.4,48.8,82.8,49.3z"/>
		<path class="st2" d="M81.7,34.1c0.3,0.1,0.5,0.1,0.8,0.1c-0.6,4.3-1.1,8.5-1.7,12.7c-0.4,0-0.7,0-1,0c0.1-2.2,1-4.2,1.2-6.3
			C81.2,38.5,81.4,36.3,81.7,34.1z"/>
		<path class="st2" d="M85.9,29c0.6,2,0.4,2.3-0.9,2.7C85.1,30.8,85.3,29.9,85.9,29z"/>
		<path class="st2" d="M114.2,103.4c0-2.8,0.9-5.2,1.4-7.8c0.3-0.2,0.7-0.4,1-0.6c1.1-0.7,1.8-1.7,1.8-3.1c0-0.3-0.1-0.6-0.2-0.9
			c-0.2-0.6-0.6-1.1-1.3-1.2c-0.8-0.1-1.3,0.3-1.7,0.9c-0.3,0.4-0.4,0.8-0.6,1.3c-0.2,0.5-0.4,1-0.6,1.6c-0.4-0.1-0.8-0.1-1.1-0.2
			c-0.3-1.2-0.6-2.3-1-3.3c-0.2-0.5-0.6-1-1-1.4c-0.5-0.5-1.2-0.7-1.9-0.4c-0.7,0.3-1.1,0.9-1.1,1.7c-0.1,1.6,0.5,3,1.8,4
			c0.3,0.2,0.6,0.5,0.9,0.7c0.2,1.2-0.6,10.7-1,11.9c-0.3-0.4-0.2-0.7-0.1-1c0.2-1.2-0.1-2.2-0.6-3.2c-0.6-1.3-1.6-2.3-2.6-3.3
			c-2.6-2.6-3.9-6.5-3.4-10.1c0.3-2,0.8-3.9,1.4-5.8c1.1-3.1,3.3-5.1,6-6.7c1.7-1,3.5-1.6,5.6-1.5c1,0.1,2,0.3,2.9,0.8
			c1.4,0.8,2.9,1.4,4.1,2.5c1.2,1.1,2.2,2.4,3.1,3.8c1.4,2.3,1.7,4.7,1.2,7.3c-0.4,2.2-1.2,4.3-2.6,6.1c-0.8,1-1.4,2-2.2,3
			C120,100.8,117.5,102.5,114.2,103.4z"/>
		<path class="st2" d="M112.3,110c0,1.1,0.3,2-0.4,3c-0.9,0.1-1.8,0.2-2.8,0.2c-0.8,0-1.2-0.4-1.3-1.1c-0.1-1,0-2,0-3.2
			C109.3,109.7,110.6,110.3,112.3,110z"/>
		<path class="st2" d="M112.6,95.5c0.3,0,0.5,0.1,0.8,0.1c-0.4,1.8-0.8,3.6-1.2,5.4c-0.1,0-0.1,0-0.2,0
			C112.3,99.2,112.4,97.4,112.6,95.5z"/>
		<path class="st2" d="M36.6,94.3c-0.8-0.1-0.8-0.6-0.9-0.9c-0.2-0.6-0.4-1.2-0.7-1.8c-0.6-1.1-1.5-1.7-2.6-2.1
			c-1.4-0.5-2.9-1.1-4.1-2c-2-1.4-3.1-3.5-3-6c0-1.4,0.4-2.8,1-4.1c0.4-1,1.1-1.7,2-2.3c1.8-1.2,3.5-2.4,5.5-3.1
			c1.3-0.4,2.6-0.6,4-0.4c1.1,0.2,2.2,0.3,3.2,0.8c2,1.1,3.5,2.6,4.5,4.6c0.2,0.4,0.4,0.9,0.7,1.3c1.8,2.8,1.4,6.4-1.4,8.6
			c-1.2,1-1.7,2.2-1.5,3.7c0.1,0.6,0.1,1.1,0.1,1.7c-0.3,0.1-0.5,0.3-0.8,0.4c-0.8-3-1.5-5.9-1.7-9c0.4-0.3,0.8-0.6,1.2-0.9
			c1-0.9,1.3-1.9,0.8-2.9c-0.5-1.2-1.9-2.1-3-2c-0.8,0.1-1.4,0.6-1.5,1.5c-0.1,0.5-0.1,1.1,0,1.7c0,0.5,0.1,0.9,0.2,1.5
			c-0.8,0.5-1.6,0.3-2.4,0.1c-0.3-0.5-0.7-1-1-1.5c-0.4-0.7-1.1-1-1.8-1.3c-0.9-0.3-1.8,0-2.1,0.6c-0.5,0.7-0.3,1.5,0.1,2.1
			c0.5,0.8,1.2,1.1,2,1.4c0.4,0.2,0.8,0.3,1.3,0.4C35.5,87.8,36.3,90.9,36.6,94.3z"/>
		<path class="st2" d="M40.5,93.3c-0.7,0.1-1.2,0.2-1.8,0.3c-0.6-2.8-1.2-5.6-1.9-8.5c0.7,0,1.3,0,2,0C39.4,87.7,40,90.4,40.5,93.3z
			"/>
		<path class="st2" d="M43.8,94.7c0.1,0.2,0.2,0.3,0.2,0.4c0,0.1,0,0.2,0,0.4c-0.2,0.1-0.5,0.4-0.8,0.4c-1.8,0.4-3.6,0.8-5.4,1.1
			c-0.2,0-0.5,0.1-0.7,0c-0.2-0.1-0.3-0.4-0.6-0.6C39,95.4,41.4,95.4,43.8,94.7z"/>
		<path class="st2" d="M44.1,98.1c-0.8,0.8-2,1-4,0.8C41.5,98.2,42.8,98.2,44.1,98.1z"/>
		<path class="st2" d="M74.3,75c-0.9,2.5-1.9,5-3.3,7.4c-0.4-0.5-0.7-0.9-1.1-1.4c0,0,0.1-0.4,0.2-0.6c0.5-1.2,0.6-2.5,0.2-3.8
			c-0.4-1.6-0.5-3.1-0.4-4.8c0.3-3,1.9-5,4.8-5.8c2.1-0.6,4.2-1,6.4-0.4c1.2,0.3,2.3,0.7,3.2,1.6c0.3,0.3,0.7,0.7,1,1
			c1.9,2.4,2.3,4.8,0.7,7.5c-0.8,1.3-1.4,2.7-2.6,3.9c-1.3,1.3-3,2.1-4.7,2.6c-1.4,0.5-2.7,0.9-3.5,2.5c-0.2-0.3-0.3-0.5-0.3-0.6
			c0.9-2.4,2.1-4.6,3.8-6.6c0.4,0.1,0.7,0.2,1.1,0.2c1.6,0.2,2.9-0.8,3.1-2.4c0.1-1.5-1.3-2.7-2.7-2.2c-0.6,0.2-1.1,0.6-1.6,1
			c-0.3,0.2-0.4,0.4-0.7,0.7c-0.4-0.2-0.7-0.4-1.1-0.6c0-0.5,0-1-0.1-1.5c-0.2-1.1-1.1-1.9-2.2-1.9c-1.1,0-1.7,0.7-1.5,1.8
			c0.1,0.5,0.4,1,0.6,1.4C73.9,74.5,74.1,74.7,74.3,75z"/>
		<path class="st2" d="M73.9,86.1c-0.6,1-1.5,1.2-2.5,0.7c-1-0.5-1.9-1.2-2.9-1.8c0.1-0.6,0.2-1.1,0.3-1.6
			C70.1,85.1,72.1,85.4,73.9,86.1z"/>
		<path class="st2" d="M74.9,79.3c0.4-1,0.8-2,1.2-3.1c0.3,0.2,0.5,0.3,0.7,0.5c-0.6,0.9-1.2,1.8-1.8,2.7
			C75,79.3,74.9,79.3,74.9,79.3z"/>
		<path class="st2" d="M109.7,53.1c0.4,2.1,0.8,4.4,1.2,6.8c-0.1,0-0.2,0-0.3,0.1c-0.1-0.4-0.2-0.8-0.3-1.2c-0.3-2-1.3-3.5-3.4-4.1
			c-0.3-0.1-0.6-0.3-0.9-0.4c-2.3-0.8-3.7-2.5-4.6-4.6c-0.6-1.3-0.6-2.8,0-4.2c1.5-3.5,4.2-5.6,7.8-6.4c0.7-0.2,1.4,0,2.1,0.2
			c1.4,0.5,2.9,1,4.2,1.6c0.6,0.3,1.2,0.8,1.7,1.3c1.9,2.4,2.3,5,1.6,7.9c-0.4,1.5-0.9,2.9-1.9,4.1c-0.5,0.7-0.7,1.4-0.6,2.3
			c0,0.5,0.1,1,0.1,1.4c0,0.4-0.1,0.7-0.7,0.8c-0.3-2-0.4-4.1-0.6-6.2c0.4-0.3,0.7-0.5,1-0.8c0.7-0.6,0.9-1.4,0.5-2.3
			c-0.4-0.9-1-1.7-2.1-1.8c-0.7-0.1-1.4,0.5-1.6,1.3c-0.1,0.6-0.1,1.2-0.2,1.9c-0.4,0-0.9,0-1.4,0c-0.2-0.3-0.3-0.5-0.5-0.8
			c-0.2-0.3-0.5-0.6-0.8-0.9c-0.7-0.5-1.5-0.4-2.1,0.1c-0.6,0.5-0.8,1.5-0.2,2.2C108.2,52,108.9,52.4,109.7,53.1z"/>
		<path class="st2" d="M113.8,59.5c-0.3,0.1-0.5,0.2-0.8,0.3c-0.4-2.3-0.8-4.5-1.2-6.8c0.5,0,0.9-0.1,1.4-0.1
			C113.3,55.1,113.6,57.3,113.8,59.5z"/>
		<path class="st2" d="M111.2,62.4c2-0.5,3.8-1.1,5.7-1.6c0.3,0.3,0.2,0.6-0.1,0.7c-0.3,0.2-0.6,0.3-1,0.4c-1.3,0.3-2.6,0.5-3.9,0.8
			C111.6,62.8,111.3,62.8,111.2,62.4z"/>
	</g>
	<g>
		<g>
			<path d="M97.9,30c3.3,2.1,7,4.9,6.8,9.2c-0.1,1.1,1.7,1.1,1.8,0c0.3-5-3.9-8.4-7.7-10.8C97.8,27.9,96.9,29.4,97.9,30L97.9,30z"/>
		</g>
	</g>
	<g>
		<g>
			<path d="M108.3,58.7c-0.7,3.1-3.6,5.2-6.8,4.7c-2.8-0.4-5.2-2.4-7.7-3.6c-2.2-1.1-5.3-2-7.5-0.4c-1,0.8-1.4,2-0.9,3.1
				c0.2,0.7,0.7,1.3,1.2,1.8c0.2,0.2,0.5,0.5,0.7,0.7c0.1,0.2,1.1,1.8,0.1,1.6c-1.1-0.3-1.6,1.4-0.5,1.7c1.4,0.3,2.6-0.8,2.7-2.2
				c0.1-1.9-1.9-2.5-2.5-4c-1-2.1,2.6-2,3.7-1.7c1.5,0.4,2.9,1.2,4.3,2c2.6,1.5,5.4,3.1,8.5,2.6c3.1-0.5,5.6-3,6.3-6
				C110.3,58.1,108.6,57.6,108.3,58.7L108.3,58.7z"/>
		</g>
	</g>
	<g>
		<g>
			<path d="M86.3,79c0.4,1.4,1.3,2.5,2.7,3.1c1.5,0.6,3.1,0.5,4.6,0.1c1.7-0.4,3.5-1.1,5.2-1.6c1.2-0.4,3.7-1.6,4.5-0.1
				c0.5,1,2,0.1,1.5-0.9c-1.7-3.1-6-0.9-8.4-0.1c-2.5,0.8-7.3,2.7-8.4-1C87.7,77.5,86,77.9,86.3,79L86.3,79z"/>
		</g>
	</g>
	<g>
		<g>
			<path d="M123.9,99.5c2.8,1.5,3.6,4.8,3.2,7.8c-0.4,3.4-2.3,6.7-4.6,9.1c-5.2,5.2-13.1,6.3-20,4.7c-7.7-1.8-14.2-6.6-20.1-11.7
				c-2.6-2.3-5.2-4.9-8.5-6.1c-3.4-1.2-6.6-0.1-9.6,1.4c-3.5,1.7-6.8,3.1-10.8,2.2c-3.6-0.9-6.6-3.2-8.2-6.5c-0.5-1-2-0.1-1.5,0.9
				c3,5.9,10.4,9.2,16.7,7.1c3.6-1.2,7-4.1,11-3.8c4.2,0.3,7.5,4.1,10.5,6.7c6.2,5.3,13.2,10.3,21.4,11.8c7.3,1.4,15.5,0,20.8-5.6
				c2.7-2.8,4.7-6.6,4.9-10.6c0.2-3.4-0.9-7.2-4.2-8.8C123.8,97.5,122.9,99,123.9,99.5L123.9,99.5z"/>
		</g>
	</g>
	<g>
		<g>
			<path d="M39.5,70.1c1.9-12.4,9.5-23.7,20.4-30c1-0.6,0.1-2.1-0.9-1.5c-11.2,6.6-19.2,18.2-21.2,31.1
				C37.6,70.8,39.3,71.3,39.5,70.1L39.5,70.1z"/>
		</g>
	</g>
	<g>
		<g>
			<path d="M58.8,38.3c0.4,0.7,0.7,1.3,1.1,2c0.4,0.7,0.8,1.8,1.9,1.5c0.4-0.1,0.7-0.4,1-0.8c0.2-0.3,0.5-0.6,0.7-0.9
				c0.5-0.6,1-1.2,1.5-1.8c0.4-0.4,0.3-1.1-0.2-1.4c-0.8-0.5-1.6-0.8-2.5-1c-0.5-0.1-1-0.1-1.5-0.1c-0.5,0-1,0-1.4,0.3
				c-0.8,0.5-1,1.5-0.7,2.4c0.2,0.4,0.4,0.8,0.8,1.1c0.1,0.1,0.3,0.3,0.5,0.4c0.1,0.1,0.1,0.1,0.2,0.2c0,0,0.1,0.1,0.1,0.1
				c-0.1-0.1-0.1-0.1,0,0c0.3,0.4,0.8,0.6,1.2,0.3c0.4-0.3,0.6-0.8,0.3-1.2c-0.4-0.6-0.8-1.2-1.2-1.9c-0.4,0.4-0.8,0.8-1.2,1.2
				c0.7,0.3,1.3,0.7,2,1c0.6,0.3,1.3-0.1,1.3-0.8c0-0.3,0-0.7,0.1-1c-0.2,0.3-0.4,0.6-0.6,0.8c-0.1,0,0,0,0.1,0c0.1,0,0.1,0,0.2,0
				c0.1,0,0.1,0,0,0c0.1,0,0.2,0,0.3,0.1c0.4,0.1,1-0.2,1.1-0.6c0.1-0.5-0.1-0.9-0.6-1.1c-0.5-0.2-1-0.2-1.5-0.1
				c-0.4,0.1-0.6,0.5-0.6,0.8c0,0.3,0,0.7-0.1,1c0.4-0.3,0.9-0.5,1.3-0.8c-0.7-0.3-1.3-0.7-2-1c-0.3-0.2-0.8-0.2-1.1,0.1
				c-0.3,0.3-0.3,0.7-0.1,1.1c0.4,0.6,0.8,1.2,1.2,1.9c0.5-0.3,1-0.6,1.5-0.9c-0.2-0.3-0.5-0.6-0.8-0.9c-0.1-0.1-0.3-0.2-0.4-0.4
				c-0.1-0.1-0.1-0.1-0.2-0.2c0.1,0.1,0,0,0,0c0,0-0.1-0.1-0.1-0.2c0,0.1,0.1,0.1,0,0c0,0,0-0.1,0-0.1c0,0,0-0.1,0-0.1
				c0-0.1,0-0.1,0,0c0,0,0-0.2,0-0.2c0-0.2,0,0.2,0,0c0-0.2-0.1,0.1,0,0c0-0.1,0,0-0.1,0.1c0.1-0.1,0.1-0.1,0,0c0.1-0.1-0.1,0,0.1,0
				c0,0,0.3,0,0.1,0c0.1,0,0.2,0,0.2,0c0.2,0,0.4,0,0.6,0c0.2,0,0.3,0,0.5,0c-0.2,0,0.1,0,0.1,0c0.1,0,0.2,0,0.3,0.1
				c0.4,0.1,0.7,0.2,1,0.3c-0.1-0.1,0.1,0,0.1,0c0.1,0,0.2,0.1,0.2,0.1c0.2,0.1,0.3,0.2,0.5,0.3c-0.1-0.5-0.1-0.9-0.2-1.4
				c-0.4,0.5-0.9,1-1.3,1.5c-0.4,0.5-0.8,1-1.3,1.4c0,0,0,0-0.1,0.1c0,0,0,0,0,0c0.2,0,0.4,0,0.6,0c0,0,0.1,0.1,0.1,0.1
				c0.1,0.1,0,0,0-0.1c0-0.1-0.1-0.1-0.1-0.2c-0.2-0.3-0.3-0.6-0.5-0.9c-0.3-0.6-0.6-1.2-0.9-1.8c-0.2-0.4-0.8-0.6-1.2-0.3
				C58.7,37.4,58.6,37.9,58.8,38.3L58.8,38.3z"/>
		</g>
	</g>
</g>
</svg>
