<svg xmlns="http://www.w3.org/2000/svg" viewBox="0 0 156.79 136.29"><title>Machines Basic - Affordable</title><g id="Calque_2" data-name="Calque 2"><path d="M33.51,79.76c-3.18-2-6.65-4.64-6.85-8.4a8.25,8.25,0,0,1,3.41-6.6,25.89,25.89,0,0,1,6.84-3.51C46,57.63,55.18,53.18,61,45.34c3.37-4.55,5.39-10,9-14.41a30.45,30.45,0,0,1,8.76-7.11A28.22,28.22,0,0,1,89,20.32c10.5-1.23,21.09,5.64,25.35,15.31S117,57,111.17,65.87,95.91,80.78,85.74,83.66" style="fill:#b7d6e2"/></g><g id="Calque_1" data-name="Calque 1"><path d="M109.08,91.94c.06,1.18.14,2.13.15,3.08,0,2.23,0,4.47-.07,6.7a2.69,2.69,0,0,1-1.47,2.44,8.71,8.71,0,0,1-2.68,1,17,17,0,0,1-6.31.08,1.89,1.89,0,0,0-.71,0,2.05,2.05,0,0,1-2.41-1.51,18.11,18.11,0,0,1-.62-2.06c-.07-.25-.1-.51-.17-.82a2.13,2.13,0,0,0-.39.18,18.38,18.38,0,0,0-4.11,4.65,3.68,3.68,0,0,1-4.18,1.82,17.91,17.91,0,0,1-7.43-3.14,42.88,42.88,0,0,1-6.23-5.41,29.23,29.23,0,0,1-1.8-2.34.31.31,0,0,0-.21,0,39.16,39.16,0,0,0-6.72,3.14c-1.22.84-2.48,1.63-3.61,2.58a17.73,17.73,0,0,0-2,2.35c-1,1.21-1.69,1.32-2.93.33-1-.77-1.84-1.68-2.85-2.38a37,37,0,0,0-3.6-2.13c-.68-.38-1.33-.75-1.48-1.66l-1.08-.07a6.84,6.84,0,0,1-3.56-1.31,2.66,2.66,0,0,1-1.14-2.26v-.36c0-2.4.94-3.52,3.29-4.13A11.12,11.12,0,0,1,49,90.42a15.72,15.72,0,0,1,4.28.63c1.64-1.19,3.62-2,4.7-4.14-.45,0-.67,0-.89,0a39.68,39.68,0,0,1-4,.47,49.18,49.18,0,0,1-5.14-.28,3.71,3.71,0,0,0-1.93.37c-1.45.62-3,1.06-4.54,1.59L41,91.83l-.14,0c.13,1.63.31,3.26.37,4.89.11,2.62-.59,3.42-3.18,3.88a24.8,24.8,0,0,1-7.4,0,6,6,0,0,1-.81-.21c-2-.6-2.72-1.64-2.41-3.75a19.69,19.69,0,0,0-.32-5.58c-.12-.91-.1-1.83-.13-2.75,0-.75,0-1.51,0-2.24a3.22,3.22,0,0,0-.62-.33,15.78,15.78,0,0,1-5.17-2.7,6.18,6.18,0,0,1-2.13-2.84,1.22,1.22,0,0,1,.7-1.76,1.23,1.23,0,0,1,.46-.14c2.94-.33,4.69-2.4,6.41-4.46a15.14,15.14,0,0,0,2.91-5.33c.39-1.26,1.47-1.42,2.41-.43.71.76,1.33,1.6,2,2.38.37.41.78.78,1.16,1.15a10.15,10.15,0,0,0,4.49-1.79c1.28-.88,2.55-1.79,3.81-2.7.51-.38,1-.82,1.5-1.19.82-.6,1.36-.44,2,.45.92,1.3,1.86,2.59,2.84,3.85a4.68,4.68,0,0,0,2.59,1.69l1.8-2c-.43-1.81-.85-3.59-1.28-5.38A102.43,102.43,0,0,1,51,52.47a63.43,63.43,0,0,1-.36-9.94c.07-2.19,0-4.39,0-6.59a7.17,7.17,0,0,1,.3-1.89,1.65,1.65,0,0,1,2.39-1.25c.75.24,1.48.57,2.21.88q2.33,1,4.62,2a2.12,2.12,0,0,0,2.25-.42,19.7,19.7,0,0,1,6.63-3,18.55,18.55,0,0,1,6.39-.73,14.73,14.73,0,0,1,4.39.72c.27-.29.52-.54.75-.81a41.69,41.69,0,0,1,6.93-6.74,4.67,4.67,0,0,1,.82-.51,2,2,0,0,1,2.4.49,5.23,5.23,0,0,1,1,1.77A25.18,25.18,0,0,1,92.63,36a10.88,10.88,0,0,0,1.42,6.2,34.41,34.41,0,0,1,3.33,9.08c.42,1.91,1,3.79,1.37,5.71.33,1.76.48,3.56.71,5.34l.1.76A2.56,2.56,0,0,0,102.09,62a23.47,23.47,0,0,1-.77-2.79,5.94,5.94,0,0,1,.14-2.14,1.63,1.63,0,0,1,2.23-1.2,2.94,2.94,0,0,1,2.1,2.79,21.16,21.16,0,0,1-.16,2.69,1.46,1.46,0,0,0,1.29,0c.79-.27,1.57-.59,2.35-.89a7.59,7.59,0,0,1,1-.4.93.93,0,0,1,1.11.51.86.86,0,0,1-.33,1.16,13.83,13.83,0,0,1-1.9,1,7,7,0,0,1-5.29.39,5.4,5.4,0,0,1-4.08,2.07.69.69,0,0,0,.4,1,18,18,0,0,1,4.89,3.29,6.84,6.84,0,0,0,.92-.21,47,47,0,0,0,9.23-5,8.84,8.84,0,0,0,1.22-1.15,1.44,1.44,0,0,1,2.3-.16,24.33,24.33,0,0,1,2.91,3,39.18,39.18,0,0,0,3.55,3.73c.5.49.91,1.07,1.48,1.75a19.65,19.65,0,0,1,2.06.63,1.85,1.85,0,0,1,1.3,2.56c-.78,3-.55,6-.67,9.06,0,.76,0,1.52-.05,2.28a4.5,4.5,0,0,1-4,4.56,22.53,22.53,0,0,1-6,.6,2.36,2.36,0,0,0-1.69.44,2.5,2.5,0,0,1-1.11.42C114.14,92.33,111.7,92.92,109.08,91.94ZM69.33,84.06a40.93,40.93,0,0,0,4.24.26c2-.09,3.9.07,5.85,0a16.57,16.57,0,0,0,2.73-.22,18.54,18.54,0,0,0,2.37-.74l0,.11,1.28-.9a2.61,2.61,0,0,0,0-.48c-.13-2.47-.29-4.94-.38-7.42-.05-1.44,0-2.88,0-4.31a.89.89,0,0,1,.84-1,1,1,0,0,1,1.11.86,6.7,6.7,0,0,1,0,1.19c0,1.56,0,3.12.06,4.67,0,1.36.08,2.72.2,4.07.16,1.79.38,3.58.62,5.36a6.43,6.43,0,0,0,.48,1.28c1.09-.14,1.5-.91,2-1.56.37-.47.66-1,1.06-1.45a11,11,0,0,0,2.26-3.91c.49-1.44,1-2.88,1.44-4.33,1-3.07,2-6.12,1.89-9.45a43.47,43.47,0,0,0-.84-9c-.42-1.71-.88-3.41-1.25-5.13a33,33,0,0,0-3.27-9,12.11,12.11,0,0,1-1.58-6.9,23.54,23.54,0,0,0-.76-8.67,12.41,12.41,0,0,0-.54-1.33,4.94,4.94,0,0,0-.66.33c-1,.88-2.12,1.71-3.05,2.68a42.75,42.75,0,0,0-4,4.28,2.15,2.15,0,0,1-2.79.72A11.09,11.09,0,0,0,74,33.55a18.39,18.39,0,0,0-6.3,1.28,34.21,34.21,0,0,0-5.49,2.9,1.91,1.91,0,0,1-1.91.16c-1.94-.86-3.88-1.68-5.82-2.53A2.36,2.36,0,0,0,52.82,35a20.28,20.28,0,0,0-.24,4.4c0,1.8,0,3.59,0,5.39,0,.48,0,1,0,1.44.11,1.95.15,3.92.39,5.86.47,3.68.93,7.38,1.62,11,.85,4.48,2.23,8.83,3.47,13.21a23.84,23.84,0,0,0,2.47,6.21,20.93,20.93,0,0,0,3.87,5,4.37,4.37,0,0,0,2,1.13,12.36,12.36,0,0,0,.93-4.24c.2-2.15.39-4.3.65-6.44s.54-4,.84-6a1.45,1.45,0,0,1,.25-.78,1.11,1.11,0,0,1,.77-.43,1.41,1.41,0,0,1,.82.57,1.33,1.33,0,0,1,.13.81c0,.87-.09,1.75-.22,2.62-.3,2.06-.67,4.1-1,6.16C69.47,81.84,69.43,82.83,69.33,84.06Zm0,2.11c-.28,1-.49,2-.84,2.89a2.08,2.08,0,0,1-3.14,1.37A9.13,9.13,0,0,1,63,88.92c-.92-.82-1.71-1.77-2.6-2.71a1.17,1.17,0,0,0-.29,0,1.5,1.5,0,0,0-.32.18,4.23,4.23,0,0,1-2,3.86c-.89.65-1.76,1.34-2.63,2,.92,1.93,1,2.15.91,3.28a2,2,0,0,1-1.69,2.18c-1.35.33-2.73.53-4.1.79-.13,0-.26.08-.64.21a24.13,24.13,0,0,1,6.75,4.67c.37-.46.68-.87,1-1.25a18.72,18.72,0,0,1,1.59-1.62,37.85,37.85,0,0,1,11.23-6.07A81.16,81.16,0,0,1,78.78,92a10,10,0,0,0,1.43-.6c-1.47-1.77-2.55-3.65-4.46-5Zm13.24,6.26a27.88,27.88,0,0,1-2.58,1.26c-.93.35-1.93.51-2.89.78a29.06,29.06,0,0,0-4.23,1.32,3.45,3.45,0,0,0,1,1.69,40.25,40.25,0,0,0,6.84,5.79,14.43,14.43,0,0,0,5.77,2.22,1.75,1.75,0,0,0,2.07-.8A23.69,23.69,0,0,1,92.54,100a1.7,1.7,0,0,1,2.18-.58c0-1.08.4-2,.13-3C90.45,95.92,86.55,94.05,82.52,92.43Zm13.2-10.57c3.74,1.69,12,1,15.23-1.57a1.88,1.88,0,0,0-.45-1.54,41,41,0,0,0-4.13-5c-1.93-1.82-3.51-4.06-6-5.21-.23-.11-.46-.2-.78-.33C99,73,97.05,77.31,95.72,81.86ZM21.5,80.32A8.76,8.76,0,0,0,27,83.66,6.41,6.41,0,0,1,32.55,80a2.22,2.22,0,0,0,.82-.16A7.57,7.57,0,0,1,38,79.47a4.43,4.43,0,0,1,3.84,3.07l3.58-4.41L44.62,78,40,77.1a7.72,7.72,0,0,1-3.78-1.73c-1.46-1.3-2.83-2.69-4.24-4.05-.3-.29-.58-.62-.89-.95C29,74.8,26.15,78.45,21.5,80.32ZM123.82,71.2c-.22-.25-.33-.41-.47-.54a23.9,23.9,0,0,1-3.71-4.07,14.28,14.28,0,0,0-1.76-1.73c-1.9,1.24-3.63,2.47-5.46,3.51s-3.75,1.89-5.55,2.78c1.61,2,3.14,3.9,4.76,5.77A4.92,4.92,0,0,1,113,81.1c0,.06.07.13.17.32l2.87-.2a15,15,0,0,0,.13-2c-.09-1.23-.24-2.47-.43-3.69A2.15,2.15,0,0,1,117,73.06,25.6,25.6,0,0,1,120,72C121.18,71.7,122.44,71.49,123.82,71.2ZM54.87,72.46l-2.73,2.05a5.93,5.93,0,0,0-.53.47c-2,2-4,3.92-6,5.91a7,7,0,0,0-1.84,2.68,2.88,2.88,0,0,0,2,1.16,51.43,51.43,0,0,0,6.41.68A42.42,42.42,0,0,0,58,84.72a7.81,7.81,0,0,0,1.19-.36,8,8,0,0,0-.41-.83,22.35,22.35,0,0,1-2.71-6.86C55.77,75.24,55.29,73.85,54.87,72.46ZM86.22,85.14a14.32,14.32,0,0,0-2.6.65,10.83,10.83,0,0,1-3.63.63c-.26,0-.51.06-.83.1,1,1.39,1.73,2.89,3.13,3.78a5.51,5.51,0,0,1,1.3.3,60.71,60.71,0,0,0,7.9,3.09,9.08,9.08,0,0,0,3.39.55,11.83,11.83,0,0,0-.33-2.63,1.83,1.83,0,0,1,.75-2.2,9.28,9.28,0,0,1,3.23-1.51c.44-.12,1-.1,1.26-.49-.5-1-1-1.88-1.46-2.84-.61-.08-1.24-.15-1.87-.27s-1.22-.31-1.86-.48c-.11.12-.22.23-.32.35-.94,1.19-1.81,2.44-2.82,3.56-1.48,1.62-4,2-4.89-1.17C86.43,86.07,86.33,85.57,86.22,85.14ZM50.38,73.38c-2.22-1.33-3.32-3.43-4.87-5.24-1.38,1-2.69,1.93-4,2.81s-2.81,1.7-4.25,2.57a5.72,5.72,0,0,0,2.42,1.4,31.94,31.94,0,0,0,6.93,1.2,2,2,0,0,0,1.72-.61C48.94,74.82,49.61,74.15,50.38,73.38Zm65.5,9.9c-1.75,0-3.41.67-4.92-.66-3,2-6.64,1.78-10.14,2.42a3.77,3.77,0,0,0,2.56,2.31c.54.11,1.1.15,1.63.27s1,.33,1.64.53a3,3,0,0,1,2.29-2.85,10.76,10.76,0,0,1,5.85-.78,5.35,5.35,0,0,0,1,0Zm-76.25-.52a4,4,0,0,0-3.94-1.38c-1.2.29-2.41.52-3.62.73a4.61,4.61,0,0,0-2.71,1.61c-.16.18-.16.49-.27.86a8.2,8.2,0,0,0,1.57.35c1.72,0,3.43.1,5.14,0a7.38,7.38,0,0,0,2.18-.6A2.54,2.54,0,0,0,39.63,82.76Zm67.59,17.11a24.55,24.55,0,0,1-2.61.75c-2.48.45-5,1.21-7.47,0,0,0-.08,0-.17,0a3.32,3.32,0,0,0,.65,2.41c.54.07,1.06.1,1.57.19a14.58,14.58,0,0,0,5.92-.21,3.76,3.76,0,0,0,2-1.12C107.16,101.29,107.19,100.59,107.22,99.87ZM39.14,95.75c-.78.35-1.31.62-1.87.82a5.43,5.43,0,0,1-1.6.43c-2.06,0-4.12,0-6.27,0l.07,1c2.15,1.18,7.76,1.18,9.67,0Zm67.71-4.93c-1.1-.71-1.94-1.41-3.19-1.18a4.5,4.5,0,0,1-1.55-.08c-1.75-.35-3.29.31-4.83,1a1.93,1.93,0,0,0-.45.37c.74.63.74.67,4,.8C102.8,91.78,104.83,92.08,106.85,90.82Zm.39,5.86A16.51,16.51,0,0,1,97,96.39c0,.55,0,1-.08,1.55a4.31,4.31,0,0,0,3.21,1.3,28.42,28.42,0,0,0,7.11-1.44Zm11-7.76a1.24,1.24,0,0,0,.39.14,22.15,22.15,0,0,0,6.54-.61,3.86,3.86,0,0,0,1.36-.71,1.05,1.05,0,0,0,.46-1.3c-3.1,1.44-6.09.8-9-.45C117.25,87.17,118.47,88,118.23,88.92ZM44,93.24a3.61,3.61,0,0,0,2,.85c.84.11,1.67.19,2.49.38a6.78,6.78,0,0,0,4.19-.54,5.05,5.05,0,0,0,.76-.55,6.71,6.71,0,0,0-4-.87,5.47,5.47,0,0,1-1.51-.1A5.82,5.82,0,0,0,44,93.24Zm53,1.07a3.77,3.77,0,0,1,.91.18,12.15,12.15,0,0,0,5.5.82,6,6,0,0,0,3.78-1.15c0-.28-.09-.6-.15-1.09a9.94,9.94,0,0,1-4.44.69c-1.75-.07-3.49-.2-5.24-.3a1.7,1.7,0,0,0-.44.08,3.28,3.28,0,0,0,0,.4C96.93,94.05,97,94.16,97,94.31ZM118,74.82c.29.18.41.31.54.33a17.37,17.37,0,0,0,8.61-.69,6.29,6.29,0,0,0,.87-.56C124.4,72.76,121.25,73.57,118,74.82ZM38.82,92.69c-3.14,1.28-6.26.6-9.33.67.12,1.29.47,1.7,1.65,1.72s2.24-.22,3.34-.11c1.75.18,3-.94,4.52-1.35Zm.52-2.87a41.34,41.34,0,0,1-10.31,0c.12.92.4,1.31,1.15,1.47a9.25,9.25,0,0,0,1.66.17c1,0,2.08-.11,3.11,0,1.57.14,2.85-.61,4.21-1.15C39.21,90.25,39.22,90.13,39.34,89.82Zm88.2-13.33a23.16,23.16,0,0,1-9.43.76,5.9,5.9,0,0,0,1.19.75,6.48,6.48,0,0,0,1.73.72,18.53,18.53,0,0,0,6.37-.54C127.44,77.65,127.48,77.22,127.54,76.49ZM29,86.88A1.94,1.94,0,0,0,30.85,88c.95.06,1.91.14,2.87.13,1.39,0,2.79-.06,4.18-.18s1.74-.77,1.57-2A11.76,11.76,0,0,1,33.52,87C32.06,87,30.59,86.93,29,86.88Zm98.32-3.46a12.34,12.34,0,0,1-4.52.49c-1.56-.25-3.11-.59-4.75-.92l0,1c1.11.33,2.16.58,3.15,1,2,.76,3.76.2,5.57-.47A.78.78,0,0,0,127.27,83.42Zm-9.14-2.88a10.61,10.61,0,0,0,9.29.6l-.1-.87c-3.62.63-5.9,1-9.09-.28Zm-2,9.4,0-.4c-.85,0-1.71.13-2.57.13s-1.67-.06-2.5-.14a9.43,9.43,0,0,0-2.67-.26c.56.83,1.39.77,2.06,1C112.39,90.81,114.27,90.26,116.15,89.94Zm-6-2.65a8.68,8.68,0,0,0,1.49.28c1.15,0,2.3,0,3.45,0,.39,0,.7-.21.46-.79A6.76,6.76,0,0,0,110.13,87.29Zm-66.5,8.38a5.12,5.12,0,0,0,4.56.86Zm-2-8.86,2-.61-1.81-1.54C41.8,85.4,41.74,86,41.66,86.81Z"/><path d="M123.69,102.22v1.51c0,1.49-.6,2.13-2,2.24a15.25,15.25,0,0,0-1.67.13,16,16,0,0,1-5.48-.24,11.52,11.52,0,0,1-3-1c-1.27-.62-1.71-1.68-1.44-3.35a1.91,1.91,0,0,1,.44-.83,5,5,0,0,1,2.94-1.72c.22,0,.45-.12.78-.21-.19-.26-.34-.43-.45-.62A2.31,2.31,0,0,1,115,94.45a19,19,0,0,1,3.3-.5c.75-.07,1.52,0,2.28,0a9.53,9.53,0,0,1,4.64,1,4.86,4.86,0,0,1,1.48,1,1.81,1.81,0,0,1,.6,1.12,21.52,21.52,0,0,1-.18,3.21,1.93,1.93,0,0,1-1.52,1.54C125,101.93,124.42,102,123.69,102.22Zm1.51-4.89c-1.4-1.21-2.76-1.51-6.49-1.4-2,.06-2.71.21-3.36.89.53.52,1.25.46,1.88.64a3.07,3.07,0,0,1,1.2.43,3,3,0,0,0,1.92.75,15.61,15.61,0,0,1,2.32-.46c.39-.05.8,0,1.19-.05C124.42,98.06,125,97.94,125.2,97.33Zm-12.6,4.16a1.06,1.06,0,0,0,.29.21,21.06,21.06,0,0,0,6.9.35,4.75,4.75,0,0,0,1.23-.5v-.29l-2.39-.94a5.77,5.77,0,0,1-2,.42c-.72.05-1.44,0-2.15.07A2.64,2.64,0,0,0,112.6,101.49Z"/><path d="M69.33,84.06c.1-1.23.14-2.22.28-3.2.3-2.06.67-4.1,1-6.16.13-.87.17-1.75.22-2.62a1.33,1.33,0,0,0-.13-.81,1.41,1.41,0,0,0-.82-.57,1.11,1.11,0,0,0-.77.43,1.45,1.45,0,0,0-.25.78c-.3,2-.6,4-.84,6s-.45,4.29-.65,6.44a12.36,12.36,0,0,1-.93,4.24,4.37,4.37,0,0,1-2-1.13,20.93,20.93,0,0,1-3.87-5,23.84,23.84,0,0,1-2.47-6.21c-1.24-4.38-2.62-8.73-3.47-13.21-.69-3.64-1.15-7.34-1.62-11-.24-1.94-.28-3.91-.39-5.86,0-.48,0-1,0-1.44,0-1.8,0-3.59,0-5.39a20.28,20.28,0,0,1,.24-4.4,2.36,2.36,0,0,1,1.62.39c1.94.85,3.88,1.67,5.82,2.53a1.91,1.91,0,0,0,1.91-.16,34.21,34.21,0,0,1,5.49-2.9A18.39,18.39,0,0,1,74,33.55a11.09,11.09,0,0,1,4.84.53,2.15,2.15,0,0,0,2.79-.72,42.75,42.75,0,0,1,4-4.28c.93-1,2-1.8,3.05-2.68a4.94,4.94,0,0,1,.66-.33,12.41,12.41,0,0,1,.54,1.33,23.54,23.54,0,0,1,.76,8.67A12.11,12.11,0,0,0,92.19,43a33,33,0,0,1,3.27,9c.37,1.72.83,3.42,1.25,5.13a43.47,43.47,0,0,1,.84,9c.11,3.33-.89,6.38-1.89,9.45-.47,1.45-1,2.89-1.44,4.33A11,11,0,0,1,92,83.8c-.4.44-.69,1-1.06,1.45-.5.65-.91,1.42-2,1.56a6.43,6.43,0,0,1-.48-1.28c-.24-1.78-.46-3.57-.62-5.36-.12-1.35-.17-2.71-.2-4.07,0-1.55,0-3.11-.06-4.67a6.7,6.7,0,0,0,0-1.19,1,1,0,0,0-1.11-.86.89.89,0,0,0-.84,1c0,1.43-.09,2.87,0,4.31.09,2.48.25,4.95.38,7.42a2.61,2.61,0,0,1,0,.48l-1.28.9,0-.11a18.54,18.54,0,0,1-2.37.74,16.57,16.57,0,0,1-2.73.22c-2,.06-3.9-.1-5.85,0A40.93,40.93,0,0,1,69.33,84.06Zm7.53-20.81,0,.24A24.65,24.65,0,0,0,79.46,63c1.15-.32,2.24-.87,3.41-1.11a12.76,12.76,0,0,0,6.9-4.07,8.27,8.27,0,0,0,1.79-2.93c1.41-4.14-1.48-7.11-4.31-8a37.62,37.62,0,0,0-6.58-1.24,29.29,29.29,0,0,0-4-.42,39.07,39.07,0,0,0-5.72.49,19.32,19.32,0,0,0-4,1.21,14.28,14.28,0,0,0-2.62,1.45A10.2,10.2,0,0,0,60,53.25a6.82,6.82,0,0,0,1,7c.43.53,1,1,1.41,1.47a4.14,4.14,0,0,0,2.79,1.47c1.23.16,2.45.35,3.68.49a16.83,16.83,0,0,0,5.25-.15A24.75,24.75,0,0,1,76.86,63.25Zm4.38-19.4a1.11,1.11,0,0,0-1.15-1.1A1.14,1.14,0,1,0,80,45,1.19,1.19,0,0,0,81.24,43.85ZM66.51,46.46a1,1,0,1,0-.09-2,1,1,0,0,0-1,1A1,1,0,0,0,66.51,46.46Z" style="fill:#fff"/><path d="M69.28,86.17l6.47.19c1.91,1.34,3,3.22,4.46,5a10,10,0,0,1-1.43.6,81.16,81.16,0,0,0-8.49,2.54,37.85,37.85,0,0,0-11.23,6.07,18.72,18.72,0,0,0-1.59,1.62c-.34.38-.65.79-1,1.25a24.13,24.13,0,0,0-6.75-4.67c.38-.13.51-.18.64-.21,1.37-.26,2.75-.46,4.1-.79a2,2,0,0,0,1.69-2.18c.07-1.13,0-1.35-.91-3.28.87-.68,1.74-1.37,2.63-2a4.23,4.23,0,0,0,2-3.86,1.5,1.5,0,0,1,.32-.18,1.17,1.17,0,0,1,.29,0c.89.94,1.68,1.89,2.6,2.71a9.13,9.13,0,0,0,2.28,1.51,2.08,2.08,0,0,0,3.14-1.37C68.79,88.13,69,87.16,69.28,86.17Z" style="fill:#fff"/><path d="M82.52,92.43c4,1.62,7.93,3.49,12.33,4,.27,1-.15,1.91-.13,3a1.7,1.7,0,0,0-2.18.58,23.69,23.69,0,0,0-4.05,4.72,1.75,1.75,0,0,1-2.07.8,14.43,14.43,0,0,1-5.77-2.22,40.25,40.25,0,0,1-6.84-5.79,3.45,3.45,0,0,1-1-1.69,29.06,29.06,0,0,1,4.23-1.32c1-.27,2-.43,2.89-.78A27.88,27.88,0,0,0,82.52,92.43Z" style="fill:#fff"/><path d="M95.72,81.86C97.05,77.31,99,73,99.56,68.23c.32.13.55.22.78.33,2.52,1.15,4.1,3.39,6,5.21a41,41,0,0,1,4.13,5,1.88,1.88,0,0,1,.45,1.54C107.74,82.86,99.46,83.55,95.72,81.86Z" style="fill:#fff"/><path d="M21.5,80.32c4.65-1.87,7.46-5.52,9.63-9.95.31.33.59.66.89.95,1.41,1.36,2.78,2.75,4.24,4.05A7.72,7.72,0,0,0,40,77.1l4.58.88.75.15-3.58,4.41A4.43,4.43,0,0,0,38,79.47a7.57,7.57,0,0,0-4.58.41,2.22,2.22,0,0,1-.82.16A6.41,6.41,0,0,0,27,83.66,8.76,8.76,0,0,1,21.5,80.32Z" style="fill:#fff"/><path d="M123.82,71.2c-1.38.29-2.64.5-3.87.83a25.6,25.6,0,0,0-2.94,1,2.15,2.15,0,0,0-1.32,2.52c.19,1.22.34,2.46.43,3.69a15,15,0,0,1-.13,2l-2.87.2c-.1-.19-.18-.26-.17-.32a4.92,4.92,0,0,0-1.32-4.18c-1.62-1.87-3.15-3.81-4.76-5.77,1.8-.89,3.73-1.74,5.55-2.78s3.56-2.27,5.46-3.51a14.28,14.28,0,0,1,1.76,1.73,23.9,23.9,0,0,0,3.71,4.07C123.49,70.79,123.6,71,123.82,71.2Z" style="fill:#fff"/><path d="M54.87,72.46c.42,1.39.9,2.78,1.24,4.21a22.35,22.35,0,0,0,2.71,6.86,8,8,0,0,1,.41.83,7.81,7.81,0,0,1-1.19.36,42.42,42.42,0,0,1-5.81.69,51.43,51.43,0,0,1-6.41-.68,2.88,2.88,0,0,1-2-1.16,7,7,0,0,1,1.84-2.68c2-2,4-3.94,6-5.91a5.93,5.93,0,0,1,.53-.47Z" style="fill:#fff"/><path d="M86.22,85.14c.11.43.21.93.35,1.42.91,3.15,3.41,2.79,4.89,1.17,1-1.12,1.88-2.37,2.82-3.56.1-.12.21-.23.32-.35.64.17,1.25.35,1.86.48s1.26.19,1.87.27c.49,1,1,1.88,1.46,2.84-.31.39-.82.37-1.26.49a9.28,9.28,0,0,0-3.23,1.51,1.83,1.83,0,0,0-.75,2.2,11.83,11.83,0,0,1,.33,2.63,9.08,9.08,0,0,1-3.39-.55,60.71,60.71,0,0,1-7.9-3.09,5.51,5.51,0,0,0-1.3-.3c-1.4-.89-2.12-2.39-3.13-3.78.32,0,.57-.08.83-.1a10.83,10.83,0,0,0,3.63-.63A14.32,14.32,0,0,1,86.22,85.14Z" style="fill:#fff"/><path d="M50.38,73.38c-.77.77-1.44,1.44-2.1,2.13a2,2,0,0,1-1.72.61,31.94,31.94,0,0,1-6.93-1.2,5.72,5.72,0,0,1-2.42-1.4c1.44-.87,2.87-1.68,4.25-2.57s2.67-1.85,4-2.81C47.06,70,48.16,72.05,50.38,73.38Z" style="fill:#fff"/><path d="M115.88,83.28l-.1,1.25a5.35,5.35,0,0,1-1,0,10.76,10.76,0,0,0-5.85.78,3,3,0,0,0-2.29,2.85c-.62-.2-1.12-.4-1.64-.53s-1.09-.16-1.63-.27A3.77,3.77,0,0,1,100.82,85c3.5-.64,7.1-.41,10.14-2.42C112.47,84,114.13,83.25,115.88,83.28Z" style="fill:#fff"/><path d="M39.63,82.76A2.54,2.54,0,0,1,38,84.35a7.38,7.38,0,0,1-2.18.6c-1.71.08-3.42,0-5.14,0a8.2,8.2,0,0,1-1.57-.35c.11-.37.11-.68.27-.86a4.61,4.61,0,0,1,2.71-1.61c1.21-.21,2.42-.44,3.62-.73A4,4,0,0,1,39.63,82.76Z" style="fill:#fff"/><path d="M107.22,99.87c0,.72-.06,1.42-.09,2.08a3.76,3.76,0,0,1-2,1.12,14.58,14.58,0,0,1-5.92.21c-.51-.09-1-.12-1.57-.19a3.32,3.32,0,0,1-.65-2.41c.09,0,.14-.05.17,0,2.49,1.19,5,.43,7.47,0A24.55,24.55,0,0,0,107.22,99.87Z" style="fill:#fff"/><path d="M39.14,95.75V98c-1.91,1.17-7.52,1.17-9.67,0l-.07-1c2.15,0,4.21,0,6.27,0a5.43,5.43,0,0,0,1.6-.43C37.83,96.37,38.36,96.1,39.14,95.75Z" style="fill:#fff"/><path d="M106.85,90.82c-2,1.26-4,1-6,.88-3.27-.13-3.27-.17-4-.8a1.93,1.93,0,0,1,.45-.37c1.54-.66,3.08-1.32,4.83-1a4.5,4.5,0,0,0,1.55.08C104.91,89.41,105.75,90.11,106.85,90.82Z" style="fill:#fff"/><path d="M107.24,96.68V97.8a28.42,28.42,0,0,1-7.11,1.44,4.31,4.31,0,0,1-3.21-1.3c0-.52.06-1,.08-1.55A16.51,16.51,0,0,0,107.24,96.68Z" style="fill:#fff"/><path d="M118.23,88.92c.24-1-1-1.75-.23-2.93,2.89,1.25,5.88,1.89,9,.45a1.05,1.05,0,0,1-.46,1.3,3.86,3.86,0,0,1-1.36.71,22.15,22.15,0,0,1-6.54.61A1.24,1.24,0,0,1,118.23,88.92Z" style="fill:#fff"/><path d="M44,93.24a5.82,5.82,0,0,1,3.85-.83,5.47,5.47,0,0,0,1.51.1,6.71,6.71,0,0,1,4,.87,5.05,5.05,0,0,1-.76.55,6.78,6.78,0,0,1-4.19.54c-.82-.19-1.65-.27-2.49-.38A3.61,3.61,0,0,1,44,93.24Z" style="fill:#fff"/><path d="M97,94.31c0-.15-.09-.26-.11-.37a3.28,3.28,0,0,1,0-.4,1.7,1.7,0,0,1,.44-.08c1.75.1,3.49.23,5.24.3a9.94,9.94,0,0,0,4.44-.69c.06.49.11.81.15,1.09a6,6,0,0,1-3.78,1.15,12.15,12.15,0,0,1-5.5-.82A3.77,3.77,0,0,0,97,94.31Z" style="fill:#fff"/><path d="M118,74.82c3.3-1.25,6.45-2.06,10-.92a6.29,6.29,0,0,1-.87.56,17.37,17.37,0,0,1-8.61.69C118.36,75.13,118.24,75,118,74.82Z" style="fill:#fff"/><path d="M38.82,92.69l.18.93c-1.54.41-2.77,1.53-4.52,1.35-1.1-.11-2.23.12-3.34.11s-1.53-.43-1.65-1.72C32.56,93.29,35.68,94,38.82,92.69Z" style="fill:#fff"/><path d="M39.34,89.82c-.12.31-.13.43-.18.45-1.36.54-2.64,1.29-4.21,1.15-1-.1-2.07,0-3.11,0a9.25,9.25,0,0,1-1.66-.17c-.75-.16-1-.55-1.15-1.47A41.34,41.34,0,0,0,39.34,89.82Z" style="fill:#fff"/><path d="M127.54,76.49c-.06.73-.1,1.16-.14,1.69a18.53,18.53,0,0,1-6.37.54A6.48,6.48,0,0,1,119.3,78a5.9,5.9,0,0,1-1.19-.75A23.16,23.16,0,0,0,127.54,76.49Z" style="fill:#fff"/><path d="M29,86.88c1.64.05,3.11.07,4.57.14a11.76,11.76,0,0,0,5.95-1.1c.17,1.25-.31,1.91-1.57,2s-2.79.16-4.18.18c-1,0-1.92-.07-2.87-.13A1.94,1.94,0,0,1,29,86.88Z" style="fill:#fff"/><path d="M127.27,83.42a.78.78,0,0,1-.6,1c-1.81.67-3.62,1.23-5.57.47-1-.39-2-.64-3.15-1l0-1c1.64.33,3.19.67,4.75.92A12.34,12.34,0,0,0,127.27,83.42Z" style="fill:#fff"/><path d="M118.13,80.54l.1-.55c3.19,1.27,5.47.91,9.09.28l.1.87A10.61,10.61,0,0,1,118.13,80.54Z" style="fill:#fff"/><path d="M116.15,89.94c-1.88.32-3.76.87-5.7.3-.67-.2-1.5-.14-2.06-1a9.43,9.43,0,0,1,2.67.26c.83.08,1.67.14,2.5.14s1.72-.08,2.57-.13Z" style="fill:#fff"/><path d="M110.13,87.29a6.76,6.76,0,0,1,5.4-.54c.24.58-.07.77-.46.79-1.15,0-2.3.06-3.45,0A8.68,8.68,0,0,1,110.13,87.29Z" style="fill:#fff"/><path d="M43.63,95.67l4.56.86A5.12,5.12,0,0,1,43.63,95.67Z" style="fill:#fff"/><path d="M41.66,86.81c.08-.8.14-1.41.21-2.15l1.81,1.54Z" style="fill:#fff"/><path d="M125.2,97.33c-.24.61-.78.73-1.34.8-.39.05-.8,0-1.19.05a15.61,15.61,0,0,0-2.32.46,3,3,0,0,1-1.92-.75,3.07,3.07,0,0,0-1.2-.43c-.63-.18-1.35-.12-1.88-.64.65-.68,1.33-.83,3.36-.89C122.44,95.82,123.8,96.12,125.2,97.33Z" style="fill:#fff"/><path d="M112.6,101.49a2.64,2.64,0,0,1,1.88-.68c.71,0,1.43,0,2.15-.07a5.77,5.77,0,0,0,2-.42l2.39.94v.29a4.75,4.75,0,0,1-1.23.5,21.06,21.06,0,0,1-6.9-.35A1.06,1.06,0,0,1,112.6,101.49Z" style="fill:#fff"/><path d="M76.86,63.25a24.75,24.75,0,0,0-2.73.28,16.83,16.83,0,0,1-5.25.15c-1.23-.14-2.45-.33-3.68-.49a4.14,4.14,0,0,1-2.79-1.47c-.43-.52-1-.94-1.41-1.47a6.82,6.82,0,0,1-1-7,10.2,10.2,0,0,1,4.32-4.83A14.28,14.28,0,0,1,66.92,47a19.32,19.32,0,0,1,4-1.21,39.07,39.07,0,0,1,5.72-.49,29.29,29.29,0,0,1,4,.42,37.62,37.62,0,0,1,6.58,1.24c2.83.89,5.72,3.86,4.31,8a8.27,8.27,0,0,1-1.79,2.93,12.76,12.76,0,0,1-6.9,4.07c-1.17.24-2.26.79-3.41,1.11a24.65,24.65,0,0,1-2.57.45ZM75.48,47.36c-.52,0-1,0-1.56,0a26.65,26.65,0,0,0-4.55.94A13.65,13.65,0,0,0,63,52.14a5.11,5.11,0,0,0,.2,7.48,4.36,4.36,0,0,1,.67.69,2.49,2.49,0,0,0,1.75.92c1.31.16,2.62.36,3.93.48a14.88,14.88,0,0,0,4-.13c1.21-.19,2.46-.15,3.69-.24a7.56,7.56,0,0,0,1.65-.25c1.64-.48,3.28-1,4.9-1.55a10.27,10.27,0,0,0,5.33-4.24c1.88-2.93,0-5.67-2.57-6.45C83,47.76,79.21,47.62,75.48,47.36Z"/><path d="M81.24,43.85A1.19,1.19,0,0,1,80,45a1.14,1.14,0,1,1,.08-2.27A1.11,1.11,0,0,1,81.24,43.85Z"/><path d="M66.51,46.46a1,1,0,0,1-1.07-1,1,1,0,0,1,1-1,1,1,0,1,1,.09,2Z"/><path d="M75.48,47.36c3.73.26,7.5.4,11.12,1.49,2.56.78,4.45,3.52,2.57,6.45a10.27,10.27,0,0,1-5.33,4.24c-1.62.57-3.26,1.07-4.9,1.55a7.56,7.56,0,0,1-1.65.25c-1.23.09-2.48,0-3.69.24a14.88,14.88,0,0,1-4,.13c-1.31-.12-2.62-.32-3.93-.48a2.49,2.49,0,0,1-1.75-.92,4.36,4.36,0,0,0-.67-.69,5.11,5.11,0,0,1-.2-7.48,13.65,13.65,0,0,1,6.37-3.84,26.65,26.65,0,0,1,4.55-.94C74.44,47.31,75,47.36,75.48,47.36Zm6.39,8c-.11-.49-.21-1.21-.42-1.89a1,1,0,0,0-1.28-.79c-.47.13-.7.55-.62,1.26a16.83,16.83,0,0,0,.35,1.88c.18.73.6,1,1.17.93S81.86,56.24,81.87,55.35ZM70.46,54.1A17.5,17.5,0,0,0,71,55.81a.85.85,0,0,0,1,.43.78.78,0,0,0,.68-.84A20.7,20.7,0,0,0,72.48,53a.8.8,0,0,0-.84-.7.88.88,0,0,0-.92.61C70.61,53.28,70.56,53.64,70.46,54.1Z" style="fill:#fff"/><path d="M81.87,55.35c0,.89-.29,1.29-.8,1.39s-1-.2-1.17-.93a16.83,16.83,0,0,1-.35-1.88c-.08-.71.15-1.13.62-1.26a1,1,0,0,1,1.28.79C81.66,54.14,81.76,54.86,81.87,55.35Z"/><path d="M70.46,54.1c.1-.46.15-.82.26-1.15a.88.88,0,0,1,.92-.61.8.8,0,0,1,.84.7,20.7,20.7,0,0,1,.22,2.36.78.78,0,0,1-.68.84.85.85,0,0,1-1-.43A17.5,17.5,0,0,1,70.46,54.1Z"/></g></svg>