<svg id="Calque_1" data-name="Calque 1" xmlns="http://www.w3.org/2000/svg" viewBox="0 0 296.57 52.16"><title>OA Logotype Final</title><path d="M45.72,21.69c-1-5.33-5.79-10.4-9-13.8S29.84,4,25,2.88a25.17,25.17,0,0,0-8.22-.72,43.73,43.73,0,0,1-4.92,1.26C6.28,4.79,2,15.92,2,15.92A52.54,52.54,0,0,0,.15,25.17a16.79,16.79,0,0,0,.3,6.16C2,37.44,6.61,41.4,9.92,44.21c4,3.43,15.32,4.92,15.89,4.94S38.47,47.69,43.2,38.61,46.75,27,45.72,21.69Zm-11.8,6.89c-.84,3-2.8,10.23-9.9,10.55s-10.19-3.4-10.19-3.4-5.61-4.85-5-11.31,1.54-8.34,4-10a17.2,17.2,0,0,1,3-1.84l2.09-.94a4.39,4.39,0,0,1,3-.25,39.54,39.54,0,0,1,7.38,2.51c2.3,1.12,4.48,1.84,5.21,5.26S34.76,25.61,33.92,28.58Z"/><path d="M16.81,2.16h0Z"/><path d="M182.1,44.36c-.62-1.69-5.45-15.36-5.45-15.36s-3.74-10.62-5.23-13.59c-1.63-3.23-4.62-10.83-4.62-10.83S155.43,4,153.56,4.29l-5.91,16.09s-4.32,12.39-5.2,15.31S140.7,42,140.7,42l5.06,3.93a11.12,11.12,0,0,0,2.66,1.36s4.27-11.55,6.74-15.25c0,0,7.76-.57,8.67-.88,0,0,1.33.76,2.53,5.52s5.16,11.6,5.16,11.6l11.65-1.82A5.7,5.7,0,0,1,182.1,44.36ZM156.81,23a50.12,50.12,0,0,1,3.1-10.5s.94,1.74,2.5,8.7Z"/><path d="M51.48,44s-.08-32.26.81-36.69a19.1,19.1,0,0,0,4.35-.88c1.73-.67,6.94-.64,6.94-.64s5.15,9,6.44,12.91,6.22,9.89,6.22,9.89.38-10.71.76-13.33S78.6,4.33,78.6,4.33a21.15,21.15,0,0,1,5.76.86c1.89.78,5.43,2.13,5.43,2.13a60.56,60.56,0,0,1-1,16.57C87,33.32,84,45.67,84,45.67L72.82,47.45l-5.88-15s-5.45-12.19-5.37-12.77.09-.48-.08.58.71,10.67,1.11,14.17S64,45.92,64,45.92l-4.32.47a9.51,9.51,0,0,1-3.38-.54C54.35,45.2,51.48,44,51.48,44Z"/><path d="M96,8.17s-2.79,11.39-1.28,39c0,0,1.53-.21,2.63-.26l10.22-.38s6.26-.12,7.53-.3,3-.43,3.92-.46l1.58,0,.29-8.82a59.79,59.79,0,0,0-8.62.53,33.35,33.35,0,0,1-8.67.44l-.1-6.32,7.24-1.34L110.45,22l-6.77.05.37-6.57s2.84-.29,4.59-.65a22.47,22.47,0,0,1,5.7-1c2.41,0,6-1.64,6-1.64S119.14,4.89,119.23,4c0,0-7.14.5-8.76.9S98,7.92,96,8.17Z"/><path d="M208.23,10.87c-3.89-4-11.14-4.76-11.29-4.78a15.86,15.86,0,0,0-4.74,0c-1.89.42-5.95,1-5.95,1-2.26,17.51-.19,38.45-.19,38.45,4.06,1.23,10,.38,10,.38l-.16-12.24c1,3.44,6.5,11.69,6.5,11.69a37.23,37.23,0,0,0,5.06-.94c2-.5,5.49-1.18,5.49-1.18L203.45,29.8C220.56,30.21,212.11,14.84,208.23,10.87ZM200.9,21.25c-.64,1.19-1.92,5.28-6.33,1.54l-.08-7.49s1.18-.38,3.9,1.78S201.53,20.06,200.9,21.25Z"/><path d="M217,46.28s.52-19,1-25.81.83-11.87.83-11.87l9.92-.31,12.79,19.26s2.82-14.88,5.73-20.27l10.06-1.83s2.35,14.13,2.8,18.63,2.49,22.08,2.49,22.08-6.36-.53-9.5.63c0,0-1.74-8.78-2.24-13.83a41.23,41.23,0,0,0-.8-6L245.6,37.17s-2.51,1.36-8.3,2c0,0-3.6-6-4.4-6.75s-4-7.62-4-7.62l-1.36,22.5Z"/><path d="M264.1,6.41l7.39-3.36,6.66,13.26,7-16.31,11.46.93a93.49,93.49,0,0,1-3.76,12.26c-1.9,4.37-3.62,10.63-5.94,15.32S280.79,40.18,278.71,45s-3,7.16-3,7.16l-8-3.42s4.53-17.27,7.62-22.66Z"/></svg>