<?xml version="1.0" encoding="UTF-8"?>
<svg width="64px" height="63px" viewBox="0 0 64 63" version="1.1" xmlns="http://www.w3.org/2000/svg" xmlns:xlink="http://www.w3.org/1999/xlink">
    <!-- Generator: Sketch 46.2 (44496) - http://www.bohemiancoding.com/sketch -->
    <title>OA Logo Black Background</title>
    <desc>Created with Sketch.</desc>
    <defs></defs>
    <g id="Page-1" stroke="none" stroke-width="1" fill="none" fill-rule="evenodd">
        <g id="OA-Logo-Black-Background" fill-rule="nonzero">
            <path d="M14.1,30.07 C12.57,29.28 5.5,26.31 0,22.29 C1.81,18.91 3.1,16.73 5,13.18 C7.72,14.33 6.9,13.73 9.56,14.89 C10.41,15.26 19.62,19.41 23.38,21.09 C25.73,22.15 28.04,23.29 30.38,24.42 L43,30.53 L51.06,34.45 C55.06,36.45 58.3,37.98 62.32,39.92 C62.86,40.18 58.65,49.31 58.65,49.31 C56.97,48.75 54.73,47.54 53.12,46.83 C48.45,44.77 44.12,42.91 39.42,40.83 C35.42,39.07 32.71,37.92 28.65,36.32 C25,34.89 17.14,31.65 14.1,30.07 Z" id="Shape" fill="#20B7EB"></path>
            <path d="M12.15,54.91 C11.3741383,55.5220601 10.5478547,56.0673404 9.68,56.54 C9.23478792,56.068699 8.81422718,55.574707 8.42,55.06 C8.13,53.9 6.16,50.12 5.74,48.89 C5.61,48.48 5.04,46.68 4.93,46.26 C4.93,46.26 9.93,42.9 13.11,40.32 C16.29,37.74 19.28,35.32 22.41,32.86 C23.77,31.79 26.3,30.36 27.71,29.38 C30.19,27.66 40.71,20.31 43.27,18.83 C48.7097725,15.5280123 54.3246913,12.5235967 60.09,9.83 C61.78,13.32 61.92,12.83 63.9,16.73 C63.9,16.73 46.12,30.22 41.25,33.87 C37.4766667,36.71 33.7,39.54 29.92,42.36 C28.21,43.62 26.46,44.8 24.73,46.02" id="Shape" fill="#E9475A"></path>
            <path d="M20.75,2.88 L20.55,2.07 C25,1.77679052e-15 31.21,-0.26 31.37,0.19 C31.77,1.31 32.27,2.41 32.62,3.55 C33.98,7.91 35.28,12.29 36.62,16.65 C37.06,18.07 39.38,26.65 39.47,27.15 C40.02,29.95 40.64,32.73 41.12,35.54 C41.91,40.21 42.53,44.15 43.45,48.81 C44.07,51.95 44.77,55.12 45.75,60.09 C45.75,60.09 39.96,61.45 38.28,61.9 C37.53,62.1 36.77,62.27 35.88,62.49 C35.62,61.42 35.65,61.32 35.43,60.38 C34.56,56.72 33.67,53.06 32.82,49.38 C31.33,42.96 29.82,36.53 28.39,30.1 C27.2175639,24.7305183 25.7520375,19.4292519 24,14.22 C23,11.1 22.23,7.88 21.34,4.7 C21.08,3.8 21,3.78 20.75,2.88 Z" id="Shape" fill="#FECE4E"></path>
        </g>
    </g>
</svg>