<svg width="22" height="16" viewBox="0 0 22 16" fill="none" xmlns="http://www.w3.org/2000/svg">
<g clip-path="url(#clip0_79_1334)">
<path d="M21.5212 2.6434C21.2688 1.67822 20.7156 0.861279 19.7676 0.604338C18.0497 0.136574 11 0.09375 11 0.09375C11 0.09375 3.95029 0.136574 2.23235 0.604338C1.28441 0.861279 0.734412 1.67822 0.478824 2.6434C0.0194118 4.39257 0 7.99963 0 7.99963C0 7.99963 0.0194118 11.6067 0.478824 13.3559C0.731176 14.321 1.28441 15.138 2.23235 15.3949C3.95029 15.8627 11 15.9055 11 15.9055C11 15.9055 18.0497 15.8627 19.7676 15.3949C20.7156 15.138 21.2688 14.321 21.5212 13.3559C21.9806 11.6067 22 7.99963 22 7.99963C22 7.99963 21.9806 4.39257 21.5212 2.6434Z" fill="#FF0000"/>
<path d="M14.5589 8.00017L8.73535 4.70605V11.2943" fill="white"/>
</g>
<defs>
<clipPath id="clip0_79_1334">
<rect width="22" height="16" fill="white"/>
</clipPath>
</defs>
</svg>
