<svg width="1438" height="70" viewBox="0 0 1438 70" fill="none" xmlns="http://www.w3.org/2000/svg">
<path fill-rule="evenodd" clip-rule="evenodd" d="M-2 11.2L24.4 8.4C50.8 5.6 104.8 0 157.6 0C211.6 0 264.4 5.6 318.4 16.8C371.2 28 425.2 44.8 478 47.6C530.8 50.4 584.8 39.2 637.6 30.8C691.6 22.4 744.4 16.8 798.4 15.4C851.2 14 905.2 16.8 958 14C1010.8 11.2 1064.8 2.8 1117.6 8.4C1171.6 14 1224.4 33.6 1278.4 35C1331.2 36.4 1385.2 19.6 1411.6 11.2L1438 2.8V70H1411.6C1385.2 70 1331.2 70 1278.4 70C1224.4 70 1171.6 70 1117.6 70C1064.8 70 1010.8 70 958 70C905.2 70 851.2 70 798.4 70C744.4 70 691.6 70 637.6 70C584.8 70 530.8 70 478 70C425.2 70 371.2 70 318.4 70C264.4 70 211.6 70 157.6 70C104.8 70 50.8 70 24.4 70H-2V11.2Z" fill="#FDDE8C"/>
</svg>
