<svg width="1438" height="70" viewBox="0 0 1438 70" fill="none" xmlns="http://www.w3.org/2000/svg">
<path fill-rule="evenodd" clip-rule="evenodd" d="M-2 70L58 59.7917C118 49.5833 238 29.1667 358 27.7083C478 26.25 598 43.75 718 48.125C838 52.5 958 43.75 1078 43.75C1198 43.75 1318 52.5 1378 56.875L1438 61.25V9.53674e-07H1378C1318 9.53674e-07 1198 9.53674e-07 1078 9.53674e-07C958 9.53674e-07 838 9.53674e-07 718 9.53674e-07C598 9.53674e-07 478 9.53674e-07 358 9.53674e-07C238 9.53674e-07 118 9.53674e-07 58 9.53674e-07H-2V70Z" fill="#CDCFD5"/>
</svg>
