<?xml version="1.0" encoding="utf-8"?>
<!-- Generator: Adobe Illustrator 24.0.1, SVG Export Plug-In . SVG Version: 6.00 Build 0)  -->
<svg version="1.1" xmlns="http://www.w3.org/2000/svg" xmlns:xlink="http://www.w3.org/1999/xlink" x="0px" y="0px"
	 viewBox="0 0 156.8 136.3" style="enable-background:new 0 0 156.8 136.3;" xml:space="preserve">
<style type="text/css">
	.st0{fill:#B7D6E2;}
	.st1{fill:#DDDDDD;}
	.st2{fill:#FFFFFF;}
</style>
<g id="Calque_2">
	<g>
		<path class="st0" d="M98.4,32C97.8,19.1,85.3,8.1,72.5,9c-6.8,0.5-13,3.8-18.5,7.8c-10.9,8-19.5,19-24.6,31.5
			c-3,7.3-4.7,15.8-1.3,22.9c3.1,6.4,9.7,10.3,16,13.7c8,4.4,16,8.9,24,13.3c7.7,4.3,15.5,8.6,21.4,15.1c3.7,4.1,7.2,9.4,12.7,10.2
			c6.4,0.9,12-5,14.1-11.1c4.4-13-1.1-27.2-7.1-39.6c-6-12.4-12.7-25.6-10.6-39.3"/>
	</g>
</g>
<g id="Calque_1">
	<g>
		<path d="M61.3,28.5c0-1.5,0.1-2.9,0-4.3c-0.1-1.1,0.4-1.7,1.5-1.7c4.9-0.4,9.8-0.9,14.7-1c3.5-0.1,7.1,0.2,10.7,0.2
			c6,0,12.1-0.1,18.1-0.2c1.1,0,2.2,0,3.4,0c2.8,0.1,3.5,0.5,4,3.3c0.7,4,1.5,8,1.7,12c0.3,7,0.6,14,1.5,21c1,7.5,1.1,15.1,1,22.8
			c0,1.3,0.1,2.6,0.1,3.9c0,1.1-0.3,2.1-1.4,2.4c-1.3,0.4-2.7,0.7-4.1,0.8c-3.9,0.4-7.9,0.7-12,1.1c0.3,2.8,0.5,5.5,0.9,8.2
			c0.4,2.7,0.9,5.4,1.4,8.1c0.4,2.4-0.3,3.3-2.8,3.4c-2.1,0.1-4.3,0.5-6.4,0.6c-6.8,0.3-13.6,0-20.4-1.6c-6.9-1.6-13.9-2.9-20.9-4.3
			c-1.2-0.2-2.5-0.3-3.7-0.3c-1,0-1.6-0.4-1.8-1.4c-0.2-1.2-0.5-2.4-0.5-3.5c-0.1-8.2-0.3-16.3-0.3-24.5c0-12.3,0.2-24.6,0.2-36.9
			c0-1.4-0.2-2.8-0.2-4.2c0-1.6,0.6-2.1,2.2-2.3C52.6,29.6,56.8,29,61.3,28.5z M48.2,32.2c0.1,1.3,0.2,2.4,0.2,3.6
			c-0.1,13.4-0.2,26.7-0.3,40.1c0,7.4,0.2,14.7,0.3,22.1c0,0.6,0,1.3,0.2,1.9c0.1,0.3,0.6,0.8,0.9,0.8c2.5,0.4,5.1,0.6,7.6,1.1
			c4.1,0.9,8.2,2.1,12.4,2.9c5.8,1.1,11.6,2.4,17.7,2.4c4.5,0,9-0.2,13.5-1c-0.4-2.2-1-4.4-1.2-6.6c-0.6-6.3-1.1-12.6-1.7-18.9
			c-0.2-1.8-0.4-3.7-0.5-5.5c-0.3-5.7-0.5-11.4-0.7-17.1c-0.2-6.6-0.3-13.1-0.5-19.7c-0.1-2.4-0.4-4.8-0.6-7.3
			C79.7,30.7,64,29.7,48.2,32.2z M108.4,58.8c0-0.8-0.1-1.5,0-2.1c0.1-0.4,0.5-1,0.9-1.1c0.3,0,1,0.4,1.1,0.8
			c0.2,0.7,0.2,1.5,0.3,2.2c0.1,1.3-0.3,1.9-1.6,2.1c-1.2,0.2-2.5,0.1-3.7,0.1c-2.1,0-4.1,0-6.2,0c0,0.9,0,1.7,0,2.5
			c0,0.7,0.3,1,1,1c1,0,1.9,0.1,2.9,0.2c1,0,1.6,0.5,1.7,1.5c0.2,1.3,0.3,2.7,0.4,4.1c0.1,1.3-0.4,1.8-1.8,1.8c-1.2,0-2.4,0-3.6,0
			c-0.4,2.1-0.4,2.2,1.8,2.2c3.2,0.1,6.4,0.1,9.6,0.2c1.8,0,2.4,0.5,2.6,2.4c0.1,2,0.2,3.9,0.2,5.9c0,1.6-0.5,2-2.1,2
			c-2.2,0-4.4,0-6.6,0c-1.5,0-3.1,0-4.7,0c0,0.7,0,1.2,0,1.7c2.4-0.2,4.6-0.3,6.9-0.5c2.3-0.2,4.7-0.5,7-0.7
			c0.6-0.1,1.2-0.2,1.2-1.1c0.1-9.5,0-19-1.2-28.4c-0.6-5.1-1-10.2-1.2-15.4c-0.2-5-1.2-10.1-1.7-15.1c-0.1-1.3-0.9-1.7-2-1.6
			c-0.4,0-0.9,0-1.3,0c-4.3,0.1-8.6,0.2-12.8,0.2c-3.3,0-6.6,0.1-9.8,0c-6.6-0.4-13.2-0.2-19.8,0.4c-2.4,0.2-2.4,0.3-2.5,2.7
			c-0.1,1.6-0.1,1.6,1.5,1.6c0.6,0,1.1,0,1.7,0c9.6,0.1,19.1,0.2,28.7,0.4c2,0,2.1,0.2,2.4,2.2c0.1,0.7,0.4,1,1.2,1
			c2.9-0.1,5.8,0,8.6-0.1c1.2,0,1.9,0.4,2,1.6c0.2,1.3,0.4,2.7,0.4,4c0,4.8,0,9.5,0,14.3c0,1.7-0.2,2-1.9,2.1c-2.5,0-5,0-7.4,0.1
			c-2.2,0.2-2.1,0.3-1.8,2.5c0,0.3,0.1,0.6,0.1,0.8c-0.1,1.1,0.5,1.3,1.5,1.3c2,0,3.9,0.1,5.9,0.2C106.9,58.8,107.6,58.8,108.4,58.8
			z M98.4,34.1c0,6.1,0,12,0,17.7c3.2,0,6.2,0,9.3,0c0-5.6,0-11,0-16.4c0-0.2,0-0.5-0.1-0.7c-0.2-0.3-0.4-0.6-0.7-0.6
			C104,34.1,101.1,34.1,98.4,34.1z M111.7,80.4c-2.1,0.1-4.2,0.3-6.2,0.4c0,0.6,0,1.1,0,1.7c2.1,0,4.1,0,6.2,0
			C111.7,81.7,111.7,81.2,111.7,80.4z M112,78.2c-0.5-0.7-0.7-1.6-1.1-1.6c-1.9-0.1-3.8-0.1-5.8-0.1c0.1,0.7,0.1,1.3,0.2,2.1
			C107.5,78.5,109.5,78.3,112,78.2z M99.2,66.5c0.1,1.2,0.2,2.2,0.3,3.2c1.2,0,2.2,0,3.4,0c-0.1-1-0.3-2-0.4-2.9
			C101.4,66.7,100.4,66.6,99.2,66.5z M102.9,76.4c-1.1,0-2.1,0-3.2,0c0.1,0.8,0.2,1.6,0.2,2.2c1.2,0,2.1,0,3.2,0
			C103.1,77.8,103,77.1,102.9,76.4z M103.2,82.5c0.1-0.1,0.2-0.2,0.4-0.3c-0.3-0.5-0.4-1.3-0.8-1.4c-0.8-0.2-1.7-0.1-2.7-0.1
			c0.1,0.7,0.1,1.2,0.2,1.7C101.3,82.5,102.3,82.5,103.2,82.5z"/>
		<path class="st2" d="M48.2,32.2C64,29.7,79.7,30.7,95.6,31c0.2,2.5,0.5,4.9,0.6,7.3c0.2,6.6,0.3,13.1,0.5,19.7
			c0.2,5.7,0.4,11.4,0.7,17.1c0.1,1.8,0.3,3.7,0.5,5.5c0.6,6.3,1,12.6,1.7,18.9c0.2,2.2,0.8,4.4,1.2,6.6c-4.5,0.8-9,1-13.5,1
			c-6,0-11.8-1.3-17.7-2.4c-4.1-0.8-8.2-2-12.4-2.9c-2.5-0.5-5.1-0.7-7.6-1.1c-0.4-0.1-0.8-0.5-0.9-0.8c-0.2-0.6-0.2-1.3-0.2-1.9
			c-0.1-7.4-0.3-14.7-0.3-22.1c0-13.4,0.2-26.7,0.3-40.1C48.5,34.7,48.3,33.5,48.2,32.2z M96.6,99C96.7,99,96.7,99,96.6,99
			c-0.1-1.6-0.3-3.1-0.5-4.6c-0.2-1.6-0.8-1.9-2.4-1.7c-1.1,0.2-2.1,0.4-3.2,0.3c-1.9,0-3.8-0.2-5.7-0.4c-4.7-0.4-9.3-0.9-14-1.3
			c-4.2-0.4-8.4-0.7-12.5-1.1c-2-0.2-4-0.2-6-0.3c-0.8,0-1.4,0.2-1.5,1c-0.2,2.2-0.4,4.5-0.5,6.7c-0.1,1.3,0.5,1.9,1.9,1.9
			c0.6,0,1.1-0.1,1.7-0.1c1.1,0,2.3-0.2,3.3,0c1.8,0.4,3.6,0.9,5.3,1.5c5,1.9,10.1,2.5,15.4,2.5c1.6,0,3.1,0.2,4.7,0.2
			c3.7,0.1,7.3,0.2,11,0.1c2.4,0,3.2-1.1,3.2-3.5C96.7,99.9,96.7,99.4,96.6,99z M74.3,84.6c0-0.1,0-0.1,0-0.2c0.3,0,0.6,0,1,0
			c2.5-0.1,5-0.1,7.5-0.3c2.1-0.2,3.1-1.5,3-3.6c-0.1-2.1-1.3-3.5-3.1-4.1c-2.2-0.7-4.5-1.2-6.7-1.4c-3-0.3-6-0.2-9-0.2
			c-2.1,0-4.1,0.1-6.2,0.2c-1,0-2,0-3.1,0c-1.5,0-3-0.4-4.4,0.6c-1.7,1.3-2.1,3-1.9,5c0.2,1.8,1.7,2.3,3.2,2.6
			c0.7,0.1,1.3,0.3,2,0.4C62.5,83.9,68.4,84.2,74.3,84.6z M68.2,46.1c0,0-0.1,0-0.1,0c0.1-2,0.2-3.9,0.3-5.9c0-1.4-0.4-1.9-1.7-1.8
			c-3.5,0.2-7,0.5-10.5,0.8c-1.7,0.2-2.2,1.1-1.9,2.7c0.8,4.3,1.7,8.5,2.5,12.8c0.4,1.9,0.8,2.3,2.7,2.3c2,0.1,4,0.1,6,0.1
			c1.6,0,2-0.3,2.1-1.8C67.7,52.3,67.9,49.2,68.2,46.1z M64.4,62.7c-2.7,0.3-4.9,0.5-7,0.8c-0.4,0.1-1,0.6-1.1,1
			c-0.2,1.2-0.2,2.5-0.2,3.7c0,1,0.5,1.7,1.4,1.8c2.3,0.3,4.7,0.7,7,0.7c4,0,8-0.4,12.1-0.6c1.1,0,1.7-0.5,1.7-1.6
			c0-1.2,0-2.4-0.1-3.6c-0.1-1.8-0.6-2.3-2.4-2.3C71.8,62.7,67.8,62.7,64.4,62.7z M74.2,55c-0.3,0.1-0.7,0.1-0.9,0.3
			c-0.3,0.3-0.3,0.8-0.5,1.3c0.9,0.2,1.8,0.7,2.8,0.7c0.9,0,1.1-0.8,1.1-1.6c-0.1-4.9-0.3-9.8-0.4-14.7C76.2,39,75,38,73.1,38
			c-0.7,0-1.6,0.1-1.5,1.1c0,0.9,0.7,1.1,1.5,1c0.9,0,1.1,0.4,1.1,1.3c0,1.2,0.1,2.5,0.1,3.7C74.2,48.4,74.2,51.7,74.2,55z
			 M86.2,43.8C86.2,43.9,86.2,43.9,86.2,43.8c0.8,0.1,1.7,0.1,2.5,0.1c1,0,1.6-0.5,1.6-1.5c0-1,0.1-2.1,0-3.1c0-1.2-0.6-1.8-1.8-1.8
			c-1.7-0.1-3.3-0.2-5-0.2c-1.3,0-2.1,0.8-2.1,2.1c0,0.8,0,1.6,0,2.4c0,1.4,0.5,1.9,1.9,2C84.3,43.9,85.3,43.8,86.2,43.8z
			 M90.6,76.6c0.1,0.9,0.1,1.7,0.1,2.5c0,0.6,0,1.3,0,1.9c0,0.7,0,1.3-1,1.4c-0.3,0-0.7,0.6-0.8,0.9c-0.1,0.2,0.2,0.7,0.4,0.9
			c1.4,0.9,3.4,0,3.4-1.7c0-2.1,0-4.2-0.1-6.3c0-0.4-0.4-1.2-0.7-1.3c-1.1-0.2-2.2-0.3-3.2-0.3c-0.3,0-0.7,0.7-0.7,1
			c0,0.3,0.5,0.7,0.8,0.8C89.4,76.7,90,76.6,90.6,76.6z M83.8,47.7c-0.1-0.3-0.2-0.6-0.4-0.8c-0.5-0.6-1.3-0.6-1.7,0.1
			c-0.6,1.1,0,2.7,1.2,2.8c2,0.3,4,0.4,5.9,0.5c0.4,0,1.2-0.5,1.3-0.9c0.1-0.8-0.1-1.6-0.4-2.4c0-0.1-1.2,0-1.3,0.2
			c-0.4,1.2-1.2,0.9-2,0.8C85.7,48,84.9,47.9,83.8,47.7z M82.1,64c-0.1,1.5,0.5,3-0.5,4.4c-0.5,0.7,0.2,1.7,1.1,1.4
			c0.6-0.2,1.5-0.9,1.5-1.4c0.1-1.7,0.1-3.4-0.1-5.1c-0.1-1.2-1.7-1.9-2.8-1.5c-0.3,0.1-0.7,0.5-0.7,0.8c0,0.3,0.3,0.8,0.5,1.1
			C81.3,63.9,81.6,63.9,82.1,64z"/>
		<path class="st2" d="M108.4,58.8c-0.8,0-1.5,0-2.3,0c-2-0.1-3.9-0.2-5.9-0.2c-1,0-1.5-0.2-1.5-1.3c0-0.3-0.1-0.6-0.1-0.8
			c-0.3-2.2-0.3-2.3,1.8-2.5c2.5-0.2,4.9-0.1,7.4-0.1c1.7,0,1.9-0.3,1.9-2.1c0-4.8,0-9.5,0-14.3c0-1.3-0.2-2.7-0.4-4
			c-0.2-1.1-0.9-1.6-2-1.6c-2.9,0.1-5.8,0-8.6,0.1c-0.8,0-1-0.2-1.2-1c-0.4-2-0.5-2.1-2.4-2.2c-9.6-0.2-19.1-0.3-28.7-0.4
			c-0.6,0-1.1,0-1.7,0c-1.6,0-1.6,0-1.5-1.6c0.1-2.4,0.1-2.5,2.5-2.7c6.6-0.6,13.2-0.8,19.8-0.4c3.3,0.2,6.6,0.1,9.8,0
			c4.3,0,8.6-0.1,12.8-0.2c0.4,0,0.9,0,1.3,0c1.1,0,1.9,0.4,2,1.6c0.6,5,1.5,10.1,1.7,15.1c0.2,5.2,0.5,10.3,1.2,15.4
			c1.2,9.4,1.3,18.9,1.2,28.4c0,0.9-0.6,1-1.2,1.1c-2.3,0.3-4.7,0.5-7,0.7c-2.3,0.2-4.5,0.3-6.9,0.5c0-0.6,0-1.1,0-1.7
			c1.6,0,3.1,0,4.7,0c2.2,0,4.4,0,6.6,0c1.6,0,2.1-0.4,2.1-2c0-2-0.1-3.9-0.2-5.9c-0.1-1.9-0.7-2.4-2.6-2.4
			c-3.2-0.1-6.4-0.2-9.6-0.2c-2.1,0-2.2-0.1-1.8-2.2c1.2,0,2.4,0,3.6,0c1.4,0,1.8-0.5,1.8-1.8c-0.1-1.4-0.2-2.7-0.4-4.1
			c-0.1-1-0.7-1.4-1.7-1.5c-1,0-1.9-0.1-2.9-0.2c-0.7,0-1-0.3-1-1c0-0.8,0-1.7,0-2.5c2.1,0,4.2,0,6.2,0c1.2,0,2.5,0.1,3.7-0.1
			c1.3-0.2,1.7-0.8,1.6-2.1c0-0.8,0-1.5-0.3-2.2c-0.1-0.4-0.7-0.8-1.1-0.8c-0.3,0-0.8,0.6-0.9,1.1C108.3,57.3,108.4,58,108.4,58.8z
			 M112,70.3c0,0,0.1,0,0.1,0c-0.2-1.3-0.4-2.6-0.6-3.9c-0.2-2.3-1.7-2.8-4-2.5c-0.4,0.1-0.7,0.7-1,1.1c0.4,0.3,0.8,1,1.1,0.9
			c1.7-0.3,1.9,0.7,2,2c0.1,0.6,0.2,1.2,0.2,1.8c0,0.4-0.3,0.9-0.6,1.2c-0.6,0.6-0.8,1.3-0.1,1.7c0.5,0.3,1.4,0.4,2,0.2
			c0.4-0.1,0.6-0.9,0.8-1.4C112.1,71,112,70.6,112,70.3z"/>
		<path class="st2" d="M98.4,34.1c2.7,0,5.6,0,8.4,0c0.2,0,0.5,0.4,0.7,0.6c0.1,0.2,0.1,0.5,0.1,0.7c0,5.4,0,10.8,0,16.4
			c-3.1,0-6,0-9.3,0C98.4,46.1,98.4,40.2,98.4,34.1z"/>
		<path class="st2" d="M111.7,80.4c0,0.8,0,1.4,0,2.1c-2.1,0-4.1,0-6.2,0c0-0.5,0-1,0-1.7C107.6,80.6,109.6,80.5,111.7,80.4z"/>
		<path class="st2" d="M112,78.2c-2.5,0.2-4.5,0.3-6.6,0.4c-0.1-0.7-0.1-1.4-0.2-2.1c2,0,3.9-0.1,5.8,0.1
			C111.3,76.6,111.5,77.5,112,78.2z"/>
		<path class="st2" d="M99.2,66.5c1.2,0.1,2.2,0.2,3.3,0.3c0.1,0.9,0.2,1.9,0.4,2.9c-1.2,0-2.2,0-3.4,0
			C99.5,68.6,99.4,67.7,99.2,66.5z"/>
		<path class="st2" d="M102.9,76.4c0.1,0.7,0.2,1.4,0.3,2.2c-1.1,0-2.1,0-3.2,0c-0.1-0.7-0.1-1.4-0.2-2.2
			C100.8,76.4,101.8,76.4,102.9,76.4z"/>
		<path class="st2" d="M103.2,82.5c-0.9,0-1.9,0-2.9,0c-0.1-0.5-0.1-1-0.2-1.7c1,0,1.9-0.1,2.7,0.1c0.4,0.1,0.5,0.9,0.8,1.4
			C103.4,82.3,103.3,82.4,103.2,82.5z"/>
		<path d="M96.6,99c0,0.4,0.1,0.9,0.1,1.3c0.1,2.4-0.7,3.5-3.2,3.5c-3.7,0.1-7.3-0.1-11-0.1c-1.6,0-3.1-0.2-4.7-0.2
			c-5.3,0-10.4-0.5-15.4-2.5c-1.7-0.7-3.5-1.2-5.3-1.5c-1.1-0.2-2.2,0-3.3,0c-0.6,0-1.1,0.2-1.7,0.1c-1.4-0.1-1.9-0.6-1.9-1.9
			c0.1-2.2,0.3-4.5,0.5-6.7c0.1-0.8,0.7-1.1,1.5-1c2,0.1,4,0.1,6,0.3c4.2,0.3,8.4,0.7,12.5,1.1c4.7,0.4,9.3,0.9,14,1.3
			c1.9,0.2,3.8,0.3,5.7,0.4c1.1,0,2.1-0.2,3.2-0.3c1.6-0.3,2.2,0.1,2.4,1.7C96.4,95.9,96.5,97.5,96.6,99C96.7,99,96.7,99,96.6,99z
			 M65.7,93c-0.2,1.9-0.3,3.7-0.5,5.6c-0.1,0.9,0.2,1.3,1,1.5c2.3,0.4,4.6,0.9,6.9,1.2c1.4,0.2,2.7,0,4.2,0c0-2.4,0-4.8,0-7.3
			C73.5,93.6,69.6,93.3,65.7,93z M53.1,93.4c3.4,0.7,6.7,1.3,10.2,2c0.1-1,0.2-1.8,0.2-2.7c-3.3-0.2-6.3-0.4-9.4-0.6
			C53.1,92.1,52.8,92.5,53.1,93.4z M86.4,101.8c0-0.8,0.1-1.4,0-1.9c-0.1-0.3-0.4-0.7-0.7-0.7c-2.1-0.1-4.1,0-6.3,0
			c0,0.8,0,1.5,0,2.2C81.8,101.5,84,101.6,86.4,101.8z M86.4,95c-2.3-0.3-4.5-0.5-6.7-0.8c0,1,0,1.8,0,2.7c2.3,0,4.5,0,6.7,0
			C86.4,96.3,86.4,95.7,86.4,95z M88.3,95.1c0.3,0.9,0.4,2,0.8,2.1c1.5,0.4,3,0.6,4.6,0.7c0.2,0,0.7-0.4,0.7-0.7
			c0-0.8-0.2-1.5-0.2-2.1C92.1,95.1,90.4,95.1,88.3,95.1z M52.5,97.8c3.8-1.6,7,0.5,10.5,1c0-0.5,0-0.8,0-1.2
			c-3.4-0.7-6.8-1.3-10.3-2C52.6,96.3,52.6,96.8,52.5,97.8z M94.5,100.3c-2-0.3-3.9-0.5-5.8-0.7c0,0.7,0,1.4,0,2.1
			c1.6,0,3.1,0,4.6,0C94.3,101.7,94.8,101.3,94.5,100.3z"/>
		<path d="M74.3,84.6c-5.9-0.4-11.8-0.7-17.7-1.1c-0.7,0-1.3-0.2-2-0.4c-1.5-0.3-2.9-0.8-3.2-2.6c-0.2-2,0.2-3.7,1.9-5
			c1.4-1,2.9-0.6,4.4-0.6c1,0,2,0,3.1,0c2.1,0,4.1-0.2,6.2-0.2c3,0,6-0.1,9,0.2c2.3,0.2,4.6,0.7,6.7,1.4c1.8,0.6,3.1,2,3.1,4.1
			c0.1,2-1,3.4-3,3.6c-2.5,0.2-5,0.2-7.5,0.3c-0.3,0-0.6,0-1,0C74.3,84.4,74.3,84.5,74.3,84.6z M73.9,82.4c3.2-0.2,5.9-0.2,8.6-0.5
			c1.2-0.1,1.7-1.1,1.1-2.2c-0.3-0.6-0.9-1.2-1.4-1.4c-1.7-0.6-3.4-1.2-5.1-1.3C70.9,76.9,64.9,77,58.8,77c-1.1,0-2.2,0-3.3,0
			c-1.2,0.1-1.8,1-2,2.3c-0.1,1.2,0.6,1.5,1.6,1.7c0.6,0.1,1.2,0.3,1.8,0.3C62.7,81.7,68.5,82.1,73.9,82.4z"/>
		<path d="M68.2,46.1c-0.2,3.1-0.4,6.2-0.7,9.3c-0.1,1.5-0.5,1.8-2.1,1.8c-2,0-4,0-6-0.1c-1.9-0.1-2.3-0.5-2.7-2.3
			c-0.8-4.3-1.7-8.5-2.5-12.8c-0.3-1.6,0.3-2.6,1.9-2.7c3.5-0.4,7-0.6,10.5-0.8c1.3-0.1,1.8,0.5,1.7,1.8c-0.1,2-0.2,3.9-0.3,5.9
			C68.1,46.1,68.1,46.1,68.2,46.1z M56.3,41.3c0,0.4,0,0.7,0,0.9c0.8,4,1.6,8.1,2.4,12.1c0.1,0.3,0.6,0.6,1,0.7c1.5,0.1,3,0,4.4,0.1
			c1,0.1,1.2-0.4,1.3-1.2c0.1-3.1,0.3-6.2,0.5-9.3c0.1-1.3,0-2.6,0-4C62.8,40.8,59.6,41.1,56.3,41.3z"/>
		<path d="M64.4,62.7c3.4,0,7.4,0,11.4,0c1.8,0,2.3,0.5,2.4,2.3c0.1,1.2,0.1,2.4,0.1,3.6c0,1.1-0.6,1.5-1.7,1.6
			c-4,0.2-8,0.5-12.1,0.6c-2.3,0-4.7-0.4-7-0.7c-0.9-0.1-1.4-0.9-1.4-1.8c0-1.2,0-2.5,0.2-3.7c0.1-0.4,0.6-0.9,1.1-1
			C59.5,63.2,61.7,63,64.4,62.7z M58.4,65.3c-0.1,0.8-0.2,1.5-0.2,2.2c0,0.2,0.3,0.7,0.5,0.7c1.7,0.2,3.4,0.5,5.1,0.5
			c2.7,0,5.4-0.3,8.1-0.5c1.3-0.1,2.7-0.2,4-0.3c0-1,0-2,0-3.1C70.1,64.9,64.4,65.1,58.4,65.3z"/>
		<path d="M74.2,55c0-3.3,0-6.6,0-9.9c0-1.2-0.1-2.5-0.1-3.7c0-0.8-0.2-1.3-1.1-1.3c-0.7,0-1.5-0.2-1.5-1c0-1,0.8-1.1,1.5-1.1
			c2-0.1,3.1,1,3.2,2.9c0.1,4.9,0.3,9.8,0.4,14.7c0,0.8-0.2,1.6-1.1,1.6c-0.9,0-1.8-0.4-2.8-0.7c0.1-0.4,0.2-0.9,0.5-1.3
			C73.5,55,74,55.1,74.2,55z"/>
		<path d="M86.2,43.8c-0.9,0-1.8,0.1-2.7,0c-1.5-0.1-1.9-0.6-1.9-2c0-0.8,0-1.6,0-2.4c0-1.3,0.8-2.1,2.1-2.1c1.7,0,3.3,0.1,5,0.2
			c1.1,0.1,1.8,0.7,1.8,1.8c0,1,0,2.1,0,3.1c0,1-0.6,1.5-1.6,1.5C87.9,43.9,87,43.9,86.2,43.8C86.2,43.9,86.2,43.9,86.2,43.8z
			 M88.2,39.6c-1.5,0-2.9,0-4.4,0c0,0.7,0,1.4,0,2.1c1.5,0,2.9,0,4.4,0C88.2,41,88.2,40.4,88.2,39.6z"/>
		<path d="M90.6,76.6c-0.6,0-1.2,0-1.7-0.1c-0.4-0.1-0.8-0.5-0.8-0.8c0-0.4,0.4-1,0.7-1c1.1,0,2.2,0,3.2,0.3
			c0.3,0.1,0.7,0.8,0.7,1.3c0.1,2.1,0.2,4.2,0.1,6.3c0,1.7-2,2.6-3.4,1.7c-0.2-0.2-0.5-0.6-0.4-0.9c0.1-0.4,0.5-0.9,0.8-0.9
			c1-0.1,1-0.7,1-1.4c0-0.6,0-1.3,0-1.9C90.7,78.3,90.7,77.5,90.6,76.6z"/>
		<path d="M83.8,47.7c1,0.1,1.9,0.2,2.8,0.3c0.8,0.1,1.7,0.4,2-0.8c0.1-0.2,1.2-0.2,1.3-0.2c0.2,0.8,0.5,1.6,0.4,2.4
			c-0.1,0.4-0.8,0.9-1.3,0.9c-2-0.1-4-0.2-5.9-0.5c-1.2-0.2-1.8-1.7-1.2-2.8c0.4-0.7,1.2-0.7,1.7-0.1C83.6,47.2,83.7,47.5,83.8,47.7
			z"/>
		<path d="M82.1,64c-0.4-0.1-0.8-0.2-1-0.4c-0.3-0.3-0.6-0.7-0.5-1.1c0-0.3,0.4-0.7,0.7-0.8c1.1-0.4,2.7,0.4,2.8,1.5
			c0.2,1.7,0.3,3.4,0.1,5.1c0,0.5-0.9,1.2-1.5,1.4c-0.8,0.3-1.6-0.7-1.1-1.4C82.6,67,82,65.6,82.1,64z"/>
		<path d="M112,70.3c0,0.4,0.1,0.8,0,1.1c-0.2,0.5-0.4,1.3-0.8,1.4c-0.6,0.2-1.5,0.1-2-0.2c-0.7-0.4-0.5-1.1,0.1-1.7
			c0.3-0.3,0.6-0.8,0.6-1.2c0.1-0.6-0.1-1.2-0.2-1.8c-0.1-1.2-0.4-2.3-2-2c-0.3,0.1-0.8-0.6-1.1-0.9c0.3-0.4,0.7-1,1-1.1
			c2.4-0.4,3.8,0.2,4,2.5c0.1,1.3,0.4,2.6,0.6,3.9C112.1,70.2,112.1,70.2,112,70.3z"/>
		<path class="st2" d="M65.7,93c4,0.3,7.8,0.7,11.6,1c0,2.5,0,4.9,0,7.3c-1.5,0-2.9,0.1-4.2,0c-2.3-0.3-4.6-0.7-6.9-1.2
			c-0.7-0.1-1.1-0.6-1-1.5C65.4,96.7,65.5,94.8,65.7,93z M74.1,97.4c0.1-2-1.5-3.6-3.5-3.6c-1.3,0-2.5,1.4-2.6,2.9
			c-0.1,2.1,1.3,3.5,3.3,3.6C73,100.4,74,99.3,74.1,97.4z"/>
		<path class="st2" d="M53.1,93.4c-0.3-1,0-1.4,1-1.3c3.1,0.2,6.1,0.4,9.4,0.6c-0.1,0.8-0.1,1.6-0.2,2.7
			C59.8,94.7,56.4,94.1,53.1,93.4z"/>
		<path class="st2" d="M86.4,101.8c-2.4-0.2-4.7-0.3-7-0.5c0-0.7,0-1.4,0-2.2c2.1,0,4.2,0,6.3,0c0.2,0,0.6,0.4,0.7,0.7
			C86.5,100.5,86.4,101.1,86.4,101.8z"/>
		<path class="st2" d="M86.4,95c0,0.7,0,1.3,0,1.9c-2.2,0-4.4,0-6.7,0c0-0.9,0-1.7,0-2.7C81.8,94.5,84,94.7,86.4,95z"/>
		<path class="st2" d="M88.3,95.1c2.1,0,3.9,0,5.8,0c0.1,0.6,0.2,1.3,0.2,2.1c0,0.2-0.5,0.7-0.7,0.7c-1.5-0.2-3.1-0.3-4.6-0.7
			C88.7,97.1,88.6,96.1,88.3,95.1z"/>
		<path class="st2" d="M52.5,97.8c0.1-0.9,0.1-1.5,0.2-2.2c3.5,0.7,6.9,1.3,10.3,2c0,0.4,0,0.8,0,1.2C59.5,98.3,56.3,96.1,52.5,97.8
			z"/>
		<path class="st2" d="M94.5,100.3c0.3,1-0.2,1.4-1.2,1.4c-1.5,0-3,0-4.6,0c0-0.7,0-1.4,0-2.1C90.6,99.8,92.5,100.1,94.5,100.3z"/>
		<path class="st2" d="M73.9,82.4c-5.3-0.3-11.2-0.7-17.1-1c-0.6,0-1.2-0.2-1.8-0.3c-1-0.2-1.7-0.5-1.6-1.7c0.1-1.4,0.8-2.2,2-2.3
			c1.1-0.1,2.2,0,3.3,0c6.1,0,12.1,0,18.2,0.1c1.7,0,3.4,0.7,5.1,1.3c0.6,0.2,1.1,0.8,1.4,1.4c0.6,1.1,0.2,2.1-1.1,2.2
			C79.8,82.1,77.1,82.2,73.9,82.4z"/>
		<path class="st2" d="M56.3,41.3c3.2-0.3,6.4-0.5,9.6-0.8c0,1.4,0,2.7,0,4c-0.1,3.1-0.3,6.2-0.5,9.3c0,0.9-0.3,1.3-1.3,1.2
			c-1.5-0.1-3,0-4.4-0.1c-0.4,0-0.9-0.4-1-0.7c-0.9-4-1.6-8.1-2.4-12.1C56.3,42,56.3,41.7,56.3,41.3z"/>
		<path class="st2" d="M58.4,65.3c5.9-0.2,11.7-0.3,17.6-0.5c0,1.1,0,2.1,0,3.1c-1.3,0.1-2.6,0.2-4,0.3c-2.7,0.2-5.4,0.4-8.1,0.5
			c-1.7,0-3.4-0.3-5.1-0.5c-0.2,0-0.5-0.5-0.5-0.7C58.3,66.8,58.4,66.1,58.4,65.3z"/>
		<path class="st2" d="M88.2,39.6c0,0.8,0,1.4,0,2.1c-1.5,0-2.9,0-4.4,0c0-0.7,0-1.4,0-2.1C85.2,39.6,86.7,39.6,88.2,39.6z"/>
		<path d="M74.1,97.4c-0.1,1.9-1,2.9-2.8,2.9c-2,0-3.4-1.5-3.3-3.6c0-1.6,1.3-3,2.6-2.9C72.6,93.8,74.1,95.5,74.1,97.4z M72.4,97.4
			c-0.6-0.6-1-0.9-1.4-1.3c-0.2,0.3-0.8,0.7-0.7,0.9c0.2,0.5,0.6,0.9,1,1.2C71.3,98.2,71.8,97.8,72.4,97.4z"/>
		<path class="st2" d="M72.4,97.4c-0.6,0.4-1,0.8-1.1,0.8c-0.4-0.3-0.8-0.7-1-1.2c-0.1-0.2,0.4-0.6,0.7-0.9
			C71.3,96.4,71.7,96.8,72.4,97.4z"/>
	</g>
</g>
</svg>
