<?xml version="1.0" encoding="utf-8"?>
<!-- Generator: Adobe Illustrator 24.0.1, SVG Export Plug-In . SVG Version: 6.00 Build 0)  -->
<svg version="1.1" xmlns="http://www.w3.org/2000/svg" xmlns:xlink="http://www.w3.org/1999/xlink" x="0px" y="0px"
	 viewBox="0 0 156.8 136.3" style="enable-background:new 0 0 156.8 136.3;" xml:space="preserve">
<style type="text/css">
	.st0{fill:#B7D6E2;}
	.st1{fill:#DDDDDD;}
	.st2{fill:#FFFFFF;}
</style>
<g id="Calque_2">
	<g>
		<path class="st0" d="M53.4,56.8c-6.3,3.5-14.3-1.2-21.4,0.4c-5,1.1-8.8,5.3-11.6,9.6c-5.4,8.1-8.4,19.5-2.4,27.1
			c6.3,8.1,18.5,7.4,28.6,9.1c13.9,2.4,26,10.6,39.5,14.4c11,3.1,23.1,3.2,33.4-1.6c10.3-4.8,18.4-15,18.9-26.3
			c0.4-9.2-4.1-18.1-10.4-25c-6.3-6.8-14.2-11.9-22.1-16.8c-5.9-3.8-12.4-7.6-19.5-7"/>
	</g>
</g>
<g id="Calque_1">
	<g>
		<path d="M24.7,62.7c0.6-5.6,1.1-11.2,2-16.8c0.8-4.8,3.5-8.9,6.4-12.8c4.1-5.5,9.8-8.9,15.5-12.4c4.5-2.8,9.5-4.2,14.5-5.4
			c2.6-0.6,5.5,0,8.2,0c5.8,0,11.4,1.1,17.1,1.9c1.2,0.2,2.6,0.6,3.6,1.3c4.5,3,8.8,6.2,13.2,9.4c4.7,3.5,7.8,8.4,10.5,13.5
			c3.8,7,5,14.6,4,22.4c-0.9,7.3-3.5,13.7-8.9,19c-3.9,3.9-8.2,6.4-13.4,7.7c-1.1,0.3-1.4,0.8-1.2,1.9c1,4.7,1.8,9.4,2.7,14.1
			c0.1,0.4,0.2,0.9,0.1,1.3c-0.1,0.9-0.9,1.4-1.7,1c-0.6-0.3-1.3-0.7-1.8-1.2c-3.5-3.5-6.9-7-10.4-10.5C84.1,96.1,83,95,81.8,94
			c-0.3-0.2-0.8-0.3-1.2-0.3c-2.3,0.5-4.6,1-6.9,1.5c-1.4,0.3-2.8,0.7-4.2,1c-3.3,0.6-6.5,1.3-9.8,1.7c-4.8,0.5-9.6,0-14-2.4
			c-2.1-1.2-4.3-2.3-6.4-3.5c-4-2.3-6.8-5.6-8.9-9.6c-3.3-6.1-5.8-12.4-5.4-19.5C24.9,62.7,24.8,62.7,24.7,62.7z M96.1,105.5
			c0.1-0.1,0.3-0.2,0.4-0.3c0-0.2-0.1-0.5-0.1-0.7c-0.8-4.4-1.6-8.7-2.4-13.1c-0.2-1.2,0-2,1.3-2.4c0.8-0.2,1.6-0.6,2.4-0.8
			c4.5-1.2,8.3-3.6,11.7-6.9c5.1-5,7.5-11,8.3-17.7c0.9-7.4-0.2-14.5-3.7-21.1c-2.5-4.8-5.4-9.4-9.8-12.7c-4.3-3.2-8.7-6.3-13.1-9.4
			c-0.8-0.5-1.7-0.8-2.7-1c-5.9-0.8-11.8-1.9-17.7-1.9c-2.8,0-5.6-0.7-8.3,0.2c-2.3,0.8-4.6,1.5-6.8,2.2c-4.1,1.3-7.6,3.9-11.2,6.1
			c-6,3.6-10.4,8.7-13.5,14.9c-0.9,1.8-1.6,3.8-2,5.9c-0.6,3.1-1,6.2-1.2,9.3c-0.2,3.7-0.6,7.5-0.2,11.1c0.7,6.2,3.3,11.8,6.8,17
			c1.7,2.5,3.8,4.5,6.5,6c1.9,1.1,3.9,2.1,5.8,3.2c4,2.3,8.5,2.9,13,2.4c3.4-0.4,6.8-1.1,10.1-1.7c1.1-0.2,2.3-0.5,3.4-0.8
			c2.1-0.5,4.2-1.1,6.4-1.6c1.7-0.4,3.4-0.2,4.8,1.2c0.8,0.8,1.5,1.6,2.2,2.4C89.6,98.7,92.8,102.1,96.1,105.5z"/>
		<path class="st2" d="M96.1,105.5c-3.3-3.4-6.5-6.9-9.8-10.3c-0.8-0.8-1.5-1.6-2.2-2.4c-1.3-1.4-3-1.5-4.8-1.2
			c-2.1,0.4-4.3,1-6.4,1.6c-1.1,0.3-2.2,0.6-3.4,0.8c-3.4,0.6-6.7,1.3-10.1,1.7c-4.5,0.5-8.9,0-13-2.4c-1.9-1.1-3.8-2.1-5.8-3.2
			c-2.6-1.5-4.8-3.5-6.5-6c-3.5-5.2-6.1-10.8-6.8-17c-0.4-3.7-0.1-7.4,0.2-11.1c0.2-3.1,0.6-6.2,1.2-9.3c0.4-2,1.1-4,2-5.9
			c3.1-6.2,7.5-11.3,13.5-14.9c3.6-2.2,7.1-4.8,11.2-6.1c2.3-0.7,4.6-1.5,6.8-2.2c2.8-0.9,5.5-0.3,8.3-0.2c6,0,11.8,1.1,17.7,1.9
			c0.9,0.1,1.9,0.4,2.7,1c4.4,3.1,8.8,6.2,13.1,9.4c4.4,3.3,7.2,7.9,9.8,12.7c3.5,6.6,4.6,13.8,3.7,21.1c-0.8,6.8-3.3,12.8-8.3,17.7
			c-3.4,3.3-7.1,5.7-11.7,6.9c-0.8,0.2-1.6,0.6-2.4,0.8c-1.2,0.4-1.5,1.2-1.3,2.4c0.8,4.4,1.6,8.7,2.4,13.1c0,0.2,0.1,0.5,0.1,0.7
			C96.4,105.4,96.2,105.5,96.1,105.5z M75.1,80.2c0.8,0,1.7,0.1,2.5,0c0.6-0.1,1.4-0.5,1.8-0.9c2.4-2.6,4.6-5.4,7.1-8
			c2.2-2.4,4.4-4.7,5.9-7.7c0.6-1.3,0.8-2.5,0.4-4C91,54,89.6,48.4,88,42.8c-0.2-0.7-0.7-1.7-1.3-1.8c-2.6-0.6-5.2-1.3-7.8-1.4
			c-4.2-0.1-8.3-0.9-12.4-1.8c-2.1-0.5-4-0.4-5.5,1.8c-1.2,1.8-2.7,3.2-4,4.9c-3,3.8-6.4,7.1-8.7,11.4c-0.6,1.2-0.7,2.3-0.2,3.4
			c2.7,5.6,5.4,11.1,8.1,16.7c0.4,0.9,1.1,1.2,2.1,1.3c2.1,0.3,4.1,0.4,6.1,1C68,79.4,71.5,80.3,75.1,80.2z"/>
		<path d="M75.1,80.2c-3.7,0.1-7.1-0.8-10.6-1.8c-2-0.6-4.1-0.8-6.1-1c-1-0.1-1.7-0.4-2.1-1.3c-2.7-5.6-5.5-11.1-8.1-16.7
			c-0.5-1.1-0.5-2.2,0.2-3.4c2.2-4.3,5.7-7.7,8.7-11.4c1.3-1.7,2.9-3.1,4-4.9c1.4-2.2,3.4-2.3,5.5-1.8c4.1,0.9,8.2,1.7,12.4,1.8
			c2.6,0,5.3,0.8,7.8,1.4c0.5,0.1,1.1,1.1,1.3,1.8c1.6,5.6,3,11.3,4.7,16.8c0.4,1.5,0.3,2.7-0.4,4c-1.4,3-3.6,5.3-5.9,7.7
			c-2.5,2.6-4.7,5.4-7.1,8c-0.4,0.5-1.1,0.8-1.8,0.9C76.8,80.3,76,80.2,75.1,80.2z M74.5,78.1c0.8,0,1.3-0.1,1.7-0.1
			c1,0.1,1.6-0.2,2.3-1c1.9-2.3,3.9-4.6,6-6.7c2.3-2.4,4.6-4.7,6-7.7c0.2-0.5,0.4-1.2,0.2-1.8C89.2,55,87.6,49.3,86,43.6
			c-0.1-0.3-0.4-0.7-0.7-0.8c-2.3-0.4-4.7-0.9-7-1.2c-2.6-0.4-5.3-0.6-7.9-0.9c-1.8-0.2-3.6-0.6-5.4-1c-0.8-0.1-1.4,0.2-1.9,0.9
			c-2.8,3.4-5.7,6.7-8.5,10.1c-1.4,1.8-2.7,3.8-4,5.7c-0.5,0.8-0.7,1.5-0.2,2.5c2.5,5.1,5,10.3,7.5,15.4c0.2,0.4,0.9,0.8,1.4,0.9
			c2,0.4,4.1,0.5,6,1.1C68.4,77.3,71.5,78.1,74.5,78.1z"/>
		<path class="st2" d="M74.5,78.1c-3,0-6.2-0.8-9.3-1.7c-1.9-0.6-4-0.7-6-1.1c-0.5-0.1-1.1-0.5-1.4-0.9c-2.6-5.1-5-10.3-7.5-15.4
			c-0.5-0.9-0.3-1.7,0.2-2.5c1.3-1.9,2.5-3.9,4-5.7c2.8-3.4,5.7-6.7,8.5-10.1c0.5-0.7,1.1-1,1.9-0.9c1.8,0.3,3.6,0.7,5.4,1
			c2.6,0.4,5.3,0.6,7.9,0.9c2.4,0.3,4.7,0.7,7,1.2c0.3,0.1,0.6,0.5,0.7,0.8c1.6,5.7,3.2,11.4,4.7,17.1c0.1,0.5,0,1.3-0.2,1.8
			c-1.4,3.1-3.7,5.4-6,7.7c-2.1,2.2-4,4.4-6,6.7c-0.7,0.8-1.3,1.1-2.3,1C75.8,77.9,75.3,78,74.5,78.1z M70.5,71.1
			c3,0.4,5.5-0.7,7.2-3.1c1.2-1.7,2.2-3.5,3-5.4c2.4-6-1-10.2-5.8-12.4c-3.4-1.5-7.4-2-10.8,0.7c-0.9,0.7-2,1.6-2.4,2.7
			c-0.9,2.3-1.6,4.7-1.9,7.1c-0.4,3.5,0.7,6.7,3.9,8.6C65.7,70.6,67.9,71.4,70.5,71.1z"/>
		<path d="M70.5,71.1c-2.5,0.3-4.8-0.5-6.9-1.8c-3.3-1.9-4.3-5.1-3.9-8.6c0.3-2.4,1-4.8,1.9-7.1c0.4-1.1,1.5-1.9,2.4-2.7
			c3.4-2.7,7.4-2.2,10.8-0.7c4.8,2.1,8.3,6.4,5.8,12.4c-0.8,1.9-1.8,3.7-3,5.4C75.9,70.4,73.5,71.5,70.5,71.1z M70.4,69.3
			c0-0.1,0-0.2,0-0.3c2.5,0.5,4.3-0.6,5.8-2.4c1.5-1.9,2.5-4,3-6.3c0.3-1.5,0.2-3.1-0.8-4.3c-1.6-1.9-3.2-3.6-5.9-4.2
			c-2.5-0.5-4.8-0.5-7,0.9c-0.8,0.5-1.6,1.2-1.9,2c-0.7,1.7-1.2,3.6-1.5,5.4c-0.8,4,0.6,6.8,4.3,8.3C67.6,68.7,69,68.9,70.4,69.3z"
			/>
		<path class="st2" d="M70.4,69.3c-1.4-0.3-2.8-0.5-4.1-1c-3.8-1.6-5.2-4.3-4.3-8.3c0.4-1.8,0.8-3.7,1.5-5.4c0.3-0.8,1.2-1.5,1.9-2
			c2.2-1.3,4.5-1.4,7-0.9c2.7,0.5,4.3,2.2,5.9,4.2c1,1.3,1.1,2.8,0.8,4.3c-0.5,2.3-1.4,4.5-3,6.3c-1.5,1.8-3.3,2.9-5.8,2.4
			C70.4,69,70.4,69.1,70.4,69.3z"/>
	</g>
</g>
</svg>
