<?xml version="1.0" encoding="utf-8"?>
<!-- Generator: Adobe Illustrator 24.0.1, SVG Export Plug-In . SVG Version: 6.00 Build 0)  -->
<svg version="1.1" xmlns="http://www.w3.org/2000/svg" xmlns:xlink="http://www.w3.org/1999/xlink" x="0px" y="0px"
	 viewBox="0 0 156.8 136.3" style="enable-background:new 0 0 156.8 136.3;" xml:space="preserve">
<style type="text/css">
	.st0{fill:#B7D6E2;}
	.st1{fill:#DDDDDD;}
	.st2{fill:#FFFFFF;}
</style>
<g id="Calque_2">
	<g>
		<path class="st0" d="M54.3,17.1c5.5-8.2,18.6-9.4,28-5.2c9.4,4.2,16,12.3,22.1,20.1c4.5,5.6,9,11.4,11.8,17.9
			c1.4,3.2,2.5,6.7,2.1,10.1c-0.9,8.1-8.8,13.6-15.6,18.7c-13,10-23.8,22.4-31.6,36.3c-4.4,7.9-18.4,5.8-27.4,4.6
			c-10.5-1.4-7.4-5.5-7.2-15.7C37.2,77.9,32.3,44,54.3,17.1"/>
	</g>
</g>
<g id="Calque_1">
	<g>
		<path d="M40.3,42.4c-0.2-4.6-0.5-9.3-0.7-13.9c-0.1-2.2,0.5-2.9,2.6-3.4c3.6-0.9,7.3-1.7,11.1-1.5c3.5,0.2,6.8-0.4,10.2-1.3
			c3.4-0.9,6.9-1.4,10.3-2.2c3.2-0.8,6.4-0.8,9.6-0.3c1.5,0.2,3,0.7,4.4,1.2c2.7,1,3.5,3.4,4.1,5.9c1.6,6.9,2.7,13.9,3.6,21
			c0.7,5.5,1.4,11,2.2,16.5c1.1,7.5,2.4,15,3.3,22.5c0.6,5.1,0.4,10.4,0.5,15.6c0,1-0.3,2.1-0.6,3c-0.6,1.8-1.8,3-3.7,3.1
			c-3.3,0.3-6.7,0.5-10,0.7c-2.5,0.2-5.1,0.4-7.6,0.4c-3.8,0-7.6-0.3-11.4-0.2c-4,0.1-7.9,0.6-11.9,0.9c-1.6,0.1-3.3,0.2-4.9,0
			c-2.9-0.3-4.9-2.2-5.6-5.3c-0.9-4.3-1.6-8.7-2.2-13.1C41.7,79.6,41,66.8,40.2,54c-0.3-3.9,0-7.8,0-11.6
			C40.2,42.4,40.2,42.4,40.3,42.4z M93.9,106.9c0.7-0.1,1.2-0.1,1.8-0.2c2.7-0.3,3.2-0.5,3.4-3.2c0.3-4,0.4-8,0.1-12
			c-0.6-6.4-1.5-12.8-2.4-19.3c-0.9-6.7-1.9-13.4-2.9-20.2c-0.8-5.5-1.6-11.1-2.6-16.6c-0.6-3.3-1.3-6.6-2.1-10
			c-0.3-1.3-1.1-2.2-2.4-2.7c-3.7-1.4-7.5-1.8-11.4-1c-4,0.8-8,1.6-12,2.5c-3,0.7-5.9,1.4-9,1.2c-3.9-0.2-7.6,0.4-11.4,1.3
			c-1.3,0.3-1.5,0.9-1.5,2c0.2,3.9,0.4,7.8,0.5,11.7c0.1,4.4-0.2,8.7,0.1,13.1c0.8,11.3,1.7,22.6,2.8,33.9c0.6,5.7,1.6,11.4,2.6,17
			c0.5,3,3.3,4.5,6.1,3.6c-0.4-2.7-0.8-5.4-1.2-8c-0.2-1.6,0.4-2.5,1.9-2.8c1.3-0.3,2.6-0.5,3.9-0.6c4.9-0.2,9.8-0.6,14.7-0.5
			c4.5,0.1,8.9-0.5,13.4-1c4.5-0.5,5.6,0.2,6.2,4.7c0,0.1,0,0.2,0,0.2C93.3,102.6,93.6,104.7,93.9,106.9z M59,107.9
			c-1.1-1.4-0.8-2,0.8-2.3c0.5-0.1,1-0.1,1.4-0.1c3,0,5.9,0,8.9,0c1.7,0,2,0.4,1.5,2c1.1,0,2.3,0,3.7,0c-0.4-1.7-0.7-3.3-1-4.9
			c-0.3-1.6,0-2.1,1.4-2.4c3.8-0.7,7.6-1.2,11.4-1.1c1,0,1.6,0.4,1.9,1.4c0.5,2,1.1,3.9,1.7,5.9c0.1,0.3,0.5,0.5,0.7,0.7
			c0.1-0.1,0.2-0.2,0.3-0.3c-0.4-2.4-0.7-4.7-1.1-7.1c-0.4-2.3-0.7-2.6-3.1-2.3c-0.2,0-0.3,0.1-0.5,0.1c-3.8,0.2-7.5,1.1-11.3,1
			c-6.7-0.1-13.3-0.3-20,0.9c-0.7,0.1-1,0.3-0.9,1c0.4,2.6,0.8,5.2,1.2,7.8C57.1,108.2,58,108.1,59,107.9z M76.4,102
			c0.3,1.8,0.6,3.1,0.8,4.5c0.1,0.8,0.3,1.2,1.2,1.1c3.4-0.1,6.8-0.2,10.4-0.3c-0.6-2-1.1-3.8-1.7-5.7c-0.1-0.2-0.5-0.4-0.8-0.4
			C83.1,101.5,79.8,101.8,76.4,102z"/>
		<path class="st2" d="M93.9,106.9c-0.4-2.2-0.7-4.4-1-6.5c0-0.1,0-0.2,0-0.2c-0.7-4.5-1.8-5.2-6.2-4.7c-4.4,0.5-8.8,1.1-13.4,1
			c-4.9-0.1-9.8,0.3-14.7,0.5c-1.3,0.1-2.6,0.3-3.9,0.6c-1.5,0.3-2.1,1.2-1.9,2.8c0.4,2.7,0.8,5.4,1.2,8c-2.8,0.9-5.6-0.6-6.1-3.6
			c-1-5.7-2.1-11.3-2.6-17c-1.1-11.3-2-22.6-2.8-33.9c-0.3-4.3,0-8.7-0.1-13.1c-0.1-3.9-0.2-7.8-0.5-11.7c-0.1-1.2,0.2-1.7,1.5-2
			c3.7-0.9,7.5-1.5,11.4-1.3c3.1,0.1,6-0.5,9-1.2c4-0.9,8-1.7,12-2.5c3.9-0.8,7.7-0.4,11.4,1c1.2,0.5,2.1,1.4,2.4,2.7
			c0.7,3.3,1.5,6.6,2.1,10c0.9,5.5,1.7,11,2.6,16.6c1,6.7,2,13.4,2.9,20.2c0.9,6.4,1.8,12.8,2.4,19.3c0.3,4,0.2,8-0.1,12
			c-0.2,2.7-0.7,2.9-3.4,3.2C95.2,106.8,94.6,106.8,93.9,106.9z M67.4,93.9C67.4,93.9,67.4,93.9,67.4,93.9c1.2,0,2.4,0.1,3.5-0.1
			c4.8-0.9,9.6-1.8,14.4-2.9c3.7-0.8,5.8-3.5,5.9-6.8c0.1-4.1-1-7.9-2.5-11.6c-0.3-0.7-1.2-1.7-1.9-1.7c-2.7-0.2-5.5-0.4-8.1,0.2
			c-8.4,1.9-16.8,2.6-25.3,1.2c-0.7-0.1-1.4-0.1-2,0c-1.4,0.2-2.7,1.5-2.6,2.5c0.8,5,1.5,9.9,2.3,14.9c0.1,0.7,0.4,1.5,0.7,2.2
			c0.4,1.2,1.3,1.8,2.7,1.8C58.7,93.6,63.1,93.7,67.4,93.9z M59.5,69.7C59.5,69.7,59.5,69.7,59.5,69.7c0.8,0.1,1.7,0.3,2.5,0.3
			c2.1-0.1,4.1-0.3,6.2-0.5c2.8-0.3,5.5-0.8,8.3-1.1c2.1-0.2,4.1-0.3,6.2-0.6c1.6-0.2,3.2-0.8,4-2.4c1.1-2.1,1.7-4.2,1.1-6.6
			c-0.2-0.7-0.3-1.5-0.4-2.2c-0.5-2.4-1-4.8-1.6-7.2c-0.3-1.4-1.4-2.3-2.7-2.4c-1.7-0.1-3.5-0.2-5.3,0c-4.3,0.6-8.5,1.4-12.7,2.2
			c-3.1,0.5-6.1,1.4-9.2,1.6c-2.8,0.3-5.5,0.6-8.2,1.7c-2.1,0.8-2.2,0.9-2,3.1c0,0.3,0,0.6,0.1,0.8c0.5,3.6,0.9,7.2,1.6,10.8
			c0.5,2.4,1.4,3,3.8,2.9C53.9,70,56.7,69.8,59.5,69.7z M76.9,24.9c0-0.1,0-0.2,0-0.4c-2,0.3-4,0.5-6,0.9c-2.3,0.4-4.6,1-6.9,1.4
			c-0.9,0.2-1.5,0.6-1.7,1.4c-0.2,0.9-0.5,1.9-0.4,2.8c0.4,3.7,0.9,7.5,1.5,11.1c0.5,2.9,1.7,3.5,4.5,2.6c0.5-0.2,1-0.4,1.5-0.6
			c0.4-0.2,0.9-0.4,1.3-0.5c4.3-0.6,8.6-1.2,12.9-1.8c1.6-0.2,2.1-0.6,2-2.2c-0.2-3.8-0.6-7.6-0.9-11.5c-0.1-0.9-0.4-1.7-0.6-2.5
			c-0.4-1.1-1.2-1.4-2.3-1.3C80.2,24.6,78.5,24.7,76.9,24.9z M46.1,34.6c0.1-0.1,0.1-0.2,0.2-0.3c2.6-0.2,5.2-0.4,7.9-0.7
			c0.9-0.1,1.8-0.1,2.6-0.4c0.4-0.1,0.6-0.8,0.9-1.2c-0.5-0.3-0.9-0.8-1.4-0.8c-2.5,0.2-4.9,0.4-7.4,0.7c-1,0.1-1.9,0.2-2.8,0.5
			c-0.4,0.1-0.9,0.8-0.9,1.2C45.2,33.9,45.8,34.2,46.1,34.6z M48.1,39.2c0,0.1,0,0.2,0.1,0.3c2.6-0.5,5.1-1.1,7.7-1.6
			c0.8-0.2,1.6-0.4,1.3-1.4c-0.2-0.9-1.1-0.8-1.8-0.7c-2.9,0.7-5.9,1.5-9,1.3c-0.3,0-0.7,0.6-1.1,1c0.4,0.4,0.7,0.9,1.1,1.1
			C46.9,39.3,47.5,39.2,48.1,39.2z"/>
		<path class="st2" d="M59,107.9c-1,0.2-1.8,0.3-2.9,0.5c-0.4-2.6-0.8-5.2-1.2-7.8c-0.1-0.7,0.2-0.9,0.9-1c6.6-1.3,13.3-1.1,20-0.9
			c3.8,0.1,7.5-0.8,11.3-1c0.2,0,0.3-0.1,0.5-0.1c2.4-0.3,2.7-0.1,3.1,2.3c0.4,2.4,0.7,4.7,1.1,7.1c-0.1,0.1-0.2,0.2-0.3,0.3
			c-0.2-0.2-0.6-0.4-0.7-0.7c-0.6-1.9-1.1-3.9-1.7-5.9c-0.3-1-0.9-1.4-1.9-1.4c-3.9-0.1-7.7,0.4-11.4,1.1c-1.5,0.3-1.8,0.9-1.4,2.4
			c0.4,1.6,0.7,3.2,1,4.9c-1.4,0-2.5,0-3.7,0c0.5-1.6,0.2-2-1.5-2c-3,0-5.9,0-8.9,0c-0.5,0-1,0-1.4,0.1
			C58.2,105.9,57.9,106.5,59,107.9z M59.8,104.4c2.7-0.4,5.5-0.8,8.3-1.2c0.7-0.1,1.4-0.3,1.3-1.2c-0.1-1-0.9-1-1.7-0.9
			c-2.7,0.4-5.4,0.8-8.2,1.1c-0.7,0.1-1.5,0.2-1.4,1.1C58.1,104.3,59,104.3,59.8,104.4z"/>
		<path class="st2" d="M76.4,102c3.4-0.3,6.7-0.5,9.9-0.7c0.3,0,0.7,0.2,0.8,0.4c0.6,1.8,1.1,3.6,1.7,5.7c-3.7,0.1-7,0.2-10.4,0.3
			c-0.8,0-1.1-0.4-1.2-1.1C77.1,105.1,76.8,103.8,76.4,102z"/>
		<path d="M67.4,93.9c-4.3-0.1-8.6-0.3-12.9-0.4c-1.3,0-2.2-0.6-2.7-1.8c-0.3-0.7-0.5-1.4-0.7-2.2c-0.8-5-1.6-9.9-2.3-14.9
			c-0.2-1,1.1-2.3,2.6-2.5c0.7-0.1,1.4-0.1,2,0c8.5,1.4,16.9,0.8,25.3-1.2c2.6-0.6,5.4-0.3,8.1-0.2c0.7,0,1.6,1,1.9,1.7
			c1.4,3.7,2.6,7.6,2.5,11.6c-0.1,3.3-2.2,6-5.9,6.8c-4.8,1.1-9.6,2-14.4,2.9C69.7,94,68.5,93.8,67.4,93.9
			C67.4,93.9,67.4,93.9,67.4,93.9z M67.5,91.7C67.5,91.7,67.5,91.7,67.5,91.7c1.1,0,2.2,0.1,3.2-0.1c4.7-0.9,9.3-1.8,13.9-2.8
			c3.1-0.7,4.6-2.5,4.3-5.7c-0.4-3.3-1.3-6.4-2.1-9.7c-0.1-0.3-0.5-0.7-0.8-0.7c-2.5,0-5-0.2-7.4,0.3c-7.1,1.7-14.3,2.3-21.5,1.7
			c-1.5-0.1-3-0.4-4.5-0.6c-1.4-0.1-1.6,0.2-1.5,1.5c0.2,1.9,0.4,3.7,0.7,5.6c0.4,2.8,0.9,5.6,1.5,8.4c0.2,1.1,0.6,1.8,2,1.8
			C59.4,91.4,63.4,91.6,67.5,91.7z"/>
		<path d="M59.5,69.7c-2.8,0.1-5.6,0.3-8.4,0.4c-2.4,0.1-3.3-0.5-3.8-2.9c-0.7-3.6-1.1-7.2-1.6-10.8c0-0.3,0-0.6-0.1-0.8
			c-0.2-2.2,0-2.2,2-3.1c2.6-1.1,5.3-1.4,8.2-1.7c3.1-0.3,6.1-1.1,9.2-1.6c4.2-0.8,8.5-1.6,12.7-2.2c1.7-0.3,3.5-0.2,5.3,0
			c1.4,0.1,2.4,1,2.7,2.4c0.6,2.4,1.1,4.8,1.6,7.2c0.2,0.7,0.3,1.5,0.4,2.2c0.6,2.4,0,4.5-1.1,6.6c-0.8,1.6-2.4,2.1-4,2.4
			c-2,0.3-4.1,0.3-6.2,0.6c-2.8,0.3-5.5,0.8-8.3,1.1c-2.1,0.2-4.1,0.4-6.2,0.5C61.2,70,60.3,69.8,59.5,69.7
			C59.5,69.7,59.5,69.7,59.5,69.7z M63.1,67.6c0,0.1,0,0.3,0,0.4c1.5-0.2,3.1-0.2,4.5-0.6c3.1-0.9,6.2-1.1,9.3-1.3
			c2.2-0.1,4.3-0.5,6.5-0.8c0.5-0.1,1.2-0.6,1.4-1.1c0.9-1.6,1.2-3.3,0.7-5.1c-0.2-0.7-0.3-1.4-0.4-2.1c-0.5-2.2-0.9-4.4-1.4-6.6
			c-0.2-0.9-0.7-1.5-1.7-1.4c-1.8,0.1-3.6,0.2-5.3,0.4c-2.3,0.3-4.6,0.9-6.9,1.3c-2.3,0.4-4.7,0.6-7,1c-3,0.4-6.1,0.9-9.1,1.4
			c-1.7,0.3-3.4,0.8-5.1,1.3c-0.7,0.2-1.1,0.7-1,1.4c0.5,3.5,1,7,1.5,10.5c0.2,1.1,0.8,1.6,2,1.5C55.2,67.8,59.1,67.7,63.1,67.6z"/>
		<path d="M76.9,24.9c1.7-0.2,3.3-0.3,5-0.5c1.1-0.1,1.9,0.2,2.3,1.3c0.3,0.8,0.6,1.7,0.6,2.5c0.4,3.8,0.7,7.6,0.9,11.5
			c0.1,1.6-0.4,2-2,2.2c-4.3,0.6-8.6,1.2-12.9,1.8c-0.5,0.1-0.9,0.3-1.3,0.5c-0.5,0.2-1,0.5-1.5,0.6c-2.8,0.9-4,0.3-4.5-2.6
			c-0.6-3.7-1.1-7.4-1.5-11.1c-0.1-0.9,0.2-1.9,0.4-2.8c0.2-0.9,0.8-1.3,1.7-1.4c2.3-0.4,4.6-1,6.9-1.4c2-0.4,4-0.6,6-0.9
			C76.9,24.6,76.9,24.7,76.9,24.9z M83.7,39.6c-0.1-1.7-0.2-3.4-0.4-5.1c-0.2-2.2-0.5-4.4-0.7-6.6c-0.1-1-0.4-1.5-1.6-1.2
			c-1.2,0.2-2.5,0.1-3.7,0.2c-1.7,0.1-3.4,0.1-5.1,0.4c-2.5,0.4-4.9,1-7.3,1.6c-0.3,0.1-0.7,0.7-0.7,1c0.4,4,0.9,7.9,1.3,11.9
			c0.1,1.1,0.8,1.3,1.7,1c0.4-0.1,0.8-0.4,1.2-0.5c1.2-0.3,2.4-0.7,3.6-0.9C75.7,40.7,79.6,40.2,83.7,39.6z"/>
		<path d="M46.1,34.6c-0.3-0.4-0.9-0.7-1-1.1c0-0.4,0.5-1.1,0.9-1.2c0.9-0.3,1.9-0.4,2.8-0.5c2.5-0.3,4.9-0.6,7.4-0.7
			c0.4,0,0.9,0.5,1.4,0.8c-0.3,0.4-0.5,1.1-0.9,1.2c-0.8,0.3-1.7,0.3-2.6,0.4c-2.6,0.2-5.2,0.4-7.9,0.7
			C46.2,34.4,46.2,34.5,46.1,34.6z"/>
		<path d="M48.1,39.2c-0.6,0-1.2,0.2-1.7,0C46,39,45.7,38.4,45.3,38c0.4-0.3,0.8-1,1.1-1c3.1,0.3,6-0.5,9-1.3
			c0.7-0.2,1.5-0.3,1.8,0.7c0.3,1-0.6,1.3-1.3,1.4c-2.6,0.6-5.1,1.1-7.7,1.6C48.1,39.4,48.1,39.3,48.1,39.2z"/>
		<path d="M59.8,104.4c-0.8-0.1-1.6-0.1-1.7-1.1c0-0.9,0.7-1,1.4-1.1c2.7-0.4,5.4-0.8,8.2-1.1c0.7-0.1,1.5-0.1,1.7,0.9
			c0.1,0.9-0.6,1.1-1.3,1.2C65.3,103.6,62.5,104,59.8,104.4z"/>
		<path class="st2" d="M67.5,91.7c-4.1-0.1-8.1-0.3-12.2-0.3c-1.3,0-1.8-0.7-2-1.8c-0.5-2.8-1-5.6-1.5-8.4c-0.3-1.9-0.5-3.7-0.7-5.6
			c-0.2-1.3,0.1-1.7,1.5-1.5c1.5,0.2,3,0.4,4.5,0.6c7.3,0.6,14.4,0,21.5-1.7c2.4-0.6,4.9-0.3,7.4-0.3c0.3,0,0.7,0.4,0.8,0.7
			c0.8,3.2,1.7,6.4,2.1,9.7c0.4,3.2-1.2,5-4.3,5.7c-4.6,1-9.3,2-13.9,2.8C69.7,91.9,68.6,91.7,67.5,91.7
			C67.5,91.7,67.5,91.7,67.5,91.7z M72.7,88.8c1.8-0.3,3.6-0.7,5.4-1c2.2-0.4,4.4-0.7,6.6-1.1c2.4-0.5,3-1.5,2.3-4
			c-0.4-1.6-0.8-3.3-1.2-4.9c-0.3-1-0.6-2-1-2.9c-0.4-1.2-1.3-1.5-2.5-1.3c-0.8,0.2-1.5,0.5-2.3,0.5c-3.9,0.2-7.7,0.7-11.3,2.4
			c-1,0.5-1.3,1-1,1.9c0.8,2.8,1.7,5.7,2.5,8.5C70.6,88.3,71.4,88.9,72.7,88.8z M62,84.7c0.9-0.1,2.1-0.3,3.3-0.6
			c0.7-0.1,1.4-0.5,1.1-1.4c-0.2-0.8-0.9-0.7-1.7-0.7c-1.9,0.1-3.8,0.2-5.7,0.1c-1.2,0-2.4-0.3-3.6-0.3c-0.4,0-0.8,0.6-1.2,1
			c0.4,0.4,0.7,1,1.1,1C57.4,84.2,59.5,84.4,62,84.7z M63.4,89C63.4,89,63.4,89,63.4,89c0.7-0.1,1.4,0,2.2-0.1
			c0.7-0.1,1.4-0.3,1.3-1.2c-0.1-0.8-0.8-0.9-1.5-0.9c-2.1-0.1-4.1-0.2-6.2-0.3c-1,0-2.1-0.2-3.1-0.1c-0.4,0.1-0.8,0.6-1.3,1
			c0.4,0.4,0.8,1,1.2,1.1C58.5,88.7,61,88.9,63.4,89z M58.5,80.8C58.5,80.8,58.5,80.9,58.5,80.8c1.8-0.1,3.5-0.2,5.2-0.5
			c0.4-0.1,1.1-0.6,1.1-1c0.1-0.8-0.6-1-1.3-1c-0.2,0-0.3,0-0.5,0c-2.6,0.1-5.2,0.2-7.8,0.3c-0.7,0-1.4,0.1-1.4,1
			c-0.1,0.9,0.6,1.2,1.3,1.2C56.3,80.8,57.4,80.8,58.5,80.8z"/>
		<path class="st2" d="M63.1,67.6c-3.9,0.1-7.9,0.2-11.8,0.4c-1.2,0.1-1.8-0.4-2-1.5c-0.5-3.5-1-7-1.5-10.5c-0.1-0.8,0.3-1.3,1-1.4
			c1.7-0.5,3.4-1,5.1-1.3c3-0.6,6.1-1,9.1-1.4c2.3-0.3,4.7-0.6,7-1c2.3-0.4,4.6-1,6.9-1.3c1.8-0.3,3.6-0.3,5.3-0.4
			c1-0.1,1.5,0.5,1.7,1.4c0.5,2.2,0.9,4.4,1.4,6.6c0.1,0.7,0.2,1.4,0.4,2.1c0.5,1.8,0.1,3.5-0.7,5.1c-0.3,0.5-0.9,1-1.4,1.1
			c-2.1,0.4-4.3,0.7-6.5,0.8c-3.2,0.1-6.3,0.4-9.3,1.3c-1.4,0.4-3,0.4-4.5,0.6C63.1,67.8,63.1,67.7,63.1,67.6z M72.6,64.8
			c0,0,0,0.1,0,0.1c3-0.5,6.1-1,9.1-1.5c1.5-0.3,2-0.7,1.8-2.2c-0.4-2.9-0.9-5.7-1.5-8.6c-0.4-1.9-1.3-2.6-3.3-2.4
			c-3.4,0.4-6.7,1-10,1.7c-1.1,0.2-1.7,1.1-1.6,2.3c0.3,2.5,0.5,5,0.8,7.5c0.3,2.5,1,3,3.6,3C71.8,64.8,72.2,64.8,72.6,64.8z
			 M57.5,56.6C57.5,56.5,57.5,56.5,57.5,56.6c-1.7-0.1-3.4-0.2-5.1,0c-0.4,0-0.8,0.6-1.3,0.9c0.4,0.4,0.7,0.8,1.2,1.1
			c0.2,0.1,0.5,0.1,0.7,0.1c3.2-0.1,6.4-0.1,9.6-0.2c0.7,0,1.4-0.2,1.4-1.1c0-0.8-0.7-1-1.4-1C60.8,56.4,59.2,56.5,57.5,56.6z
			 M58.9,63.6c0-0.1,0-0.1,0-0.2c-1.7,0-3.3,0-5,0c-0.7,0-1.4,0.2-1.4,1.1c0,0.9,0.7,1,1.4,1.1c1.8,0,3.5,0.1,5.3,0.2
			c1.5,0,3,0.1,4.5,0.1c0.8,0,1.5-0.3,1.4-1.3c-0.1-0.9-0.8-0.9-1.5-0.9C62.1,63.7,60.5,63.6,58.9,63.6z M57.4,61.9
			C57.4,61.9,57.4,61.9,57.4,61.9c1.7,0,3.4,0.1,5.1-0.1c0.4,0,1.1-0.6,1.2-1c0.1-0.8-0.6-1-1.3-1c-3.2,0-6.3,0-9.5,0
			c-0.8,0-1.4,0.2-1.4,1.1c0,0.9,0.7,1,1.5,1C54.5,61.9,55.9,61.9,57.4,61.9z"/>
		<path class="st2" d="M83.7,39.6c-4.1,0.6-7.9,1.2-11.8,1.8c-1.2,0.2-2.4,0.6-3.6,0.9c-0.4,0.1-0.8,0.4-1.2,0.5
			c-0.9,0.3-1.5,0.1-1.7-1c-0.4-4-0.9-7.9-1.3-11.9c0-0.3,0.4-0.9,0.7-1c2.4-0.6,4.9-1.2,7.3-1.6c1.7-0.3,3.4-0.3,5.1-0.4
			c1.2-0.1,2.5,0,3.7-0.2c1.2-0.2,1.5,0.3,1.6,1.2c0.2,2.2,0.5,4.4,0.7,6.6C83.4,36.2,83.5,37.9,83.7,39.6z"/>
		<path d="M72.7,88.8c-1.3,0.1-2.1-0.5-2.5-1.8c-0.8-2.8-1.7-5.7-2.5-8.5c-0.3-0.9,0.1-1.5,1-1.9c3.6-1.7,7.4-2.3,11.3-2.4
			c0.8,0,1.6-0.3,2.3-0.5c1.2-0.2,2.1,0.1,2.5,1.3c0.4,1,0.7,1.9,1,2.9c0.4,1.6,0.8,3.3,1.2,4.9c0.7,2.4,0.1,3.5-2.3,4
			c-2.2,0.5-4.4,0.7-6.6,1.1C76.3,88.2,74.5,88.5,72.7,88.8z M72.7,86.6c2.2-0.4,4-0.7,5.8-1c1.8-0.3,3.5-0.6,5.3-0.9
			c1.4-0.3,1.4-0.4,1.1-1.7c-0.4-1.6-0.8-3.2-1.2-4.8c-0.2-0.7-0.3-1.3-0.6-1.9c-0.1-0.2-0.6-0.5-0.8-0.4c-2.6,0.3-5.2,0.6-7.8,1
			c-1.3,0.2-2.6,0.8-3.8,1.3c-0.3,0.1-0.6,0.6-0.5,0.9c0.6,2.3,1.2,4.5,1.9,6.8C72.2,86.2,72.6,86.5,72.7,86.6z"/>
		<path d="M62,84.7c-2.5-0.3-4.6-0.4-6.7-0.7c-0.4-0.1-0.7-0.7-1.1-1c0.4-0.3,0.8-1,1.2-1c1.2,0,2.4,0.3,3.6,0.3
			c1.9,0,3.8,0,5.7-0.1c0.7,0,1.4-0.2,1.7,0.7c0.2,0.9-0.4,1.2-1.1,1.4C64.1,84.4,62.8,84.5,62,84.7z"/>
		<path d="M63.4,89c-2.5-0.2-4.9-0.3-7.4-0.5c-0.4,0-0.8-0.7-1.2-1.1c0.4-0.3,0.8-0.9,1.3-1c1-0.1,2.1,0,3.1,0.1
			c2.1,0.1,4.1,0.2,6.2,0.3c0.7,0,1.4,0.1,1.5,0.9c0.1,0.9-0.6,1.2-1.3,1.2C64.9,89,64.1,89,63.4,89C63.4,89,63.4,89,63.4,89z"/>
		<path d="M58.5,80.8c-1.1,0-2.2,0-3.2,0c-0.7,0-1.4-0.3-1.3-1.2c0.1-0.8,0.7-0.9,1.4-1c2.6-0.1,5.2-0.2,7.8-0.3c0.2,0,0.3,0,0.5,0
			c0.7,0,1.4,0.2,1.3,1c-0.1,0.4-0.7,1-1.1,1C62,80.6,60.2,80.7,58.5,80.8C58.5,80.9,58.5,80.8,58.5,80.8z"/>
		<path d="M72.6,64.8c-0.4,0-0.8,0-1.2,0c-2.5,0-3.2-0.5-3.6-3c-0.3-2.5-0.5-5-0.8-7.5c-0.1-1.2,0.4-2.1,1.6-2.3
			c3.3-0.7,6.7-1.3,10-1.7c2-0.2,2.9,0.5,3.3,2.4c0.6,2.8,1.2,5.7,1.5,8.6c0.2,1.5-0.3,1.9-1.8,2.2c-3,0.5-6.1,1-9.1,1.5
			C72.6,64.9,72.6,64.8,72.6,64.8z M73.9,62.6c1.4-0.2,3.9-0.7,6.4-1c1-0.1,1.2-0.5,1.1-1.4c-0.4-2.1-0.8-4.2-1.2-6.3
			c-0.2-1.2-0.9-1.7-2.1-1.5c-2.7,0.5-5.5,1-8.2,1.5c-0.2,0-0.6,0.6-0.5,0.8c0.1,1.8,0.2,3.6,0.5,5.4C70.1,62.8,70.2,62.8,73.9,62.6
			z"/>
		<path d="M57.5,56.6c1.7-0.1,3.3-0.2,5-0.2c0.7,0,1.3,0.2,1.4,1c0,0.9-0.7,1.1-1.4,1.1c-3.2,0.1-6.4,0.1-9.6,0.2
			c-0.2,0-0.5,0.1-0.7-0.1c-0.4-0.3-0.8-0.7-1.2-1.1c0.4-0.3,0.8-0.9,1.3-0.9C54,56.4,55.8,56.5,57.5,56.6
			C57.5,56.5,57.5,56.5,57.5,56.6z"/>
		<path d="M58.9,63.6c1.6,0,3.1,0,4.7,0c0.8,0,1.4,0,1.5,0.9c0.1,0.9-0.6,1.3-1.4,1.3c-1.5,0-3,0-4.5-0.1c-1.8,0-3.5-0.1-5.3-0.2
			c-0.7,0-1.4-0.2-1.4-1.1c0-0.9,0.7-1.1,1.4-1.1c1.7,0,3.3,0,5,0C58.9,63.5,58.9,63.6,58.9,63.6z"/>
		<path d="M57.4,61.9c-1.5,0-3,0-4.4,0c-0.7,0-1.4-0.1-1.5-1c0-0.9,0.7-1.1,1.4-1.1c3.2,0,6.3,0,9.5,0c0.7,0,1.4,0.2,1.3,1
			c-0.1,0.4-0.7,1-1.2,1C60.9,62,59.1,61.9,57.4,61.9C57.4,61.9,57.4,61.9,57.4,61.9z"/>
		<path class="st2" d="M72.7,86.6c-0.1-0.1-0.5-0.4-0.6-0.7c-0.7-2.2-1.3-4.5-1.9-6.8c-0.1-0.2,0.2-0.8,0.5-0.9
			c1.3-0.5,2.5-1.1,3.8-1.3c2.6-0.5,5.2-0.7,7.8-1c0.3,0,0.7,0.2,0.8,0.4c0.3,0.6,0.4,1.3,0.6,1.9c0.4,1.6,0.7,3.2,1.2,4.8
			c0.3,1.4,0.3,1.5-1.1,1.7c-1.8,0.3-3.5,0.6-5.3,0.9C76.7,85.9,74.9,86.3,72.7,86.6z"/>
		<path class="st2" d="M73.9,62.6c-3.7,0.2-3.8,0.2-4.2-2.4c-0.3-1.8-0.4-3.6-0.5-5.4c0-0.3,0.3-0.8,0.5-0.8c2.7-0.6,5.5-1,8.2-1.5
			c1.2-0.2,1.9,0.3,2.1,1.5c0.4,2.1,0.8,4.2,1.2,6.3c0.2,0.9-0.1,1.2-1.1,1.4C77.8,61.8,75.3,62.3,73.9,62.6z"/>
	</g>
</g>
</svg>
