<?xml version="1.0" encoding="utf-8"?>
<!-- Generator: Adobe Illustrator 24.0.1, SVG Export Plug-In . SVG Version: 6.00 Build 0)  -->
<svg version="1.1" xmlns="http://www.w3.org/2000/svg" xmlns:xlink="http://www.w3.org/1999/xlink" x="0px" y="0px"
	 viewBox="0 0 156.8 136.3" style="enable-background:new 0 0 156.8 136.3;" xml:space="preserve">
<style type="text/css">
	.st0{fill:#B7D6E2;}
	.st1{fill:#DDDDDD;}
	.st2{fill:#FFFFFF;}
</style>
<g id="Calque_2">
	<g>
		<path class="st0" d="M24.7,75.6c5.8-4.1,13.2-6.3,20.4-8.4c21.2-6.3,43.4-12.6,65.7-10.3c7.6,0.8,15.5,2.8,20.8,7.4
			c5.2,4.6,7.1,11.2,7.2,17.5c0.3,10.9-4.3,22.1-13.7,29.8s-23.8,11.1-36.3,7.8c-8-2.2-14.9-6.9-23.2-7.9c-11.5-1.3-24,4.8-34.4,0.5
			c-5.8-2.4-9.3-7.4-11-12.6C17.7,91.6,14.6,84.9,24.7,75.6"/>
	</g>
</g>
<g id="Calque_1">
	<g>
		<path d="M89.8,37.7c1.8-1.2,3.3-2.2,4.7-3.3c3.3-2.6,7.1-4.3,10.9-6c1.4-0.6,2.4-0.2,3.2,1.2c2.3,4.5,5.5,8.5,8.2,12.8
			c3,4.6,5.5,9.6,8.1,14.4c1.4,2.5,2.6,5.1,4.1,7.6c1.5,2.4,2.8,4.8,3.5,7.6c0.1,0.5,0.5,1,0.8,1.4c0.6,0.9,0.6,1.7,0,2.8
			c-1.6,2.5-4.2,3.8-6.7,5c-1.9,0.9-3.8,1.7-5.8,2.3c-3.1,0.9-5.7,2.7-8.4,4.4c-4.7,2.8-9.4,5.6-14.1,8.4c-1.8,1.1-3.6,2.2-5.4,3.3
			c-0.9,0.6-1.9,0.4-2.7-0.7c-1.1-1.6-2.2-3.2-3.3-4.8c-7.1,0.8-14.2,1.5-21.3,2.3c-1.3,1.9-2.5,4.1-4.1,6.1c-2.1,2.8-5,4.7-8.3,5.6
			c-3.1,0.8-6.4,0.6-9.5-0.1c-3.6-0.8-7-2.1-10.2-4.1c-4.2-2.7-7.5-6.3-9.9-10.7c-1.5-2.7-1.4-5.8-1.4-8.8c0-3.9,1.3-7.4,3-11
			c1.7-3.5,4.6-5.4,7.4-7.6c0.5-0.4,1.1-1.3,1.1-2c0-2.4-0.3-4.8-0.5-7.2c-0.3-2.9-0.6-5.7-1.1-8.6c-0.5-3-1.3-6-1.6-9
			c-0.5-4.4-0.7-8.8-1-13.1c0-0.6,0.5-1.5,1-1.7c2-0.8,4.1-1.5,6.3-1.9c2.3-0.4,4.6-0.7,6.9-0.7c3.9-0.1,7.7-0.6,11.5-1.4
			c4.7-1,9.5-1.4,14.2-1.8c3.1-0.3,6.2-0.1,9.4,0c2,0.1,4,0.4,5.9,0.7c1.1,0.2,1.8,0.8,2.2,2C88.6,26.4,89.9,31.7,89.8,37.7z
			 M91.7,97.4c2-1.1,3.8-2.1,5.6-3.2c4.6-2.7,9.2-5.3,13.7-8.2c3.6-2.3,7.3-4.1,11.4-5.5c2.7-1,5.2-2.5,7.7-4
			c1.5-0.9,1.5-1.6,0.7-3.1c-0.1-0.2-0.3-0.5-0.3-0.8c-0.5-2.7-1.9-5-3.3-7.3c-1.4-2.3-2.7-4.7-3.9-7.1c-2.3-4.2-4.3-8.6-6.8-12.6
			c-3.1-5-7-9.5-9.7-14.8c-0.1-0.2-0.8-0.4-1-0.3c-2.3,1.1-4.7,2.1-6.8,3.4c-2.4,1.4-4.5,3.2-6.8,4.7c-4.3,2.9-8.7,5.7-13.1,8.4
			c-4.1,2.6-7.8,5.9-12.3,7.9c-0.9,0.4-1.3,1-0.7,2.1c1.5,2.7,2.7,5.5,4.3,8.2c1.7,2.8,3.7,5.3,5.6,7.9c0.9,1.2,1.9,2.4,2.8,3.6
			c1.5,2.1,2.9,4.3,4.3,6.5c1.4,2.1,2.7,4.3,4.1,6.5C88.6,92.3,90.2,94.9,91.7,97.4z M79.3,82.5c0.1-0.1,0.1-0.1,0.2-0.2
			c-0.6-0.9-1.1-1.8-1.7-2.7c-1.1-1.7-2.2-3.3-3.4-4.9c-0.9-1.3-2.1-2.5-2.9-3.8c-1.8-2.7-3.6-5.5-5.1-8.4c-1.2-2.1-2-4.3-3-6.5
			c-0.3-0.8-0.1-1.4,0.6-1.9c0.9-0.5,1.9-1,2.8-1.6c1.8-1.2,3.7-2.3,5.7-3.7c-2.5-0.8-3.1-1.8-2.8-4.6c0.1-0.9,1.4-2.5,2.2-2.3
			c1.1,0.2,2.4,0.3,3.1,1c0.8,0.8,0.9,2.2,1.3,3.3c0.3-0.2,0.8-0.5,1.2-0.8c2.7-1.9,5.4-3.9,8.2-5.6c1.6-0.9,2-2.1,2-3.8
			c-0.2-4.8-1.2-9.4-2.7-13.9c-0.2-0.4-0.7-1-1.2-1.1c-1.6-0.3-3.3-0.5-5-0.6c-7.4-0.2-14.7-0.2-21.9,1.5c-4.8,1.1-9.6,1.7-14.5,1.7
			c-3.7,0-7.3,0.9-10.7,2.6c0,0.3,0,0.6,0,0.9c0.4,4.4,0.8,8.9,1.4,13.3c0.8,5.9,1.7,11.7,2.5,17.5c0.3,2,0.3,4,0.4,6.1
			c2.5-1.6,5.2-0.7,7.8-1c-0.8-1.8-0.4-4.2,1-5c1.1-0.7,3.5-0.3,4.1,0.7c0.4,0.7,0.5,1.6,0.4,2.4c-0.2,1-0.7,1.9-1.1,2.9
			c5,1.1,10.3,2.1,14.1,6.4c1.4-1.1,2.8-1.2,3.9-0.4c1.2,0.9,1.6,2.5,0.9,4c-0.3,0.7-0.7,1.3-1.1,2c-0.1,0.3-0.3,0.6-0.2,0.8
			c0.6,2,1.2,4.1,1.8,6.1c1.6-0.6,3,0.4,3.3,2.1c0.3,2.1-0.8,3.5-2.3,4.5c-1.5,1-1.7,2.5-2.3,4.3c6.6-0.7,13-1.4,19.6-2.2
			c-1.3-2.1-2.5-4.1-3.7-6.1c-0.3,0.3-0.4,0.6-0.4,0.8c-0.4,1.6-1.1,2.2-2.7,2.1c-1.6-0.1-2.7-1.1-2.7-2.7c0-1,0-1.9,0.1-2.9
			c0.2-1.5,1.2-1.8,2.3-0.9C78.9,82.3,79.1,82.4,79.3,82.5z M24.5,84.4c-0.2,2.9-0.1,5.5,1.1,7.8c2.2,4.1,5.2,7.5,9.2,9.9
			c4.7,2.8,9.7,4.5,15.3,4.1c1.4-0.1,2.8-0.3,4-0.8c4.8-2,7.5-5.9,9.5-10.5c1.8-4.1,2.2-8.3,1.4-12.6c-0.5-2.9-1.7-5.4-3.1-8
			c-1.4-2.7-3.4-4.6-6.2-5.6c-3.1-1.1-6.3-1.8-9.4-2.6c-4.5-1.2-8.8-0.9-12.8,1.6c-0.7,0.5-1.6,0.8-2.2,1.4
			c-1.7,1.5-3.2,3.3-4.3,5.4C25.4,77.6,24.2,81,24.5,84.4z M71.7,44.3c0.5,0.8-0.6,1.9,0.8,2.3c0.9,0.2,1.3-0.3,1.3-1.2
			C73.8,44,72.8,44.4,71.7,44.3z M67.7,84.7c0,1,0,1.9,0,2.9C69.2,86.3,69.2,85.5,67.7,84.7z M47.5,60.4c-1.2-0.2-1.9-0.2-1.9,0.8
			c0,0.2,0.7,0.4,1,0.7C46.8,61.4,47.1,61,47.5,60.4z M64.6,74.3c0.6-0.7,1.1-1.4,0.4-2.1c-0.1-0.1-0.9,0.2-1.4,0.4
			C64,73.3,64.2,73.7,64.6,74.3z"/>
		<path class="st2" d="M91.7,97.4c-1.6-2.5-3.1-5.1-4.7-7.7c-1.4-2.2-2.7-4.3-4.1-6.5c-1.4-2.2-2.8-4.4-4.3-6.5
			c-0.9-1.2-1.9-2.4-2.8-3.6c-1.9-2.6-3.9-5.2-5.6-7.9c-1.6-2.6-2.8-5.5-4.3-8.2c-0.6-1.1-0.2-1.7,0.7-2.1c4.5-2,8.1-5.3,12.3-7.9
			c4.4-2.7,8.7-5.6,13.1-8.4c2.3-1.5,4.5-3.3,6.8-4.7c2.2-1.3,4.5-2.3,6.8-3.4c0.3-0.1,0.9,0.1,1,0.3c2.7,5.3,6.6,9.8,9.7,14.8
			c2.5,4.1,4.5,8.4,6.8,12.6c1.3,2.4,2.5,4.8,3.9,7.1c1.4,2.3,2.7,4.6,3.3,7.3c0.1,0.3,0.2,0.5,0.3,0.8c0.8,1.5,0.8,2.2-0.7,3.1
			c-2.5,1.5-5,3-7.7,4c-4,1.4-7.8,3.2-11.4,5.5c-4.5,2.9-9.1,5.5-13.7,8.2C95.5,95.3,93.7,96.2,91.7,97.4z M110.1,47.5
			c-0.1-0.5-0.2-1-0.3-1.4c-0.7-2.3-1.2-4.6-2.1-6.8c-1.2-2.7-2.8-2.8-4.9-0.8c-0.2,0.2-0.4,0.4-0.6,0.6c-1.2,1.2-2.5,2.4-3.7,3.6
			c-0.6,0.6-1.1,1.1-1.6,1.7c-0.4,0.5-0.6,1.2,0,1.7c0.6,0.5,1.2,0.1,1.7-0.4c1.9-1.9,3.9-3.8,5.8-5.7c0.3-0.3,0.6-0.4,1.1-0.7
			c1.6,2.9,2.1,6,2.8,9.1c-0.6,0.2-1.1,0.2-1.5,0.4c-0.8,0.3-1,1.2-0.5,1.8c1.1,1.1,2.3,2.1,3.5,3c1.1,0.8,2.3,0.2,2.5-1.2
			c0.1-0.8,0.2-1.7,0.2-2.5C112.4,48,112,47.6,110.1,47.5z M105.1,64.1c0-0.1,0.1-0.3,0.1-0.5c0.3-1.5-0.1-2.1-1.7-2.1
			c-0.7,0-1.4,0-2,0c-1.4,0.1-2.1,1-1.9,2.4c0.1,1.3,1.1,2.1,2.1,2.8c1.5,1,1.8,0.9,3-0.4c1.8,0.9,3.5,1.9,5.4,2.8
			c1.9,0.9,3.3,0,3.3-2.1c0-1.1,0-2.2-0.2-3.3c-0.2-1.9-0.5-3.7-0.8-5.6c-0.1-0.7-0.4-1.3-1.2-1.1c-0.8,0.1-0.9,0.8-0.8,1.5
			c0,0.3,0.1,0.6,0.2,0.9c0.3,2.6,0.6,5.1,1,8C109.1,66.2,107.2,65.2,105.1,64.1z M90.8,51.5c-0.7,0.4-1.4,0.8-2.1,1.3
			c-0.7,0.4-1.3,0.9-2,1.4c-2.1,1.4-2.3,3.4-0.2,4.8c1.7,1.2,3.5,2.2,5.3,3.2c0.4,0.2,1.2,0,1.5-0.4c0.5-0.6,0.2-1.2-0.5-1.6
			c-0.7-0.4-1.4-0.7-2-1.1c-1.2-0.8-2.4-1.6-4-2.5c1.7-1.1,3-2.1,4.4-2.9c0.5-0.3,1.3-0.1,1.9-0.3c0.3-0.1,0.7-0.3,0.9-0.5
			c0.4-0.5,0.7-1,1-1.5c0.3-0.8,0.7-1.5,0.8-2.4c0.2-1.3-0.4-2-1.8-1.8c-0.6,0.1-1.3,0.2-1.9,0.4C89.8,48.3,89.4,49.3,90.8,51.5z
			 M83,69.7c0.8,0.5,1.5,0.9,2.2,1.3c0.6,0.3,0.8,0.7,0.5,1.3c-0.4,0.8-0.7,1.5-0.9,2.3c-0.1,0.5,0.3,1,0.5,1.5
			c0.5-0.2,1.2-0.4,1.4-0.8c1.1-2.4,2-4.8,3-7.2c0.3-0.6,0.4-1.4-0.5-1.6c-0.4-0.1-1.1,0.4-1.5,0.8c-0.4,0.5-0.6,1.3-1,2
			c-1-0.6-1.9-1.1-2.8-1.7c0.4-0.9,0.8-1.8,1.1-2.7c0.3-0.7,0.5-1.5-0.4-1.8c-0.8-0.3-1.2,0.3-1.5,1c-1.2,2.7-2.3,5.3-3.5,8
			c-0.3,0.7-0.4,1.4,0.4,1.7c0.9,0.4,1.3-0.2,1.6-0.9C82.1,72,82.5,70.9,83,69.7z M96.4,73.7c0-0.5,0.1-1,0-1.6
			c-0.3-1.7-0.8-3.1-2.5-3.9c-0.9-0.4-1.5-0.2-1.8,0.6c-1,2.6-2,5.1-2.9,7.7c-0.1,0.4,0,1.2,0.3,1.5c1.1,1.2,3.1,1.4,4.6,0.6
			C96.2,77.6,96.5,75.7,96.4,73.7z M100.4,76.9c0.5,0.2,0.9,0.4,1.2,0.5c1.3,0.3,2.6,0.4,3.6-0.7c1-1.1,1.2-2.5,0.7-3.8
			c-0.5-1.4-1.7-1.9-3.1-2c-0.2,0-0.3,0-0.5-0.1c-1-0.4-1.4,0.1-1.8,1c-0.6,1.3-1.3,2.6-1.9,3.9c-0.5,1.1-1,2.2-1.4,3.3
			c-0.2,0.7,0.1,1.4,0.9,1.4c0.4,0,1-0.6,1.2-1C99.8,78.6,100.1,77.8,100.4,76.9z M110.6,75.5c0.5,0.3,0.9,0.5,1.3,0.7
			c0.6,0.4,1.3,0.5,1.8-0.2c0.4-0.7-0.1-1.2-0.7-1.6c-0.6-0.4-1.1-0.7-1.7-1.1c-1.2-0.8-2.3-0.4-2.7,1c-0.6,1.9-1.1,3.9-1.7,5.8
			c-0.1,0.4-0.3,0.8-0.2,1.2c0.1,0.4,0.4,1.1,0.7,1.2c1.2,0.2,2.4,0.3,3.6,0.3c0.4,0,0.8-0.6,1.1-0.9c-0.3-0.4-0.6-0.9-1.1-1.1
			c-0.6-0.3-1.3-0.4-2-0.6c0-0.9,0.2-1.1,1.1-0.9c0.4,0.1,0.9-0.3,1.4-0.5c-0.2-0.5-0.3-1.2-0.6-1.4C110.1,77,110.1,76.4,110.6,75.5
			z M100.5,52.4c-1,1.1-1.8,1.9-2.6,2.9c-0.8,0.9-0.6,2,0.5,2.1c1.3,0.1,2.6,0.1,3.9,0c0.3,0,0.9-0.7,0.8-0.9
			c-0.1-0.4-0.5-0.8-0.9-1c-0.3-0.2-0.8-0.1-1.2-0.2c0-0.1,0-0.2,0-0.2c0.2-0.2,0.3-0.4,0.5-0.5c1.2-1.2,1.1-2.7,0.6-4.1
			c-0.3-0.9-1.1-1.5-2-1.2c-0.6,0.2-1.1,0.9-1.3,1.5C98.5,51.6,99.3,52.2,100.5,52.4z"/>
		<path class="st2" d="M79.3,82.5c-0.2-0.1-0.4-0.2-0.6-0.3c-1.2-0.9-2.1-0.6-2.3,0.9c-0.1,0.9-0.1,1.9-0.1,2.9
			c0,1.5,1.1,2.5,2.7,2.7c1.5,0.1,2.3-0.5,2.7-2.1c0.1-0.2,0.1-0.4,0.4-0.8c1.2,2,2.4,4,3.7,6.1c-6.6,0.7-13,1.4-19.6,2.2
			c0.6-1.7,0.8-3.2,2.3-4.3c1.5-1,2.6-2.4,2.3-4.5c-0.3-1.7-1.7-2.7-3.3-2.1c-0.6-2-1.2-4-1.8-6.1c-0.1-0.2,0.1-0.6,0.2-0.8
			c0.3-0.7,0.7-1.3,1.1-2c0.7-1.5,0.3-3-0.9-4c-1.1-0.8-2.5-0.7-3.9,0.4c-3.8-4.3-9.1-5.3-14.1-6.4c0.4-1,0.9-1.9,1.1-2.9
			c0.1-0.8,0-1.7-0.4-2.4c-0.6-1.1-3-1.4-4.1-0.7c-1.3,0.8-1.8,3.2-1,5c-2.6,0.3-5.4-0.6-7.8,1c-0.1-2.1-0.1-4.1-0.4-6.1
			c-0.8-5.9-1.8-11.7-2.5-17.5c-0.6-4.4-0.9-8.9-1.4-13.3c0-0.3,0-0.6,0-0.9c3.4-1.7,7-2.6,10.7-2.6c4.9,0,9.7-0.5,14.5-1.7
			c7.2-1.7,14.6-1.7,21.9-1.5c1.7,0,3.3,0.3,5,0.6c0.5,0.1,1.1,0.6,1.2,1.1c1.5,4.5,2.5,9.2,2.7,13.9c0.1,1.7-0.3,2.8-2,3.8
			c-2.9,1.7-5.5,3.7-8.2,5.6c-0.5,0.3-0.9,0.6-1.2,0.8c-0.4-1.2-0.6-2.6-1.3-3.3c-0.7-0.7-2-0.8-3.1-1c-0.8-0.1-2.1,1.4-2.2,2.3
			c-0.3,2.8,0.2,3.8,2.8,4.6c-2,1.3-3.9,2.5-5.7,3.7c-0.9,0.6-1.9,1-2.8,1.6c-0.7,0.4-0.9,1.1-0.6,1.9c1,2.2,1.8,4.4,3,6.5
			c1.6,2.9,3.4,5.6,5.1,8.4c0.9,1.3,2,2.5,2.9,3.8c1.2,1.6,2.3,3.3,3.4,4.9c0.6,0.9,1.1,1.8,1.7,2.7C79.5,82.4,79.4,82.5,79.3,82.5z
			 M51.4,35.3C51.4,35.2,51.4,35.2,51.4,35.3c0.6-0.1,1.1,0,1.7-0.1c4.1-0.8,8.1-1.6,12.2-2.5c0.3-0.1,0.7-0.2,1-0.4
			c0.3-0.2,0.5-0.6,0.5-1c0-0.2-0.5-0.6-0.8-0.6c-0.9,0-1.8,0-2.6,0.1c-2.4,0.5-4.8,1.2-7.2,1.6c-2,0.3-4,0.4-5.9,0.6
			c-0.8,0.1-1.5,0.2-1.5,1.2c0.1,0.9,0.8,1.1,1.6,1C50.7,35.2,51.1,35.3,51.4,35.3z M54.5,48c0,2.2,1.2,3.4,3.4,3.5
			c2,0.1,2.8-0.9,3-3.2c0-0.3,0-0.6,0-1c0.1-1.2-0.5-1.9-1.6-2.3c-1.2-0.4-2.4-1.2-3.7-0.2c-0.4,0.3-0.7,0.8-0.9,1.2
			C54.6,46.8,54.6,47.4,54.5,48z M41.6,48.1c0,2.5,1.2,3.9,3.4,4c1.3,0.1,2.2-0.6,2.4-1.8c0.6-2.6-0.5-4.3-3.1-4.8
			c-1.9-0.4-2.7,0.3-2.7,2.2C41.6,47.8,41.6,48,41.6,48.1z M60,63.5c2.1,0,3.2-1,3.2-2.9c0-1.8-1.2-3.1-3.1-3
			c-2.2,0-3.3,1.1-3.3,3.3C56.9,62.6,57.9,63.5,60,63.5z"/>
		<path class="st2" d="M24.5,84.4c-0.3-3.5,0.9-6.8,2.7-10.1c1.1-2.1,2.5-3.8,4.3-5.4c0.6-0.6,1.5-0.9,2.2-1.4
			c4-2.5,8.3-2.8,12.8-1.6c3.2,0.8,6.4,1.6,9.4,2.6c2.7,1,4.8,2.9,6.2,5.6c1.3,2.6,2.5,5.2,3.1,8c0.8,4.4,0.3,8.6-1.4,12.6
			c-2,4.6-4.7,8.5-9.5,10.5c-1.3,0.5-2.7,0.7-4,0.8c-5.6,0.5-10.6-1.3-15.3-4.1c-4-2.4-7-5.8-9.2-9.9C24.4,89.9,24.3,87.3,24.5,84.4
			z M45.4,99.7c0,0.1,0.1,0.2,0.1,0.4c1.8-0.4,3.6-0.7,5.4-1.3c2.8-1,4.7-2.9,6.4-5.4c2.8-4.2,3.2-8.5,1.9-13.1
			c-0.9-3.2-2.7-6-5.9-7.5c-1.1-0.6-2.3-1.1-3.5-1.5c-2.9-1-5.7-1.4-8.6,0.1c-0.4,0.2-0.9,0.2-1.4,0.2c-1.3-0.2-2.4,0-3.4,0.8
			c-3.5,2.5-6.3,5.5-6.9,9.9c-0.2,1.5-0.3,3.1-0.2,4.7c0.1,4.1,1.9,7.3,5.1,9.7C37.5,98.8,41.3,99.8,45.4,99.7z"/>
		<path class="st2" d="M71.7,44.3c1.1,0.1,2.1-0.3,2.1,1.1c0,0.9-0.4,1.4-1.3,1.2C71.1,46.2,72.2,45.2,71.7,44.3z"/>
		<path class="st2" d="M67.7,84.7c1.5,0.7,1.5,1.6,0,2.9C67.7,86.6,67.7,85.7,67.7,84.7z"/>
		<path class="st2" d="M47.5,60.4c-0.4,0.6-0.6,1.1-0.9,1.5c-0.4-0.2-1-0.4-1-0.7C45.5,60.2,46.2,60.1,47.5,60.4z"/>
		<path class="st2" d="M64.6,74.3c-0.3-0.6-0.6-1-1-1.8c0.6-0.2,1.3-0.5,1.4-0.4C65.6,72.9,65.1,73.6,64.6,74.3z"/>
		<path d="M110.1,47.5c1.9,0.2,2.3,0.6,2.3,2.3c0,0.8,0,1.7-0.2,2.5c-0.2,1.4-1.4,2-2.5,1.2c-1.3-0.9-2.4-1.9-3.5-3
			c-0.6-0.5-0.3-1.4,0.5-1.8c0.4-0.2,0.9-0.3,1.5-0.4c-0.7-3.1-1.2-6.2-2.8-9.1c-0.4,0.3-0.8,0.5-1.1,0.7c-1.9,1.9-3.9,3.8-5.8,5.7
			c-0.5,0.5-1,0.9-1.7,0.4c-0.6-0.5-0.4-1.2,0-1.7c0.5-0.6,1.1-1.2,1.6-1.7c1.2-1.2,2.5-2.4,3.7-3.6c0.2-0.2,0.4-0.4,0.6-0.6
			c2.2-2,3.7-1.8,4.9,0.8c0.9,2.2,1.5,4.5,2.1,6.8C109.9,46.5,110,47,110.1,47.5z"/>
		<path d="M105.1,64.1c2.1,1.1,4,2.1,6.3,3.2c-0.4-2.9-0.7-5.4-1-8c0-0.3-0.1-0.6-0.2-0.9c-0.1-0.7,0-1.3,0.8-1.5
			c0.8-0.1,1.1,0.5,1.2,1.1c0.3,1.9,0.6,3.7,0.8,5.6c0.1,1.1,0.2,2.2,0.2,3.3c0,2.1-1.5,3-3.3,2.1c-1.8-0.9-3.6-1.9-5.4-2.8
			c-1.2,1.3-1.6,1.3-3,0.4c-1-0.7-1.9-1.4-2.1-2.8c-0.1-1.4,0.5-2.2,1.9-2.4c0.7-0.1,1.4,0,2,0c1.6,0,2,0.5,1.7,2.1
			C105.2,63.8,105.1,64,105.1,64.1z"/>
		<path d="M90.8,51.5c-1.4-2.2-1-3.1,1.4-3.8c0.6-0.2,1.2-0.3,1.9-0.4c1.3-0.2,2,0.5,1.8,1.8c-0.2,0.8-0.5,1.6-0.8,2.4
			c-0.2,0.5-0.6,1-1,1.5c-0.2,0.3-0.6,0.5-0.9,0.5c-0.6,0.1-1.4,0-1.9,0.3c-1.4,0.8-2.8,1.8-4.4,2.9c1.5,1,2.7,1.8,4,2.5
			c0.6,0.4,1.4,0.7,2,1.1c0.7,0.4,1,1,0.5,1.6c-0.3,0.3-1.2,0.5-1.5,0.4c-1.8-1-3.6-2-5.3-3.2c-2.1-1.5-1.9-3.4,0.2-4.8
			c0.7-0.4,1.3-0.9,2-1.4C89.4,52.3,90.1,51.9,90.8,51.5z"/>
		<path d="M83,69.7c-0.5,1.2-0.9,2.2-1.3,3.3c-0.3,0.8-0.8,1.3-1.6,0.9c-0.8-0.4-0.7-1.1-0.4-1.7c1.2-2.7,2.3-5.3,3.5-8
			c0.3-0.6,0.7-1.3,1.5-1c0.9,0.4,0.7,1.1,0.4,1.8c-0.4,0.9-0.7,1.8-1.1,2.7c0.9,0.6,1.8,1.1,2.8,1.7c0.3-0.7,0.5-1.5,1-2
			c0.3-0.4,1-0.8,1.5-0.8c0.8,0.2,0.7,1,0.5,1.6c-1,2.4-1.9,4.8-3,7.2c-0.2,0.4-0.9,0.5-1.4,0.8c-0.2-0.5-0.6-1-0.5-1.5
			c0.1-0.8,0.5-1.6,0.9-2.3c0.3-0.6,0.2-1-0.5-1.3C84.5,70.6,83.9,70.2,83,69.7z"/>
		<path d="M96.4,73.7c0.1,2-0.2,3.9-2.3,5c-1.5,0.7-3.5,0.5-4.6-0.6c-0.3-0.3-0.5-1.1-0.3-1.5c0.9-2.6,1.9-5.2,2.9-7.7
			c0.3-0.8,0.9-1,1.8-0.6c1.7,0.8,2.2,2.3,2.5,3.9C96.4,72.6,96.4,73.1,96.4,73.7z M93.5,70.9c-0.7,1.9-1.5,3.9-2.2,5.9
			c1.6,0.3,2.4,0.1,2.7-0.9C94.5,74.2,94.5,72.5,93.5,70.9z"/>
		<path d="M100.4,76.9c-0.3,0.8-0.6,1.7-1,2.4c-0.2,0.4-0.8,1-1.2,1c-0.8,0-1.1-0.7-0.9-1.4c0.4-1.1,0.9-2.2,1.4-3.3
			c0.6-1.3,1.3-2.6,1.9-3.9c0.4-0.9,0.8-1.4,1.8-1c0.1,0.1,0.3,0.1,0.5,0.1c1.4,0,2.6,0.6,3.1,2c0.5,1.3,0.3,2.7-0.7,3.8
			c-1,1.2-2.3,1.1-3.6,0.7C101.3,77.3,100.9,77.1,100.4,76.9z M102.6,72.7c-0.5,1-0.7,1.6-1.2,2.6c0.8,0,1.5,0.2,2,0
			c0.3-0.1,0.6-1,0.5-1.4C103.9,73.4,103.2,73.2,102.6,72.7z"/>
		<path d="M110.6,75.5c-0.5,0.9-0.4,1.5,0.5,2c0.3,0.2,0.4,0.9,0.6,1.4c-0.5,0.2-1,0.6-1.4,0.5c-0.8-0.2-1,0.1-1.1,0.9
			c0.6,0.2,1.3,0.3,2,0.6c0.4,0.2,0.7,0.7,1.1,1.1c-0.4,0.3-0.8,0.9-1.1,0.9c-1.2,0-2.4-0.1-3.6-0.3c-0.3-0.1-0.6-0.7-0.7-1.2
			c-0.1-0.3,0.1-0.8,0.2-1.2c0.5-2,1.1-3.9,1.7-5.8c0.4-1.4,1.5-1.8,2.7-1c0.6,0.4,1.1,0.7,1.7,1.1c0.6,0.4,1.1,0.8,0.7,1.6
			c-0.4,0.8-1.1,0.6-1.8,0.2C111.5,76,111.1,75.7,110.6,75.5z"/>
		<path d="M100.5,52.4c-1.2-0.2-2-0.7-1.6-1.8c0.2-0.6,0.7-1.2,1.3-1.5c1-0.4,1.7,0.2,2,1.2c0.5,1.5,0.6,2.9-0.6,4.1
			c-0.2,0.2-0.3,0.4-0.5,0.5c0,0,0,0.1,0,0.2c0.4,0,0.9,0,1.2,0.2c0.4,0.2,0.8,0.6,0.9,1c0,0.3-0.5,0.9-0.8,0.9
			c-1.3,0.1-2.6,0.1-3.9,0c-1.1-0.1-1.3-1.2-0.5-2.1C98.7,54.3,99.5,53.4,100.5,52.4z"/>
		<path d="M51.4,35.3c-0.4,0-0.7,0-1.1,0c-0.8,0.1-1.5-0.1-1.6-1c-0.1-0.9,0.7-1.1,1.5-1.2c2-0.1,4-0.2,5.9-0.6
			c2.4-0.4,4.8-1.1,7.2-1.6c0.8-0.2,1.7-0.2,2.6-0.1c0.3,0,0.7,0.4,0.8,0.6c0,0.3-0.2,0.7-0.5,1c-0.2,0.2-0.6,0.3-1,0.4
			c-4.1,0.8-8.1,1.7-12.2,2.5C52.5,35.3,52,35.2,51.4,35.3C51.4,35.2,51.4,35.2,51.4,35.3z"/>
		<path d="M54.5,48c0.1-0.6,0.1-1.3,0.3-1.9c0.2-0.5,0.5-0.9,0.9-1.2c1.3-1.1,2.5-0.3,3.7,0.2c1,0.4,1.6,1.1,1.6,2.3
			c0,0.3,0,0.6,0,1c-0.1,2.3-1,3.3-3,3.2C55.7,51.5,54.5,50.2,54.5,48z M56.9,46.8c-0.4,1.7-0.2,2.4,0.8,2.5c0.9,0.1,0.9-0.5,1-1.1
			C58.8,47,58.6,46.9,56.9,46.8z"/>
		<path d="M41.6,48.1c0-0.2,0-0.3,0-0.5c0-1.9,0.9-2.6,2.7-2.2c2.6,0.5,3.7,2.3,3.1,4.8c-0.3,1.2-1.2,1.9-2.4,1.8
			C42.8,52,41.6,50.6,41.6,48.1z M45.3,49.9c0-0.6,0-1.1,0-1.7c-0.6,0.1-1,0.1-1.5,0.2C43.5,49.6,44.3,49.8,45.3,49.9z"/>
		<path d="M60,63.5c-2.1,0-3.1-0.9-3.1-2.7c0-2.2,1.1-3.3,3.3-3.3c1.9,0,3.1,1.2,3.1,3C63.2,62.6,62.1,63.6,60,63.5z M60.1,59.3
			c-0.5,0.7-0.8,1.1-1,1.4c0.3,0.2,0.7,0.7,1,0.6c0.4-0.1,0.8-0.4,1-0.8C61.1,60.4,60.6,59.9,60.1,59.3z"/>
		<path d="M45.4,99.7c-4,0.1-7.8-0.9-11.1-3.2c-3.2-2.3-5-5.6-5.1-9.7c0-1.6,0-3.1,0.2-4.7c0.6-4.5,3.3-7.5,6.9-9.9
			c1-0.7,2.2-1,3.4-0.8c0.4,0.1,1,0,1.4-0.2c2.9-1.5,5.7-1,8.6-0.1c1.2,0.4,2.4,0.9,3.5,1.5c3.2,1.5,4.9,4.3,5.9,7.5
			c1.3,4.6,1,9-1.9,13.1c-1.7,2.4-3.6,4.4-6.4,5.4c-1.7,0.6-3.6,0.9-5.4,1.3C45.4,99.9,45.4,99.8,45.4,99.7z M48.1,97.5
			c0.4-0.1,0.6-0.2,0.9-0.3c2.8-1,4.9-2.7,6.6-5.3c2-3.1,2.4-6.3,1.7-9.7C56.9,80.4,56,78.6,55,77c-1.5-2.5-4.3-3.2-6.9-4
			c-2.1-0.7-4.3-0.8-6.4,0.3c-0.6,0.3-1.4,0.1-2.2,0.2c-0.7,0.1-1.6,0.1-2.2,0.5c-2.8,2-5.3,4.3-5.8,8c-0.2,1.4-0.3,2.8-0.3,4.2
			c0,4.4,2,7.6,5.9,9.6c1.1,0.5,2.2,1,3.4,1.2c1.6,0.3,3.3,0.4,5,0.6c0.1-0.1,0.2-0.3,0.3-0.4c-2.1-4.3-4.2-8.7-6.3-13
			c-0.2-0.3-0.5-0.7-0.4-1c0-0.5,0.1-1.3,0.5-1.5c0.6-0.4,1.2,0,1.5,0.7c0.1,0.3,0.3,0.6,0.4,0.9c0.3-0.2,0.6-0.4,0.8-0.6
			c1.6-1.5,3.3-3.1,4.9-4.5c1-0.9,2.2-0.9,3,0.1c1.3,1.8,2.4,3.8,3.5,5.7c0.4,0.7,0.2,1.4-0.6,1.9c-1.2,0.8-2.5,1.5-3.7,2.4
			c-1.4,0.9-2.7,1.9-4.1,3C46.2,93.2,47.1,95.3,48.1,97.5z M48.6,79.5c-2,1.9-3.8,3.6-5.6,5.3c-0.1,0.1-0.3,0.5-0.2,0.6
			c0.5,1.1,1.1,2.3,1.7,3.5c2.4-1.7,4.7-3.3,6.9-4.8C50.5,82.7,49.7,81.2,48.6,79.5z"/>
		<path class="st2" d="M93.5,70.9c1,1.6,1,3.3,0.5,5c-0.3,0.9-1.1,1.1-2.7,0.9C92,74.8,92.7,72.8,93.5,70.9z"/>
		<path class="st2" d="M102.6,72.7c0.6,0.5,1.2,0.8,1.3,1.2c0.1,0.4-0.2,1.3-0.5,1.4c-0.5,0.2-1.2,0-2,0
			C101.9,74.3,102.2,73.7,102.6,72.7z"/>
		<path class="st2" d="M56.9,46.8c1.8,0,1.9,0.2,1.8,1.4c0,0.6-0.1,1.2-1,1.1C56.7,49.2,56.5,48.6,56.9,46.8z"/>
		<path class="st2" d="M45.3,49.9c-1-0.1-1.8-0.3-1.5-1.6c0.5,0,0.9-0.1,1.5-0.2C45.3,48.8,45.3,49.3,45.3,49.9z"/>
		<path class="st2" d="M60.1,59.3c0.5,0.7,1,1.1,0.9,1.3c-0.2,0.4-0.6,0.7-1,0.8c-0.3,0-0.7-0.4-1-0.6C59.3,60.3,59.6,60,60.1,59.3z
			"/>
		<path class="st2" d="M48.1,97.5c-1-2.2-1.9-4.3-2.8-6.4c1.4-1,2.7-2,4.1-3c1.2-0.8,2.5-1.6,3.7-2.4c0.7-0.5,1-1.1,0.6-1.9
			c-1.1-1.9-2.3-3.9-3.5-5.7c-0.7-1-1.9-1-3-0.1c-1.7,1.5-3.3,3-4.9,4.5c-0.2,0.2-0.5,0.4-0.8,0.6c-0.2-0.3-0.3-0.6-0.4-0.9
			c-0.3-0.7-0.9-1.1-1.5-0.7c-0.3,0.2-0.4,1-0.5,1.5c0,0.3,0.3,0.6,0.4,1c2.1,4.3,4.2,8.7,6.3,13c-0.1,0.1-0.2,0.3-0.3,0.4
			c-1.7-0.2-3.3-0.3-5-0.6c-1.2-0.2-2.3-0.7-3.4-1.2c-3.9-2-5.9-5.2-5.9-9.6c0-1.4,0.1-2.8,0.3-4.2c0.5-3.7,3-6,5.8-8
			c0.6-0.4,1.4-0.3,2.2-0.5c0.7-0.1,1.6,0.1,2.2-0.2c2.1-1.1,4.3-1,6.4-0.3c2.6,0.8,5.3,1.6,6.9,4c1,1.6,1.9,3.4,2.3,5.2
			c0.7,3.4,0.3,6.6-1.7,9.7c-1.7,2.5-3.8,4.3-6.6,5.3C48.7,97.3,48.5,97.4,48.1,97.5z"/>
		<path class="st2" d="M48.6,79.5c1,1.7,1.9,3.1,2.8,4.7c-2.3,1.6-4.5,3.1-6.9,4.8c-0.6-1.3-1.2-2.4-1.7-3.5
			c-0.1-0.1,0.1-0.5,0.2-0.6C44.8,83.1,46.6,81.4,48.6,79.5z"/>
	</g>
</g>
</svg>
