<?xml version="1.0" encoding="utf-8"?>
<!-- Generator: Adobe Illustrator 24.0.1, SVG Export Plug-In . SVG Version: 6.00 Build 0)  -->
<svg version="1.1" xmlns="http://www.w3.org/2000/svg" xmlns:xlink="http://www.w3.org/1999/xlink" x="0px" y="0px"
	 viewBox="0 0 156.8 136.3" style="enable-background:new 0 0 156.8 136.3;" xml:space="preserve">
<style type="text/css">
	.st0{fill:#B7D6E2;}
	.st1{fill:#DDDDDD;}
	.st2{fill:#FFFFFF;}
</style>
<g id="Calque_2">
	<g>
		<path class="st0" d="M141.2,72.7c-3.1,7.6-9.5,12.8-16.3,15.7c-6.8,2.9-14.1,3.6-21.3,4.4c-10,1-20,2-30,3.1
			c-9.9,1-19.8,2-29.8,1.4c-6.2-0.4-12.5-1.5-18-4.7s-10.4-8.7-12-15.6c-0.9-3.8-0.9-7.9-0.3-11.9C15,52.5,21.2,41,30,33.8
			s20.3-10,30.9-7.6c10.6,2.4,19.8,9.6,29.8,14.4c7.9,3.7,16.3,5.9,24.8,6.4c7.2,0.4,14.8-0.2,21.1,3.8c6.3,4,9.9,15,4.7,20.7"/>
	</g>
</g>
<g id="Calque_1">
	<g>
		<path d="M57.5,90c-1.3-0.4-2.4-0.7-3.5-1c-2.5-0.6-5-1.2-7.6-1.8c-3-0.7-6-1.3-8.9-2.1c-1.7-0.5-3.3-1.2-5-1.8
			c-1.5-0.5-3-1.1-4.5-1.5c-1.9-0.5-2.2-0.9-1.7-2.9c1.2-5,2.2-10.1,3.7-15c1.5-5,3.3-9.9,5.1-14.8c0.4-1,1.1-2,1.5-3
			c0.5-1.2,1.3-1.5,2.5-1.6c4.9-0.4,9.7,0.4,14.5,1.4c4.1,0.8,8.2,1.1,12.3,1.7c3.1,0.5,6.2,0.9,9.1,1.8c4.6,1.2,9.1,2.8,13.6,4.2
			c1.7,0.5,3.3,1.3,4.9,2c0.1,0.1,0.4,0.1,0.4,0.2c0.6,1.4,1.8,0.9,2.7,0.8c3.9-0.6,7.8-1.3,11.7-1.9c3.5-0.6,7-1,10.5-1.5
			c0.5-0.1,1.1-0.2,1.6-0.4c1.3-0.5,2.3,0,2.6,1.4c0.6,2.8,1,5.6,1.8,8.3c1.8,6.7,3.6,13.4,5.5,20.1c1,3.5,2,7.1,3.1,10.6
			c0.3,1.1,0.1,1.8-1,2.1c-3.5,1.2-7,2.4-10.5,3.6c-1.7,0.6-3.4,1.1-5.2,1.6c-7.8,2.1-15.6,4.3-23.5,6.2c-5.2,1.3-10.4,2.5-15.8,2.8
			c-4.1,0.3-8.2,1.1-12.3,1.8c-1.3,0.2-2.5-0.6-3.1-2.2C60.1,102.7,58,96.6,57.5,90C57.5,90,57.5,89.9,57.5,90z M121.2,55
			C98.8,57.8,76.9,62.1,55,66.4c0,0.1,0,0.2,0.1,0.4c1.6,6.8,3.4,13.5,4.3,20.5c0.6,4.7,0.9,9.5,2.6,14c0.9,2.5,1.7,5.1,2.5,7.5
			c4.4-0.6,8.7-1.3,13-1.6c5.8-0.4,11.3-1.8,16.9-3.2c3.5-0.9,6.9-1.9,10.4-2.7c8.3-2,16.6-4.4,24.7-7.2c1.5-0.5,1.8-1.2,1.4-2.6
			c-1.1-3.7-2.2-7.4-3.3-11.1c-1.6-5.9-3.3-11.9-4.8-17.8C122.1,60,121.7,57.4,121.2,55z M91.2,57.3c0-0.1,0.1-0.2,0.1-0.2
			c-0.4-0.2-0.8-0.5-1.2-0.6c-4.7-1.6-9.3-3-14-4.6c-3.9-1.3-8-1.9-12.1-2.3c-3.8-0.4-7.6-1-11.4-1.7c-4.3-0.8-8.5-1.7-12.9-1.2
			c-0.4,0-1,0.2-1.2,0.5c-0.8,1.3-1.4,2.7-2.2,4.2c5,1.1,9.9,2.2,14.8,3.1c4.1,0.8,8.3,1.4,12.5,2.3c4,0.8,8,1.9,12,2.9
			c0.5,0.1,0.9,0.4,1.4,0.3C81.7,59,86.5,58.2,91.2,57.3z M44.8,60.8c-3.3-0.3-6.4-0.7-9.5-0.8c-1.9-0.1-2.3,0.6-2.8,2.5
			c-0.2,0.7,0.1,1,0.7,1.1c1.2,0.3,2.5,0.6,3.7,0.9c2.1,0.4,4.2,0.8,6.4,1.2C43.8,64.1,44.2,62.6,44.8,60.8z M41,73.1
			c-3.7-0.7-7.1-1.7-10.8-1.2c-0.3,1.2-0.5,2.3-0.8,3.3c1.7,0.4,3.3,0.7,4.9,1c1.4,0.3,2.7,0.7,4.1,1c0.8,0.2,1.3,0,1.6-0.9
			C40.3,75.3,40.7,74.3,41,73.1z M46.6,55.5c-3.7-0.7-7.3-1.4-11-2.2c-0.5,1.5-1,3-1.4,4.2c3.9,0.4,7.6,0.8,11.4,1.1
			C45.9,57.7,46.2,56.7,46.6,55.5z M45.5,66.1c2.6,0.9,5.1,1.8,7.6,2.7c0-1-0.2-1.7-0.4-2.4c-0.5-1.5-0.2-2.1,1.4-2.3
			c1-0.1,1.9-0.3,2.9-0.4c0-0.2,0-0.3,0-0.5c-3.2-0.6-6.3-1.3-9.5-1.9c-0.2,0-0.7,0.3-0.7,0.5C46.3,63.2,45.9,64.5,45.5,66.1z
			 M30.8,69.3c2.9,0.4,5.6,0.8,8.3,1.2c2.9,0.5,2.9,0.6,3.5-2.4c0-0.1,0-0.2,0-0.2c-3.5-0.8-7.1-1.6-10.8-2.4
			C31.5,66.7,31.1,68.1,30.8,69.3z M50.1,81.1c-2.2-0.4-4.3-0.9-6.3-1.2c-2.6-0.3-2.6-0.2-3.7,2.2c-0.4,0.8-0.3,1.2,0.6,1.5
			c2.4,0.6,4.9,1.2,7.3,1.8c0.7,0.2,1-0.1,1.1-0.7C49.4,83.6,49.7,82.5,50.1,81.1z M47.7,59c3.7,0.9,7.3,1.7,10.9,2.6
			c0.5-1.1,0.9-2.2,1.5-3.5c-3.8-0.6-7.5-1.2-11.4-1.9C48.3,57.1,48,58,47.7,59z M41.9,77.4c2.1,0.4,4.1,0.7,6.1,1
			c1,0.2,2.2,0.9,2.8,0.5c0.7-0.5,0.8-1.8,1.1-2.8c0-0.1,0-0.2,0-0.3c-0.7-0.1-1.5-0.3-2.2-0.5c-1.8-0.5-3.6-1.1-5.5-1.7
			c-0.7-0.2-1.2-0.1-1.4,0.8C42.6,75.4,42.3,76.4,41.9,77.4z M44.9,68.1c-0.3,1.2-0.6,2.2-0.9,3.3c3,0.9,5.9,1.7,8.8,2.6
			c0.2-0.7,0.4-1.1,0.5-1.5c0.5-1.4,0.4-1.4-1-1.9c-1.4-0.4-2.9-0.9-4.3-1.4C47,68.9,46,68.5,44.9,68.1z M38.9,79.5
			c-3.3-0.8-6.5-1.5-9.8-2.3c-0.2,0.8-0.4,1.5-0.5,2.1c3,1.2,6,2.3,8.9,3.5C37.9,81.7,38.4,80.7,38.9,79.5z M71.2,61.2
			c0-0.1,0-0.2,0-0.2c-2.5-0.7-4.9-1.4-7.4-2c-1.9-0.5-1.5-0.7-2.3,1.1c-0.3,0.7-0.6,1.5-1,2.4c0.7,0.2,1.2,0.6,1.7,0.5
			C65.3,62.3,68.2,61.7,71.2,61.2z M51,85.8c2.1,0.6,4,1.2,6.2,1.9c-0.2-1.7-0.4-3.2-0.6-4.6c-1.5-0.4-2.9-0.8-4.5-1.2
			C51.7,83.2,51.4,84.5,51,85.8z M52.9,79.9c1.1,0.3,2.1,0.5,3.3,0.8c-0.9-1.5-0.1-3.4-2.3-4.1C53.7,77.7,53.3,78.7,52.9,79.9z"/>
		<path class="st2" d="M121.2,55c0.5,2.4,0.9,5,1.6,7.4c1.5,5.9,3.2,11.9,4.8,17.8c1,3.7,2.2,7.4,3.3,11.1c0.4,1.5,0.1,2.1-1.4,2.6
			c-8.1,2.9-16.3,5.2-24.7,7.2c-3.5,0.8-6.9,1.8-10.4,2.7c-5.6,1.4-11.1,2.8-16.9,3.2c-4.3,0.3-8.6,1.1-13,1.6
			c-0.8-2.4-1.6-5-2.5-7.5c-1.6-4.5-1.9-9.3-2.6-14c-0.9-7-2.7-13.7-4.3-20.5c0-0.2-0.1-0.3-0.1-0.4C76.9,62.1,98.8,57.8,121.2,55z
			 M90.2,79.7c-2.2,1.3-3,3.6-3.8,5.7c-0.6,1.5,0.1,2.3,1.7,2.3c0.6,0,1.1-0.2,1.7-0.3c3-0.4,5.8-1.8,8.6-2.9
			c0.7-0.3,1.5-0.8,1.8-1.5c0.4-1-0.4-1.8-1.2-2.4c-1.4-1.3-3.1-1.5-4.9-1.5c-1.9,0-1.9-0.1-2.3-2.1c0.8-0.2,1.7-0.4,2.5-0.5
			c0.9-0.2,1.7-0.3,2.6-0.5c1.1-0.3,1.5-1,1.3-2.1c-0.2-1-0.5-2-0.7-3c-0.3-1.2-0.9-1.7-2.1-1.2c-1.9,0.8-3.7,1.7-5.5,2.6
			c-1.5,0.8-1.6,1-1.2,2.6C89,76.6,89.6,78.1,90.2,79.7z M111.5,59.7c-1,0.2-2,0.3-2.9,0.5c-2.3,0.5-4.6,1.1-6.8,1.7
			c-0.7,0.2-1.2,0.6-0.9,1.4c0.2,0.8,0.9,0.8,1.6,0.6c0.3-0.1,0.6-0.2,0.9-0.3c2.8-0.6,5.6-1.3,8.4-1.8c0.8-0.1,1.5-0.2,1.4-1.2
			C113,59.8,112.3,59.7,111.5,59.7z M86,96.7c0.1-0.1,0.1-0.2,0.2-0.3c2.6-0.4,5.3-0.8,7.9-1.2c0.3-0.1,0.9-0.7,0.8-1
			c-0.1-0.4-0.6-0.7-1-1c-0.1-0.1-0.3-0.1-0.5,0c-2.6,0.4-5.1,0.8-7.6,1.3c-0.4,0.1-0.9,0.8-0.9,1.1C85,96,85.6,96.3,86,96.7z
			 M118.9,79.5c-2.7,0.5-5.1,0.8-7.6,1.3c-0.4,0.1-1.1,0.7-1.1,1.1c-0.1,0.8,0.7,1.1,1.3,1c2.5-0.4,5-0.8,7.4-1.3
			c0.3-0.1,0.8-0.8,0.8-1.2C119.7,80.1,119.1,79.7,118.9,79.5z M69.9,72.8c-1.9,0.3-4,0.7-6.1,1c-0.8,0.1-1.6,0.3-1.5,1.3
			c0.2,1,1,1,1.8,0.9c2-0.3,4.1-0.7,6.1-1c0.8-0.1,1.5-0.2,1.4-1.2C71.7,72.8,70.8,72.8,69.9,72.8z M70.9,84.3
			c2.7-0.4,5.1-0.7,7.5-1.2c0.3-0.1,0.6-0.8,0.9-1.2c-0.4-0.3-0.9-0.8-1.3-0.7c-2,0.2-4,0.5-5.9,0.8c-0.5,0.1-1,0.2-1.4,0.6
			c-0.3,0.2-0.5,0.8-0.4,1.1C70.2,83.9,70.7,84.1,70.9,84.3z M67.6,72.4c0.5,0,0.6,0,0.8,0c0.9,0,2,0.1,1.9-1.2
			c-0.1-1.2-1.1-1.1-1.9-1c-1.9,0.2-3.9,0.3-5.8,0.6c-0.4,0.1-0.7,0.7-1.1,1c0.3,0.3,0.6,0.8,1,1c0.4,0.2,0.9,0.1,1.3,0.1
			C65.2,72.7,66.5,72.5,67.6,72.4z M93.8,96C93.7,96,93.7,95.9,93.8,96c-1.8,0.2-3.6,0.4-5.3,0.8c-0.4,0.1-0.7,0.8-1,1.2
			c0.5,0.3,1,0.7,1.5,0.8c0.4,0.1,0.9-0.2,1.4-0.2c1.3-0.2,2.7-0.3,4-0.5c0.7-0.1,1.4-0.3,1.2-1.1c-0.1-0.4-0.9-0.7-1.4-1
			C94.1,95.9,93.9,96,93.8,96z M72.9,87c2-0.5,3.8-0.8,5.6-1.3c0.3-0.1,0.7-0.8,0.7-1.1c-0.1-0.4-0.7-0.9-1-0.8
			c-1.8,0.3-3.7,0.8-5.4,1.3c-0.3,0.1-0.6,0.8-0.6,1.1C72.2,86.5,72.7,86.8,72.9,87z M103.7,67c1.9-0.5,3.6-0.9,5.3-1.5
			c0.3-0.1,0.7-0.9,0.6-1.1c-0.3-0.4-0.9-0.8-1.3-0.8c-1.6,0.3-3.3,0.7-4.9,1.3c-0.3,0.1-0.7,0.8-0.7,1.2
			C102.8,66.5,103.4,66.7,103.7,67z M117.1,84.8c-0.5-0.5-0.8-0.9-1.2-1c-2-0.2-3.9,0.1-5.6,1.2c-0.3,0.2-0.5,1-0.4,1.3
			c0.1,0.3,0.9,0.5,1.3,0.4c1.5-0.3,2.9-0.6,4.4-1C116.2,85.7,116.5,85.3,117.1,84.8z M75.9,86.9c-0.1,0.1-0.1,0.2-0.2,0.2
			c-0.6,0.1-1.2,0-1.8,0.2c-0.4,0.2-1,0.7-1,0.9c0.1,0.4,0.5,1,0.9,1.1c0.6,0.1,1.3-0.1,2-0.1c0.7-0.1,1.5-0.3,1.3-1.1
			C77.1,87.6,76.3,87.3,75.9,86.9z M109,67.1c-1,0.4-1.8,0.6-2.5,1c-0.3,0.2-0.6,0.9-0.4,1.2c0.2,0.3,0.8,0.6,1.2,0.6
			c0.7,0,1.3-0.3,1.9-0.6c0.4-0.2,0.8-0.8,0.8-1.1C110,67.8,109.4,67.5,109,67.1z M92.5,99.4c-0.9,0.2-1.5,0.2-2,0.5
			c-0.4,0.2-0.8,0.8-0.7,1.2c0.1,0.4,0.7,0.8,1.1,0.8c0.6,0.1,1.2-0.1,1.7-0.4c0.4-0.2,0.8-0.8,0.8-1.1
			C93.3,100,92.7,99.6,92.5,99.4z M117.8,86.1c-1.6,0-2.8,0.7-2.6,1.4c0.1,0.4,0.7,1,1.1,1c1.2,0.1,2.3-0.6,2.2-1.3
			C118.4,86.7,118,86.3,117.8,86.1z"/>
		<path class="st2" d="M91.2,57.3c-4.7,0.9-9.5,1.8-14.3,2.6c-0.4,0.1-0.9-0.2-1.4-0.3c-4-1-8-2.1-12-2.9c-4.1-0.9-8.3-1.4-12.5-2.3
			c-4.9-1-9.8-2.1-14.8-3.1c0.7-1.5,1.4-2.9,2.2-4.2c0.2-0.3,0.8-0.4,1.2-0.5c4.4-0.4,8.7,0.4,12.9,1.2c3.8,0.7,7.6,1.3,11.4,1.7
			c4.1,0.4,8.2,1,12.1,2.3c4.6,1.6,9.3,3.1,14,4.6c0.4,0.1,0.8,0.4,1.2,0.6C91.3,57.1,91.2,57.2,91.2,57.3z"/>
		<path class="st2" d="M44.8,60.8c-0.5,1.8-1,3.3-1.5,5c-2.2-0.4-4.3-0.8-6.4-1.2c-1.2-0.3-2.5-0.6-3.7-0.9
			c-0.6-0.1-0.8-0.4-0.7-1.1c0.4-1.9,0.9-2.6,2.8-2.5C38.4,60.1,41.5,60.5,44.8,60.8z"/>
		<path class="st2" d="M41,73.1c-0.4,1.2-0.8,2.2-1,3.2c-0.2,0.9-0.7,1.1-1.6,0.9c-1.4-0.3-2.7-0.7-4.1-1c-1.6-0.4-3.2-0.7-4.9-1
			c0.2-1,0.5-2.1,0.8-3.3C33.9,71.5,37.4,72.4,41,73.1z"/>
		<path class="st2" d="M46.6,55.5c-0.4,1.2-0.7,2.2-1,3.2c-3.8-0.4-7.5-0.8-11.4-1.1c0.4-1.3,1-2.8,1.4-4.2
			C39.2,54.1,42.8,54.8,46.6,55.5z"/>
		<path class="st2" d="M45.5,66.1c0.4-1.5,0.8-2.9,1.3-4.3c0.1-0.2,0.5-0.5,0.7-0.5c3.2,0.6,6.3,1.3,9.5,1.9c0,0.2,0,0.3,0,0.5
			c-1,0.1-1.9,0.3-2.9,0.4c-1.5,0.2-1.9,0.8-1.4,2.3c0.2,0.7,0.4,1.4,0.4,2.4C50.6,67.9,48.1,67,45.5,66.1z"/>
		<path class="st2" d="M30.8,69.3c0.3-1.2,0.7-2.6,1-3.8c3.7,0.8,7.3,1.6,10.8,2.4c0,0.1,0.1,0.2,0,0.2c-0.6,3-0.6,2.9-3.5,2.4
			C36.4,70.1,33.7,69.7,30.8,69.3z"/>
		<path class="st2" d="M50.1,81.1c-0.4,1.4-0.7,2.5-1,3.6c-0.2,0.6-0.5,0.9-1.1,0.7c-2.4-0.6-4.9-1.3-7.3-1.8c-1-0.2-1-0.7-0.6-1.5
			c1.1-2.4,1.1-2.5,3.7-2.2C45.8,80.2,47.9,80.7,50.1,81.1z"/>
		<path class="st2" d="M47.7,59c0.3-0.9,0.7-1.9,1-2.8c3.8,0.6,7.5,1.2,11.4,1.9c-0.5,1.3-1,2.4-1.5,3.5C55,60.7,51.4,59.8,47.7,59z
			"/>
		<path class="st2" d="M41.9,77.4c0.3-1.1,0.7-2,0.9-3c0.2-0.9,0.7-1,1.4-0.8c1.8,0.6,3.6,1.2,5.5,1.7c0.7,0.2,1.5,0.3,2.2,0.5
			c0,0.2,0,0.2,0,0.3c-0.3,1-0.4,2.3-1.1,2.8c-0.5,0.4-1.8-0.3-2.8-0.5C46,78.1,44,77.8,41.9,77.4z"/>
		<path class="st2" d="M44.9,68.1c1.1,0.4,2.1,0.7,3.1,1.1c1.4,0.5,2.9,1,4.3,1.4c1.4,0.4,1.5,0.5,1,1.9c-0.1,0.4-0.3,0.8-0.5,1.5
			c-2.9-0.9-5.8-1.7-8.8-2.6C44.3,70.4,44.6,69.4,44.9,68.1z"/>
		<path class="st2" d="M38.9,79.5c-0.5,1.1-0.9,2.1-1.5,3.3c-2.9-1.1-5.9-2.3-8.9-3.5c0.1-0.6,0.3-1.3,0.5-2.1
			C32.3,78,35.5,78.8,38.9,79.5z"/>
		<path class="st2" d="M71.2,61.2c-3,0.6-5.9,1.2-8.9,1.7c-0.5,0.1-1.1-0.3-1.7-0.5c0.4-0.9,0.7-1.6,1-2.4c0.8-1.8,0.5-1.6,2.3-1.1
			c2.5,0.6,4.9,1.4,7.4,2C71.2,61,71.2,61.1,71.2,61.2z"/>
		<path class="st2" d="M51,85.8c0.4-1.4,0.7-2.6,1.1-4c1.5,0.4,3,0.8,4.5,1.2c0.2,1.5,0.4,3,0.6,4.6C55,87,53,86.5,51,85.8z"/>
		<path class="st2" d="M52.9,79.9c0.4-1.2,0.7-2.2,1.1-3.2c2.1,0.6,1.3,2.6,2.3,4.1C55,80.4,54.1,80.1,52.9,79.9z"/>
		<path d="M90.2,79.7c-0.5-1.6-1.1-3.1-1.5-4.7c-0.4-1.6-0.3-1.9,1.2-2.6c1.8-0.9,3.6-1.9,5.5-2.6c1.2-0.5,1.8,0,2.1,1.2
			c0.2,1,0.5,2,0.7,3c0.2,1.1-0.2,1.8-1.3,2.1c-0.9,0.2-1.7,0.4-2.6,0.5c-0.8,0.2-1.7,0.4-2.5,0.5c0.4,2,0.5,2,2.3,2.1
			c1.8,0,3.5,0.2,4.9,1.5c0.7,0.7,1.6,1.4,1.2,2.4c-0.3,0.6-1.1,1.2-1.8,1.5c-2.8,1.1-5.5,2.5-8.6,2.9c-0.6,0.1-1.1,0.2-1.7,0.3
			c-1.6,0.1-2.3-0.8-1.7-2.3C87.2,83.3,88,81,90.2,79.7z M90.8,82.2c-0.1-0.1-0.2-0.2-0.2-0.3c-0.6,1.1-1.2,2.2-1.9,3.3
			c0.1,0.1,0.2,0.3,0.3,0.4c2.9-1,5.8-2,8.8-3.1c-1.4-1.5-3-1.2-4.2-1.3c-0.5,0.7-0.8,1.5-1.3,1.6C91.9,83.1,91.3,82.5,90.8,82.2z
			 M90.9,75.1c1.7-0.3,3.3-0.7,5-1c-0.2-0.8-0.4-1.4-0.5-2.1C92.9,72.5,90.7,74.1,90.9,75.1z"/>
		<path d="M111.5,59.7c0.8,0,1.6,0.1,1.6,1.1c0.1,1-0.7,1-1.4,1.2c-2.8,0.5-5.6,1.2-8.4,1.8c-0.3,0.1-0.6,0.2-0.9,0.3
			c-0.7,0.2-1.3,0.2-1.6-0.6c-0.2-0.8,0.3-1.2,0.9-1.4c2.3-0.6,4.5-1.2,6.8-1.7C109.5,60,110.5,59.8,111.5,59.7z"/>
		<path d="M86,96.7c-0.4-0.4-1-0.7-1.1-1.1c-0.1-0.3,0.5-1,0.9-1.1c2.5-0.5,5.1-0.9,7.6-1.3c0.2,0,0.4-0.1,0.5,0
			c0.4,0.3,0.9,0.6,1,1c0.1,0.3-0.5,0.9-0.8,1c-2.6,0.5-5.3,0.8-7.9,1.2C86.1,96.4,86.1,96.5,86,96.7z"/>
		<path d="M118.9,79.5c0.2,0.2,0.8,0.6,0.8,0.9c0,0.4-0.4,1.1-0.8,1.2c-2.5,0.5-4.9,0.9-7.4,1.3c-0.7,0.1-1.4-0.2-1.3-1
			c0-0.4,0.7-1,1.1-1.1C113.7,80.3,116.2,80,118.9,79.5z"/>
		<path d="M69.9,72.8c0.9,0,1.7,0,1.8,1c0.1,1-0.7,1.1-1.4,1.2c-2,0.3-4.1,0.6-6.1,1c-0.8,0.1-1.6,0.1-1.8-0.9
			c-0.2-1,0.7-1.2,1.5-1.3C66,73.5,68,73.1,69.9,72.8z"/>
		<path d="M70.9,84.3c-0.1-0.1-0.6-0.4-0.7-0.7c-0.1-0.3,0.1-0.9,0.4-1.1c0.4-0.3,0.9-0.5,1.4-0.6c2-0.3,3.9-0.6,5.9-0.8
			c0.4,0,0.9,0.5,1.3,0.7c-0.3,0.4-0.5,1.1-0.9,1.2C76,83.5,73.5,83.9,70.9,84.3z"/>
		<path d="M67.6,72.4c-1.1,0.1-2.5,0.3-3.8,0.5c-0.4,0-0.9,0.1-1.3-0.1c-0.4-0.2-0.7-0.6-1-1c0.4-0.4,0.7-1,1.1-1
			c1.9-0.3,3.9-0.4,5.8-0.6c0.8-0.1,1.9-0.2,1.9,1c0.1,1.3-1,1.2-1.9,1.2C68.2,72.3,68.1,72.4,67.6,72.4z"/>
		<path d="M93.8,96c0.2,0,0.4-0.1,0.5,0c0.5,0.3,1.3,0.6,1.4,1c0.2,0.8-0.6,1-1.2,1.1c-1.3,0.2-2.7,0.3-4,0.5
			c-0.5,0.1-1,0.3-1.4,0.2c-0.5-0.1-1-0.5-1.5-0.8c0.3-0.4,0.6-1.1,1-1.2C90.2,96.4,92,96.2,93.8,96C93.7,95.9,93.7,96,93.8,96z"/>
		<path d="M72.9,87c-0.2-0.2-0.7-0.5-0.8-0.8c-0.1-0.4,0.3-1.1,0.6-1.1c1.8-0.5,3.6-0.9,5.4-1.3c0.3-0.1,0.9,0.5,1,0.8
			c0.1,0.3-0.3,1-0.7,1.1C76.7,86.2,74.9,86.5,72.9,87z"/>
		<path d="M103.7,67c-0.3-0.3-0.9-0.5-0.9-0.9c-0.1-0.4,0.3-1,0.7-1.2c1.6-0.5,3.2-1,4.9-1.3c0.4-0.1,1,0.4,1.3,0.8
			c0.1,0.1-0.3,1-0.6,1.1C107.3,66.1,105.6,66.5,103.7,67z"/>
		<path d="M117.1,84.8c-0.6,0.4-1,0.8-1.4,1c-1.4,0.4-2.9,0.8-4.4,1c-0.4,0.1-1.1-0.1-1.3-0.4c-0.2-0.3,0.1-1.1,0.4-1.3
			c1.7-1.1,3.6-1.4,5.6-1.2C116.3,83.9,116.6,84.4,117.1,84.8z"/>
		<path d="M75.9,86.9c0.5,0.4,1.2,0.7,1.3,1.2c0.2,0.9-0.6,1.1-1.3,1.1c-0.7,0.1-1.4,0.3-2,0.1c-0.4-0.1-0.9-0.7-0.9-1.1
			c0-0.2,0.6-0.7,1-0.9c0.5-0.2,1.2-0.2,1.8-0.2C75.8,87,75.8,87,75.9,86.9z"/>
		<path d="M109,67.1c0.4,0.4,0.9,0.7,1,1.1c0.1,0.3-0.4,0.9-0.8,1.1c-0.6,0.3-1.3,0.5-1.9,0.6c-0.4,0-1-0.3-1.2-0.6
			c-0.1-0.2,0.1-1,0.4-1.2C107.2,67.7,108.1,67.5,109,67.1z"/>
		<path d="M92.5,99.4c0.3,0.3,0.8,0.6,0.9,1c0,0.3-0.4,0.9-0.8,1.1c-0.5,0.3-1.2,0.4-1.7,0.4c-0.4,0-1-0.5-1.1-0.8
			c-0.1-0.3,0.3-0.9,0.7-1.2C90.9,99.6,91.6,99.6,92.5,99.4z"/>
		<path d="M117.8,86.1c0.2,0.2,0.6,0.6,0.7,1c0.1,0.7-1,1.4-2.2,1.3c-0.4,0-1-0.6-1.1-1C115,86.8,116.2,86.1,117.8,86.1z"/>
		<path class="st2" d="M90.8,82.2c0.5,0.3,1.1,0.8,1.5,0.7c0.5-0.1,0.7-0.9,1.3-1.6c1.2,0,2.7-0.2,4.2,1.3c-3,1.1-5.9,2.1-8.8,3.1
			c-0.1-0.1-0.2-0.3-0.3-0.4c0.6-1.1,1.2-2.2,1.9-3.3C90.6,82,90.7,82.1,90.8,82.2z"/>
		<path class="st2" d="M90.9,75.1c-0.2-1,2-2.6,4.5-3.1c0.2,0.6,0.3,1.3,0.5,2.1C94.2,74.4,92.6,74.7,90.9,75.1z"/>
	</g>
</g>
</svg>
