<?xml version="1.0" encoding="utf-8"?>
<!-- Generator: Adobe Illustrator 24.0.1, SVG Export Plug-In . SVG Version: 6.00 Build 0)  -->
<svg version="1.1" xmlns="http://www.w3.org/2000/svg" xmlns:xlink="http://www.w3.org/1999/xlink" x="0px" y="0px"
	 viewBox="0 0 156.8 136.3" style="enable-background:new 0 0 156.8 136.3;" xml:space="preserve">
<style type="text/css">
	.st0{fill:#B7D6E2;}
	.st1{fill:#C0ADD5;}
	.st2{fill:#DDDDDD;}
	.st3{fill:#FFFFFF;}
</style>
<g id="Calque_2">
	<g>
		<path class="st0" d="M106.4,55.1c-4.8-7.2-9.6-14.4-16-20.1c-6.4-5.7-14.7-9.9-23.3-9.6C54,25.7,43.4,35.8,35.4,46.1
			c-8,10.3-15.1,23.3-11.4,35.8c2.9,9.7,11.7,16.5,20.8,21c19.3,9.6,42.4,12.1,62.7,4.9c6.5-2.3,12.8-5.6,17.5-10.8
			c4.6-5.1,7.4-12.3,6.1-19.1c-2.2-11.4-14.4-18-25.8-20.3"/>
	</g>
</g>
<g id="Calque_1">
	<g>
		<path d="M110.4,99.7c-1.1,1.3-2,2.9-3.2,4c-1.4,1.3-2.8,2.5-4.7,3c-1.2,0.3-2.4-0.4-2.8-1.7c-0.3-1-0.4-2-0.5-3.1
			c-0.1-0.5,0-1,0-1.8c-3.6,1.7-7,3-10.8,2.6c-3.6-0.3-7.3-0.4-10.7-2.2c-0.3,0.9-0.5,1.8-0.8,2.7c-0.3,0.7-0.6,1.5-1,2.1
			c-1.1,1.4-2.7,1.6-4.1,0.4c-1.5-1.3-2.8-2.7-3.8-4.5c-0.2-0.4-0.4-0.7-0.7-1.2c-0.4,0.1-0.8,0.3-1.2,0.4c-1.7,0.6-3.4,1-5.3,1
			c-2.4,0-4.9,0-7.3,0c-2.4-0.1-4.6-0.9-6.7-2.1c-1.8-1.1-2.2-2.7-1.1-4.5c0.7-1,1.5-1.9,2.4-2.7c2.1-1.9,4.3-3.6,6.4-5.4
			c0.9-0.8,1.9-1.4,2.9-2.1c1-0.8,1.9-1.6,2.9-2.4c-0.3-1.5-0.5-3.1-0.9-4.7c-0.9-3.6-0.7-7.2-0.6-10.9c0.1-1.2,0.2-2.3,0.2-3.5
			c0-3.9,1-7.7,2.2-11.4c0.8-2.6,0.9-5.3,0.8-7.9c-0.1-3.5,0.2-6.9,0.9-10.4c0.1-0.4,0.2-0.7,0.3-1c0.7-1.9,2.5-2.5,4-1.2
			c1.3,1.1,2.5,2.4,3.5,3.7c1,1.2,1.9,2.6,2.8,3.9c0.2,0.2,0.5,0.4,0.7,0.6c4.8-2.3,9.8-3.8,15-3.1c5.1,0.7,10.2,1.7,14.3,5.6
			c2.1-1.5,4.2-2.9,6.3-4.4c0.9-0.6,1.8-1.2,2.7-1.7c1.8-1,3.5-0.2,3.8,1.9c0.2,1,0.2,2,0.1,3c-0.1,1-0.2,2.1-0.5,3.1
			c-0.5,2-1,3.9-1.5,5.9c-0.1,0.4-0.1,0.9-0.1,1.3c0.6,3.9,1.2,7.7,1.8,11.6c0.4,2.6,0.4,5.3,0.3,7.9c-0.1,1.2-0.1,2.4-0.2,3.6
			c1.7,0.7,3.3,0.5,5,0c-0.2-0.5-0.5-1-0.6-1.4c-0.7-1.8-0.7-3.6,0.3-5.3c1-1.8,2.6-2,4.1-0.6c1.2,1.1,1.7,2.5,1.1,4.1
			c-0.5,1.2-1.1,2.4-1.7,3.6c0.5,0.6,1.3,1,2.2,0.9c0.7,0,1.4-0.1,2.1-0.2c0.9-0.1,1.4,0.2,1.5,0.8c0.1,0.5-0.3,1-1.1,1.2
			c-2.2,0.5-4.4,0.5-6.2-1.2c-0.1-0.1-0.3-0.2-0.4-0.3c-2.1,0.8-4.2,1.1-6.6,0.5c-0.1,0.9-0.2,1.7-0.3,2.2c0.9,1,1.7,1.9,2.5,2.6
			c0.8,0.7,1.6,1.3,2.5,1.9c0.2,0.2,0.4,0.3,0.6,0.5c2.1,2.1,4.2,4.1,6.2,6.4c1.6,1.8,2.9,3.8,4.1,5.9c1,1.6,0.3,3.5-1.4,4.2
			c-1.9,0.8-3.9,1.5-6.1,1.1c-1.8-0.3-3.7-0.2-5.5-0.4c-1.5-0.1-3.1-0.4-4.6-0.6C113,100.1,111.8,99.9,110.4,99.7z M101.8,104.7
			c1.8-0.5,3-1.4,4-2.6c1.4-1.7,3.2-3.3,4-5.5c0.8-1.9,1.9-3.7,2.3-5.7c0.7-2.9,1-5.8,1.4-8.7c0.1-1.1,0-2.2,0.1-3.3
			c0.2-1.6,0.6-3.2,0.7-4.8c0.3-3.3,0.6-6.6,0.1-9.9c-0.6-4.3-1.3-8.6-2-12.9c-0.1-0.5-0.1-1,0-1.4c0.5-2.1,1.1-4.2,1.7-6.3
			c0.4-1.6,0.6-3.1,0.4-4.7c-0.1-0.4-0.2-0.8-0.4-1.4c-1.1,0.7-2.1,1.3-3,2c-0.8,0.6-1.6,1.2-2.4,1.8c-1.2,0.8-2.4,1.5-3.5,2.3
			c-1.4,1-1.9,0.9-3.3-0.2c-1.3-1-2.5-2.1-4.1-2.6c-1.7-0.5-3.4-1.1-5.2-1.5c-1.8-0.4-3.6-0.8-5.4-0.8c-4.4,0.1-8.6,1-12.3,3.5
			c-0.2,0.2-0.5,0.3-0.7,0.4c-0.7,0.3-1.1,0.1-1.4-0.6c-0.2-0.4-0.3-0.8-0.5-1.1c-1.4-2-2.8-4-4.3-5.9c-0.4-0.6-1-1-1.6-1.5
			c-0.2-0.2-0.5-0.2-0.8-0.4c-0.2,0.5-0.4,0.9-0.5,1.3c-0.6,3.2-1,6.4-0.9,9.7c0.1,3.2,0,6.3-1,9.3c-1.4,4-2.2,8.2-2.1,12.5
			c0,0.4,0,0.9-0.1,1.3c-0.6,5.3,0.2,10.4,1.6,15.4c0.7,2.7,1.8,5.4,2.5,8.1c1,3.5,2.7,6.6,4.5,9.7c0.7,1.3,1.7,2.5,2.8,3.6
			c1.3,1.3,2,1.1,2.5-0.7c0-0.1,0-0.2,0.1-0.2c0.6-2.4,1.3-4.7,1.9-7.1c0.4-1.5,0.6-3.1,1-4.6c0.6-2.4,1.3-4.7,2-7
			c0.1-0.4,0.3-0.8,0.6-1.2c0.3-0.4,0.8-0.6,1.3-0.4c0.5,0.3,0.6,0.7,0.4,1.2c0,0.2-0.1,0.3-0.2,0.4c-0.5,1.5-1.1,2.9-1.4,4.4
			c-0.6,2.3-1.1,4.7-1.6,7c-0.2,0.9-0.5,1.8-0.7,2.8c0.7,0.4,1.3,0.8,1.9,1.1c0.5,0.2,1,0.2,1.5,0.4c2.2,0.7,4.5,0.6,6.8,0.9
			c3.9,0.5,7.3-1.1,10.7-2.8c-0.2-2.8-0.3-5.5-1-8.3c-1.9-0.6-3.7-1.3-5.5-1.8c-0.9-0.3-2-0.4-2.9-0.7c-1.5-0.5-3.1-0.9-4.5-1.5
			c-1.2-0.5-1.4-1.2-1.1-2.4c0.5-1.7,1.1-3.3,1.7-5c0.2-0.6,0.4-1.2,0.6-1.9c-0.9-0.1-1.7-0.1-2.4-0.2c-2.1-0.3-4.2-0.6-6.3-0.7
			c-1.6-0.1-3.1-0.6-4.6-1.3c-2-1-3.6-2.3-4.3-4.5c-1.6-4.7-0.1-9.1,4.1-11.7c2-1.2,4.3-2.1,6.5-3c1.4-0.5,3-0.6,4.5-0.8
			c0.7-0.1,1.4-0.3,2.1-0.5c1.4-0.4,2.7-0.5,4.1-0.2c0.9,0.2,1.9,0.4,2.8,0.4c2,0.2,3.8,0.7,5.5,1.9c1.3,0.9,2.6,1.7,4,2.4
			c1.8,0.9,2.9,2.3,3.3,4.2c0.6,2.6,0.6,5.3-0.7,7.8c-0.8,1.5-1.2,3.2-2.7,4.2c1.8,1.1,3.5,2,5.2,3c0.7,0.4,1.3,1,1.9,1.4
			c0.8,0.5,1.1,1.2,0.9,2c-0.1,0.7-0.4,1.3-0.6,1.9c-1.1,2.6-2.1,5.2-2.6,8c-0.1,0.5-0.2,0.9-0.3,1.4c-0.4,1.7-1.1,1.9-2.5,0.9
			c-0.4-0.3-0.7-0.5-1.1-0.8c-0.9-0.5-1.7-1.1-2.8-1.7c0,0.4,0,0.6,0,0.7c0.2,2.6,0.4,5.2,0.6,7.8c0.1,1.4,0.1,2.8,0.2,4.2
			C101.3,103.5,101.6,104,101.8,104.7z M104.1,65c-0.1-0.7-0.1-1.3-0.2-1.8c-0.2-1.4-0.8-2.5-2.1-3.2c-1.7-1-3.5-2.1-5.3-3.1
			c-0.8-0.4-1.7-0.8-2.6-0.9c-1.6-0.3-3.2-0.5-4.7-0.6c-1.1-0.1-2.2-0.2-3.3,0.3c-0.6,0.2-1.3,0.3-2,0.4c-1.9,0.1-3.8,0.5-5.6,1.4
			c-1.2,0.6-2.4,1.1-3.6,1.6c-3.6,1.6-5.5,5.4-4.4,9.3c0.3,1,0.8,1.9,1.5,2.5c1.4,1.3,3.1,2.1,5,2.4c2.4,0.4,4.9,0.6,7.4,0.9
			c1,0.1,2,0.2,3,0.1c3.1-0.2,6.2-0.2,9.3,0.1c2.4,0.2,5-1.4,5.9-3.5c0.2-0.5,0.4-1.1,0.7-1.5C104,67.7,104.1,66.3,104.1,65z
			 M111.7,97.8c0.5,0.1,1,0.2,1.5,0.2c0.6,0.1,1.1,0.2,1.7,0.3c1.3,0.2,2.6,0.4,3.9,0.6c1.9,0.2,3.8,0.1,5.7,0.4
			c1.6,0.3,3.1-0.2,4.6-0.6c1.2-0.4,1.5-1.1,0.8-2.2c-0.8-1.2-1.6-2.5-2.5-3.6c-0.5-0.7-1.2-1.3-1.8-1.9c-1.6-1.6-3.1-3.2-4.7-4.8
			c-0.6-0.6-1.2-1.3-1.9-1.8c-1.1-0.8-2.1-1.5-3-2.6c0,0-0.1,0-0.3,0c0,0.2-0.1,0.4-0.1,0.7c-0.2,1.6-0.3,3.2-0.6,4.8
			c-0.4,2.4-0.7,4.7-1.7,7C112.7,95.2,112.2,96.4,111.7,97.8z M104.8,90.6c1.2-3.4,2.3-6.8,3.5-10.2c-1.9-1.7-3.9-3.1-6.3-3.9
			c-1.4-0.5-2.8-1.1-4.1,0.2c-0.1,0.1-0.4,0.1-0.5,0.2c-0.4,0.3-0.8,0.6-1.2,0.9c0,0.1,0,0.2,0.1,0.3c0.4,0.1,0.9,0.2,1.3,0.3
			c0.6,0.2,1.2,0.5,1.7,0.8c0.2,0.2,0.3,0.8,0.2,1c-0.1,0.3-0.6,0.5-0.9,0.6c-0.2,0.1-0.4-0.1-0.7-0.2c-1-0.3-1.9-0.6-2.9-0.9
			c-0.5,1.3-0.2,2.4,0.9,3c0.5,0.2,0.9,0.4,1.4,0.6c0.8,0.3,1.1,0.7,0.9,1.3c-0.2,0.6-0.8,0.9-1.5,0.7c-0.6-0.2-1.3-0.5-1.9-0.8
			C93.7,84,93,83,92.8,81.8c-0.1-0.7-0.2-1.3-0.3-2c-0.2,0-0.4-0.1-0.5-0.1c-0.6-0.1-1-0.4-1-1c0-0.7,0.5-1,1.1-1
			c0.2,0,0.3-0.1,0.5-0.1c1.1,0,1.6-0.8,2.4-1.5c-1.3-0.3-5.7-0.3-6.5,0c-0.5,2.6-2.1,4.9-2.3,7.7c0.4,0.2,0.8,0.3,1.2,0.4
			c1.7,0.5,3.4,0.8,5.1,1.4C96.6,87,101,88,104.8,90.6C104.8,90.6,104.8,90.6,104.8,90.6z M46.9,97.1c0.3,0.2,0.6,0.4,1,0.6
			c0.8,0.4,1.7,0.8,2.5,1.1c1.6,0.6,3.3,0.7,5,0.8c2.8,0.1,5.7,0.1,8.5-0.6c0.8-0.2,1.6-0.6,2.5-0.9c-1.4-2.2-2.2-4.5-3-6.7
			c-0.7-2.3-1.6-4.5-2.4-6.9c-0.4,0.2-0.7,0.4-1,0.6c-0.4,0.3-0.8,0.8-1.3,1.1c-1.2,0.9-2.5,1.8-3.7,2.8c-1.8,1.5-3.6,3-5.3,4.4
			C48.6,94.4,47.7,95.4,46.9,97.1z M123.4,68.1c-1.2,1.1-1.3,3.3-0.1,4.5C124.7,71.1,125.2,68.7,123.4,68.1z"/>
		<path class="st3" d="M101.8,104.7c-0.2-0.7-0.4-1.2-0.5-1.7c-0.1-1.4-0.1-2.8-0.2-4.2c-0.2-2.6-0.4-5.2-0.6-7.8c0-0.2,0-0.3,0-0.7
			c1,0.6,1.9,1.2,2.8,1.7c0.4,0.2,0.7,0.5,1.1,0.8c1.4,1,2.2,0.7,2.5-0.9c0.1-0.5,0.2-0.9,0.3-1.4c0.6-2.8,1.6-5.4,2.6-8
			c0.3-0.6,0.5-1.3,0.6-1.9c0.2-0.9-0.1-1.5-0.9-2c-0.7-0.4-1.3-1-1.9-1.4c-1.7-1-3.4-2-5.2-3c1.5-1,2-2.7,2.7-4.2
			c1.3-2.5,1.3-5.2,0.7-7.8c-0.4-1.9-1.6-3.3-3.3-4.2c-1.4-0.7-2.7-1.5-4-2.4c-1.7-1.2-3.5-1.7-5.5-1.9c-1-0.1-1.9-0.2-2.8-0.4
			c-1.4-0.3-2.8-0.2-4.1,0.2c-0.7,0.2-1.4,0.3-2.1,0.5c-1.5,0.3-3.1,0.3-4.5,0.8c-2.2,0.8-4.5,1.7-6.5,3c-4.3,2.6-5.7,7-4.1,11.7
			c0.7,2.1,2.3,3.5,4.3,4.5c1.4,0.7,2.9,1.2,4.6,1.3c2.1,0.1,4.2,0.5,6.3,0.7c0.7,0.1,1.5,0.1,2.4,0.2c-0.2,0.7-0.4,1.3-0.6,1.9
			c-0.6,1.7-1.1,3.3-1.7,5c-0.4,1.2-0.1,1.9,1.1,2.4c1.5,0.6,3,1.1,4.5,1.5c1,0.3,2,0.4,2.9,0.7c1.8,0.6,3.6,1.2,5.5,1.8
			c0.7,2.8,0.8,5.5,1,8.3c-3.4,1.7-6.8,3.3-10.7,2.8c-2.3-0.3-4.6-0.2-6.8-0.9c-0.5-0.2-1-0.2-1.5-0.4c-0.7-0.3-1.2-0.7-1.9-1.1
			c0.3-0.9,0.5-1.8,0.7-2.8c0.5-2.3,1-4.7,1.6-7c0.4-1.5,1-3,1.4-4.4c0-0.2,0.1-0.3,0.2-0.4c0.1-0.5,0.1-1-0.4-1.2
			c-0.5-0.3-1-0.1-1.3,0.4c-0.3,0.3-0.5,0.8-0.6,1.2c-0.7,2.3-1.4,4.7-2,7c-0.4,1.5-0.6,3.1-1,4.6c-0.6,2.4-1.3,4.7-1.9,7.1
			c0,0.1,0,0.2-0.1,0.2c-0.5,1.8-1.2,1.9-2.5,0.7c-1.1-1.1-2-2.2-2.8-3.6c-1.7-3.1-3.5-6.2-4.5-9.7c-0.8-2.7-1.8-5.4-2.5-8.1
			c-1.4-5-2.2-10.2-1.6-15.4c0-0.4,0.1-0.9,0.1-1.3c-0.1-4.3,0.7-8.5,2.1-12.5c1-3.1,1.2-6.2,1-9.3c-0.2-3.3,0.2-6.5,0.9-9.7
			c0.1-0.4,0.3-0.8,0.5-1.3c0.4,0.2,0.6,0.3,0.8,0.4c0.5,0.5,1.1,0.9,1.6,1.5c1.5,1.9,2.9,3.9,4.3,5.9c0.2,0.3,0.3,0.7,0.5,1.1
			c0.3,0.7,0.7,0.9,1.4,0.6c0.3-0.1,0.5-0.2,0.7-0.4c3.7-2.5,7.9-3.3,12.3-3.5c1.8-0.1,3.6,0.4,5.4,0.8c1.8,0.4,3.5,1,5.2,1.5
			c1.6,0.5,2.9,1.6,4.1,2.6c1.4,1.1,1.9,1.1,3.3,0.2c1.2-0.8,2.4-1.5,3.5-2.3c0.8-0.6,1.6-1.2,2.4-1.8c0.9-0.6,1.9-1.3,3-2
			c0.2,0.6,0.4,1,0.4,1.4c0.2,1.6,0,3.2-0.4,4.7c-0.5,2.1-1.1,4.2-1.7,6.3c-0.1,0.4,0,0.9,0,1.4c0.7,4.3,1.4,8.6,2,12.9
			c0.5,3.3,0.2,6.6-0.1,9.9c-0.1,1.6-0.6,3.2-0.7,4.8c-0.1,1.1,0,2.2-0.1,3.3c-0.4,2.9-0.7,5.9-1.4,8.7c-0.5,2-1.6,3.8-2.3,5.7
			c-0.9,2.2-2.6,3.7-4,5.5C104.8,103.3,103.5,104.2,101.8,104.7z M92.7,51.3c0,0.8,0.6,1.5,1.4,1.4c0.7,0,1.2-0.5,1.2-1.2
			c0-0.7-0.7-1.4-1.5-1.5C93.2,50.1,92.7,50.6,92.7,51.3z M83.7,50.7c0.1-0.7-0.4-1.3-1-1.4c-0.7-0.1-1.4,0.5-1.5,1.3
			c-0.1,0.7,0.4,1.4,1.1,1.4C83,52.1,83.6,51.6,83.7,50.7z"/>
		<path class="st3" d="M104.1,65c0,1.3-0.1,2.7-0.8,4c-0.3,0.5-0.5,1-0.7,1.5c-0.9,2.2-3.5,3.7-5.9,3.5c-3.1-0.3-6.2-0.3-9.3-0.1
			c-1,0.1-2,0-3-0.1c-2.5-0.2-4.9-0.5-7.4-0.9c-1.9-0.3-3.6-1-5-2.4c-0.7-0.7-1.2-1.5-1.5-2.5c-1.1-3.9,0.8-7.7,4.4-9.3
			c1.2-0.5,2.4-1.1,3.6-1.6c1.8-0.8,3.6-1.2,5.6-1.4c0.7-0.1,1.4-0.1,2-0.4c1.1-0.4,2.2-0.4,3.3-0.3c1.6,0.2,3.2,0.3,4.7,0.6
			c0.9,0.2,1.8,0.5,2.6,0.9c1.8,1,3.5,2.1,5.3,3.1c1.2,0.7,1.8,1.9,2.1,3.2C104.1,63.7,104.1,64.3,104.1,65z M95,64.2
			c-0.2-0.7-0.3-1.6-0.5-2.4c-0.2-0.5-0.6-0.7-1.2-0.6c-0.5,0.1-0.7,0.5-0.6,1c0,1.3,0,2.6,0.1,3.9c0,0.6,0.2,1,0.9,1.1
			c0.6,0.1,0.9-0.3,1-0.8C94.8,65.8,94.9,65.1,95,64.2z M81.8,63C81.7,63,81.7,63,81.8,63c-0.1,0.6-0.1,1.1-0.1,1.7
			c0,0.5,0.4,0.9,0.9,0.9c0.5,0,0.9-0.3,0.9-0.8c0.1-1.2,0.2-2.4,0.2-3.6c0-0.5-0.4-0.9-1-0.9c-0.6,0-0.9,0.4-0.9,0.9
			C81.8,61.9,81.8,62.5,81.8,63z"/>
		<path class="st3" d="M111.7,97.8c0.6-1.3,1.1-2.6,1.6-3.8c1-2.2,1.4-4.6,1.7-7c0.2-1.6,0.4-3.2,0.6-4.8c0-0.2,0.1-0.5,0.1-0.7
			c0.1,0,0.3,0,0.3,0c0.8,1,1.9,1.8,3,2.6c0.7,0.5,1.2,1.2,1.9,1.8c1.6,1.6,3.1,3.2,4.7,4.8c0.6,0.6,1.2,1.2,1.8,1.9
			c0.9,1.2,1.7,2.4,2.5,3.6c0.7,1.1,0.5,1.8-0.8,2.2c-1.5,0.5-2.9,0.9-4.6,0.6c-1.9-0.3-3.8-0.2-5.7-0.4c-1.3-0.1-2.6-0.4-3.9-0.6
			c-0.6-0.1-1.1-0.2-1.7-0.3C112.7,97.9,112.2,97.9,111.7,97.8z"/>
		<path class="st3" d="M104.8,90.6C104.8,90.6,104.8,90.6,104.8,90.6c-3.8-2.5-8.2-3.6-12.5-5c-1.7-0.5-3.4-0.9-5.1-1.4
			c-0.4-0.1-0.7-0.3-1.2-0.4c0.3-2.8,1.8-5.1,2.3-7.7c0.7-0.3,5.2-0.3,6.5,0c-0.7,0.7-1.3,1.4-2.4,1.5c-0.2,0-0.3,0-0.5,0.1
			c-0.6,0.1-1.1,0.4-1.1,1c0,0.6,0.4,0.9,1,1c0.2,0,0.3,0,0.5,0.1c0.1,0.7,0.2,1.3,0.3,2c0.2,1.3,0.9,2.2,2.1,2.8
			c0.6,0.3,1.2,0.6,1.9,0.8c0.7,0.2,1.3-0.1,1.5-0.7c0.2-0.6-0.1-1-0.9-1.3c-0.5-0.2-1-0.4-1.4-0.6c-1.1-0.6-1.4-1.7-0.9-3
			c1,0.3,1.9,0.6,2.9,0.9c0.2,0.1,0.5,0.2,0.7,0.2c0.3-0.1,0.8-0.3,0.9-0.6c0.1-0.3,0-0.9-0.2-1c-0.5-0.4-1.1-0.6-1.7-0.8
			c-0.4-0.2-0.9-0.2-1.3-0.3c0-0.1,0-0.2-0.1-0.3c0.4-0.3,0.8-0.6,1.2-0.9c0.2-0.1,0.4-0.1,0.5-0.2c1.3-1.2,2.7-0.7,4.1-0.2
			c2.4,0.9,4.4,2.2,6.3,3.9C107.1,83.8,106,87.2,104.8,90.6z"/>
		<path class="st3" d="M46.9,97.1c0.8-1.7,1.7-2.7,2.7-3.6c1.8-1.5,3.5-3,5.3-4.4c1.2-1,2.5-1.9,3.7-2.8c0.4-0.3,0.8-0.8,1.3-1.1
			c0.3-0.2,0.6-0.4,1-0.6c0.8,2.4,1.7,4.6,2.4,6.9c0.7,2.3,1.6,4.5,3,6.7c-0.9,0.3-1.7,0.7-2.5,0.9c-2.8,0.6-5.6,0.7-8.5,0.6
			c-1.7-0.1-3.4-0.1-5-0.8c-0.8-0.3-1.7-0.7-2.5-1.1C47.6,97.5,47.2,97.3,46.9,97.1z"/>
		<path d="M92.7,51.3c0-0.7,0.5-1.2,1.2-1.2c0.8,0,1.5,0.7,1.5,1.5c0,0.7-0.5,1.2-1.2,1.2C93.3,52.8,92.7,52.1,92.7,51.3z"/>
		<path d="M83.7,50.7c-0.1,0.8-0.7,1.4-1.4,1.3c-0.7-0.1-1.2-0.7-1.1-1.4c0.1-0.8,0.8-1.3,1.5-1.3C83.4,49.4,83.8,50,83.7,50.7z"/>
		<path d="M95,64.2c-0.1,0.9-0.2,1.6-0.4,2.3c-0.1,0.5-0.5,0.9-1,0.8c-0.6-0.1-0.8-0.5-0.9-1.1c0-1.3,0-2.6-0.1-3.9
			c0-0.5,0.2-0.9,0.6-1c0.6-0.2,1,0.1,1.2,0.6C94.7,62.7,94.8,63.5,95,64.2z"/>
		<path d="M81.8,63c0-0.6,0-1.1,0.1-1.7c0.1-0.5,0.3-0.9,0.9-0.9c0.6,0,1,0.4,1,0.9c0,1.2-0.1,2.4-0.2,3.6c0,0.5-0.4,0.8-0.9,0.8
			c-0.6,0-0.9-0.4-0.9-0.9C81.6,64.1,81.7,63.6,81.8,63C81.7,63,81.7,63,81.8,63z"/>
	</g>
</g>
</svg>
