<?xml version="1.0" encoding="utf-8"?>
<!-- Generator: Adobe Illustrator 24.0.1, SVG Export Plug-In . SVG Version: 6.00 Build 0)  -->
<svg version="1.1" xmlns="http://www.w3.org/2000/svg" xmlns:xlink="http://www.w3.org/1999/xlink" x="0px" y="0px"
	 viewBox="0 0 156.8 136.3" style="enable-background:new 0 0 156.8 136.3;" xml:space="preserve">
<style type="text/css">
	.st0{fill:#B7D6E2;}
	.st1{fill:#C0ADD5;}
	.st2{fill:#DDDDDD;}
	.st3{fill:#FFFFFF;}
</style>
<g id="Calque_2">
	<g>
		<path class="st0" d="M64.8,96.6c-5,0-10.1-0.5-15-1.6c-9.3-2.1-18.4-6.4-24.3-13.9C19.8,73.5,18,62.4,23,54.4
			c4.1-6.6,11.7-10.1,19-12.9c8.3-3.2,16.7-6.1,25.3-8.6c15.9-4.6,34.9-7.4,47.6,3.2c5.4,4.5,8.9,10.9,11.3,17.6
			c3.6,10.1,4.3,22.5-2.9,30.4c-3,3.4-7.2,5.5-11.3,7.3c-10,4.2-20.8,6.6-31.7,7"/>
	</g>
</g>
<g id="Calque_1">
	<g>
		<path d="M137.2,75.7c-1.5-1.3-3-2.6-4.5-3.7c-1-0.7-2-1.3-2.6-2.4c-0.2-0.3-0.7-0.6-1.1-0.5c-0.3,0-0.6,0.5-0.9,0.8
			c-0.1,0.1-0.1,0.3-0.1,0.5c-0.2,1.2-0.7,2.3-1.5,3.2c-2.2,2.6-4.6,4.8-7.9,5.8c-2-0.7-2.8-1.1-3.5-1.9c0.3-0.2,0.6-0.3,0.8-0.5
			c0.3-0.2,0.6-0.4,0.9-0.6c0.8-0.7,1-1.7,0.2-2.4c-1-0.8-2.1-1.5-3.1-2.2c-0.6-0.4-1.3-0.7-1.9-1c-0.6-0.3-1.2-0.7-1.8-0.9
			c-1.2-0.5-2.4-1-3.7-1.5c-0.2-2.4-0.5-4.8-0.7-7.2c-0.3-2.9-0.3-5.9-1.2-8.8c-1-2.8-2-5.7-3-8.5c-0.2-0.6-0.6-1.3-0.9-1.8
			c-0.5-0.8-1.2-1.4-2.3-1.3c-1.1,0.1-1.4,1-1.7,1.8c0,0.1-0.1,0.2-0.1,0.2c-0.7,2.7-1.4,5.3-2.1,8c-0.1,0.5-0.3,0.9-0.5,1.4
			c-1.7-0.9-3.3-1.8-4.8-2.6c-0.3-0.1-0.6-0.2-0.9-0.3c-2.9-0.8-5.8-0.9-8.6-0.2c-3.3,0.8-6.5,1.8-9.5,3.6c-0.2,0.1-0.4,0.1-0.6,0.2
			c-0.3-0.3-0.5-0.6-0.7-0.9c-1.2-1.4-2.3-2.9-3.5-4.3c-1.1-1.2-2.4-1.3-3.3-0.2c-1.2,1.6-2.6,3.2-3.3,5.1c-1.2,3.2-2.4,6.5-3.7,9.8
			c0,0,0,0.1,0,0.1c0,0.2,0,0.3-0.1,0.5c-0.1,0.8-0.3,1.6-0.6,2.3c-0.1,0.3-0.3,0.6-0.4,0.9c-0.2,0.6-0.4,1.3-0.5,1.9
			c-0.2,0.6-0.4,1-1.1,1.2c-2.4,0.8-4.8,1.6-7.2,2.3c-0.5,0.1-1,0.2-1.4,0.4c-1.2,0.6-1.4,1.8-0.4,2.8c0.5,0.5,1.1,0.8,1.7,1.3
			c0.3,0.2,0.5,0.4,1,0.7c-2.7,1-5.1,2-7.5,2.7c-2.5,0.8-3.4,1.7-3.5,4c-0.3,0.1-0.6,0.3-0.9,0.4c-1.9,0.6-3.8,1.3-5.7,1.9
			c-2.2,0.7-4.5,1.4-6.7,2.2c-0.5,0.2-0.9,0.5-1,1.1c-0.1,0.6,0.2,1,0.7,1.3c0.3,0.2,0.6,0.3,0.8,0.5c2.3,1.1,4.5,2.2,6.9,3.4
			c-1,0.3-2,0.6-2.8,0.9c-1.1,0.4-1.3,1.4-0.5,2.3c0.3,0.3,0.6,0.6,0.9,0.8c2.6,1.8,5.2,3.5,7.8,5.3c0.7,0.4,1.4,0.5,2.2,0.1
			c1.8-0.8,3.6-1.6,5.5-2.4c0.5-0.2,0.9-0.3,1.5-0.5c-0.1,0.3-0.1,0.4-0.2,0.5c-0.7,1.4-0.5,2,0.9,2.6c0.3,0.1,0.6,0.2,0.9,0.3
			c1,0.3,2,0.5,3,0.9c3,1.2,6,1.5,9.2,1.6c0.8,0,1.5-0.3,1.8-1.1c0.2-0.4,0.3-0.8,0.5-1.2c0.5-1.4,1-2.8,1.5-4.2
			c0.9,0.4,1.7,0.7,2.6,1c-0.3,0.4-0.6,0.8-0.8,1.1c-0.4,0.6-0.8,1.2-1,1.9c-0.5,1.2-0.1,2,1.2,2.3c0.7,0.1,1.3,0.2,2,0.2
			c3.4,0,6.9,0,10.3-0.2c1.9-0.1,3.9-0.4,5.8-0.8c1.5-0.3,1.9-0.9,1.7-2.4c-0.3-2.2-0.6-4.3-0.9-6.6c0.9-0.6,0.9-1.5,0.9-2.5
			c0.1-1.9,0.2-3.9,0.4-5.9c1.1-0.1,2-0.2,3-0.3c0.8-0.1,1.5-0.1,2.2,0.3c0.3,0.1,0.6,0.2,0.9,0.1c2.3-0.6,4.6,0.1,6.9,0.1
			c2.7,0,5.4,0.7,8.1,0.4c0.1,0,0.3,0.1,0.6,0.1c-0.4,0.5-0.8,0.9-1.1,1.2c-0.9,1-0.9,1.1-0.3,2.4c0,0-0.1,0.1-0.2,0.4
			c-0.5-0.3-1-0.6-1.5-0.9c-1.3-0.9-2.6-1.3-4.1-1.4c-0.8-0.1-1.5,0.1-2.2,0.5c-1.1,0.6-2.1,1.1-3.2,1.6c-1.5,0.7-3,1.3-4.5,2
			c-1.2,0.6-1.4,1.4-0.6,2.4c0.1,0.1,0.2,0.2,0.3,0.4c1.8,2.2,3.6,4.5,5.7,6.5c2.2,2.2,4.3,4.6,6.5,6.8c0.7,0.7,1.4,0.7,2.1,0.1
			c0.4-0.4,0.7-0.9,1.1-1.3c2.7-2.6,5.4-5.1,8-7.6c1.1,0.2,2.8,1,3.3,1.5c0.8,0.8,1.1,0.8,2.1,0.3c0.4-0.2,0.8-0.5,1.2-0.8
			c1.6-0.9,3.1-1.9,4.7-2.8c1.7-0.9,3.4-1.7,5-2.5c0.3-0.2,0.6-0.4,0.9-0.6c0.5-0.4,0.9-0.9,0.8-1.5c-0.1-0.7-0.7-1-1.4-1.2
			c-0.7-0.2-1.3-0.4-2.2-0.7c0.7-0.4,1.1-0.7,1.6-1c1.7-1.1,3.3-2.1,5-3.2c0.6-0.4,1.1-0.8,1.6-1.2c0.5-0.4,0.7-0.9,0.5-1.5
			c-0.2-0.6-0.7-0.8-1.3-0.8c-0.4,0-0.9,0-1.3,0c-1.2,0-2.4,0-3.8,0c0.7-0.4,1.2-0.7,1.7-1c1.4-1,2.9-1.9,4.3-3
			c1.4-1.1,2.4-2.6,3.2-4.1C137.8,77,137.9,76.3,137.2,75.7z M115.2,74.9c-1,0.6-1.8,1.2-2.6,1.7c-3.3-1.1-5-2.4-5.4-5.7
			C110.1,71.8,112.5,73.3,115.2,74.9z M45.5,74l0.1-0.2c1.8-0.6,3.7-1.2,5.5-1.8c0.1,0.1,0.1,0.1,0.2,0.2c-0.9,1.2-1.7,2.4-2.8,3.4
			C47.4,75,46.5,74.5,45.5,74z M24.5,89.3c1.6-0.5,3-1.1,4.4-1.5c2.2-0.5,4.3-1.3,6.5-2.2c0.9-0.3,1.7-0.4,2.5,0
			c0.7,0.3,1.5,0.6,2.2,0.8c0.6,0.2,1.2,0.2,1.9,0.2c0.9-0.1,1.6,0.1,2.4,0.5c-3.1,2.1-6.2,4.2-9.2,6.3
			C31.5,92.8,27.9,91.7,24.5,89.3z M35.7,101.7c-2.4-1.6-4.8-3.2-7.4-5c0.6-0.2,1-0.3,1.3-0.4c0.6-0.2,1.3-0.4,1.7-0.8
			c0.8-0.7,1.6-0.6,2.4-0.3c1.4,0.5,1.4,0.5,2.7,0.3c0.3,0.3,0.4,0.7-0.1,1c-0.4,0.3-0.7,0.6-0.4,1.1c0.3,0.5,0.8,0.4,1.3,0.2
			c0.1,0,0.2,0,0.2,0c2,1.3,4,0.6,5.9-0.2c0.2-0.1,0.3-0.2,0.4-0.4c0.3-0.4,0.4-0.8,0-1.1c-0.2-0.2-0.7-0.2-0.9,0
			c-0.9,0.6-2,0.8-3.1,0.8c-0.3,0-0.6-0.1-1.2-0.1c0.6-0.4,1-0.6,1.3-0.9c0.4-0.3,0.5-0.7,0.2-1c-0.2-0.2-0.6-0.2-0.9-0.2
			c-0.3,0-0.6,0.2-1,0.4c0-1.2,1.1-2.2,4.6-4.2c3.2,1.2,6.5,2.5,9.9,3.8c0,0.1,0,0.2,0,0.3C47.1,97.2,41.5,99.4,35.7,101.7z
			 M44.8,89.4c0.9-0.5,1.6-1,2.3-1.5c0.2-0.1,0.5-0.2,0.7-0.1c1.9,0.3,3.8,0.6,6,0.9c-1.2,1.1-2.1,2-3.2,2.9
			C48.8,90.9,46.9,90.2,44.8,89.4z M57.6,104.5c-4.1,0.4-7.9-1.3-11.7-2.5c0.6-0.9,1.1-2,1.9-2.7c0.7-0.6,1.7-0.9,2.7-1.4
			c0.4,0.7,0.8,1.3,1.2,2c-0.1,0.3-0.3,0.6-0.3,1c0,0.3,0.2,0.7,0.4,0.9c0.1,0.1,0.6-0.1,0.8-0.2c0.2-0.2,0.4-0.5,0.5-0.7
			c3.3,0.1,4.9-2,5.6-4.9c0-0.1,0-0.2,0.1-0.4c0-0.5,0-0.9-0.6-1c-0.5-0.1-0.7,0.3-0.9,0.7c-0.2,0.5-0.3,1-0.4,1.5
			c-0.3,0.9-0.8,1.6-1.5,2.1C55,98.9,54.6,99,54.2,99c0.3-0.6,0.6-1.2,0.9-1.8c-0.2-0.3-0.4-0.6-0.6-0.9c0.2-0.2,0.5-0.3,0.7-0.5
			c0.9-0.8,0.9-1.7-0.1-2.3c-0.6-0.4-1.4-0.6-2.1-1c1.2-1.2,2.4-2.3,3.8-3.6c2,0.2,4.4,0.4,6.9,0.6C61.5,94.6,59.6,99.5,57.6,104.5z
			 M64.3,104.6c0.7-1.6,4.6-6.4,8.9-11.1h6c1.5,3.1,1.3,6.6,2.1,10.1C75.6,104.8,70,104.5,64.3,104.6z M81.3,92.7
			c-1.1-1.3-2.4-1.2-3.7-1.1c-1.4,0.1-2.9,0-4.3-0.1c-0.8-0.1-1.4,0.1-1.8,0.9c-0.2,0.4-0.5,0.7-0.9,0.9c0-0.2,0.1-0.5,0-0.7
			c-0.1-0.3-0.2-0.8-0.4-0.8c-0.3,0-0.8,0.1-1,0.4c-0.4,0.6-0.3,1.4,0,2.1c0.1,0.2,0.2,0.3,0.4,0.6c-1.3,1.5-2.6,3.1-3.9,4.7
			c-1.2-0.4-2.2-0.8-3.4-1.2c0.2-0.4,0.4-0.6,0.5-0.8c2.1-2.5,4.7-4.6,7.3-6.6c0.8-0.6,1.6-1.1,2-2c0.1-0.3,0.7-0.5,1.1-0.6
			c0.7,0,1.4,0.1,2.1,0.2c0.8,0,1.7-0.1,2.5-0.1c1.2,0,2.5,0,3.9,0C81.5,89.8,81.4,91.1,81.3,92.7z M64.7,92.1c0.4-1,0.9-1.9,1.4-3
			c0.9-0.1,1.8-0.1,2.7-0.2l0.1,0.2c-1.3,1.1-2.6,2.1-3.9,3.2C64.9,92.2,64.8,92.2,64.7,92.1z M85.4,86.1c-2.2,0-4.4,0.1-6.6,0.1
			c-0.4,0-0.7-0.1-1.1,0c-3.5,0.4-6.8-0.3-9.8-2c-3.6-2.1-4.1-5.2-2-8.5c0.1-0.2,0.3-0.4,0.6-0.6c2.3-1.8,4.8-3.4,7.4-4.8
			c1.4-0.7,2.9-1.1,4.5-1.3c1.9-0.2,3.7-0.4,5.6-0.6c0,0,0,0.1,0,0.1c1.3-0.1,2.5-0.2,3.8-0.3c1.1-0.1,2.1,0.3,3.1,0.7
			c1.3,0.6,2.5,1.2,3.8,1.8c0.4,0.2,0.7,0.5,1,0.8c0.8,0.8,1.5,1.6,2.2,2.5c0.4,0.6,0.7,1.2,0.9,1.9c0.5,2,0.1,3.8-1.1,5.4
			c-0.5,0.6-1,1.2-1.5,1.7c-1.1,1-2.6,1.3-3.9,1.7C90,85.4,87.7,86.1,85.4,86.1z M103.3,86.9c-0.1,0-0.2,0-0.4,0
			c-2.7-0.2-5.5-0.4-8.4-0.7c0.2-0.1,0.3-0.3,0.4-0.3c1-0.1,1.8-0.7,2.5-1.4c3.1-2.8,4.4-6.3,2.9-10.2c-0.3-0.8-0.9-1.4-1.4-2.1
			c-0.6-0.8-1.3-1.6-2-2.4c-0.4-0.4-0.9-0.8-1.4-1.1c-1.2-0.6-2.5-1.1-3.7-1.7c-2-1.1-4.1-1.1-6.3-0.9c-1.2,0.1-2.3,0.2-3.5,0.3
			C78,66.8,74,67.5,70.4,70c-1.6,1.1-3.3,2.2-4.8,3.3c-3.4,2.4-3.9,7.9-1,10.8c1,1,2.2,1.8,3.3,2.8c-0.9,0.1-1.8,0.2-2.8,0.3
			c-2.4,0.3-4.9,0.1-7.3-0.2c-3.6-0.4-7.1-0.9-10.7-1.4c-0.8-0.1-1.6-0.4-2.4-0.6c-1.1-0.2-2.1-0.2-3.2-0.4
			c-1.6-0.3-3.2-0.6-4.5-2.1c0.8-0.4,1.4-0.8,2.1-1c2.9-1.1,5.7-2.2,8.6-3.3c1.4-0.5,2.5-1.4,3.4-2.6c1.2-1.6,2.4-3.2,3.6-4.8
			c0.3-0.4,0.4-0.9,0.5-1.3c1.2-5.2,3.2-10.2,5-15.2c0.7-2,1.9-3.7,3.4-5.3c0.2,0.1,0.4,0.3,0.5,0.4c1.4,1.8,2.8,3.6,4.1,5.4
			c0.3,0.5,0.7,0.6,1.3,0.4c0.2-0.1,0.4-0.2,0.6-0.3c3-1.7,6.3-2.9,9.7-3.8c3.8-0.9,7.4-0.7,10.7,1.5c0.9,0.6,1.7,1.1,2.6,1.7
			c0.7,0.5,1.3,0.5,1.8-0.2c0.6-0.9,1.1-1.8,1.5-2.9c0.7-2.3,1.3-4.7,2-7c0.1-0.4,0.2-0.7,0.4-1.3c0.3,0.4,0.5,0.7,0.7,1
			c1.7,4.1,3.5,8.3,4,12.8c0.2,1.7,0.2,3.3,0.4,5c0.3,2.6,0.7,5.2,1,7.8c0.2,1.6,0.4,3.2,1.2,4.6c0.8,1.6,1.9,2.8,3.7,3.4
			c3.4,1.2,6.7,2.9,10,4.4c0.9,0.4,1.8,0.9,2.7,1.4c0.3,0.2,0.6,0.5,1,0.9c-0.6,0.3-0.9,0.6-1.3,0.7c-1.5,0.4-2.9,0.9-4.4,1.1
			c-1.6,0.3-3.2,0.3-4.8,0.4C109.7,86.7,106.5,86.8,103.3,86.9z M101.4,108.8c-4.1-4-8-8-11.5-12.5c1.4-0.7,2.7-1.3,3.9-1.9
			c0.9-0.5,1.9-0.8,2.8-1.4c0.8-0.5,1.6-0.6,2.4-0.3c1,0.4,2,0.8,3.1,1.3c0,0.1-0.1,0.2-0.1,0.3c0,0.6,0.1,1.1,0.1,1.6h-3.4
			c-0.6,0-1.2-0.9-1.9-0.1c-0.5,0.6,0.2,1,0.6,1.4c-0.2,0.4-0.4,0.8-0.5,1.3c-0.4,1.2,0.1,2.6,1.1,3.3c0.4,0.3,0.9,0.5,1.3,0
			c0.4-0.4,0.1-0.8-0.3-1.1c-0.7-0.6-1-1.3-0.4-2.3c0.4,0.3,0.7,0.6,1,0.8c0.4,0.3,0.9,0.5,1.3,0c0.4-0.4,0.1-0.8-0.3-1.1
			c-0.2-0.1-0.4-0.2-0.6-0.3l0.2-0.4c0.4,0,0.7,0,1.1,0.1c0.4,0.1,0.7,0.3,1,0.6c0.4,0.3,0.8,0.9,1.4,0.5c0.6-0.4,0-1-0.1-1.6
			c2.1,1.4,4,2.7,6,4.1C106.8,103.6,104.1,106.2,101.4,108.8z M126.4,96.1c-3.5,2-7.4,3.2-10.5,6c-0.9-1-1.8-1.5-2.9-1.9
			c-2.6-0.9-4.8-2.4-6.9-4c-0.5-0.4-0.9-0.8-1.4-1.2c1.4-1.4,2.7-2.5,4.9-2.2c3.1,0.4,6.3,0.5,9.4,1C121.4,94.3,124,94.7,126.4,96.1
			z M130.7,88c-0.3,0.3-0.5,0.5-0.7,0.6c-2,1.3-4,2.5-6,3.7c-0.3,0.2-0.7,0.3-1,0.2c-1-0.1-2-0.4-3-0.6c-0.1-0.5-0.1-0.9-0.2-1.3
			c-0.2-1-1-1.7-1.8-1.6c-0.3,0-0.6,0.3-0.8,0.5c-0.1,0.1,0.2,0.6,0.4,0.7c0.4,0.3,0.9,0.4,0.7,1.2c-0.7,0-1.5-0.1-2.3-0.2
			c-2.4-0.2-4.8-0.6-7.1-0.7c-0.8-0.1-1.6,0.2-2.5,0.3c0.6-0.8,1.2-1.5,1.8-2.3c0.2,0,0.4-0.1,0.7-0.1c2.4,0.4,4.8-0.1,7.1-0.3
			c0.2,0,0.3-0.1,0.5,0c2.7,0.8,5.4,0,8.1-0.1C126.5,88.2,128.5,88.1,130.7,88z M131.6,81.4c-0.3-0.4-0.4-0.9-0.7-1
			c-0.5-0.2-0.8,0.3-1,0.6c-0.5,0.6-0.6,0.6-1.6,0.3c0.3-0.3,0.6-0.5,0.9-0.8c0.4-0.3,0.7-0.7,0.3-1.2c-0.3-0.4-0.8-0.3-1.2,0
			c-0.1,0.1-0.3,0.2-0.6,0.1c0.2-0.3,0.3-0.6,0.5-0.9c0.3-0.3,0.6-0.7,0.3-1.1c-0.3-0.4-0.9-0.4-1.4,0c-0.7,0.6-0.9,1.4-1,2.2
			c0,0.3,0,0.6,0,1c-0.1,0.1-0.2,0.2-0.3,0.4c-0.4,0.7-0.2,1,0.6,1.2c0.7,0.2,1.4,0.5,2.4,0.9c-1.3,0.8-2.3,1.4-3.4,2.1
			c-0.1-0.1-0.2-0.2-0.2-0.3c0.2-1.8-0.3-2.6-2-3.5c-0.6-0.3-1.1-0.5-1.8-0.9c3.5-2.1,6.5-4.6,8.4-8.1c2.3,1.1,4.2,2.6,5.9,4.5
			C134.5,78.9,133.2,80.3,131.6,81.4z"/>
		<path d="M40.6,56.3c0,3.8,0.5,7.5,2.1,11c0.1,0.3,0.2,0.5,0.3,0.8c0.2,1-0.2,1.7-1.1,1.9c-1.2,0.3-2.4,0.6-3.6,0.9
			c-0.7,0.2-1.3,0.1-1.9-0.3c-1.7-1-3.2-2.3-4.4-3.8c-1.7-2.2-2.3-4.8-2.3-7.5c0-0.7,0.4-1.2,1-1.6c1-0.7,2-1.4,3.1-2
			c1.5-0.8,3.1-1.4,4.7-2c1.4-0.6,2.1-0.1,2.2,1.5C40.6,55.5,40.6,55.9,40.6,56.3z M38.5,56c-2.6,0.7-4.9,1.7-6.8,3.4
			c-0.1,4.3,2.1,7.7,6,9.6c1-0.3,2-0.6,3.1-1C39.1,64.2,38.6,60.2,38.5,56z"/>
		<path class="st3" d="M123.3,84.3c-0.6,0.3-0.9,0.6-1.3,0.7c-1.5,0.4-2.9,0.9-4.4,1.1c-1.6,0.3-3.2,0.3-4.8,0.4
			c-3.2,0.1-6.4,0.3-9.5,0.4c-0.1,0-0.2,0-0.4,0c-2.7-0.2-5.5-0.4-8.4-0.7c0.2-0.1,0.3-0.3,0.4-0.3c1-0.1,1.8-0.7,2.5-1.4
			c3.1-2.8,4.4-6.3,2.9-10.2c-0.3-0.8-0.9-1.4-1.4-2.1c-0.6-0.8-1.3-1.6-2-2.4c-0.4-0.4-0.9-0.8-1.4-1.1c-1.2-0.6-2.5-1.1-3.7-1.7
			c-2-1.1-4.1-1.1-6.3-0.9c-1.2,0.1-2.3,0.2-3.5,0.3C78,66.8,74,67.5,70.4,70c-1.6,1.1-3.3,2.2-4.8,3.3c-3.4,2.4-3.9,7.9-1,10.8
			c1,1,2.2,1.8,3.3,2.8c-0.9,0.1-1.8,0.2-2.8,0.3c-2.4,0.3-4.9,0.1-7.3-0.2c-3.6-0.4-7.1-0.9-10.7-1.4c-0.8-0.1-1.6-0.4-2.4-0.6
			c-1.1-0.2-2.1-0.2-3.2-0.4c-1.6-0.3-3.2-0.6-4.5-2.1c0.8-0.4,1.4-0.8,2.1-1c2.9-1.1,5.7-2.2,8.6-3.3c1.4-0.5,2.5-1.4,3.4-2.6
			c1.2-1.6,2.4-3.2,3.6-4.8c0.3-0.4,0.4-0.9,0.5-1.3c1.2-5.2,3.2-10.2,5-15.2c0.7-2,1.9-3.7,3.4-5.3c0.2,0.1,0.4,0.3,0.5,0.4
			c1.4,1.8,2.8,3.6,4.1,5.4c0.3,0.5,0.7,0.6,1.3,0.4c0.2-0.1,0.4-0.2,0.6-0.3c3-1.7,6.3-2.9,9.7-3.8c3.8-0.9,7.4-0.7,10.7,1.5
			c0.9,0.6,1.7,1.1,2.6,1.7c0.7,0.5,1.3,0.5,1.8-0.2c0.6-0.9,1.1-1.8,1.5-2.9c0.7-2.3,1.3-4.7,2-7c0.1-0.4,0.2-0.7,0.4-1.3
			c0.3,0.4,0.5,0.7,0.7,1c1.7,4.1,3.5,8.3,4,12.8c0.2,1.7,0.2,3.3,0.4,5c0.3,2.6,0.7,5.2,1,7.8c0.2,1.6,0.4,3.2,1.2,4.6
			c0.8,1.6,1.9,2.8,3.7,3.4c3.4,1.2,6.7,2.9,10,4.4c0.9,0.4,1.8,0.9,2.7,1.4C122.6,83.6,122.9,83.9,123.3,84.3z M83,63.6
			c0,0.8,0.6,1.5,1.3,1.6c0.8,0,1.5-0.6,1.6-1.5c0-0.9-0.6-1.6-1.5-1.6C83.6,62.1,83,62.8,83,63.6z M77.8,64c0-0.8-0.6-1.4-1.3-1.4
			c-0.8,0-1.5,0.7-1.5,1.5c0,0.8,0.6,1.4,1.4,1.4C77.2,65.5,77.8,64.8,77.8,64z"/>
		<path class="st3" d="M84,68.5c1.3-0.1,2.5-0.2,3.8-0.3c1.1-0.1,2.1,0.3,3.1,0.7c1.3,0.6,2.5,1.2,3.8,1.8c0.4,0.2,0.7,0.5,1,0.8
			c0.8,0.8,1.5,1.6,2.2,2.5c0.4,0.6,0.7,1.2,0.9,1.9c0.5,2,0.1,3.8-1.1,5.4c-0.5,0.6-1,1.2-1.5,1.7c-1.1,1-2.6,1.3-3.9,1.7
			c-2.3,0.6-4.5,1.3-6.9,1.3c-2.2,0-4.4,0.1-6.6,0.1c-0.4,0-0.7-0.1-1.1,0c-3.5,0.4-6.8-0.3-9.8-2c-3.6-2.1-4.1-5.2-2-8.5
			c0.1-0.2,0.3-0.4,0.6-0.6c2.3-1.8,4.8-3.4,7.4-4.8c1.4-0.7,2.9-1.1,4.5-1.3c1.9-0.2,3.7-0.4,5.6-0.6C84,68.5,84,68.5,84,68.5z
			 M74.9,78.5c0,0.4,0,0.6,0.1,0.8c0.1,0.5,0.3,0.8,0.8,0.9c0.5,0,0.9-0.2,1-0.7c0.3-1.2,0.6-2.3,0.8-3.5c0.1-0.5-0.1-1-0.8-1.1
			c-0.6-0.1-0.9,0.2-1.1,0.7C75.4,76.6,75.1,77.6,74.9,78.5z M89.3,78.7c-0.1-0.7-0.2-1.5-0.4-2.3c-0.1-0.5-0.5-0.9-1.2-0.8
			c-0.6,0.1-0.8,0.6-0.7,1.2c0.1,0.7,0.1,1.3,0.2,2c0.1,0.3,0.1,0.7,0.3,1c0.2,0.2,0.6,0.5,0.9,0.4c0.3,0,0.6-0.4,0.7-0.6
			C89.3,79.4,89.3,79.1,89.3,78.7z"/>
		<path class="st3" d="M101.9,94.3c0,0.6,0.1,1.1,0.1,1.6c-1.1,0-2.2,0-3.4,0c-0.6,0-1.2-0.9-1.9-0.1c-0.5,0.6,0.2,1,0.6,1.4
			c-0.2,0.4-0.4,0.8-0.5,1.3c-0.4,1.2,0.1,2.6,1.1,3.3c0.4,0.3,0.9,0.5,1.3,0c0.4-0.4,0.1-0.8-0.3-1.1c-0.7-0.6-1-1.3-0.4-2.3
			c0.4,0.3,0.7,0.6,1,0.8c0.4,0.3,0.9,0.5,1.3,0c0.4-0.4,0.1-0.8-0.3-1.1c-0.2-0.1-0.4-0.2-0.6-0.3c0.1-0.1,0.2-0.3,0.2-0.4
			c0.4,0,0.7,0,1.1,0.1c0.4,0.1,0.7,0.3,1,0.6c0.4,0.3,0.8,0.9,1.4,0.5c0.6-0.4,0-1-0.1-1.6c2.1,1.4,4,2.7,6,4.1
			c-2.7,2.6-5.4,5.2-8.1,7.9c-4.1-4-8-8-11.5-12.5c1.4-0.7,2.7-1.3,3.9-1.9c0.9-0.5,1.9-0.8,2.8-1.4c0.8-0.5,1.6-0.6,2.4-0.3
			c1,0.4,2,0.8,3.1,1.3C102,94.1,102,94.2,101.9,94.3z"/>
		<path class="st3" d="M52.9,92.5c1.2-1.2,2.4-2.3,3.8-3.6c2,0.2,4.4,0.4,6.9,0.6c-2,5-4,10-6,15c-4.1,0.4-7.9-1.3-11.7-2.5
			c0.6-0.9,1.1-2,1.9-2.7c0.7-0.6,1.7-0.9,2.7-1.4c0.5,0.7,0.8,1.3,1.2,2c-0.1,0.3-0.3,0.6-0.3,1c0,0.3,0.2,0.7,0.4,0.9
			c0.1,0.1,0.6-0.1,0.8-0.2c0.2-0.2,0.4-0.5,0.5-0.7c3.3,0.1,4.9-2,5.6-4.9c0-0.1,0-0.2,0.1-0.4c0-0.5,0-0.9-0.6-1
			c-0.5-0.1-0.7,0.3-0.9,0.7c-0.2,0.5-0.3,1-0.4,1.5c-0.3,0.9-0.8,1.6-1.5,2.1C55,98.9,54.6,99,54.2,99c0.3-0.6,0.6-1.2,0.9-1.8
			c-0.2-0.3-0.4-0.6-0.6-0.9c0.2-0.2,0.5-0.3,0.7-0.5c0.9-0.8,0.9-1.7-0.1-2.3C54.4,93.1,53.7,92.9,52.9,92.5z"/>
		<path class="st3" d="M64.3,104.6c0.7-1.6,4.6-6.4,8.9-11.1c1.9,0,3.9,0,6,0c1.5,3.1,1.3,6.6,2.1,10.1
			C75.6,104.8,70,104.5,64.3,104.6z M72.7,101.3c0.2,0.3,0.2,0.7,0.4,0.8c0.2,0.1,0.8,0.2,0.8,0.1c0.3-0.8,1.3-0.8,1.7-1.3
			c0.6-0.7,1.1-1.5,1.6-2.3c0.2-0.4,0.1-1-0.4-1.2c-0.6-0.2-0.8,0.3-1,0.7c-0.2,0.6-0.5,1.2-1.3,1.7c0-0.5,0-0.9,0-1.3
			c0-0.5-0.1-1-0.8-1c-0.6,0-0.7,0.5-0.7,0.9c0,0.4-0.1,0.9-0.2,1.4c-0.8-0.5-0.5-1.1-0.4-1.6c0.1-0.5,0.2-1-0.4-1.2
			c-0.4-0.2-0.8,0.2-1.1,0.9C70.4,99.5,71,100.5,72.7,101.3z"/>
		<path class="st3" d="M35.7,101.7c-2.4-1.6-4.8-3.2-7.4-5c0.6-0.2,1-0.3,1.3-0.4c0.6-0.2,1.3-0.4,1.7-0.8c0.8-0.7,1.6-0.6,2.4-0.3
			c1.4,0.5,1.4,0.5,2.7,0.3c0.3,0.3,0.4,0.7-0.1,1c-0.4,0.3-0.7,0.6-0.4,1.1c0.3,0.5,0.8,0.4,1.3,0.2c0.1,0,0.2,0,0.2,0
			c2,1.3,4,0.6,5.9-0.2c0.2-0.1,0.3-0.2,0.4-0.4c0.3-0.4,0.4-0.8,0-1.1c-0.2-0.2-0.7-0.2-0.9,0c-0.9,0.6-2,0.8-3.1,0.8
			c-0.3,0-0.6-0.1-1.2-0.1c0.6-0.4,1-0.6,1.3-0.9c0.4-0.3,0.5-0.7,0.2-1c-0.2-0.2-0.6-0.2-0.9-0.2c-0.3,0-0.6,0.2-1,0.4
			c0-1.2,1.1-2.2,4.6-4.2c3.2,1.2,6.5,2.5,9.9,3.8c0,0.1,0,0.2,0,0.3C47.1,97.2,41.5,99.4,35.7,101.7z"/>
		<path class="st3" d="M115.9,102.1c-0.9-1-1.8-1.5-2.9-1.9c-2.6-0.9-4.8-2.4-6.9-4c-0.5-0.4-0.9-0.8-1.4-1.2
			c1.4-1.4,2.7-2.5,4.9-2.2c3.1,0.4,6.3,0.5,9.4,1c2.5,0.4,5,0.9,7.4,2.2C122.9,98.1,118.9,99.3,115.9,102.1z M115.5,95.5
			c0.4,0.1,0.7,0.1,1,0.2c0.5,0.2,1,0.4,1.5,0.6c0.4,0.2,0.8,0.1,1-0.3c0.2-0.4,0.1-0.8-0.3-1c-1.2-0.6-2.3-1.2-3.7-0.9
			c-1,0.2-2,0.4-3,0.2c-0.7-0.1-1.1,0.6-0.7,1.1c0.5,0.5,0.5,1,0.6,1.6c0.2,1,0.9,1.7,1.9,1.9c0.5,0.1,1,0.1,1-0.5
			c0-0.3-0.3-0.6-0.5-0.9c-0.1-0.1-0.4-0.1-0.5-0.2c-0.2-0.1-0.3-0.4-0.5-0.7C115.1,97.3,115.3,97.1,115.5,95.5z"/>
		<path class="st3" d="M131.6,81.4c-0.3-0.4-0.4-0.9-0.7-1c-0.5-0.2-0.8,0.3-1,0.6c-0.5,0.6-0.6,0.6-1.6,0.3
			c0.3-0.3,0.6-0.5,0.9-0.8c0.4-0.3,0.7-0.7,0.3-1.2c-0.3-0.4-0.8-0.3-1.2,0c-0.1,0.1-0.3,0.2-0.6,0.1c0.2-0.3,0.3-0.6,0.5-0.9
			c0.3-0.3,0.6-0.7,0.3-1.1c-0.3-0.4-0.9-0.4-1.4,0c-0.7,0.6-0.9,1.4-1,2.2c0,0.3,0,0.6,0,1c-0.1,0.1-0.2,0.2-0.3,0.4
			c-0.4,0.7-0.2,1,0.6,1.2c0.7,0.2,1.5,0.5,2.4,0.9c-1.3,0.8-2.3,1.4-3.4,2.1c-0.1-0.1-0.2-0.2-0.2-0.3c0.2-1.8-0.3-2.6-2-3.5
			c-0.6-0.3-1.1-0.5-1.8-0.9c3.5-2.1,6.5-4.6,8.4-8.1c2.3,1.1,4.2,2.6,5.9,4.5C134.5,78.9,133.2,80.3,131.6,81.4z"/>
		<path class="st3" d="M24.5,89.3c1.6-0.5,3-1.1,4.4-1.5c2.2-0.5,4.3-1.3,6.5-2.2c0.9-0.3,1.7-0.4,2.5,0c0.7,0.3,1.5,0.6,2.2,0.8
			c0.6,0.2,1.2,0.2,1.9,0.2c0.9-0.1,1.6,0.1,2.4,0.5c-3.1,2.1-6.2,4.2-9.2,6.3C31.5,92.8,27.9,91.7,24.5,89.3z M36.8,88.8
			c0,0.1,0.1,0.1,0.1,0.2c-0.6,0.5-1.2,0.9-1.7,1.4c-0.2,0.2-0.3,0.7-0.1,0.8c0.2,0.2,0.7,0.4,0.9,0.3c0.8-0.5,1.6-1,2.3-1.7
			c0.3-0.2,0.3-0.8,0.3-1.2C38.4,88,38.1,87.4,38,87c-1.3,0-2.5-0.1-3.7,0c-1.1,0.1-1.9,0.8-2.6,1.6c-0.2,0.2-0.2,0.8-0.1,0.9
			c0.2,0.2,0.6,0.2,0.9,0.1c0.2-0.1,0.4-0.3,0.7-0.5c0.2-0.2,0.5-0.3,0.8-0.5c0.3,1.1,0.7,1.3,1.6,0.9
			C36.1,89.3,36.4,89.1,36.8,88.8z"/>
		<path class="st3" d="M81.6,88.3c-0.1,1.6-0.2,2.8-0.3,4.4c-1.1-1.3-2.4-1.2-3.7-1.1c-1.4,0.1-2.9,0-4.3-0.1
			c-0.8-0.1-1.4,0.1-1.8,0.9c-0.2,0.4-0.5,0.7-0.9,0.9c0-0.2,0.1-0.5,0-0.7c-0.1-0.3-0.2-0.8-0.4-0.8c-0.3,0-0.8,0.1-1,0.4
			c-0.4,0.6-0.3,1.4,0,2.1c0.1,0.2,0.2,0.3,0.4,0.6c-1.3,1.6-2.6,3.1-3.9,4.7c-1.2-0.4-2.2-0.8-3.4-1.2c0.2-0.4,0.4-0.6,0.5-0.8
			c2.1-2.5,4.7-4.6,7.3-6.6c0.8-0.6,1.6-1.1,2-2c0.1-0.3,0.7-0.5,1.1-0.6c0.7,0,1.4,0.1,2.1,0.2c0.8,0,1.7-0.1,2.5-0.1
			C78.9,88.3,80.1,88.3,81.6,88.3z"/>
		<path class="st3" d="M106.4,91c0.6-0.8,1.2-1.5,1.8-2.3c0.2,0,0.4-0.1,0.7-0.1c2.4,0.4,4.8-0.1,7.1-0.3c0.2,0,0.3-0.1,0.5,0
			c2.7,0.8,5.4,0,8.1-0.1c2-0.1,4-0.2,6.2-0.2c-0.3,0.3-0.5,0.5-0.7,0.6c-2,1.3-4,2.5-6,3.7c-0.3,0.2-0.7,0.3-1,0.2
			c-1-0.1-2-0.4-3-0.6c-0.1-0.5-0.1-0.9-0.2-1.3c-0.2-1-1-1.7-1.8-1.6c-0.3,0-0.6,0.3-0.8,0.5c-0.1,0.1,0.2,0.6,0.4,0.7
			c0.4,0.3,0.9,0.4,0.7,1.2c-0.7,0-1.5-0.1-2.3-0.2c-2.4-0.2-4.8-0.6-7.1-0.7C108.1,90.7,107.2,90.9,106.4,91z"/>
		<path class="st3" d="M107.2,70.9c2.9,0.9,5.4,2.4,8,4c-1,0.6-1.8,1.2-2.6,1.7C109.2,75.6,107.5,74.2,107.2,70.9z"/>
		<path class="st3" d="M53.9,88.7c-1.2,1.1-2.1,2-3.2,2.9c-1.9-0.7-3.8-1.5-5.9-2.3c0.9-0.5,1.6-1,2.3-1.5c0.2-0.1,0.5-0.2,0.7-0.1
			C49.7,88.1,51.7,88.4,53.9,88.7z"/>
		<path class="st3" d="M45.6,73.8c1.8-0.6,3.7-1.2,5.5-1.8c0.1,0.1,0.1,0.1,0.2,0.2c-0.9,1.2-1.7,2.4-2.8,3.4c-1-0.5-2-1.1-3-1.6
			C45.5,73.9,45.6,73.8,45.6,73.8z"/>
		<path class="st3" d="M66.1,89.1c0.9-0.1,1.8-0.1,2.7-0.2c0,0.1,0.1,0.1,0.1,0.2c-1.3,1.1-2.6,2.1-3.9,3.2
			c-0.1-0.1-0.1-0.1-0.2-0.2C65.2,91.2,65.6,90.2,66.1,89.1z"/>
		<path class="st3" d="M38.5,56c0.1,4.2,0.5,8.1,2.3,12c-1.1,0.3-2.1,0.7-3.1,1c-3.9-1.9-6.1-5.3-6-9.6C33.6,57.7,36,56.7,38.5,56z
			 M34.4,61.3c0-0.1-0.1-0.2-0.1-0.3c-0.1-0.5-0.3-0.9-0.9-0.7c-0.5,0.1-0.7,0.6-0.6,1.1c0.1,0.5,0.2,1.1,0.4,1.6
			c0.5,1.1,1.5,1.8,2.3,2.5c0.4,0.4,0.8,0.3,1.1-0.2c0.1-0.2,0.2-0.5,0.4-0.7c1.2-0.9,1-2.2,0.9-3.4c-0.1-0.5-0.3-0.9-0.9-0.8
			c-0.6,0.1-0.6,0.5-0.6,1c0,0.5,0,0.9,0,1.5C35.6,60.9,35.6,60.9,34.4,61.3z"/>
		<path d="M83,63.6c0-0.8,0.7-1.5,1.4-1.5c0.8,0,1.5,0.7,1.5,1.6c0,0.8-0.8,1.5-1.6,1.5C83.5,65.1,82.9,64.4,83,63.6z"/>
		<path d="M77.8,64c0,0.8-0.6,1.5-1.4,1.5c-0.8,0-1.4-0.6-1.4-1.4c0-0.8,0.7-1.6,1.5-1.5C77.2,62.6,77.8,63.2,77.8,64z"/>
		<path d="M74.9,78.5c0.2-0.8,0.5-1.9,0.8-2.9c0.1-0.5,0.5-0.8,1.1-0.7c0.6,0.1,0.9,0.6,0.8,1.1c-0.2,1.2-0.5,2.3-0.8,3.5
			c-0.1,0.5-0.5,0.7-1,0.7c-0.5,0-0.7-0.4-0.8-0.9C74.9,79.1,74.9,78.9,74.9,78.5z"/>
		<path d="M89.3,78.7c0,0.4,0,0.7-0.1,0.9c-0.2,0.3-0.5,0.6-0.7,0.6c-0.3,0-0.7-0.2-0.9-0.4c-0.2-0.3-0.3-0.7-0.3-1
			c-0.1-0.7-0.2-1.3-0.2-2c-0.1-0.6,0.1-1.1,0.7-1.2c0.6-0.1,1,0.3,1.2,0.8C89.1,77.2,89.2,78,89.3,78.7z"/>
		<path d="M72.7,101.3c-1.8-0.8-2.3-1.8-1.7-3.5c0.2-0.7,0.6-1,1.1-0.9c0.6,0.2,0.5,0.7,0.4,1.2c-0.1,0.5-0.4,1.1,0.4,1.6
			c0.1-0.5,0.2-1,0.2-1.4c0.1-0.5,0.2-0.9,0.7-0.9c0.6,0,0.8,0.5,0.8,1c0,0.4,0,0.8,0,1.3c0.8-0.4,1-1,1.3-1.7c0.2-0.5,0.3-1,1-0.7
			c0.5,0.2,0.7,0.8,0.4,1.2c-0.4,0.8-0.9,1.6-1.6,2.3c-0.5,0.5-1.4,0.5-1.7,1.3c0,0.1-0.6,0.1-0.8-0.1C73,102,72.9,101.6,72.7,101.3
			z"/>
		<path d="M115.5,95.5c-0.2,1.6-0.4,1.8-2.3,1c0.2,0.4,0.3,0.6,0.5,0.7c0.1,0.1,0.4,0.1,0.5,0.2c0.2,0.3,0.6,0.6,0.5,0.9
			c-0.1,0.5-0.6,0.6-1,0.5c-1-0.2-1.8-0.9-1.9-1.9c-0.1-0.6-0.1-1.1-0.6-1.6c-0.4-0.5,0-1.2,0.7-1.1c1.1,0.2,2.1-0.1,3-0.2
			c1.4-0.2,2.6,0.3,3.7,0.9c0.4,0.2,0.6,0.6,0.3,1c-0.2,0.4-0.6,0.5-1,0.3c-0.5-0.2-1-0.5-1.5-0.6C116.2,95.5,115.9,95.5,115.5,95.5
			z"/>
		<path d="M36.8,88.8c-0.4,0.2-0.8,0.5-1.2,0.7c-0.9,0.4-1.3,0.2-1.6-0.9c-0.3,0.2-0.5,0.3-0.8,0.5c-0.2,0.2-0.4,0.4-0.7,0.5
			c-0.3,0.1-0.8,0.1-0.9-0.1c-0.2-0.2-0.1-0.7,0.1-0.9c0.7-0.8,1.5-1.5,2.6-1.6c1.2-0.1,2.4,0,3.7,0c0.2,0.5,0.5,1.1,0.6,1.7
			c0.1,0.4,0,1-0.3,1.2c-0.7,0.6-1.5,1.2-2.3,1.7c-0.2,0.1-0.7-0.1-0.9-0.3c-0.1-0.1,0-0.7,0.1-0.8c0.5-0.5,1.1-0.9,1.7-1.4
			C36.9,89,36.9,88.9,36.8,88.8z"/>
		<path d="M34.4,61.3c1.1-0.4,1.1-0.4,2.1,1.5c0-0.6,0-1.1,0-1.5c0-0.5,0-0.9,0.6-1c0.6-0.1,0.8,0.4,0.9,0.8
			c0.2,1.2,0.3,2.5-0.9,3.4c-0.2,0.2-0.3,0.4-0.4,0.7c-0.3,0.5-0.7,0.6-1.1,0.2c-0.9-0.8-1.9-1.4-2.3-2.5c-0.2-0.5-0.4-1.1-0.4-1.6
			c-0.1-0.5,0.1-0.9,0.6-1.1c0.6-0.1,0.8,0.2,0.9,0.7C34.3,61.1,34.4,61.2,34.4,61.3z"/>
	</g>
</g>
</svg>
