<?xml version="1.0" encoding="utf-8"?>
<!-- Generator: Adobe Illustrator 24.0.1, SVG Export Plug-In . SVG Version: 6.00 Build 0)  -->
<svg version="1.1" xmlns="http://www.w3.org/2000/svg" xmlns:xlink="http://www.w3.org/1999/xlink" x="0px" y="0px"
	 viewBox="0 0 156.8 136.3" style="enable-background:new 0 0 156.8 136.3;" xml:space="preserve">
<style type="text/css">
	.st0{fill:#B7D6E2;}
	.st1{fill:#C0ADD5;}
	.st2{fill:#DDDDDD;}
	.st3{fill:#FFFFFF;}
</style>
<g id="Calque_2">
	<g>
		<path class="st0" d="M42.2,69c-3.9-8.8-6.4-18.6-4.8-28.2c1.6-9.5,8.1-18.6,17.4-21.3c13.8-4,27.1,6.4,40.7,10.9
			c7,2.3,14.4,3,21.5,5.1c7.1,2,14.1,5.7,17.9,12c4.7,7.9,3.1,18.3-0.9,26.6c-6.5,13.7-19.2,24.5-33.9,28
			c-14.8,3.5-31.3-0.7-42-11.4"/>
	</g>
</g>
<g id="Calque_1">
	<g>
		<path d="M56.7,42.4c0.7-0.8,1.3-1.7,2-2.4c2-2.1,4.6-2.8,7.4-2.9c1.4-0.1,2.8-0.1,4.2-0.1c0.6,0,1.3,0.1,1.9,0.3
			c2,0.8,3.7,2.1,5.2,3.7c2.2,2.4,3.2,5.3,4.5,8.1c1.2,2.8,2,5.6,2.3,8.7c1.7,0.8,3.5,1.5,5.4,2.4c0-0.9,0-1.5-0.1-2.2
			c-0.8-6.2-0.9-12.5-0.9-18.8c0-1.5-0.1-3-0.3-4.4c-0.1-1.4,0.2-2.4,1.2-3.4c2-1.9,4.2-3.5,6.5-5.1c1.5-1,3-2,4.5-3
			c2.3-1.4,4.7-2.7,7.1-4.1c0.8-0.5,1.6-0.9,2.4-1.3c1.6-0.8,2.5-0.5,3.2,1.1c0.6,1.4,1,2.9,1.5,4.3c0.1,0.3,0.2,0.5,0.3,0.9
			c0.9-0.2,1.8-0.4,2.7-0.5c1.3-0.2,1.8,0.1,2.2,1.4c0.1,0.3,0.1,0.5,0.2,0.8c0.9,4.9,1.7,9.8,2.6,14.6c0.4,2,1,4,1.2,6
			c0.4,3.7,0.5,7.4,0.8,11.1c0.2,2.1,0.6,4.3,0.8,6.4c0,0.2,0.1,0.4,0.1,0.6c-0.2,1.3,0.1,2.5,0.5,3.8c0.3,1.2-0.2,2.3-1.5,2.8
			c-2.3,1-4.5,2-6.9,2.8c-3.5,1.2-7.1,2.2-10.7,3.2c-3.7,1.1-7.5,2.1-11.2,3.1c-0.3,0.1-0.6,0.2-0.9,0.2c-1.1,0.2-1.5-0.1-2.1-1
			c-0.1-0.1-0.2-0.3-0.2-0.4c0,0-0.1,0-0.3-0.1c-0.5,1.4-1,2.9-1.6,4.5c1.3-0.2,2.4-0.3,3.6-0.5c0.5-0.1,0.9-0.2,1.1,0.3
			c0.2,0.5-0.1,1-0.7,1.2c-0.5,0.1-1,0.2-1.5,0.2c-0.8,0.1-1.6,0.2-2.7,0.4c0.5,0.9,1.1,1.4,1.7,2c0.4,0.3,0.8,0.6,0.4,1.2
			c-0.3,0.4-0.8,0.4-1.4,0c-0.3-0.2-0.5-0.5-1-0.8c0.3,1.4,0.6,2.6,0.9,3.8c0.1,0.3,0.1,0.5,0.2,0.8c0,0.4-0.1,0.8-0.6,0.9
			c-0.5,0.1-0.8-0.2-0.9-0.7c-0.2-1-0.4-2-0.6-2.9c0-0.2-0.1-0.3-0.3-0.8c-0.4,1.1-0.7,1.9-1,2.6c-0.3,0.7-0.6,1.3-0.9,2
			c-0.2,0.4-0.5,0.9-1.1,0.6c-0.6-0.3-0.4-0.8-0.2-1.3c0.8-1.8,1.5-3.7,2.3-5.5c0.1-0.4,0.2-0.7,0.3-1.1c-0.1,0-0.1-0.1-0.2-0.1
			c-0.4,0.4-0.7,0.9-1.1,1.3c-0.5,0.4-1,0.6-1.7,0.9c-0.1,0.2-0.2,0.5-0.2,0.9c-0.3,1.3-0.8,2.3-2,3c-0.6,0.4-1.1,0.9-1.2,1.7
			c0,0.3-0.2,0.6-0.4,0.8c-3.1,3.3-7.7,3.9-11.7,1.6c-0.4-0.2-0.9-0.3-1.4-0.2c-3.6,0-7.1,0.8-10.7,1.2c-5.2,0.6-10.4,1.4-15.6,1.4
			c-0.1,0-0.2,0.1-0.4,0.1c0.3,0.7,0.7,1.5,1,2.2c1.5,4.3,3.2,8.5,5,12.7c0.9,2,1.4,4.1,2,6.2c0.5,2.1-0.4,3.6-2.6,4.3
			c-1,0.3-2.1,0.3-3.2,0.3c-0.7,0-1.3-0.4-1.6-1c-0.2-0.5-0.5-0.9-0.7-1.4c-1.1-2.9-2.1-5.9-3.2-8.8c-1.1-2.9-1.9-5.9-2.7-8.9
			c-0.4-1.6-1.2-3.2-1.9-4.8c-0.4,0-0.8,0-1,0.1c-1.1,0.4-1.8-0.1-2.6-0.7c-2.2-1.8-4-3.9-5.4-6.3c-2.2-3.9-3.6-8-3.8-12.5
			c-0.1-1.3,0.1-2.7,0.2-4.1c0.1-0.8,0.5-1.3,1.1-1.9c1.2-1,2.2-2.1,3.2-3.2c-0.3-1.3-0.6-2.4-0.8-3.6c-0.2-1.3-0.3-2.6-0.5-3.9
			c-0.2-1.3,0.4-2.1,1.5-2.8c0.2-0.1,0.4-0.2,0.5-0.3c1.7-0.8,2.4-0.6,3.4,1.1c0.6,1,1.1,2.1,1.7,3.3c0.4-0.4,0.9-0.7,1.3-1.1
			c2.4-2.1,4.8-4.3,7.3-6.5c2.5-2.2,5-4.5,7.5-6.8c1.4-1.2,2.9-2.4,4.3-3.6c1.2-1,2.3-2,3.5-2.9c0.5-0.4,1.1-0.7,1.7-1
			C56.6,42.4,56.7,42.4,56.7,42.4z M55.3,45.7c-0.4,0.3-0.7,0.5-1,0.7c-0.7,0.6-1.5,1.2-2.2,1.8c-1.3,1.1-2.6,2.1-3.8,3.3
			c-2.5,2.2-5,4.5-7.5,6.7c-1.9,1.7-3.9,3.2-5.7,5c-3.9,3.9-7.7,7.9-11.5,11.8c-0.6,0.6-0.9,1.2-0.9,2c0,1.6,0,3.2,0.2,4.8
			c0.4,3,1.4,5.8,2.9,8.5c1.2,2.2,2.6,4.2,4.5,5.9c1,0.9,2,1,3.3,0.8c2.7-0.3,5.4-0.8,8.2-0.7c5,0.2,9.9-0.7,14.8-1.2
			c3.3-0.3,6.5-0.8,9.7-1.3c0.2,0,0.4-0.1,0.6-0.1c-1.3-1.9-2.6-3.8-3.9-5.7c-0.8-1.2-1.5-2.4-2.2-3.6c-1-1.6-2.1-3-2.6-4.8
			c-0.7-2.4-1.5-4.7-1.9-7.2c-0.7-3.8-1.2-7.6-1.7-11.4c-0.1-0.9-0.3-1.8-0.2-2.7c0.2-3.2,0.4-6.4,0.7-9.6
			C55,47.8,55.2,46.8,55.3,45.7z M124,69.4c-0.1-0.6-0.2-1-0.3-1.5c-0.2-1-0.4-2-0.5-2.9c-0.2-1.4-0.3-2.8-0.5-4.3
			c-0.1-0.8-0.2-1.5-0.2-2.3c-0.1-2.4-0.1-4.8-0.3-7.2c-0.1-2.1-0.3-4.2-0.7-6.2c-1.1-5.9-2.2-11.7-3.3-17.5
			c-0.1-0.5-0.2-1.1-0.4-1.7c-0.9,0.2-1.7,0.3-2.5,0.5c-6.1,1.7-12.3,2.9-18.3,4.9c-1.7,0.6-3.6,0.9-5.3,1.5
			c-1.6,0.5-1.6,0.7-1.5,2.3c0.1,1.5,0.2,3,0.2,4.5c0.1,4.3,0.2,8.6,0.4,12.8c0.1,2.9,0.5,5.8,0.8,8.7c1.4,0.9,2.8,1.9,4.2,2.8
			c1.7-0.7,3.4-1.3,5.1-1.9c0.9-0.3,1.8-0.5,2.8-0.8c0.5-0.1,1,0.1,1.2,0.6c0.2,0.6-0.1,1-0.6,1.3c-0.3,0.1-0.6,0.2-0.9,0.3
			c-2,0.7-4.1,1.4-6.2,2.2c0.8,1.5-0.1,2.6-0.5,3.9c2.3-0.3,4.3-0.8,6.3-1.5c0.9-0.3,1.8-0.7,2.7-0.9c0.8-0.2,1.3,0.1,1.4,0.7
			c0.1,0.5-0.2,1-0.9,1.2c-1.4,0.5-2.7,1-4.1,1.4c-1.2,0.4-2.5,0.6-3.7,0.9c-0.8,0.2-1.6,0.2-2.3-0.5c-0.6,1.3-1.2,2.5-1.8,3.7
			c-0.9,1.5-0.2,2.8,0.3,4.2c0.4-0.1,0.7-0.1,0.9-0.2c3.7-1,7.3-2,11-3c3.6-1,7.1-2,10.7-3.2C119.4,71.4,121.6,70.4,124,69.4z
			 M83,87.6c-0.8-0.4-1.4-0.7-2.1-1.1c-2.5-1.4-4.9-2.8-7.5-4.1c-2-1-3.7-2.4-5.2-3.9c-1.7-1.6-2.2-3.6-1.3-5.8
			c0.1-0.2,0.1-0.5,0.3-0.7c0.8-1.7,1.7-3.4,2.6-5.1c0.6-1.2,1.3-2.3,2-3.4c1-1.7,2-3.3,2.8-5c0.8-1.6,2-2.3,3.6-2.2
			c0.8,0,1.6,0.3,2.5,0.4c0.4,0.1,0.8,0.2,1.4,0.3c-0.2-1-0.3-1.8-0.5-2.5c-0.5-1.5-0.9-3-1.5-4.4c-1.1-2.8-2.3-5.6-4.4-7.9
			c-2-2.3-4.4-3.7-7.5-3c-3.5,0.8-6.1,2.9-7.3,6.4c-0.6,1.6-0.8,3.3-1.1,4.9c-0.9,4.1-0.8,8.2,0.2,12.2c0.7,2.9,1.5,5.7,2.3,8.6
			c0.3,0.9,0.5,1.9,0.9,2.7c1.2,2.7,2.5,5.3,3.6,8c1.6,3.7,3.8,6.9,6.9,9.5c1.1,0.9,2.3,1.4,3.8,1.1c1.2-0.3,2.4-0.4,3.3-1.5
			c0.2-0.2,0.5-0.4,0.8-0.6C82.6,89.9,82.9,88.9,83,87.6z M88.5,80.9c2.5-4.8,5.3-9.2,7-14.2c-0.3-0.3-0.5-0.8-0.9-1.1
			c-0.9-0.7-1.8-1.4-2.9-2c-1.7-0.9-3.4-1.7-5.2-2.4c-2.4-1-4.8-1.9-7.3-2.7c-1.7-0.6-2.2-0.3-3.1,1.3c-0.1,0.2-0.2,0.3-0.3,0.5
			c-1.5,2.6-3,5.1-4.4,7.7c-0.6,1.1-1.2,2.2-1.7,3.3c-0.4,0.9-0.8,1.9-1.2,2.9c-0.3,0.8-0.1,1.5,0.4,2.2C70,77.8,71.4,79,73,80
			c3.1,1.9,6.4,3.5,9.6,5.2c0.3,0.2,0.7,0.2,1.2,0.4c-0.1-1.2,0.6-1.3,1.5-1.3c0.4,0,0.8-0.2,1.3-0.3c-0.5-0.5-0.8-0.8-1-1.2
			c-0.3-0.4-0.6-0.8-0.8-1.2c-0.2-0.4-0.2-0.9,0.3-1.2c0.5-0.3,0.8,0,1,0.5c0.3,0.4,0.6,0.8,0.9,1.2c0.2-0.4,0.1-0.6,0.1-0.8
			c-0.2-0.8-0.5-1.7-0.7-2.5c-0.1-0.4-0.1-0.8,0.3-1c0.5-0.2,0.8,0.1,1.1,0.5c0.1,0.3,0.2,0.6,0.3,0.9
			C88.1,79.7,88.3,80.2,88.5,80.9z M39.2,98.5c-1.3,0.1-2.4,0.2-3.6,0.3c0.1,0.4,0.2,0.6,0.3,0.8c0.6,1.6,1.2,3.3,1.8,4.9
			c0.3,0.9,0.4,1.9,0.7,2.8c0.5,1.7,1.1,3.3,1.7,5c1,2.9,2.1,5.7,3.1,8.5c0.1,0.4,0.4,0.8,0.6,1.1c1.5,0.2,2.8,0,3.8-1.1
			c0-0.3,0.1-0.6,0-0.8c-0.7-2.1-1.2-4.2-2.1-6.2c-1.4-3.5-3-6.9-4.1-10.4C40.8,101.7,39.9,100.1,39.2,98.5z M61.3,40.7
			c-2.4,1.6-3.8,3.9-4.1,6.7c-0.4,3.7-0.6,7.4-0.9,11.1c0,0.2,0,0.5,0,0.7c0.6,4.2,1.1,8.3,1.8,12.4c0.4,2.5,1.2,4.9,1.9,7.3
			c0.3,0.9,0.8,1.8,1.3,2.7c0.9,1.5,1.9,2.9,2.8,4.5c1.7,3,3.7,5.8,6.4,8c0.3,0.2,0.5,0.5,0.9,0.6c1.3,0.3,2.6,0.6,3.9,0.7
			c0.8,0.1,1.7-0.1,2.4-0.8c-0.3,0-0.6,0-0.8,0c-1.6,0.2-3-0.4-4.1-1.3c-2.4-1.9-4.5-4.1-5.9-6.8c-0.8-1.6-1.7-3.2-2.5-4.8
			c-1.5-3.1-3-6.2-4-9.5c-0.5-1.6-0.9-3.1-1.4-4.7c-0.9-3-1.5-6-1.9-9.2c-0.4-3.4,0.3-6.8,0.9-10.1c0.5-2.7,1.3-5.3,3.2-7.4
			C61.3,40.8,61.3,40.7,61.3,40.7z M94.8,29.7c6.2-1.6,12.1-3.2,18.1-4.8c-0.4-1.8-0.8-3.5-1.7-5.1C105.4,22.5,100.1,25.9,94.8,29.7
			z M28.7,64.3c-0.9,0.6-1.6,1-2.4,1.5c0.1,0.9,0.1,1.8,0.7,2.7c0.8-0.9,1.6-1.7,2.4-2.5C29.2,65.5,29,64.9,28.7,64.3z M27.3,61.7
			c-1.4,0.5-1.5,0.7-1,1.9c0.5-0.4,1-0.7,1.6-1.1C27.6,62.1,27.4,61.9,27.3,61.7z"/>
		<path d="M65.7,20.8c0.2-0.4,0.4-0.8,0.7-1.1c0.2-0.2,0.7-0.4,0.9-0.3c0.2,0.1,0.4,0.6,0.3,0.9c-0.1,0.5-0.4,0.9-0.7,1.6
			c0.7-0.2,1.2-0.3,1.7-0.4c0.5-0.1,1-0.3,1.5-0.2c0.3,0,0.7,0.3,0.8,0.5c0.2,0.4-0.2,0.7-0.6,0.9c-0.8,0.2-1.6,0.4-2.4,0.6
			c-0.3,0.1-0.6,0.1-1.1,0.2c0.2,0.3,0.4,0.5,0.6,0.6c0.8,0.6,1.7,1.1,2.5,1.6c0.2,0.1,0.4,0.2,0.6,0.4c0.4,0.2,0.6,0.6,0.4,1
			c-0.2,0.4-0.7,0.5-1,0.3c-0.8-0.5-1.7-1-2.5-1.5c-0.5-0.3-1-0.7-1.8-1.2c0.1,1.6,0.2,2.9,0.3,4.2c0.1,0.8,0.1,1.5,0.2,2.3
			c0,0.5-0.1,0.9-0.6,1c-0.6,0.1-0.8-0.4-0.9-0.9c-0.1-1.2-0.2-2.3-0.3-3.5c0-0.4-0.1-0.8-0.1-1.3c-0.2,0.2-0.3,0.3-0.5,0.3
			c-0.3,0-0.8,0.2-0.9,0c-0.2-0.2-0.2-0.7-0.1-1c0.1-0.4,0.3-0.7,0.6-1.3c-0.5,0.1-0.8,0.1-1.1,0.2c-0.7,0.1-1.4,0.3-2.1,0.5
			c-0.8,0.1-1.2-0.1-1.2-0.6c-0.1-0.7,0.4-0.8,0.9-0.9c0.9-0.2,1.9-0.4,2.8-0.7c0.3-0.1,0.5-0.2,0.8-0.3c-1-0.9-2-1.6-2.9-2.4
			c-0.2-0.2-0.5-0.4-0.7-0.7c-0.1-0.3-0.2-0.7,0-1c0.2-0.4,0.7-0.3,1.1-0.1c0.3,0.3,0.6,0.6,1,0.9c0.6,0.5,1.3,1,2.1,1.7
			c0-0.7,0-1,0-1.4c0-1.9-0.1-3.8-0.1-5.8c0-0.1,0-0.2,0-0.2c0-0.5,0.1-0.9,0.6-1c0.6-0.1,0.7,0.4,0.8,0.8c0.1,0.5,0.1,1,0.1,1.6
			c0,1.4,0,2.9,0.1,4.3c0,0.4,0.1,0.8,0.1,1.2C65.6,20.8,65.6,20.8,65.7,20.8z"/>
		<path d="M81.9,29.3c-0.2-0.8-0.4-1.3-0.5-1.9c-0.1-0.4-0.1-0.9,0.4-1.1c0.5-0.2,0.8,0.2,1,0.7c0.2,0.6,0.4,1.1,0.6,2
			c0.3-0.7,0.6-1.1,0.8-1.6c0.2-0.4,0.3-0.8,0.5-1.2c0.2-0.5,0.5-1.1,1.1-0.8c0.6,0.3,0.4,0.9,0.3,1.4c-0.2,0.7-0.5,1.3-0.8,2
			c-0.2,0.4-0.4,0.8-0.6,1.3c0.4-0.1,0.7-0.1,0.9-0.2c0.5-0.1,0.9-0.2,1.1,0.3c0.2,0.6-0.2,0.9-0.7,1.1c-0.2,0.1-0.4,0.2-0.7,0.3
			c0.4,0.3,0.6,0.4,0.9,0.6c0.3,0.2,0.7,0.5,0.4,1c-0.2,0.5-0.7,0.4-1.1,0.3c-0.2-0.1-0.5-0.2-0.9-0.4c0.2,0.8,0.3,1.5,0.4,2.1
			c0.1,0.4,0.2,0.7,0.2,1.1c0,0.3-0.3,0.7-0.5,0.8c-0.2,0-0.7-0.2-0.8-0.5c-0.2-0.4-0.3-0.8-0.4-1.3c-0.1-0.5-0.2-1-0.6-1.5
			c-0.3,0.6-0.6,1.3-0.9,1.9c-0.5,0.8-0.9,1.1-1.4,0.9c-0.4-0.2-0.4-0.7,0-1.6c0.4-0.7,0.7-1.5,1.1-2.5c-0.5,0.2-0.8,0.4-1.1,0.4
			c-0.3,0-0.8-0.1-0.9-0.3c-0.1-0.2,0.1-0.7,0.3-0.9c0.3-0.3,0.7-0.5,1.2-0.8c-0.4-0.3-0.7-0.5-1.1-0.8c-0.4-0.3-0.7-0.7-0.3-1.2
			c0.3-0.4,0.8-0.3,1.2,0C81.3,29,81.5,29.1,81.9,29.3z"/>
		<path d="M115,85.5c0,0,0.1,0.1,0.3,0.3c0.3,0.4,0.5,0.8,0.1,1.2c-0.3,0.3-0.7,0.2-1.1-0.1c-0.4-0.2-0.7-0.5-1.2-0.8
			c0,1.2,0,2.1,0,3.1c0,0.6,0.2,1.3-0.7,1.4c-0.5,0.1-0.8-0.4-0.8-1.5c0-0.8,0-1.6,0-2.7c-0.5,0.4-0.9,0.7-1.2,1
			c-0.4,0.3-0.8,0.6-1.3,0.1c-0.4-0.4-0.1-0.8,0.2-1.2c0.1-0.2,0.3-0.4,0.6-0.6c-0.4-0.1-0.8-0.1-1-0.3c-0.3-0.2-0.5-0.6-0.5-0.9
			c0-0.5,0.5-0.6,0.9-0.5c0.5,0,1,0,1.7,0c-0.4-0.4-0.6-0.7-0.8-0.9c-0.3-0.3-0.5-0.7-0.2-1c0.2-0.2,0.6-0.2,1-0.2
			c0.1,0,0.3,0.1,0.6,0.3c0-0.7-0.1-1.2-0.1-1.7c0-0.4-0.1-0.8,0-1.2c0.1-0.3,0.4-0.7,0.7-0.7c0.2,0,0.7,0.4,0.7,0.6
			c0.2,0.9,0.2,1.9,0.3,3.1c0.4-0.3,0.7-0.5,1-0.7c0.4-0.3,0.9-0.6,1.3-0.1c0.4,0.5,0.1,0.9-0.3,1.2c-0.3,0.3-0.6,0.5-0.9,0.8
			c0.4,0.2,1,0.4,1.2,0.7C115.5,84.4,115.2,85,115,85.5z"/>
		<path d="M126.5,34.7c0,0.8,0,1.5,0,2.2c0,0.3,0,0.7-0.1,0.9c-0.1,0.2-0.5,0.5-0.7,0.5c-0.2,0-0.5-0.3-0.6-0.6
			c-0.1-0.2-0.1-0.5-0.1-0.7c-0.5-0.1-1.2,0-1.3-0.2c-0.2-0.4,0-0.9,0-1.5c0,0-0.2,0-0.4-0.1c-0.6-0.4-0.6-1,0.1-1.3
			c0.2-0.1,0.5-0.2,0.8-0.3c0.3-0.1,0.5-0.2,0.9-0.3c0-0.8,0-1.6,0-2.4c0-0.3-0.1-0.6,0-0.8c0-0.4,0.2-0.9,0.7-0.8
			c0.3,0,0.6,0.4,0.7,0.7c0.2,0.7,0.2,1.4,0.3,2.3c0.3-0.4,0.5-0.6,0.7-0.9c0.3-0.3,0.6-0.6,1-0.4c0.4,0.2,0.4,0.6,0.3,1
			c0,0.1-0.1,0.3-0.2,0.5c0.1,0.1,0.3,0.1,0.4,0.2c0.2,0.2,0.5,0.5,0.5,0.7c0,0.2-0.3,0.5-0.5,0.7c-0.2,0.1-0.5,0.2-0.8,0.2
			C127.5,34.5,127.1,34.5,126.5,34.7z"/>
		<path d="M131.7,39.1c0.6,0.2,1.2,0.4,1.8,0.6c0.7,0.9-0.7,1.8-0.1,2.8c0.4,0.3,0.9,0.5,1.3,0.8c0.4,0.3,0.8,0.6,0.5,1.1
			c-0.3,0.5-0.7,0.4-1.1,0.2c-0.2-0.1-0.4-0.2-0.6-0.2c-0.2,0.6,0.3,1.5-0.5,1.7c-0.3,0.1-0.8-0.4-1.2-0.6c-0.1,0.2-0.3,0.7-0.6,1
			c-0.2,0.2-0.7,0.4-0.9,0.3c-0.2-0.1-0.4-0.6-0.3-0.9c0.2-0.6,0.5-1.2,0.7-1.7c-0.4-0.7-0.9-1.3-1.2-2c-0.3-0.6,0.1-1,0.7-1
			c0.3,0,0.6,0.2,1.1,0.3c-0.1-0.5-0.1-0.9-0.2-1.3C131.1,39.7,131.2,39.3,131.7,39.1z"/>
		<path class="st3" d="M55.3,45.7c-0.1,1.2-0.3,2.1-0.4,3.1c-0.3,3.2-0.5,6.4-0.7,9.6c-0.1,0.9,0.1,1.8,0.2,2.7
			c0.5,3.8,1,7.6,1.7,11.4c0.5,2.4,1.2,4.8,1.9,7.2c0.5,1.8,1.7,3.3,2.6,4.8c0.7,1.2,1.4,2.4,2.2,3.6c1.3,1.9,2.6,3.7,3.9,5.7
			c-0.2,0-0.4,0.1-0.6,0.1c-3.2,0.4-6.5,0.9-9.7,1.3c-4.9,0.5-9.8,1.4-14.8,1.2c-2.8-0.1-5.5,0.4-8.2,0.7c-1.2,0.1-2.2,0.1-3.3-0.8
			c-1.9-1.7-3.3-3.7-4.5-5.9c-1.4-2.7-2.5-5.5-2.9-8.5c-0.2-1.6-0.2-3.2-0.2-4.8c0-0.8,0.4-1.4,0.9-2c3.8-4,7.6-8,11.5-11.8
			c1.8-1.8,3.8-3.3,5.7-5c2.5-2.2,5-4.5,7.5-6.7c1.3-1.1,2.5-2.2,3.8-3.3c0.7-0.6,1.5-1.2,2.2-1.8C54.6,46.2,54.9,46,55.3,45.7z"/>
		<path class="st3" d="M124,69.4c-2.4,1-4.6,2-6.9,2.7c-3.5,1.2-7.1,2.2-10.7,3.2c-3.6,1-7.3,2-11,3c-0.3,0.1-0.5,0.1-0.9,0.2
			c-0.5-1.4-1.2-2.7-0.3-4.2c0.7-1.1,1.2-2.4,1.8-3.7c0.7,0.7,1.5,0.7,2.3,0.5c1.2-0.3,2.5-0.6,3.7-0.9c1.4-0.4,2.7-0.9,4.1-1.4
			c0.7-0.3,1-0.7,0.9-1.2c-0.1-0.6-0.7-0.9-1.4-0.7c-0.9,0.3-1.8,0.6-2.7,0.9c-2,0.8-4,1.3-6.3,1.5c0.4-1.3,1.3-2.5,0.5-3.9
			c2.2-0.8,4.2-1.5,6.2-2.2c0.3-0.1,0.6-0.1,0.9-0.3c0.5-0.2,0.8-0.7,0.6-1.3c-0.2-0.5-0.7-0.7-1.2-0.6c-0.9,0.2-1.9,0.4-2.8,0.8
			c-1.7,0.6-3.4,1.3-5.1,1.9c-1.4-0.9-2.8-1.9-4.2-2.8c-0.3-2.9-0.7-5.8-0.8-8.7c-0.2-4.3-0.2-8.6-0.4-12.8c0-1.5-0.1-3-0.2-4.5
			c-0.1-1.7-0.1-1.8,1.5-2.3c1.8-0.6,3.6-0.9,5.3-1.5c6-2,12.2-3.1,18.3-4.9c0.8-0.2,1.6-0.3,2.5-0.5c0.1,0.7,0.3,1.2,0.4,1.7
			c1.1,5.8,2.3,11.7,3.3,17.5c0.4,2,0.6,4.1,0.7,6.2c0.2,2.4,0.2,4.8,0.3,7.2c0,0.8,0.2,1.5,0.2,2.3c0.2,1.4,0.3,2.9,0.5,4.3
			c0.1,1,0.3,2,0.5,2.9C123.8,68.4,123.9,68.8,124,69.4z M117,45.9c-0.5-2.9-1.1-5.8-1.7-8.7c-0.3-1.7-1.1-2-2.7-1.4
			c-2.4,0.8-4.8,1.6-7.3,2.4c-3.2,1.1-6.3,2.2-9.5,3.3c-0.4,0.2-0.9,0.4-1.3,0.7c-0.9,0.6-1,1-0.7,2c0.2,0.8,0.4,1.5,0.6,2.3
			c0.8,2.3,1.5,4.5,2.4,6.8c0.4,1,1.2,1.3,2.3,1c0.2-0.1,0.5-0.1,0.7-0.2c3.3-1.2,6.6-2.4,9.9-3.6c1.7-0.6,3.4-1.2,5.1-1.8
			C116.3,48.1,116.9,47.3,117,45.9z M112.4,68.3c1.9-0.1,4.1-0.8,6.2-1.8c0.9-0.5,1.1-1.3,1-2.2c-0.3-3.7-1-7.3-2.4-10.7
			c-0.5-1.3-1-1.6-2.3-1.4c-2.3,0.3-4.3,1.3-6.3,2.5c-1.2,0.7-1.4,1.6-1.1,3c0.3,1.1,0.5,2.2,0.8,3.2c0.6,2,1.2,4,1.9,6.1
			C110.4,67.9,111,68.4,112.4,68.3z M112.4,29.9c-0.5,0.1-0.7,0.2-1,0.3c-5.3,1.8-10.7,3.4-15.7,5.7c-0.3,0.1-0.6,0.3-0.8,0.5
			c-0.6,0.4-0.7,1.1-0.4,1.6c0.3,0.5,0.8,0.5,1.5,0.2c1.5-0.7,3-1.4,4.6-2c3.7-1.3,7.5-2.6,11.2-3.9c0.4-0.1,0.8-0.2,1.1-0.4
			c0.4-0.2,0.7-0.7,0.4-1.1C113.1,30.4,112.7,30.1,112.4,29.9z M96.8,61.1c0.4-0.1,0.6-0.1,0.7-0.2c0.8-0.3,1.6-0.5,2.4-0.8
			c1.4-0.5,2.7-0.9,4.1-1.4c0.7-0.3,1-0.8,0.8-1.3c-0.2-0.5-0.7-0.7-1.4-0.6c-0.1,0-0.2,0.1-0.3,0.1c-1.9,0.6-3.8,1.2-5.7,1.9
			c-0.4,0.1-0.8,0.3-1,0.6c-0.2,0.3-0.4,0.8-0.3,1.1C96.1,60.7,96.6,60.9,96.8,61.1z"/>
		<path class="st3" d="M83,87.6c-0.1,1.2-0.4,2.2-1.6,2.8c-0.3,0.1-0.6,0.3-0.8,0.6c-0.8,1.1-2.1,1.3-3.3,1.5
			c-1.5,0.3-2.7-0.2-3.8-1.1c-3.1-2.6-5.3-5.8-6.9-9.5c-1.1-2.7-2.4-5.3-3.6-8c-0.4-0.9-0.7-1.8-0.9-2.7c-0.8-2.8-1.6-5.7-2.3-8.6
			c-1-4.1-1.1-8.2-0.2-12.2c0.4-1.6,0.6-3.3,1.1-4.9c1.2-3.5,3.8-5.6,7.3-6.4c3.1-0.7,5.4,0.7,7.5,3c2.1,2.3,3.2,5.1,4.4,7.9
			c0.6,1.4,1.1,2.9,1.5,4.4c0.2,0.7,0.3,1.5,0.5,2.5c-0.6-0.1-1-0.3-1.4-0.3c-0.8-0.2-1.6-0.4-2.5-0.4c-1.7-0.1-2.9,0.6-3.6,2.2
			c-0.8,1.7-1.9,3.3-2.8,5c-0.7,1.1-1.4,2.2-2,3.4c-0.9,1.7-1.7,3.4-2.6,5.1c-0.1,0.2-0.2,0.5-0.3,0.7c-0.9,2.2-0.4,4.2,1.3,5.8
			c1.6,1.5,3.2,2.9,5.2,3.9c2.5,1.3,5,2.7,7.5,4.1C81.5,86.9,82.2,87.2,83,87.6z M70.5,57.1c0.4-0.1,0.7-0.2,1.1-0.3
			c0.5-0.2,0.9-0.5,0.7-1.1c-0.2-0.5-0.7-0.4-1.1-0.3c-0.5,0.1-1,0.3-1.5-0.2c0.2-0.6,0.5-1.1,0.7-1.7c0.3-0.7,0.6-1.5,0.8-2.3
			c0.1-0.2-0.1-0.7-0.3-0.8c-0.3-0.1-0.7,0-0.9,0.2c-0.3,0.3-0.3,0.7-0.5,1.1c-0.2,0.5-0.5,1-0.8,1.8c-0.2-0.6-0.3-1-0.5-1.3
			c-0.2-0.4-0.5-0.7-1-0.5c-0.5,0.2-0.6,0.6-0.5,1.1c0.1,0.4,0.2,0.7,0.3,1.2c-0.7-0.1-1.2-0.8-1.7,0c-0.4,0.7,0.3,1,0.5,1.3
			c-0.2,0.5-0.7,1.1-0.5,1.2c0.3,0.4,0.9,0.5,1.4,0.8c-0.1,0.1-0.1,0.4-0.2,0.6c-0.4,1-0.8,1.9-1.2,2.9c-0.2,0.4-0.2,0.8,0.3,1
			c0.4,0.2,0.8,0,1-0.4c0.2-0.4,0.5-0.8,0.7-1.3c0.3-0.6,0.5-1.2,0.9-2c0.3,1.1,0.5,2,0.7,2.8c0.1,0.4,0.3,0.8,0.8,0.7
			c0.6-0.1,0.7-0.5,0.6-1c0-0.4-0.1-0.7-0.2-1.1c-0.1-0.5-0.2-0.9-0.3-1.3C70,57.9,70.3,57.6,70.5,57.1z"/>
		<path class="st3" d="M88.5,80.9c-0.2-0.8-0.4-1.3-0.5-1.7c-0.1-0.3-0.2-0.6-0.3-0.9c-0.2-0.4-0.5-0.7-1.1-0.5
			c-0.5,0.2-0.4,0.6-0.3,1c0.3,0.8,0.5,1.7,0.7,2.5c0.1,0.2,0.1,0.5-0.1,0.8c-0.3-0.4-0.7-0.8-0.9-1.2c-0.3-0.4-0.5-0.7-1-0.5
			c-0.5,0.3-0.5,0.7-0.3,1.2c0.2,0.4,0.5,0.8,0.8,1.2c0.3,0.3,0.6,0.6,1,1.2c-0.5,0.1-0.9,0.3-1.3,0.3c-0.8,0-1.6,0.1-1.5,1.3
			c-0.5-0.2-0.9-0.3-1.2-0.4c-3.2-1.7-6.4-3.4-9.6-5.2c-1.6-0.9-3-2.1-4.1-3.7c-0.5-0.7-0.7-1.4-0.4-2.2c0.3-1,0.7-1.9,1.2-2.9
			c0.5-1.1,1.1-2.2,1.7-3.3c1.5-2.6,3-5.1,4.4-7.7c0.1-0.2,0.2-0.3,0.3-0.5c0.9-1.6,1.3-1.9,3.1-1.3c2.5,0.8,4.9,1.7,7.3,2.7
			c1.8,0.7,3.5,1.5,5.2,2.4c1,0.5,1.9,1.3,2.9,2c0.4,0.3,0.7,0.8,0.9,1.1C93.8,71.8,91,76.1,88.5,80.9z M82,67.2
			c-0.4-0.6-0.7-1.2-1-1.7c-0.2-0.3-0.4-0.7-0.7-1c-1.1-1.1-2.2-1.1-3.1,0.2c-0.3,0.5-0.6,1-0.8,1.6c-0.6,1.6-0.6,3.2-0.2,4.8
			c0.6,2.4,1.3,4.7,2.1,7c0.2,0.8,0.7,1.1,1.5,0.8c0.9-0.3,1.9-0.8,2.6-1.4c1.6-1.4,3-2.8,4.5-4.3c0.8-0.8,1.4-1.8,2-2.8
			c1-1.8-0.2-3.9-2.2-4.2c-1.1-0.2-2.2,0-3.3,0.5C82.9,66.8,82.5,67,82,67.2z"/>
		<path class="st3" d="M39.2,98.5c0.7,1.7,1.6,3.2,2.1,4.9c1.1,3.6,2.8,7,4.1,10.4c0.8,2,1.4,4.2,2.1,6.2c0.1,0.3,0,0.5,0,0.8
			c-1,1.2-2.3,1.3-3.8,1.1c-0.2-0.4-0.4-0.7-0.6-1.1c-1-2.8-2.1-5.7-3.1-8.5c-0.6-1.7-1.2-3.3-1.7-5c-0.3-0.9-0.4-1.9-0.7-2.8
			c-0.5-1.7-1.2-3.3-1.8-4.9c-0.1-0.2-0.2-0.5-0.3-0.8C36.8,98.7,37.9,98.6,39.2,98.5z"/>
		<path class="st3" d="M61.3,40.7c0,0.1,0,0.1-0.1,0.2c-1.9,2.1-2.7,4.7-3.2,7.4c-0.6,3.3-1.3,6.7-0.9,10.1c0.4,3.1,1,6.1,1.9,9.2
			c0.4,1.6,0.9,3.1,1.4,4.7c1,3.3,2.5,6.4,4,9.5c0.8,1.6,1.6,3.2,2.5,4.8c1.4,2.7,3.6,4.9,5.9,6.8c1.2,0.9,2.6,1.5,4.1,1.3
			c0.2,0,0.5,0,0.8,0c-0.7,0.7-1.6,0.8-2.4,0.8c-1.3-0.1-2.6-0.4-3.9-0.7c-0.3-0.1-0.6-0.4-0.9-0.6c-2.7-2.2-4.7-5-6.4-8
			c-0.9-1.5-1.9-3-2.8-4.5c-0.5-0.9-1-1.8-1.3-2.7c-0.7-2.4-1.5-4.8-1.9-7.3c-0.7-4.1-1.2-8.3-1.8-12.4c0-0.2,0-0.5,0-0.7
			c0.3-3.7,0.5-7.4,0.9-11.1C57.5,44.6,58.9,42.3,61.3,40.7z"/>
		<path class="st3" d="M94.8,29.7c5.3-3.8,10.6-7.1,16.4-9.9c0.8,1.6,1.3,3.3,1.7,5.1C106.9,26.5,101,28,94.8,29.7z"/>
		<path class="st3" d="M28.7,64.3c0.2,0.6,0.4,1.1,0.6,1.7c-0.8,0.8-1.5,1.6-2.4,2.5c-0.6-0.9-0.6-1.8-0.7-2.7
			C27.1,65.3,27.9,64.9,28.7,64.3z"/>
		<path class="st3" d="M27.3,61.7c0.2,0.2,0.3,0.5,0.6,0.8c-0.6,0.4-1.1,0.7-1.6,1.1C25.8,62.3,25.9,62.1,27.3,61.7z"/>
		<path d="M117,45.9c-0.1,1.4-0.7,2.2-2.1,2.7c-1.7,0.6-3.4,1.2-5.1,1.8c-3.3,1.2-6.6,2.4-9.9,3.6c-0.2,0.1-0.5,0.2-0.7,0.2
			c-1.1,0.3-1.9,0.1-2.3-1c-0.9-2.2-1.6-4.5-2.4-6.8c-0.3-0.8-0.4-1.5-0.6-2.3c-0.3-1-0.2-1.5,0.7-2c0.4-0.3,0.8-0.5,1.3-0.7
			c3.2-1.1,6.3-2.2,9.5-3.3c2.4-0.8,4.8-1.6,7.3-2.4c1.6-0.6,2.4-0.2,2.7,1.4C116,40.1,116.5,43,117,45.9z M105.6,47.9
			c0.5,0.6,0.8,1,1.2,1.4c2.7-1,5.4-2,8.1-3c-0.4-3-0.4-5.9-1.6-8.7c-5.8,2-11.7,3.5-17.3,6c0.4,1.5,0.7,3,1.1,4.4
			c0.4,1.4,1,2.8,1.5,4.2c2.1-0.8,4-1.6,6-2.4c-1.1-1.3-2.1-2.5-3.1-3.6c-0.5-0.6-0.6-1.1-0.1-1.6c0.9-0.9,1.8-1.8,2.7-2.7
			c0.7-0.6,1.5-0.6,2.3-0.1c0.7,0.4,1.3,0.9,2,1.4c1.3,1,1.3,1.8-0.1,2.6C107.5,46.6,106.6,47.3,105.6,47.9z M105.5,43.8
			c-0.7,0.6-1.2,1.2-1.8,1.7c0.3,0.3,0.5,0.5,0.7,0.8c0.8-0.5,1.5-1.1,2.3-1.6C106.3,44.3,106,44.1,105.5,43.8z"/>
		<path d="M112.4,68.3c-1.4,0.1-2-0.4-2.2-1.3c-0.6-2-1.3-4-1.9-6.1c-0.3-1.1-0.5-2.2-0.8-3.2c-0.4-1.4-0.1-2.3,1.1-3
			c2-1.2,4-2.2,6.3-2.5c1.4-0.2,1.8,0.1,2.3,1.4c1.4,3.4,2.1,7,2.4,10.7c0.1,1-0.1,1.8-1,2.2C116.5,67.6,114.3,68.2,112.4,68.3z
			 M115.1,54.2c-2.2,0.3-4,1.3-5.8,2.4c0.9,3.3,1.5,6.5,2.7,9.6c1.7,0.1,4.2-0.6,5.5-1.5C117.3,61.1,116.8,57.6,115.1,54.2z"/>
		<path d="M112.4,29.9c0.2,0.2,0.6,0.4,0.8,0.8c0.2,0.4,0,0.9-0.4,1.1c-0.3,0.2-0.7,0.3-1.1,0.4c-3.7,1.3-7.5,2.5-11.2,3.9
			c-1.6,0.6-3.1,1.3-4.6,2c-0.7,0.3-1.2,0.3-1.5-0.2c-0.3-0.5-0.1-1.1,0.4-1.6c0.3-0.2,0.6-0.3,0.8-0.5c5.1-2.3,10.5-3.8,15.7-5.7
			C111.7,30.1,112,30.1,112.4,29.9z"/>
		<path d="M96.8,61.1c-0.2-0.2-0.7-0.4-0.8-0.6c-0.1-0.3,0-0.8,0.3-1.1c0.2-0.3,0.7-0.4,1-0.6c1.9-0.6,3.8-1.3,5.7-1.9
			c0.1,0,0.2-0.1,0.3-0.1c0.7-0.1,1.2,0.1,1.4,0.6c0.2,0.5-0.1,1-0.8,1.3c-1.3,0.5-2.7,1-4.1,1.4c-0.8,0.3-1.6,0.5-2.4,0.8
			C97.3,60.9,97.1,61,96.8,61.1z"/>
		<path d="M70.5,57.1c-0.3,0.4-0.5,0.8-0.8,1.3c0.1,0.3,0.2,0.8,0.3,1.3c0.1,0.4,0.2,0.7,0.2,1.1c0,0.5-0.1,0.9-0.6,1
			c-0.5,0.1-0.7-0.3-0.8-0.7c-0.2-0.8-0.4-1.7-0.7-2.8c-0.4,0.8-0.6,1.4-0.9,2c-0.2,0.4-0.4,0.9-0.7,1.3c-0.2,0.4-0.6,0.6-1,0.4
			c-0.4-0.2-0.4-0.6-0.3-1c0.4-1,0.8-1.9,1.2-2.9c0.1-0.2,0.2-0.4,0.2-0.6c-0.5-0.3-1.1-0.4-1.4-0.8c-0.1-0.1,0.3-0.8,0.5-1.2
			c-0.2-0.3-0.9-0.6-0.5-1.3c0.5-0.8,1-0.1,1.7,0c-0.1-0.4-0.3-0.8-0.3-1.2c-0.1-0.5,0-0.9,0.5-1.1c0.5-0.1,0.8,0.1,1,0.5
			c0.1,0.3,0.2,0.7,0.5,1.3c0.3-0.7,0.6-1.3,0.8-1.8c0.2-0.4,0.2-0.8,0.5-1.1c0.2-0.2,0.6-0.3,0.9-0.2c0.2,0,0.4,0.5,0.3,0.8
			c-0.2,0.8-0.5,1.5-0.8,2.3c-0.2,0.6-0.5,1.1-0.7,1.7c0.5,0.5,1,0.3,1.5,0.2c0.4-0.1,0.9-0.2,1.1,0.3c0.2,0.6-0.2,0.9-0.7,1.1
			C71.3,57,70.9,57,70.5,57.1z"/>
		<path d="M82,67.2c0.5-0.2,0.9-0.4,1.2-0.6c1-0.5,2.1-0.7,3.3-0.5c2,0.3,3.2,2.4,2.2,4.2c-0.5,1-1.2,2-2,2.8
			c-1.4,1.5-2.9,3-4.5,4.3c-0.7,0.6-1.7,1.1-2.6,1.4c-0.8,0.3-1.3,0-1.5-0.8c-0.7-2.3-1.5-4.6-2.1-7c-0.4-1.6-0.3-3.3,0.2-4.8
			c0.2-0.6,0.4-1.1,0.8-1.6c0.9-1.2,2.1-1.3,3.1-0.2c0.3,0.3,0.5,0.6,0.7,1C81.4,66,81.7,66.6,82,67.2z M80,76.8
			c0.4-0.3,0.8-0.5,1-0.8c1.2-1.2,2.5-2.4,3.7-3.6c0.7-0.8,1.4-1.6,2-2.5c0.7-1,0.2-1.8-1-1.8c-1.2,0-2.2,0.6-3.2,1.3
			c-1.2,0.8-1.7,0.7-2.2-0.7c-0.3-1-0.8-1.9-1.6-2.8c-0.2,0.4-0.4,0.7-0.5,1.1c-0.4,1.2-0.4,2.4-0.2,3.7
			C78.4,72.7,79.2,74.6,80,76.8z"/>
		<path class="st3" d="M105.6,47.9c1-0.7,1.9-1.3,2.9-1.9c1.4-0.9,1.5-1.6,0.1-2.6c-0.6-0.5-1.3-0.9-2-1.4c-0.8-0.5-1.6-0.6-2.3,0.1
			c-1,0.8-1.9,1.7-2.7,2.7c-0.5,0.5-0.4,1,0.1,1.6c1,1.2,1.9,2.3,3.1,3.6c-2.1,0.8-4,1.6-6,2.4c-0.6-1.5-1.1-2.9-1.5-4.2
			c-0.4-1.4-0.7-2.8-1.1-4.4c5.6-2.5,11.5-4,17.3-6c1.2,2.9,1.2,5.7,1.6,8.7c-2.7,1-5.4,2-8.1,3C106.4,48.9,106,48.5,105.6,47.9z"/>
		<path class="st3" d="M105.5,43.8c0.4,0.3,0.8,0.5,1.2,0.9c-0.8,0.6-1.6,1.1-2.3,1.6c-0.2-0.3-0.4-0.5-0.7-0.8
			C104.3,44.9,104.9,44.4,105.5,43.8z"/>
		<path class="st3" d="M115.1,54.2c1.7,3.4,2.2,6.9,2.4,10.5c-1.2,0.9-3.7,1.7-5.5,1.5c-1.2-3-1.8-6.3-2.7-9.6
			C111.1,55.5,112.9,54.5,115.1,54.2z"/>
		<path class="st3" d="M80,76.8c-0.8-2.1-1.6-4-1.9-6.1c-0.2-1.2-0.2-2.5,0.2-3.7c0.1-0.3,0.3-0.6,0.5-1.1c0.8,0.9,1.3,1.8,1.6,2.8
			c0.4,1.4,1,1.5,2.2,0.7c0.9-0.7,2-1.3,3.2-1.3c1.3,0,1.7,0.7,1,1.8c-0.6,0.9-1.3,1.7-2,2.5c-1.2,1.2-2.4,2.4-3.7,3.6
			C80.8,76.2,80.4,76.4,80,76.8z"/>
	</g>
</g>
</svg>
