<?xml version="1.0" encoding="utf-8"?>
<!-- Generator: Adobe Illustrator 24.0.1, SVG Export Plug-In . SVG Version: 6.00 Build 0)  -->
<svg version="1.1" xmlns="http://www.w3.org/2000/svg" xmlns:xlink="http://www.w3.org/1999/xlink" x="0px" y="0px"
	 viewBox="0 0 156.8 136.3" style="enable-background:new 0 0 156.8 136.3;" xml:space="preserve">
<style type="text/css">
	.st0{fill:#B7D6E2;}
	.st1{fill:#C0ADD5;}
	.st2{fill:#DDDDDD;}
	.st3{fill:#FFFFFF;}
</style>
<g id="Calque_2">
	<g>
		<path class="st0" d="M116.4,72.3c9.4,0.8,20.4,4.1,23.1,13.2c2.2,7.4-2.7,15.5-9.3,19.4c-6.7,3.9-14.7,4.8-22.4,5.5
			c-24.4,2.3-49.3,4.5-73.2-0.9c-8.2-1.9-17.8-6.7-17.6-15.2c0.2-8.3,9.6-13.4,17.8-14.5c3.8-0.5,7.7,0,8.5-0.5l-0.1,3.9
			c0,0,36.7,1.2,42.1,0"/>
	</g>
</g>
<g id="Calque_1">
	<g>
		<path d="M69.5,76.8c-0.2-1.1-0.4-2.1-0.5-3.2c-0.2-1.4,0.3-2,1.7-2.1c1.4-0.1,2.8-0.5,4.2-0.7c0.7-0.1,1.4-0.4,2.1-0.4
			c1.3-0.1,2,0.5,2.1,1.8c0.1,1.3,0,2.6-0.1,3.9c0,0.5-0.2,1,0.6,1.4c0.1-3.9,1.1-7.5,1.2-11.5c-1.8-0.1-3.5-0.1-5.1-0.2
			c-2.7-0.1-5.5,0-8.2-0.6c-1.6-0.4-3.3-0.2-5-0.2c-2.5-0.1-5-0.1-7.5-0.3c-2.6-0.3-5.2-0.1-7.8,0.1c-0.6,0-1.1,0-1.8,0
			c-0.1,0.5-0.2,1-0.3,1.5c-0.7,3.8-0.8,7.7-1,11.6c-0.2,2.9-0.3,5.8-0.6,8.7c-0.4,2.9-0.9,5.8-1.5,8.6c-0.2,1.2-0.9,1.6-2.5,1.6
			c-0.8,0-1.6,0-2.4,0c-1.6,0-2.6-1-2.6-2.6c0-1.6,0-3.2,0.1-4.8c0.3-3.3,0.1-6.6,0.1-9.9c0-2.9,0.2-5.8,0.5-8.7
			c0.4-4.3,0.9-8.6,1.5-12.9c0.4-3,0.6-6.1,1.6-9c0.1-0.2,0.1-0.5,0.1-0.7c0-0.7,0.3-1,0.9-1.3c1.2-0.7,2.4-1.4,3.6-2.1
			c0.3-0.2,0.7-0.5,1-0.6c1.7-0.4,2.9-1.6,4.3-2.6c0.9-0.6,1.8-1.2,2.8-1.9c-0.1-0.3-0.1-0.6-0.2-0.8c-1.2-3.5-2.4-6.9-3.1-10.6
			c-0.4-2.2-1.1-4.3-1.6-6.5c-0.2-0.6-0.4-1.1-0.7-1.6c-0.4-0.6-0.4-1.2,0-1.8c1.7-2.7,6-4.3,9.1-3.3c1.7,0.6,3.3,0.6,4.8-0.3
			c0.6-0.4,1.3-0.6,2-0.8c1.5-0.4,2.4,0,3.1,1.4c0.3,0.5,0.5,1,0.6,1.6c0.6,2.3,1.1,4.6,1.7,6.9c0.3,1.2-0.2,2.2-1.1,3
			c-0.6,0.5-1.3,1-1.9,1.4c-1.7,1.3-3.8,1.2-5.7,1.4c-0.6,0-1.1,0.1-1.7,0c-1.4-0.3-2.5,0.2-3.5,1.1c-0.6,0.5-1.3,0.9-2,1.4
			c0.1,0.4,0.2,0.7,0.3,1c0.6,1.8,1.2,3.6,1.8,5.3c3.1-0.1,6-0.1,8.9-0.2c4.5-0.1,9-0.2,13.5-0.2c3.6,0,7.3,0.1,10.9,0.2
			c3.4,0.2,6.8,0.5,10.2,0.7c2.3,0.1,4.6-0.1,7,0c2.5,0,4.9,0.2,7.4,0.2c1,0,2-0.1,3-0.2c0.8-0.1,1.4-0.1,2.1,0.4
			c2,1.3,3.7,2.9,5.5,4.5c1.2,1.2,2.7,2.1,4.1,3.1c0.6,0.4,1.2,0.7,1.7,1.1c0.7,0.5,1.1,1,0.7,1.9c-0.1,0.2,0,0.5,0,0.8
			c0.1,0.7,0.3,1.4,0.3,2.1c0.1,5.2,1,10.3,0.8,15.4c-0.2,4.1-0.5,8.2-0.5,12.3c0,3.5,0.1,6.9,0.3,10.4c0.1,1.6-0.4,2.9-1.2,4.2
			c-0.5,0.8-1.6,0.9-2.6,1c-1,0.1-2.1,0.2-3.1,0.2c0.5,1.6,1.1,3,1.5,4.5c1.1,4.5,0.7,8.9-1.5,12.9c-1.6,2.9-4.3,4.5-7.3,5.5
			c-1.9,0.7-3.9,1-6,0.9c-5-0.2-9.9,0.4-14.7,1.6c-2.9,0.7-6,0.7-9,0.5c-2.2-0.1-4.3-0.8-6.3-1.8c-5.5-2.7-7.7-7.3-7.4-13.3
			c0.1-2.2,0.7-4.3,1.2-6.5c0.3-1.4,1.2-2.7,2-3.9c1.4-2.1,2.9-4,4.6-5.7c0.1-2.1,0.3-4,0.4-5.9c-2-0.1-3.9-0.2-5.8-0.3
			c-0.1,0-0.2,0-0.4,0c-2.4-0.4-4.8,0.6-7.2,0.4c-0.1,0-0.2,0.1-0.5,0.2c0,1.6,0,3.2,0,4.8c0,0.2,0,0.5,0,0.7
			c-0.1,0.5-0.4,0.9-0.9,0.9c-0.6,0-0.9-0.3-1-0.9c-0.1-0.5-0.1-1-0.1-1.6c0-1.6,0-3.3,0-4.9c0-0.6-0.4-0.9-1-1.2
			c-0.1,0.3-0.2,0.6-0.3,0.9c-0.2,1-0.3,2-0.5,3.1c-0.2,0.9-0.6,1.4-1.3,1.2c-0.6-0.1-0.9-0.7-0.7-1.6c0.4-2,0.8-4,1.2-6.1
			c-0.7-0.7-0.7-1.7-0.4-2.7c0.1-0.4,0.5-0.8,0.8-0.9c0.9-0.3,1.8-0.5,2.7-0.6c1.7-0.1,3.5-0.5,5.2-0.1
			C69.3,76.9,69.4,76.8,69.5,76.8z M125.6,93.9c0.3-0.7,0.5-1.2,0.7-1.7c0.1-0.4,0.3-0.8,0.3-1.2c-0.1-3.3-0.4-6.6-0.3-9.9
			c0.1-4.3,0.4-8.5,0.6-12.8c0.2-5.1-0.6-10.2-0.8-15.3c0-0.7-0.2-1.5-0.3-2.2c-1.6-0.6-3.1-0.9-4.6-0.9c-2.6-0.1-5.2-0.1-7.8-0.2
			c-5.6-0.3-11.3-0.5-16.9-0.1c-0.3,0-0.6,0-1,0c-4.4,0.1-8.7,0.2-13.1,0.3c-1.2,0-2.4,0.1-3.6,0.2c-5.2,0.3-10.4,1.3-15.7,1.1
			c-4.6-0.2-9.1-0.2-13.7-0.3c-0.5,0-1,0-1.6-0.1c-1.4-0.1-2.7-0.2-4.1-0.3c-1.3-0.1-2.5-0.2-3.9-0.3c-0.2,0.6-0.3,1.1-0.4,1.6
			c-0.3,2.2-0.7,4.4-1,6.6c-0.5,3.8-0.8,7.6-1.3,11.3c-0.5,3.8-0.8,7.5-0.7,11.4c0.1,2.8-0.1,5.5-0.1,8.3c0,1.8,0,3.6,0,5.5
			c1.1,0,2.2,0,3.4,0c0.5-2.8,1.1-5.6,1.5-8.4c0.4-2.9,0.5-5.8,0.6-8.7c0.2-4,0.4-8.1,1.1-12c0.1-0.7,0.5-1.3,0.7-2
			c0.3-0.7,0.9-0.9,1.6-0.8c0.7,0,1.4,0,2,0c2.4,0,4.9-0.3,7.3,0c2.7,0.4,5.5,0.5,8.3,0.3c2.3-0.1,4.6,0.1,6.9,0.6
			c0.6,0.2,1.3,0.2,1.9,0.2c3,0.1,6,0.1,9,0.2c1.4,0,2,0.6,2,2c0,1.4-0.1,2.7-0.3,4.1c-0.3,2.8-0.7,5.5-0.9,8.3
			c-0.3,3.4-0.4,6.9-0.6,10.3c0,0.3,0,0.5,0,0.9c2.1-1.6,4.1-3,6-4.5c-0.3-1.3,0-2.3,0.9-3.2c-1.2-1.6-2-3.4-2.6-5.3
			c-0.5-1.5-0.5-3.1,0.3-4.5c0.4-0.6,0.9-1,1.7-1c1.3,0.1,2.5,0.4,3.4,1.5c0.7,0.8,1.5,1.6,2.4,2.2c1.9,1.1,2.3,0.6,3-0.9
			c0.1-0.2,0.2-0.4,0.3-0.7c1.3-2.9,3.6-5,5.8-7.1c0.2-0.2,0.5-0.3,0.7-0.5c1.6-0.9,2.9-0.3,3.4,1.5c0.2,0.8,0.3,1.6,0.5,2.4
			c0.2,0.8,0.4,1.5,1.2,2.1c0.4-0.2,0.9-0.4,1.3-0.7c2.2-1.2,4.5-2.5,6.7-3.7c1.8-1,3.8-1.2,5.8-0.6c1.7,0.5,2.5,2,2.1,3.7
			c-0.1,0.3-0.2,0.6-0.3,0.9c-1,2.3-2.3,4.4-4.5,5.7c-0.8,0.5-1.2,1.1-1.2,2.1c0.1,1.7-0.4,3.2-1.6,4.4c0.3,1.7-1,2.6-1.9,3.8
			c0.7,0.6,1.4,1.1,2,1.7c0.7,0.7,1.5,1.5,2.1,2.3c0.5,0.7,0.9,1.4,1.3,2.2c0.5,0.8,0.8,0.9,1.7,0.8c0.9-0.1,1.7-0.2,2.6-0.3
			C124.8,94,125.3,94,125.6,93.9z M89,86.4c-2.3,1.7-4.5,3.4-6.7,5c-4.8,3.6-8.2,8.1-9,14.2c-0.3,2.2-0.3,4.4,0.3,6.5
			c1.1,3.6,3.6,5.9,7.1,7.3c4.1,1.6,8.3,1.5,12.4,0.6c5.1-1.1,10.2-1.9,15.4-1.7c1.9,0.1,3.7-0.2,5.4-0.8c2.6-0.9,4.9-2.3,6.2-4.8
			c1.7-3.1,2-6.6,1.4-10c-0.7-3.9-2.7-7.3-4.8-10.6c-0.2-0.3-0.5-0.6-0.7-0.8c-1-0.9-2.1-1.7-3.2-2.6c0,0,0,0-0.1,0
			c-0.2,0-0.4,0.1-0.6,0.1c-2.1,0.6-4.2,0.5-6.2-0.5c-1.1-0.5-2.2-0.9-3.4-1.2c-1.5-0.5-3-0.5-4.7-0.6c0.6,2.1-0.4,4.1,0.5,6.1
			c1.8-0.8,3.4-0.5,5.1,0.3c0.4,0.2,0.8,0.3,1.2,0.4c0.5,0.2,0.7,0.5,0.7,1c0,0.5-0.4,0.8-0.8,0.9c-0.3,0-0.6,0-0.9-0.1
			c-0.6-0.2-1.1-0.4-1.7-0.7c-1.2-0.6-2.2-0.4-3.3,0.4c0.3,1.4,0,2.7-1.5,3.4c-1.7,0.8-2.8-0.1-3.8-1.3c-1.4,0.8-2.3,1.9-3.1,3.2
			c0.2,0.1,0.3,0.2,0.4,0.2c2.5,0,4.9-0.1,7.4-0.1c0.5,0,1,0.1,1.5,0.2c0.7,0.2,1,0.6,1,1.1c-0.1,0.6-0.6,0.9-1.3,0.9
			c-2.1-0.1-4.1-0.2-6.2-0.3c-1.1,0-2.1,0.1-3.2,0.6c0,1.8,0.4,3.4,1.5,4.9c1.4,1.8,3.2,3.2,5.4,3.7c1.6,0.4,3.2,1.1,4.9,0.1
			c0.2-0.1,0.9,0,1,0.2c0.2,0.3,0.3,0.9,0.1,1.2c-0.2,0.4-0.7,0.7-1.1,0.8c-0.9,0.2-1.9,0.4-2.8,0.3c-1.3-0.2-2.6-0.5-3.8-1
			c-3.8-1.6-6.4-4.2-7.1-8.5c0-0.3-0.1-0.5-0.2-0.8c-2.7,0.2-2.7,0.1-2.9-1.8c-0.2-0.1-0.5-0.2-0.7-0.3c-1.4-0.7-1.8-1.9-1.1-3.3
			c0.2-0.4,0.5-0.8,0.8-1.2c2.2-2.8,4.1-5.9,6.8-8.3c0.4-0.3,0.7-0.7,1-1.1c0.2-0.2,0.2-0.4,0.4-0.7C90.8,86.5,89.9,86.4,89,86.4z
			 M104.5,67.4c-0.5,0.3-0.8,0.4-1,0.6c-2,1.9-4,3.7-5.1,6.3c-0.3,0.6-0.5,1.2-0.9,1.7c-0.9,1.4-2,1.9-3.6,1.3
			c-1-0.3-1.9-0.9-2.7-1.5c-0.7-0.5-1.3-1.2-1.9-1.8c-0.5-0.5-1-0.7-1.7-0.6c-0.9,1.7-0.7,2.4,2.4,8c2.1,0.1,4.1,0.2,6.2,0.3
			c3.7,0.2,7.4,0.4,11.1,0.6c0.8,0,1.5,0.2,2.3,0.2c1.4,0.1,2.9,0.1,4.3,0.1c1,0,1.6-0.6,2-1.5c0.2-0.5,0.3-1,0.3-1.5
			c-0.1-2,0.8-3.4,2.5-4.4c1.8-1.1,2.8-2.9,3.5-4.9c0.3-1,0-1.4-1-1.6c-1.3-0.3-2.6-0.1-3.9,0.5c-0.8,0.4-1.6,0.8-2.3,1.2
			c-1.8,1-3.6,2.1-5.4,3.1c-1.5,0.8-2.5,0.5-3.4-0.8c-0.7-1-1.1-2-1.3-3.2C104.8,68.8,104.7,68.2,104.5,67.4z M47.2,19.2
			c0.2,0.4,0.3,0.7,0.5,1c0.5-0.2,0.8-0.4,1.2-0.5c1.4-0.5,2.8-0.6,4.2,0c2.5,1,3.2,2.8,2.3,5.1c-0.4,0.9-0.9,1.8-1.4,2.8
			c0.7,0,1.5,0,2.2,0c2.7,0,5.4,0.1,7.6-2c0.6-0.6,0.9-1,0.7-1.8c-0.5-2.1-1.1-4.3-1.6-6.4c-0.1-0.5-0.4-0.9-0.7-1.5
			c-0.7,0.3-1.4,0.4-2,0.7c-2.2,1.3-4.5,1.4-6.8,0.4c-0.9-0.4-1.8-0.3-2.7,0C49.5,17.5,48.4,18.2,47.2,19.2z M66.7,40.1
			c-0.7,0-1.2,0-1.7,0c-1.1-0.1-1.8,0.4-2.4,1.4c-1,1.5-2.1,3-3.2,4.5c-0.7,1-1.4,1.9-2.2,3c1.8,0,3.3,0,5,0
			C63.7,46.1,65.1,43.2,66.7,40.1z M72.8,80.4c1.3-0.5,2.5-1,3.8-1.5c0.3-2.1,0.9-4.2,0.5-6.5c-2.1,0.5-4.1,0.9-6.1,1.4
			C71.6,76,71.7,78.3,72.8,80.4z M61,40.3c-1.5-0.3-2.5,0-3.5,0.9c-0.9,0.9-2,1.7-3,2.4c0.1,0.9,0.7,1.8-0.2,2.4
			c-0.8,0.5-1.2-0.3-1.8-0.8c-1.3,1.1-2.6,2.2-3.8,3.3c0,0.1,0.1,0.2,0.1,0.3c1.9,0.1,3.8,0.2,5.7,0.3C56.7,46.1,58.8,43.3,61,40.3z
			 M114.2,84.8c-2.1-0.2-4-0.4-6-0.5c-0.4,0-0.9,0-1.3,0c-0.9,0-1.8,0-2.8-0.1c-2.9-0.2-5.8-0.4-8.7-0.5c-1.4-0.1-2.8-0.2-4.2-0.2
			c-0.7,0-1.4,0-2.1,0.7c0.5,0.1,0.9,0.3,1.3,0.3c0.9,0,1.8,0.1,2.8,0c4.9-0.5,9.6-0.1,14.1,2c1,0.5,2,0.6,3,0.5
			C111.9,86.8,113.3,86.3,114.2,84.8z M102.2,40.9c0.5,2.2,1,4.2,1.5,6.3c1.4,0,2.9,0,4.5,0c-0.7-2.1-1.3-4.2-2-6.3
			C104.9,40.9,103.6,40.9,102.2,40.9z M91.3,47.5c0.2-2.4,0.3-4.6,0.5-6.9c-1-0.1-2-0.2-3-0.3c-0.6,2.5-1.3,4.9-1.9,7.5
			C88.5,47.7,89.9,47.6,91.3,47.5z M78.8,39.9c-1.3,2.8-2.5,5.5-3.9,8.4c0.9-0.1,1.5-0.2,2.1-0.2c0.8,0,1.3-0.4,1.6-1
			c0.7-1.4,1.5-2.7,2.2-4.1c0.4-0.9,0.8-1.8,1.3-2.9C81,40,80,40,78.8,39.9z M69,40.2c-0.4,0.8-0.8,1.5-1.2,2.3
			c-1,1.9-1.9,3.8-2.9,5.7c-0.1,0.3-0.2,0.6-0.3,0.9c1,0,1.8,0,2.6,0c1.6-2.9,3.1-5.8,4.7-8.8C70.8,40.2,69.8,40.2,69,40.2z
			 M122.7,47.9c0-0.1,0.1-0.1,0.1-0.2c-0.3-0.2-0.5-0.5-0.8-0.7c-1.1-1-2.2-2-3.4-3c-1.2-1-2.5-1.9-3.7-2.9c-0.5-0.4-1.1-0.4-1.8,0
			c1.5,2.2,2.9,4.3,4.4,6.5C119.3,47.7,121,47.8,122.7,47.9z M84.4,40.1c-1.3,2.7-2.5,5.1-3.7,7.6c1.4,0,2.7,0,4,0
			c0.6-2.5,1.3-4.9,1.9-7.4C85.8,40.2,85.1,40.2,84.4,40.1z M115.1,47.7c-0.6-0.9-1-1.6-1.5-2.3c-0.7-1.1-1.5-2.3-2.2-3.4
			c-0.7-1.1-1.6-1.3-3-0.8c0.6,2,1.2,4,1.9,6.1C111.8,47.5,113.3,47.6,115.1,47.7z M49.5,27.5c1-0.5,1.7-0.8,2.4-1.2
			c1.1-0.6,1.5-1.7,1.7-2.9c0.1-0.4-0.2-0.9-0.5-1.2c-1.2-1.1-3.4-1-4.7,0.3C48.8,24,49.1,25.6,49.5,27.5z M69.6,48.8
			c1.2-0.1,2-0.2,3-0.4c1.3-2.8,2.6-5.6,3.9-8.5C75.7,40,75,40,74.3,40C72.7,43,71.2,45.8,69.6,48.8z M41.9,47.9
			c0,0.1,0.1,0.2,0.1,0.2c1.3,0.1,2.5,0.3,3.6,0.4c2.2-1.9,4.3-3.8,6.5-5.7c-0.1-0.3-0.2-0.7-0.4-1.1c-0.9,0.6-1.7,1.2-2.5,1.7
			c-1.2,0.8-2.4,1.9-3.7,2.4C44.2,46.4,43.1,47.3,41.9,47.9z M96.2,47.5c0-2.2,0-4.3,0-6.5c-0.8-0.1-1.5-0.1-2.3-0.2
			c-0.2,2.3-0.4,4.5-0.6,6.7C94.3,47.5,95.2,47.5,96.2,47.5z M101.6,47.2c-0.3-2.2-0.8-4.2-1.7-6.1c-0.6,0-1.1,0-1.5,0
			c0,2.1,0,4.2,0,6.3C99.5,47.3,100.5,47.2,101.6,47.2z M79.5,78.6c-0.1-0.1-0.1-0.1-0.2-0.2c-0.2,0.3-0.6,0.6-0.7,1
			c-0.2,1-0.8,1.3-1.7,1.6c-1.4,0.5-2.9,1.1-4.3,1.7c0,0.1,0,0.2,0,0.2c2.2,0,4.4,0.5,6.8,0.1C79.5,81.5,79.5,80.1,79.5,78.6z
			 M84.5,99.2c1.3,0.5,2.3,0.9,3.5,0.9c-0.1-0.4-0.1-0.7-0.2-1c-0.3-1.8-0.1-3.5,1-5c0.5-0.6,0.9-1.3,1.4-2c0.1-0.2,0.1-0.4,0.2-0.5
			c-0.1,0-0.2-0.1-0.2-0.1C88.4,94,86.3,96.4,84.5,99.2z M65.5,83.4c1.9-0.2,4,0.2,6-0.7c-0.2-0.5-0.4-0.9-0.5-1.1
			c-2.4,0.1-4.7,0.2-7.1,0.2C64.5,82.5,64.9,82.9,65.5,83.4z M70.2,79.7c0-0.1,0.1-0.2,0.1-0.3c-0.2-0.1-0.4-0.4-0.7-0.4
			c-2.5-0.5-5.5-0.3-6.6,0.6C65.5,80,67.8,79.6,70.2,79.7z M95.9,96.3c0.5-0.1,0.8-0.4,0.7-0.9c-0.2-1.4-0.4-2.7-0.7-4.2
			C94.6,93.2,94.6,95.3,95.9,96.3z M90,96.8c0.9-0.7,1.9-1.5,2.8-2.2c0.3-1.2,0.5-2.4,0.8-3.7C92.4,93,90.7,94.6,90,96.8z"/>
		<path class="st3" d="M125.6,93.9c-0.4,0-0.8,0.1-1.2,0.2c-0.9,0.1-1.7,0.2-2.6,0.3c-0.9,0.1-1.2,0-1.7-0.8
			c-0.4-0.7-0.8-1.5-1.3-2.2c-0.6-0.8-1.4-1.6-2.1-2.3c-0.6-0.6-1.3-1.1-2-1.7c0.9-1.2,2.2-2.1,1.9-3.8c1.1-1.2,1.6-2.7,1.6-4.4
			c0-0.9,0.4-1.6,1.2-2.1c2.3-1.3,3.6-3.4,4.5-5.7c0.1-0.3,0.2-0.6,0.3-0.9c0.4-1.8-0.4-3.2-2.1-3.7c-2-0.6-4-0.4-5.8,0.6
			c-2.3,1.2-4.5,2.5-6.7,3.7c-0.4,0.2-0.9,0.4-1.3,0.7c-0.8-0.6-1-1.4-1.2-2.1c-0.2-0.8-0.3-1.6-0.5-2.4c-0.4-1.8-1.8-2.3-3.4-1.5
			c-0.2,0.1-0.5,0.3-0.7,0.5c-2.3,2.1-4.5,4.2-5.8,7.1c-0.1,0.2-0.2,0.4-0.3,0.7c-0.7,1.5-1.1,2-3,0.9c-0.9-0.5-1.7-1.3-2.4-2.2
			c-0.9-1.1-2.1-1.4-3.4-1.5c-0.7,0-1.3,0.3-1.7,1c-0.9,1.5-0.9,3-0.3,4.5c0.6,1.8,1.4,3.7,2.6,5.3c-1,0.8-1.2,1.9-0.9,3.2
			c-2,1.5-3.9,2.9-6,4.5c0-0.4-0.1-0.7,0-0.9c0.2-3.4,0.3-6.9,0.6-10.3c0.2-2.8,0.6-5.6,0.9-8.3c0.1-1.3,0.3-2.7,0.3-4.1
			c0-1.4-0.6-1.9-2-2c-3-0.1-6-0.1-9-0.2c-0.6,0-1.3,0-1.9-0.2c-2.3-0.6-4.6-0.7-6.9-0.6c-2.8,0.1-5.5,0-8.3-0.3
			c-2.4-0.3-4.9,0-7.3,0c-0.7,0-1.4,0.1-2,0c-0.7,0-1.3,0.1-1.6,0.8c-0.3,0.7-0.6,1.3-0.7,2c-0.8,4-0.9,8-1.1,12
			c-0.1,2.9-0.3,5.8-0.6,8.7c-0.3,2.8-1,5.6-1.5,8.4c-1.2,0-2.3,0-3.4,0c0-1.9,0-3.7,0-5.5c0-2.8,0.2-5.5,0.1-8.3
			c-0.1-3.8,0.2-7.6,0.7-11.4c0.5-3.8,0.8-7.5,1.3-11.3c0.3-2.2,0.6-4.4,1-6.6c0.1-0.5,0.3-1,0.4-1.6c1.3,0.1,2.6,0.2,3.9,0.3
			c1.4,0.1,2.7,0.2,4.1,0.3c0.5,0,1,0.1,1.6,0.1c4.6,0.1,9.1,0.1,13.7,0.3c5.3,0.2,10.4-0.8,15.7-1.1c1.2-0.1,2.4-0.1,3.6-0.2
			c4.4-0.1,8.7-0.2,13.1-0.3c0.3,0,0.6,0,1,0c5.6-0.4,11.3-0.2,16.9,0.1c2.6,0.2,5.2,0.1,7.8,0.2c1.5,0.1,3,0.3,4.6,0.9
			c0.1,0.7,0.3,1.4,0.3,2.2c0.1,5.1,1,10.2,0.8,15.3c-0.2,4.3-0.5,8.5-0.6,12.8c0,3.3,0.2,6.6,0.3,9.9c0,0.4-0.2,0.8-0.3,1.2
			C126.1,92.7,125.9,93.2,125.6,93.9z"/>
		<path class="st3" d="M89,86.4c0.9,0.1,1.9,0.2,2.9,0.3c-0.1,0.3-0.2,0.5-0.4,0.7c-0.3,0.4-0.6,0.8-1,1.1c-2.7,2.4-4.6,5.5-6.8,8.3
			c-0.3,0.4-0.6,0.8-0.8,1.2c-0.7,1.4-0.3,2.6,1.1,3.3c0.2,0.1,0.5,0.2,0.7,0.3c0.2,1.9,0.3,1.9,2.9,1.8c0.1,0.3,0.1,0.5,0.2,0.8
			c0.7,4.2,3.3,6.9,7.1,8.5c1.2,0.5,2.5,0.8,3.8,1c0.9,0.1,1.9-0.1,2.8-0.3c0.4-0.1,0.9-0.5,1.1-0.8c0.2-0.3,0.1-0.9-0.1-1.2
			c-0.1-0.2-0.8-0.3-1-0.2c-1.7,1-3.3,0.3-4.9-0.1c-2.3-0.6-4-1.9-5.4-3.7c-1.1-1.4-1.5-3-1.5-4.9c1-0.5,2.1-0.6,3.2-0.6
			c2.1,0.1,4.1,0.2,6.2,0.3c0.8,0,1.3-0.3,1.3-0.9c0.1-0.6-0.3-1-1-1.1c-0.5-0.1-1-0.2-1.5-0.2c-2.5,0-4.9,0.1-7.4,0.1
			c-0.1,0-0.2-0.1-0.4-0.2c0.9-1.2,1.8-2.3,3.1-3.2c1,1.2,2.1,2.1,3.8,1.3c1.5-0.7,1.8-2,1.5-3.4c1.1-0.8,2.2-1,3.3-0.4
			c0.5,0.3,1.1,0.5,1.7,0.7c0.3,0.1,0.6,0.1,0.9,0.1c0.5-0.1,0.8-0.4,0.8-0.9c0-0.5-0.2-0.8-0.7-1c-0.4-0.2-0.8-0.2-1.2-0.4
			c-1.6-0.8-3.3-1.1-5.1-0.3c-0.9-2,0.1-4-0.5-6.1c1.7,0.1,3.2,0.2,4.7,0.6c1.1,0.4,2.3,0.7,3.4,1.2c2,0.9,4.1,1,6.2,0.5
			c0.2-0.1,0.4-0.1,0.6-0.1c0,0,0.1,0,0.1,0c1.1,0.9,2.2,1.7,3.2,2.6c0.3,0.2,0.5,0.5,0.7,0.8c2.1,3.3,4.1,6.7,4.8,10.6
			c0.6,3.5,0.2,6.9-1.4,10c-1.3,2.5-3.6,3.9-6.2,4.8c-1.7,0.6-3.5,0.9-5.4,0.8c-5.2-0.2-10.3,0.6-15.4,1.7c-4.1,0.9-8.3,1-12.4-0.6
			c-3.5-1.3-6-3.6-7.1-7.3c-0.7-2.1-0.6-4.3-0.3-6.5c0.8-6.1,4.2-10.6,9-14.2C84.4,89.7,86.7,88,89,86.4z"/>
		<path class="st3" d="M104.5,67.4c0.1,0.8,0.3,1.4,0.4,2c0.2,1.2,0.6,2.2,1.3,3.2c1,1.3,2,1.6,3.4,0.8c1.8-1,3.6-2,5.4-3.1
			c0.8-0.4,1.5-0.8,2.3-1.2c1.2-0.6,2.5-0.7,3.9-0.5c1,0.2,1.3,0.7,1,1.6c-0.7,2-1.6,3.8-3.5,4.9c-1.7,1-2.6,2.4-2.5,4.4
			c0,0.5-0.1,1-0.3,1.5c-0.3,0.9-1,1.5-2,1.5c-1.4,0-2.9-0.1-4.3-0.1c-0.8,0-1.5-0.2-2.3-0.2c-3.7-0.2-7.4-0.4-11.1-0.6
			c-2.1-0.1-4.1-0.2-6.2-0.3c-3-5.6-3.3-6.4-2.4-8c0.7-0.1,1.2,0.1,1.7,0.6c0.6,0.6,1.2,1.3,1.9,1.8c0.8,0.6,1.7,1.1,2.7,1.5
			c1.6,0.5,2.7,0.1,3.6-1.3c0.3-0.5,0.6-1.1,0.9-1.7c1.1-2.5,3.2-4.4,5.1-6.3C103.7,67.8,104.1,67.7,104.5,67.4z"/>
		<path class="st3" d="M47.2,19.2c1.2-1,2.3-1.8,3.6-2.2c0.9-0.3,1.8-0.4,2.7,0c2.3,0.9,4.6,0.8,6.8-0.4c0.6-0.3,1.2-0.5,2-0.7
			c0.3,0.6,0.5,1,0.7,1.5c0.6,2.1,1.1,4.3,1.6,6.4c0.2,0.8-0.1,1.3-0.7,1.8c-2.2,2.1-4.9,2.1-7.6,2c-0.8,0-1.5,0-2.2,0
			c0.5-0.9,1-1.8,1.4-2.8c0.9-2.3,0.1-4.1-2.3-5.1c-1.4-0.6-2.8-0.4-4.2,0c-0.4,0.1-0.7,0.3-1.2,0.5C47.5,19.9,47.4,19.6,47.2,19.2z
			"/>
		<path class="st3" d="M66.7,40.1c-1.6,3.1-3.1,6-4.5,8.9c-1.7,0-3.2,0-5,0c0.8-1.1,1.5-2.1,2.2-3c1.1-1.5,2.2-2.9,3.2-4.5
			c0.6-0.9,1.3-1.4,2.4-1.4C65.6,40.1,66.1,40.1,66.7,40.1z"/>
		<path class="st3" d="M72.8,80.4c-1.1-2.1-1.3-4.4-1.8-6.7c2.1-0.5,4-0.9,6.1-1.4c0.4,2.3-0.2,4.4-0.5,6.5
			C75.4,79.4,74.2,79.9,72.8,80.4z"/>
		<path class="st3" d="M61,40.3c-2.2,3-4.3,5.8-6.4,8.7c-1.9-0.1-3.8-0.2-5.7-0.3c0-0.1-0.1-0.2-0.1-0.3c1.3-1.1,2.5-2.2,3.8-3.3
			c0.6,0.5,1,1.4,1.8,0.8c0.9-0.6,0.3-1.4,0.2-2.4c0.9-0.8,2-1.5,3-2.4C58.5,40.3,59.5,40.1,61,40.3z"/>
		<path class="st3" d="M114.2,84.8c-0.9,1.4-2.3,2-3.9,2.1c-1,0.1-2.1,0-3-0.5c-4.5-2.1-9.2-2.5-14.1-2c-0.9,0.1-1.8,0.1-2.8,0
			c-0.4,0-0.8-0.2-1.3-0.3c0.7-0.8,1.4-0.7,2.1-0.7c1.4,0,2.8,0.1,4.2,0.2c2.9,0.2,5.8,0.4,8.7,0.5c0.9,0.1,1.8,0.1,2.8,0.1
			c0.4,0,0.9,0,1.3,0C110.1,84.5,112.1,84.7,114.2,84.8z"/>
		<path class="st3" d="M102.2,40.9c1.4,0,2.7,0,4,0c0.7,2.1,1.3,4.2,2,6.3c-1.6,0-3.1,0-4.5,0C103.2,45.1,102.7,43.1,102.2,40.9z"/>
		<path class="st3" d="M91.3,47.5c-1.4,0.1-2.8,0.2-4.5,0.3c0.7-2.6,1.3-5,1.9-7.5c1,0.1,2,0.2,3,0.3C91.6,42.9,91.4,45.2,91.3,47.5
			z"/>
		<path class="st3" d="M78.8,39.9C80,40,81,40,82.2,40.1c-0.5,1.1-0.9,2-1.3,2.9c-0.7,1.4-1.4,2.7-2.2,4.1c-0.3,0.6-0.8,1-1.6,1
			c-0.6,0-1.2,0.1-2.1,0.2C76.3,45.4,77.5,42.7,78.8,39.9z"/>
		<path class="st3" d="M69,40.2c0.9,0,1.8,0,3,0c-1.6,3-3.1,5.9-4.7,8.8c-0.8,0-1.7,0-2.6,0c0.1-0.4,0.2-0.6,0.3-0.9
			c0.9-1.9,1.9-3.8,2.9-5.7C68.2,41.7,68.6,40.9,69,40.2z"/>
		<path class="st3" d="M122.7,47.9c-1.7-0.1-3.4-0.2-5.1-0.3c-1.5-2.2-2.9-4.3-4.4-6.5c0.7-0.3,1.2-0.4,1.8,0c1.2,1,2.5,1.9,3.7,2.9
			c1.2,1,2.3,2,3.4,3c0.3,0.2,0.5,0.5,0.8,0.7C122.8,47.8,122.7,47.8,122.7,47.9z"/>
		<path class="st3" d="M84.4,40.1c0.6,0,1.3,0.1,2.2,0.1c-0.6,2.5-1.2,4.9-1.9,7.4c-1.2,0-2.6,0-4,0C81.9,45.3,83.1,42.8,84.4,40.1z
			"/>
		<path class="st3" d="M115.1,47.7c-1.7-0.1-3.3-0.2-4.8-0.3c-0.7-2.1-1.3-4.1-1.9-6.1c1.4-0.5,2.2-0.3,3,0.8
			c0.8,1.1,1.5,2.3,2.2,3.4C114,46.1,114.5,46.8,115.1,47.7z"/>
		<path class="st3" d="M69.6,48.8c1.6-3.1,3.1-5.9,4.7-8.8c0.7,0,1.4-0.1,2.3-0.1c-1.4,2.9-2.6,5.7-3.9,8.5
			C71.6,48.6,70.8,48.7,69.6,48.8z"/>
		<path class="st3" d="M41.9,47.9c1.2-0.7,2.3-1.6,3.7-2.1c1.3-0.6,2.5-1.6,3.7-2.4c0.8-0.5,1.6-1.1,2.5-1.7
			c0.2,0.5,0.3,0.8,0.4,1.1c-2.2,1.9-4.3,3.8-6.5,5.7c-1.1-0.1-2.4-0.3-3.6-0.4C41.9,48.1,41.9,48,41.9,47.9z"/>
		<path class="st3" d="M96.2,47.5c-0.9,0-1.9,0-2.9,0c0.2-2.2,0.4-4.4,0.6-6.7c0.8,0.1,1.5,0.1,2.3,0.2
			C96.2,43.1,96.2,45.2,96.2,47.5z"/>
		<path class="st3" d="M101.6,47.2c-1.1,0.1-2.1,0.1-3.2,0.2c0-2.2,0-4.2,0-6.3c0.4,0,0.9,0,1.5,0C100.7,43,101.3,45,101.6,47.2z"/>
		<path class="st3" d="M79.5,78.6c0,1.5,0,2.9,0,4.4c-2.4,0.4-4.6,0-6.8-0.1c0-0.1,0-0.2,0-0.2c1.4-0.6,2.8-1.2,4.3-1.7
			c0.8-0.3,1.5-0.6,1.7-1.6c0.1-0.4,0.4-0.6,0.7-1C79.4,78.5,79.4,78.6,79.5,78.6z"/>
		<path class="st3" d="M84.5,99.2c1.8-2.8,3.9-5.2,5.7-7.7c0.1,0,0.2,0.1,0.2,0.1c-0.1,0.2-0.1,0.4-0.2,0.5c-0.4,0.7-0.9,1.3-1.4,2
			c-1.1,1.5-1.4,3.2-1,5c0.1,0.3,0.1,0.6,0.2,1C86.8,100.1,85.8,99.7,84.5,99.2z"/>
		<path class="st3" d="M65.5,83.4c-0.6-0.5-1-0.9-1.6-1.5c2.5-0.1,4.7-0.2,7.1-0.2c0.1,0.2,0.3,0.6,0.5,1.1
			C69.5,83.6,67.4,83.2,65.5,83.4z"/>
		<path class="st3" d="M70.2,79.7c-2.3-0.1-4.7,0.3-7.2-0.1c1.1-0.9,4.1-1.2,6.6-0.6c0.2,0.1,0.4,0.3,0.7,0.4
			C70.2,79.5,70.2,79.6,70.2,79.7z"/>
		<path class="st3" d="M95.9,96.3c-1.4-1-1.4-3.1,0.1-5.1c0.2,1.4,0.5,2.8,0.7,4.2C96.7,95.9,96.4,96.2,95.9,96.3z"/>
		<path class="st3" d="M90,96.8c0.7-2.2,2.4-3.8,3.6-5.8c-0.3,1.2-0.5,2.4-0.8,3.7C91.8,95.4,90.9,96.1,90,96.8z"/>
	</g>
</g>
</svg>
