<svg width="546" height="546" viewBox="0 0 546 546" fill="none" xmlns="http://www.w3.org/2000/svg">
<path d="M456.68 530.1L273 346.48L89.3204 530.1C79.5977 539.862 66.3904 545.35 52.6133 545.35C38.8363 545.35 25.6253 539.862 15.9023 530.1C6.14064 520.377 0.652344 507.166 0.652344 493.389C0.652344 479.612 6.14064 466.405 15.9023 456.682L199.522 273.002L15.9023 89.322C6.14064 79.5993 0.652344 66.392 0.652344 52.615C0.652344 38.838 6.14064 25.627 15.9023 15.904C25.625 6.14229 38.8363 0.653992 52.6133 0.653992C66.3904 0.653992 79.5974 6.14229 89.3204 15.904L273 199.524L456.68 15.904C466.403 6.14229 479.61 0.653992 493.387 0.653992C507.164 0.653992 520.375 6.14229 530.098 15.904C539.86 25.6267 545.348 38.838 545.348 52.615C545.348 66.392 539.86 79.599 530.098 89.322L346.478 273.002L530.098 456.682C539.86 466.405 545.348 479.612 545.348 493.389C545.348 507.166 539.86 520.377 530.098 530.1C520.376 539.862 507.164 545.35 493.387 545.35C479.61 545.35 466.403 539.862 456.68 530.1Z" fill="black"/>
</svg>
