<?xml version="1.0" encoding="UTF-8"?>
<svg width="310px" height="201px" viewBox="0 0 310 201" version="1.1" xmlns="http://www.w3.org/2000/svg" xmlns:xlink="http://www.w3.org/1999/xlink">
    <!-- Generator: Sketch 46.2 (44496) - http://www.bohemiancoding.com/sketch -->
    <title>Bazar - Monthly Visitors</title>
    <desc>Created with Sketch.</desc>
    <defs></defs>
    <g id="Page-1" stroke="none" stroke-width="1" fill="none" fill-rule="evenodd">
        <g id="Bazar---Monthly-Visitors" fill-rule="nonzero">
            <g id="Calque_2" fill="#B7D6E2">
                <path d="M145.9,31.3 C135,22.5 124,13.7 111.4,7.7 C98.8,1.7 84.4,-1.5 70.7,1.5 C59.8,3.9 50,10.1 41.2,17 C20.3,33.3 2.1,56.2 1,82.7 C0.1,104.7 12.2,126.8 31.2,137.9 C46.6,146.8 64.9,148.6 82.6,150.2 C100,151.8 117.6,153.4 134.6,157.4 C159.1,163.2 182.2,173.8 206.8,179.1 C231.4,184.4 259.1,183.6 279.1,168.5 C284.8,164.2 289.7,158.8 292.8,152.5 C299.5,138.7 296.8,121.7 288.9,108.6 C281,95.5 268.6,85.7 255.6,77.5 C239.5,67.4 222.2,59.3 204.1,53.5" id="Shape"></path>
            </g>
            <g id="Calque_1" transform="translate(6.000000, 11.000000)">
                <g id="Group">
                    <path d="M153.1,0.5 C165.6,0.8 178.1,0.9 190.6,1.4 C198,1.6 205.4,2.3 212.8,2.8 C216.5,3 220.2,3.4 223.9,3.6 C226.1,3.7 228.3,3.7 230.5,3.6 C234.2,3.5 237.9,3.9 241.5,4.9 C243.5,5.5 245.8,5.5 247.9,5.8 C251.5,6.2 254.8,7.5 257.8,9.5 C259.6,10.7 261,12.2 261.8,14.3 C262.2,15.5 262.6,16.7 263.1,17.8 C264.1,20.4 264.3,23.2 264,26 C263.5,31.9 262.9,37.8 262.5,43.8 C261.8,54.6 261.1,65.3 260.5,76.1 C260,84.7 259.3,93.3 259.1,102 C258.9,110 258.5,118 257.6,126 C257.3,128.4 256.7,130.8 256.3,133.1 C255.6,136.8 255.8,140.6 256,144.3 C256.1,146.3 256.2,148.3 256.1,150.3 C256.1,151.2 256.2,151.6 257.2,151.8 C261.7,152.6 265.7,154.6 269.5,156.9 C270.1,157.3 270.8,157.5 271.5,157.7 C275,158.9 278.5,160 281.9,161.3 C285.1,162.5 288.2,163.8 291.4,165 C293.5,165.8 295.8,166.4 297.8,167.5 C300.2,168.7 302.1,170.5 303.4,172.9 C304.2,174.4 304,175.9 303.9,177.5 C303.8,180 303.7,182.5 303.7,185 C303.7,188.3 303.7,188.6 300,188.6 C296.4,188.6 292.7,188.4 289.1,188.4 C285.1,188.4 281,188.7 277,188.8 C274.7,188.8 272.4,188.6 270.1,188.6 C265.9,188.6 261.6,188.5 257.4,188.6 C251.1,188.8 244.8,189.3 238.5,189.3 C226.6,189.4 214.6,189.3 202.7,189.2 C193.2,189.1 183.8,189 174.3,188.6 C162.9,188.2 151.6,187.8 140.3,186 C137,185.5 133.6,185.6 130.2,185.5 C120.9,185.4 111.6,185.4 102.2,185.3 C91,185.2 79.8,185 68.6,184.9 C61.7,184.8 54.9,184.8 48,184.8 C45.3,184.8 42.6,185.3 40,185.4 C37.7,185.5 35.5,185.4 33.2,185.3 C28.7,185.1 24.2,184.8 19.7,184.4 C17.1,184.2 14.4,183.7 11.8,183.5 C9.4,183.3 7,183.2 4.6,183.3 C2.3,183.3 0.3,181.7 0.5,179.5 C0.7,176.9 1.1,174.4 1.6,171.9 C2.3,168.8 4.6,166.8 7.1,165.3 C11,163 15.1,161 19.1,158.8 C22.5,156.9 25.8,155 29.2,153.1 C30.7,152.3 32.2,151.6 33.6,150.8 C35.4,149.7 37.1,148.6 38.7,147.4 C38.9,147.2 39,146.8 39.1,146.4 C39.6,140.1 40,133.9 40.5,127.6 C40.8,123.8 41.2,120.1 41.5,116.3 C41.6,115.3 41.4,114.3 41.4,113.4 C41.4,111.8 41.5,110.2 41.6,108.6 C42.1,98.7 42.6,88.8 43.3,78.9 C43.8,71.6 44.6,64.3 45.3,57.1 C46.1,48.9 46.9,40.7 47.7,32.5 C48.2,27.7 48.8,22.9 49.6,18.2 C49.9,16 50.6,13.8 51.5,11.8 C52.1,10.5 53.1,9.3 54.2,8.2 C57.9,4.3 62.7,2.9 67.8,2.1 C77.6,0.6 87.5,0.5 97.4,0.5 C110.9,0.5 124.4,0.2 137.9,0.2 C143,0.2 148.2,0.6 153.3,0.8 C153.1,0.6 153.1,0.6 153.1,0.5 Z M294.1,186.1 C294.1,186.1 294.1,186.1 294.1,186.1 C296,186.3 297.9,186.4 299.8,186.4 C301.2,186.5 301.2,186.4 301.2,185 C301.2,182.4 301.4,179.9 301.4,177.3 C301.4,176.2 301.5,175 301,174 C300.1,172 298.4,170.6 296.5,169.7 C294.6,168.7 292.5,168.2 290.5,167.4 C287.4,166.2 284.3,164.9 281.2,163.7 C275.2,161.5 269.2,159.7 263.6,156.5 C260.2,154.6 256.4,153.5 252.5,153.4 C244.7,153.3 236.8,153.3 229,153.4 C223.4,153.5 217.8,153.8 212.2,153.8 C202.5,153.9 192.8,153.9 183.1,153.8 C172.4,153.6 161.7,153.2 151,152.8 C146,152.6 140.9,152.2 135.9,152 C125.2,151.5 114.5,151.5 103.9,150.6 C89.4,149.5 74.8,149.6 60.3,149 C54,148.8 47.7,148.9 41.3,148.9 C41,148.9 40.6,149 40.4,149.1 C38.4,150.4 36.4,151.8 34.4,153 C33.1,153.8 31.7,154.4 30.4,155.1 C27,157 23.7,159 20.3,160.8 C16.3,163 12.2,164.9 8.3,167.3 C6.1,168.6 4.1,170.4 3.6,173.2 C3.3,175.1 3,176.9 2.7,178.8 C2.5,180.3 3.1,180.9 4.6,180.9 C4.9,180.9 5.3,180.9 5.6,180.9 C8,181.1 10.5,181.2 12.9,181.4 C16.8,181.7 20.7,182.1 24.5,182.4 C26.3,182.5 28.2,182.4 30,182.6 C33.5,183 37,183.4 40.5,183 C48.4,182 56.4,182.4 64.3,182.3 C72.6,182.3 81,182.7 89.3,182.8 C103.2,182.9 117.2,183 131.1,183 C136.9,183 142.6,183.9 148.3,184.5 C156.3,185.2 164.3,185.8 172.3,186.1 C181.2,186.5 190,186.6 198.9,186.7 C208.2,186.8 217.5,186.8 226.7,186.8 C231.6,186.8 236.5,186.9 241.5,186.8 C246.8,186.7 252.1,186.3 257.3,186.2 C261.6,186.1 265.9,186.1 270.1,186.2 C272.1,186.2 274.1,186.5 276.1,186.4 C282.3,186.5 288.2,186.3 294.1,186.1 Z M246.5,150.9 C248.1,151 250.3,151 252.6,151.2 C253.5,151.3 253.8,151 253.7,150.1 C253.6,148.1 253.6,146 253.5,144 C253.2,139.8 253.2,135.7 254.1,131.6 C255.3,126.3 255.9,120.8 256.1,115.4 C256.4,109.4 256.4,103.3 256.8,97.3 C257.9,78.7 259.1,60.1 260.3,41.5 C260.6,36.7 261,31.8 261.5,27 C261.8,24.3 261.8,21.5 260.8,18.9 C260.1,16.9 259.4,14.8 258.2,13.2 C255.8,10.3 252.3,9 248.7,8.4 C246.2,8 243.7,8 241.3,7.4 C237.5,6.3 233.7,5.9 229.9,6.1 C227.6,6.2 225.4,6.3 223.1,6.2 C220.1,6 217.2,5.6 214.2,5.4 C206.8,4.9 199.5,4.3 192.1,3.9 C185.3,3.6 178.5,3.6 171.8,3.5 C160.4,3.2 149,2.7 137.6,2.6 C122.1,2.5 106.7,2.8 91.2,2.9 C84.7,3 78.2,2.9 71.8,4.1 C68.3,4.7 64.8,5.2 61.5,6.2 C58.6,7 56.3,9.1 54.6,11.5 C53,13.8 52.2,16.5 51.9,19.2 C51.3,23.9 50.6,28.7 50.1,33.4 C49.3,41.4 48.5,49.5 47.7,57.5 C46.9,65.9 46.2,74.2 45.5,82.6 C45.2,86.2 45.1,89.8 44.9,93.4 C44.6,99.2 44.1,105 44,110.8 C43.9,116.6 43.4,122.4 42.9,128.1 C42.3,133.8 41.9,139.6 41.5,145.3 C41.4,146.8 41.5,146.8 43,146.8 C46.7,146.8 50.3,146.7 54,146.8 C59.5,146.9 65,147.2 70.5,147.3 C80.4,147.4 90.3,147.6 100.1,148.3 C109.3,148.9 118.5,149.3 127.7,149.7 C132.5,149.9 137.3,149.9 142.1,150.1 C150,150.5 157.8,151.2 165.7,151.4 C177.9,151.7 190.1,151.8 202.3,151.8 C210.1,151.8 218,151.5 225.8,151.3 C232.3,151.1 239.1,151 246.5,150.9 Z" id="Shape" fill="#000000"></path>
                    <path d="M294.1,186.1 C288.2,186.3 282.3,186.5 276.4,186.7 C274.4,186.7 272.4,186.5 270.4,186.5 C266.1,186.5 261.8,186.4 257.6,186.5 C252.3,186.6 247,187 241.8,187.1 C236.9,187.2 232,187.1 227,187.1 C217.7,187.1 208.4,187.1 199.2,187 C190.3,186.9 181.5,186.8 172.6,186.4 C164.6,186.1 156.6,185.5 148.6,184.8 C142.9,184.3 137.2,183.3 131.4,183.3 C117.5,183.3 103.5,183.2 89.6,183.1 C81.3,183 72.9,182.6 64.6,182.6 C56.7,182.6 48.7,182.3 40.8,183.3 C37.3,183.7 33.8,183.3 30.3,182.9 C28.5,182.7 26.6,182.8 24.8,182.7 C20.9,182.4 17,182 13.2,181.7 C10.8,181.5 8.3,181.4 5.9,181.2 C5.6,181.2 5.2,181.2 4.9,181.2 C3.4,181.1 2.8,180.5 3,179.1 C3.2,177.2 3.5,175.3 3.9,173.5 C4.4,170.7 6.4,168.9 8.6,167.6 C12.5,165.3 16.6,163.3 20.6,161.1 C24,159.2 27.3,157.3 30.7,155.4 C32,154.7 33.4,154 34.7,153.3 C36.7,152 38.7,150.7 40.7,149.4 C41,149.2 41.3,149.2 41.6,149.2 C47.9,149.2 54.3,149.1 60.6,149.3 C75.1,149.9 89.7,149.7 104.2,150.9 C114.8,151.7 125.5,151.8 136.2,152.3 C141.2,152.5 146.3,152.9 151.3,153.1 C162,153.5 172.7,153.9 183.4,154.1 C193.1,154.3 202.8,154.2 212.5,154.1 C218.1,154.1 223.7,153.8 229.3,153.7 C237.1,153.6 245,153.6 252.8,153.7 C256.7,153.7 260.6,154.8 263.9,156.8 C269.5,160 275.5,161.8 281.5,164 C284.6,165.1 287.7,166.5 290.8,167.7 C292.8,168.5 294.9,169 296.8,170 C298.7,171 300.4,172.4 301.3,174.3 C301.7,175.3 301.7,176.5 301.7,177.6 C301.7,180.2 301.6,182.7 301.5,185.3 C301.5,186.6 301.5,186.7 300.1,186.7 C297.9,186.3 296,186.3 294.1,186.1 C294.1,186.1 294.1,186.1 294.1,186.1 Z M147.6,166.7 C147.6,166.8 147.6,166.8 147.6,166.9 C142.6,166.8 137.7,166.7 132.7,166.6 C131.7,166.6 130.7,166.7 129.8,166.8 C129.3,166.9 128.7,167 128.4,167.4 C126.7,169.3 125,171.3 123.4,173.3 C122.8,174.1 123.2,175 124.1,175.2 C124.4,175.3 124.8,175.3 125.1,175.3 C129,175.4 132.8,175.4 136.7,175.5 C137.1,175.5 137.5,175.5 137.9,175.5 C141.8,175.8 145.7,176.1 149.6,176.3 C154.4,176.6 159.2,176.7 164,177 C165.2,177.1 166.3,177.2 167.5,177.2 C172.6,177.2 177.6,177.3 182.7,177.2 C183.3,177.2 184.1,176.9 184.4,176.4 C184.9,175.7 184.4,175 183.8,174.6 C182.4,173.4 181,172.3 179.6,171.2 C178.8,170.6 178.1,169.9 177.3,169.3 C176.1,168.5 174.9,167.4 173.5,167.2 C170.9,166.9 168.3,167.1 165.7,167.1 C162.8,167.1 159.9,167.2 157.1,167.2 C153.9,167 150.7,166.8 147.6,166.7 Z" id="Shape" fill="#FFFFFF"></path>
                    <path d="M246.5,150.9 C239.1,151 232.4,151.1 225.6,151.2 C217.8,151.3 209.9,151.7 202.1,151.7 C189.9,151.7 177.7,151.6 165.5,151.3 C157.6,151.1 149.8,150.4 141.9,150 C137.1,149.8 132.3,149.8 127.5,149.6 C118.3,149.2 109.1,148.8 99.9,148.2 C90,147.5 80.2,147.3 70.3,147.2 C64.8,147.2 59.3,146.8 53.8,146.7 C50.1,146.6 46.5,146.7 42.8,146.7 C41.3,146.7 41.2,146.7 41.3,145.2 C41.7,139.5 42.2,133.7 42.7,128 C43.3,122.2 43.8,116.5 43.8,110.7 C43.9,104.9 44.4,99.1 44.7,93.3 C44.9,89.7 45,86.1 45.3,82.5 C46,74.1 46.8,65.7 47.5,57.4 C48.2,49.4 49,41.3 49.9,33.3 C50.4,28.6 51.1,23.8 51.7,19.1 C52.1,16.3 52.8,13.6 54.4,11.4 C56.1,9 58.4,6.9 61.3,6.1 C64.7,5.1 68.2,4.7 71.6,4 C78,2.8 84.5,2.8 91,2.8 C106.5,2.7 121.9,2.4 137.4,2.5 C148.8,2.6 160.2,3.1 171.6,3.4 C178.4,3.6 185.2,3.5 191.9,3.8 C199.3,4.1 206.6,4.7 214,5.3 C217,5.5 219.9,5.9 222.9,6.1 C225.2,6.2 227.4,6.1 229.7,6 C233.6,5.8 237.4,6.2 241.1,7.3 C243.5,8 246,7.9 248.5,8.3 C252.2,8.9 255.6,10.2 258,13.1 C259.3,14.7 259.9,16.8 260.6,18.8 C261.5,21.4 261.5,24.1 261.3,26.9 C260.8,31.7 260.4,36.5 260.1,41.4 C258.9,60 257.7,78.6 256.6,97.2 C256.2,103.2 256.2,109.3 255.9,115.3 C255.6,120.7 255.1,126.2 253.9,131.5 C253,135.6 253,139.8 253.3,143.9 C253.4,145.9 253.4,148 253.5,150 C253.5,150.8 253.3,151.1 252.4,151.1 C250.3,151 248.1,151 246.5,150.9 Z M202.5,143.3 C202.5,143.2 202.5,143.2 202.5,143.3 C209.8,143.5 217,144 224.3,144.1 C230.7,144.3 237,144.2 243.4,144.1 C244.9,144.1 245.5,143.4 245.5,141.9 C245.5,138.1 245.4,134.2 246.3,130.5 C246.6,129 246.9,127.4 247,125.9 C247.4,120.5 247.8,115.2 248.1,109.8 C248.5,102.7 249,95.5 249.4,88.4 C249.8,81.3 250.4,74.1 250.6,67 C250.8,59.6 250.7,52.2 250.7,44.8 C250.7,40.4 250.8,36.1 250.3,31.8 C249.6,26.2 248,20.9 242.8,17.5 C241.1,16.4 239.5,15.7 237.5,15.4 C234.4,14.9 231.1,15.1 228.1,14.1 C227.9,14 227.6,14.1 227.4,14.1 C225.8,14.1 224.2,14.3 222.6,14.2 C215.7,14 208.7,13.8 201.8,13.5 C194.1,13.2 186.4,12.8 178.6,12.5 C173.2,12.3 167.8,12 162.4,11.8 C161.3,11.8 160.2,12 159.1,12 C156.5,11.9 153.8,11.6 151.2,11.6 C147.8,11.6 144.4,11.8 141,11.9 C139.1,12 137.1,11.9 135.2,11.9 C132.2,12 129.2,12.1 126.2,12.2 C123.9,12.2 121.7,12 119.4,12.1 C114.9,12.4 110.5,12.1 106,11.6 C104.5,11.4 103.1,11 101.6,11 C100,10.9 98.4,11.1 96.8,11.2 C94,11.4 91.1,11.5 88.3,11.7 C85,12 81.6,12.3 78.3,12.7 C74.2,13.2 70,13.6 66.3,15.7 C65.5,16.2 64.8,16.8 64,17.2 C61,18.7 59.9,21.4 59.5,24.5 C59.1,27.6 58.6,30.6 58.3,33.7 C57.7,38.9 57.1,44.1 56.7,49.3 C56.2,55.8 55.9,62.3 55.4,68.8 C54.8,76 54.4,83.3 53.4,90.4 C52.2,99 51.9,107.6 51.1,116.2 C50.4,123.2 50.5,130.2 49.2,137.1 C49,138.4 50.1,139.7 51.4,139.9 C52.1,140 52.8,140 53.4,140 C58,140 62.5,139.9 67.1,139.9 C70,139.9 72.9,139.7 75.7,139.8 C83.2,140 90.8,140.4 98.3,140.7 C105.8,141 113.2,141.5 120.7,141.4 C131.9,141.2 143.1,141.5 154.3,141.8 C158.5,141.9 162.7,141.8 166.9,141.9 C173.4,142.1 179.8,142.4 186.3,142.6 C191.8,142.8 197.1,143 202.5,143.3 Z" id="Shape" fill="#FFFFFF"></path>
                    <path d="M147.6,166.7 C150.7,166.8 153.9,167 157,167.1 C159.9,167.2 162.7,167 165.6,167 C168.2,167 170.9,166.8 173.4,167.1 C174.7,167.3 176,168.4 177.2,169.2 C178,169.7 178.7,170.4 179.5,171.1 C180.9,172.2 182.3,173.4 183.7,174.5 C184.3,175 184.8,175.7 184.3,176.3 C184,176.7 183.2,177.1 182.6,177.1 C177.5,177.1 172.5,177.1 167.4,177.1 C166.2,177.1 165.1,177 163.9,176.9 C159.1,176.7 154.3,176.5 149.5,176.2 C145.6,176 141.7,175.7 137.8,175.4 C137.4,175.4 137,175.4 136.6,175.4 C132.7,175.3 128.9,175.3 125,175.2 C124.7,175.2 124.3,175.2 124,175.1 C123,174.8 122.6,174 123.3,173.2 C124.9,171.2 126.6,169.3 128.3,167.3 C128.6,167 129.2,166.8 129.7,166.7 C130.7,166.6 131.7,166.4 132.6,166.5 C137.6,166.6 142.5,166.7 147.5,166.8 C147.6,166.8 147.6,166.7 147.6,166.7 Z M126.5,172.9 C144.5,173.1 162,175.3 180,174.7 C179.7,174.3 179.6,174.1 179.4,174 C178,172.9 176.7,171.8 175.3,170.8 C174.5,170.2 173.5,169.6 172.6,169.5 C170.5,169.3 168.4,169.3 166.3,169.4 C163.4,169.4 160.4,169.5 157.5,169.5 C155.3,169.5 153,169.2 150.8,169.2 C144.9,169.1 138.9,169 133,169 C132.2,169 131.4,169.1 130.6,169.2 C130.3,169.2 129.9,169.4 129.7,169.6 C128.7,170.5 127.7,171.6 126.5,172.9 Z" id="Shape" fill="#000000"></path>
                    <path d="M202.5,143.3 C197.2,143.1 191.8,142.8 186.5,142.6 C180,142.3 173.6,142 167.1,141.9 C162.9,141.8 158.7,141.9 154.5,141.8 C143.3,141.6 132.1,141.3 120.9,141.4 C113.4,141.5 106,141 98.5,140.7 C91,140.4 83.4,140 75.9,139.8 C73,139.7 70.1,139.9 67.3,139.9 C62.7,140 58.2,140 53.6,140 C52.9,140 52.2,140 51.6,139.9 C50.3,139.7 49.1,138.3 49.4,137.1 C50.8,130.2 50.7,123.2 51.3,116.2 C52.1,107.6 52.4,99 53.6,90.4 C54.6,83.2 55,76 55.6,68.8 C56.1,62.3 56.4,55.8 56.9,49.3 C57.3,44.1 57.9,38.9 58.5,33.7 C58.8,30.6 59.3,27.5 59.7,24.5 C60.1,21.4 61.1,18.7 64.2,17.2 C65,16.8 65.7,16.2 66.5,15.7 C70.2,13.5 74.4,13.2 78.5,12.7 C81.8,12.3 85.2,12 88.5,11.7 C91.3,11.5 94.2,11.3 97,11.2 C98.6,11.1 100.2,10.9 101.8,11 C103.3,11.1 104.7,11.5 106.2,11.6 C110.6,12.1 115.1,12.4 119.6,12.1 C121.9,12 124.1,12.2 126.4,12.2 C129.4,12.2 132.4,12 135.4,11.9 C137.3,11.9 139.3,11.9 141.2,11.9 C144.6,11.8 148,11.6 151.4,11.6 C154,11.6 156.7,11.9 159.3,12 C160.4,12 161.5,11.8 162.6,11.8 C168,12 173.4,12.3 178.8,12.5 C186.5,12.8 194.2,13.2 202,13.5 C208.9,13.8 215.8,14 222.8,14.2 C224.4,14.2 226,14.1 227.6,14.1 C227.8,14.1 228.1,14.1 228.3,14.1 C231.3,15.2 234.6,15 237.7,15.4 C239.6,15.7 241.3,16.4 243,17.5 C248.2,20.9 249.9,26.2 250.5,31.8 C251,36.1 250.9,40.5 250.9,44.8 C250.9,52.2 251,59.6 250.8,67 C250.6,74.1 250,81.3 249.6,88.4 C249.2,95.5 248.8,102.7 248.3,109.8 C248,115.2 247.6,120.5 247.2,125.9 C247.1,127.4 246.8,129 246.5,130.5 C245.6,134.3 245.8,138.1 245.7,141.9 C245.7,143.4 245.1,144.1 243.6,144.1 C237.2,144.1 230.9,144.2 224.5,144.1 C217,143.9 209.7,143.5 202.5,143.3 C202.5,143.2 202.5,143.2 202.5,143.3 Z M245.9,102.1 C245.8,102 245.7,102 245.6,101.9 C244.5,102.8 243.5,103.6 242.4,104.5 C240.9,105.6 239.2,106.5 237.9,107.8 C235.4,110.2 232.6,112.1 229.8,114.1 C228.8,114.8 227.6,115.1 226.4,114.8 C222.6,113.8 218.9,112.8 215.1,111.8 C210.2,110.6 205.4,109.3 200.5,108.1 C198.1,107.5 196.8,104.1 198.5,102.2 C199.1,101.6 199.9,101.1 200.6,100.6 C203.9,98.7 207.3,96.9 210.6,95 C212.8,93.8 214.8,92.4 217,91.2 C219.3,89.9 221.6,88.6 224.3,88.5 C225.8,88.5 227.3,88.7 228.8,88.9 C234.1,89.5 239.5,90 244.8,90.6 C245.4,90.7 246,90.8 246.6,90.9 C246.9,89.6 247.2,88.4 247.3,87.2 C247.6,84.1 247.7,81 247.9,77.9 C248.1,74.2 248.2,70.5 248.3,66.8 C248.4,63.5 248.3,60.3 248.3,57 C248.3,51 248.2,45 248.1,39.1 C248.1,38.6 248.2,38 248.2,37.5 C248.4,33.8 248.2,30.2 246.7,26.7 C246.6,26.4 246.1,26.1 245.7,26.1 C244.4,26 243.1,26.1 241.8,26.1 C235.8,25.9 229.8,25.7 223.9,25.6 C215.3,25.5 206.6,25.4 198,25.4 C190.6,25.4 183.2,25.5 175.7,25.6 C168.7,25.6 161.6,25.6 154.6,25.5 C147.4,25.5 140.3,25.3 133.1,25.4 C128.9,25.4 124.8,25.7 120.6,25.8 C110.6,26 100.6,26.2 90.6,26.4 C85.3,26.5 80,26.8 74.7,26.9 C70.4,27 66.2,27 61.9,27 C61.7,28 61.6,28.9 61.4,29.8 C60.7,35.2 59.8,40.7 59.4,46.1 C58.7,54.7 58.4,63.3 57.7,71.9 C57.1,79.6 56.2,87.3 55.5,95.1 C54.9,101.7 54.4,108.4 53.8,115 C53.2,122 52.6,129 52,136 C51.9,137.5 51.9,137.6 53.4,137.6 C58.2,137.5 63,137.5 67.8,137.5 C70.5,137.5 73.2,137.3 75.9,137.4 C83.6,137.7 91.3,138 98.9,138.3 C104.6,138.5 110.3,138.8 116,139 C126.6,139.3 137.3,138.6 147.9,139.3 C154.1,139.7 160.2,139.4 166.4,139.5 C174,139.7 181.5,140 189.1,140.3 C197.4,140.6 205.8,141 214.1,141.4 C219.2,141.6 224.3,141.9 229.4,142.1 C233.5,142.2 237.7,142.1 241.8,142 C242.7,142 243.1,141.7 243.1,140.7 C243,137.1 243.1,133.5 243.9,130 C244.2,128.6 244.5,127.1 244.6,125.6 C245,119 245.4,112.5 245.8,105.9 C245.8,104.5 245.9,103.3 245.9,102.1 Z M62,24.6 C123.1,22.7 184,22.3 245,23.6 C244.4,22.2 243.9,21 242.5,20.4 C241.8,20.1 241.3,19.5 240.6,19.1 C240.1,18.8 239.5,18.3 239,18.2 C234.7,17.6 230.4,16.9 226,16.6 C217.9,16.2 209.8,16.1 201.7,15.8 C194,15.5 186.3,15.1 178.5,14.8 C173.1,14.6 167.7,14.3 162.3,14.1 C161.1,14.1 159.9,14.3 158.7,14.3 C156.2,14.2 153.6,14 151.1,14 C149.4,14 147.6,14.3 145.9,14.3 C141.1,14.4 136.3,14.6 131.5,14.6 C126.8,14.7 122.1,14.7 117.4,14.6 C112.8,14.5 108.3,14.1 103.7,13.8 C103.1,13.8 102.4,13.5 101.8,13.5 C99.6,13.5 97.4,13.5 95.3,13.7 C89.5,14.2 83.7,14.6 77.9,15.3 C74.3,15.7 70.6,16 67.4,18 C66.5,18.5 65.7,19.2 64.7,19.7 C62.9,20.5 62.3,22.4 62,24.6 Z M242.7,92.7 C241.8,94.2 240.9,95.6 240.2,96.9 C238.6,99.8 238.6,99.8 235.4,98.8 C232.9,98.1 232.5,96.6 234.1,94.6 C234.7,93.8 235.2,92.9 235.8,92 C235.3,91.9 235,91.8 234.8,91.8 C231.8,91.4 228.7,91 225.7,90.7 C223.2,90.4 221.1,91.7 218.9,92.7 C219.5,94.3 220.1,95.8 220.6,97.3 C221.1,98.7 220.7,99.6 219.3,100.1 C218.4,100.4 217.5,100.5 216.7,100.8 C215.5,101.2 214.6,100.9 213.9,99.9 C213.2,99 212.7,98 212,97 C211.5,97.4 210.3,97.1 210.4,98.4 C210.5,99.8 210.7,101.2 210.9,102.7 C213,103.2 215.1,103.7 217.3,104.1 C217.6,104.2 218,103.9 218.2,103.7 C219.8,102 221.2,100.4 223.9,100.5 C226,100.6 226.8,101.2 226.2,103.3 C226,104.2 225.6,105.1 225.2,106.2 C226.2,106.5 227.2,106.7 228.1,107.1 C229.1,107.4 229.6,106.7 230.1,106.2 C230.3,106.1 229.9,105.4 229.8,104.9 C229.7,104.6 229.6,104.4 229.5,104.2 C229,103.1 229.3,102.2 230.3,101.5 C231.6,100.7 232.5,98.7 234.6,99.9 C235.1,100.2 235.6,100.6 236.1,101 C236.4,101.2 236.6,101.4 236.9,101.6 C239.9,99.5 242.7,97.4 245.7,95.5 C246.5,94.9 246.7,94.4 246.5,93.5 C245.1,93 243.9,92.9 242.7,92.7 Z M222.9,108 C222.9,107.9 222.9,107.8 222.9,107.7 C220,107.1 217.1,106.4 214.3,105.8 C213.9,106.8 213.5,107.7 213.2,108.7 C215.2,109.2 217.3,109.8 219.4,110.3 C219.6,110.4 219.9,110.3 220.1,110.2 C220.9,109.5 221.9,108.7 222.9,108 Z M229.1,111.5 C229.3,111.4 229.5,111.3 229.7,111.2 C231.6,109.7 233.4,108.1 235.4,106.6 C238.7,104.1 242.2,101.7 245.5,99.2 C245.9,98.9 246.1,98.4 246.3,98 C246.2,97.9 246.1,97.9 246,97.8 C245.9,97.9 245.7,97.9 245.6,98 C240.4,101.7 235.2,105.5 229.9,109.1 C229,109.8 228.9,110.5 229.1,111.5 Z M211.4,108.3 C211.4,107.2 211.5,106.3 211.5,105.2 C210.1,104.9 208.7,104.7 207.4,104.4 C207.2,105.4 206.9,106.2 206.7,107.1 C208.3,107.5 209.9,107.9 211.4,108.3 Z M200,103.5 C200.2,104.3 200.2,105.4 200.6,105.5 C202.1,106.1 203.7,106.5 205.3,107 C205.1,105.9 204.9,104.9 204.7,104 C203.3,103.8 201.8,103.7 200,103.5 Z M216.8,94.2 C216.3,94.5 215.9,94.7 215.5,94.9 C215.1,95.1 214.7,95.4 214.2,95.6 C215.2,98.6 215.4,98.6 218.1,97.7 C217.7,96.6 217.3,95.5 216.8,94.2 Z M235.8,96.6 C236.4,96.6 237.3,96.8 237.5,96.5 C238.4,95.3 239.1,93.9 239.9,92.6 C239.9,92.5 239.8,92.4 239.8,92.3 C239.2,92.4 238.3,92.4 238,92.8 C237.1,93.9 236.6,95.2 235.8,96.6 Z M226.6,112.3 C226.7,109.2 226.7,109.2 225.9,109 C224.8,109.8 223.8,110.4 222.5,111.3 C224,111.6 225.3,112 226.6,112.3 Z M203.5,101.3 C205.2,101.6 206.7,101.8 208.3,102 C208.2,101 208.1,100.1 208.1,99.1 C206.5,99.9 205.1,100.5 203.5,101.3 Z M232.6,104.6 C233.4,104.1 234.1,103.6 235.1,103 C234.2,102.6 233.8,101.4 232.7,102.4 C231.9,103 231.5,103.6 232.6,104.6 Z M220.5,104.6 C221.3,104.9 222,105.1 222.8,105.3 C223.1,104.5 223.4,103.8 223.6,103.1 C222.1,102.5 221.4,103.7 220.5,104.6 Z" id="Shape" fill="#000000"></path>
                    <path d="M126.5,172.9 C127.7,171.6 128.6,170.5 129.6,169.5 C129.8,169.3 130.2,169.1 130.5,169.1 C131.3,169 132.1,168.9 132.9,168.9 C138.8,169 144.8,169 150.7,169.1 C152.9,169.1 155.2,169.4 157.4,169.4 C160.3,169.4 163.3,169.3 166.2,169.3 C168.3,169.3 170.4,169.2 172.5,169.4 C173.4,169.5 174.4,170.1 175.2,170.7 C176.6,171.7 178,172.8 179.3,173.9 C179.5,174 179.6,174.2 179.9,174.6 C162.1,175.3 144.5,173.1 126.5,172.9 Z" id="Shape" fill="#FFFFFF"></path>
                    <path d="M245.9,102.1 C245.8,103.3 245.8,104.6 245.7,105.8 C245.3,112.4 244.9,118.9 244.5,125.5 C244.4,127 244.2,128.4 243.8,129.9 C243,133.4 242.9,137 243,140.6 C243,141.6 242.6,141.9 241.7,141.9 C237.6,141.9 233.4,142.1 229.3,142 C224.2,141.9 219.1,141.6 214,141.3 C205.7,140.9 197.3,140.5 189,140.2 C181.4,139.9 173.9,139.6 166.3,139.4 C160.1,139.3 153.9,139.6 147.8,139.2 C137.2,138.6 126.5,139.2 115.9,138.9 C110.2,138.7 104.5,138.5 98.8,138.2 C91.1,137.9 83.4,137.5 75.8,137.3 C73.1,137.2 70.4,137.4 67.7,137.4 C62.9,137.5 58.1,137.5 53.3,137.5 C51.7,137.5 51.7,137.5 51.9,135.9 C52.5,128.9 53.1,121.9 53.7,114.9 C54.3,108.3 54.8,101.6 55.4,95 C56.1,87.3 57,79.6 57.6,71.8 C58.3,63.2 58.6,54.6 59.3,46 C59.8,40.5 60.6,35.1 61.3,29.7 C61.4,28.8 61.6,27.9 61.8,26.9 C66.1,26.9 70.3,26.9 74.6,26.8 C79.9,26.7 85.2,26.4 90.5,26.3 C100.5,26.1 110.5,25.9 120.5,25.7 C124.7,25.6 128.8,25.3 133,25.3 C140.2,25.3 147.3,25.4 154.5,25.4 C161.5,25.4 168.6,25.5 175.6,25.5 C183,25.5 190.4,25.3 197.9,25.3 C206.5,25.3 215.2,25.4 223.8,25.5 C229.8,25.6 235.8,25.8 241.7,26 C243,26 244.3,26 245.6,26 C245.9,26 246.5,26.3 246.6,26.6 C248.1,30.1 248.3,33.7 248.1,37.4 C248.1,37.9 248,38.5 248,39 C248,45 248.1,51 248.2,56.9 C248.2,60.2 248.3,63.4 248.2,66.7 C248.1,70.4 248,74.1 247.8,77.8 C247.7,80.9 247.5,84 247.2,87.1 C247.1,88.3 246.8,89.5 246.5,90.8 C245.9,90.7 245.3,90.6 244.7,90.5 C239.4,89.9 234,89.3 228.7,88.8 C227.2,88.6 225.7,88.4 224.2,88.4 C221.5,88.5 219.2,89.8 216.9,91.1 C214.7,92.3 212.6,93.7 210.5,94.9 C207.2,96.8 203.8,98.6 200.5,100.5 C199.7,100.9 199,101.4 198.4,102.1 C196.7,104 198,107.4 200.4,108 C205.3,109.2 210.1,110.4 215,111.7 C218.8,112.7 222.5,113.7 226.3,114.7 C227.6,115 228.7,114.8 229.7,114 C232.5,112 235.3,110.1 237.8,107.7 C239.1,106.4 240.8,105.6 242.3,104.4 C243.4,103.6 244.5,102.7 245.5,101.8 C245.7,101.9 245.8,102 245.9,102.1 Z M121.1,123.3 C121.8,123.5 122.5,123.8 123.1,123.7 C126,123.6 128.8,123.4 131.7,123.3 C137.2,123.2 142.6,123.3 148.1,123.3 C152.6,123.3 157.1,123.2 161.6,123.3 C165.5,123.3 169.5,123.4 173.4,123.5 C173.6,123.5 173.9,123.6 174,123.7 C175,124.8 176.1,124.6 177.2,124 C178.1,123.6 179,123.1 179.9,123 C180.8,122.8 181.8,123 182.7,123 C184.4,123 184.8,122.7 184.8,121 C184.8,116.2 184.9,111.4 184.7,106.6 C184.5,100.4 184,94.2 183.9,88 C183.8,82.8 184.1,77.6 184.1,72.3 C184.1,70 183.9,67.6 183.7,65.3 C183.7,64.9 183.2,64.3 182.9,64.2 C181.5,64 180.1,63.7 178.7,64 C174.1,64.9 169.6,64.2 165,64.2 C160.3,64.2 155.7,63.9 151,64 C146.8,64 142.5,64.2 138.3,64.3 C136.1,64.3 133.8,64.1 131.6,64.1 C128.6,64.1 125.6,64.2 122.5,64.2 C120.8,64.2 120.5,64.5 120.6,66.3 C120.8,71.1 121.1,76 121,80.8 C120.7,89.2 120,97.6 119.5,106 C119.2,111.2 119,116.4 118.8,121.6 C118.8,123.3 119.5,123.8 121.1,123.3 Z M98,90.2 C98.1,90.6 98.2,90.9 98.3,91.2 C98.5,93.3 98.8,95.3 98.9,97.4 C99.2,101 99.5,104.6 99.9,108.1 C100,109.3 100.6,109.8 101.6,109.6 C103.9,109.2 105,108.1 105.3,105.8 C105.4,105.4 105.4,105 105.4,104.7 C105.3,100.9 105.3,97.1 105.2,93.4 C105.1,91.6 104.9,89.9 104.8,88.1 C104.7,87.3 105,87 105.7,86.7 C107.3,86.1 108.7,85.3 109.8,83.9 C111,82.2 110.7,80.8 108.8,80 C107.3,79.4 105.8,78.9 104.3,78.5 C101.3,77.7 98.3,77 95.3,76.2 C91.1,75 87.1,74.2 82.9,76.2 C79.7,77.7 76.3,78.5 73,79.7 C69,81.2 68.7,81.6 69,85.8 C69.1,86.8 69.5,87.5 70.4,87.9 C71.4,88.3 72.5,88.8 73.7,89.2 C73.3,91 72.9,92.9 72.4,94.7 C71.5,98.3 70.5,101.8 69.6,105.4 C69.4,106.2 69.5,107.5 70,107.9 C71,108.7 72.4,109.1 73.7,109.4 C74,109.5 74.6,108.8 74.8,108.3 C75,107.9 75,107.4 75.1,107 C75.6,104.8 76.1,102.5 76.8,100.3 C77.8,96.9 78.9,93.6 80,90.2 C81.4,90.5 82.7,90.8 84,91.1 C83.9,92.6 83.9,94 83.8,95.3 C83.6,100.3 83.5,105.3 83.2,110.3 C83.1,112.3 83.6,113.6 85.6,114.3 C87.7,115.1 88.7,114.8 89.1,112.6 C89.4,111.3 89.5,109.9 89.7,108.6 C89.9,108.6 90.1,108.5 90.3,108.5 C93.1,108.2 93.5,107.8 93.5,105.1 C93.5,101.1 93.5,97.1 93.5,93.2 C93.5,92.7 93.7,92 94,91.9 C95.2,91.3 96.6,90.8 98,90.2 Z M123.6,41 C125.5,39.1 125.3,37 124.3,34.9 C123.4,33.1 121.7,32.8 120,32.8 C118.6,32.8 117.9,33.5 117.8,34.9 C117.5,39.7 117.3,44.4 117.1,49.2 C117.1,49.7 117.1,50.2 117.2,50.7 C117.4,51.6 117.9,52.4 118.8,52.5 C119.7,52.6 120.6,52.6 121.5,52.4 C122.9,52 124.3,51.4 125.6,50.9 C126.7,50.5 127.3,49.7 127.7,48.7 C128.4,46.5 127.8,44.3 126,42.9 C125.3,42.1 124.5,41.6 123.6,41 Z M173.6,42.4 C174.3,41.5 174.9,40.7 175.4,39.8 C176.3,38 176.4,36.3 175.1,34.6 C173.9,33 171.3,32.1 169,32.8 C168.6,32.9 168.2,33.6 168.2,34 C168.1,39.3 168,44.7 167.9,50 C167.9,50.8 168.1,51.4 169,51.4 C169.8,51.5 170.2,50.9 170.2,50.2 C170.3,49.3 170.3,48.3 170.4,47.4 C170.5,46.1 170.5,44.7 170.6,43.1 C171.3,43.8 171.7,44.1 172.1,44.6 C173.5,46.4 174.9,48.3 176.2,50.1 C176.7,50.8 177.3,51.2 178,50.7 C178.8,50.2 178.6,49.4 178.1,48.7 C177.8,48.3 177.5,47.9 177.1,47.4 C176,45.7 174.8,44 173.6,42.4 Z M137,44.9 C137.2,46.1 137.5,47.6 137.8,48.9 C138,49.7 138.3,50.4 139.3,50.2 C140.3,50 140.3,49.2 140.1,48.4 C139.5,45.4 138.9,42.4 138.2,39.4 C137.8,37.5 137.3,35.7 136.8,33.8 C136.6,33 136.2,32.3 135.3,32.2 C134.3,32.1 133.9,32.9 133.5,33.7 C133.4,34 133.3,34.4 133.2,34.7 C132.6,37.7 131.9,40.6 131.3,43.6 C130.9,45.5 130.5,47.5 130.1,49.4 C129.9,50.2 130,50.9 130.9,51.1 C131.8,51.3 132.2,50.7 132.4,49.9 C132.5,49.7 132.5,49.5 132.6,49.2 C132.9,47.9 133.1,46.7 133.4,45.4 C133.5,45.1 133.9,44.7 134.2,44.7 C135,44.8 136,44.9 137,44.9 Z M161.6,42.4 C162,44 162.4,45.7 162.8,47.3 C163,48.1 163.2,48.7 164.1,48.7 C165,48.6 165.2,47.9 165.1,47.1 C165,46.2 164.9,45.3 164.6,44.4 C163.7,41.3 162.8,38.1 162,35 C161.7,34.1 161.5,33.2 161.1,32.3 C160.5,31 159.3,30.8 158.5,32 C158.1,32.6 157.7,33.2 157.5,33.9 C156.8,36.5 156.1,39.1 155.5,41.7 C155,43.6 154.7,45.6 154.2,47.6 C154,48.4 153.8,49.2 154.8,49.6 C155.5,49.9 156.2,49.4 156.5,48.2 C156.6,47.9 156.7,47.5 156.7,47.2 C156.9,46 157.2,44.8 157.4,43.6 C157.5,42.7 157.9,42.5 158.7,42.5 C159.7,42.5 160.5,42.4 161.6,42.4 Z M144.9,49.4 C144.8,49.3 144.8,49.1 144.7,49 C146,46.4 147.3,43.8 148.6,41.2 C149.6,39.3 150.7,37.5 151.5,35.5 C152.1,34.1 151.4,33.2 149.8,33.1 C148.9,33.1 148,33 147.1,33 C146.3,32.9 145.5,33.1 145.4,34 C145.3,34.9 146,35.2 146.8,35.3 C147.5,35.4 148.1,35.5 148.9,35.6 C148.8,35.9 148.7,36.1 148.6,36.3 C146.5,40.5 144.3,44.7 142.2,48.9 C141.6,50.1 142.1,51.3 143.3,51.4 C145,51.6 146.8,51.8 148.5,51.8 C149.3,51.8 150.1,51.5 150.1,50.6 C150.1,49.6 149.3,49.5 148.5,49.5 C147.2,49.5 146,49.4 144.9,49.4 Z" id="Shape" fill="#FFFFFF"></path>
                    <path d="M62,24.6 C62.3,22.4 62.9,20.6 64.8,19.5 C65.7,19 66.6,18.3 67.5,17.8 C70.7,15.8 74.4,15.6 78,15.1 C83.8,14.4 89.6,14 95.4,13.5 C97.6,13.3 99.8,13.3 101.9,13.3 C102.5,13.3 103.2,13.6 103.8,13.6 C108.4,13.9 112.9,14.3 117.5,14.4 C122.2,14.5 126.9,14.5 131.6,14.4 C136.4,14.3 141.2,14.2 146,14.1 C147.7,14.1 149.5,13.8 151.2,13.8 C153.7,13.8 156.3,14.1 158.8,14.1 C160,14.1 161.2,13.9 162.4,13.9 C167.8,14.1 173.2,14.4 178.6,14.6 C186.3,14.9 194,15.3 201.8,15.6 C209.9,15.9 218,16 226.1,16.4 C230.4,16.6 234.8,17.4 239.1,18 C239.7,18.1 240.2,18.6 240.7,18.9 C241.3,19.3 241.9,19.8 242.6,20.2 C244,20.9 244.5,22.1 245.1,23.4 C184,22.3 123.1,22.6 62,24.6 Z" id="Shape" fill="#FFFFFF"></path>
                    <path d="M242.7,92.7 C243.9,92.9 245.1,93.1 246.4,93.3 C246.6,94.2 246.4,94.7 245.6,95.3 C242.6,97.3 239.8,99.4 236.8,101.4 C236.5,101.2 236.3,101 236,100.8 C235.5,100.4 235.1,100 234.5,99.7 C232.5,98.6 231.5,100.5 230.2,101.3 C229.2,101.9 228.9,102.9 229.4,104 C229.5,104.2 229.6,104.5 229.7,104.7 C229.8,105.1 230.2,105.8 230,106 C229.5,106.5 229,107.3 228,106.9 C227.1,106.6 226.1,106.3 225.1,106 C225.5,104.9 225.8,104 226.1,103.1 C226.6,101 225.8,100.4 223.8,100.3 C221.1,100.2 219.7,101.8 218.1,103.5 C217.9,103.7 217.5,104 217.2,103.9 C215,103.5 212.9,102.9 210.8,102.5 C210.6,101 210.5,99.6 210.3,98.2 C210.2,96.9 211.4,97.2 211.9,96.8 C212.5,97.8 213.1,98.8 213.8,99.7 C214.5,100.6 215.4,100.9 216.6,100.6 C217.5,100.3 218.4,100.2 219.2,99.9 C220.6,99.4 221,98.5 220.5,97.1 C220,95.6 219.4,94.1 218.8,92.5 C221,91.5 223.1,90.3 225.6,90.5 C228.6,90.8 231.7,91.2 234.7,91.6 C235,91.6 235.2,91.7 235.7,91.8 C235.1,92.7 234.6,93.6 234,94.4 C232.4,96.5 232.9,97.9 235.3,98.6 C238.4,99.5 238.4,99.5 240.1,96.7 C240.9,95.5 241.8,94.2 242.7,92.7 Z M232.3,95.5 C231.8,94.9 231.4,94.3 230.9,93.9 C229.8,93.2 228.6,92.5 227.4,92 C227,91.8 226.3,91.9 226,92.1 C225.1,92.8 224.3,93.6 223.5,94.3 C222.7,95.1 222.5,96 223.2,96.7 C224.1,97.6 225,98.5 226,99.3 C226.9,100 227.8,99.8 228.6,99 C229.4,98.2 230.2,97.6 231,96.8 C231.5,96.6 231.8,96.1 232.3,95.5 Z" id="Shape" fill="#FFFFFF"></path>
                    <path d="M222.9,108 C221.9,108.7 221,109.4 220,110.1 C219.8,110.2 219.5,110.3 219.3,110.2 C217.2,109.7 215.2,109.2 213.1,108.6 C213.5,107.6 213.8,106.8 214.2,105.7 C217.1,106.3 219.9,107 222.8,107.6 C222.8,107.8 222.9,107.9 222.9,108 Z" id="Shape" fill="#FFFFFF"></path>
                    <path d="M229.1,111.5 C228.9,110.5 229,109.8 229.9,109.1 C235.2,105.4 240.4,101.7 245.6,98 C245.7,97.9 245.9,97.9 246,97.8 C246.1,97.9 246.2,97.9 246.3,98 C246,98.4 245.8,98.9 245.5,99.2 C242.1,101.7 238.7,104.1 235.4,106.6 C233.4,108.1 231.6,109.7 229.7,111.2 C229.5,111.3 229.3,111.4 229.1,111.5 Z" id="Shape" fill="#FFFFFF"></path>
                    <path d="M211.4,108.3 C209.8,107.9 208.2,107.5 206.7,107.1 C206.9,106.2 207.1,105.4 207.4,104.4 C208.7,104.6 210.1,104.9 211.5,105.2 C211.5,106.3 211.5,107.2 211.4,108.3 Z" id="Shape" fill="#FFFFFF"></path>
                    <path d="M200,103.5 C201.8,103.7 203.2,103.8 204.7,104 C204.9,105 205.1,105.9 205.3,107 C203.7,106.5 202.1,106.2 200.6,105.5 C200.2,105.4 200.2,104.3 200,103.5 Z" id="Shape" fill="#FFFFFF"></path>
                    <path d="M216.8,94.2 C217.3,95.4 217.7,96.6 218.2,97.7 C215.5,98.6 215.3,98.6 214.3,95.6 C214.7,95.4 215.1,95.1 215.6,94.9 C215.9,94.7 216.3,94.5 216.8,94.2 Z" id="Shape" fill="#FFFFFF"></path>
                    <path d="M235.8,96.6 C236.6,95.2 237.1,93.9 237.9,92.8 C238.2,92.4 239.1,92.5 239.7,92.3 C239.7,92.4 239.8,92.5 239.8,92.6 C239,93.9 238.3,95.3 237.4,96.5 C237.3,96.9 236.4,96.6 235.8,96.6 Z" id="Shape" fill="#FFFFFF"></path>
                    <path d="M226.6,112.3 C225.3,112 224.1,111.7 222.6,111.3 C223.8,110.5 224.8,109.8 226,109 C226.7,109.2 226.7,109.2 226.6,112.3 Z" id="Shape" fill="#FFFFFF"></path>
                    <path d="M203.5,101.3 C205.1,100.5 206.5,99.9 208,99.1 C208.1,100.1 208.2,101 208.2,102 C206.7,101.8 205.3,101.6 203.5,101.3 Z" id="Shape" fill="#FFFFFF"></path>
                    <path d="M232.6,104.6 C231.6,103.6 231.9,103.1 232.8,102.4 C233.9,101.5 234.2,102.6 235.2,103 C234.1,103.6 233.3,104.1 232.6,104.6 Z" id="Shape" fill="#FFFFFF"></path>
                    <path d="M220.5,104.6 C221.4,103.7 222.1,102.6 223.6,103.1 C223.3,103.8 223.1,104.5 222.8,105.3 C222,105.1 221.3,104.8 220.5,104.6 Z" id="Shape" fill="#FFFFFF"></path>
                    <path d="M121.1,123.3 C119.5,123.8 118.8,123.3 118.8,121.5 C119,116.3 119.2,111.1 119.5,105.9 C120,97.5 120.7,89.1 121,80.7 C121.2,75.9 120.8,71 120.6,66.2 C120.5,64.4 120.8,64.1 122.5,64.1 C125.5,64.1 128.6,64 131.6,64 C133.8,64 136.1,64.2 138.3,64.2 C142.5,64.2 146.8,63.9 151,63.9 C155.7,63.9 160.3,64.2 165,64.1 C169.6,64.1 174.1,64.8 178.7,63.9 C180,63.6 181.5,63.9 182.9,64.1 C183.2,64.1 183.6,64.8 183.7,65.2 C183.9,67.5 184.1,69.9 184.1,72.2 C184.1,77.4 183.8,82.7 183.9,87.9 C184,94.1 184.5,100.3 184.7,106.5 C184.8,111.3 184.8,116.1 184.8,120.9 C184.8,122.6 184.5,122.9 182.7,122.9 C181.8,122.9 180.8,122.7 179.9,122.9 C179,123.1 178.1,123.5 177.2,123.9 C176,124.4 175,124.6 174,123.6 C173.9,123.5 173.6,123.4 173.4,123.4 C169.5,123.3 165.5,123.2 161.6,123.2 C157.1,123.2 152.6,123.2 148.1,123.2 C142.6,123.2 137.2,123.2 131.7,123.2 C128.8,123.2 126,123.5 123.1,123.6 C122.4,123.8 121.8,123.5 121.1,123.3 Z M181.6,66.6 C180.9,66.5 180.3,66.4 179.7,66.4 C179.4,66.4 179.1,66.4 178.8,66.5 C174,67.5 169.1,66.7 164.3,66.6 C161.2,66.6 158.1,66.3 155,66.3 C151.6,66.4 148.2,66.8 144.8,66.8 C139.5,66.9 134.2,66.7 128.9,66.6 C127,66.6 125.1,66.4 123.1,66.4 C123.1,67.1 123.2,67.4 123.2,67.8 C123.3,72.2 123.6,76.6 123.4,81 C123.1,87.4 122.4,93.8 122.1,100.3 C121.7,107.2 121.5,114.2 121.3,121.1 C121.3,121.2 121.4,121.3 121.3,121.2 C135.2,121 149,120.9 162.7,120.8 C161.1,119.3 162,117 161.4,115.1 C158.1,115.2 154.8,115.3 151.4,115.5 C148.9,115.7 146.5,115.9 144.2,114.7 C144,114.6 143.8,114.6 143.7,114.6 C142,114.5 140.2,114.6 138.5,114.4 C136.4,114.2 135.9,113.7 135.8,111.6 C135.8,111.1 135.7,110.6 135.8,110.1 C136.1,106.8 136.4,103.5 136.8,100.3 C136.9,99.1 137.6,98.3 138.8,98.1 C139.6,98 140.4,97.9 141.2,97.8 C141.8,97.7 142.4,97.7 143,97.7 C142.8,97.2 142.8,97 142.7,96.8 C141.8,93.6 140.4,90.6 139.9,87.2 C139.7,85.3 139.1,83.4 138.5,81.5 C137.8,78.8 136.9,76.2 136.1,73.6 C135.7,72.3 136.4,71.6 137.7,71.8 C138.4,71.9 139.2,71.9 140,71.9 C143.7,72 147.4,71.9 151,72.4 C157.3,73.4 163.6,73.9 170,73.8 C170.9,73.8 171.7,73.8 172.6,73.9 C173.6,74 174.1,74.6 173.8,75.7 C173.6,76.6 173.5,77.6 173.3,78.5 C173,79.7 172.8,80.9 172.4,82 C170.9,86.3 169.3,90.6 167.8,94.9 C167.5,95.8 167.1,96.8 166.8,97.4 C168.6,98.7 170.1,99.9 171.6,101.1 C172.1,101.5 172.4,102.1 172.9,102.3 C176.2,103.7 179,106 181.3,108.7 C182.8,110.3 182.6,111.5 180.7,112.5 C179.3,113.3 178,114.2 176.7,115 C177.5,116.4 178.2,117.7 178.9,119 C179.8,120.8 180.3,121 182.5,120.4 C182.5,115.9 182.5,111.4 182.4,107 C182.2,99.4 181.7,91.7 181.5,84.1 C181.4,79.4 181.6,74.7 181.7,70 C181.7,68.9 181.6,67.8 181.6,66.6 Z M138.7,74.4 C138.8,74.9 138.9,75.2 139,75.6 C140,79.4 141.1,83.3 142.1,87.1 C142.4,88.3 142.5,89.6 142.9,90.8 C143.8,93.8 144.9,96.7 145.9,99.6 C146.6,101.7 146.8,101.9 149,101.6 C149.2,101.6 149.4,101.5 149.7,101.5 C151.9,101.3 154.1,101.2 156.3,101.1 C157.8,101 159.3,100.9 161,100.9 C160.8,99.6 160.6,98.6 160.4,97.5 C160.2,96.1 160.9,95.5 162.2,95.9 C162.9,96.1 163.7,96.2 164.4,96.3 C165,94.9 165.5,93.6 166,92.2 C167.1,89.2 168.2,86.1 169.3,83 C170.1,80.8 170.9,78.7 171,76.3 C170.6,76.3 170.2,76.3 169.9,76.3 C163.3,76.4 156.7,75.8 150.2,74.8 C146.5,74.2 142.7,73.9 138.7,74.4 Z M179.4,110.4 C178.8,109.8 178.1,109.4 177.7,108.8 C176.6,107.2 175.1,106.4 173.4,105.5 C172.1,104.8 171,103.8 169.7,102.9 C167.5,101.4 165.4,99.9 163,98.3 C163.3,105.1 163.6,111.6 163.9,118.1 C165,117.6 165.8,117.3 166.7,116.9 C167.5,116.5 168.3,115.9 169.1,115.4 C170.3,114.6 170.9,114.8 171.6,115.9 C172.7,117.6 173.8,119.3 174.9,120.9 C175.7,122.1 175.8,122.1 177.3,121.1 C176.3,119.5 175.3,117.8 174.2,116.3 C173.3,115.1 173.4,114.2 174.6,113.4 C176.2,112.5 177.8,111.5 179.4,110.4 Z M150.4,113.3 C150.3,111.4 150.1,109.8 150.1,108.2 C150.1,107.9 150.8,107.2 151.2,107.3 C151.6,107.3 152.2,107.9 152.3,108.3 C152.5,109.8 152.5,111.3 152.6,112.9 C154.7,112.9 156.9,112.8 159.2,112.8 C159.1,111.5 159,110.4 158.8,109.3 C158.7,108.6 158.9,108 159.6,107.8 C160.3,107.6 160.8,108 161.1,108.7 C161.2,108.9 161.2,109 161.3,109.2 C161.3,109.2 161.4,109.2 161.4,109.2 C161.3,107.2 161.2,105.2 161,103.2 C159.6,103.3 158.3,103.5 157.1,103.6 C156.9,104.6 157.3,106.1 155.9,106.2 C154.1,106.3 154.9,104.5 154.4,103.5 C152.6,103.7 150.7,103.9 148.8,104.1 C148.8,104.5 148.7,104.8 148.7,105 C148.6,105.8 148.3,106.5 147.4,106.4 C146.5,106.3 146.3,105.7 146.3,104.9 C146.3,104.2 146.2,103.8 145.4,103.9 C144.7,104 144.2,104.2 144.3,105.1 C144.6,107.4 144.8,109.6 145.2,111.8 C145.3,112.2 145.8,112.9 146.2,112.9 C147.6,113.1 149.1,113.2 150.4,113.3 Z M142.7,112.3 C142.6,111.7 142.6,111.3 142.5,110.9 C142.3,108.8 142.1,106.8 141.9,104.7 C141.8,103.2 142,101.8 143.9,101.7 C143.9,100.5 143.5,100.1 142.4,100.3 C141.6,100.4 140.8,100.4 140,100.4 C139.3,100.4 138.9,100.7 138.9,101.5 C138.9,102.4 138.7,103.2 138.7,104.1 C138.5,106.4 138.3,108.7 138.1,111 C138,111.8 138.3,112.2 139.1,112.2 C140.3,112.1 141.4,112.2 142.7,112.3 Z M164.3,120.7 C164.3,120.8 164.3,120.9 164.3,121 C166.9,121.1 169.5,121.2 172.2,121.3 C171.4,120.1 170.8,119 170.1,118.1 C168.1,119 166.2,119.9 164.3,120.7 Z" id="Shape" fill="#000000"></path>
                    <path d="M98,90.2 C96.6,90.8 95.2,91.3 94,91.9 C93.7,92.1 93.5,92.8 93.5,93.2 C93.5,97.2 93.5,101.2 93.5,105.1 C93.5,107.8 93.1,108.2 90.3,108.5 C90.1,108.5 89.9,108.6 89.7,108.6 C89.5,110 89.3,111.3 89.1,112.6 C88.7,114.8 87.7,115.1 85.6,114.3 C83.5,113.5 83.1,112.2 83.2,110.3 C83.4,105.3 83.6,100.3 83.8,95.3 C83.8,94 83.9,92.6 84,91.1 C82.7,90.8 81.4,90.5 80,90.2 C78.9,93.7 77.8,97 76.8,100.3 C76.1,102.5 75.7,104.8 75.1,107 C75,107.4 75,108 74.8,108.3 C74.5,108.7 73.9,109.4 73.7,109.4 C72.4,109 71.1,108.6 70,107.9 C69.5,107.5 69.4,106.2 69.6,105.4 C70.4,101.8 71.5,98.2 72.4,94.7 C72.9,92.9 73.3,91 73.7,89.2 C72.5,88.7 71.5,88.3 70.4,87.9 C69.5,87.5 69,86.8 69,85.8 C68.7,81.5 68.9,81.1 73,79.7 C76.3,78.5 79.8,77.7 82.9,76.2 C87.1,74.3 91.2,75.1 95.3,76.2 C98.3,77 101.3,77.7 104.3,78.5 C105.8,78.9 107.4,79.4 108.8,80 C110.7,80.8 111,82.2 109.8,83.9 C108.8,85.3 107.3,86.1 105.7,86.7 C105,87 104.7,87.3 104.8,88.1 C105,89.9 105.2,91.6 105.2,93.4 C105.3,97.2 105.4,101 105.4,104.7 C105.4,105.1 105.3,105.5 105.3,105.8 C105,108.1 103.9,109.2 101.6,109.6 C100.6,109.8 100,109.3 99.9,108.1 C99.5,104.5 99.3,100.9 98.9,97.4 C98.7,95.3 98.5,93.3 98.3,91.2 C98.2,90.9 98.1,90.6 98,90.2 Z M108,82.1 C105.9,81.5 104,81 102,80.5 C99.9,80 97.8,79.6 95.7,78.9 C93,78.1 90.3,77.3 87.5,77.2 C87,77.2 86.5,77.3 86.1,77.5 C83.6,78.4 81.2,79.2 78.7,80.1 C76.4,80.9 74.1,81.7 71.9,82.5 C71.5,82.7 71,83.3 71,83.7 C71.1,84.4 70.6,85.5 71.7,85.9 C73.6,86.5 75.5,87.3 77.4,87.6 C80.2,88.1 83.1,88.4 85.8,89.4 C88.1,90.2 90.5,90.6 92.9,89.6 C94.3,89 95.7,88.4 97.2,87.7 C99.5,86.7 101.9,85.6 104.3,84.6 C105.6,84.1 106.9,83.7 108,82.1 Z M86.1,92.1 C86,94.2 85.9,96.2 85.8,98.1 C85.7,102.3 85.5,106.6 85.4,110.8 C85.4,111.7 85.7,112.1 86.8,112.1 C87.3,105.6 87.8,99.1 88.3,92.6 C88.1,92.5 87.9,92.5 87.8,92.4 C87.3,92.3 86.7,92.2 86.1,92.1 Z M102.2,88.1 C100.2,88.8 100.2,88.8 100.6,90.6 C100.7,90.9 100.7,91.1 100.7,91.4 C101,95 101.3,98.6 101.6,102.1 C101.7,103.7 101.9,105.3 102.1,107 C103.5,105.6 103.4,99.5 102.2,88.1 Z M72.3,106.5 C74,101 75.6,95.6 77.2,90.2 C75.7,89.9 75.7,89.9 75.4,91.3 C75,92.9 74.7,94.5 74.2,96.2 C73.4,99.3 72.6,102.4 71.8,105.5 C71.6,106.1 71.7,106.5 72.3,106.5 Z M91,93.3 C90.9,93.3 90.8,93.3 90.7,93.3 C90.4,97.5 90.1,101.8 89.8,106 C90.7,106.3 91.1,106.1 91.1,105.3 C91.1,103.3 91.1,101.3 91.1,99.3 C91,97.3 91,95.3 91,93.3 Z" id="Shape" fill="#000000"></path>
                    <path d="M123.6,41 C124.5,41.6 125.3,42.1 126,42.7 C127.8,44.1 128.4,46.4 127.7,48.5 C127.3,49.6 126.7,50.4 125.6,50.7 C124.2,51.2 122.9,51.8 121.5,52.2 C120.7,52.4 119.7,52.4 118.8,52.3 C117.8,52.2 117.4,51.4 117.2,50.5 C117.1,50 117.1,49.5 117.1,49 C117.3,44.2 117.6,39.5 117.8,34.7 C117.9,33.3 118.6,32.6 120,32.6 C121.8,32.6 123.4,32.9 124.3,34.7 C125.3,37 125.5,39.1 123.6,41 Z M119.8,42.8 C119.7,45.2 119.6,47.6 119.5,50.3 C121.1,49.8 122.6,49.4 123.9,48.9 C126.1,48 126.2,46 124.4,44.4 C123,43.3 121.5,43 119.8,42.8 Z M119.9,40.4 C121.8,39.8 122.8,38.6 122.5,37.2 C122.2,35.7 121.7,35.2 120.1,35.3 C120.1,37 120,38.7 119.9,40.4 Z" id="Shape" fill="#000000"></path>
                    <path d="M173.6,42.4 C174.8,44 176,45.7 177.3,47.4 C177.6,47.8 177.9,48.2 178.3,48.7 C178.8,49.4 179,50.1 178.2,50.7 C177.4,51.2 176.9,50.8 176.4,50.1 C175,48.2 173.7,46.4 172.3,44.6 C171.9,44.1 171.5,43.8 170.8,43.1 C170.7,44.8 170.7,46.1 170.6,47.4 C170.6,48.3 170.5,49.3 170.4,50.2 C170.3,50.9 169.9,51.5 169.2,51.4 C168.3,51.3 168.1,50.7 168.1,50 C168.2,44.7 168.3,39.3 168.4,34 C168.4,33.6 168.8,32.9 169.2,32.8 C171.5,32.1 174.2,33 175.3,34.6 C176.5,36.3 176.5,38.1 175.6,39.8 C174.9,40.7 174.3,41.4 173.6,42.4 Z M170.5,40.4 C171.6,40.7 172.2,40.3 172.7,39.5 C173.4,38.5 174,37.5 173.4,36.3 C172.8,35.3 171.9,34.9 170.7,34.9 C170.7,36.8 170.6,38.6 170.5,40.4 Z" id="Shape" fill="#000000"></path>
                    <path d="M137,44.9 C136,44.9 135,44.8 134.1,44.8 C133.8,44.8 133.4,45.2 133.3,45.5 C133,46.7 132.8,48 132.5,49.3 C132.5,49.5 132.4,49.7 132.3,50 C132.1,50.7 131.7,51.4 130.8,51.2 C129.9,51 129.8,50.2 130,49.5 C130.4,47.6 130.8,45.6 131.2,43.7 C131.8,40.7 132.5,37.8 133.1,34.8 C133.2,34.5 133.2,34.1 133.4,33.8 C133.7,33 134.1,32.2 135.2,32.3 C136.2,32.4 136.5,33.1 136.7,33.9 C137.2,35.8 137.7,37.6 138.1,39.5 C138.8,42.5 139.4,45.5 140,48.5 C140.2,49.3 140.2,50.1 139.2,50.3 C138.2,50.5 137.9,49.8 137.7,49 C137.4,47.6 137.2,46.2 137,44.9 Z M135.2,37.6 C135.1,37.6 134.9,37.6 134.8,37.6 C134.5,39.2 134.2,40.7 133.9,42.4 C134.9,42.4 135.6,42.4 136.5,42.4 C136,40.7 135.6,39.1 135.2,37.6 Z" id="Shape" fill="#000000"></path>
                    <path d="M161.6,42.4 C160.5,42.5 159.7,42.5 158.8,42.5 C158,42.5 157.6,42.8 157.5,43.6 C157.3,44.8 157.1,46 156.8,47.2 C156.7,47.5 156.7,47.9 156.6,48.2 C156.3,49.3 155.6,49.9 154.9,49.6 C153.9,49.2 154.1,48.4 154.3,47.6 C154.7,45.6 155.1,43.7 155.6,41.7 C156.2,39.1 156.9,36.5 157.6,33.9 C157.8,33.2 158.1,32.6 158.6,32 C159.4,30.9 160.7,31 161.2,32.3 C161.6,33.2 161.8,34.1 162.1,35 C163,38.1 163.9,41.2 164.7,44.4 C164.9,45.3 165.1,46.2 165.2,47.1 C165.3,47.9 165.1,48.6 164.2,48.7 C163.3,48.8 163,48.1 162.9,47.3 C162.4,45.6 162,44 161.6,42.4 Z M159.7,35.7 C159.6,35.7 159.6,35.7 159.5,35.7 C159.1,37.1 158.7,38.5 158.3,40.1 C159.3,40.1 160,40 160.8,40 C160.4,38.4 160,37.1 159.7,35.7 Z" id="Shape" fill="#000000"></path>
                    <path d="M144.9,49.4 C146.1,49.5 147.2,49.5 148.4,49.5 C149.2,49.5 150,49.6 150,50.6 C150,51.6 149.2,51.9 148.4,51.8 C146.7,51.7 144.9,51.6 143.2,51.4 C142,51.2 141.5,50.1 142.1,48.9 C144.2,44.7 146.4,40.5 148.5,36.3 C148.6,36.1 148.7,35.9 148.8,35.6 C148.1,35.5 147.4,35.4 146.7,35.3 C145.9,35.2 145.2,34.9 145.3,34 C145.4,33 146.2,32.9 147,33 C147.9,33.1 148.8,33.1 149.7,33.1 C151.3,33.2 152,34.1 151.4,35.5 C150.6,37.4 149.5,39.3 148.5,41.2 C147.2,43.8 145.9,46.4 144.6,49 C144.7,49.1 144.8,49.2 144.9,49.4 Z" id="Shape" fill="#000000"></path>
                    <path d="M232.3,95.5 C231.8,96.1 231.4,96.6 231,97 C230.2,97.7 229.3,98.4 228.6,99.2 C227.8,100 226.9,100.2 226,99.5 C225,98.7 224.1,97.8 223.2,96.9 C222.6,96.2 222.7,95.2 223.5,94.5 C224.3,93.7 225.1,92.9 226,92.3 C226.3,92.1 227,92 227.4,92.2 C228.6,92.7 229.8,93.4 230.9,94.1 C231.5,94.3 231.8,94.9 232.3,95.5 Z M226.8,97.3 C227.5,96.6 228.1,96.1 228.6,95.6 C227.1,94.5 227.1,94.5 225.6,96 C226,96.4 226.4,96.8 226.8,97.3 Z" id="Shape" fill="#000000"></path>
                    <path d="M181.6,66.6 C181.6,67.8 181.7,69 181.7,70.1 C181.6,74.8 181.4,79.5 181.5,84.2 C181.7,91.8 182.1,99.5 182.4,107.1 C182.5,111.6 182.5,116.1 182.5,120.5 C180.3,121.1 179.8,120.9 178.9,119.1 C178.2,117.8 177.5,116.5 176.7,115.1 C178,114.3 179.3,113.3 180.7,112.6 C182.5,111.6 182.7,110.4 181.3,108.8 C178.9,106.1 176.2,103.9 172.9,102.4 C172.4,102.2 172.1,101.6 171.6,101.2 C170.1,100 168.5,98.8 166.8,97.5 C167.1,96.9 167.5,95.9 167.8,95 C169.4,90.7 170.9,86.4 172.4,82.1 C172.8,81 173.1,79.8 173.3,78.6 C173.5,77.7 173.6,76.7 173.8,75.8 C174,74.8 173.5,74.2 172.6,74 C171.7,73.9 170.9,73.9 170,73.9 C163.6,73.9 157.3,73.4 151,72.5 C147.4,72 143.7,72.1 140,72 C139.2,72 138.5,72 137.7,71.9 C136.4,71.7 135.7,72.5 136.1,73.7 C136.9,76.4 137.7,79 138.5,81.6 C139,83.5 139.6,85.4 139.9,87.3 C140.3,90.6 141.8,93.7 142.7,96.9 C142.8,97.2 142.9,97.4 143,97.8 C142.3,97.8 141.8,97.9 141.2,97.9 C140.4,98 139.6,98 138.8,98.2 C137.6,98.4 136.9,99.2 136.8,100.4 C136.5,103.7 136.2,107 135.8,110.2 C135.8,110.7 135.8,111.2 135.8,111.7 C136,113.8 136.4,114.3 138.5,114.5 C140.2,114.6 141.9,114.6 143.7,114.7 C143.9,114.7 144.1,114.7 144.2,114.8 C146.5,116 148.9,115.8 151.4,115.6 C154.7,115.4 158,115.3 161.4,115.2 C162,117.1 161.1,119.4 162.7,120.9 C149,121 135.2,121.2 121.3,121.3 C121.3,121.4 121.3,121.3 121.3,121.2 C121.6,114.3 121.8,107.3 122.1,100.4 C122.4,94 123.1,87.6 123.4,81.1 C123.6,76.7 123.3,72.3 123.2,67.9 C123.2,67.5 123.2,67.2 123.1,66.5 C125.1,66.6 127,66.7 128.9,66.7 C134.2,66.8 139.5,66.9 144.8,66.9 C148.2,66.9 151.6,66.4 155,66.4 C158.1,66.4 161.2,66.6 164.3,66.7 C169.1,66.8 174,67.5 178.8,66.6 C179.1,66.5 179.4,66.5 179.7,66.5 C180.3,66.4 180.9,66.5 181.6,66.6 Z" id="Shape" fill="#FFFFFF"></path>
                    <path d="M138.7,74.4 C142.7,73.9 146.5,74.1 150.3,74.7 C156.8,75.7 163.4,76.2 170,76.2 C170.3,76.2 170.7,76.2 171.1,76.2 C171,78.6 170.2,80.8 169.4,82.9 C168.3,85.9 167.2,89 166.1,92.1 C165.6,93.5 165,94.8 164.5,96.2 C163.8,96.1 163,96 162.3,95.8 C160.9,95.4 160.3,96 160.5,97.4 C160.7,98.5 160.9,99.5 161.1,100.8 C159.4,100.9 157.9,100.9 156.4,101 C154.2,101.1 152,101.3 149.8,101.4 C149.6,101.4 149.4,101.5 149.1,101.5 C146.9,101.8 146.7,101.6 146,99.5 C145,96.6 144,93.6 143,90.7 C142.6,89.5 142.5,88.2 142.2,87 C141.2,83.2 140.1,79.3 139.1,75.5 C138.9,75.2 138.8,74.9 138.7,74.4 Z" id="Shape" fill="#FFFFFF"></path>
                    <path d="M179.4,110.4 C177.7,111.5 176.2,112.5 174.7,113.4 C173.4,114.2 173.4,115.1 174.3,116.3 C175.4,117.8 176.4,119.5 177.4,121.1 C175.9,122.1 175.9,122.1 175,120.9 C173.9,119.2 172.8,117.6 171.7,115.9 C171,114.8 170.3,114.6 169.2,115.4 C168.4,115.9 167.6,116.4 166.8,116.9 C166,117.3 165.1,117.7 164,118.1 C163.7,111.6 163.4,105.1 163.1,98.3 C165.5,99.9 167.6,101.4 169.8,102.9 C171,103.8 172.2,104.8 173.5,105.5 C175.1,106.4 176.7,107.2 177.8,108.8 C178.1,109.4 178.8,109.8 179.4,110.4 Z" id="Shape" fill="#FFFFFF"></path>
                    <path d="M150.4,113.3 C149.1,113.2 147.6,113.1 146.2,112.8 C145.8,112.7 145.2,112.1 145.2,111.7 C144.8,109.5 144.6,107.2 144.3,105 C144.2,104.1 144.7,103.9 145.4,103.8 C146.2,103.7 146.3,104.2 146.3,104.8 C146.3,105.5 146.5,106.2 147.4,106.3 C148.3,106.4 148.6,105.7 148.7,104.9 C148.7,104.6 148.8,104.4 148.8,104 C150.7,103.8 152.5,103.6 154.4,103.4 C155,104.4 154.1,106.2 155.9,106.1 C157.3,106 156.9,104.6 157.1,103.5 C158.3,103.4 159.6,103.2 161,103.1 C161.1,105.2 161.3,107.2 161.4,109.1 C161.4,109.1 161.3,109.1 161.3,109.1 C161.2,108.9 161.1,108.8 161.1,108.6 C160.8,107.9 160.4,107.5 159.6,107.7 C158.8,107.9 158.7,108.5 158.8,109.2 C158.9,110.3 159,111.4 159.2,112.7 C156.9,112.7 154.7,112.8 152.6,112.8 C152.5,111.2 152.5,109.7 152.3,108.2 C152.2,107.8 151.6,107.2 151.2,107.2 C150.8,107.2 150.1,107.8 150.1,108.1 C150,109.8 150.2,111.4 150.4,113.3 Z" id="Shape" fill="#FFFFFF"></path>
                    <path d="M142.7,112.3 C141.5,112.2 140.3,112.2 139.1,112.2 C138.2,112.2 138,111.7 138.1,111 C138.3,108.7 138.5,106.4 138.7,104.1 C138.8,103.2 138.9,102.4 138.9,101.5 C138.9,100.7 139.3,100.4 140,100.4 C140.8,100.4 141.6,100.5 142.4,100.3 C143.5,100.1 143.9,100.5 143.9,101.7 C142,101.9 141.8,103.2 141.9,104.7 C142.1,106.8 142.3,108.8 142.5,110.9 C142.5,111.3 142.6,111.7 142.7,112.3 Z" id="Shape" fill="#FFFFFF"></path>
                    <path d="M164.3,120.7 C166.2,119.8 168.1,119 170.1,118.1 C170.7,119.1 171.4,120.1 172.2,121.3 C169.5,121.2 166.9,121.1 164.3,121 C164.3,120.9 164.3,120.8 164.3,120.7 Z" id="Shape" fill="#FFFFFF"></path>
                    <path d="M108,82.1 C106.9,83.7 105.6,84.2 104.3,84.7 C101.9,85.7 99.6,86.8 97.2,87.8 C95.8,88.4 94.4,89.1 92.9,89.7 C90.5,90.7 88.1,90.3 85.8,89.5 C83,88.5 80.2,88.2 77.4,87.7 C75.4,87.4 73.6,86.6 71.7,86 C70.6,85.6 71.1,84.6 71,83.8 C70.9,83.4 71.5,82.7 71.9,82.6 C74.2,81.7 76.5,81 78.7,80.2 C81.2,79.3 83.6,78.4 86.1,77.6 C86.6,77.4 87,77.3 87.5,77.3 C90.3,77.4 93,78.1 95.7,79 C97.7,79.6 99.9,80 102,80.6 C103.9,81 105.9,81.5 108,82.1 Z" id="Shape" fill="#FFFFFF"></path>
                    <path d="M86.1,92.1 C86.6,92.2 87.2,92.3 87.8,92.4 C88,92.4 88.1,92.5 88.3,92.6 C87.8,99.1 87.3,105.6 86.8,112.1 C85.7,112.2 85.4,111.7 85.4,110.8 C85.6,106.6 85.7,102.3 85.8,98.1 C86,96.1 86.1,94.2 86.1,92.1 Z" id="Shape" fill="#FFFFFF"></path>
                    <path d="M102.2,88.1 C103.4,99.5 103.5,105.6 102.1,107 C101.9,105.2 101.7,103.7 101.6,102.1 C101.3,98.5 101,94.9 100.7,91.4 C100.7,91.1 100.6,90.9 100.6,90.6 C100.2,88.8 100.2,88.7 102.2,88.1 Z" id="Shape" fill="#FFFFFF"></path>
                    <path d="M72.3,106.5 C71.7,106.5 71.6,106 71.8,105.4 C72.6,102.3 73.4,99.2 74.2,96.1 C74.6,94.5 75,92.9 75.4,91.2 C75.7,89.8 75.7,89.8 77.2,90.1 C75.6,95.6 74,101 72.3,106.5 Z" id="Shape" fill="#FFFFFF"></path>
                    <path d="M91,93.3 C91,95.3 91,97.3 91,99.3 C91,101.3 91,103.3 91,105.3 C91,106.1 90.6,106.3 89.7,106 C90,101.8 90.3,97.5 90.6,93.3 C90.8,93.3 90.9,93.3 91,93.3 Z" id="Shape" fill="#FFFFFF"></path>
                    <path d="M119.8,42.8 C121.5,43 123,43.3 124.4,44.4 C126.2,45.9 126.1,48 123.9,48.9 C122.5,49.5 121.1,49.8 119.5,50.3 C119.6,47.6 119.7,45.2 119.8,42.8 Z" id="Shape" fill="#FFFFFF"></path>
                    <path d="M119.9,40.4 C120,38.6 120,37 120.1,35.3 C121.7,35.2 122.3,35.7 122.5,37.2 C122.8,38.6 121.8,39.8 119.9,40.4 Z" id="Shape" fill="#FFFFFF"></path>
                    <path d="M170.5,40.4 C170.6,38.6 170.7,36.8 170.7,34.9 C171.8,34.9 172.8,35.3 173.4,36.3 C174.1,37.5 173.4,38.5 172.7,39.5 C172.2,40.3 171.6,40.7 170.5,40.4 Z" id="Shape" fill="#FFFFFF"></path>
                    <path d="M135.2,37.6 C135.6,39.1 136,40.7 136.4,42.4 C135.5,42.4 134.8,42.4 133.8,42.4 C134.1,40.7 134.4,39.1 134.7,37.6 C135,37.6 135.1,37.6 135.2,37.6 Z" id="Shape" fill="#FFFFFF"></path>
                    <path d="M159.7,35.7 C160,37.1 160.4,38.5 160.8,40 C160,40 159.3,40.1 158.3,40.1 C158.7,38.5 159.1,37.1 159.5,35.7 C159.6,35.7 159.6,35.7 159.7,35.7 Z" id="Shape" fill="#FFFFFF"></path>
                    <path d="M226.8,97.3 C226.4,96.8 226,96.4 225.6,96 C227.1,94.5 227.1,94.5 228.6,95.6 C228.1,96.1 227.6,96.6 226.8,97.3 Z" id="Shape" fill="#FFFFFF"></path>
                </g>
            </g>
        </g>
    </g>
</svg>