<?xml version="1.0" encoding="UTF-8"?>
<svg width="285px" height="157px" viewBox="0 0 285 157" version="1.1" xmlns="http://www.w3.org/2000/svg" xmlns:xlink="http://www.w3.org/1999/xlink">
    <!-- Generator: Sketch 46.2 (44496) - http://www.bohemiancoding.com/sketch -->
    <title>Business - Price Products</title>
    <desc>Created with Sketch.</desc>
    <defs></defs>
    <g id="Page-1" stroke="none" stroke-width="1" fill="none" fill-rule="evenodd">
        <g id="Business---Price-Products" fill-rule="nonzero">
            <g id="Calque_2" transform="translate(0.000000, 11.000000)" fill="#B7D6E2">
                <path d="M55.6,51.9 C41,51.6 25.9,55.6 14.9,65.1 C3.9,74.7 -2.4,90.2 1.1,104.4 C5.9,123.7 26.2,134.9 45.4,140.1 C96.7,154.1 154.6,141.2 195.1,106.7 C202.7,100.2 209.9,92.9 214.3,83.9 C226,60 215,29.8 195,12.3 C185.6,4.1 173,-2.2 161,1 C150.4,3.8 143,13.3 136.4,22.1 C124.4,38.4 112.4,54.6 100.3,70.9" id="Shape"></path>
            </g>
            <g id="Calque_1" transform="translate(10.000000, 0.000000)">
                <g id="Group">
                    <path d="M157.2,66.7 C160.5,69.9 160.5,71.1 157.7,74.7 C159.1,77.2 159,77.8 157.1,80.3 C158.2,82.9 158.1,83.5 156,85.4 C156.7,88.7 156.1,91.1 152,92.9 C152.1,93.1 152.2,93.2 152.3,93.3 C153.8,94.9 153.8,96.8 152.3,98.4 C151.6,99.1 151,99.9 150.2,100.5 C149.4,101.1 148.5,101.5 147.6,102.1 C149.2,103.7 149.2,105.6 148.2,107.4 C147.4,108.8 145.9,109.3 144.5,110 C144.1,110.2 143.6,110.3 143.1,110.5 C143.1,110.7 143.1,110.9 143.1,111.1 C143.8,113.7 142.3,115.3 140.5,116 C136.8,117.4 132.9,118.4 128.9,118.8 C119.2,119.7 109.6,119.9 99.9,119.7 C95.8,119.6 91.7,119.9 87.7,119.5 C83.5,119.1 79.3,118.2 75,117.5 C74.3,117.4 73.7,117.2 73,116.9 C69.7,115.7 69,113.6 70.7,110.5 C68.1,108.8 65.9,106.8 68.1,103.3 C67.1,102.9 66.3,102.5 65.4,102.2 C65.3,102.1 65.1,102.1 64.9,102.1 C62.6,102.4 60.4,102.7 58.1,102.9 C53.1,103.4 48.1,103.6 43.1,102.2 C41.7,101.8 40.2,101.7 38.8,101.2 C37.2,100.7 35.6,100 34,99.3 C32.8,98.8 31.6,98.3 30.2,97.7 C28.7,99.9 27.2,102.1 25.9,104 C27.3,106.4 28.5,108.6 29.7,110.9 C30.3,111.9 30.8,113.1 31.4,114.1 C32.2,115.3 32.1,116.6 31.5,117.8 C30.8,119.1 29.9,120.3 29,121.6 C28.6,122.3 28.1,122.9 27.6,123.5 C26,125.6 24.2,127.6 23.2,130.2 C23.1,130.4 23,130.6 22.9,130.7 C21.1,133.7 20.4,133.9 17,133.1 C12,132 7.8,129.6 3.6,126.9 C2.9,126.5 2.3,125.9 1.7,125.3 C0.6,124.3 0.5,123.4 1.2,122.1 C2.3,119.9 4,118 5.7,116.3 C7.5,114.5 9,112.3 10.6,110.3 C11.2,109.6 11.7,108.8 12.2,108 C12.9,106.8 14.2,106.3 15.4,105.9 C17.3,105.2 19.2,104.5 21.2,104.1 C23.1,103.7 24.1,102.6 25,101.1 C25.9,99.6 27,98.1 28.1,96.5 C27.4,95.8 26.7,95.1 26.1,94.5 C25.2,93.6 24.3,92.6 23.5,91.7 C23.3,91.5 23.2,91.2 23.3,90.9 C23.5,87.9 22.8,84.9 22.6,82 C21.8,73 21.2,64.1 20.4,55.1 C19.9,49.5 19.9,43.8 20,38.2 C20,36.3 19.9,34.4 20,32.6 C20.1,29.2 21.3,26.1 23.9,23.8 C26.4,21.5 29.3,20.1 32.4,18.8 C37.4,16.7 42.6,15.1 48.1,14.6 C50.6,14.4 53.2,14.5 55.8,14.4 C56.2,14.4 56.7,14.4 57.1,14.5 C59.1,15.1 61.1,14.8 63.1,15 C68.1,15.3 73.2,15.6 77.9,17.6 C81.8,19.2 84.8,21.8 86.8,25.5 C87.8,27.3 87.7,29.2 87.1,31.1 C86.9,31.6 86.8,32.1 86.7,32.6 C86.3,37.3 86,42 85.7,46.7 C85.5,49 85.3,51.2 85.1,53.4 C91.9,52.8 98.7,52.3 105.6,51.7 C105.8,50.2 105.9,48.5 106.1,46.8 C106.4,43.7 107.2,40.7 108.5,37.8 C109.8,34.9 111.7,32.7 114.7,31.4 C115.4,31.1 115.7,30.6 115.9,29.8 C117.1,23.7 119.2,17.9 122.5,12.7 C122.8,12.2 123.3,11.8 123.8,11.5 C126.4,10 129,8.5 131.6,7 C135,5.1 138.3,3.1 141.7,1.2 C143.1,0.4 143.9,0.6 145,1.8 C146.9,3.8 148.2,6.3 149.3,8.8 C150.7,12.1 152.2,15.5 153.7,18.8 C154.6,20.7 154.3,21.9 152.3,22.8 C149.9,24 147.4,24.9 144.9,26 C142.7,26.9 140.5,27.6 138.3,28.6 C134.6,30.4 130.7,31.3 126.6,31.8 C123.7,32.1 120.8,32.9 117.9,33.3 C113.9,33.8 112,36.6 110.6,39.9 C109,43.6 108.6,47.5 108.4,51.5 C108.4,51.6 108.4,51.7 108.5,52 C108.9,52 109.3,52 109.6,52 C116.2,52.1 122.9,52.1 129.5,52.3 C131.1,52.3 132.8,52.9 134.4,53.1 C136.4,53.3 138.5,53.3 140.5,53.5 C142.7,53.8 145,54 147.1,54.6 C150,55.4 152.1,57.3 153.9,59.7 C154.2,60.1 154.6,60.5 155,60.7 C157.9,61.7 158.6,63.5 157.2,66.7 Z M61.6,90.1 C57.4,87 57.1,86.4 59.1,83.6 C56.8,80.9 56.9,78.7 59.4,76.9 C58.6,76 57.7,75.1 57.9,73.9 C58.1,72.8 58.7,71.7 59.1,70.4 C57.8,68.4 57.6,66.5 59,64.9 C60.7,63.1 62.5,61.2 64.6,59.9 C68.4,57.7 72.4,56.1 76.7,55.1 C78.5,54.7 80.4,54.3 82.4,53.8 C83,47.5 83.6,41.2 84.2,34.9 C82.5,35.7 81.1,36.5 79.5,37 C76.3,37.9 73,38.7 69.7,39.3 C66,39.9 62.1,40.1 58.4,40.4 C49.5,41.2 40.5,41.7 31.6,40.3 C28.5,39.8 25.4,39.3 22.8,37 C22.7,37.3 22.7,37.4 22.7,37.6 C22.8,42.8 22.7,47.9 23,53.1 C23.5,61.9 24.3,70.6 25.1,79.4 C25.4,82.9 25.8,86.4 26.1,89.9 C26.1,90.2 26.3,90.6 26.5,90.9 C27.6,92.1 28.7,93.3 29.9,94.6 C31,93.4 32,92.3 32.9,91.2 C33.1,91 33.3,90.7 33.4,90.4 C33.7,89.9 34.2,89.5 34.8,89.8 C35.2,90 35.7,90.7 35.6,91.1 C35.5,91.7 35.2,92.4 34.8,92.9 C34,94 33,94.9 32.2,95.9 C42.3,101.6 53,102 63.9,100 C64.1,99.2 64.2,98.5 64.4,97.8 C61.1,95.9 59.7,93.3 61.6,90.1 Z M45.5,38.5 C45.5,38.6 45.5,38.7 45.5,38.8 C50.2,38.5 55,38.2 59.7,37.8 C63.3,37.5 67,37.3 70.5,36.6 C73.7,36.1 76.8,35.2 79.9,34.1 C81.9,33.4 83.9,32.3 84.3,29.8 C84.3,29.7 84.4,29.5 84.5,29.4 C85,28.9 85,28.2 84.9,27.6 C84.2,25.2 82.7,23.3 80.7,21.9 C77.3,19.4 73.3,18.4 69.2,17.8 C64.8,17.2 60.3,17.8 56,16.7 C55.6,16.6 55.2,16.7 54.8,16.7 C52.9,16.7 51,16.8 49.2,16.8 C48.2,16.8 47.1,16.9 46.1,17.1 C40.5,18.1 35.1,19.8 30,22.5 C28.3,23.4 26.8,24.5 25.4,25.7 C22.7,28.1 22.4,32.2 24.4,34.8 C25.4,36.1 26.9,36.7 28.4,37 C31.4,37.6 34.5,38.1 37.5,38.4 C40.2,38.7 42.8,38.5 45.5,38.5 Z M150.3,62.2 C148.7,60.4 147.2,59.2 145.1,59 C143,58.8 141,58.5 138.9,58.3 C138.1,58.2 137.3,58.1 136.5,58.1 C131.8,58.2 127.1,58.4 122.4,58.5 C119.4,58.6 116.3,58.7 113.3,59 C109.3,59.4 105.3,60 101.3,60.4 C97.2,60.8 93,61 88.9,61.4 C84.5,61.9 80,62.5 75.6,63.1 C73.3,63.4 71.2,64.4 69.1,65.5 C69.7,65.7 70.3,65.9 70.9,66 C73.7,66.2 76.5,66.5 79.3,66.6 C83.5,66.8 87.7,66.8 91.9,66.8 C97.7,66.8 103.6,66.9 109.4,66.7 C117.3,66.4 125.3,65.9 133.2,65.4 C136.7,65.2 140.2,64.6 143.6,64 C145.8,63.6 147.9,62.8 150.3,62.2 Z M154.6,81.3 C154.3,81.3 154.2,81.3 154,81.4 C151.8,81.9 149.6,82.5 147.4,82.8 C144,83.3 140.5,83.3 137.2,83.9 C128.7,85.4 120.1,85.5 111.5,85.4 C108.8,85.4 106.1,85.3 103.5,85.4 C94.3,85.9 85.1,86.5 75.9,86.4 C71.4,86.4 66.9,86.1 62.4,85.2 C61.6,85 61,85.4 60.4,86 C61.4,87.2 62.6,87.8 64,88.2 C70.5,90.1 77.1,91 83.8,91.4 C90.2,91.7 96.7,91.6 103.1,91.5 C108,91.4 113,91.3 117.8,90.8 C123.9,90.1 130,89 136,88 C141,87.1 146.1,86.8 150.8,84.7 C152.2,84.1 153.7,83.7 155,82.6 C155,82.2 154.9,81.8 154.6,81.3 Z M142.7,3.1 C139.4,5 136.2,6.8 133,8.6 C130.9,9.9 128.9,11.4 126.7,12.5 C125,13.3 124,14.4 123.1,16 C121.2,19.5 120.1,23.3 118.8,27 C118.5,28 118.4,29.1 118.2,30.2 C118.8,30.1 119.2,30 119.5,30 C121.8,29.6 124.1,29.1 126.4,28.9 C129.9,28.6 133.1,27.7 136.3,26.3 C139.9,24.8 143.7,23.5 147.3,22 C148.7,21.5 149.9,20.7 151.1,20.1 C151.1,19.8 151.1,19.7 151.1,19.6 C149.3,15.5 147.6,11.5 145.8,7.4 C145,6 144.1,4.4 142.7,3.1 Z M153.4,86.6 C153.1,86.7 152.9,86.8 152.6,86.8 C150.5,87.5 148.4,88.3 146.2,88.7 C140.3,89.8 134.3,90.8 128.4,91.8 C124.2,92.5 120,93.3 115.8,93.5 C108,93.9 100.1,94 92.3,94.1 C83.2,94.2 74.2,93.3 65.3,91.2 C64.7,91 64.2,91.1 63.7,91.7 C63.3,92.3 63.1,92.8 63.4,93.5 C63.8,94.4 64.5,94.9 65.3,95.2 C66.5,95.6 67.7,96 69,96.2 C74.3,96.9 79.5,97.8 84.8,98.1 C91,98.4 97.3,98.2 103.5,98.1 C105.8,98.1 108.1,98 110.5,97.8 C116.6,97.3 122.6,96.7 128.7,96.1 C130.7,95.9 132.7,95.6 134.6,95.1 C138.8,94.1 143,93 147.1,91.8 C148.7,91.4 150.3,90.7 151.8,90.1 C153.4,89.4 153.9,88.1 153.4,86.6 Z M155.2,68.4 C154.5,68.9 153.9,69.4 153.3,69.8 C151.4,70.8 149.6,71.9 147.6,72.5 C145.1,73.2 142.5,73.5 139.9,73.7 C134.4,74.2 129,74.2 123.5,74.1 C119.4,74 115.3,74 111.3,74.1 C106.7,74.2 102,74.3 97.4,74.5 C94.2,74.6 90.9,74.8 87.7,74.9 C84.9,75 82,75.4 79.2,75.2 C76.3,75 73.4,74.4 70.6,73.9 C69.3,73.7 68,73.3 66.7,73.1 C65.3,72.8 63.9,72.7 62.6,72.4 C61.7,72.2 61,72.6 60.7,73.4 C60.4,74.2 60.8,74.7 61.4,75.1 C61.9,75.4 62.4,75.7 62.9,75.8 C64.5,76.2 66.2,76.7 67.8,76.8 C75.1,77.3 82.5,77.6 89.8,78 C94.3,78.3 98.7,78.6 103.2,78.9 C105.5,79.1 107.8,79.4 110.1,79.3 C113.1,79.2 116,78.8 118.9,78.5 C127,77.8 135.1,77.1 143.3,76.3 C146.1,76 149,75.9 151.7,74.9 C153.2,74.3 154.7,73.6 156,72.7 C157.6,71.6 157.5,70.5 156,69.2 C155.8,68.9 155.5,68.7 155.2,68.4 Z M71.3,103.9 C70.9,104.3 70.5,104.7 70.2,105.1 C69.7,105.8 69.7,106.5 70.3,107.1 C71.3,108.1 72.5,109.1 73.9,109.3 C76.7,109.7 79.6,110.2 82.5,110.3 C89.7,110.4 97,110.3 104.2,110.2 C111.2,110.1 118.3,110.1 125.3,110 C129.9,109.9 134.5,110 139,109.1 C141.2,108.6 143.5,108.2 145.4,106.9 C146.1,106.4 146.5,105.5 146.2,104.8 C145.9,104.1 144.6,103.3 143.9,103.5 C140.8,104.1 137.7,104.8 134.5,105.3 C129.8,106.1 125.1,107.3 120.3,107.1 C116.4,106.9 112.6,106.7 108.7,106.4 C105,106.2 101.3,105.7 97.6,105.7 C91.8,105.7 86,105.8 80.2,105.2 C77.2,104.7 74.3,104.2 71.3,103.9 Z M3.3,123.7 C3.5,123.8 3.7,123.9 3.8,124 C7,126.4 10.4,128.5 14.2,129.8 C15.5,130.2 16.9,130.6 18.2,131 C19.5,131.4 19.6,131.4 20.3,130.2 C21.7,127.8 22.9,125.1 24.9,123.1 C26.1,121.9 26.7,120.2 28,118.9 C29,117.9 29.9,116.6 28.9,114.9 C27.5,112.5 26.2,110 24.8,107.5 C24.1,106.2 23.5,106 22,106.5 C20,107.2 18.1,107.8 16.1,108.5 C15.5,108.7 14.8,109 14.3,109.5 C13.6,110.3 13.1,111.3 12.4,112.1 C10.7,114.2 9,116.4 7.1,118.4 C5.9,119.9 4.4,121.4 3.3,123.7 Z M62.3,65.3 C61.3,66 60.6,66.6 60.7,67.8 C60.8,68.9 61.7,69.5 62.6,69.8 C63.8,70.2 65,70.3 66.2,70.6 C67.6,70.9 69.2,71 70.6,71.4 C74.4,72.5 78.2,73 82.1,72.8 C85.6,72.7 89.1,72.3 92.6,72.2 C96.3,72.1 100,72.2 103.6,72 C110.4,71.5 117.1,71.8 123.9,71.8 C130.1,71.8 136.3,72 142.4,70.9 C144.1,70.6 145.9,70.5 147.6,70 C150.5,69.2 152.8,67.4 154.9,65.4 C155.7,64.6 155.6,63.8 154.6,63.2 C154.3,63 154,63 153.7,62.8 C152.7,63.6 151.8,64.3 150.5,64.8 C144.9,66.8 139,67.6 133.1,68 C125.2,68.6 117.4,69 109.5,69.3 C105.7,69.5 101.8,69.5 98,69.4 C92.2,69.3 86.4,69.2 80.6,69.1 C76,69 71.3,68.9 66.8,67.7 C65.1,67.3 63.5,66.8 62.3,65.3 Z M149.3,93.8 C146.9,94.4 144.6,95 142.3,95.6 C136.6,97.2 130.9,98.8 124.9,98.8 C124.7,98.8 124.6,98.8 124.4,98.8 C118.1,99.5 111.8,100.3 105.4,100.3 C102.5,100.3 99.6,100.4 96.7,100.5 C87,101 77.5,100.2 68,98.4 C67.6,98.3 67.3,98.3 66.9,98.3 C66.6,100 66.8,100.3 68.3,100.6 C69.1,100.8 69.9,100.9 70.7,101 C77.4,102.1 84.1,102.9 91,102.9 C97.3,102.9 103.7,102.8 110,103.6 C114.3,104.2 118.7,104.6 123.1,104.1 C124.3,104 125.6,104 126.8,103.8 C129.6,103.4 132.4,102.7 135.3,102.3 C138.7,101.9 142,101 145.3,100 C147.3,99.4 149,98.4 150.3,96.7 C151,95.8 151,95.5 150.3,94.7 C150,94.6 149.7,94.3 149.3,93.8 Z M140.4,111.3 C140,111.3 139.6,111.4 139.3,111.4 C137.2,111.7 135.2,112.1 133.1,112.1 C127.9,112.3 122.6,112.3 117.4,112.4 C108.3,112.5 99.3,112.5 90.2,112.6 C85.2,112.7 80.1,112.8 75.1,111.8 C74.4,111.7 73.7,111.8 73.1,112.3 C72.1,113 72.1,113.7 73.2,114.3 C74,114.7 74.8,115 75.7,115.1 C78.8,115.7 81.8,116.2 84.9,116.6 C87.3,116.9 89.7,117.2 92.2,117.3 C94.8,117.4 97.4,117.2 100,117.2 C109.5,117.3 118.9,117.2 128.4,116.3 C132.2,115.9 135.9,115 139.4,113.7 C140.7,113.3 140.9,112.6 140.4,111.3 Z M60.1,79.7 C59.9,80.5 60.2,81.2 61,81.7 C62.3,82.6 63.8,83 65.4,83.2 C72.3,84.1 79.2,83.9 86.1,83.7 C91.7,83.6 97.2,83 102.8,82.9 C109.3,82.7 115.8,82.9 122.4,82.8 C125.5,82.7 128.6,82.4 131.7,82.1 C135.7,81.7 139.6,81.1 143.6,80.6 C145.7,80.3 147.8,80.2 149.9,79.8 C151.6,79.5 153.3,79 155,78.4 C156.4,77.9 156.5,77.1 155.4,76.1 C155,76.2 154.6,76.4 154.2,76.6 C152.4,77.1 150.7,77.9 148.9,78.1 C143.6,78.7 138.3,79.1 133,79.6 C128.2,80 123.4,80.3 118.7,81 C113.4,81.7 108.1,81.8 102.8,81.3 C97,80.8 91.2,80.5 85.3,80.1 C80.4,79.8 75.4,79.7 70.4,79.4 C67.5,79.2 64.6,78.7 61.6,78.3 C61.2,78.7 60.7,79.1 60.1,79.7 Z M65.4,64.7 C67.3,63.1 69.5,62.4 71.7,61.6 C76,60.1 80.5,59.7 85,59.3 C90.7,58.7 96.5,58.4 102.2,57.8 C106.2,57.4 110.2,56.7 114.2,56.4 C120.6,56 127,55.9 133.4,55.7 C133.9,55.7 134.3,55.6 135,55.6 C131.8,54.6 128.7,54.4 125.5,54.4 C121.9,54.5 118.4,54.3 114.8,54.2 C103.7,54 92.7,54.5 81.7,56.5 C76.3,57.5 71.1,59.3 66.2,61.8 C65.4,62.2 64.6,62.6 64.2,63.6 C64.6,64 65,64.3 65.4,64.7 Z" id="Shape" fill="#000000"></path>
                    <path d="M207.6,93 C208.4,94.5 209.1,95.8 209.8,97.1 C211.4,100.1 212.2,103.4 211.8,106.8 C211.5,109.4 212.8,111.1 214.2,112.9 C214.8,113.7 215.5,114.5 216.2,115.3 C216.7,116 216.8,116.7 216.4,117.6 C214.6,121.8 212.9,126 211.1,130.2 C210.4,131.8 209.7,133.4 209,135 C208.6,136 207.8,136.5 206.9,136.5 C205.6,136.4 204.3,136.4 203.1,135.8 C202.3,135.4 201.3,135.2 200.4,135 C198.8,134.7 197.1,134.6 195.5,134.3 C193.9,134 192.4,133.4 190.8,133 C189.6,132.6 188.3,132.3 187.1,132 C185.3,131.5 184.9,130.2 185.9,128.8 C186.6,127.8 187.2,126.7 188,125.7 C188.7,124.6 189.6,123.6 190.3,122.5 C192.1,119.9 193.8,117.3 195.6,114.8 C196.1,114.1 196.7,113.4 197.4,113.1 C198.9,112.5 200.4,112.2 202,111.7 C204,111.1 206,110.5 207.9,109.8 C208.9,109.4 209.3,108.6 209.4,107.4 C209.8,102.9 208.4,98.9 205.9,95.2 C204.9,93.7 203.6,92.7 201.5,93.2 C201.2,93.3 200.6,93.1 200.4,92.9 C199.9,92.3 199.3,92.1 198.6,92 C195.2,91.4 192.2,89.9 189.1,88.4 C188.3,88 187.3,87.7 186.4,87.5 C185.1,87.2 184.9,86.9 184.7,85.6 C184.6,85.2 184.4,84.8 184.2,84.4 C182.1,81.4 180,78.5 177.9,75.5 C175.1,71.7 172.4,67.9 169.6,64.1 C168.2,62.2 166.6,60.4 165.2,58.4 C163.8,56.4 162.5,54.2 161.3,52.1 C160.8,51.3 160.2,50.3 160.4,49.6 C160.7,48.2 160.8,46.5 162.2,45.5 C164.2,44.1 166.1,42.8 168.2,41.6 C171.3,39.8 174.4,38.1 177.5,36.3 C180.9,34.3 184.4,32.2 187.8,30.1 C188.4,29.7 188.9,29.3 189.6,28.9 C189.9,28.7 190.3,28.6 190.7,28.6 C196.7,28.6 202.6,28.6 208.6,28.7 C212.9,28.8 217.2,29.3 221.5,29.4 C225.4,29.5 229.3,29.3 233.1,29.2 C234.7,29.2 236.1,29.4 237.6,29.9 C240.2,30.8 243,31.3 245.7,31.9 C247.3,32.3 249,32.5 250.6,32.8 C252.6,33.2 254.5,33.6 256.4,34.1 C258.1,34.5 259.8,35 261.5,35.5 C264.2,36.4 266.9,37.3 269.6,38.2 C270.5,38.5 271.4,38.7 272.3,38.8 C273.6,39 274.9,40.9 274.4,42.2 C273,45.6 272,49 270.3,52.3 C268.3,56.1 266.7,60.2 265,64.2 C263.2,68.5 261.5,72.9 259,77 C257.5,79.5 256.3,82.2 255,84.8 C254.1,86.5 253,88.1 251.4,89.2 C250,90.2 248.7,91.3 247.3,92.3 C247,92.5 246.6,92.6 246.3,92.6 C243.7,92.7 241,92.9 238.4,92.9 C233.2,92.9 227.9,92.9 222.7,92.9 C219.4,92.9 216.2,93.2 212.9,93.3 C212.2,93.3 211.5,93.3 210.8,93.3 C209.7,93.1 208.7,93 207.6,93 Z M252.5,52.7 C249.9,52.8 247.4,53 245,53.1 C235.5,53.6 226.1,54.1 216.6,53.9 C209.9,53.7 203.1,54.2 196.3,54.3 C196,54.3 195.7,54.4 195.3,54.4 C195.3,54.7 195.3,54.9 195.4,55.2 C195.9,60.1 196.5,65 197,70 C197.4,73.4 197.9,76.7 199.1,79.9 C199.7,81.6 200.1,83.4 200.6,85.2 C201,86.7 201.5,88.3 202,89.9 C203.5,90 204.8,90.1 206.2,90.2 C208.3,90.3 210.3,90.6 212.4,90.5 C216.2,90.5 219.9,90.2 223.7,90.1 C225.8,90.1 227.9,90.3 230.1,90.2 C235.1,90.1 240,89.8 244.9,89.6 C246.2,89.5 246.7,89.2 247,87.9 C247.7,84.4 248.6,80.9 249.1,77.3 C250.1,71.2 251,65.1 251.9,59.1 C252.1,57.1 252.3,54.9 252.5,52.7 Z M233,31.5 C232.3,31.5 231.9,31.5 231.5,31.5 C225.7,31.5 220,31.5 214.2,31.5 C213.6,31.5 213.1,31.4 212.5,31.4 C210,31.2 207.4,31.1 204.9,30.9 C203.1,30.8 201.4,30.8 199.6,30.8 C197,30.8 194.4,30.8 191.5,30.8 C193.8,38.1 196.6,44.8 199.3,51.5 C208.9,51.5 218.3,51.5 227.6,51.5 C228.6,48.1 229.7,44.8 230.6,41.6 C231.5,38.2 232.2,34.9 233,31.5 Z M163.4,49.9 C163.3,50 163.3,50.1 163.2,50.2 C163.9,51.5 164.6,52.8 165.4,54 C168.6,58.6 171.9,63.1 175.2,67.6 C179,72.9 182.8,78.2 186.7,83.4 C187.2,84.1 188,84.9 188.8,85.3 C191.2,86.5 193.7,87.6 196.2,88.7 C197.1,89.1 198,89.2 199,89.4 C198.5,87.5 198.3,85.7 197.7,84.1 C196.5,80.7 195.4,77.4 195,73.8 C194.4,69.1 194,64.4 193.5,59.7 C193.3,57.7 192.9,55.7 192.6,53.8 C182.8,52.1 173.1,51 163.4,49.9 Z M269,40.7 C269,40.6 269,40.4 269,40.3 C266.6,39.5 264.1,38.9 261.7,38 C257.1,36.3 252.3,35.6 247.7,34.5 C245,33.8 242.1,33.7 239.4,32.7 C238.1,32.2 236.8,32 235.4,31.7 C234.5,38.3 232.2,44.6 230.4,51.2 C230.9,51.2 231.2,51.2 231.4,51.2 C237.1,50.9 242.7,50.7 248.4,50.4 C250.1,50.3 251.9,50.5 253.4,49.9 C256.1,48.8 258.6,47.2 261,45.7 C262.7,44.6 264.3,43.3 266,42.2 C267,41.7 268,41.2 269,40.7 Z M196.6,51.7 C194.1,45.1 191.6,38.6 189.1,32 C188.2,32.5 187.3,33 186.4,33.5 C183.8,35.1 181.2,36.7 178.6,38.3 C176.1,39.8 173.6,41.3 171.1,42.7 C169.6,43.6 168,44.3 166.6,45.1 C165.6,45.7 164.7,46.4 163.8,47.1 C163.8,47.2 163.9,47.3 163.9,47.4 C165.3,47.6 166.6,47.7 168,47.9 C171.3,48.3 174.6,48.6 177.9,49 C179.6,49.2 181.4,49.3 183.1,49.7 C185.4,50.3 187.6,50.7 189.9,50.8 C191.2,50.9 192.5,51 193.6,51.5 C194.7,51.9 195.6,51.8 196.6,51.7 Z M250.2,86.7 C250.6,86.3 251.1,86 251.4,85.5 C252.1,84.5 252.7,83.4 253.3,82.3 C254.5,80 255.5,77.7 256.8,75.5 C259.3,71.5 260.9,67.1 262.7,62.8 C264.4,58.8 266.1,54.9 268,51 C269,48.9 270,46.9 270.7,44.8 C270.9,44.1 271.2,43.3 271.5,42.5 C268.9,43.4 265.2,45.7 263.1,47.4 C262.1,48.2 261.1,48.9 260,49.6 C258.4,50.5 256.8,51.4 255.1,52.2 C254.2,63.8 252.2,75.2 250.2,86.7 Z M214,116.7 C212.8,115.1 211.7,113.5 210.5,112 C210.3,111.8 209.7,111.7 209.4,111.8 C206.8,112.9 204.1,113.7 201.3,114.2 C200,114.4 198.6,114.8 197.8,116 C196.8,117.5 195.8,119.1 194.8,120.6 C193.6,122.4 192.2,124.1 191,125.8 C190.2,127 189.5,128.2 188.6,129.4 C189.7,129.7 190.7,130 191.6,130.3 C193.1,130.7 194.5,131.3 196.1,131.6 C197.8,132 199.6,132.1 201.3,132.4 C202.2,132.6 203.1,132.9 204.1,133.2 C205,133.5 205.9,133.7 207,134 C209.2,128.1 211.6,122.4 214,116.7 Z" id="Shape" fill="#000000"></path>
                    <path d="M61.6,90.1 C59.7,93.3 61.1,95.9 64.2,97.6 C64,98.3 63.9,99 63.7,99.8 C52.8,101.8 42.1,101.3 32,95.7 C32.8,94.8 33.8,93.8 34.6,92.7 C35,92.2 35.4,91.5 35.4,90.9 C35.4,90.5 35,89.9 34.6,89.6 C34.1,89.3 33.5,89.7 33.2,90.2 C33,90.5 32.9,90.8 32.7,91 C31.7,92.1 30.7,93.2 29.7,94.4 C28.6,93.2 27.4,92 26.3,90.7 C26.1,90.5 26,90.1 25.9,89.7 C25.5,86.2 25.2,82.7 24.9,79.2 C24.2,70.4 23.4,61.7 22.8,52.9 C22.5,47.8 22.6,42.6 22.5,37.4 C22.5,37.3 22.6,37.1 22.6,36.8 C25.2,39 28.3,39.6 31.4,40.1 C40.3,41.6 49.3,41 58.2,40.2 C62,39.9 65.8,39.7 69.5,39.1 C72.8,38.6 76.1,37.7 79.3,36.8 C80.9,36.4 82.3,35.5 84,34.7 C83.4,41 82.8,47.3 82.2,53.6 C80.2,54.1 78.4,54.5 76.5,54.9 C72.2,55.9 68.2,57.5 64.4,59.7 C62.3,60.9 60.5,62.8 58.8,64.7 C57.3,66.3 57.6,68.2 58.9,70.2 C58.4,71.5 57.9,72.5 57.7,73.7 C57.5,74.9 58.4,75.8 59.2,76.7 C56.7,78.5 56.6,80.8 58.9,83.4 C57.1,86.4 57.4,87 61.6,90.1 Z" id="Shape" fill="#FFFFFF"></path>
                    <path d="M45.5,38.5 C42.9,38.5 40.2,38.7 37.6,38.5 C34.5,38.2 31.5,37.7 28.5,37.1 C27,36.8 25.5,36.2 24.5,34.9 C22.4,32.3 22.8,28.1 25.5,25.8 C26.9,24.6 28.4,23.4 30.1,22.6 C35.2,20 40.6,18.2 46.2,17.2 C47.2,17 48.3,17 49.3,16.9 C51.2,16.8 53.1,16.8 54.9,16.8 C55.3,16.8 55.7,16.7 56.1,16.8 C60.4,17.9 64.9,17.2 69.3,17.9 C73.4,18.5 77.4,19.5 80.8,22 C82.7,23.4 84.2,25.3 85,27.7 C85.2,28.3 85.2,29 84.6,29.5 C84.5,29.6 84.4,29.8 84.4,29.9 C84,32.4 82.1,33.5 80,34.2 C76.9,35.2 73.8,36.1 70.6,36.7 C67,37.3 63.4,37.6 59.8,37.9 C55.1,38.3 50.3,38.6 45.6,38.9 C45.5,38.7 45.5,38.6 45.5,38.5 Z" id="Shape" fill="#FFFFFF"></path>
                    <path d="M150.3,62.2 C147.9,62.9 145.8,63.6 143.6,64 C140.1,64.6 136.7,65.2 133.2,65.4 C125.3,66 117.3,66.4 109.4,66.7 C103.6,66.9 97.7,66.8 91.9,66.8 C87.7,66.8 83.5,66.7 79.3,66.6 C76.5,66.5 73.7,66.2 70.9,66 C70.3,66 69.7,65.8 69.1,65.5 C71.2,64.4 73.3,63.4 75.6,63.1 C80,62.5 84.5,61.9 88.9,61.4 C93,61 97.2,60.8 101.3,60.4 C105.3,60 109.3,59.4 113.3,59 C116.3,58.7 119.4,58.6 122.4,58.5 C127.1,58.3 131.8,58.2 136.5,58.1 C137.3,58.1 138.1,58.2 138.9,58.3 C141,58.5 143,58.7 145.1,59 C147.2,59.2 148.7,60.3 150.3,62.2 Z" id="Shape" fill="#FFFFFF"></path>
                    <path d="M154.6,81.3 C154.8,81.8 155,82.2 155.2,82.6 C153.9,83.6 152.4,84.1 151,84.7 C146.3,86.7 141.2,87.1 136.2,88 C130.1,89.1 124.1,90.2 118,90.8 C113.1,91.4 108.2,91.5 103.3,91.5 C96.9,91.6 90.4,91.7 84,91.4 C77.3,91.1 70.6,90.1 64.2,88.2 C62.8,87.8 61.6,87.2 60.6,86 C61.2,85.4 61.8,85 62.6,85.2 C67,86.1 71.6,86.3 76.1,86.4 C85.3,86.5 94.5,85.9 103.7,85.4 C106.4,85.3 109.1,85.4 111.7,85.4 C120.3,85.5 128.9,85.3 137.4,83.9 C140.8,83.3 144.2,83.3 147.6,82.8 C149.8,82.5 152,81.9 154.2,81.4 C154.2,81.4 154.4,81.4 154.6,81.3 Z" id="Shape" fill="#FFFFFF"></path>
                    <path d="M142.7,3.1 C144.1,4.4 145,6 145.7,7.6 C147.5,11.6 149.3,15.7 151,19.8 C151,19.9 151,20 151,20.3 C149.8,20.9 148.5,21.6 147.2,22.2 C143.5,23.7 139.8,24.9 136.2,26.5 C133,27.8 129.8,28.8 126.3,29.1 C124,29.3 121.7,29.8 119.4,30.2 C119,30.3 118.7,30.3 118.1,30.4 C118.3,29.2 118.4,28.2 118.7,27.2 C119.9,23.4 121.1,19.7 123,16.2 C123.8,14.7 124.9,13.5 126.6,12.7 C128.8,11.7 130.8,10.1 132.9,8.8 C136.2,6.8 139.4,5 142.7,3.1 Z M132.3,17.8 C132.5,17.4 132.6,17.3 132.8,17.1 C133.9,15.6 135.4,14.7 137,14.1 C137.9,13.8 138.2,13.1 137.9,12.4 C137.6,11.7 136.9,11.4 136,11.8 C135.5,12 135,12.2 134.5,12.5 C132.2,13.7 130.3,15.4 129.6,18 C129.3,19.1 129,19.8 128,20.3 C127.4,20.6 127.1,21.2 127.4,21.7 C127.6,22.1 128.2,22.4 128.7,22.5 C129.1,22.6 129.6,22.3 130.1,22.2 C130.2,22.3 130.3,22.4 130.4,22.5 C133.6,25.5 137.5,25 140.2,21.8 C140.7,21.2 140.9,20.6 140.3,20 C139.7,19.4 139.1,19.6 138.5,20 C138.1,20.4 137.7,20.8 137.3,21.1 C135.8,22.3 133.9,22.2 132.4,20.7 C133.5,20.2 134.5,19.7 135.6,19.2 C136.7,18.7 137.1,18.1 136.8,17.3 C136.5,16.5 135.7,16.4 134.5,16.9 C134.1,17.1 133.8,17.3 133.4,17.4 C133.1,17.5 132.8,17.6 132.3,17.8 Z" id="Shape" fill="#FFFFFF"></path>
                    <path d="M153.4,86.6 C154,88.1 153.4,89.5 151.9,90.1 C150.4,90.8 148.8,91.4 147.2,91.8 C143,92.9 138.9,94 134.7,95.1 C132.8,95.6 130.8,95.9 128.8,96.1 C122.8,96.7 116.7,97.3 110.6,97.8 C108.3,98 106,98 103.6,98.1 C97.4,98.2 91.1,98.4 84.9,98.1 C79.6,97.8 74.3,96.9 69.1,96.2 C67.8,96 66.6,95.6 65.4,95.2 C64.5,94.9 63.8,94.4 63.5,93.5 C63.2,92.8 63.4,92.3 63.8,91.7 C64.2,91.1 64.7,91.1 65.4,91.2 C74.3,93.3 83.3,94.3 92.4,94.1 C100.2,94 108.1,93.9 115.9,93.5 C120.1,93.3 124.3,92.5 128.5,91.8 C134.5,90.8 140.4,89.8 146.3,88.7 C148.5,88.3 150.6,87.4 152.7,86.8 C152.9,86.7 153.1,86.7 153.4,86.6 Z" id="Shape" fill="#FFFFFF"></path>
                    <path d="M155.2,68.4 C155.6,68.7 155.8,68.8 156.1,69.1 C157.6,70.4 157.7,71.5 156.1,72.6 C154.8,73.5 153.3,74.2 151.8,74.8 C149.1,75.9 146.3,76 143.4,76.2 C135.3,76.9 127.2,77.6 119,78.4 C116.1,78.7 113.1,79.1 110.2,79.2 C107.9,79.3 105.6,79 103.3,78.8 C98.8,78.5 94.4,78.1 89.9,77.9 C82.6,77.5 75.2,77.2 67.9,76.7 C66.2,76.6 64.6,76.1 63,75.7 C62.5,75.6 62,75.3 61.5,75 C60.9,74.6 60.4,74.1 60.8,73.3 C61.1,72.5 61.8,72.2 62.7,72.3 C64.1,72.6 65.5,72.7 66.8,73 C68.1,73.2 69.4,73.6 70.7,73.8 C73.6,74.3 76.4,74.9 79.3,75.1 C82.1,75.3 85,74.9 87.8,74.8 C91,74.7 94.3,74.5 97.5,74.4 C102.1,74.3 106.8,74.1 111.4,74 C115.5,73.9 119.6,73.9 123.6,74 C129.1,74.1 134.6,74 140,73.6 C142.6,73.4 145.2,73.1 147.7,72.4 C149.7,71.8 151.5,70.7 153.4,69.7 C153.9,69.5 154.5,68.9 155.2,68.4 Z" id="Shape" fill="#FFFFFF"></path>
                    <path d="M71.3,103.9 C74.3,104.3 77.2,104.7 80.2,105 C86,105.6 91.8,105.6 97.6,105.5 C101.3,105.5 105,106 108.7,106.2 C112.6,106.4 116.4,106.7 120.3,106.9 C125.1,107.1 129.8,105.9 134.5,105.1 C137.6,104.6 140.8,103.9 143.9,103.3 C144.6,103.2 145.9,103.9 146.2,104.6 C146.5,105.2 146.1,106.2 145.4,106.7 C143.5,108 141.2,108.5 139,108.9 C134.5,109.8 129.9,109.7 125.3,109.8 C118.3,109.9 111.2,110 104.2,110 C97,110.1 89.7,110.2 82.5,110.1 C79.6,110.1 76.8,109.5 73.9,109.1 C72.4,108.9 71.3,107.9 70.3,106.9 C69.7,106.3 69.7,105.6 70.2,104.9 C70.5,104.6 70.9,104.3 71.3,103.9 Z" id="Shape" fill="#FFFFFF"></path>
                    <path d="M3.3,123.7 C4.4,121.4 5.8,119.9 7.3,118.3 C9.2,116.3 10.9,114.1 12.6,112 C13.3,111.2 13.8,110.2 14.5,109.4 C14.9,108.9 15.6,108.7 16.3,108.4 C18.3,107.7 20.2,107.1 22.2,106.4 C23.6,105.9 24.3,106.1 25,107.4 C26.4,109.9 27.7,112.4 29.1,114.8 C30.1,116.5 29.2,117.8 28.2,118.8 C26.9,120 26.3,121.7 25.1,123 C23.1,125.1 21.9,127.7 20.5,130.1 C19.8,131.3 19.6,131.3 18.4,130.9 C17.1,130.5 15.7,130.1 14.4,129.7 C10.6,128.5 7.2,126.3 4,123.9 C3.7,123.9 3.5,123.8 3.3,123.7 Z M14.2,124 C17.5,124.5 19.1,124.3 20.9,122.8 C22.2,121.7 22.6,120.1 22.8,118.4 C22.9,117.7 22.5,117.1 21.7,117 C20.9,116.9 20.6,117.4 20.3,118.1 C20.1,118.8 19.8,119.5 19.5,120.2 C19,121.2 17.8,121.7 16.8,121.5 C17.8,120.1 18.1,119.1 17.3,118.5 C15.7,117.2 15.3,119 14.4,119.9 C14.2,118.3 14.7,117.1 15.3,116 C15.4,115.7 15.7,115.4 15.8,115 C16,114.3 15.9,113.7 15.2,113.4 C14.5,113.1 14,113.4 13.7,113.9 C13.4,114.4 13.1,114.8 12.9,115.4 C12,117.6 11.5,119.8 12.4,122.1 C12,122.6 11.6,123 11.3,123.4 C10.9,124 10.8,124.6 11.4,125.1 C11.9,125.6 12.6,125.6 13.2,125 C13.5,124.8 13.9,124.4 14.2,124 Z" id="Shape" fill="#FFFFFF"></path>
                    <path d="M62.3,65.3 C63.5,66.8 65.2,67.3 66.8,67.7 C71.3,68.9 76,69 80.6,69.1 C86.4,69.2 92.2,69.4 98,69.4 C101.8,69.4 105.7,69.4 109.5,69.3 C117.4,68.9 125.2,68.5 133.1,68 C139,67.6 144.8,66.8 150.5,64.8 C151.8,64.3 152.7,63.6 153.7,62.8 C154,62.9 154.4,63 154.6,63.2 C155.6,63.8 155.7,64.6 154.9,65.4 C152.8,67.4 150.4,69.2 147.6,70 C145.9,70.5 144.1,70.6 142.4,70.9 C136.3,72 130.1,71.8 123.9,71.8 C117.1,71.8 110.4,71.6 103.6,72 C99.9,72.2 96.2,72.1 92.6,72.2 C89.1,72.3 85.6,72.7 82.1,72.8 C78.2,73 74.4,72.5 70.6,71.4 C69.2,71 67.7,70.9 66.2,70.6 C65,70.4 63.8,70.2 62.6,69.8 C61.7,69.5 60.8,69 60.7,67.8 C60.6,66.6 61.3,66 62.3,65.3 Z" id="Shape" fill="#FFFFFF"></path>
                    <path d="M149.3,93.8 C149.7,94.2 149.9,94.6 150.2,94.9 C151,95.7 150.9,96 150.2,96.9 C148.9,98.6 147.2,99.6 145.2,100.2 C141.9,101.2 138.6,102 135.2,102.5 C132.4,102.9 129.5,103.5 126.7,104 C125.5,104.2 124.2,104.2 123,104.3 C118.6,104.8 114.2,104.4 109.9,103.8 C103.6,102.9 97.2,103.1 90.9,103.1 C84.1,103.1 77.3,102.3 70.6,101.2 C69.8,101.1 69,101 68.2,100.8 C66.7,100.5 66.6,100.2 66.8,98.5 C67.2,98.5 67.5,98.5 67.9,98.6 C77.4,100.4 87,101.2 96.6,100.7 C99.5,100.6 102.4,100.5 105.3,100.5 C111.7,100.5 118,99.6 124.3,99 C124.5,99 124.6,99 124.8,99 C130.8,99 136.5,97.4 142.2,95.8 C144.6,95 147,94.4 149.3,93.8 Z" id="Shape" fill="#FFFFFF"></path>
                    <path d="M140.4,111.3 C140.9,112.6 140.7,113.3 139.4,113.7 C135.8,115 132.2,115.9 128.4,116.3 C119,117.2 109.5,117.3 100,117.2 C97.4,117.2 94.8,117.4 92.2,117.3 C89.8,117.2 87.3,117 84.9,116.6 C81.8,116.2 78.8,115.6 75.7,115.1 C74.8,114.9 74,114.6 73.2,114.3 C72.1,113.8 72.1,113 73.1,112.3 C73.7,111.8 74.4,111.7 75.1,111.8 C80.1,112.8 85.1,112.7 90.2,112.6 C99.3,112.4 108.3,112.4 117.4,112.4 C122.6,112.3 127.9,112.3 133.1,112.1 C135.2,112 137.2,111.6 139.3,111.4 C139.6,111.4 140,111.3 140.4,111.3 Z" id="Shape" fill="#FFFFFF"></path>
                    <path d="M60.1,79.7 C60.8,79.1 61.2,78.7 61.6,78.3 C64.6,78.7 67.5,79.2 70.4,79.4 C75.3,79.7 80.3,79.9 85.3,80.1 C91.1,80.4 97,80.7 102.8,81.3 C108.1,81.8 113.4,81.7 118.7,81 C123.5,80.4 128.2,80.1 133,79.6 C138.3,79.1 143.6,78.7 148.9,78.1 C150.7,77.9 152.4,77.1 154.2,76.6 C154.6,76.5 155,76.3 155.4,76.1 C156.5,77.1 156.4,77.9 155,78.4 C153.3,79 151.6,79.4 149.9,79.8 C147.8,80.2 145.7,80.3 143.6,80.6 C139.6,81.1 135.7,81.7 131.7,82.1 C128.6,82.4 125.5,82.7 122.4,82.8 C115.9,82.9 109.4,82.8 102.8,82.9 C97.2,83 91.7,83.6 86.1,83.7 C79.2,83.9 72.3,84.1 65.4,83.2 C63.8,83 62.3,82.6 61,81.7 C60.2,81.2 59.8,80.5 60.1,79.7 Z" id="Shape" fill="#FFFFFF"></path>
                    <path d="M65.4,64.7 C65,64.4 64.7,64 64.3,63.7 C64.7,62.7 65.5,62.3 66.3,61.9 C71.2,59.4 76.4,57.6 81.8,56.6 C92.7,54.6 103.8,54.1 114.9,54.3 C118.5,54.4 122,54.5 125.6,54.5 C128.8,54.4 131.9,54.7 135.1,55.7 C134.5,55.7 134,55.8 133.5,55.8 C127.1,56 120.7,56.1 114.3,56.5 C110.3,56.7 106.3,57.5 102.3,57.9 C96.6,58.4 90.8,58.8 85.1,59.4 C80.6,59.9 76.1,60.2 71.8,61.7 C69.5,62.4 67.3,63 65.4,64.7 Z" id="Shape" fill="#FFFFFF"></path>
                    <path d="M252.5,52.7 C252.3,54.9 252.2,57.1 251.9,59.3 C251,65.4 250.2,71.5 249.1,77.5 C248.5,81 247.7,84.5 247,88.1 C246.7,89.4 246.2,89.7 244.9,89.8 C240,90 235,90.2 230.1,90.4 C228,90.5 225.9,90.2 223.7,90.3 C219.9,90.4 216.2,90.6 212.4,90.7 C210.3,90.7 208.3,90.5 206.2,90.4 C204.8,90.3 203.4,90.2 202,90.1 C201.5,88.4 201.1,86.9 200.6,85.4 C200.1,83.6 199.7,81.8 199.1,80.1 C197.9,76.9 197.4,73.5 197,70.2 C196.5,65.3 195.9,60.4 195.4,55.4 C195.4,55.2 195.4,54.9 195.3,54.6 C195.7,54.5 196,54.5 196.3,54.5 C203.1,54.3 209.8,53.9 216.6,54.1 C226.1,54.3 235.5,53.8 245,53.3 C247.4,52.9 249.8,52.8 252.5,52.7 Z" id="Shape" fill="#FFFFFF"></path>
                    <path d="M233,31.5 C232.2,34.9 231.5,38.2 230.6,41.5 C229.7,44.8 228.7,48 227.6,51.4 C218.3,51.4 208.9,51.4 199.3,51.4 C196.6,44.8 193.9,38 191.5,30.7 C194.4,30.7 197,30.7 199.6,30.7 C201.4,30.7 203.1,30.8 204.9,30.8 C207.5,30.9 210,31.1 212.5,31.3 C213.1,31.3 213.6,31.4 214.2,31.4 C220,31.4 225.7,31.4 231.5,31.4 C231.9,31.5 232.3,31.5 233,31.5 Z" id="Shape" fill="#FFFFFF"></path>
                    <path d="M163.4,49.9 C173.1,51 182.8,52.1 192.6,53.8 C192.9,55.7 193.2,57.7 193.5,59.7 C194,64.4 194.4,69.1 195,73.8 C195.4,77.3 196.5,80.7 197.7,84.1 C198.3,85.7 198.5,87.5 199,89.4 C198,89.1 197,89 196.2,88.7 C193.7,87.6 191.2,86.5 188.8,85.3 C188,84.9 187.2,84.2 186.7,83.4 C182.8,78.2 179,72.9 175.2,67.6 C171.9,63.1 168.6,58.5 165.4,54 C164.6,52.8 163.9,51.5 163.2,50.2 C163.3,50.1 163.3,50 163.4,49.9 Z" id="Shape" fill="#FFFFFF"></path>
                    <path d="M269,40.7 C268,41.2 267,41.6 266,42.3 C264.3,43.4 262.7,44.8 261,45.8 C258.5,47.3 256,48.9 253.4,50 C251.9,50.6 250.1,50.4 248.4,50.5 C242.7,50.8 237.1,51 231.4,51.3 C231.1,51.3 230.9,51.3 230.4,51.3 C232.2,44.7 234.5,38.4 235.4,31.8 C236.8,32.1 238.2,32.4 239.4,32.8 C242.1,33.8 244.9,33.9 247.7,34.6 C252.4,35.7 257.2,36.4 261.7,38.1 C264.1,39 266.5,39.6 269,40.4 C269,40.4 269,40.6 269,40.7 Z" id="Shape" fill="#FFFFFF"></path>
                    <path d="M196.6,51.7 C195.6,51.8 194.7,51.9 193.7,51.5 C192.5,51 191.2,50.9 190,50.8 C187.7,50.6 185.4,50.3 183.2,49.7 C181.5,49.2 179.7,49.2 178,49 C174.7,48.6 171.4,48.2 168.1,47.9 C166.7,47.7 165.4,47.6 164,47.4 C164,47.3 163.9,47.2 163.9,47.1 C164.8,46.4 165.7,45.7 166.7,45.1 C168.2,44.2 169.7,43.5 171.2,42.7 C173.7,41.3 176.2,39.8 178.7,38.3 C181.3,36.7 183.9,35.1 186.5,33.5 C187.4,33 188.3,32.5 189.2,32 C191.7,38.6 194.1,45.1 196.6,51.7 Z" id="Shape" fill="#FFFFFF"></path>
                    <path d="M250.2,86.7 C252.2,75.2 254.2,63.8 255,52.2 C256.6,51.3 258.3,50.5 259.9,49.6 C261,49 262.1,48.3 263,47.4 C265.1,45.6 268.8,43.4 271.4,42.5 C271.1,43.3 270.8,44.1 270.6,44.8 C269.9,47 268.9,49 267.9,51 C266,54.9 264.3,58.8 262.6,62.8 C260.8,67.1 259.1,71.5 256.7,75.5 C255.4,77.7 254.4,80 253.2,82.3 C252.6,83.4 252,84.5 251.3,85.5 C251.1,86 250.6,86.3 250.2,86.7 Z" id="Shape" fill="#FFFFFF"></path>
                    <path d="M214,116.7 C211.6,122.4 209.3,128.1 206.8,134.1 C205.7,133.8 204.8,133.6 203.9,133.3 C203,133 202.1,132.7 201.1,132.5 C199.4,132.2 197.6,132 195.9,131.7 C194.4,131.4 192.9,130.9 191.4,130.4 C190.4,130.1 189.5,129.8 188.4,129.5 C189.2,128.2 190,127 190.8,125.9 C192,124.1 193.4,122.4 194.6,120.7 C195.6,119.2 196.6,117.6 197.6,116.1 C198.4,114.9 199.9,114.5 201.1,114.3 C203.9,113.8 206.6,113.1 209.2,111.9 C209.5,111.8 210.2,111.8 210.3,112.1 C211.6,113.5 212.8,115 214,116.7 Z M201.7,126.8 C201.9,126.3 202,125.9 202.2,125.6 C202.4,125.1 202.8,124.6 203,124.1 C203.3,123.5 203.2,122.8 202.5,122.4 C201.8,122 201.3,122.3 200.8,122.9 C200.6,123.1 200.4,123.4 200.3,123.6 C200.1,123.1 200,122.6 200.1,122.2 C200.2,121.6 200.5,121.1 200.7,120.5 C201,119.7 200.6,118.8 199.9,118.6 C199.2,118.4 198.5,118.7 198.2,119.5 C198.1,119.7 198.1,119.9 198,120.1 C197.2,122.3 197.4,124.5 198.2,126.7 C198.3,127 198.4,127.5 198.3,127.8 C197.8,129.2 197.8,129.8 198.5,130.1 C199.5,130.6 200,129.8 200.6,129.2 C200.7,129.2 200.9,129.2 201,129.3 C203.1,130.2 204.6,128.8 206.3,128 C206.5,127.9 206.6,127.7 206.7,127.5 C207.6,125.9 208.2,124.1 208.3,122.3 C208.3,121.7 208.2,121 208,120.4 C207.7,119.6 206.7,119.3 206,119.6 C205.3,119.9 204.9,120.6 205.3,121.3 C206.1,122.5 205.5,123.6 205.2,124.7 C204.9,126.2 203.5,126.4 202.5,126.9 C202.4,127 202.1,126.9 201.7,126.8 Z" id="Shape" fill="#FFFFFF"></path>
                    <path d="M132.3,17.8 C132.8,17.6 133.2,17.5 133.5,17.4 C133.9,17.2 134.2,17 134.6,16.9 C135.8,16.4 136.6,16.5 136.9,17.3 C137.2,18 136.8,18.6 135.7,19.2 C134.7,19.7 133.6,20.2 132.5,20.7 C134,22.2 135.9,22.3 137.4,21.1 C137.8,20.7 138.2,20.3 138.6,20 C139.2,19.5 139.8,19.3 140.4,20 C141,20.6 140.8,21.2 140.3,21.8 C137.6,25 133.7,25.5 130.5,22.5 C130.4,22.4 130.3,22.3 130.2,22.2 C129.7,22.3 129.2,22.6 128.8,22.5 C128.3,22.4 127.7,22.1 127.5,21.7 C127.2,21.2 127.5,20.6 128.1,20.3 C129.1,19.8 129.5,19.1 129.7,18 C130.3,15.4 132.3,13.8 134.6,12.5 C135.1,12.2 135.6,12 136.1,11.8 C137,11.5 137.8,11.8 138,12.4 C138.3,13.1 138,13.7 137.1,14.1 C135.4,14.7 134,15.6 132.9,17.1 C132.6,17.2 132.5,17.4 132.3,17.8 Z" id="Shape" fill="#000000"></path>
                    <path d="M14.2,124 C13.8,124.4 13.5,124.8 13.1,125.1 C12.5,125.6 11.7,125.6 11.3,125.2 C10.8,124.6 10.8,124 11.2,123.5 C11.5,123.1 11.9,122.7 12.3,122.2 C11.4,119.9 11.9,117.6 12.8,115.5 C13,115 13.3,114.5 13.6,114 C14,113.5 14.5,113.2 15.1,113.5 C15.8,113.8 15.9,114.5 15.7,115.1 C15.6,115.4 15.4,115.7 15.2,116.1 C14.7,117.3 14.2,118.5 14.3,120 C15.2,119.1 15.6,117.4 17.2,118.6 C17.9,119.2 17.7,120.2 16.7,121.6 C17.7,121.8 18.9,121.3 19.4,120.3 C19.7,119.6 20,118.9 20.2,118.2 C20.4,117.5 20.8,117 21.6,117.1 C22.4,117.2 22.8,117.8 22.7,118.5 C22.5,120.1 22.1,121.7 20.8,122.9 C19.1,124.3 17.5,124.5 14.2,124 Z" id="Shape" fill="#000000"></path>
                    <path d="M201.7,126.8 C202.1,126.9 202.3,127.1 202.5,127 C203.6,126.5 204.9,126.2 205.2,124.8 C205.5,123.7 206.1,122.6 205.3,121.4 C204.9,120.8 205.3,120 206,119.7 C206.8,119.4 207.7,119.7 208,120.5 C208.2,121.1 208.3,121.7 208.3,122.4 C208.2,124.3 207.6,126 206.7,127.6 C206.6,127.8 206.5,128 206.3,128.1 C204.6,128.8 203.1,130.3 201,129.4 C200.9,129.4 200.8,129.3 200.6,129.3 C200.1,129.9 199.6,130.7 198.5,130.2 C197.8,129.8 197.8,129.3 198.3,127.9 C198.4,127.6 198.4,127.1 198.2,126.8 C197.4,124.6 197.2,122.4 198,120.2 C198.1,120 198.1,119.8 198.2,119.6 C198.6,118.8 199.2,118.4 199.9,118.7 C200.6,118.9 200.9,119.8 200.7,120.6 C200.5,121.2 200.2,121.7 200.1,122.3 C200,122.7 200.1,123.2 200.3,123.7 C200.5,123.5 200.6,123.2 200.8,123 C201.2,122.4 201.8,122.1 202.5,122.5 C203.2,122.9 203.2,123.5 203,124.2 C202.8,124.7 202.5,125.2 202.2,125.7 C202.1,125.9 201.9,126.3 201.7,126.8 Z" id="Shape" fill="#000000"></path>
                </g>
            </g>
        </g>
    </g>
</svg>