<svg xmlns="http://www.w3.org/2000/svg" viewBox="0 0 27.17 27.81"><title>icon redirect</title><g id="Calque_1" data-name="Calque 1"><path d="M27.17,26.54c-.1-5-.32-10-.42-15a1.25,1.25,0,0,0-2.5,0c.09,4.56.28,9.13.38,13.69A92.27,92.27,0,0,0,13,24.87c-3.36.23-6.71.45-10.07.42Q2.79,16.63,2.49,8c2.88-.07,5.75-.85,8.63-.67,1.6.1,1.6-2.4,0-2.5-3.31-.21-6.61.85-9.92.64a1.05,1.05,0,0,0-1,.46A1.11,1.11,0,0,0,0,6.7q.35,9.92.5,19.84a1.15,1.15,0,0,0,.46.94,1.16,1.16,0,0,0,.79.31c3.77.11,7.53-.17,11.29-.42,4.36-.3,8.58.23,12.93.42a1.09,1.09,0,0,0,1-.46A1.16,1.16,0,0,0,27.17,26.54Z" style="fill:#1d1d1b"/><path d="M24.54,1.09A25.39,25.39,0,0,0,17.68,0a1.25,1.25,0,0,0,0,2.5,23.32,23.32,0,0,1,2.53.21,16.79,16.79,0,0,0-4.69,3c-1.91,1.85-2.79,4.42-3.53,6.9a1.25,1.25,0,0,0,2.41.67c.65-2.19,1.38-4.48,3.14-6a18.5,18.5,0,0,1,4.7-2.7c-.41,1.3-.85,2.59-1.37,3.85-.61,1.49,1.81,2.14,2.41.67a46.83,46.83,0,0,0,2-5.89,1.35,1.35,0,0,0,0-.33A1.24,1.24,0,0,0,24.54,1.09Z" style="fill:#1d1d1b"/></g></svg>