<?xml version="1.0" encoding="utf-8"?>
<!-- Generator: Adobe Illustrator 24.0.1, SVG Export Plug-In . SVG Version: 6.00 Build 0)  -->
<svg version="1.1" xmlns="http://www.w3.org/2000/svg" xmlns:xlink="http://www.w3.org/1999/xlink" x="0px" y="0px"
	 viewBox="0 0 156.8 136.3" style="enable-background:new 0 0 156.8 136.3;" xml:space="preserve">
<style type="text/css">
	.st0{fill:#B7D6E2;}
	.st1{fill:#DDDDDD;}
	.st2{fill:#FFFFFF;}
</style>
<g id="Calque_2">
	<g>
		<path class="st0" d="M58.5,98.4c-7.6-3.5-15.1-7-22.7-10.5c-2.6-1.2-5.4-2.5-7.3-4.7c-5.1-5.9-2-15.2,2.9-21.2
			c3-3.8,6.7-7.1,10.8-9.7c7.4-4.8,16.1-7.3,24.6-9.7c5.9-1.7,11.9-3.4,17.8-5.1c2.3-0.7,4.8-1.3,7.2-1.1c5.7,0.5,9.9,5.9,12,11.2
			c3.9,9.9,3,21.6-2.1,30.9"/>
	</g>
	<g>
		<path class="st0" d="M101.1,42.7c6.1-1.4,13-0.5,18,3.4s7.5,11,5.3,16.9c-2.1,5.5-7.5,8.9-12.6,11.9c-3,1.8-6.1,3.6-9.1,5.4"/>
	</g>
</g>
<g id="Calque_1">
	<g>
		<path d="M116.1,58.6c0.2-0.3,0.3-0.6,0.5-1c1.5-2.7,3-5.5,4.5-8.2c0.2-0.4,0.4-0.9,0.6-1.3c1.5-3.4,2.9-6.9,4.4-10.3
			c1-2.2,2.1-4.3,2.9-6.6c0.8-2.5,1.4-5.1,1.9-7.7c0.3-1.6-0.6-2.5-2.2-2.1c-1,0.3-2,0.3-3,0c-0.7-0.2-1.4-0.2-2.1-0.2
			c-0.6-0.1-1.3,0-1.9-0.2c-2.3-0.6-4.6-1.1-6.8-2c-4.1-1.6-8.3-2.2-12.7-2.4c-1.6-0.1-3.1-0.1-4.6-0.5c-1.4-0.3-2.7-0.7-4,0
			c-0.1,0-0.3,0.1-0.4,0.1c-2.2,0.4-4.5,0.9-6.7,1.3c-3.3,0.6-6.7,1-10,1.7c-2.8,0.6-5.6,1.4-8.3,2.1c-0.7,0.2-1.1,0.9-0.9,1.5
			c0.3,1.3,0.5,2.6,0.7,3.9c0.3,1.6,0.3,3.3,0.8,4.8c1.1,3.8,1.6,7.8,2.2,11.7c0.6,3.8,1.2,7.7,2.4,11.4c0.3,1,0.6,2,0.9,3.1
			c-0.8,0-1.4,0-2.1-0.1c-2.5-0.3-4.9-0.7-7.4-1c-1.9-0.2-3.8-0.4-5.7-0.1c-1.5,0.2-2.9,0.3-4.4,0.4c-0.9,0.1-1.8,0-2.6,0.2
			c-1.9,0.4-3.9,0.5-5.9,0.6c-1.1,0-1.5,0.4-1.7,1.6c-0.2,1.3-0.5,2.6-0.8,3.9c-0.3,1.5-0.6,3.1-0.8,4.6c-0.2,1.3-0.4,2.7-0.7,4
			c-0.4,2.3-0.7,4.6-1.1,6.9c-0.1,0.7-0.2,1.5,0.3,2.1c0.9,1,0.7,2.3,1,3.6c-0.4,0.2-0.6,0.3-0.9,0.4c-1.7,0.3-3.1,1.1-4.6,2
			c-1.3,0.8-2.6,1.4-3.9,2.1c-1.1,0.6-2.3,1.1-3.3,1.9c-1.4,1-1.3,2.8,0.2,3.7c1,0.6,2.1,1.1,3.2,1.4c3.1,0.8,6,2.2,9,3.2
			c3.9,1.4,7.8,2.8,11.6,4.1c1.6,0.5,3.2,1,4.8,1.5c4.2,1.4,8.4,3.1,12.9,3.7c0.8-0.2,1.3-0.9,1.5-1.8c0.7,0.2,1.3,0.4,2,0.7
			c0.4,1.3,0.7,2.5,1.1,3.9c-0.7,0-1.2,0.1-1.7,0.1c-0.9,0-1.4,0.3-1.4,1.2c0,0.7,0.1,1.4,0.2,2c0.6,2.3,1.3,4.5,1.8,6.8
			c0.1,0.3,0.2,0.7,0.2,1c0.1,0.6,0.7,1,1.2,0.9c0.1,0,0.1,0,0.2,0c0.5,0,0.8-0.5,0.7-0.9c-0.5-1.8-0.9-3.7-1.4-5.5
			c2.7-0.2,5.2-0.4,7.7-0.7c2.7-0.3,5.4-0.5,8-1.4c1.5-0.5,2.9-1,4.5-1.6c0.2,0.4,0.5,0.8,0.6,1.2c0.1,0.2,0.1,0.4,0.2,0.6
			c0.2,0.7,1.2,0.8,1.5,0.2c0,0,0,0,0,0c0.2-0.4,0.3-0.8,0.1-1.2c-0.2-0.5-0.4-1-0.6-1.5c-0.1-0.3-0.3-0.6-0.4-0.9
			c-0.2-0.9-0.4-1.8-0.7-2.6c-0.5-1.4-1.2-1.7-2.6-1.4c-0.5,0.1-1,0.2-1.6,0.4c-0.3-1.3-0.6-2.4-0.8-3.5c0.4-0.8,0.8-1.4,1.2-2.1
			c0.5-1.1,1-2.2,1.5-3.3c0.2-0.6,0.7-1.1,1.2-1.4c3.3-1.9,6.7-3.7,10-5.7c5.5-3.3,10.9-6.7,16.4-10c1.8-1.1,3.4-2.5,5.4-3.3
			c1-0.4,1.9-1.3,2.7-2.2c1-1.1,0.6-2.3-0.7-2.8c-0.6-0.2-1.3-0.4-1.9-0.6c-3.2-1.1-6.6-1.8-10-2.2c-2.3-0.3-4.6-0.8-7-1.3
			c0.4-0.9,0.8-1.7,1.2-2.4C113.3,64.2,114.7,61.4,116.1,58.6z M76.1,21.6c3.7-0.9,7.4-1.3,11.1-1.9c2.3-0.3,4.5-0.9,6.8-1.4
			c0.5-0.1,1-0.3,1.6-0.5c2.4,0.9,5.1,0.9,7.7,1c3.6,0.2,7.2,0.7,10.6,2.1c2.8,1.2,5.8,1.7,9,2.5c-1.1,0.5-2.1,0.9-3,1.3
			c-3.1,1.3-6.2,2.6-9.3,3.8c-0.6,0.2-1.1,0.6-1.8,0.3c-0.3-0.1-0.6,0.1-0.7,0.2c-5.6-1.7-11-3.1-16.5-4.6c-5.5-1.4-11-2.2-16.7-2.6
			C75.4,21.8,75.7,21.7,76.1,21.6z M72.8,42.7c-0.5-3.8-0.9-7.7-2.1-11.4c-0.2-0.5-0.3-1.1-0.4-1.6c-0.3-2.1-0.5-4.3-0.8-6.6
			c0.8,0.1,1.5,0.1,2.2,0.3c2.5,0.7,5.1,0.8,7.7,1.1c4.3,0.4,8.6,1.2,12.7,2.3c4.4,1.2,8.7,2.3,13.1,3.5c0.7,0.2,1.3,0.5,2,0.8
			c-0.3,1.5-0.6,2.8-0.9,4.2c-1.4,5.2-2.9,10.5-4.4,15.7c-1.3,4.7-2.4,9.4-3.2,14.3c-0.4,2.7-1,5.4-1.6,8.1C97,74,96.9,74.7,97,75.4
			c0.1,0.7-0.2,1.4-0.3,2.2c-3.4-1.4-6.5-2.8-9.5-4.1c-0.1-0.4-0.2-0.7-0.3-1c-0.8-2.8-1.5-5.6-2.3-8.4c-0.4-1.4-1-2.7-1.5-4.1
			c-0.4-0.9-1-1.5-2.1-1.6c-1.5-0.2-3-0.4-4.6-0.6c-0.1-0.2-0.2-0.4-0.3-0.6C74.6,52.6,73.5,47.7,72.8,42.7z M46.5,59.9
			c0.4,0,0.9,0,1.3-0.1c1.2-0.1,2.5-0.3,3.7-0.4c0.7-0.1,1.4-0.2,2.1-0.3c2.1-0.2,4.3-0.4,6.4-0.5c1.3-0.1,2.6,0,3.8,0.1
			c2.5,0.3,5,0.8,7.5,1c1.7,0.2,3.5,0.2,5.3,0.3c1.4,0.1,2.9,0.3,4.4,0.4c0.5,1.4,1.1,2.7,1.5,4c1,3.4,1.8,6.8,2.7,10.2
			c0.4,1.5,0.4,2.9-0.1,4.4c-0.4,0.3-0.8,0.7-1.3,1.2c-1.3-1.1-2.9-1.7-4.8-0.7c-0.4-0.9-0.8-1.8-1.2-2.7c0.4-0.6,0.9-1.1,1.1-1.8
			c0.2-0.6,0.3-1.3,0.3-1.9c-0.1-1.7-0.3-3.5-1-5.1c-0.4-0.9-1.1-1.5-2-2c-1.6-1-3.4-1.4-5.2-1.6c-1.8-0.2-3.4,0.5-4.6,2.1
			c-1.3,1.8-1.6,3.9-1.9,6.1c-0.2,2,0.8,3.3,2.2,4.4c0.8,0.6,1.7,0.9,2.7,0.8c0.3-0.1,0.6,0,1,0c0.3,1.1,0.6,2.1,0.8,3.1
			c-0.6,0.5-1.2,0.4-1.9,0.4c-2.4-0.1-4.8-0.2-7.2-0.3c-0.9,0-1.7-0.2-2.6-0.3c-1.2-0.1-2.4-0.3-3.6-0.3c-2.4-0.1-4.8,0-7.2,0
			c-1.7,0-3.4-0.2-5.2-0.3c-0.2-0.2-0.4-0.6-0.7-0.9C43.5,76.4,45.6,62.5,46.5,59.9z M66.5,91.5c-6.5,0.9-13.1,0.8-19.6,1.2
			c-1.6-3.1-1.7-6.4-2.6-9.5c-0.1-0.2,0-0.5-0.1-0.8c1-0.4,2-0.4,3.1-0.3c1,0.1,2,0.1,3,0.2c3.4,0.1,6.9-0.1,10.3,0.6
			c1.4,0.3,2.9,0.3,4.4,0.4c2.3,0.1,4.6,0,7.1,0c0.1,0.5,0.2,1,0.4,1.5c-0.7,0.7-1.7,0.8-2.5,1.2c-0.7,0.3-1.3,0.5-2,0.8
			c-1.1,0.6-1.6,1.5-1.6,2.7C66.3,90.2,66.4,90.9,66.5,91.5z M70.5,74.1c-2.5-0.8-3.6-2.9-2.8-5.3c0.5-1.7,2-2.4,3.7-2.1
			c1.3,0.2,2.5,0.5,3.7,1.2c1.7,0.9,2.3,3.2,1.2,4.7c-0.2,0.4-0.5,0.7-0.8,1.1C73.4,72.2,71.7,72.1,70.5,74.1z M71.3,106.2
			c-0.1,0-0.3,0.1-0.4,0c-2.5-0.5-4.9-1.1-7.3-1.9c-3.2-1.2-6.5-2.1-9.7-3.2c-3.7-1.3-7.4-2.6-11.1-3.9c-3-1.1-5.9-2.5-9.1-3.3
			c-1-0.2-2.1-0.5-3.1-1.5c0.9-0.5,1.6-0.9,2.3-1.3c1.9-1,3.9-2.1,5.8-3.1c1.3-0.7,2.6-1.3,4.2-1.4c0.1,0.4,0.2,0.9,0.3,1.3
			c0.2,2,1.1,3.8,1.6,5.7c0.2,0.7,0.7,1,1.4,1.1c0.2,0,0.5,0,0.7,0c4.2-0.1,8.4-0.3,12.6-0.5c0.4,0,0.7-0.1,1.1-0.1
			c1.5-0.2,3-0.4,4.5-0.5c0.6,0,1.2,0.2,1.8,0.3c0.1,0.2,0.2,0.4,0.3,0.6c0.7,2.4,1.4,4.7,2.1,7.1c0.4,1.3,0.9,2.4,1.7,3.4
			C71.3,105.4,71.6,105.7,71.3,106.2z M92.7,110c0.8-0.2,1.6-0.4,2.6-0.7c0,0.7-0.1,1.2-0.1,1.8c-0.9,0.4-1.8,0.9-2.7,1.2
			c-1.7,0.6-3.5,1.1-5.3,1.3c-2.3,0.3-4.5,0.6-6.8,0.9c-1.2,0.1-2.5,0.1-3.7,0.1c-0.7,0-1.3-0.3-1.5-1.4c0.9,0,1.8-0.1,2.6-0.1
			c2,0.1,3.9-0.2,5.8-0.7c1.3-0.3,2.6-0.7,4-0.9C89.3,111.3,90.9,110.5,92.7,110z M94,92.6c-0.1,0.9-0.2,1.8-0.4,2.6
			c-0.1,0.7-0.4,1.4-0.6,2c-0.4,1-0.7,2-1.1,3c-0.2,0.5-0.4,1-0.7,1.5c-0.2,0.3-0.5,0.6-0.9,0.8c-1.4,0.8-2.8,1.6-4.1,2.4
			c-0.6,0.4-0.8,0.9-0.5,1.4c0.3,0.5,0.8,0.7,1.5,0.3c1-0.5,1.9-1.1,2.9-1.7c0.5,1,0.6,2.2,0.8,3.3c-1,0.7-2.1,0.9-3.2,1.2
			c-2,0.4-4,0.9-6,1.3c-1.1,0.2-2.2,0.3-3.5,0.5c-0.4-1.4-0.8-2.6-1.2-3.8c-0.2-0.5-0.3-1-0.5-1.5c-0.2-0.5-0.6-0.8-1.1-0.9
			c-1.9-0.3-3.3-1.3-3.9-3.2c-1.2-3.7-2.4-7.4-3.1-11.2c0-0.2-0.1-0.5-0.1-0.7c-0.1-1,0.1-1.3,1-1.7c1.1-0.5,2.2-0.8,3.5-1.3
			c0.2,1.2,0.4,2.3,0.5,3.4c0,0.2,0,0.5,0.1,0.7c0.2,0.5,0.5,0.8,1.1,0.8c0.5,0,0.8-0.4,0.9-0.8c0.1-0.4,0.1-0.8,0-1.2
			c-0.8-3.8-1.3-7.6-2.5-11.4c-0.4-1.3-0.3-2.6-0.2-4c0.4,0.1,0.7,0.1,0.9,0.2c0.9,0.7,1.8,1.5,2.4,2.6c1.1,2.3,1.5,4.9,2.1,7.3
			c0.4,1.5,0.9,3.1,1.4,4.6c0.1,0.2,0.2,0.4,0.3,0.5c0.3,0.4,0.7,0.5,1.2,0.3c0.4-0.2,0.6-0.5,0.6-0.9c0-0.3-0.1-0.6-0.2-0.9
			c-0.5-1.8-1.1-3.7-1.6-5.5c-0.1-0.3-0.1-0.6-0.1-0.9c1.1-1.1,2.1-1.1,3.1,0c0.4,0.5,0.8,1.2,1,1.9c0.5,1.4,0.9,2.8,1.3,4.2
			c0.1,0.4,0.3,0.8,0.5,1.2c0.2,0.4,0.6,0.5,1,0.4c0.5-0.1,0.7-0.4,0.7-0.9c0-0.4-0.1-0.8-0.2-1.2c-0.5-1.8-1.1-3.7-1.6-5.6
			c0.2-0.3,0.5-0.6,0.9-1c0.6-0.6,1.2-0.5,1.5,0.2c0.4,1.1,0.7,2.3,1,3.4c0.2,1.1,0.3,2.3,0.5,3.4c0,0.2,0.1,0.5,0.2,0.7
			c0.2,0.5,0.6,0.7,1.2,0.6c0.5-0.1,0.7-0.5,0.7-1c0-0.2-0.1-0.5-0.1-0.7c-0.3-1.7-0.5-3.5-0.8-5.2c0.6-0.5,1.1-0.4,1.5,0.1
			c0.2,0.3,0.4,0.6,0.6,0.9C93.8,86.5,94.4,89.4,94,92.6z M117.4,72.7c2.3,0.3,4.7,0.6,7,1.2c1.4,0.4,2.7,0.9,4.2,1.3
			c-0.6,0.8-1.2,1.3-2,1.6c-1.3,0.5-2.4,1.3-3.6,2.1c-1.6,1.2-3.4,2.2-5.1,3.3c-4,2.4-8,4.9-12,7.3c-1,0.6-2.1,1.2-3.1,1.8
			c-1.8,1.1-3.6,2.2-5.5,3.2c-0.4,0.2-0.8,0.5-1.4,0.8c0.1-1.6,0.2-3,0.3-4.3c0.2-3-0.7-5.8-2-8.4c-0.5-1.1-1.3-2.1-2.6-2.3
			c-0.6-0.1-1.3,0-2,0c-0.6-0.5-1.3-1.1-2.1-1.8c0.1-0.6,0.2-1.5,0.3-2.3c2,0.7,4,1.4,5.9,2.4c0.4,0.2,0.7,0.4,1.1,0.6
			c1,0.5,1.8,0.6,3,0.2c1.4-0.5,2.6-1.3,3.9-2.1c2.2-1.5,4.5-2.8,6.8-4.3c0.6-0.4,1-0.9,1.6-1.5C112.4,71.8,114.8,72.4,117.4,72.7z
			 M108.3,69.7c-0.4,0.7-0.8,1.2-1.5,1.6c-2.4,1.5-4.7,3.1-7.1,4.7c-0.1,0.1-0.3,0.1-0.5,0.3c0.2-1,0.5-1.8,0-2.7
			c-0.1-0.1,0-0.3,0-0.5c0.6-3.2,1.2-6.4,1.8-9.7c0.9-5.4,2.4-10.7,4-15.9c1.5-4.9,2.9-9.9,4-14.9c0.1-0.4,0.2-0.8,0.4-1.3
			c6.6-2.4,12.7-5.8,19.6-7.7c-0.5,2.4-0.8,4.6-1.7,6.6c-0.9,2.3-2,4.5-3,6.8c-1.4,3.2-2.7,6.3-4.1,9.5c-0.4,0.9-0.8,1.8-1.3,2.7
			c-0.9,1.7-1.8,3.3-2.7,5C113.6,59.3,111,64.5,108.3,69.7z"/>
		<path class="st2" d="M96.7,77.7c-3.4-1.4-6.5-2.8-9.5-4.1c-0.1-0.4-0.2-0.7-0.3-1c-0.8-2.8-1.5-5.6-2.3-8.4
			c-0.4-1.4-1-2.7-1.5-4.1c-0.4-0.9-1-1.5-2.1-1.6c-1.5-0.2-3-0.4-4.6-0.6c-0.1-0.2-0.2-0.4-0.3-0.6c-1.6-4.8-2.7-9.6-3.3-14.6
			c-0.5-3.8-0.9-7.7-2.1-11.4c-0.2-0.5-0.3-1.1-0.4-1.6c-0.3-2.1-0.5-4.3-0.8-6.6c0.8,0.1,1.5,0.1,2.2,0.3c2.5,0.7,5.1,0.8,7.7,1.1
			c4.3,0.4,8.6,1.2,12.7,2.3c4.4,1.2,8.7,2.3,13.1,3.5c0.7,0.2,1.3,0.5,2,0.8c-0.3,1.5-0.6,2.8-0.9,4.2c-1.4,5.2-2.9,10.5-4.4,15.7
			c-1.3,4.7-2.4,9.4-3.2,14.3c-0.4,2.7-1,5.4-1.6,8.1C97,74,96.9,74.7,97,75.4C97.1,76.1,96.8,76.8,96.7,77.7z"/>
		<path class="st2" d="M109.4,31.3c6.6-2.4,12.7-5.8,19.6-7.7c-0.5,2.4-0.8,4.6-1.7,6.6c-0.9,2.3-2,4.5-3,6.8
			c-1.4,3.2-2.7,6.3-4.1,9.5c-0.4,0.9-0.8,1.8-1.3,2.7c-0.9,1.7-1.8,3.3-2.7,5c-2.7,5.2-5.3,10.4-8,15.6c-0.4,0.7-0.8,1.2-1.5,1.6
			c-2.4,1.5-4.7,3.1-7.1,4.7c-0.1,0.1-0.3,0.1-0.5,0.3c0.2-1,0.5-1.8,0-2.7c-0.1-0.1,0-0.3,0-0.5c0.6-3.2,1.2-6.4,1.8-9.7
			c0.9-5.4,2.4-10.7,4-15.9c1.5-4.9,2.9-9.9,4-14.9C109.1,32.2,109.2,31.8,109.4,31.3z"/>
		<path class="st2" d="M70.6,77.9c0.3,1.1,0.6,2.1,0.8,3.1c-0.6,0.5-1.2,0.4-1.9,0.4c-2.4-0.1-4.8-0.2-7.2-0.3
			c-0.9,0-1.7-0.2-2.6-0.3c-1.2-0.1-2.4-0.3-3.6-0.3c-2.4-0.1-4.8,0-7.2,0c-1.7,0-3.4-0.2-5.2-0.3c-0.2-0.2-0.4-0.6-0.7-0.9
			c0.3-2.7,2.5-16.7,3.4-19.3c0.4,0,0.9,0,1.3-0.1c1.2-0.1,2.5-0.3,3.7-0.4c0.7-0.1,1.4-0.2,2.1-0.3c2.1-0.2,4.3-0.4,6.4-0.5
			c1.3-0.1,2.6,0,3.8,0.1c2.5,0.3,5,0.8,7.5,1c1.7,0.2,3.5,0.2,5.3,0.3c1.4,0.1,2.9,0.3,4.4,0.4c0.5,1.4,1.1,2.7,1.5,4
			c1,3.4,1.8,6.8,2.7,10.2c0.4,1.5,0.4,2.9-0.1,4.4c-0.4,0.3-0.8,0.7-1.3,1.2c-1.3-1.1-2.9-1.7-4.8-0.7c-0.4-0.9-0.8-1.8-1.2-2.7
			c0.4-0.6,0.9-1.1,1.1-1.8c0.2-0.6,0.3-1.3,0.3-1.9c-0.1-1.7-0.3-3.5-1-5.1c-0.4-0.9-1.1-1.5-2-2c-1.6-1-3.4-1.4-5.2-1.6
			c-1.8-0.2-3.4,0.5-4.6,2.1c-1.3,1.8-1.6,3.9-1.9,6.1c-0.2,2,0.8,3.3,2.2,4.4c0.8,0.6,1.7,0.9,2.7,0.8
			C69.9,77.9,70.2,77.9,70.6,77.9z M54.2,64.8c0,0,0,0.1,0,0.1c-0.4,0-0.7,0-1.1,0c-1.9,0.1-3.5,0.6-4,2.7c0,0.2-0.1,0.3-0.2,0.4
			c-0.7,1.1-0.8,2.3-0.9,3.6c0,0.5,0,1,0.3,1.4c0.9,1.4,1.9,2.6,3.4,3.3c0.4,0.2,0.9,0.3,1.3,0.3c1.8-0.3,3.7-0.4,5.3-1.4
			c1-0.6,1.5-1.3,1.7-2.4c0.2-1.4,0.1-2.7-0.2-4c-0.3-1.8-1.5-3.2-3.3-3.7C55.8,64.9,55,64.9,54.2,64.8z"/>
		<path class="st2" d="M78.3,111.3c-0.4-1.4-0.8-2.6-1.2-3.8c-0.2-0.5-0.3-1-0.5-1.5c-0.2-0.5-0.6-0.8-1.1-0.9
			c-1.9-0.3-3.3-1.3-3.9-3.2c-1.2-3.7-2.4-7.4-3.1-11.2c0-0.2-0.1-0.5-0.1-0.7c-0.1-1,0.1-1.3,1-1.7c1.1-0.5,2.2-0.8,3.5-1.3
			c0.2,1.2,0.4,2.3,0.5,3.4c0,0.2,0,0.5,0.1,0.7c0.2,0.5,0.5,0.8,1.1,0.8c0.5,0,0.8-0.4,0.9-0.8c0.1-0.4,0.1-0.8,0-1.2
			c-0.7-3.8-1.3-7.6-2.5-11.4c-0.4-1.3-0.3-2.6-0.2-4c0.4,0.1,0.7,0.1,0.9,0.2c0.9,0.7,1.8,1.5,2.4,2.6c1.1,2.3,1.5,4.9,2.1,7.3
			c0.4,1.5,0.9,3.1,1.4,4.6c0.1,0.2,0.2,0.4,0.3,0.5c0.3,0.4,0.7,0.5,1.2,0.3c0.4-0.2,0.6-0.5,0.6-0.9c0-0.3-0.1-0.6-0.2-0.9
			c-0.5-1.8-1.1-3.7-1.6-5.5c-0.1-0.3-0.1-0.6-0.1-0.9c1.1-1.1,2.1-1.1,3.1,0c0.4,0.5,0.8,1.2,1,1.9c0.5,1.4,0.9,2.8,1.3,4.2
			c0.1,0.4,0.3,0.8,0.5,1.2c0.2,0.4,0.6,0.5,1,0.4c0.5-0.1,0.7-0.4,0.7-0.9c0-0.4-0.1-0.8-0.2-1.2c-0.5-1.8-1.1-3.7-1.6-5.6
			c0.2-0.3,0.5-0.6,0.9-1c0.6-0.6,1.2-0.5,1.5,0.2c0.4,1.1,0.7,2.3,1,3.4c0.2,1.1,0.3,2.3,0.5,3.4c0,0.2,0.1,0.5,0.2,0.7
			c0.2,0.5,0.6,0.7,1.2,0.6c0.5-0.1,0.7-0.5,0.7-1c0-0.2-0.1-0.5-0.1-0.7c-0.3-1.7-0.5-3.5-0.8-5.2c0.6-0.5,1.1-0.4,1.5,0.1
			c0.2,0.3,0.4,0.6,0.6,0.9c1.4,2.8,2,5.8,1.6,9c-0.1,0.9-0.2,1.8-0.4,2.6c-0.1,0.7-0.4,1.4-0.6,2c-0.4,1-0.7,2-1.1,3
			c-0.2,0.5-0.4,1-0.7,1.5c-0.2,0.3-0.5,0.6-0.9,0.8c-1.4,0.8-2.8,1.6-4.1,2.4c-0.6,0.4-0.8,0.9-0.5,1.4c0.3,0.5,0.8,0.7,1.5,0.3
			c1-0.5,1.9-1.1,2.9-1.7c0.5,1,0.6,2.2,0.8,3.3c-1,0.7-2.1,0.9-3.2,1.2c-2,0.4-4,0.9-6,1.3C80.6,111,79.5,111.1,78.3,111.3z"/>
		<path class="st2" d="M95.8,95.4c0.1-1.6,0.2-3,0.3-4.3c0.2-3-0.7-5.8-2-8.4c-0.5-1.1-1.3-2.1-2.6-2.3c-0.6-0.1-1.3,0-2,0
			c-0.6-0.5-1.3-1.1-2.1-1.8c0.1-0.6,0.2-1.5,0.3-2.3c2,0.7,4,1.4,5.9,2.4c0.4,0.2,0.7,0.4,1.1,0.6c1,0.5,1.8,0.6,3,0.2
			c1.4-0.5,2.6-1.3,3.9-2.1c2.2-1.5,4.5-2.8,6.8-4.3c0.6-0.4,1-0.9,1.6-1.5c2.4,0.4,4.9,1,7.4,1.3c2.3,0.3,4.7,0.6,7,1.2
			c1.4,0.4,2.7,0.9,4.2,1.3c-0.6,0.8-1.2,1.3-2,1.6c-1.3,0.5-2.4,1.3-3.6,2.1c-1.6,1.2-3.4,2.2-5.1,3.3c-4,2.4-8,4.9-12,7.3
			c-1,0.6-2.1,1.2-3.1,1.8c-1.8,1.1-3.6,2.2-5.5,3.2C96.8,94.8,96.4,95,95.8,95.4z"/>
		<path class="st2" d="M30.6,92.4c0.9-0.5,1.6-0.9,2.3-1.3c1.9-1,3.9-2.1,5.8-3.1c1.3-0.7,2.6-1.3,4.2-1.4c0.1,0.4,0.2,0.9,0.3,1.3
			c0.2,2,1.1,3.8,1.6,5.7c0.2,0.7,0.7,1,1.4,1.1c0.2,0,0.5,0,0.7,0c4.2-0.1,8.4-0.3,12.6-0.5c0.4,0,0.7-0.1,1.1-0.1
			c1.5-0.2,3-0.4,4.5-0.5c0.6,0,1.2,0.2,1.8,0.3c0.1,0.2,0.2,0.4,0.3,0.6c0.7,2.4,1.4,4.7,2.1,7.1c0.4,1.3,0.9,2.4,1.7,3.4
			c0.2,0.3,0.6,0.6,0.2,1.1c-0.1,0-0.3,0.1-0.4,0c-2.5-0.5-4.9-1.1-7.3-1.9c-3.2-1.2-6.5-2.1-9.7-3.2c-3.7-1.3-7.4-2.6-11.1-3.9
			c-3-1.1-5.9-2.5-9.1-3.3C32.7,93.7,31.6,93.4,30.6,92.4z"/>
		<path class="st2" d="M123,23.4c-1.1,0.5-2.1,0.9-3,1.3c-3.1,1.3-6.2,2.6-9.3,3.8c-0.6,0.2-1.1,0.6-1.8,0.3
			c-0.3-0.1-0.6,0.1-0.7,0.2c-5.6-1.7-11-3.1-16.5-4.6c-5.5-1.4-11-2.2-16.7-2.6c0.4-0.1,0.7-0.2,1.1-0.3c3.7-0.9,7.4-1.3,11.1-1.9
			c2.3-0.3,4.5-0.9,6.8-1.4c0.5-0.1,1-0.3,1.6-0.5c2.4,0.9,5.1,0.9,7.7,1c3.6,0.2,7.2,0.7,10.6,2.1C116.8,22.1,119.8,22.7,123,23.4z
			"/>
		<path class="st2" d="M46.9,92.7c-1.6-3.1-1.7-6.4-2.6-9.5c-0.1-0.2,0-0.5-0.1-0.8c1-0.4,2-0.4,3.1-0.3c1,0.1,2,0.1,3,0.2
			c3.4,0.1,6.9-0.1,10.3,0.6c1.4,0.3,2.9,0.3,4.4,0.4c2.3,0.1,4.6,0,7.1,0c0.1,0.5,0.2,1,0.4,1.5c-0.7,0.7-1.7,0.8-2.5,1.2
			c-0.7,0.3-1.3,0.5-2,0.8c-1.1,0.6-1.6,1.5-1.6,2.7c0,0.7,0.1,1.3,0.2,2C60,92.4,53.4,92.4,46.9,92.7z"/>
		<path class="st2" d="M75.7,73.7c-2.3-1.5-4-1.7-5.1,0.4c-2.5-0.8-3.6-2.9-2.8-5.3c0.5-1.7,2-2.4,3.7-2.1c1.3,0.2,2.5,0.5,3.7,1.2
			c1.7,0.9,2.3,3.2,1.2,4.7C76.2,73,75.9,73.3,75.7,73.7z"/>
		<path class="st2" d="M75.1,113.2c0.9,0,1.8-0.1,2.6-0.1c2,0.1,3.9-0.2,5.8-0.7c1.3-0.3,2.6-0.7,4-0.9c1.8-0.3,3.4-1.1,5.1-1.6
			c0.8-0.2,1.6-0.4,2.6-0.7c0,0.7-0.1,1.2-0.1,1.8c-0.9,0.4-1.8,0.9-2.7,1.2c-1.7,0.6-3.5,1.1-5.3,1.3c-2.3,0.3-4.5,0.6-6.8,0.9
			c-1.2,0.1-2.5,0.1-3.7,0.1C75.9,114.6,75.3,114.3,75.1,113.2z"/>
		<path d="M54.2,64.8c0.7,0.1,1.5,0.1,2.2,0.3c1.8,0.4,3,1.8,3.3,3.7c0.2,1.4,0.4,2.7,0.2,4c-0.2,1.1-0.7,1.9-1.7,2.4
			c-1.6,1-3.5,1.1-5.3,1.4c-0.4,0.1-0.9-0.1-1.3-0.3c-1.5-0.7-2.5-1.9-3.4-3.3c-0.2-0.4-0.3-0.9-0.3-1.4c0.1-1.2,0.2-2.5,0.9-3.6
			c0.1-0.1,0.2-0.3,0.2-0.4c0.5-2.1,2.2-2.6,4-2.7c0.4,0,0.7,0,1.1,0C54.2,64.9,54.2,64.8,54.2,64.8z M54.3,66.8
			c-0.7,0.1-1.5,0.2-2.1,0.3c-0.3,0.1-0.6,0.3-0.8,0.5c-0.7,0.9-0.6,3.1,0.2,3.9c0.2,0.2,0.5,0.4,0.8,0.5c1.7,0.5,3.7-0.1,4.8-1.5
			c1.1-1.3,0.5-3.2-1.2-3.6C55.4,66.9,54.8,66.9,54.3,66.8z"/>
		<path class="st2" d="M54.3,66.8c0.6,0,1.2,0,1.7,0.2c1.7,0.4,2.3,2.2,1.2,3.6c-1.1,1.4-3.1,2-4.8,1.5c-0.3-0.1-0.6-0.3-0.8-0.5
			c-0.8-0.8-0.9-3-0.2-3.9c0.2-0.2,0.5-0.4,0.8-0.5C52.8,67,53.5,66.9,54.3,66.8z"/>
	</g>
</g>
</svg>
