<svg width="500" height="325" viewBox="0 0 500 325" fill="none" xmlns="http://www.w3.org/2000/svg">
<g clip-path="url(#clip0_161_2)">
<rect width="500" height="324.735" fill="#FEE77B"/>
<path d="M190.629 106.768C149.041 131.119 110.738 191.858 147.948 236.728C164.91 256.974 189.809 264.088 215.253 267.371C246.716 271.474 280.096 270.38 309.098 257.248C313.476 255.332 313.476 251.229 311.287 248.219C331.259 230.161 349.318 210.737 359.988 185.565C370.111 161.214 369.017 130.298 352.054 109.231C311.014 59.4353 238.237 79.1321 190.631 106.767L190.629 106.768ZM343.845 188.574C332.902 211.831 312.107 229.888 292.955 246.304C291.587 247.398 291.039 248.493 290.766 249.861C270.246 256.154 248.633 256.154 227.017 254.785C204.035 253.417 179.958 248.766 162.721 232.624C145.484 216.755 144.938 191.037 151.503 169.97C158.891 145.893 180.504 128.382 201.298 116.071C242.065 92.2679 303.351 76.124 339.74 115.523C358.073 135.77 354.243 166.139 343.845 188.574L343.845 188.574Z" fill="black"/>
<path d="M308.277 161.762C291.04 162.309 274.077 163.403 256.84 164.771V115.523C256.84 106.767 243.16 106.767 243.16 115.523V165.866C225.377 167.507 207.592 169.696 189.808 172.433C181.052 173.801 184.884 186.934 193.365 185.565C209.782 183.103 226.472 180.914 242.887 179.546V232.077C242.887 240.833 256.567 240.833 256.567 232.077V178.178C273.804 176.809 290.767 175.716 308.004 175.168C317.031 175.17 317.031 161.49 308.277 161.763L308.277 161.762Z" fill="black"/>
</g>
<defs>
<clipPath id="clip0_161_2">
<rect width="500" height="324.735" fill="white"/>
</clipPath>
</defs>
</svg>
