<?xml version="1.0" encoding="utf-8"?>
<!-- Generator: Adobe Illustrator 24.0.1, SVG Export Plug-In . SVG Version: 6.00 Build 0)  -->
<svg version="1.1" xmlns="http://www.w3.org/2000/svg" xmlns:xlink="http://www.w3.org/1999/xlink" x="0px" y="0px"
	 viewBox="0 0 156.8 136.3" style="enable-background:new 0 0 156.8 136.3;" xml:space="preserve">
<style type="text/css">
	.st0{fill:#B7D6E2;}
	.st1{fill:#DDDDDD;}
	.st2{fill:#FFFFFF;}
</style>
<g id="Calque_2">
	<g>
		<path class="st0" d="M40.6,42.8c2.2-11.8,9.5-22,19.1-26.9s21.4-4.4,31.1,1.3c10.2,6.1,17.4,17.2,23.2,28.4
			c4.7,9,8.7,18.3,11.7,28.1c2.6,8.5,4.3,18,1.7,26.3c-2.5,8.1-8.8,13.9-15.9,16.8s-14.9,3-22.6,2.3c-19-2-37.7-9.8-53.5-22.5
			c-1.7-1.4-3.4-2.9-4.6-4.8c-1.9-3.2-2.2-7.3-1.7-11c2.1-15.2,15.8-26,16.2-41.5"/>
	</g>
</g>
<g id="Calque_1">
	<g>
		<path d="M119,62.8c0.2,8.7,0.4,17.4,0.6,26.1c0.1,3-0.3,3.3-3.1,4.5c-2.7,1.1-5.5,1.2-8.3,1.5c-5.7,0.5-11.4,0.8-17.1,1.1
			c-5.3,0.3-10.6,0.6-15.9,0.7c-4.1,0.1-8.2-0.3-12.2-0.1c-4.5,0.2-8.9,0.9-13.4,1.3c-2.8,0.2-5.6,0-8.4,0c-3.5,0-7.1,0.1-10.6,0
			c-2.5,0-4.9-0.2-7.4-0.4c-1-0.1-1.5-0.8-1.7-1.6c-0.5-2.7-1.3-5.4-1.5-8.1c-0.4-5.9-0.6-11.7-0.8-17.6c-0.2-6.2-0.2-12.3-0.3-18.5
			c-0.1-5.8-0.2-11.7-0.3-17.5c0-1-0.1-2.1-0.2-3.1c-0.1-0.9,0.3-1.3,1.2-1.4c1.2-0.1,2.4-0.3,3.5-0.5c6.3-1.2,12.7-0.8,19-1.1
			c2.9-0.1,5.9-0.5,8.8-1c4.3-0.8,8.5-0.5,12.8-0.5c3.6,0,7.2,0,10.8,0.1c3.7,0.1,7.3,0.3,11,0.4c3.3,0.1,6.6,0.1,9.8,0.1
			c5.4,0,10.8,0,16.2,0.1c1.4,0,2.8,0.1,4.2,0.1c1,0,1.3,0.5,1.5,1.4c1.1,4.7,1.5,9.5,1.5,14.3c0,6.7,0,13.4,0,20
			C118.7,62.8,118.9,62.8,119,62.8z M32.8,95.5c2.5,0,4.8-0.2,7,0c3.8,0.5,7.7,0.5,11.5-0.1c6.4-1,12.9-1.5,19.4-1.1
			c8.3,0.5,16.5-0.3,24.8-0.7c5.2-0.2,10.4-0.7,15.5-1.2c2-0.2,3.9-0.9,5.8-1.5c0.3-0.1,0.6-0.5,0.6-0.8c0.1-2,0-4,0-5.9
			c-2.2,0-4.2,0.1-6.2,0c-2.3-0.1-3.1-1.1-3.2-3.4c-0.1-3-0.3-5.9-0.3-8.9c-0.1-5.5-0.1-10.9-0.1-16.4c0-1.6,0.5-2.5,2.1-3
			c0.9-0.3,1.9-0.3,3.1-0.4c-1.2,0-2,0-2.9,0c-0.9,0-1.5-0.4-1.7-1.3c-0.3-1.2-0.7-2.4-0.8-3.6c-0.6-6-1.2-12.1-1.8-18.1
			c0-0.1-0.1-0.1-0.2-0.3c-0.4,0-0.8,0-1.2,0c-3.5,0-7,0.2-10.6,0.1c-6-0.1-12-0.4-18-0.5c-4.2-0.1-8.4-0.1-12.6-0.1
			c-3.2,0-6.5-0.2-9.7,0.3c-6.3,0.9-12.5,1.6-18.9,1.4c-4.4-0.1-8.6,0.9-13,1c-0.6,0-0.8,0.3-0.8,1c0.2,10.1,0.4,20.1,0.6,30.2
			c0,0.4,0,0.9,0,1c3.1,0.5,6.1,1,9.1,1.3c1.4,0.2,1.9,0.9,2,2.1c0,0.6,0.1,1.1,0.1,1.7c0.1,6.3,0.1,12.6,0.2,19
			C32.5,90.2,32.7,92.8,32.8,95.5z M21.1,66.2c0,0.5,0,1,0,1.5c0.3,5.5,0.7,10.9,0.8,16.4c0.1,3.5,0.5,7,1.3,10.4
			c0.1,0.3,0.4,0.8,0.6,0.9c2.2,0.2,4.4,0.3,6.7,0.5c0-0.4,0-0.6,0-0.8c-0.1-5.9-0.3-11.8-0.4-17.6c-0.1-3.1,0-6.2,0-9.4
			c0-0.4-0.3-1-0.7-1.1C26.8,66,24.1,65.9,21.1,66.2z M117.2,82.1c-0.2-9.4-0.4-18.5-0.6-27.8c-1.9,0.1-3.7,0.3-5.6,0.3
			c-1,0-1.4,0.4-1.4,1.4c0.1,2.6,0.1,5.1,0.1,7.7c0.1,5.7,0.2,11.4,0.3,17.1c0,1,0.5,1.4,1.4,1.4C113.4,82.2,115.2,82.1,117.2,82.1z
			 M116.7,49.5c-0.4-6.7,0.3-13.5-1.6-20c-2.5-0.2-4.9-0.4-7.4-0.6c0,0.6,0,1,0,1.4c0.4,4.2,0.9,8.4,1.3,12.6
			c0.2,2.1,0.6,4.2,0.9,6.3c0.1,0.7,0.4,1,1.1,0.9C112.8,49.9,114.6,49.7,116.7,49.5z"/>
		<path class="st2" d="M32.8,95.5c-0.1-2.7-0.3-5.3-0.3-7.9c-0.1-6.3-0.1-12.6-0.2-19c0-0.6,0-1.1-0.1-1.7c-0.1-1.2-0.6-1.9-2-2.1
			c-3-0.4-6-0.8-9.1-1.3c0-0.2,0-0.6,0-1c-0.2-10.1-0.4-20.1-0.6-30.2c0-0.7,0.2-1,0.8-1c4.3-0.2,8.6-1.2,13-1
			c6.3,0.2,12.6-0.5,18.9-1.4c3.2-0.5,6.5-0.2,9.7-0.3c4.2,0,8.4,0,12.6,0.1c6,0.1,12,0.4,18,0.5c3.5,0.1,7-0.1,10.6-0.1
			c0.4,0,0.9,0,1.2,0c0.1,0.2,0.2,0.2,0.2,0.3c0.6,6,1.2,12.1,1.8,18.1c0.1,1.2,0.5,2.4,0.8,3.6c0.2,0.8,0.8,1.3,1.7,1.3
			c0.9,0,1.7,0,2.9,0c-1.2,0.2-2.2,0.1-3.1,0.4c-1.6,0.5-2.1,1.3-2.1,3c0,5.5,0.1,10.9,0.1,16.4c0,3,0.2,5.9,0.3,8.9
			c0.1,2.3,0.9,3.2,3.2,3.4c2,0.1,4,0,6.2,0c0,1.8,0,3.9,0,5.9c0,0.3-0.3,0.7-0.6,0.8c-1.9,0.6-3.8,1.3-5.8,1.5
			c-5.2,0.5-10.3,1-15.5,1.2c-8.3,0.4-16.5,1.2-24.8,0.7c-6.5-0.4-12.9,0.1-19.4,1.1c-3.8,0.6-7.6,0.5-11.5,0.1
			C37.6,95.3,35.3,95.5,32.8,95.5z M33.5,43.7c0.1,0,0.2,0,0.3,0c0,2.1-0.1,4.2,0,6.4c0.1,2.2,0.3,4.5,0.7,6.7c0.4,2,0.9,2.4,3,2.3
			c5.7-0.1,11.4-0.2,17.1-0.4c3.1-0.1,6.2-0.4,9.3-0.7c1.8-0.2,2.4-0.8,2.3-2.7c-0.1-2.2-0.2-4.4-0.4-6.6c-0.5-5.1-1-10.2-1.6-15.3
			c-0.3-2.1-1.4-3-3.5-3c-2.6,0-5.1,0.1-7.7,0.2c-1,0-2,0.1-3,0.2c-4.7,0.4-9.3,1.4-14.1,1c-1.9-0.2-2.6,0.6-2.5,2.6
			C33.5,37.5,33.5,40.6,33.5,43.7z M97.4,48.6c0.1-5-0.1-9.9-1-14.8c-0.4-1.9-1-2.6-2.9-2.7C89.7,31,85.9,31,82,30.9
			c-2.1-0.1-4.1-0.2-6.2-0.3c-1.5-0.1-2.9-0.4-4.4-0.4c-1.9,0-3.5,1.5-3.6,3.4c-0.1,1.9-0.4,3.8-0.4,5.7c0.1,5.6,0.3,11.2,0.5,16.8
			c0,1.4,0.5,1.9,1.9,2c4.4,0.3,8.8,0.6,13.1,0.8c2.2,0.1,4.4,0,6.6,0.1c1.6,0.1,3.1,0.4,4.6,0.5c2.5,0.1,3.2-0.6,3.3-3.1
			C97.5,53.7,97.4,51.2,97.4,48.6z M87.1,89.3c3.5-0.3,6.3-0.5,9.1-0.7c1.3-0.1,1.9-0.7,1.8-2c-0.2-2.5-0.4-4.9-0.7-7.4
			c-0.1-0.9-0.7-1.4-1.6-1.6c-1.1-0.2-2.2-0.4-3.3-0.6c-4.5-0.7-9-0.2-13.4,0.9c-1.2,0.3-2.6,1-2.7,2.5c-0.2,2,0,4,0,6
			c0,1.2,0.7,1.8,1.8,2C81.4,88.7,84.6,89.1,87.1,89.3z"/>
		<path class="st2" d="M21.1,66.2c2.9-0.3,5.7-0.1,8.3,0.8c0.3,0.1,0.7,0.7,0.7,1.1c0.1,3.1,0,6.2,0,9.4c0.1,5.9,0.3,11.8,0.4,17.6
			c0,0.2,0,0.4,0,0.8c-2.3-0.2-4.5-0.3-6.7-0.5c-0.2,0-0.5-0.5-0.6-0.9c-0.8-3.4-1.2-6.9-1.3-10.4c-0.1-5.5-0.5-10.9-0.8-16.4
			C21.1,67.2,21.1,66.7,21.1,66.2z"/>
		<path class="st2" d="M117.2,82.1c-2.1,0-3.9,0.1-5.7,0.1c-0.9,0-1.4-0.4-1.4-1.4c-0.1-5.7-0.2-11.4-0.3-17.1c0-2.6,0-5.1-0.1-7.7
			c0-1,0.4-1.4,1.4-1.4c1.8,0,3.6-0.2,5.6-0.3C116.8,63.6,117,72.7,117.2,82.1z"/>
		<path class="st2" d="M116.7,49.5c-2.1,0.2-3.9,0.4-5.7,0.6c-0.7,0.1-1-0.2-1.1-0.9c-0.3-2.1-0.6-4.2-0.9-6.3
			c-0.5-4.2-0.9-8.4-1.3-12.6c0-0.4,0-0.8,0-1.4c2.5,0.2,4.9,0.4,7.4,0.6C117,36,116.2,42.8,116.7,49.5z"/>
		<path d="M33.5,43.7c0-3.1,0-6.2,0-9.4c0-2,0.6-2.8,2.5-2.6c4.8,0.5,9.4-0.6,14.1-1c1-0.1,2-0.2,3-0.2c2.6-0.1,5.1-0.2,7.7-0.2
			c2.1,0,3.2,0.9,3.5,3c0.6,5.1,1.1,10.2,1.6,15.3c0.2,2.2,0.4,4.4,0.4,6.6c0.1,1.8-0.5,2.5-2.3,2.7c-3.1,0.3-6.2,0.6-9.3,0.7
			C49,58.9,43.3,59,37.5,59.1c-2,0-2.6-0.3-3-2.3c-0.4-2.2-0.6-4.4-0.7-6.7c-0.1-2.1,0-4.2,0-6.4C33.7,43.7,33.6,43.7,33.5,43.7z
			 M64.2,55.8c0-0.5,0-0.9,0-1.3c-0.3-3.6-0.6-7.2-0.9-10.9c-0.3-3.2-0.7-6.4-1-9.5c-0.1-0.9-0.4-1.6-1.4-1.5
			c-2.6,0.1-5.3,0.2-7.9,0.3c-5.5,0.2-11,1.7-16.6,1.1c-0.2,0-0.4,0.1-0.6,0.1c0,0.3,0,0.5,0,0.8c0.1,5.4,0.2,10.8,0.4,16.2
			c0,1.6,0.3,3.1,0.4,4.6c0.1,0.9,0.5,1.3,1.5,1.3c7.1-0.2,14.2-0.3,21.3-0.5C60.9,56.3,62.5,56,64.2,55.8z"/>
		<path d="M97.4,48.6c0,2.6,0,5.1,0,7.7c-0.1,2.6-0.7,3.2-3.3,3.1c-1.5-0.1-3.1-0.4-4.6-0.5c-2.2-0.1-4.4,0-6.6-0.1
			c-4.4-0.2-8.8-0.5-13.1-0.8c-1.4-0.1-1.9-0.6-1.9-2c-0.2-5.6-0.4-11.2-0.5-16.8c0-1.9,0.3-3.8,0.4-5.7c0.1-1.9,1.7-3.4,3.6-3.4
			c1.5,0,2.9,0.3,4.4,0.4c2.1,0.1,4.1,0.3,6.2,0.3c3.8,0.1,7.7,0.1,11.5,0.2c1.9,0.1,2.5,0.8,2.9,2.7C97.4,38.7,97.6,43.6,97.4,48.6
			z M95.3,48.5c0.1-4.8,0-9.5-1-14.2c-0.2-0.8-0.4-1.1-1.2-1.1c-1.2,0-2.3-0.1-3.5-0.1c-5.1-0.1-10.3,0.4-15.4-0.5
			c-0.7-0.1-1.4-0.2-2.1-0.2c-0.9,0-2.1,0.9-2.1,1.6c-0.2,2.4-0.5,4.8-0.4,7.2c0.1,4.7,0.3,9.3,0.4,14c0,0.6,0.2,0.9,0.9,1
			c2.8,0.2,5.6,0.5,8.3,0.6c3.4,0.1,6.9,0,10.3,0.1c1.5,0,2.9,0.3,4.4,0.5c1.1,0.1,1.5-0.2,1.4-1.4C95.2,53.5,95.3,51,95.3,48.5z"/>
		<path d="M87.1,89.3c-2.5-0.3-5.7-0.6-8.8-0.9c-1.2-0.1-1.8-0.8-1.8-2c-0.1-2-0.2-4,0-6c0.1-1.5,1.5-2.2,2.7-2.5
			c4.4-1.1,8.9-1.6,13.4-0.9c1.1,0.2,2.2,0.3,3.3,0.6c0.9,0.2,1.5,0.6,1.6,1.6c0.3,2.5,0.5,4.9,0.7,7.4c0.1,1.3-0.6,1.9-1.8,2
			C93.4,88.9,90.6,89.1,87.1,89.3z M96.1,86.6c-0.3-2.3-0.4-4.4-0.7-6.4c0-0.2-0.5-0.5-0.9-0.6c-4.4-0.9-8.8-0.9-13.2,0.1
			c-1.9,0.4-2.8,1.4-2.8,3.4c0,0.6,0.1,1.2,0,1.8c-0.2,1.1,0.4,1.6,1.4,1.7c2.1,0.1,4.1,0.4,6.2,0.4C89.3,87,92.5,86.8,96.1,86.6z"
			/>
		<path class="st2" d="M64.2,55.8c-1.7,0.2-3.2,0.5-4.8,0.6c-7.1,0.2-14.2,0.3-21.3,0.5c-1.1,0-1.5-0.4-1.5-1.3
			c-0.1-1.5-0.4-3.1-0.4-4.6c-0.2-5.4-0.3-10.8-0.4-16.2c0-0.2,0-0.5,0-0.8c0.2,0,0.4-0.1,0.6-0.1c5.6,0.6,11-0.9,16.6-1.1
			c2.6-0.1,5.3-0.2,7.9-0.3c1.1,0,1.4,0.7,1.4,1.5c0.4,3.2,0.7,6.4,1,9.5c0.3,3.6,0.6,7.2,0.9,10.9C64.2,54.9,64.2,55.3,64.2,55.8z"
			/>
		<path class="st2" d="M95.3,48.5c0,2.5,0,5,0,7.4c0,1.1-0.4,1.5-1.4,1.4c-1.5-0.2-2.9-0.5-4.4-0.5c-3.4-0.1-6.9,0-10.3-0.1
			c-2.8-0.1-5.6-0.4-8.3-0.6c-0.7,0-0.9-0.4-0.9-1c-0.1-4.7-0.4-9.3-0.4-14c0-2.4,0.3-4.8,0.4-7.2c0-0.7,1.3-1.6,2.1-1.6
			c0.7,0,1.4,0.1,2.1,0.2c5.1,0.9,10.3,0.4,15.4,0.5c1.2,0,2.3,0.1,3.5,0.1c0.8,0,1,0.3,1.2,1.1C95.3,39,95.4,43.7,95.3,48.5z"/>
		<path class="st2" d="M96.1,86.6c-3.6,0.1-6.8,0.4-10,0.4c-2.1,0-4.1-0.3-6.2-0.4c-1.1-0.1-1.6-0.5-1.4-1.7c0.1-0.6,0-1.2,0-1.8
			c0-2,0.9-3,2.8-3.4c4.4-1,8.8-1,13.2-0.1c0.3,0.1,0.8,0.4,0.9,0.6C95.6,82.3,95.8,84.3,96.1,86.6z"/>
	</g>
</g>
</svg>
