<?xml version="1.0" encoding="utf-8"?>
<!-- Generator: Adobe Illustrator 24.0.1, SVG Export Plug-In . SVG Version: 6.00 Build 0)  -->
<svg version="1.1" xmlns="http://www.w3.org/2000/svg" xmlns:xlink="http://www.w3.org/1999/xlink" x="0px" y="0px"
	 viewBox="0 0 102.9 71.8" style="enable-background:new 0 0 102.9 71.8;" xml:space="preserve">
<style type="text/css">
	.st0{fill:#FFE87B;}
	.st1{fill:#1E1E1C;}
	.st2{fill:#1E1E1C;stroke:#1E1E1C;stroke-width:0.25;stroke-miterlimit:10;}
	.st3{fill:#1E1E1C;stroke:#1E1E1C;stroke-width:0.15;stroke-miterlimit:10;}
	.st4{fill:#FFFFFF;}
	.st5{stroke:#1E1E1C;stroke-miterlimit:10;}
	.st6{fill:none;stroke:#1E1E1C;stroke-width:3;stroke-linecap:round;stroke-linejoin:round;stroke-miterlimit:10;}
	.st7{stroke:#000000;stroke-width:1.5;stroke-miterlimit:10;}
	.st8{fill:#010202;}
</style>
<g id="Calque_2">
</g>
<g id="Calque_1">
	<g>
		<path d="M13,1.6c-0.2,0-0.4,0.1-0.6,0.4c-0.1,0.2-0.2,0.6-0.3,1c-0.2,1.2-0.3,2.3-0.6,3.5c-0.2,1.1-0.4,2.3-0.7,3.4
			c-0.3,1.5-0.5,2.7-0.7,3.7c-0.1,0.7-0.2,1.3-0.3,1.7c0-0.1-0.1-0.2-0.2-0.2c-0.4-0.6-0.7-1.1-1-1.6c-0.2-0.5-0.4-0.9-0.6-1.2
			C8.1,12.1,8,12,7.9,11.9c-0.1-0.1-0.3-0.2-0.5-0.2c-0.2,0-0.5,0.1-0.7,0.5l-0.2,0.6c-0.1,0.3-0.3,0.7-0.5,1.3
			c-0.3,0.6-0.5,1.1-0.6,1.5c-0.1,0.2-0.1,0.3-0.1,0.4c0-0.1-0.1-0.2-0.1-0.3c-0.2-0.5-0.4-1.1-0.6-1.8c-0.2-0.7-0.5-1.6-0.8-2.6
			c-0.3-1-0.6-2-0.8-2.8C2.5,7.5,2.3,6.7,2.1,5.9C1.5,3,1.3,2.4,1.1,2.3C1.1,2.2,1,2.2,0.9,2.2c-0.1,0-0.2,0-0.2,0
			c-0.2,0-0.4,0.1-0.5,0.2C0.1,2.5,0,2.7,0,2.9c0,0,0,0.2,0.4,2.1c0.4,1.8,0.8,3.5,1.2,5.1c0.5,1.6,0.9,3.2,1.4,4.8
			c0.5,1.7,0.9,2.7,1.2,3.2c0.1,0.1,0.2,0.2,0.3,0.3c0.1,0.1,0.2,0.1,0.3,0.1c0.1,0,0.2,0,0.3-0.1c0.1-0.1,0.2-0.1,0.3-0.2
			c0.2-0.2,0.3-0.4,0.5-0.8c0.2-0.4,0.4-0.7,0.6-1.2C6.8,15.8,7,15.4,7.2,15c0.1-0.3,0.2-0.5,0.3-0.7c0,0.1,0.1,0.1,0.1,0.2l1.6,2.7
			c0.4,0.7,0.7,1.1,1.1,1.1c0.4,0,0.7-0.4,0.9-1.1c0.1-0.4,0.3-1.2,0.5-2.5c0.2-1.3,0.5-3,0.9-5.2c0.4-2.2,0.7-3.9,0.9-5
			c0.2-1.2,0.3-1.8,0.3-2C13.7,1.7,13.3,1.6,13,1.6z"/>
		<path d="M22.8,10.3c-0.4-1.4-0.7-2.5-0.9-3.5c-1-3.7-1.3-4.3-1.4-4.5c-0.1-0.1-0.3-0.2-0.5-0.2c-0.3,0-0.6,0.1-0.9,0.4
			c-0.3,0.2-0.5,0.5-0.5,0.8c-0.1,0.3-0.5,2.3-1.3,6.4c-0.4,2-0.7,3.6-1,4.8c-0.2,1.2-0.4,2-0.4,2.3c0,0.2-0.1,0.3-0.1,0.5
			c0,0.1,0,0.3,0,0.3c0,0.2,0.1,0.4,0.2,0.6c0.1,0.2,0.3,0.2,0.6,0.2c0.3,0,0.6-0.2,0.7-0.5c0-0.1,0.1-0.2,0.2-0.6
			c0.1-0.3,0.2-0.8,0.3-1.5c0.1-0.6,0.2-1.2,0.4-1.8c0.1-0.6,0.2-1.2,0.4-1.8c0.2-0.9,0.3-1.3,0.3-1.5c0.1,0,0.2,0,0.3,0
			c1.5,0,2,0,2.2,0.1c0,0,0,0,0,0c0,0,0.1,0.2,0.3,1c0.4,1.9,0.8,3.4,1.1,4.4c0.3,1.1,0.5,1.7,0.6,1.9c0.2,0.4,0.4,0.6,0.7,0.6
			c0.2,0,0.4-0.1,0.5-0.2c0.1-0.1,0.2-0.3,0.2-0.5c0-0.3-0.2-1.3-0.7-3C23.5,13.3,23.1,11.7,22.8,10.3z M20.8,9.2
			c-0.2,0-0.4,0-0.9,0h-0.8c-0.1,0-0.1,0-0.2,0C19,9,19,8.9,19,8.6c0.1-0.4,0.2-1.1,0.4-2c0.1-0.5,0.2-0.9,0.2-1.2
			c0-0.1,0.1-0.2,0.1-0.4C19.8,5.4,19.9,5.7,20,6c0.1,0.5,0.2,1,0.4,1.4c0.1,0.3,0.2,0.6,0.2,0.7c0,0.2,0.1,0.3,0.1,0.4
			C20.7,8.9,20.7,9,20.8,9.2C20.8,9.2,20.8,9.2,20.8,9.2z"/>
		<path d="M33.8,2c-0.2-0.1-0.5-0.1-0.7-0.1h-0.8c-0.3,0-0.5,0-0.8,0C30.3,2,29.3,2,28.6,2c-1,0-1.2,0.1-1.3,0.1
			c-0.4,0.1-0.5,0.4-0.5,0.7c0,0.3,0.1,0.5,0.4,0.7c0.2,0.1,0.8,0.1,1.6,0.1h0.9l0,4.7c0,1.1,0,2.3,0,3.4c0,1.2,0,2.3,0,3.5
			c0,2.2,0.1,2.7,0.2,2.8l0.2,0.3v-0.1c0.1,0.1,0.3,0.1,0.4,0.1c0.3,0,0.5-0.1,0.6-0.2l0,0l0-0.1l0,0c0.1-0.2,0.1-1.2,0.2-7.6
			c0-2.1,0-3.8,0-5c0-1,0-1.7,0-2l0.3,0c0.2,0,0.4,0,0.7,0c0.2,0,0.5,0,0.7,0c0.2,0,0.4,0,0.5,0c0.2,0,0.3,0,0.3-0.1
			c0.2-0.1,0.3-0.2,0.4-0.3c0.1-0.1,0.2-0.3,0.2-0.5C34.2,2.3,34.1,2.1,33.8,2z"/>
		<path d="M41.5,16.6c-0.6-0.1-1.1-0.2-1.4-0.4c-0.3-0.2-0.6-0.4-0.9-0.8c-0.8-1.1-1.2-3-1.2-5.5c0-0.8,0-1.5,0.1-2.2
			c0.1-0.6,0.1-1.2,0.3-1.7c0.1-0.5,0.3-1,0.5-1.4c0.2-0.4,0.4-0.8,0.7-1.2c0.4-0.5,0.7-0.7,1.1-0.8c0.8-0.1,0.9-0.5,0.9-0.8
			c0-0.2-0.1-0.3-0.3-0.5c-0.2-0.2-0.4-0.3-0.5-0.3c0,0,0,0-0.1,0l-0.1,0c-0.6,0-1.1,0.2-1.5,0.6c-0.4,0.4-0.8,0.8-1.1,1.3v0
			c-0.7,1-1.1,2.1-1.3,3.3c-0.2,1.2-0.3,2.4-0.3,3.6c0,1.2,0,2,0.1,2.4c0.1,0.7,0.3,1.5,0.5,2.2c0.2,0.7,0.5,1.3,0.9,1.9
			c0.4,0.6,0.9,1,1.5,1.4c0.6,0.4,1.3,0.5,2.2,0.6h0.1c0.8,0,1-0.4,1-0.8C42.5,17.1,42.3,16.7,41.5,16.6z"/>
		<path d="M51.3,7.1c-0.1-1.5-0.2-2.7-0.3-3.6c-0.1-1.3-0.2-1.4-0.3-1.4c-0.1-0.1-0.2-0.2-0.3-0.2c-0.1-0.1-0.2-0.1-0.3-0.1
			c-0.4,0-0.5,0.2-0.6,0.4c-0.1,0.2-0.1,0.4-0.1,0.7c0,0.1,0,0.3,0,0.7c0,0.4,0.1,0.8,0.1,1.4c0.1,1.6,0.2,2.6,0.2,3.1v0.6H46V6
			c0-2.8-0.1-3.3-0.1-3.5C45.8,2.2,45.5,2,45.2,2c-0.2,0-0.3,0-0.5,0.2V2l-0.2,0.6c0,0.1-0.1,0.2-0.1,7.7v7.5l0,0
			c0.3,0.3,0.5,0.4,0.7,0.4c0.3,0,0.5-0.1,0.7-0.3c0.1-0.1,0.2-0.2,0.2-4.2l0-3.4h3.9c0.1,1.3,0.1,2.7,0.2,4c0,0.8,0,1.5,0.1,2
			c0,0.5,0,0.9,0.1,1.1c0,0.2,0.1,0.5,0.3,0.8c0.2,0.3,0.4,0.5,0.7,0.5c0.2,0,0.5-0.1,0.6-0.5l0-0.1c0-0.1,0-0.1,0-0.2v-0.2
			c0-0.3,0-1.4-0.1-3.2C51.6,12.9,51.4,10.4,51.3,7.1z"/>
		<path d="M71,2.8c-0.3,0-0.5,0.1-0.6,0.3L69.9,4l0.3-0.3c0,0.1,0,0.1,0,0.2c0,0.2-0.1,0.4-0.2,0.7c-0.1,0.3-0.2,0.6-0.3,1
			c-0.9,2.7-1.6,4.8-2.1,6.5c-0.4,1.4-0.8,2.5-1,3.2c-0.1-0.2-0.2-0.5-0.4-0.9C66,13.8,65.8,13,65.4,12c-1.1-2.7-1.9-4.9-2.5-6.3
			c-0.9-2.3-1-2.4-1-2.4C61.7,3.1,61.5,3,61.3,3c-0.5,0-0.7,0.3-0.7,0.8c0,0.1,0,0.2,0.1,0.5c0.1,0.2,0.2,0.5,0.3,0.7
			c0.1,0.3,0.2,0.5,0.3,0.7c0.1,0.2,0.2,0.4,0.2,0.5c0.1,0.2,0.2,0.4,0.2,0.6c0.1,0.2,0.1,0.3,0.2,0.4c0.6,1.4,1.1,2.7,1.5,4
			c0.4,1.2,0.9,2.4,1.3,3.5c1.2,2.9,1.5,3.4,1.6,3.6c0.1,0.1,0.3,0.2,0.5,0.2c0.3,0,0.6-0.2,0.8-0.6c0.1-0.3,0.5-1.4,1.1-3.3
			c0.6-1.9,1.4-4.6,2.4-7.9c0.2-0.8,0.4-1.4,0.5-1.9c0.1-0.5,0.2-0.9,0.2-1c0-0.2-0.1-0.4-0.2-0.6C71.5,2.9,71.3,2.8,71,2.8z"/>
		<path d="M75.7,14.7c0-1.8-0.1-3.5-0.1-5.3s-0.1-3.5-0.1-5.3l0-1.5l-0.3-0.3c-0.2-0.2-0.4-0.3-0.6-0.3c-0.5,0-0.8,0.5-0.8,1.6
			l0,0.3c0,0.1,0,0.5,0.1,1.6c0,0.9,0,2.3,0.1,4c0.1,2.5,0.1,4.4,0.1,5.8c0,1.9,0.1,2.2,0.1,2.3c0,0.2,0.1,0.3,0.3,0.4
			c0.1,0.1,0.3,0.2,0.5,0.2c0.2,0,0.3,0,0.5-0.1c0.1-0.1,0.2-0.2,0.3-0.4c0-0.1,0.1-0.3,0.1-0.4c0-0.1,0-0.3,0-0.4c0,0,0-0.1,0-0.3
			L75.7,14.7z"/>
		<path d="M83.6,3.7c-0.6-0.8-1.3-1.4-2.1-1.9C80.7,1.3,79.8,1,78.9,1c-0.1,0-0.3,0-0.4,0c-0.1,0-0.2,0-0.3,0
			c-0.3,0.1-0.5,0.2-0.6,0.4c-0.1,0.2-0.1,0.5-0.1,0.9c0,0.3,0,0.9,0,1.5c0,0.7,0.1,1.5,0.1,2.4c0,1,0.1,1.8,0.1,2.4
			c0,0.6,0,1,0.1,1.3c0.1,2.1,0.2,3.8,0.2,5.1c0,1.3,0.1,2.1,0.2,2.5c0.1,0.5,0.5,0.7,1.2,0.7h0.2c0.8,0,1.5-0.1,2.1-0.4
			c0.6-0.2,1.2-0.6,1.6-1c0.5-0.4,0.8-1,1.1-1.6c0.3-0.6,0.5-1.3,0.7-2c0.1-0.4,0.1-1.1,0.1-2.3c0-1.3-0.1-2.6-0.3-3.8
			C84.8,6,84.3,4.8,83.6,3.7z M79.8,16.7C79.8,16.7,79.8,16.7,79.8,16.7c-0.1-0.2-0.1-0.5-0.2-1.4c-0.1-0.8-0.1-2-0.2-3.5
			c0-0.1,0-0.3,0-0.8l0-1.8c0-0.8,0-1.5-0.1-2.1c0-0.7,0-1.3-0.1-1.8c0-0.6,0-1.1-0.1-1.4c0-0.4-0.1-0.7-0.1-0.9c0-0.1,0-0.2,0-0.3
			c0,0,0-0.1,0-0.1c0.1,0,0.4,0.1,0.6,0.1c0.8,0.3,1.5,0.7,2,1.3c0.5,0.6,0.9,1.3,1.2,2c0.3,0.8,0.5,1.6,0.6,2.4
			c0.1,0.8,0.1,1.7,0.1,2.5c0,1.2-0.1,2-0.2,2.4c-0.3,0.9-0.7,1.7-1.2,2.2c-0.5,0.5-1.2,0.9-2,1.1C80.1,16.6,79.9,16.7,79.8,16.7z"
			/>
		<path d="M90.6,1.4h-0.6c-0.2,0-0.4,0-0.5,0h-0.1c-0.5,0-0.9,0-1.2,0.1c-0.3,0-0.6,0.2-0.8,0.5l0,0c0,0.1-0.1,0.2-0.1,2.3
			c0,0.3,0,0.7,0,1.5c0,0.7,0,1.6,0,2.5c0,1,0,2,0,3c0,1.1,0,2,0.1,2.9c0,0.9,0.1,1.7,0.1,2.3c0,0.8,0.1,1,0.1,1.1
			c0.1,0.1,0.1,0.2,0.2,0.3c0.1,0.1,0.2,0.2,0.3,0.2c0.1,0,0.3,0,0.5,0.1c0.2,0,0.6,0,1,0l2,0l0-0.1c0.2-0.4,0.3-0.6,0.3-0.8v-0.1
			c0-0.4-0.2-0.5-0.4-0.6c-0.2-0.1-0.7-0.1-1.5-0.1c-0.3,0-0.6,0-0.8,0h-0.2c0-0.1,0-0.2,0-0.4c0-0.2,0-0.6-0.1-1
			c-0.1-1-0.1-2-0.1-2.8c0-0.2,0-0.4,0-0.6c0-0.1,0-0.3,0-0.4l0-0.3c0.3,0,0.5-0.1,0.8-0.2c0.2-0.1,0.4-0.3,0.4-0.7
			c0-0.4-0.2-0.8-1.2-0.8h-0.1v0c0-0.1,0-0.4,0-1c0-0.6,0-1.4-0.1-2.5l0-2.8h0.1c0.2,0,0.3,0,0.5,0c0.2,0,0.3,0,0.5,0
			c1.5,0,1.9-0.2,2-0.4L92,2.5c0.1-0.1,0.1-0.2,0.1-0.3c0-0.2-0.1-0.4-0.3-0.6C91.7,1.5,91.5,1.4,90.6,1.4z"/>
		<path d="M102.9,8.3c0-0.6,0-1-0.1-1.4c-0.1-0.6-0.2-1.3-0.4-2c-0.2-0.7-0.5-1.3-0.8-1.8c-0.3-0.6-0.8-1-1.3-1.4
			c-0.5-0.4-1.2-0.5-2-0.5c-0.6,0-1.2,0.1-1.7,0.3c-0.5,0.2-0.9,0.5-1.3,0.9c-0.3,0.4-0.6,0.9-0.8,1.4c-0.2,0.5-0.3,1.1-0.4,1.7
			c0,0.4-0.1,0.9-0.1,1.4c0,0.5,0,1.1,0,1.7c0,0.4,0,0.7,0.1,0.8c0,0.2,0,0.5,0,1.3c0,0.6,0,1.2,0.1,1.8c0.1,0.6,0.2,1.2,0.4,1.8
			c0.1,0.5,0.2,0.9,0.4,1.2c0.1,0.3,0.3,0.6,0.5,0.9c0.2,0.3,0.4,0.5,0.6,0.7c0.2,0.2,0.4,0.4,0.7,0.5c0.5,0.4,1.2,0.5,1.9,0.5
			c0.9,0,1.8-0.3,2.4-0.9c0.5-0.4,0.8-1,1.1-1.5c0.3-0.6,0.4-1.2,0.6-1.8c0.1-0.6,0.2-1.3,0.2-1.9c0-0.7,0-1.3,0-1.8
			C102.9,9.5,102.9,8.8,102.9,8.3z M97.3,3c0.3-0.1,0.6-0.2,0.9-0.2c0.6,0,1.2,0.2,1.5,0.6c0.4,0.4,0.7,1,0.9,1.6
			c0.2,0.6,0.4,1.3,0.4,2c0.1,0.7,0.1,1.3,0.1,1.8c0,0.3,0,0.5,0,0.7l0-0.1l0.1,0.9c0,0.5,0,1.2-0.1,1.9c0,0.7-0.1,1.4-0.3,2.1
			c-0.2,0.7-0.5,1.2-0.9,1.7c-0.4,0.5-0.9,0.7-1.6,0.7c-0.3,0-0.6,0-0.8-0.1c-0.4-0.2-0.8-0.6-1-1.2c-0.3-0.7-0.5-1.4-0.6-2.3
			c-0.1-0.8-0.2-1.7-0.3-2.5c0-0.8-0.1-1.5-0.1-2c0-1.6,0.1-2.6,0.2-3.1C95.9,5,96,4.7,96.1,4.4c0.1-0.3,0.3-0.6,0.5-0.8
			C96.8,3.3,97.1,3.1,97.3,3z"/>
	</g>
	<path d="M96.1,65c-0.3-0.3-0.7-0.4-1.2-0.4c-0.8,0-1.5-0.1-2.3,0c-0.8-13.4-7-26.2-17.1-35c-0.8-0.7-2.1,0.5-1.2,1.2
		c9.8,8.6,15.8,20.9,16.6,33.9c-0.6,0-1.3,0.1-1.9,0.1c-0.5,0-0.9,0.4-0.9,0.9c0,0,0,0.1,0,0.1c0,0.3,0,0.5,0.1,0.8
		c0,0.6,0.4,1.3,0.7,1.8c0.4,0.7,0.9,1.5,1.3,2.2c0.4,0.7,1,1.4,1.8,1.3c0.9-0.1,1.5-0.8,2-1.4c0.5-0.6,1-1.3,1.4-1.9
		c0.4-0.7,0.8-1.4,1-2.1C96.6,65.9,96.5,65.3,96.1,65z"/>
</g>
</svg>
